<svg version="1.1" xmlns="http://www.w3.org/2000/svg" xmlns:xlink="http://www.w3.org/1999/xlink" width="100" height="100" viewBox="0,0,100,100"><g transform="translate(-190,-130)"><g data-paper-data="{&quot;isPaintingLayer&quot;:true}" fill-rule="nonzero" stroke-linejoin="miter" stroke-miterlimit="10" stroke-dasharray="" stroke-dashoffset="0" style="mix-blend-mode: normal"><path d="M190,229.99962v-73.99708h100v73.99708z" fill="#e61818" stroke="#000000" stroke-width="0" stroke-linecap="butt"/><path d="M190,130h100v26.00255h-100z" fill="#ff3333" stroke="#e61818" stroke-width="0" stroke-linecap="butt"/><g><g fill="#ff3333" stroke-width="0" stroke-linecap="butt"><path d="M210.91265,209.08966c5.6531,5.6531 6.5986,14.23113 2.8365,20.86264c-0.68412,1.2059 -2.8365,-20.86263 -2.8365,-20.86263z" data-paper-data="{&quot;index&quot;:null}" stroke="none"/><path d="M210.91265,209.08969v20.91031h-20.91031z" stroke="#e61818"/><path d="M213.64352,230h-2.73087v-20.91031z" stroke="#e61818"/><path d="M210.91034,229.99998v-8.44817h5.09137v8.44817z" stroke="#e61818"/></g><g data-paper-data="{&quot;index&quot;:null}" fill="#cb0000" stroke-width="0" stroke-linecap="butt"><path d="M210.91033,209.08967c0,0 -22.06853,-2.15238 -20.86263,-2.8365c6.63151,-3.7621 15.20954,-2.8166 20.86264,2.8365z" data-paper-data="{&quot;index&quot;:null}" stroke="none"/><path d="M190,229.99998v-20.91031h20.91031z" stroke="#e61818"/><path d="M210.91031,209.08967h-20.91031v-2.73087z" stroke="#e61818"/><path d="M190.00002,204.00061h8.44817v5.09137h-8.44817z" stroke="#e61818"/></g><path d="M210.74151,209.26082l-20.48918,20.48918" fill="none" stroke="#e61818" stroke-width="0.5" stroke-linecap="round"/></g></g></g></svg>