<svg version="1.1" xmlns="http://www.w3.org/2000/svg" xmlns:xlink="http://www.w3.org/1999/xlink" width="100.00036" height="100.00002" viewBox="0,0,100.00036,100.00002"><g transform="translate(-189.99982,-129.99999)"><g data-paper-data="{&quot;isPaintingLayer&quot;:true}" fill-rule="nonzero" stroke-linejoin="miter" stroke-miterlimit="10" stroke-dasharray="" stroke-dashoffset="0" style="mix-blend-mode: normal"><g data-paper-data="{&quot;index&quot;:null}" fill="#ffffff" stroke-width="0" stroke-linecap="butt"><path d="M275.20973,144.79047l-70.41909,70.41909v-70.41909z" stroke="#000000"/><path d="M272.61714,147.38306h-65.23391v-17.38304h65.23391z" stroke="#000000"/><path d="M207.38322,147.38306v65.23391h-17.38304v-65.23391z" stroke="#000000"/><path d="M195.09155,159.6747c-6.7885,-6.7885 -6.7885,-17.79483 0,-24.58333c6.7885,-6.7885 17.79483,-6.7885 24.58333,0c6.7885,6.7885 6.7885,17.79483 0,24.58333c-6.7885,6.7885 -17.79483,6.7885 -24.58333,0z" stroke="none"/></g><g data-paper-data="{&quot;index&quot;:null}" fill="#999999" stroke-width="0" stroke-linecap="butt"><path d="M260.32548,224.90864c-6.7885,-6.7885 -6.7885,-17.79483 0,-24.58333c6.7885,-6.7885 17.79482,-6.7885 24.58332,0c6.7885,6.7885 6.7885,17.79483 0,24.58333c-6.7885,6.7885 -17.79483,6.7885 -24.58333,0z" stroke="none"/><path d="M204.79063,215.20957l70.41909,-70.41909v70.41909z" stroke="#000000"/><path d="M272.61714,212.61698v-65.23391h17.38304v65.23391z" stroke="#000000"/><path d="M272.61714,230.00001h-65.23391v-17.38304h65.23391z" stroke="#000000"/></g><g data-paper-data="{&quot;index&quot;:null}" fill="#cdcdcd" stroke="none" stroke-width="0" stroke-linecap="butt"><path d="M216.00274,173.38634c0,-9.60039 7.78265,-17.38304 17.38304,-17.38304c9.60039,0 17.38302,7.78265 17.38302,17.38304c0,9.60039 -7.78264,17.38304 -17.38302,17.38304c-9.60039,0 -17.38304,-7.78265 -17.38304,-17.38304z"/><path d="M229.23083,173.38634c0,-9.60039 7.78265,-17.38304 17.38304,-17.38304c9.60039,0 17.38303,7.78265 17.38303,17.38304c0,9.60039 -7.78265,17.38304 -17.38303,17.38304c-9.60039,0 -17.38304,-7.78265 -17.38304,-17.38304z"/><path d="M229.23083,186.61369c0,-9.60039 7.78265,-17.38304 17.38304,-17.38304c9.60039,0 17.38303,7.78265 17.38303,17.38304c0,9.60039 -7.78265,17.38304 -17.38303,17.38304c-9.60039,0 -17.38304,-7.78265 -17.38304,-17.38304z"/><path d="M216.00274,186.61369c0,-9.60039 7.78265,-17.38304 17.38304,-17.38304c9.60039,0 17.38302,7.78265 17.38302,17.38304c0,9.60039 -7.78264,17.38304 -17.38302,17.38304c-9.60039,0 -17.38304,-7.78265 -17.38304,-17.38304z"/></g><g data-paper-data="{&quot;index&quot;:null}" fill="#cdcdcd" stroke="#ff0000" stroke-width="0" stroke-linecap="butt"><path d="M232.92143,203.99673v-47.99343h14.15749v47.99343z"/><path d="M263.99689,187.07876h-47.99343v-14.15749h47.99343z"/></g><path d="M284.9088,135.09138l-24.58332,24.58333c0,0 -6.7885,-17.79483 0,-24.58333c6.7885,-6.7885 17.79483,-6.7885 24.58333,0z" data-paper-data="{&quot;index&quot;:null}" fill="#ffffff" stroke="none" stroke-width="0" stroke-linecap="butt"/><path d="M284.90879,135.09137c6.7885,6.7885 6.7885,17.79483 0,24.58333c-6.7885,6.7885 -24.58333,0 -24.58333,0l24.58333,-24.58331z" data-paper-data="{&quot;index&quot;:null}" fill="#999999" stroke="none" stroke-width="0" stroke-linecap="butt"/><path d="M195.09119,224.90863l24.58332,-24.58333c0,0 6.7885,17.79483 0,24.58333c-6.7885,6.7885 -17.79483,6.7885 -24.58333,0z" data-paper-data="{&quot;index&quot;:null}" fill="#999999" stroke="none" stroke-width="0" stroke-linecap="butt"/><path d="M195.09119,224.90866c-6.7885,-6.7885 -6.7885,-17.79483 0,-24.58333c6.7885,-6.7885 24.58333,0 24.58333,0l-24.58333,24.58332z" data-paper-data="{&quot;index&quot;:null}" fill="#ffffff" stroke="none" stroke-width="0" stroke-linecap="butt"/><path d="M284.76158,135.23862l-89.52279,89.52279" data-paper-data="{&quot;index&quot;:null}" fill="#cdcdcd" stroke="#cdcdcd" stroke-width="0.5" stroke-linecap="round"/></g></g></svg>