<svg version="1.1" xmlns="http://www.w3.org/2000/svg" xmlns:xlink="http://www.w3.org/1999/xlink" width="100" height="100.00001" viewBox="0,0,100,100.00001"><g transform="translate(-190,-130.00001)"><g data-paper-data="{&quot;isPaintingLayer&quot;:true}" fill-rule="nonzero" stroke-linejoin="miter" stroke-miterlimit="10" stroke-dasharray="" stroke-dashoffset="0" style="mix-blend-mode: normal"><path d="M216.00329,130.00001v82.61659h-26.00329v-82.61659z" fill="#ff3333" stroke="#000000" stroke-width="0" stroke-linecap="butt"/><path d="M290,230.00003h-82.61659v-26.00329h82.61659z" fill="#cb0000" stroke="#000000" stroke-width="0" stroke-linecap="butt"/><g fill="#ff3333" stroke-width="0" stroke-linecap="butt"><path d="M275.20955,144.79046l-70.41909,70.41909v-70.41909z" stroke="#000000"/><path d="M195.09247,224.90866c-6.7885,-6.7885 -6.7885,-17.79483 0,-24.58333c6.7885,-6.7885 24.58333,0 24.58333,0l-24.58333,24.58332z" data-paper-data="{&quot;index&quot;:null}" stroke="none"/></g><g fill="#cb0000" stroke-width="0" stroke-linecap="butt"><path d="M204.79046,215.20958l70.41909,-70.41909v70.41909z" stroke="#000000"/><path d="M195.09248,224.90864l24.58332,-24.58333c0,0 6.7885,17.79483 0,24.58333c-6.7885,6.7885 -17.79483,6.7885 -24.58333,0z" data-paper-data="{&quot;index&quot;:null}" stroke="none"/></g><g fill="#e61818" stroke-width="0" stroke-linecap="butt"><g stroke="none"><path d="M216.00329,173.38634c0,-9.60039 7.78265,-17.38304 17.38304,-17.38304c9.60039,0 17.38303,7.78265 17.38303,17.38304c0,9.60039 -7.78264,17.38304 -17.38303,17.38304c-9.60039,0 -17.38304,-7.78265 -17.38304,-17.38304z"/><path d="M229.23138,173.38634c0,-9.60039 7.78265,-17.38304 17.38304,-17.38304c9.60039,0 17.38303,7.78265 17.38303,17.38304c0,9.60039 -7.78265,17.38304 -17.38303,17.38304c-9.60039,0 -17.38304,-7.78265 -17.38304,-17.38304z"/><path d="M229.23138,186.61369c0,-9.60039 7.78265,-17.38304 17.38304,-17.38304c9.60039,0 17.38303,7.78265 17.38303,17.38304c0,9.60039 -7.78265,17.38304 -17.38303,17.38304c-9.60039,0 -17.38304,-7.78265 -17.38304,-17.38304z"/><path d="M216.00329,186.61369c0,-9.60039 7.78265,-17.38304 17.38304,-17.38304c9.60039,0 17.38303,7.78265 17.38303,17.38304c0,9.60039 -7.78264,17.38304 -17.38303,17.38304c-9.60039,0 -17.38304,-7.78265 -17.38304,-17.38304z"/></g><g stroke="#ff0000"><path d="M232.92126,203.99674v-47.99343h14.15749v47.99343z"/><path d="M263.99672,187.07877h-47.99343v-14.15749h47.99343z"/></g><path d="M240,203.99674v-73.99671h50v73.99671z" stroke="#000000"/><path d="M290,179.99931h-73.99671v-49.99926h73.99671z" stroke="#000000"/></g><g data-paper-data="{&quot;index&quot;:null}"><g fill="#ff3333" stroke-width="0" stroke-linecap="butt"><path d="M269.08967,150.91268c0,0 22.06853,2.15238 20.86263,2.8365c-6.63151,3.7621 -15.20954,2.8166 -20.86264,-2.8365z" data-paper-data="{&quot;index&quot;:null}" stroke="none"/><path d="M290,130.00238v20.91031h-20.91031z" stroke="#e61818"/><path d="M269.08969,150.91268h20.91031v2.73087z" stroke="#e61818"/><path d="M289.99998,156.00175h-8.44817v-5.09137h8.44817z" stroke="#e61818"/></g><g data-paper-data="{&quot;index&quot;:null}" fill="#cb0000" stroke-width="0" stroke-linecap="butt"><path d="M269.08967,150.91036c-5.6531,-5.6531 -6.5986,-14.23113 -2.8365,-20.86264c0.68412,-1.2059 2.8365,20.86263 2.8365,20.86263z" data-paper-data="{&quot;index&quot;:null}" stroke="none"/><path d="M269.08967,150.91034v-20.91031h20.91031z" stroke="#e61818"/><path d="M266.3588,130.00004h2.73087v20.91031z" stroke="#e61818"/><path d="M269.09198,130.00005v8.44817h-5.09137v-8.44817z" stroke="#e61818"/></g><path d="M269.26082,150.74154l20.48918,-20.48918" fill="none" stroke="#e61818" stroke-width="0.5" stroke-linecap="round"/></g><path d="M237.58748,182.41252l-42.34887,42.34887" data-paper-data="{&quot;index&quot;:null}" fill="none" stroke="#e61818" stroke-width="0.5" stroke-linecap="round"/></g></g></svg>