<svg version="1.1" xmlns="http://www.w3.org/2000/svg" xmlns:xlink="http://www.w3.org/1999/xlink" width="100.00037" height="100.00001" viewBox="0,0,100.00037,100.00001"><g transform="translate(-189.99981,-130)"><g data-paper-data="{&quot;isPaintingLayer&quot;:true}" fill-rule="nonzero" stroke-linejoin="miter" stroke-miterlimit="10" stroke-dasharray="" stroke-dashoffset="0" style="mix-blend-mode: normal"><g data-paper-data="{&quot;index&quot;:null}" fill="#cb0000" stroke-width="0" stroke-linecap="butt"><path d="M204.79026,215.20954l70.41909,-70.41908v70.41909z" stroke="#000000"/><path d="M239.9998,212.61695h50.00038v17.38304l-50.00038,0z" stroke="#000000"/><path d="M272.61676,212.61695v-65.23391l17.38305,0l0,65.23391z" stroke="#000000"/><path d="M284.90881,135.09136c6.7885,6.7885 6.7885,17.79482 0,24.58332c-6.7885,6.7885 -24.58333,0 -24.58333,0l24.58333,-24.58331z" data-paper-data="{&quot;index&quot;:null}" stroke="none"/></g><g data-paper-data="{&quot;index&quot;:null}" fill="#ff3333" stroke-width="0" stroke-linecap="butt"><path d="M219.67451,135.09137c6.7885,6.7885 6.7885,17.79483 0,24.58333c-6.7885,6.7885 -17.79482,6.7885 -24.58332,0c-6.7885,-6.7885 -6.7885,-17.79483 0,-24.58333c6.7885,-6.7885 17.79482,-6.7885 24.58332,0z" stroke="none"/><path d="M275.20935,144.79044l-70.41909,70.41909v-70.41909z" stroke="#000000"/><path d="M216.00236,147.38303l0,82.61696l-26.00255,0l0,-82.61696z" stroke="#000000"/><path d="M207.38286,130l65.23391,0l0,17.38304h-65.23391z" stroke="#000000"/><path d="M284.90881,135.09137l-24.58332,24.58333c0,0 -6.7885,-17.79483 0,-24.58333c6.7885,-6.7885 17.79483,-6.7885 24.58333,0z" data-paper-data="{&quot;index&quot;:null}" stroke="none"/></g><g data-paper-data="{&quot;index&quot;:null}"><g data-paper-data="{&quot;index&quot;:null}" fill="#e61818" stroke="none" stroke-width="0" stroke-linecap="butt"><path d="M263.99651,186.61367c0,9.60039 -7.78265,17.38304 -17.38304,17.38304c-9.60039,0 -17.38302,-7.78265 -17.38302,-17.38304c0,-9.60039 7.78264,-17.38304 17.38303,-17.38304c9.60039,0 17.38304,7.78265 17.38304,17.38304z"/><path d="M250.76843,186.61367c0,9.60039 -7.78265,17.38304 -17.38304,17.38304c-9.60039,0 -17.38303,-7.78265 -17.38303,-17.38304c0,-9.60039 7.78265,-17.38304 17.38303,-17.38304c9.60039,0 17.38304,7.78265 17.38304,17.38304z"/><path d="M250.76843,173.38632c0,9.60039 -7.78265,17.38304 -17.38304,17.38304c-9.60039,0 -17.38303,-7.78265 -17.38303,-17.38304c0,-9.60039 7.78265,-17.38304 17.38303,-17.38304c9.60039,0 17.38304,7.78265 17.38304,17.38304z"/><path d="M263.99651,173.38632c0,9.60039 -7.78265,17.38304 -17.38304,17.38304c-9.60039,0 -17.38302,-7.78265 -17.38303,-17.38304c0,-9.60039 7.78263,-17.38304 17.38303,-17.38304c9.60039,0 17.38304,7.78265 17.38304,17.38304z"/></g><path d="M247.07854,156.00328v47.99343l-14.15749,0l0,-47.99343z" fill="#e61818" stroke="#ff0000" stroke-width="0" stroke-linecap="butt"/><path d="M216.00308,172.92125l47.99343,0v57.07876l-47.99343,-0.00001z" fill="#e61818" stroke="#ff0000" stroke-width="0" stroke-linecap="butt"/><path d="M239.99944,180l44.76139,-44.76139" data-paper-data="{&quot;index&quot;:null}" fill="none" stroke="#e61818" stroke-width="0.5" stroke-linecap="round"/></g></g></g></svg>