<svg version="1.1" xmlns="http://www.w3.org/2000/svg" xmlns:xlink="http://www.w3.org/1999/xlink" width="100" height="99.9998" viewBox="0,0,100,99.9998"><g transform="translate(-190,-130.0001)"><g data-paper-data="{&quot;isPaintingLayer&quot;:true}" fill-rule="nonzero" stroke-linejoin="miter" stroke-miterlimit="10" stroke-dasharray="" stroke-dashoffset="0" style="mix-blend-mode: normal"><path d="M289.99999,130.00025v73.99708h-99.99999v-73.99708z" fill="#cdcdcd" stroke="#000000" stroke-width="0" stroke-linecap="butt"/><path d="M290,229.9999h-100v-26.00255h100z" fill="#999999" stroke="#e61818" stroke-width="0" stroke-linecap="butt"/><g fill="#ffffff" stroke-width="0" stroke-linecap="butt"><path d="M216.00402,138.62051c0,9.60039 -7.78264,17.38303 -17.38303,17.38303c-9.60039,0 17.38303,-26.98342 17.38303,-17.38303z" data-paper-data="{&quot;index&quot;:null}" stroke="none"/><path d="M190,138.62051v-8.62025h26.00255v8.62025z" stroke="#e61818"/><path d="M198.62025,156.00281h-8.62025v-26.00255h8.62025z" stroke="#e61818"/><path d="M194.0475,156.00354v-21.95652h21.95652z" stroke="#e61818"/></g><g data-paper-data="{&quot;index&quot;:null}"><g fill="#ffffff" stroke-width="0" stroke-linecap="butt"><path d="M269.08967,150.91275c0,0 22.06853,2.15238 20.86263,2.8365c-6.63151,3.7621 -15.20954,2.8166 -20.86264,-2.8365z" data-paper-data="{&quot;index&quot;:null}" stroke="none"/><path d="M290,130.00244v20.91031h-20.91031z" stroke="#e61818"/><path d="M269.08969,150.91275h20.91031v2.73087z" stroke="#e61818"/><path d="M289.99998,156.00181h-8.44817v-5.09137h8.44817z" stroke="#e61818"/></g><g data-paper-data="{&quot;index&quot;:null}" fill="#999999" stroke-width="0" stroke-linecap="butt"><path d="M269.08967,150.91044c-5.6531,-5.6531 -6.5986,-14.23113 -2.8365,-20.86264c0.68412,-1.2059 2.8365,20.86263 2.8365,20.86263z" data-paper-data="{&quot;index&quot;:null}" stroke="none"/><path d="M269.08967,150.91041v-20.91031h20.91031z" stroke="#e61818"/><path d="M266.3588,130.0001h2.73087v20.91031z" stroke="#e61818"/><path d="M269.09198,130.00012v8.44817h-5.09137v-8.44817z" stroke="#e61818"/></g><path d="M269.26082,150.74161l20.48918,-20.48918" fill="none" stroke="#cdcdcd" stroke-width="0.5" stroke-linecap="round"/></g></g></g></svg>