<svg version="1.1" xmlns="http://www.w3.org/2000/svg" xmlns:xlink="http://www.w3.org/1999/xlink" width="87.97878" height="87.97878" viewBox="0,0,87.97878,87.97878"><g transform="translate(-196.01061,-136.01061)"><g data-paper-data="{&quot;isPaintingLayer&quot;:true}" fill-rule="nonzero" stroke-linecap="butt" stroke-linejoin="miter" stroke-miterlimit="10" stroke-dasharray="" stroke-dashoffset="0" style="mix-blend-mode: normal"><g><path d="M199.01061,220.98939v-81.97878h81.97878v81.97878z" fill="none" stroke="#ff0000" stroke-width="6"/><path d="M201.95394,218.04606v-76.09212h76.09212v76.09212z" fill-opacity="0.2" fill="#000000" stroke="#000000" stroke-width="0"/><g fill="#ffffff" stroke="#000000" stroke-width="0"><path d="M210,168c0,-4.41828 3.58172,-8 8,-8c4.41828,0 8,3.58172 8,8c0,4.41828 -3.58172,8 -8,8c-4.41828,0 -8,-3.58172 -8,-8z"/><path d="M254,168c0,-4.41828 3.58172,-8 8,-8c4.41828,0 8,3.58172 8,8c0,4.41828 -3.58172,8 -8,8c-4.41828,0 -8,-3.58172 -8,-8z"/></g></g></g></g></svg>