<svg version="1.1" xmlns="http://www.w3.org/2000/svg" xmlns:xlink="http://www.w3.org/1999/xlink" width="100.00073" height="100" viewBox="0,0,100.00073,100"><g transform="translate(-189.99963,-130)"><g data-paper-data="{&quot;isPaintingLayer&quot;:true}" fill-rule="nonzero" stroke-linejoin="miter" stroke-miterlimit="10" stroke-dasharray="" stroke-dashoffset="0" style="mix-blend-mode: normal"><path d="M190.00038,130h82.61659v26.00329h-82.61659z" data-paper-data="{&quot;index&quot;:null}" fill="#ffffff" stroke="#000000" stroke-width="0" stroke-linecap="butt"/><path d="M263.99708,230v-82.61659h26.00329v82.61659z" data-paper-data="{&quot;index&quot;:null}" fill="#999999" stroke="#000000" stroke-width="0" stroke-linecap="butt"/><g data-paper-data="{&quot;index&quot;:null}" fill="#ffffff" stroke-width="0" stroke-linecap="butt"><path d="M204.79082,144.79046h70.41909l-70.41909,70.41909z" stroke="#000000"/><path d="M284.90901,135.09247l-24.58332,24.58333c0,0 -6.7885,-17.79483 0,-24.58333c6.7885,-6.7885 17.79483,-6.7885 24.58333,0z" data-paper-data="{&quot;index&quot;:null}" stroke="none"/></g><g data-paper-data="{&quot;index&quot;:null}" fill="#999999" stroke-width="0" stroke-linecap="butt"><path d="M275.20993,215.20955h-70.41909l70.41909,-70.41909z" stroke="#000000"/><path d="M284.90899,135.09247c6.7885,6.7885 6.7885,17.79483 0,24.58333c-6.7885,6.7885 -24.58333,0 -24.58333,0l24.58333,-24.58332z" data-paper-data="{&quot;index&quot;:null}" stroke="none"/></g><g data-paper-data="{&quot;index&quot;:null}" fill="#cdcdcd" stroke-width="0" stroke-linecap="butt"><g stroke="none"><path d="M250.76974,173.38633c0,9.60039 -7.78265,17.38303 -17.38304,17.38303c-9.60039,0 -17.38304,-7.78264 -17.38304,-17.38303c0,-9.60039 7.78265,-17.38304 17.38304,-17.38304c9.60039,0 17.38304,7.78265 17.38304,17.38304z"/><path d="M250.76974,186.61442c0,9.60038 -7.78265,17.38303 -17.38304,17.38303c-9.60039,0 -17.38304,-7.78264 -17.38304,-17.38303c0,-9.60039 7.78265,-17.38304 17.38304,-17.38304c9.60039,0 17.38304,7.78265 17.38304,17.38304z"/><path d="M263.99709,186.61442c0,9.60038 -7.78265,17.38303 -17.38304,17.38303c-9.60039,0 -17.38304,-7.78264 -17.38304,-17.38303c0,-9.60039 7.78265,-17.38304 17.38304,-17.38304c9.60039,0 17.38304,7.78265 17.38304,17.38304z"/><path d="M263.99709,173.38633c0,9.60039 -7.78265,17.38303 -17.38304,17.38303c-9.60039,0 -17.38304,-7.78264 -17.38304,-17.38303c0,-9.60039 7.78265,-17.38304 17.38304,-17.38304c9.60039,0 17.38304,7.78265 17.38304,17.38304z"/></g><g stroke="#ff0000"><path d="M263.99709,187.07875h-47.99343v-14.15749h47.99343z"/><path d="M232.92163,203.99672v-47.99343h14.15749v47.99343z"/></g><path d="M263.99709,230h-73.99671v-50h73.99671z" stroke="#000000"/><path d="M190.00038,230v-73.99671h49.99926v73.99671z" stroke="#000000"/></g><g><g fill="#ffffff" stroke-width="0" stroke-linecap="butt"><path d="M210.91229,209.08966c5.6531,5.6531 6.5986,14.23113 2.8365,20.86264c-0.68412,1.2059 -2.8365,-20.86263 -2.8365,-20.86263z" data-paper-data="{&quot;index&quot;:null}" stroke="none"/><path d="M210.91229,209.08969v20.91031h-20.91031z" stroke="#e61818"/><path d="M213.64315,230h-2.73087v-20.91031z" stroke="#e61818"/><path d="M210.90998,229.99998v-8.44817h5.09137v8.44817z" stroke="#e61818"/></g><g data-paper-data="{&quot;index&quot;:null}" fill="#999999" stroke-width="0" stroke-linecap="butt"><path d="M210.90996,209.08967c0,0 -22.06853,-2.15238 -20.86263,-2.8365c6.63151,-3.7621 15.20954,-2.8166 20.86264,2.8365z" data-paper-data="{&quot;index&quot;:null}" stroke="none"/><path d="M189.99964,229.99998v-20.91031h20.91031z" stroke="#e61818"/><path d="M210.90995,209.08967h-20.91031v-2.73087z" stroke="#e61818"/><path d="M189.99966,204.00061h8.44817v5.09137h-8.44817z" stroke="#e61818"/></g><path d="M210.74114,209.26082l-20.48918,20.48918" fill="none" stroke="#cdcdcd" stroke-width="0.5" stroke-linecap="round"/></g><path d="M284.76141,135.23861l-44.7614,44.76139" data-paper-data="{&quot;index&quot;:null}" fill="#cdcdcd" stroke="#cdcdcd" stroke-width="0.5" stroke-linecap="round"/></g></g></svg>