<svg version="1.1" xmlns="http://www.w3.org/2000/svg" xmlns:xlink="http://www.w3.org/1999/xlink" width="100" height="100.00037" viewBox="0,0,100,100.00037"><g transform="translate(-190,-129.99982)"><g data-paper-data="{&quot;isPaintingLayer&quot;:true}" fill-rule="nonzero" stroke-linejoin="miter" stroke-miterlimit="10" stroke-dasharray="" stroke-dashoffset="0" style="mix-blend-mode: normal"><g data-paper-data="{&quot;index&quot;:null}" fill="#999999" stroke-width="0" stroke-linecap="butt"><path d="M275.20954,215.20935h-70.41909l70.41909,-70.41909z" stroke="#000000"/><path d="M289.99999,179.9998v50.00038h-17.38304v-50.00038z" stroke="#000000"/><path d="M272.61695,229.99981h-65.23391v-17.38304h65.23391z" stroke="#000000"/><path d="M195.09136,224.90881l24.58332,-24.58333c0,0 6.7885,17.79483 0,24.58333c-6.7885,6.7885 -17.79482,6.7885 -24.58332,0z" data-paper-data="{&quot;index&quot;:null}" stroke="none"/></g><g data-paper-data="{&quot;index&quot;:null}" fill="#ffffff" stroke-width="0" stroke-linecap="butt"><path d="M195.09137,159.67452c-6.7885,-6.7885 -6.7885,-17.79483 0,-24.58333c6.7885,-6.7885 17.79483,-6.7885 24.58333,0c6.7885,6.7885 6.7885,17.79482 0,24.58331c-6.7885,6.7885 -17.79483,6.7885 -24.58333,0z" stroke="none"/><path d="M204.79044,144.79026h70.41909l-70.41909,70.41909z" stroke="#000000"/><path d="M207.38303,129.99982h82.61696v26.00255h-82.61696z" stroke="#000000"/><path d="M207.38304,147.38285v65.23391h-17.38304v-65.23391z" stroke="#000000"/><path d="M195.09137,224.90881c-6.7885,-6.7885 -6.7885,-17.79483 0,-24.58333c6.7885,-6.7885 24.58333,0 24.58333,0z" data-paper-data="{&quot;index&quot;:null}" stroke="none"/></g><g data-paper-data="{&quot;index&quot;:null}" fill="#cdcdcd"><g data-paper-data="{&quot;index&quot;:null}" stroke="none" stroke-width="0" stroke-linecap="butt"><path d="M229.23063,186.61348c0,-9.60039 7.78265,-17.38302 17.38304,-17.38303c9.60039,0 17.38304,7.78263 17.38304,17.38302c0,9.60039 -7.78265,17.38304 -17.38304,17.38304c-9.60039,0 -17.38304,-7.78265 -17.38304,-17.38304z"/><path d="M229.23063,173.3854c0,-9.60038 7.78265,-17.38303 17.38304,-17.38303c9.60039,0 17.38304,7.78264 17.38304,17.38303c0,9.60039 -7.78265,17.38304 -17.38304,17.38304c-9.60039,0 -17.38304,-7.78265 -17.38304,-17.38304z"/><path d="M216.00328,173.3854c0,-9.60038 7.78265,-17.38303 17.38304,-17.38303c9.60039,0 17.38304,7.78264 17.38304,17.38303c0,9.60039 -7.78265,17.38304 -17.38304,17.38304c-9.60039,0 -17.38304,-7.78265 -17.38304,-17.38304z"/><path d="M216.00328,186.61348c0,-9.60039 7.78265,-17.38303 17.38304,-17.38302c9.60039,0 17.38304,7.78263 17.38304,17.38302c0,9.60039 -7.78265,17.38304 -17.38304,17.38304c-9.60039,0 -17.38304,-7.78265 -17.38304,-17.38304z"/></g><path d="M216.00328,172.92106h47.99343v14.15749h-47.99343z" stroke="#ff0000" stroke-width="0" stroke-linecap="butt"/><path d="M290,156.00309v47.99343h-57.07875v-47.99343z" stroke="#ff0000" stroke-width="0" stroke-linecap="butt"/><path d="M240,179.99945l-44.7614,44.76139" data-paper-data="{&quot;index&quot;:null}" stroke="#cdcdcd" stroke-width="0.5" stroke-linecap="round"/></g></g></g></svg>