<svg version="1.1" xmlns="http://www.w3.org/2000/svg" xmlns:xlink="http://www.w3.org/1999/xlink" width="175.83323" height="193.63195" viewBox="0,0,175.83323,193.63195"><defs><linearGradient x1="236.00096" y1="180.00631" x2="236.00096" y2="209.49415" gradientUnits="userSpaceOnUse" id="color-1"><stop offset="0" stop-color="#4d6fbf" stop-opacity="0"/><stop offset="1" stop-color="#4d6fbf"/></linearGradient><linearGradient x1="188.50103" y1="180.00584" x2="333.21677" y2="180.00584" gradientTransform="translate(-57.31209,-66.72903) scale(0.30405,0.30405)" gradientUnits="userSpaceOnUse" id="color-2"><stop offset="0" stop-color="#8d95c4"/><stop offset="1" stop-color="#bdbdbd"/></linearGradient><linearGradient x1="188.49488" y1="179.99941" x2="291.50382" y2="179.99941" gradientTransform="translate(-57.31209,-66.72903) scale(0.30405,0.30405)" gradientUnits="userSpaceOnUse" id="color-3"><stop offset="0" stop-color="#a698b4"/><stop offset="1" stop-color="#a9a9af"/></linearGradient></defs><g transform="translate(-152.08338,-78.37201)"><g data-paper-data="{&quot;isPaintingLayer&quot;:true}" fill-rule="nonzero" stroke-linecap="butt" stroke-linejoin="miter" stroke-miterlimit="10" stroke-dasharray="" stroke-dashoffset="0" style="mix-blend-mode: normal"><path d="M156.70237,226.99115l36.30647,-130.28875l130.28877,36.30648l-36.30648,130.28876z" fill-opacity="0.30196" fill="#000000" stroke="#814bf1" stroke-width="7.5"/><path d="M156.70237,226.80973l36.30647,-130.28875l130.28877,36.30648l-36.30648,130.28876z" fill-opacity="0.50196" fill="#000000" stroke="#47388c" stroke-width="7.5"/><path d="M160.98809,224.57342l4.84426,-16.54069c1.99302,-0.0373 128.9009,0.00521 132.66466,-0.01643l-13.92359,50.99563z" fill="#4d6fbf" stroke="none" stroke-width="0"/><path d="" fill="#653333" stroke="none" stroke-width="0"/><path d="M165.48752,208.67797l8.19334,-28.66847c1.99302,-0.0373 129.06979,0.26579 132.83355,0.24415l-8.09869,29.2405z" fill="url(#color-1)" stroke="none" stroke-width="0"/><path d="M297.96879,240.92205l-7.80325,28.00259l-44.98071,-12.5344" fill="none" stroke="#ffffff" stroke-width="5"/><path d="M175.34107,143.08614l14.4934,-52.01076l72.45166,20.1895" fill="none" stroke="#ffffff" stroke-width="5"/><text transform="translate(188.49545,219.46712) scale(3.28893,3.28893)" font-size="40" xml:space="preserve" fill="url(#color-2)" fill-rule="nonzero" stroke="url(#color-3)" stroke-width="1" stroke-linecap="butt" stroke-linejoin="miter" stroke-miterlimit="10" stroke-dasharray="" stroke-dashoffset="0" font-family="Sans Serif" font-weight="normal" text-anchor="start" style="mix-blend-mode: normal"><tspan x="0" dy="0">Ω</tspan></text></g></g></svg>