<svg version="1.1" xmlns="http://www.w3.org/2000/svg" xmlns:xlink="http://www.w3.org/1999/xlink" width="175.83323" height="213.81302" viewBox="0,0,175.83323,213.81302"><defs><linearGradient x1="236.00096" y1="180.0063" x2="236.00096" y2="209.49414" gradientUnits="userSpaceOnUse" id="color-1"><stop offset="0" stop-color="#d9ab4c" stop-opacity="0"/><stop offset="1" stop-color="#d9ab4c"/></linearGradient><linearGradient x1="203.58474" y1="159.50177" x2="275.71516" y2="159.50177" gradientTransform="translate(-62.09426,-60.64866) scale(0.30501,0.30501)" gradientUnits="userSpaceOnUse" id="color-2"><stop offset="0" stop-color="#f38659"/><stop offset="1" stop-color="#ffded7"/></linearGradient></defs><g transform="translate(-152.08337,-58.19094)"><g data-paper-data="{&quot;isPaintingLayer&quot;:true}" fill-rule="nonzero" stroke-linecap="butt" stroke-linejoin="miter" stroke-miterlimit="10" stroke-dasharray="" stroke-dashoffset="0" style="mix-blend-mode: normal"><path d="M156.70237,226.80972l36.30647,-130.28875l130.28877,36.30648l-36.30648,130.28876z" fill-opacity="0.50196" fill="#000000" stroke="#805439" stroke-width="7.5"/><path d="M160.98809,224.57341l4.84426,-16.54069c1.99302,-0.0373 128.9009,0.00521 132.66466,-0.01643l-13.92359,50.99563z" fill="#d9ab4c" stroke="none" stroke-width="0"/><path d="M165.48752,208.67796l8.19334,-28.66847c1.99302,-0.0373 129.06979,0.26579 132.83355,0.24415l-8.09869,29.2405z" fill="url(#color-1)" stroke="none" stroke-width="0"/><path d="M297.96879,240.92204l-7.80325,28.00259l-44.98071,-12.5344" fill="none" stroke="#ffffff" stroke-width="5"/><path d="M175.34107,143.08613l14.4934,-52.01076l72.45166,20.1895" fill="none" stroke="#ffffff" stroke-width="5"/><text transform="translate(203.58287,198.84332) scale(3.27861,3.27861)" font-size="40" xml:space="preserve" fill="url(#color-2)" fill-rule="nonzero" stroke="none" stroke-width="1" stroke-linecap="butt" stroke-linejoin="miter" stroke-miterlimit="10" stroke-dasharray="" stroke-dashoffset="0" font-family="Sans Serif" font-weight="normal" text-anchor="start" style="mix-blend-mode: normal"><tspan x="0" dy="0">χ</tspan></text></g></g></svg>