<svg version="1.1" xmlns="http://www.w3.org/2000/svg" xmlns:xlink="http://www.w3.org/1999/xlink" width="57.83449" height="14.19382" viewBox="0,0,57.83449,14.19382"><defs><linearGradient x1="260.34448" y1="173.86977" x2="260.34448" y2="185.90007" gradientTransform="translate(-1059.19745,-729.72765) scale(4.23298,3.98995)" gradientUnits="userSpaceOnUse" id="color-1"><stop offset="0" stop-color="#ffef33"/><stop offset="1" stop-color="#ff9733"/></linearGradient></defs><g transform="translate(-232.01957,-171.98924)"><g data-paper-data="{&quot;isPaintingLayer&quot;:true}" fill-rule="nonzero" stroke-linejoin="miter" stroke-miterlimit="10" stroke-dasharray="" stroke-dashoffset="0" style="mix-blend-mode: normal"><path d="M232.08331,181.83541c0.3373,-0.00933 1.10381,-0.07522 1.44113,-0.0871c0.18836,1.27214 0.6636,2.06251 1.43985,3.01497c-0.26449,0.21818 -0.90729,0.85628 -1.18047,1.06383c-0.90368,-1.12095 -1.51037,-2.49137 -1.7005,-3.9917z" fill="#ffffff" stroke="none" stroke-width="0" stroke-linecap="butt"/><path d="M232.01957,180.82203c0,-2.15599 0.85495,-4.11229 2.24432,-5.54838c0.19173,0.26071 0.69843,0.76081 0.90846,1.00581c-1.14582,1.24642 -1.63777,2.77703 -1.63777,4.60356c0,0.02493 -0.51488,-0.06355 -0.51462,-0.03869c-0.33337,0.00956 -0.66693,0.01756 -1.00025,0.02426c-0.00009,-0.0155 -0.00014,-0.03102 -0.00014,-0.04656z" fill="#ffffff" stroke="none" stroke-width="0" stroke-linecap="butt"/><path d="M239.45626,172.85979c0,0.30135 0,1.2493 0,1.54696c-1.4601,0.11626 -2.4251,0.43465 -3.49522,1.30946c-0.20635,-0.24063 -0.77135,-0.85911 -0.96021,-1.11514c1.2359,-0.99445 2.77433,-1.62816 4.45543,-1.74128z" fill="#ffffff" stroke="none" stroke-width="0" stroke-linecap="butt"/><path d="M246.4466,181.69017c0.32306,0.02349 1.197,0.22604 1.52032,0.24767c-0.21463,1.53417 -0.92929,3.12003 -1.88691,4.24522c-0.24285,-0.22941 -0.87108,-0.84798 -1.11379,-1.07636c0.81519,-0.95739 1.27542,-2.11816 1.48038,-3.41652z" fill="#ffffff" stroke="none" stroke-width="0" stroke-linecap="butt"/><path d="M246.39787,180.8973c0,-1.70011 -0.47842,-3.07195 -1.4863,-4.28466c0.24105,-0.1953 0.97836,-0.70333 1.22324,-0.89512c1.15247,1.38356 1.84572,3.16307 1.84572,5.10451c0,0.04037 -0.0003,0.08066 -0.0009,0.12088c-0.32044,-0.02122 -0.59578,-0.00592 -0.91594,-0.02909c0.00053,-0.03538 -0.66581,0.01899 -0.66581,-0.01652z" fill="#ffffff" stroke="none" stroke-width="0" stroke-linecap="butt"/><path d="M240.41131,174.27706c0,-0.30955 0.04491,-1.11313 0.04491,-1.42269c1.92644,0.10858 3.67024,0.90043 4.99291,2.13709c-0.24645,0.19378 -0.85059,0.83854 -1.09322,1.03582c-1.14104,-1.03271 -2.30973,-1.64959 -3.94459,-1.75022z" fill="#ffffff" stroke="none" stroke-width="0" stroke-linecap="butt"/><path d="M238.74504,181.02659c-0.17395,-0.61948 0.18721,-1.26269 0.80669,-1.43663c0.61948,-0.17395 1.26269,0.18722 1.43663,0.8067c0.17395,0.61948 -0.18722,1.26269 -0.8067,1.43663c-0.61948,0.17395 -1.26268,-0.18722 -1.43663,-0.8067z" fill="#ffffff" stroke="none" stroke-width="0" stroke-linecap="butt"/><path d="M238.98411,181.03743l-0.34563,-4.64254l2.09535,4.05037l-1.34958,0.58066" fill="#ffffff" stroke="#ffffff" stroke-width="0.5" stroke-linecap="round"/><text transform="translate(250.2248,182.89164) scale(0.23624,0.25063)" font-size="40" xml:space="preserve" fill="url(#color-1)" fill-rule="nonzero" stroke="none" stroke-width="1" stroke-linecap="butt" stroke-linejoin="miter" stroke-miterlimit="10" stroke-dasharray="" stroke-dashoffset="0" font-family="Sans Serif" font-weight="normal" text-anchor="start" style="mix-blend-mode: normal"><tspan x="0" dy="0">nORMAL</tspan></text></g></g></svg>