<svg version="1.1" xmlns="http://www.w3.org/2000/svg" xmlns:xlink="http://www.w3.org/1999/xlink" width="175.83323" height="202.20802" viewBox="0,0,175.83323,202.20802"><defs><linearGradient x1="237.16658" y1="180.0063" x2="237.16658" y2="200.33948" gradientUnits="userSpaceOnUse" id="color-1"><stop offset="0" stop-color="#e0dd6b" stop-opacity="0"/><stop offset="1" stop-color="#e0dd6b"/></linearGradient><linearGradient x1="193.6095" y1="165.99958" x2="330.59824" y2="165.99958" gradientTransform="translate(-62.18615,-65.31792) scale(0.32119,0.32119)" gradientUnits="userSpaceOnUse" id="color-2"><stop offset="0" stop-color="#e3dfb5"/><stop offset="1" stop-color="#d4cbcb"/></linearGradient></defs><g transform="translate(-152.08337,-69.79595)"><g data-paper-data="{&quot;isPaintingLayer&quot;:true}" fill-rule="nonzero" stroke-linecap="butt" stroke-linejoin="miter" stroke-miterlimit="10" stroke-dasharray="" stroke-dashoffset="0" style="mix-blend-mode: normal"><path d="M156.70237,226.80972l36.30647,-130.28875l130.28877,36.30648l-36.30648,130.28876z" fill-opacity="0.50196" fill="#000000" stroke="#807e33" stroke-width="7.5"/><path d="M160.98809,224.57341l4.84426,-16.54069c1.99302,-0.0373 128.9009,0.00521 132.66466,-0.01643l-13.92359,50.99563z" fill="#e0dd6b" stroke="none" stroke-width="0"/><path d="" fill="#653333" stroke="none" stroke-width="0"/><path d="M165.48751,208.67796l8.19334,-28.66847c1.99302,-0.0373 129.06979,0.26579 132.83355,0.24415l-8.09869,29.2405z" fill="url(#color-1)" stroke="none" stroke-width="0"/><path d="M297.96878,240.92204l-7.80325,28.00259l-44.98071,-12.5344" fill="none" stroke="#ffffff" stroke-width="5"/><path d="M175.34106,143.08613l14.4934,-52.01076l72.45166,20.1895" fill="none" stroke="#ffffff" stroke-width="5"/><text transform="translate(193.61036,203.36081) scale(3.1134,3.1134)" font-size="40" xml:space="preserve" fill="url(#color-2)" fill-rule="nonzero" stroke="none" stroke-width="1" stroke-linecap="butt" stroke-linejoin="miter" stroke-miterlimit="10" stroke-dasharray="" stroke-dashoffset="0" font-family="Sans Serif" font-weight="normal" text-anchor="start" style="mix-blend-mode: normal"><tspan x="0" dy="0">φ</tspan></text></g></g></svg>