<svg version="1.1" xmlns="http://www.w3.org/2000/svg" xmlns:xlink="http://www.w3.org/1999/xlink" width="175.83323" height="187.30702" viewBox="0,0,175.83323,187.30702"><defs><linearGradient x1="237.16658" y1="180.0063" x2="237.16658" y2="200.33948" gradientUnits="userSpaceOnUse" id="color-1"><stop offset="0" stop-color="#50a6b3" stop-opacity="0"/><stop offset="1" stop-color="#50a6b3"/></linearGradient><linearGradient x1="203.26164" y1="186.01944" x2="275.39652" y2="186.01944" gradientTransform="translate(-61.99186,-68.73318) scale(0.30501,0.30501)" gradientUnits="userSpaceOnUse" id="color-2"><stop offset="0" stop-color="#55bcd9"/><stop offset="1" stop-color="#55d2d9"/></linearGradient></defs><g transform="translate(-152.08337,-84.69693)"><g data-paper-data="{&quot;isPaintingLayer&quot;:true}" fill-rule="nonzero" stroke-linecap="butt" stroke-linejoin="miter" stroke-miterlimit="10" stroke-dasharray="" stroke-dashoffset="0" style="mix-blend-mode: normal"><path d="M156.70237,226.80972l36.30647,-130.28875l130.28877,36.30648l-36.30648,130.28876z" fill-opacity="0.50196" fill="#000000" stroke="#3a7780" stroke-width="7.5"/><path d="M160.98809,224.57341l4.84426,-16.54069c1.99302,-0.0373 128.9009,0.00521 132.66466,-0.01643l-13.92359,50.99563z" fill="#51a6b3" stroke="none" stroke-width="0"/><path d="M165.48751,208.67796l8.19334,-28.66847c1.99302,-0.0373 129.06979,0.26579 132.83355,0.24415l-8.09869,29.2405z" fill="url(#color-1)" stroke="none" stroke-width="0"/><text transform="translate(203.24714,225.34931) scale(3.27861,3.27861)" font-size="40" xml:space="preserve" fill="url(#color-2)" fill-rule="nonzero" stroke="none" stroke-width="1" stroke-linecap="butt" stroke-linejoin="miter" stroke-miterlimit="10" stroke-dasharray="" stroke-dashoffset="0" font-family="Sans Serif" font-weight="normal" text-anchor="start" style="mix-blend-mode: normal"><tspan x="0" dy="0">S</tspan></text><path d="M297.96878,240.92204l-7.80325,28.00259l-44.98071,-12.5344" fill="none" stroke="#ffffff" stroke-width="5"/><path d="M175.34106,143.08613l14.4934,-52.01076l72.45166,20.1895" fill="none" stroke="#ffffff" stroke-width="5"/></g></g></svg>