<svg version="1.1" xmlns="http://www.w3.org/2000/svg" xmlns:xlink="http://www.w3.org/1999/xlink" width="159.99601" height="39.69802" viewBox="0,0,159.99601,39.69802"><defs><linearGradient x1="199.91192" y1="180.1397" x2="199.91192" y2="183.70383" gradientUnits="userSpaceOnUse" id="color-1"><stop offset="0" stop-color="#7e4c4c" stop-opacity="0"/><stop offset="1" stop-color="#7e4c4c"/></linearGradient></defs><g transform="translate(-160.0599,-160.02855)"><g data-paper-data="{&quot;isPaintingLayer&quot;:true}" fill-rule="nonzero" stroke-linejoin="miter" stroke-miterlimit="10" stroke-dasharray="" stroke-dashoffset="0" style="mix-blend-mode: normal"><path d="" fill="#653333" stroke="none" stroke-width="0" stroke-linecap="butt"/><path d="M160.94419,198.97145v-37.69812h157.99597v37.69812z" fill-opacity="0.50196" fill="#000000" stroke="none" stroke-width="0" stroke-linecap="butt"/><path d="M319.05591,180.09585v18.63072h-30.0515" fill="none" stroke="#ffffff" stroke-width="2" stroke-linecap="butt"/><path d="M161.0599,197.71369v-36.68514h50.97498" fill="none" stroke="#ffffff" stroke-width="2" stroke-linecap="butt"/><text transform="translate(168.11018,186.18827) scale(0.5,0.5)" font-size="40" xml:space="preserve" fill="#ffffff" fill-rule="nonzero" stroke="none" stroke-width="1" stroke-linecap="butt" stroke-linejoin="miter" stroke-miterlimit="10" stroke-dasharray="" stroke-dashoffset="0" font-family="Sans Serif" font-weight="normal" text-anchor="start" style="mix-blend-mode: normal"><tspan x="0" dy="0">1</tspan></text><g stroke-linecap="butt"><path d="M185.80762,188.34371l6.36404,-22.83786l22.83786,6.36404l-6.36404,22.83786z" fill-opacity="0.50196" fill="#000000" stroke="#4d2f2f" stroke-width="1.5"/><path d="M186.55885,187.95171l0.84914,-2.89936c0.34935,-0.00654 22.59458,0.00091 23.25432,-0.00288l-2.44062,8.93885z" fill="#804d4d" stroke="none" stroke-width="0"/><path d="M187.34756,185.16545l1.43618,-5.0252c0.34935,-0.00654 22.62419,0.04659 23.28393,0.04279l-1.56175,5.19655z" fill="url(#color-1)" stroke="none" stroke-width="0"/><text transform="translate(192.87622,187.89227) scale(0.54977,0.54977)" font-size="40" xml:space="preserve" fill="#995c5c" fill-rule="nonzero" stroke="none" stroke-width="1" stroke-linecap="butt" stroke-linejoin="miter" stroke-miterlimit="10" stroke-dasharray="" stroke-dashoffset="0" font-family="Sans Serif" font-weight="normal" text-anchor="start" style="mix-blend-mode: normal"><tspan x="0" dy="0">D</tspan></text><path d="M210.56971,190.8174l-1.36781,4.90848l-7.88451,-2.19711" fill="none" stroke="#ffffff" stroke-width="1"/><path d="M189.07473,173.66808l2.5405,-9.11678l12.6998,3.53895" fill="none" stroke="#ffffff" stroke-width="1"/></g><text transform="translate(217.94015,174.16855) scale(0.22588,0.22588)" font-size="40" xml:space="preserve" fill="#ffffff" fill-rule="nonzero" stroke="none" stroke-width="1" stroke-linecap="butt" stroke-linejoin="miter" stroke-miterlimit="10" stroke-dasharray="" stroke-dashoffset="0" font-family="Sans Serif" font-weight="normal" text-anchor="start" style="mix-blend-mode: normal"><tspan x="0" dy="0">SCORE 1234567</tspan></text><text transform="translate(215.3233,191.44958) scale(0.345,0.345)" font-size="40" xml:space="preserve" fill="#ffffff" fill-rule="nonzero" stroke="none" stroke-width="1" stroke-linecap="butt" stroke-linejoin="miter" stroke-miterlimit="10" stroke-dasharray="" stroke-dashoffset="0" font-family="Sans Serif" font-weight="normal" text-anchor="start" style="mix-blend-mode: normal"><tspan x="0" dy="0">ACC 68.27%</tspan></text><path d="M295.81113,189.73162l5.57355,-13.25855l13.25856,5.57354l-5.57355,13.25856z" fill="none" stroke="#ffffff" stroke-width="0.5" stroke-linecap="butt"/><path d="M299.9032,186.65148c0,-2.78839 2.26044,-5.04883 5.04883,-5.04883c2.78839,0 5.04885,2.26044 5.04885,5.04883c0,1.11181 -0.35936,2.13965 -0.96826,2.97376c-2.72039,0 -5.44075,0 -8.16113,0c-0.60892,-0.8341 -0.96827,-1.86196 -0.96827,-2.97376z" fill="none" stroke="#ffffff" stroke-width="0.5" stroke-linecap="butt"/><g fill="#ffffff" stroke="none" stroke-width="0"><path d="M304.47195,186.39431c0.41779,-0.27194 0.95609,-0.18569 1.20236,0.19263c0.24626,0.37832 0.10721,0.90548 -0.31058,1.17742c-0.41779,0.27194 -0.95609,0.18569 -1.20236,-0.19263c-0.24626,-0.37832 -0.1072,-0.90548 0.31058,-1.17743z" stroke-linecap="butt"/><path d="M305.38669,187.73021l-3.00623,1.05511l2.11153,-2.3992z" stroke-linecap="round"/></g><text transform="translate(294.91697,171.0088) scale(0.2282,0.2282)" font-size="40" xml:space="preserve" fill="#991f1f" fill-rule="nonzero" stroke="none" stroke-width="1" stroke-linecap="butt" stroke-linejoin="miter" stroke-miterlimit="10" stroke-dasharray="" stroke-dashoffset="0" font-family="Sans Serif" font-weight="normal" text-anchor="start" style="mix-blend-mode: normal"><tspan x="0" dy="0">Hard</tspan></text></g></g></svg>