<svg version="1.1" xmlns="http://www.w3.org/2000/svg" xmlns:xlink="http://www.w3.org/1999/xlink" width="175.83323" height="188.91932" viewBox="0,0,175.83323,188.91932"><defs><linearGradient x1="237.16658" y1="180.00631" x2="237.16658" y2="200.33949" gradientUnits="userSpaceOnUse" id="color-1"><stop offset="0" stop-color="#a68e52" stop-opacity="0"/><stop offset="1" stop-color="#a68e52"/></linearGradient><linearGradient x1="198.91474" y1="179.9453" x2="267.89499" y2="179.9453" gradientTransform="translate(-63.44037,-69.39028) scale(0.31883,0.31883)" gradientUnits="userSpaceOnUse" id="color-2"><stop offset="0" stop-color="#cca866"/><stop offset="1" stop-color="#ccb466"/></linearGradient></defs><g transform="translate(-152.08336,-83.08464)"><g data-paper-data="{&quot;isPaintingLayer&quot;:true}" fill-rule="nonzero" stroke-linecap="butt" stroke-linejoin="miter" stroke-miterlimit="10" stroke-dasharray="" stroke-dashoffset="0" style="mix-blend-mode: normal"><path d="M156.70236,226.80973l36.30647,-130.28875l130.28877,36.30648l-36.30648,130.28876z" fill-opacity="0.50196" fill="#000000" stroke="#736039" stroke-width="7.5"/><path d="M160.98809,224.57342l5.49658,-18.17148c1.99302,-0.0373 129.55322,0.00521 133.31698,-0.01643l-15.22822,52.62642z" fill="#a68d53" stroke="none" stroke-width="0"/><path d="M165.48751,208.67797l8.19334,-28.66847c1.99302,-0.0373 129.06979,0.26579 132.83355,0.24415l-8.09869,29.2405z" fill="url(#color-1)" stroke="none" stroke-width="0"/><text transform="translate(198.97564,217.63706) scale(3.13642,3.13642)" font-size="40" xml:space="preserve" fill="url(#color-2)" fill-rule="nonzero" stroke="none" stroke-width="1" stroke-linecap="butt" stroke-linejoin="miter" stroke-miterlimit="10" stroke-dasharray="" stroke-dashoffset="0" font-family="Sans Serif" font-weight="normal" text-anchor="start" style="mix-blend-mode: normal"><tspan x="0" dy="0">A</tspan></text><path d="M297.96878,240.92204l-7.80325,28.00259l-44.98071,-12.5344" fill="none" stroke="#ffffff" stroke-width="5"/><path d="M175.34106,143.08613l14.4934,-52.01076l72.45166,20.1895" fill="none" stroke="#ffffff" stroke-width="5"/></g></g></svg>