<svg version="1.1" xmlns="http://www.w3.org/2000/svg" xmlns:xlink="http://www.w3.org/1999/xlink" width="59.68308" height="59.68307" viewBox="0,0,59.68308,59.68307"><g transform="translate(-210.1585,-150.1585)"><g data-paper-data="{&quot;isPaintingLayer&quot;:true}" fill-rule="nonzero" stroke-linejoin="miter" stroke-miterlimit="10" stroke-dasharray="" stroke-dashoffset="0" style="mix-blend-mode: normal"><path d="M211.79523,191.50985l16.69499,-39.71462l39.71463,16.69499l-16.69499,39.71462z" fill="none" stroke="#ffffff" stroke-width="2.5" stroke-linecap="butt"/><path d="M236.45946,179.06434l-11.00374,6.78147l-0.66588,-13.195l4.65024,5.1838z" fill="#ffffff" stroke="none" stroke-width="0" stroke-linecap="round"/><path d="M227.27719,177.87586c1.45245,-6.26988 7.07256,-10.94292 13.7841,-10.94292c7.8142,0 14.14887,6.33466 14.14887,14.14886c0,5.04967 -2.64534,9.48149 -6.62582,11.98527c2.18703,-2.05086 3.55338,-4.9665 3.55338,-8.20127c0,-6.2082 -5.03274,-11.24094 -11.24094,-11.24094c-4.21503,0 -7.88821,2.31993 -9.81233,5.75257c-0.90986,1.6232 -4.04589,-0.47147 -3.80726,-1.50156z" fill="#ffffff" stroke="none" stroke-width="0" stroke-linecap="butt"/></g></g></svg>