<svg version="1.1" xmlns="http://www.w3.org/2000/svg" xmlns:xlink="http://www.w3.org/1999/xlink" width="59.68308" height="59.68307" viewBox="0,0,59.68308,59.68307"><g transform="translate(-210.15848,-150.15848)"><g data-paper-data="{&quot;isPaintingLayer&quot;:true}" fill-rule="nonzero" stroke-linejoin="miter" stroke-miterlimit="10" stroke-dasharray="" stroke-dashoffset="0" style="mix-blend-mode: normal"><path d="M211.79521,191.50983l16.69499,-39.71462l39.71463,16.69499l-16.69499,39.71462z" fill="none" stroke="#b3b3b3" stroke-width="2.5" stroke-linecap="butt"/><path d="M224.05245,182.28357c0,-8.35236 6.77093,-15.12329 15.12329,-15.12329c8.35236,0 15.12329,6.77093 15.12329,15.12329c0,3.33027 -1.07644,6.40913 -2.90036,8.90761c-8.14862,0 -16.29723,0 -24.44585,0c-1.82393,-2.49848 -2.90036,-5.57734 -2.90036,-8.90761z" fill="none" stroke="#b3b3b3" stroke-width="1.5" stroke-linecap="butt"/><g fill="#b3b3b3" stroke="none" stroke-width="0"><path d="M239.56416,181.25902c1.44776,0.3655 2.35308,1.72461 2.02209,3.03564c-0.33099,1.31103 -1.77295,2.07754 -3.2207,1.71203c-1.44776,-0.3655 -2.35308,-1.72461 -2.02209,-3.03564c0.33099,-1.31103 1.77295,-2.07754 3.2207,-1.71204z" stroke-linecap="butt"/><path d="M238.48738,185.98775l-8.43488,-4.46411l9.57052,-0.23718z" stroke-linecap="round"/></g></g></g></svg>