<svg version="1.1" xmlns="http://www.w3.org/2000/svg" xmlns:xlink="http://www.w3.org/1999/xlink" width="59.68308" height="59.68307" viewBox="0,0,59.68308,59.68307"><g transform="translate(-210.15848,-150.15848)"><g data-paper-data="{&quot;isPaintingLayer&quot;:true}" fill-rule="nonzero" stroke-linejoin="miter" stroke-miterlimit="10" stroke-dasharray="" stroke-dashoffset="0" style="mix-blend-mode: normal"><path d="M211.79521,191.50983l16.69499,-39.71462l39.71463,16.69499l-16.69499,39.71462z" fill="none" stroke="#b3b3b3" stroke-width="2.5" stroke-linecap="butt"/><path d="M224.05245,182.28357c0,-8.35236 6.77093,-15.12329 15.12329,-15.12329c8.35236,0 15.12329,6.77093 15.12329,15.12329c0,3.33027 -1.07644,6.40913 -2.90036,8.90761c-8.14862,0 -16.29723,0 -24.44585,0c-1.82393,-2.49848 -2.90036,-5.57734 -2.90036,-8.90761z" fill="none" stroke="#b3b3b3" stroke-width="1.5" stroke-linecap="butt"/><g fill="#b3b3b3" stroke="none" stroke-width="0"><path d="M239.13921,185.95214c-1.64602,-0.23854 -2.82559,-1.51705 -2.63466,-2.8556c0.19093,-1.33855 1.68009,-2.23028 3.3261,-1.99172c1.64602,0.23854 2.82559,1.51705 2.63466,2.8556c-0.19093,1.33855 -1.68009,2.23028 -3.3261,1.99174z" stroke-linecap="butt"/><path d="M239.69875,181.13439l9.90032,3.72195l-10.52847,1.07354z" stroke-linecap="round"/></g><path d="M226.93162,182.29494c0,-6.72683 5.45318,-12.18001 12.18002,-12.18001c6.72683,0 12.18001,5.45318 12.18001,12.18001c0,0.61811 -0.13488,1.81882 -0.13488,1.81882c0,0 -2.26105,-1.29853 -3.56389,-1.59373c-0.60177,-4.94741 -4.81647,-8.78 -9.92633,-8.78c-4.74165,0 -8.7125,3.30016 -9.74097,7.72888c-0.23786,0.73119 -0.36644,1.51168 -0.36644,2.3222c0,0.41835 0.03426,0.82871 0.10011,1.22841c0.07181,1.23152 0.44077,2.38325 1.03623,3.38454c-0.01751,0.04048 -0.03467,0.08115 -0.05148,0.12199c-1.08755,-1.82304 -1.71237,-3.95411 -1.71237,-6.23112z" fill="#b3b3b3" stroke="none" stroke-width="0" stroke-linecap="butt"/></g></g></svg>