<svg version="1.1" xmlns="http://www.w3.org/2000/svg" xmlns:xlink="http://www.w3.org/1999/xlink" width="59.68308" height="59.68307" viewBox="0,0,59.68308,59.68307"><g transform="translate(-210.15848,-150.15848)"><g data-paper-data="{&quot;isPaintingLayer&quot;:true}" fill-rule="nonzero" stroke-linecap="butt" stroke-linejoin="miter" stroke-miterlimit="10" stroke-dasharray="" stroke-dashoffset="0" style="mix-blend-mode: normal"><path d="M211.79521,191.50983l16.69499,-39.71462l39.71463,16.69499l-16.69499,39.71462z" fill="none" stroke="#ffffff" stroke-width="2.5"/><g fill="#ffffff" stroke="none" stroke-width="0"><path d="M228.32083,168.66674c3.20702,-3.64477 8.76149,-3.99963 12.40626,-0.79262c3.64477,3.20702 3.99964,8.76149 0.79262,12.40626c-3.20702,3.64477 -8.76149,3.99964 -12.40626,0.79262c-3.64477,-3.20702 -3.99964,-8.76149 -0.79262,-12.40626zM231.62311,178.33844c2.07315,1.82415 5.23253,1.6223 7.05668,-0.45084c1.82415,-2.07315 1.6223,-5.23253 -0.45084,-7.05668c-2.07315,-1.82415 -5.23253,-1.6223 -7.05668,0.45084c-1.82415,2.07315 -1.6223,5.23253 0.45084,7.05668z"/><path d="M225.92347,179.83831l2.2166,-1.94627l4.25637,3.74517l-1.6524,2.44271c0,0 -1.9023,-0.9713 -2.71519,-1.68656c-0.7935,-0.6982 -2.10538,-2.55504 -2.10538,-2.55504z"/><path d="M241.89869,166.63031c0.81289,0.71526 2.01838,2.47849 2.01838,2.47849l-2.21257,1.94982l-4.25637,-3.74517l1.64837,-2.44625c0,0 2.00869,1.06492 2.80219,1.76312z" data-paper-data="{&quot;index&quot;:null}"/><path d="M225.66205,169.57372l2.81462,0.88272l-0.98854,5.58264l-2.94566,-0.14273c0,0 -0.15845,-2.13004 0.03035,-3.19622c0.18429,-1.04075 1.08924,-3.12641 1.08924,-3.12641z"/><path d="M245.24752,176.36109c-0.1888,1.06618 -1.06903,3.0123 -1.06903,3.0123l-2.81555,-0.87743l0.98854,-5.58264l2.94659,0.13744c0,0 0.13374,2.26958 -0.05055,3.31033z" data-paper-data="{&quot;index&quot;:null}"/><path d="M234.66951,184.94543l-0.46681,-2.91262l5.43667,-1.60798l1.18746,2.69948c0,0 -1.8352,1.09279 -2.87351,1.39989c-1.01354,0.29977 -3.28381,0.42123 -3.28381,0.42123z"/><path d="M231.99835,164.39005c1.03831,-0.3071 3.17268,-0.38836 3.17268,-0.38836l0.47196,2.9111l-5.43667,1.60798l-1.19261,-2.69795c0,0 1.9711,-1.13299 2.98464,-1.43276z" data-paper-data="{&quot;index&quot;:null}"/></g><g fill="#ffffff" stroke="none" stroke-width="0"><path d="M241.73437,183.68189c2.04175,-2.84146 6.00037,-3.48975 8.84183,-1.448c2.84146,2.04175 3.48975,6.00037 1.448,8.84183c-2.04175,2.84146 -6.00037,3.48975 -8.84183,1.448c-2.84146,-2.04175 -3.48976,-6.00037 -1.44801,-8.84183zM244.78849,190.38452c1.61622,1.16135 3.86789,0.7926 5.02924,-0.82363c1.16135,-1.61622 0.7926,-3.86789 -0.82363,-5.02923c-1.61622,-1.16135 -3.86789,-0.7926 -5.02923,0.82362c-1.16135,1.61622 -0.7926,3.86789 0.82362,5.02924z"/><path d="M240.80693,191.86433l1.45181,-1.55305l3.31827,2.38436l-1.01196,1.8691c0,0 -1.43323,-0.56177 -2.06696,-1.01715c-0.61861,-0.44451 -1.69116,-1.68327 -1.69116,-1.68327z"/><path d="M251.32832,181.25874c0.63373,0.45537 1.62333,1.63453 1.62333,1.63453l-1.44867,1.5553l-3.31826,-2.38436l1.00882,-1.87136c0,0 1.51617,0.62138 2.13478,1.06588z" data-paper-data="{&quot;index&quot;:null}"/><path d="M239.89174,184.52089l2.08128,0.43357l-0.31323,4.07406l-2.1228,0.10646c0,0 -0.26465,-1.51647 -0.20483,-2.29455c0.0584,-0.75951 0.55958,-2.31954 0.55958,-2.31954z"/><path d="M254.42001,188.00045c-0.05982,0.77807 -0.55317,2.23627 -0.55317,2.23627l-2.08158,-0.42971l0.31323,-4.07406l2.1231,-0.11032c0,0 0.25682,1.61831 0.19842,2.37782z" data-paper-data="{&quot;index&quot;:null}"/><path d="M247.44183,194.90722l-0.54129,-2.0559l3.7853,-1.5387l1.04304,1.85194c0,0 -1.23877,0.91388 -1.96169,1.20774c-0.70568,0.28685 -2.32536,0.53492 -2.32536,0.53492z"/><path d="M244.06877,180.35385c0.72292,-0.29386 2.24798,-0.50346 2.24798,-0.50346l0.54487,2.05444l-3.7853,1.5387l-1.04663,-1.85048c0,0 1.33339,-0.95234 2.03907,-1.23919z" data-paper-data="{&quot;index&quot;:null}"/></g></g></g></svg>