<svg version="1.1" xmlns="http://www.w3.org/2000/svg" xmlns:xlink="http://www.w3.org/1999/xlink" width="59.68308" height="59.68307" viewBox="0,0,59.68308,59.68307"><g transform="translate(-210.15849,-150.15849)"><g data-paper-data="{&quot;isPaintingLayer&quot;:true}" fill-rule="nonzero" stroke-linecap="butt" stroke-linejoin="miter" stroke-miterlimit="10" stroke-dasharray="" stroke-dashoffset="0" style="mix-blend-mode: normal"><path d="M211.79522,191.50984l16.69499,-39.71462l39.71463,16.69499l-16.69499,39.71462z" fill="none" stroke="#cccccc" stroke-width="2.5"/><g fill="#cccccc" stroke="none" stroke-width="0"><path d="M228.37732,173.82243c3.41031,-6.42521 11.38357,-8.86925 17.80877,-5.45895c6.42521,3.41031 8.86926,11.38357 5.45895,17.80877c-3.41031,6.42521 -11.38357,8.86926 -17.80877,5.45895c-6.42521,-3.41031 -8.86926,-11.38357 -5.45895,-17.80877zM236.54583,186.77465c3.65466,1.93978 8.18985,0.5496 10.12963,-3.10505c1.93978,-3.65466 0.5496,-8.18985 -3.10505,-10.12963c-3.65466,-1.93978 -8.18985,-0.5496 -10.12963,3.10505c-1.93978,3.65466 -0.5496,8.18985 3.10505,10.12963z"/><path d="M228.75816,190.93805l2.55584,-3.60586l7.50337,3.98258l-1.56124,4.13377c0,0 -3.10978,-0.75591 -4.54279,-1.51651c-1.39883,-0.74246 -3.95518,-2.99397 -3.95518,-2.99397z"/><path d="M247.46239,166.14405c1.43301,0.7606 3.80181,2.91256 3.80181,2.91256l-2.54873,3.60963l-7.50337,-3.98258l1.55413,-4.13753c0,0 3.29734,0.85546 4.69616,1.59792z" data-paper-data="{&quot;index&quot;:null}"/><path d="M224.81642,176.06677l4.40888,0.31032l0.49564,8.48033l-4.34319,0.81377c0,0 -0.96985,-3.04984 -1.0645,-4.66943c-0.0924,-1.58096 0.50319,-4.93499 0.50319,-4.93499z"/><path d="M255.71925,179.16624c0.09465,1.61959 -0.51331,4.76165 -0.51331,4.76165l-4.4084,-0.30228l-0.49564,-8.48033l4.34271,-0.82181c0,0 0.98224,3.26181 1.07464,4.84277z" data-paper-data="{&quot;index&quot;:null}"/><path d="M243.27825,195.34843l-1.69079,-4.08359l7.36686,-4.22976l2.6673,3.52292c0,0 -2.29596,2.22949 -3.7029,3.03731c-1.37338,0.78854 -4.64046,1.75312 -4.64046,1.75312z"/><path d="M232.25424,166.31291c1.40694,-0.80782 4.48987,-1.66666 4.48987,-1.66666l1.69777,4.07959l-7.36686,4.22976l-2.67427,-3.51891c0,0 2.48011,-2.33523 3.85349,-3.12377z" data-paper-data="{&quot;index&quot;:null}"/></g></g></g></svg>