<svg version="1.1" xmlns="http://www.w3.org/2000/svg" xmlns:xlink="http://www.w3.org/1999/xlink" width="245.5" height="195" viewBox="0,0,245.5,195"><g transform="translate(-100.75,-76.35)"><g data-paper-data="{&quot;isPaintingLayer&quot;:true}" fill-rule="nonzero" stroke-linecap="butt" stroke-linejoin="miter" stroke-miterlimit="10" stroke-dasharray="" stroke-dashoffset="0" style="mix-blend-mode: normal"><path d="M346.25,173.85c0,53.84776 -54.95705,97.5 -122.75,97.5c-67.79295,0 -122.75,-43.65224 -122.75,-97.5c0,-53.84776 54.95705,-97.5 122.75,-97.5c67.79295,0 122.75,43.65224 122.75,97.5z" fill="#ffffff" stroke="#805439" stroke-width="0"/><path d="M152.41036,221.36766c-22.68799,-22.60448 -22.98476,-57.12477 -1.3661,-79.23353c21.61867,-22.10876 55.33734,-22.6417 77.47713,0c22.13979,22.6417 24.59774,56.17376 2.04914,79.23353c-22.54859,23.05977 -55.47218,22.60448 -78.16017,0z" fill="#118381" stroke="#805439" stroke-width="0"/><path d="M162.8336,192.85c0,0 0.87963,-0.65972 1.90969,-0.52077c-0.29692,-2.7616 -0.38634,-5.35627 -0.46283,-8.13613c-0.04506,-1.63746 -0.16277,-3.24991 -0.29846,-4.84751c-0.01014,-0.00792 -0.02043,-0.01521 -0.03088,-0.02187c-0.85071,-0.54237 -4.71455,-0.07599 -5.53798,0.9258c-1.07015,1.30194 -1.07802,3.65207 -1.28587,5.07679c-0.36813,2.52318 -0.77433,4.82274 -1.43447,7.20332c0.04538,0.14602 0.07613,0.28314 0.09697,0.40192c2.4909,0.78373 4.97294,1.72894 7.04382,-0.08155zM152.59154,196.80643c-0.2401,0.01388 -0.50152,0.00195 -0.78607,-0.04146h-0.00001c-2.96569,-0.45242 -2.51326,-3.41812 -2.51326,-3.41812l0.19555,-1.01118c1.29659,-3.91351 1.04207,-8.26064 2.38464,-12.09185c0.52531,-1.49909 1.16661,-3.04234 2.25803,-4.19648c0.95473,-1.0096 2.30112,-1.65436 3.63686,-2.03724c1.72382,-0.4941 3.56099,-0.61622 5.35259,-0.53948c0.12931,0.00554 0.25637,0.01307 0.3812,0.02258c-0.22984,-3.73218 -0.18311,-7.45112 0.86585,-11.29153c0,0 0.81678,-2.88668 3.70344,-2.0699c2.88667,0.81678 2.0699,3.70345 2.0699,3.70345c-1.15043,3.89353 -0.79219,6.86475 -0.6083,10.86196c0.05328,1.15827 0.10705,2.30574 0.16376,3.44589c1.06805,3.04647 0.84957,7.04333 0.99515,10.29989c0.07723,1.72758 1.12072,3.63832 0.332,5.17728c-0.03209,0.06259 -0.0695,0.11675 -0.11167,0.16337c0.0061,0.05116 0.01223,0.10233 0.01838,0.15353l0.06162,0.0094l-0.48491,3.17866c-0.24987,1.63791 -1.7802,2.76313 -3.41811,2.51327c-1.10695,-0.16887 -1.97974,-0.9226 -2.35214,-1.89912c-0.49459,0.41752 -1.00268,0.80656 -1.61187,0.98236c-3.45457,0.99692 -6.96645,-0.76026 -10.28086,-1.42025z" data-paper-data="{&quot;index&quot;:null}" fill="#ffffff" stroke="none" stroke-width="0.5"/><path d="M179.36206,194.59278c-1.34164,2.68328 -4.02492,1.34164 -4.02492,1.34164l-3.80199,-3.75509c0,-4.07124 -1.14397,-10.03303 0.05413,-13.96497c0.50094,-1.64399 0.947,-3.58402 2.33579,-4.59641c1.26166,-0.91972 3.09598,-0.52975 4.65703,-0.50119c3.60522,0.06597 9.36729,-2.78271 12.74249,-1.85595c2.79964,0.76872 3.47177,5.03632 4.30992,7.54565c0.60421,1.80891 0.06382,2.537 1.22374,3.96492c0.59442,0.73176 -5.23449,4.63763 -4.68197,4.22389c1.9139,-1.43315 1.34222,-3.2925 1.33101,-5.53406c0,0 0,-3 3,-3c3,0 3,3 3,3c-0.0089,2.14064 0.23609,5.33596 -0.89088,7.31054c-0.74429,1.30408 -1.87403,2.42074 -3.13717,3.23257c-6.86862,4.41452 -3.73387,-5.88412 -5.5747,-11.41819c-0.40057,-1.20421 -1.07155,-2.3038 -1.51436,-3.49312c-0.20441,-0.54903 -0.02802,-1.27221 -0.42149,-1.70626c-0.80835,-0.89173 -8.83434,4.07652 -9.97779,3.70082c-0.27316,-0.08975 -0.44618,-0.63239 -0.70203,-0.5012c-0.23328,0.11963 0.16979,0.50145 0.19217,0.76265c0.06012,0.70173 0.04697,1.40794 0.05413,2.1122c0.03629,3.57204 0,7.14586 0,10.71812l0.48526,-1.61147c0,0 2.68328,1.34164 1.34164,4.02492z" data-paper-data="{&quot;index&quot;:null}" fill="#ffffff" stroke="none" stroke-width="0.5"/><path d="M249.1107,217.60265c-1.24322,-0.88771 -2.36906,-1.87479 -3.3791,-2.94317c-2.46897,-1.8957 -4.25884,-4.72507 -5.84787,-7.4142c-4.80856,-8.13756 -2.53811,-13.46632 -2.49747,-20.91853c0.04591,-8.41892 -0.62818,-16.86155 0,-25.25713v0c0,-4.29374 1.12216,-8.32539 3.08921,-11.81766c1.95303,-4.24176 4.86295,-7.92918 8.86369,-9.01046c3.57059,-2.08951 7.72661,-3.28712 12.16234,-3.28712c2.97212,0 5.81866,0.53767 8.44767,1.52105c2.76124,0.35579 6.47336,-1.67131 9.44249,-1.67131c6.43511,0 24.48431,-0.8385 31.72032,4.4352c3.85284,2.808 8.32466,9.01231 9.77019,13.55541c1.03592,3.25574 0.33007,9.23595 0.40343,12.40524c0.05743,2.48109 1.18413,5.05337 1.18413,7.62429c0,4.9564 -0.17326,9.91208 -0.15025,14.86843c0.01881,4.05091 1.35385,8.90551 0.11351,12.80373c-1.44553,4.5431 -5.91734,10.74741 -9.77019,13.55541c-6.87236,5.00867 -23.23908,5.43941 -30.82964,4.47377c-0.7506,-0.09549 -1.55216,-0.26114 -2.38628,-0.46692c-3.01425,-0.09683 -5.74735,-0.23885 -7.86774,-0.23885c-2.65098,1.00229 -5.52484,1.55082 -8.52681,1.55082c-3.02555,0 -5.92096,-0.55718 -8.58923,-1.57452c-1.92717,-0.42893 -3.76026,-1.05664 -5.3524,-2.19349z" fill="#65656f" stroke="none" stroke-width="0.5"/><g stroke="none" stroke-width="0.5"><path d="M309.43953,203.29214c0.00086,0.02651 0.0015,0.05326 0.0019,0.08022c0.04927,3.21186 -3.1626,3.26113 -3.1626,3.26113l-3.0399,-1.07525c-1.92499,-2.1942 -3.24415,-5.51997 -5.47817,-7.35009c-2.37043,-1.94188 -5.15565,1.45388 -6.7892,-3.81894c-0.51331,-1.65682 1.78186,-2.97699 2.63023,-4.48988c1.21354,-2.16409 2.42997,-4.32758 3.6499,-6.48986l0.46233,-3.63352c0.17597,-1.58455 1.50741,-2.82816 3.14324,-2.85325c1.67808,-0.02574 3.07531,1.24001 3.24436,2.87852l0.33274,2.88065c0.75359,6.64446 4.3454,11.77593 5.51493,18.14943c0,0 0.23236,1.37014 -0.50979,2.46084z" fill="#969aa1"/><path d="M291.28853,182.50428c1.90695,2.58496 -0.67804,4.49193 -0.67804,4.49193l-0.45195,0.31422c0.12507,0.08062 0.25015,0.16125 0.37522,0.24187c0,0 2.69975,1.74062 0.95912,4.44038c-1.74062,2.69976 -4.44039,0.95913 -4.44039,0.95913c-0.86849,-0.56009 -1.73698,-1.12017 -2.60548,-1.68025l-2.28075,-1.37729c-0.94145,-0.54769 -1.58104,-1.56083 -1.59896,-2.72924c-0.02114,-1.37866 0.82946,-2.56777 2.0423,-3.04197l2.83346,-1.18411l1.35354,-1.11269c0,0 2.58497,-1.90695 4.49191,0.67802z" fill="#969aa1"/><path d="M266.5141,190.33491c0.68417,-0.19465 1.52816,-0.18659 2.40783,0.41665c0.16214,-1.00463 0.78427,-1.73805 0.78427,-1.73805c0.74365,-0.85969 1.24839,-2.01363 2.19799,-2.61968l-0.7359,-2.58995c0,0 -0.04927,-3.21185 3.16259,-3.26112c3.21186,-0.04927 3.26113,3.16259 3.26113,3.16259l-1.13213,-0.66918c1.07493,1.46105 3.26424,2.5697 3.22483,4.38315c-0.05556,2.5568 -3.45061,3.77837 -5.07929,5.75008c0,0 -1.85858,2.191 -4.13239,0.67102c-0.17112,1.10685 -0.94011,1.8998 -0.94011,1.8998c-2.99953,3.09298 -5.56288,6.77192 -9.54569,8.51778c-1.83725,0.80535 -3.87922,3.40184 -5.55897,2.30526c-2.17256,-1.41831 -1.91051,-4.87086 -2.30023,-7.43596c-0.1991,-1.31043 0.36043,-2.6266 0.5726,-3.93498c0.66677,-4.112 1.36255,-7.95571 2.50215,-11.97714l0.79431,-3.3979c0.30265,-1.43529 1.56542,-2.52264 3.09394,-2.54609c1.20537,-0.01849 2.26583,0.62937 2.8303,1.6031l2.06652,3.42096l-0.08741,0.0528c0.11795,0.15359 0.23211,0.31034 0.34201,0.47067c0.7096,1.03517 0.37241,2.48847 0.70692,3.69809c0.36138,1.30677 1.28922,2.51861 1.56474,3.81806zM258.8027,197.77392c-0.00565,0.03397 -0.01136,0.06802 -0.01718,0.10209c0.03147,-0.01729 0.06222,-0.03557 0.09219,-0.055c-0.02492,-0.01531 -0.04993,-0.03101 -0.07501,-0.04709z" fill="#969aa1"/><path d="M291.60647,181.4291c-3.19101,0.36861 -3.55963,-2.8224 -3.55963,-2.8224l-0.35125,-3.07534c-0.04283,-2.7354 -0.83874,-11.75956 2.61139,-13.08146c6.16555,-2.36229 5.52287,2.43917 7.27755,4.82081c0.90932,1.23421 3.32787,1.80738 3.1698,3.33223c-0.22352,2.1563 -2.6955,3.39599 -4.04325,5.09398c0,0 -1.10328,0.91073 -2.44507,0.78033l0.16284,1.39223c0,0 0.36861,3.19102 -2.8224,3.55963z" fill="#969aa1"/><path d="M273.32845,174.8489c0.73078,0.57468 1.9855,1.94932 0.86435,4.04238c-1.51675,2.83159 -4.34835,1.31484 -4.34835,1.31484c-1.65169,-0.88473 -9.02923,-3.99146 -9.54033,-5.25147c-0.78751,-1.94147 -0.10618,-4.37564 0.88182,-6.22317c0.58158,-1.08753 2.37313,-0.84292 3.31969,-1.63345c2.14519,-1.79158 0.91647,-7.25152 6.67042,-5.35611c4.79927,1.58091 2.42806,9.25869 2.16405,12.41662l0.02,0.26424c0,0 0.00256,0.16729 -0.03165,0.42613z" fill="#969aa1"/><path d="M290.78996,185.58785c-0.78701,-0.01364 -1.67643,-0.34551 -2.42653,-1.43412c-1.82261,-2.6451 0.82249,-4.46771 0.82249,-4.46771l0.21909,-0.00527c1.58112,-1.89206 4.17393,-5.48516 6.53521,-6.41246c0.06183,-0.02428 0.12383,-0.04804 0.18598,-0.07132l-0.02987,-0.04335l2.56532,-1.76764c0.51152,-0.36355 1.1346,-0.58132 1.80951,-0.59167c1.77387,-0.02721 3.23393,1.38873 3.26113,3.1626c0.00986,0.64307 -0.16994,1.2449 -0.4877,1.75216l-1.39877,2.31633l-0.1427,-0.08618l-0.06285,0.38666c-2.42837,2.49802 -3.39846,4.52416 -4.68728,7.77866c0,0 -1.18985,2.98374 -4.17359,1.79389c-1.36972,-0.54622 -1.85992,-1.47048 -1.98944,-2.31058z" fill="#d1d3d7"/><path d="M299.3315,168.74328l-1.93609,-1.36173c-1.21704,-1.38737 -2.04263,-2.19529 -2.96467,-2.8615l-2.17576,-0.36121c-1.53065,-0.22486 -2.71654,-1.53177 -2.74103,-3.12878c-0.01507,-0.98311 0.41312,-1.86983 1.09985,-2.46966l2.00176,-1.76977l0.11376,0.12867l0.25684,-0.4112c1.26981,-0.56093 2.42655,-1.56154 3.80944,-1.68277c8.56599,-0.75092 6.79678,5.9995 8.45977,11.54438c0,0 0.89263,3.08573 -2.19311,3.97836c-2.20636,0.63825 -3.29149,-0.75747 -3.73077,-1.60481z" fill="#d1d3d7"/><path d="M268.63491,193.73015c-3.16006,0.57661 -3.73668,-2.58343 -3.73668,-2.58343l0.0574,-0.7215c-1.13731,-1.99437 -1.85348,-4.20135 -2.8234,-6.28228c-0.87536,-1.87806 -2.87744,-3.37399 -3.14779,-5.56265c-0.01869,-0.15131 -0.03345,-0.30273 -0.04467,-0.45425l-0.07512,0.01485l-0.62106,-3.14131c-0.04457,-0.20523 -0.06957,-0.41786 -0.07292,-0.63592c-0.01837,-1.19723 0.62066,-2.25151 1.58344,-2.8188c-4.01585,-1.69763 -4.47232,-7.8874 -3.51262,-11.39534c0.48318,-1.76617 0.81236,-4.01503 2.38872,-4.94665c2.91836,-1.72471 6.05771,0.68817 8.2819,1.98906l0.83313,0.2711c0.41282,-0.10663 0.82336,-0.2172 1.21337,-0.36322c0,0 3.06224,-0.9701 4.03237,2.09214c0.97012,3.06225 -2.09215,4.03236 -2.09215,4.03236c-3.82472,0.74577 -3.69858,7.23488 -7.48562,8.53376l2.13683,1.14459l-0.01989,0.03713l0.13315,0.02653c1.73854,1.13914 3.18123,2.67652 4.8018,3.97806c0.98657,0.79233 2.54635,0.93639 3.22295,2.00565c0.9348,1.47734 1.27819,3.34128 1.2666,5.0895c-0.00898,1.35438 -0.88392,2.56055 -1.32586,3.84085c0,0 -0.69501,1.81794 -2.41812,2.08268l0.00763,0.03043c0,0 0.57663,3.16005 -2.58343,3.73668zM268.23949,182.62983c0.16178,0.34993 0.32258,0.70002 0.48487,1.0499c0.12264,-0.3449 0.11421,-0.65009 -0.16664,-0.86279c-0.09897,-0.07497 -0.20592,-0.13578 -0.31823,-0.1871z" fill="#d1d3d7"/><path d="M279.61671,144.31113l0.85841,0.05553c0.92921,0.29399 1.85711,0.59216 2.78404,0.89323c1.59946,1.04727 1.9954,2.51418 3.31881,3.56182c1.06424,0.84247 4.06875,0.96981 5.12657,1.58349c1.304,0.75651 2.1112,2.22176 3.43664,2.94004c0.87791,0.47575 1.93192,0.6868 2.71467,1.29087c1.78555,0.22658 3.5947,0.73429 4.82127,1.37666c0.17229,-0.05216 0.34058,-0.10673 0.50435,-0.16414l0.34536,-0.03277c0,0 0.53531,-0.00822 0.54352,0.52709l0.00005,-0.00003c0.00431,0.28107 -0.1412,0.41682 -0.28041,0.48236c0.86879,1.31855 1.25988,2.75433 1.3899,4.24717c0.84777,-0.03766 1.76268,-0.13037 2.44306,-0.19642c0.19458,-0.08405 0.42966,-0.12208 0.70603,-0.06275c0.08015,-0.0055 0.14795,-0.00892 0.20149,-0.00974c0,0 1.33828,-0.02053 1.3588,1.31775c0.01231,0.80237 -0.46384,1.13106 -0.84715,1.26562c0.00657,0.17419 0.01743,0.34873 0.03344,0.52281c0.84526,0.26883 0.86032,1.25063 0.86032,1.25063l0.01998,1.30246c0.07501,4.89051 -0.44974,10.19141 0.22054,15.03198c0.20668,1.4926 1.12478,2.80286 1.36102,4.2708c0.4633,2.87894 -0.39405,6.04954 0.2701,8.88871c0.29486,0.06843 0.60039,0.261 0.82811,0.69949c0.61685,1.18781 -0.57096,1.80466 -0.57096,1.80466l-2.2774,1.18271c-0.17629,0.09127 -0.35343,0.18134 -0.53132,0.27031c0.3315,1.51946 0.51657,3.04767 0.26037,4.3134c-0.16304,0.80554 -0.49851,2.20798 -1.65178,2.17056c-1.02242,-0.03318 -3.6337,-3.0401 -4.77847,-3.78128c-3.71871,1.5103 -7.47073,3.00289 -10.77961,5.21819c-1.33961,0.89687 -0.78685,1.65324 -2.19271,2.85801c-0.50906,0.43626 -1.34557,0.34239 -1.85427,0.77908c-0.93833,0.80553 -1.75837,1.83481 -2.77946,2.51209c-0.13493,1.09691 -1.30534,1.11485 -1.30534,1.11485c-3.12922,0.04799 -6.19812,0.09389 -9.16704,-1.1216c-0.58916,-0.24121 -0.97727,-0.87489 -1.58438,-1.06648c-2.0197,-0.63737 -3.7822,-0.90915 -5.67254,-2.46199c-1.11917,-0.91937 -1.55108,-2.59605 -2.80783,-3.316c-1.15232,-0.66012 -2.45502,-1.24081 -3.80898,-1.80737c-0.40879,0.42901 -0.85009,0.85213 -1.33763,1.26948c-0.86457,0.43927 -5.38018,2.89761 -6.24446,2.41726c-0.44413,-0.24684 -0.29311,-2.51907 -0.29876,-2.92239c-0.01934,-1.37793 0.2862,-2.73502 0.60556,-4.0934c-1.20937,-0.72681 -2.29133,-1.55696 -3.14787,-2.55495c-0.40252,0.04013 -0.80503,0.08028 -1.20756,0.12042l-1.75697,-0.68826c0,0 -1.20616,-0.58014 -0.62603,-1.7863c0.1501,-0.31209 0.34213,-0.50459 0.54432,-0.61849c0.69927,-2.76673 1.52791,-5.47059 1.74254,-8.36523c0.54527,-7.3537 -0.8344,-14.6851 -1.17758,-22.01855c-0.34728,-0.09085 -0.71682,-0.33729 -0.87819,-0.94309c-0.27196,-1.02103 0.47683,-1.45072 0.80421,-1.58639l-0.00082,-0.05335c0,0 -0.02053,-1.33827 1.31774,-1.3588c0.61216,-0.00939 0.9486,0.26552 1.13347,0.56662c1.81998,-0.81336 2.94377,-1.87217 4.98773,-3.44763c0.5358,-0.41299 1.09869,-0.79059 1.68021,-1.14216c-1.10807,-0.38083 -2.20301,-0.81284 -3.26213,-1.27398l-0.06095,-1.14656c0,0 0.23562,-0.48073 0.71636,-0.24511c0.35188,0.17248 0.31995,0.47627 0.27755,0.62673c1.16878,0.49276 2.37599,0.94302 3.59189,1.32666c2.21666,-1.1725 4.60335,-2.0831 6.74065,-3.19366c4.07623,-2.11806 7.90601,-5.65712 12.24953,-7.2125c0.2593,-0.06921 0.5186,-0.13843 0.7779,-0.20765c0.09535,-1.16189 1.31208,-1.18056 1.31208,-1.18056zM302.89339,160.78313c0.16442,0.20016 0.65928,0.28373 1.29468,0.30217c-0.13488,-1.32058 -0.50341,-2.56605 -1.27621,-3.65913c-0.11038,-0.10706 -0.2182,-0.20183 -0.3242,-0.28584c-0.6472,0.16482 -1.36399,0.30409 -2.11375,0.442c0.82281,1.08682 1.59773,2.20046 2.41948,3.20079zM301.17073,162.83204c-1.32259,-1.142 -2.49766,-3.05485 -3.73147,-4.66026c-2.94095,0.66868 -5.66652,1.77587 -6.16704,4.65126l-0.00001,-0.00001c0,0 -0.09694,0.52652 -0.62346,0.42959c-0.02184,-0.00402 -0.0426,-0.00878 -0.06235,-0.01421c2.76776,3.61949 8.41127,4.13891 11.35919,7.7261c0.48418,-0.04528 0.96165,-0.05404 1.42705,-0.01986l-0.00158,-0.10287l0.10901,-0.00168c0.00414,-2.175 0.55597,-4.6933 0.7236,-7.13288c-1.19028,-0.03397 -2.30245,-0.24446 -3.03294,-0.87521zM296.25838,156.789c-0.33667,-0.34111 -0.79604,-0.5007 -1.26574,-0.64931c-1.92267,0.19021 -3.26383,1.17801 -3.96903,4.3674c-0.04253,0.08842 -0.08165,0.17535 -0.11793,0.2613c1.16129,-1.97363 3.41125,-2.86431 5.83814,-3.45308c-0.16011,-0.18433 -0.32178,-0.3605 -0.48543,-0.52631zM290.33232,152.7036c-1.49165,-0.87608 -3.93674,-0.64926 -5.34637,-1.7299c-1.29703,-0.99432 -1.45142,-2.40443 -2.86586,-3.29139c-0.58295,-0.1781 -1.16515,-0.35867 -1.74675,-0.54112l-0.37829,0.66987c-0.56019,0.14887 -1.12038,0.29775 -1.68057,0.44662c-4.17095,1.41747 -7.94202,5.02484 -11.84991,7.05329c-1.38012,0.71637 -2.87111,1.33593 -4.34659,2.00449c1.74604,0.5585 3.49293,0.96571 5.27498,1.55944c1.60216,0.53379 3.0526,1.59063 4.58296,2.20637c0.0627,0.01291 0.11554,0.03487 0.16007,0.06265c0.29269,0.11124 0.58859,0.20525 0.88927,0.27536c0,0 0.5213,0.12187 0.39944,0.64318c-0.12186,0.52132 -0.64318,0.39945 -0.64318,0.39945c-0.25069,-0.05875 -0.49734,-0.13275 -0.74096,-0.2186l-0.02179,0.04229c-0.25385,0.07729 -0.49518,0.2361 -0.66151,0.44286c-1.18938,1.44418 -1.77554,3.08433 -3.16602,4.47201c-1.39832,1.3955 -3.34823,2.06474 -4.89974,3.24264c-1.01211,0.76838 -1.75977,1.82872 -2.80879,2.54918c-0.53617,0.36824 -2.2785,0.60706 -1.12879,0.6712c1.18502,0.34483 2.45829,-0.08171 3.67087,0.11113c3.78361,0.60171 7.44192,2.62618 10.64332,4.76752c0.09868,0.02593 0.22201,0.08208 0.30237,0.20348c0.19074,0.12911 0.37976,0.25851 0.56704,0.38787c0,0 0.19865,0.13735 0.23687,0.36096c0.10318,-0.08265 0.21113,-0.12521 0.32351,-0.116c0.51327,0.04204 0.67775,0.77557 1.01662,1.16337c0.89209,1.24726 1.6796,5.28365 3.08244,6.55652c2.24121,-2.31731 5.6518,-3.63353 8.63439,-5.11162l-0.07149,-0.2684c-0.00838,-0.02892 -0.01441,-0.05889 -0.01781,-0.08964c-0.46365,-0.35538 -0.92294,-0.71648 -0.96164,-0.8633c-0.03637,-0.13794 0.0221,-0.31757 0.14577,-0.52271c-0.01197,-0.05838 -0.01259,-0.0987 -0.01259,-0.0987c-0.00822,-0.53536 -0.01888,-1.23135 -0.0271,-1.76671c-0.04489,-2.92698 0.86035,-5.72765 1.32724,-8.54249c0.33418,-2.01471 0.34442,-4.29355 0.83543,-6.33579l-0.13486,-0.02036l0.14451,-0.9574c0.02603,-0.19593 0.1583,-0.359 0.33771,-0.42833c0.1618,-0.69187 0.30605,-1.2948 0.61724,-1.94179c0.32926,-1.34515 1.47699,-4.17139 2.71848,-4.97244c0.07588,-0.04895 0.15642,-0.09501 0.24131,-0.13821c-0.88394,-0.77245 -1.63042,-1.74316 -2.64123,-2.33683zM304.5521,171.03781c0,0 0.00106,0.06965 -0.02269,0.15907c0.01711,0.05101 0.02675,0.10547 0.02762,0.16215c0.00188,0.12246 -0.03752,0.23594 -0.10532,0.3272l-0.39077,0.53803c0.00942,1.2274 -0.86786,2.40812 -1.60676,3.41453c0.10677,0.47143 0.24479,0.93645 0.4048,1.39213c1.28599,5.96087 4.16973,11.38073 5.25208,17.29771c0.13409,0.50212 0.29333,1.05136 0.45749,1.62916l0.73403,-0.3812c-0.72207,-3.06088 0.0828,-6.23109 -0.40055,-9.34171c-0.2313,-1.48855 -1.15916,-2.84118 -1.37709,-4.37229c-0.67731,-4.75872 -0.20735,-9.9578 -0.23947,-14.79509c-0.26316,-0.25901 -0.37178,-0.56895 -0.37178,-0.56895c-0.31135,-0.92039 -0.47018,-1.89553 -0.53085,-2.86956c-0.39101,0.03014 -0.79374,0.05705 -1.19697,0.07171c-0.15916,2.47134 -0.6696,5.00022 -0.63376,7.33711zM252.07462,187.02401c-0.22711,2.96372 -1.05617,5.74676 -1.76609,8.58443c0.46285,0.014 0.92572,0.02801 1.38857,0.04202c0.86307,0.76061 1.79272,1.42138 2.7671,2.01694c0.05408,-0.43803 0.08613,-0.87787 0.08602,-1.32022c1.10986,-2.3615 0.94404,-5.38808 1.28331,-7.92659c0.12399,-0.9277 0.83113,-1.6559 1.02791,-2.52453c0.45469,-2.00707 0.27477,-4.17079 0.24309,-6.23603c-0.01443,-0.94131 -0.02888,-1.88262 -0.04331,-2.82393l-0.01083,-0.70597c-0.00453,-0.29564 0.23146,-0.53898 0.5271,-0.54351c0.14782,-0.00227 0.28256,0.05559 0.38092,0.15098l0.71681,0.69514l-0.17331,0.17871c0.99607,1.16976 1.29912,2.61793 2.10045,4.15796c1.70554,3.2777 3.67291,6.41495 5.4354,9.7832c0.9724,1.40607 1.86901,2.76925 2.81403,4.16164c0.38049,-0.19689 0.75375,-0.39726 1.10627,-0.61166l0.0822,-0.4465l0.09565,0.01761c0.29397,-3.64736 2.29783,-7.03802 3.28559,-10.53269c0.10257,-0.36291 0.42723,-2.04166 0.91559,-3.03036c-0.21742,0.03565 -0.40845,-0.09642 -0.40845,-0.09642c-0.20551,-0.1422 -0.41325,-0.28448 -0.62311,-0.42644c-2.83928,-0.08817 -5.38988,-2.19376 -8.08767,-2.89075c-2.4182,-0.62474 -4.71288,0.19232 -6.92246,-1.23115c-0.19243,-0.18541 -0.38487,-0.37082 -0.57729,-0.55622l-0.3584,-0.34757c0,0 -0.38432,-0.37271 -0.01161,-0.75704c0.12812,-0.13212 0.25761,-0.17478 0.37239,-0.17387c0.00537,-0.02289 0.0213,-0.05125 0.04657,-0.08441c-0.09975,-0.1979 -0.02913,-0.42108 -0.02913,-0.42108c1.22645,-3.68803 0.25347,-8.91374 -0.60746,-12.97058c-2.3495,1.83021 -3.84045,3.0936 -6.24889,4.02411c0.29699,7.60754 1.77794,15.2122 1.19306,22.8448zM258.99089,172.5564c0.8353,-0.59811 1.81267,-1.25026 2.03291,-1.46559c1.91447,-1.87172 4.54991,-2.77336 6.40942,-4.64658c1.37072,-1.38082 1.93723,-2.93643 3.10489,-4.40534c0.09863,-0.10699 0.20626,-0.20737 0.32093,-0.29969c-1.25866,-0.61469 -2.4804,-1.40509 -3.82213,-1.85451c-2.13307,-0.7145 -4.22531,-1.14921 -6.31965,-1.91095c-0.91268,0.44891 -1.80334,0.93547 -2.64065,1.49587c0.85607,3.99439 1.78726,9.09832 0.91428,13.0868zM266.39893,203.5841c1.31665,0.7978 1.84034,2.51037 3.03529,3.48102c1.8039,1.46532 2.92552,1.39876 4.72538,1.96961c0.70812,0.22459 1.20638,0.89291 1.89332,1.17572c2.24877,0.92579 4.59351,0.96223 6.95683,0.92782c0.27067,-0.36902 0.69294,-0.51701 0.69294,-0.51701c3.1378,-0.95041 4.41114,-4.40927 7.00548,-6.23622c2.85846,-2.01296 6.13593,-3.43093 9.44191,-4.77166c-1.65429,-1.02139 -3.25811,-2.15811 -4.60011,-3.46246c-0.92481,-0.89886 -1.87036,-2.04756 -3.06814,-2.49703c0.07465,0.14428 0.12294,0.37025 -0.10026,0.6004c-0.37271,0.38433 -0.75705,0.01161 -0.75705,0.01161c-3.57309,-3.49398 -7.62932,-3.24674 -11.75925,-4.66913c-2.86261,1.7132 -5.75826,3.1399 -8.46716,5.00647l-0.68448,0.47165c-0.08525,0.0606 -0.1891,0.09689 -0.30159,0.09862c-0.05516,0.00085 -0.10849,-0.00668 -0.1588,-0.0214c-0.2622,0.14481 -0.53488,0.28514 -0.81175,0.4247c0.00339,0.00492 0.00678,0.00983 0.01018,0.01475l0.29026,0.26701c0,0 0.38432,0.37272 0.01161,0.75705c-0.37271,0.38432 -0.75705,0.01161 -0.75705,0.01161l-0.42654,-0.42814c-0.03137,-0.04555 -0.06266,-0.09107 -0.0939,-0.13653c-0.9956,0.51098 -1.95136,1.06708 -2.57772,1.83883c-1.09179,1.34524 -1.95999,2.64077 -2.89935,3.8892c1.16119,0.54709 2.30421,1.12958 3.39994,1.79351zM262.85621,174.83197c-1.28527,-0.2056 -2.54022,0.16879 -3.81602,-0.15489c1.93993,1.19129 4.30335,0.43752 6.45034,0.98449c1.70258,0.43375 3.41964,1.54225 5.16777,2.24492c-2.44633,-1.43878 -5.09251,-2.64105 -7.8021,-3.07452zM265.12003,191.10418c-1.16796,-2.26258 -2.27261,-4.90776 -3.6278,-6.9891c-1.08333,-1.66379 -2.62207,-3.82225 -3.34026,-5.98373c0.00773,0.50408 0.01546,1.00816 0.0232,1.51224c0.03281,2.13888 0.22942,4.40484 -0.26795,6.48245c-0.20228,0.84494 -0.90775,1.55977 -1.01425,2.44982c-0.30176,2.52198 -0.1526,5.68083 -1.29697,8.0013c0.0185,0.54781 -0.01668,1.11746 -0.08743,1.69627c2.071,1.14359 4.29978,2.06108 6.49383,3.05692c1.01259,-1.34602 1.91508,-2.74386 3.10979,-4.15593c0.71169,-0.84117 1.73052,-1.42485 2.77953,-1.96825c-0.92926,-1.36988 -1.81845,-2.71399 -2.77169,-4.10201zM254.45919,203.13301c-0.21681,0.90111 -0.13336,1.77723 -0.11925,2.69683c0.00257,0.16761 -0.0292,0.49253 -0.07633,0.73117c0.8321,-0.62892 4.50421,-1.93974 4.93732,-2.15855c0.31084,-0.2684 0.60168,-0.54063 0.87658,-0.81627c-1.74677,-0.71661 -3.53504,-1.43759 -5.161,-2.29713c-0.15532,0.6362 -0.31602,1.25665 -0.45733,1.84394zM280.82952,188.37709c0.02614,0.04208 0.04595,0.08269 0.06041,0.12173c0.69809,0.15836 1.38644,0.36931 1.73371,0.43104c3.20953,0.57047 6.02801,1.54762 8.51972,3.49998c0.10248,-0.03601 0.18844,-0.03734 0.18844,-0.03734c0.50306,-0.00042 0.96369,0.08516 1.39273,0.2349c-0.00578,-0.15521 0.05539,-0.28243 0.05539,-0.28243c0.02814,-0.05828 0.05616,-0.11651 0.08409,-0.17467c-0.64579,-1.35265 -1.09547,-2.7104 -1.58862,-4.0399c-1.06844,-1.53346 -2.16469,-3.29509 -2.57908,-4.85927c-0.08792,-0.10695 -0.17857,-0.21335 -0.27215,-0.31916c-2.19419,1.1978 -4.44486,2.27229 -6.59081,3.60396c-0.38818,0.24087 -1.10896,0.8735 -1.76462,1.34746l0.12722,0.2293c0,0 0.00013,0.00889 -0.00078,0.02438c0.15077,-0.05488 0.43534,-0.10044 0.63436,0.22001zM271.19837,193.44468c2.38177,-1.59373 4.89826,-2.88269 7.39921,-4.34191c-0.22958,-0.10091 -0.45924,-0.20866 -0.68896,-0.32415c0.187,-0.31835 0.3935,-0.62061 0.61714,-0.90845c-1.65432,-1.55122 -2.11268,-5.09024 -3.30746,-6.74254c-0.14993,-1.37221 -0.75203,2.93267 -1.10505,3.92992c-0.69069,1.95111 -1.70429,3.78105 -2.39151,5.70499c-0.28318,0.79281 -0.211,1.86464 -0.52338,2.68214zM300.80244,156.4783c-0.37888,-0.03243 -0.78877,-0.03845 -1.26087,-0.07765c0.07845,0.09441 0.15623,0.18947 0.2334,0.28505c0.34751,-0.06794 0.6909,-0.1363 1.02747,-0.2074zM290.04961,164.25701c0.1598,1.50612 -0.61233,3.37775 -0.79794,4.69155c-0.43024,3.04536 -1.34274,6.26921 -1.29453,9.41225c0.0036,0.23416 0.00718,0.46833 0.01077,0.70249c0.74243,-0.70141 1.60919,-1.38781 1.90599,-1.67976c1.53586,-0.40909 2.35122,-2.04915 3.61066,-2.92242c1.92997,-1.33818 4.60789,-2.76332 7.2243,-3.30785c-2.85035,-3.12089 -7.85278,-3.72816 -10.65926,-6.89626zM294.05627,192.16472c0,0 0.24675,0.47513 -0.22837,0.72186c-0.06527,0.03389 -0.12625,0.05419 -0.18285,0.06393c-0.02168,0.02365 -0.04689,0.04775 -0.07572,0.07015c1.00807,0.58735 1.85586,1.50122 2.73005,2.36547c1.44842,1.43194 3.25815,2.64831 5.08577,3.72918c2.10108,-0.8447 4.19404,-1.68424 6.17875,-2.6514c-0.16301,-0.64677 -0.33351,-1.28328 -0.49769,-1.90122c-1.07421,-5.90183 -3.95309,-11.30212 -5.23778,-17.24112c-0.04794,-0.13703 -0.09352,-0.27498 -0.13678,-0.4137c-1.06922,1.77542 -2.38473,3.55836 -3.60058,5.38402l0.31295,-0.12867c0,0 0.53531,-0.00822 0.54353,0.52709c0.00547,0.35653 -0.23018,0.47924 -0.38818,0.52144c-1.30238,2.03982 -2.27972,4.0983 -3.25264,6.22127c0.18908,0.47567 0.34331,0.96678 0.52668,1.48937l0.03253,0.32946c0,0 0.00822,0.53531 -0.52709,0.54352c-0.53531,0.00822 -0.54352,-0.5271 -0.54352,-0.5271l0.02759,0.00825c-0.05358,-0.15304 -0.10382,-0.30302 -0.15288,-0.45041c-0.20196,0.44095 -0.40666,0.88506 -0.61684,1.33264c0.00104,0.00198 0.00207,0.00394 0.00309,0.00592zM307.94433,204.02769c0.21856,0.09752 0.51278,-2.02044 0.50716,-2.20549c-0.02662,-0.87627 -0.13753,-1.77575 -0.29755,-2.67721c-1.27833,0.59994 -2.58875,1.15436 -3.90967,1.69674c1.26338,1.03577 2.52353,2.66096 3.70007,3.18595zM293.74016,189.7413c0.00723,0.01117 0.01447,0.0223 0.02173,0.0334l0.14591,-0.02662l0.02544,0.1394c0.02855,-0.06186 0.05706,-0.12366 0.08556,-0.1854c-0.15766,-0.04447 -0.25134,-0.12765 -0.30601,-0.21951c0.01101,0.08497 0.02016,0.17116 0.02737,0.25872zM293.65299,189.06758c0.02809,-0.11608 0.05778,-0.23176 0.08896,-0.3471c-0.00688,-0.0101 -0.01381,-0.02021 -0.02079,-0.03031c-0.1095,-0.16663 -0.22433,-0.33631 -0.34375,-0.50847c0.11426,0.29329 0.20584,0.59507 0.27073,0.91271c0.0026,-0.01711 0.00486,-0.02684 0.00486,-0.02684zM301.81424,174.0786c0.16334,-0.00251 0.27759,0.04558 0.35753,0.11363c0.46415,-0.69693 0.84484,-1.4399 0.8666,-2.24859c-1.29107,0.53886 -4.55706,1.10068 -5.24833,1.31366c-2.91585,0.8984 -4.64818,4.32365 -7.37434,5.04979c-0.37246,0.41287 -0.77017,1.05076 -1.17317,1.39928c-0.24775,0.21426 -0.91757,0.4527 -1.28846,0.6063c-0.01631,0.05266 -0.0414,0.11015 -0.08003,0.16338c0.46328,0.02541 0.91013,0.38498 1.2986,0.81224c0.30955,-0.17118 0.61096,-0.34648 0.90207,-0.52747l0.43485,-0.08297c0,0 0.5353,-0.00821 0.54352,0.5271c0.00822,0.53531 -0.52709,0.54352 -0.52709,0.54352l0.11363,-0.07806c-0.26073,0.16176 -0.52311,0.31976 -0.78686,0.47468c0.05505,0.0752 0.10706,0.14659 0.15578,0.21243c1.29989,1.75675 2.84805,3.4061 4.13653,5.10327c1.57612,-4.27993 5.02449,-8.10061 7.17386,-12.04791c-0.0066,-0.03473 -0.01306,-0.06948 -0.01942,-0.10424l-0.01235,-0.68656c0,0 -0.00822,-0.53531 0.52709,-0.54352z" fill="#ffffff"/></g><path d="M222.02778,171.12778c0,1.59112 -1.01266,2.16958 -1.74898,2.37987c-2.1687,1.65103 -2.34428,3.0965 -3.58891,5.77164c-0.18109,0.38924 -0.36744,0.77459 -0.55776,1.15698c0.308,0.37529 0.58981,0.75201 0.83945,1.12918c0.62217,0.94001 0.61138,2.1774 1.06169,3.21083c0.96692,2.21901 1.87772,2.17957 2.88576,4.65969c0.67201,1.65335 0.99466,3.42801 1.49198,5.14202l0.47163,2.80545c0,0 0.411,2.46599 -2.05499,2.87699c-2.46598,0.411 -2.87698,-2.05499 -2.87698,-2.05499l-0.41726,-2.52788c-1.06847,-3.81233 -2.57784,-5.43291 -4.0667,-8.86495c-0.12446,-0.2869 -0.19078,-0.59715 -0.24533,-0.91142c-0.51816,0.97448 -1.02237,1.95929 -1.49082,2.97062c-0.83865,1.81058 -1.71511,3.89488 -1.29237,5.84497c0,0 0.411,2.46598 -2.05499,2.87698c-2.46598,0.411 -2.87698,-2.05499 -2.87698,-2.05499c-0.72318,-5.26592 1.853,-9.38489 4.32303,-13.82178c-2.04377,-1.86522 -3.98497,-3.77766 -6.12417,-5.55755c0,0 -1.92056,-1.60046 -0.3201,-3.52101c1.60046,-1.92056 3.52102,-0.32009 3.52102,-0.32009c1.56817,1.30871 3.55687,2.80199 5.42637,4.39111c1.32456,-2.85449 2.60529,-5.40779 5.50274,-7.60351l1.69266,-0.47816c0,0 2.5,0 2.5,2.5z" fill="#ffffff" stroke="none" stroke-width="0.5"/><path d="M153.06912,159.71478l-8.28955,-37.08481l54.65131,-12.21618l8.28955,37.08481z" fill="#1b1919" stroke="#805439" stroke-width="0"/><path d="M158.06661,141.37902l3.49567,-0.66667c0,0 3.42779,-0.65372 4.11335,2.61488c0.68556,3.2686 -2.74224,3.92232 -2.74224,3.92232l-3.49567,0.66667c0,0 -3.42779,0.65372 -4.11335,-2.61488c-0.68556,-3.2686 2.74224,-3.92232 2.74224,-3.92232z" data-paper-data="{&quot;index&quot;:null}" fill="#4fe7e5" stroke="none" stroke-width="0.5"/><path d="M181.06661,136.37902l3.49567,-0.66666c0,0 3.42779,-0.65372 4.11335,2.61488c0.68556,3.2686 -2.74224,3.92232 -2.74224,3.92232l-3.49567,0.66667c0,0 -3.42779,0.65372 -4.11335,-2.61489c-0.68556,-3.2686 2.74224,-3.92232 2.74224,-3.92232z" data-paper-data="{&quot;index&quot;:null}" fill="#4fe7e5" stroke="none" stroke-width="0.5"/><path d="M205.6058,127.94217c0.40767,-0.23741 0.79812,-0.41204 1.17078,-0.53083c-0.71078,-1.90013 -2.14223,-3.55736 -2.48866,-5.55614c-0.03905,-0.2253 -0.04561,-6.95207 -0.03791,-7.57662c0.01922,-1.55913 -0.80859,-3.01223 -1.2525,-4.50696c-0.16216,-0.54602 0.52326,-1.36666 0.06688,-1.70746c-0.4231,-0.31595 -0.91313,0.56061 -1.42406,0.694c-1.95003,0.5091 -4.04981,0.26624 -5.99281,0.80155c-1.23308,0.33973 -2.30457,1.16514 -3.55008,1.45604c-0.92699,0.2165 -1.90784,-0.0499 -2.85552,0.04003c-2.29142,0.21744 -4.47353,1.1363 -6.75789,1.41836c-2.65311,0.32758 -5.34649,0.01873 -8.01974,0.01873c-3.9032,-0.05129 -5.75228,1.78831 -9.46369,2.79894c-4.60108,1.25289 -9.83096,0.46269 -14.5127,1.41493c-0.94419,0.19204 -1.70566,0.95696 -2.64749,1.16024c-0.32844,0.07089 -5.74268,-0.35594 -6.04666,0.48067c-0.51376,1.41397 0.31927,2.99796 0.3134,4.50237c-0.00745,1.90976 0.5881,3.77442 0.83502,5.66817c0.48269,3.70197 -0.02898,5.46309 2.17368,8.65937c0,0 0.45811,0.68717 0.45277,1.53489c0.78798,0.13603 1.72839,0.49324 2.84869,1.13189c0.23751,0.13539 0.41712,0.54627 0.55412,1.12747c0.19299,0.16967 0.35962,0.36863 0.49294,0.58992l1.40563,2.24901l-0.09945,0.06216c0.13957,0.18143 0.26788,0.37201 0.38258,0.57363c0.67889,1.19339 0.06458,2.74519 0.09688,4.11778l0.69797,1.40791c0,0 0.83,2.21334 -1.27639,3.14265c-0.49824,0.87786 -1.59746,1.7165 -3.59438,2.44458c-1.9133,0.69759 -3.46143,-2.14659 -5.19215,-3.21988l-0.12017,-0.5074l-0.14193,0.06551l-1.69199,-3.66599c-0.16166,-0.33092 -0.2524,-0.70284 -0.2524,-1.09595c0,-1.20972 0.85923,-2.21876 2.00069,-2.45013c-0.04383,-1.23264 0.02565,-2.6345 0.40398,-3.77696c-0.71413,-0.33732 -1.12764,-0.95759 -1.12764,-0.95759c-2.48427,-3.82078 -2.4061,-6.45389 -2.96918,-10.7692c-0.27571,-2.11295 -0.87182,-4.20098 -0.87926,-6.33183c-0.00327,-0.9364 -0.08254,-6.29258 0.31339,-6.92621c2.49317,-3.99006 5.94835,-2.15857 9.38191,-2.9479c0.88929,-0.20444 1.60009,-0.94916 2.49537,-1.12547c3.92438,-0.77285 8.27763,-0.85249 12.232,-1.47392c0.78976,-0.12411 1.62697,0.24242 2.39815,0.03171c3.90125,-1.06595 6.28653,-2.87323 10.53631,-2.91535c2.46962,0 4.95882,0.32933 7.40883,0.01873c2.34907,-0.2978 4.59926,-1.2135 6.9564,-1.43879c0.75911,-0.07255 1.54639,0.2203 2.28734,0.04003c2.16255,-0.52613 4.24143,-1.43509 6.44595,-1.74095c1.83515,-0.25462 6.74556,-1.41748 8.30139,-0.45032c1.24133,0.77165 1.17007,2.67907 1.78116,4.00682c0.49534,1.07623 1.24751,2.05573 1.53777,3.20438c0.78719,3.11521 -0.46755,6.70526 0.02896,9.85491c0.3094,1.9627 1.92871,3.50843 2.49851,5.41192c0.26987,0.90152 -0.24591,1.96983 0.16052,2.81859c0.44924,0.93815 1.84838,1.21331 2.23299,2.17976c0.77635,1.95082 1.62013,4.16683 1.10248,6.20164c-1.24826,4.9067 -2.80866,5.1023 -4.43751,3.92443c-1.42541,0.59805 -2.64399,-0.62053 -2.64399,-0.62053l-2.18258,-2.36402l-1.12037,-2.24073c-0.18291,-0.34741 -0.28642,-0.74313 -0.28642,-1.16302c0,-0.1144 0.00768,-0.227 0.02256,-0.33732l-0.5059,0.13798l-0.84208,-3.08761c-0.06712,-0.22596 -0.10315,-0.46529 -0.10315,-0.71304c0,-0.81992 0.39471,-1.54765 1.00448,-2.00354c0.33188,-0.39797 0.81749,-0.79593 1.49417,-1.19z" fill="#1b1919" stroke="none" stroke-width="0.5"/></g></g></svg>