<svg version="1.1" xmlns="http://www.w3.org/2000/svg" xmlns:xlink="http://www.w3.org/1999/xlink" width="59.68308" height="59.68307" viewBox="0,0,59.68308,59.68307"><g transform="translate(-210.15848,-150.15848)"><g data-paper-data="{&quot;isPaintingLayer&quot;:true}" fill-rule="nonzero" stroke-linejoin="miter" stroke-miterlimit="10" stroke-dasharray="" stroke-dashoffset="0" style="mix-blend-mode: normal"><path d="M211.79522,191.50984l16.69499,-39.71462l39.71463,16.69499l-16.69499,39.71462z" fill="none" stroke="#ffffff" stroke-width="2.5" stroke-linecap="butt"/><path d="M224.05246,182.28358c0,-8.35236 6.77093,-15.12329 15.12329,-15.12329c8.35236,0 15.12329,6.77093 15.12329,15.12329c0,3.33027 -1.07644,6.40913 -2.90036,8.90761c-8.14862,0 -16.29723,0 -24.44585,0c-1.82393,-2.49848 -2.90036,-5.57734 -2.90036,-8.90761z" fill="none" stroke="#ffffff" stroke-width="1.5" stroke-linecap="butt"/><g fill="#ffffff" stroke="none" stroke-width="0"><path d="M237.73768,181.51326c1.25143,-0.81457 2.86389,-0.55623 3.60153,0.57701c0.73764,1.13324 0.32113,2.71226 -0.9303,3.52683c-1.25143,0.81457 -2.86389,0.55623 -3.60153,-0.57701c-0.73764,-1.13324 -0.32113,-2.71226 0.93029,-3.52683z" stroke-linecap="butt"/><path d="M240.47775,185.51481l-9.00483,3.16045l6.32488,-7.18658z" stroke-linecap="round"/></g></g></g></svg>