<svg version="1.1" xmlns="http://www.w3.org/2000/svg" xmlns:xlink="http://www.w3.org/1999/xlink" width="59.68308" height="59.68307" viewBox="0,0,59.68308,59.68307"><g transform="translate(-210.15849,-150.15849)"><g data-paper-data="{&quot;isPaintingLayer&quot;:true}" fill-rule="nonzero" stroke-linejoin="miter" stroke-miterlimit="10" stroke-dasharray="" stroke-dashoffset="0" style="mix-blend-mode: normal"><path d="M211.79522,191.50984l16.69499,-39.71462l39.71463,16.69499l-16.69499,39.71462z" fill="none" stroke="#ffffff" stroke-width="2.5" stroke-linecap="butt"/><path d="M224.05246,182.28358c0,-8.35236 6.77093,-15.12329 15.12329,-15.12329c8.35236,0 15.12329,6.77093 15.12329,15.12329c0,3.33027 -1.07644,6.40913 -2.90036,8.90761c-8.14862,0 -16.29723,0 -24.44585,0c-1.82393,-2.49848 -2.90036,-5.57734 -2.90036,-8.90761z" fill="none" stroke="#ffffff" stroke-width="1.5" stroke-linecap="butt"/><g fill="#ffffff" stroke="none" stroke-width="0"><path d="M241.93945,183.29082c-0.02584,1.567 -1.14281,2.82356 -2.49478,2.80662c-1.35198,-0.01695 -2.42703,-1.30101 -2.40117,-2.86801c0.02584,-1.567 1.14281,-2.82356 2.49478,-2.80662c1.35198,0.01695 2.42703,1.30101 2.40119,2.868z" stroke-linecap="butt"/><path d="M237.08971,183.34913l2.42379,-9.70099l2.41266,9.70948z" stroke-linecap="round"/></g></g></g></svg>