<svg version="1.1" xmlns="http://www.w3.org/2000/svg" xmlns:xlink="http://www.w3.org/1999/xlink" width="406.61246" height="210.64261" viewBox="0,0,406.61246,210.64261"><g transform="translate(-36.95256,-63.26581)"><g data-paper-data="{&quot;isPaintingLayer&quot;:true}" fill-rule="nonzero" stroke-linejoin="miter" stroke-miterlimit="10" stroke-dasharray="" stroke-dashoffset="0" style="mix-blend-mode: normal"><path d="M37.99397,216.12379v-40.45332h403.71628v40.45332z" fill-opacity="0.50196" fill="#000000" stroke="none" stroke-width="0" stroke-linecap="butt"/><path d="M442.00604,195.86866v19.99236h-76.78852" fill="none" stroke="#ffffff" stroke-width="2" stroke-linecap="butt"/><path d="M38.28977,214.77412v-39.36632h130.25289" fill="none" stroke="#ffffff" stroke-width="2" stroke-linecap="butt"/><text transform="translate(51.90685,203.18409) scale(0.56454,0.56454)" font-size="40" xml:space="preserve" fill="#ffffff" fill-rule="nonzero" stroke="none" stroke-width="1" stroke-linecap="butt" stroke-linejoin="miter" stroke-miterlimit="10" stroke-dasharray="" stroke-dashoffset="0" font-family="Sans Serif" font-weight="normal" text-anchor="start" style="mix-blend-mode: normal"><tspan x="0" dy="0">RankPoint</tspan></text><path d="M38.20256,152.84837v-88.33256h88.33256v88.33256z" fill-opacity="0.50196" fill="#000000" stroke="#ffffff" stroke-width="2.5" stroke-linecap="butt"/><path d="M64.03425,101.20136c0,-10.12593 8.20869,-18.33459 18.3346,-18.33459c10.12591,0 18.3346,8.20865 18.3346,18.33459c0,10.12591 -8.20866,18.3346 -18.3346,18.3346c-10.12593,0 -18.3346,-8.20869 -18.3346,-18.3346z" fill="#ffffff" stroke="none" stroke-width="0" stroke-linecap="butt"/><path d="M52.13911,152.84904l0.99105,-17.70039c0,0 9.54523,-8.313 29.23626,-8.8502c20.27501,-0.55313 29.23623,8.29162 29.23623,8.29162l0.99596,18.25898z" fill="#ffffff" stroke="#ffffff" stroke-width="0.5" stroke-linecap="round"/><path d="M142.01292,111.66637v-46.66899h298.96379v46.669z" fill-opacity="0.50196" fill="#000000" stroke="none" stroke-width="0" stroke-linecap="butt"/><path d="M441.19573,88.29907v23.0642h-56.86417" fill="none" stroke="#ffffff" stroke-width="2" stroke-linecap="butt"/><path d="M142.23196,110.10931v-45.41497h96.4561" fill="none" stroke="#ffffff" stroke-width="2" stroke-linecap="butt"/><text transform="translate(154.44361,96.07851) scale(0.62753,0.62753)" font-size="40" xml:space="preserve" fill="#ffffff" fill-rule="nonzero" stroke="none" stroke-width="1" stroke-linecap="butt" stroke-linejoin="miter" stroke-miterlimit="10" stroke-dasharray="" stroke-dashoffset="0" font-family="Sans Serif" font-weight="normal" text-anchor="start" style="mix-blend-mode: normal"><tspan x="0" dy="0">PLAYER</tspan></text><path d="M142.05957,154.17601v-30.3368h299.7531v30.3368z" fill-opacity="0.50196" fill="#000000" stroke="none" stroke-width="0" stroke-linecap="butt"/><path d="M442.03227,138.98626v14.99269h-57.0143" fill="none" stroke="#ffffff" stroke-width="2" stroke-linecap="butt"/><path d="M142.27919,153.16386v-29.52163h96.71075" fill="none" stroke="#ffffff" stroke-width="2" stroke-linecap="butt"/><path d="M38.52023,273.18082v-41.94514h403.74897v41.94514z" fill-opacity="0.6" fill="#000000" stroke="none" stroke-width="0" stroke-linecap="butt"/><path d="M442.56502,252.1788v20.72962h-76.79476" fill="none" stroke="#cccccc" stroke-width="2" stroke-linecap="butt"/><path d="M38.81604,271.7814v-40.81804h130.26343" fill="none" stroke="#cccccc" stroke-width="2" stroke-linecap="butt"/><text transform="translate(51.85849,260.23686) scale(0.5677,0.5677)" font-size="40" xml:space="preserve" fill="#cccccc" fill-rule="nonzero" stroke="none" stroke-width="1" stroke-linecap="butt" stroke-linejoin="miter" stroke-miterlimit="10" stroke-dasharray="" stroke-dashoffset="0" font-family="Sans Serif" font-weight="normal" text-anchor="start" style="mix-blend-mode: normal"><tspan x="0" dy="0">LevelCheck     0</tspan></text><path d="M220.85347,249.6906l12.01769,0.02987l-10.07802,7.78772l3.91704,-12.40282l4.20598,12.42107z" fill="#cccccc" stroke="#cccccc" stroke-width="2.5" stroke-linecap="round"/><path d="M306.95011,266.33747v-26.76571h125.76711v26.76571z" fill-opacity="0.39608" fill="#000000" stroke="none" stroke-width="0" stroke-linecap="butt"/><path d="M432.80934,252.93578v13.22783h-23.92143" fill="none" stroke="#cccccc" stroke-width="2" stroke-linecap="butt"/><path d="M307.04225,265.44447v-26.0465h40.57683" fill="none" stroke="#cccccc" stroke-width="2" stroke-linecap="butt"/><text transform="translate(155.63348,145.44214) scale(0.45074,0.45074)" font-size="40" xml:space="preserve" fill="#ffffff" fill-rule="nonzero" stroke="none" stroke-width="1" stroke-linecap="butt" stroke-linejoin="miter" stroke-miterlimit="10" stroke-dasharray="" stroke-dashoffset="0" font-family="Sans Serif" font-weight="normal" text-anchor="start" style="mix-blend-mode: normal"><tspan x="0" dy="0">ID:</tspan></text><text transform="translate(318.13341,257.56266) scale(0.41114,0.41113)" font-size="40" xml:space="preserve" fill="#cccccc" fill-rule="nonzero" stroke="none" stroke-width="1" stroke-linecap="butt" stroke-linejoin="miter" stroke-miterlimit="10" stroke-dasharray="" stroke-dashoffset="0" font-family="Sans Serif" font-weight="normal" text-anchor="start" style="mix-blend-mode: normal"><tspan x="0" dy="0">Coming soon</tspan></text></g></g></svg>