<svg version="1.1" xmlns="http://www.w3.org/2000/svg" xmlns:xlink="http://www.w3.org/1999/xlink" width="17.79414" height="17.79414" viewBox="0,0,17.79414,17.79414"><g transform="translate(-231.10293,-171.10293)"><g data-paper-data="{&quot;isPaintingLayer&quot;:true}" fill="#ffffff" fill-rule="nonzero" stroke="none" stroke-width="0" stroke-linecap="butt" stroke-linejoin="miter" stroke-miterlimit="10" stroke-dasharray="" stroke-dashoffset="0" style="mix-blend-mode: normal"><path d="M231.10293,180c0,-4.91372 3.98335,-8.89707 8.89707,-8.89707c4.91372,0 8.89707,3.98335 8.89707,8.89707c0,4.91372 -3.98335,8.89707 -8.89707,8.89707c-4.91372,0 -8.89707,-3.98335 -8.89707,-8.89707zM238.51995,177.4495c1.48038,-0.4613 2.96951,-0.93592 4.36946,-1.59934c0.04669,1.35959 -0.00744,2.72174 0.02842,4.08119c-0.06186,-0.00618 -0.1246,-0.00935 -0.18808,-0.00935c-1.0325,0 -1.86951,0.83701 -1.86951,1.86951c0,1.0325 0.83701,1.86951 1.86951,1.86951c1.07141,0 1.86951,-0.79809 1.86951,-1.86951c0,-0.08679 -0.00592,-0.1722 -0.01737,-0.25585c0.04425,-0.23943 -0.04226,-0.4557 -0.04226,-0.4557l-0.07267,-0.08951c-0.15502,-1.99693 0.00902,-4.00478 -0.1234,-6.00406c0,0 -0.03207,-0.48113 -0.43105,-0.64493c-0.31244,-0.38387 -0.82556,-0.19145 -0.82556,-0.19145l-0.56767,0.21727c-0.83602,0.41937 -1.34493,0.49429 -2.23497,0.79893c-0.84706,0.28993 -2.074,0.8129 -2.92161,1.07742c0,0 -0.71376,0.22305 -0.4907,0.93681c0.03835,0.12272 0.0912,0.21774 0.15245,0.29098c0.00482,1.43977 0.03953,2.87917 0.05453,4.31795c-0.0576,-0.00535 -0.11596,-0.00808 -0.17496,-0.00808c-1.0325,0 -1.86951,0.83701 -1.86951,1.86951c0,1.0325 0.83701,1.86951 1.86951,1.86951c1.0325,0 1.86951,-0.83701 1.86951,-1.86951c0,-0.29687 -0.06919,-0.57758 -0.19234,-0.82688c-0.00428,-1.79075 -0.05568,-3.58212 -0.06121,-5.37441z"/></g></g></svg>