<svg version="1.1" xmlns="http://www.w3.org/2000/svg" xmlns:xlink="http://www.w3.org/1999/xlink" width="59.68308" height="59.68307" viewBox="0,0,59.68308,59.68307"><g transform="translate(-210.15847,-150.15847)"><g data-paper-data="{&quot;isPaintingLayer&quot;:true}" fill-rule="nonzero" stroke-linejoin="miter" stroke-miterlimit="10" stroke-dasharray="" stroke-dashoffset="0" style="mix-blend-mode: normal"><path d="M211.79521,191.50983l16.69499,-39.71462l39.71463,16.69499l-16.69499,39.71462z" fill="none" stroke="#ffffff" stroke-width="2.5" stroke-linecap="butt"/><path d="M249.84195,193.32151h-19.68388l4.90356,-26.643h9.63254z" fill="none" stroke="#ffffff" stroke-width="2.5" stroke-linecap="round"/><path d="M233.01499,190.47592c0.02525,-3.85427 3.17022,-6.95829 7.02449,-6.93304c3.85427,0.02525 6.95829,3.17022 6.93304,7.02449c-0.00116,0.17701 -0.0089,0.35244 -0.02299,0.52606c-4.63497,-0.04373 -9.27085,-0.01256 -13.90403,0.08729c-0.02171,-0.23185 -0.03207,-0.46697 -0.03051,-0.70479z" fill="#ffffff" stroke="none" stroke-width="0" stroke-linecap="butt"/><path d="M239.99554,170.63956v14.7561" fill="none" stroke="#ffffff" stroke-width="1.5" stroke-linecap="round"/><path d="M237.85967,175.48798c0,-1.14594 0.92896,-2.0749 2.0749,-2.0749c1.14594,0 2.0749,0.92896 2.0749,2.0749c0,1.14594 -0.92896,2.0749 -2.0749,2.0749c-1.14594,0 -2.0749,-0.92896 -2.0749,-2.0749z" fill="#ffffff" stroke="#ffffff" stroke-width="1.5" stroke-linecap="butt"/></g></g></svg>