<svg version="1.1" xmlns="http://www.w3.org/2000/svg" xmlns:xlink="http://www.w3.org/1999/xlink" width="59.68308" height="59.68307" viewBox="0,0,59.68308,59.68307"><g transform="translate(-210.15848,-150.15848)"><g data-paper-data="{&quot;isPaintingLayer&quot;:true}" fill-rule="nonzero" stroke-linejoin="miter" stroke-miterlimit="10" stroke-dasharray="" stroke-dashoffset="0" style="mix-blend-mode: normal"><path d="M211.79521,191.50983l16.69499,-39.71462l39.71463,16.69499l-16.69499,39.71462z" fill="none" stroke="#ffffff" stroke-width="2.5" stroke-linecap="butt"/><path d="M224.05245,182.28357c0,-8.35236 6.77093,-15.12329 15.12329,-15.12329c8.35236,0 15.12329,6.77093 15.12329,15.12329c0,3.33027 -1.07644,6.40913 -2.90036,8.90761c-8.14862,0 -16.29723,0 -24.44585,0c-1.82393,-2.49848 -2.90036,-5.57734 -2.90036,-8.90761z" fill="none" stroke="#ffffff" stroke-width="1.5" stroke-linecap="butt"/><g fill="#ffffff" stroke="none" stroke-width="0"><path d="M241.21196,184.23022c-0.75665,1.48114 -2.34726,2.18536 -3.55271,1.57294c-1.20545,-0.61242 -1.56927,-2.3096 -0.81261,-3.79072c0.75665,-1.48114 2.34726,-2.18536 3.55271,-1.57294c1.20545,0.61242 1.56927,2.3096 0.81263,3.79072z" stroke-linecap="butt"/><path d="M236.83209,182.14683l6.71598,-8.17097l-2.37931,10.31213z" stroke-linecap="round"/></g><path d="M227.19989,182.93452c0,-6.57243 5.32801,-11.90044 11.90044,-11.90044c0.97607,0 1.9247,0.11751 2.83251,0.33916c-0.66488,1.12438 -2.77848,3.70611 -2.77848,3.70611c0,0 0.48033,-0.08479 0.01035,-0.08479c-6.2132,0 -11.25,5.0368 -11.25,11.25c0,0.28493 0.01059,0.56738 0.0314,0.84698c-0.48249,-1.2941 -0.74623,-2.69476 -0.74623,-4.15702z" fill="#ffffff" stroke="none" stroke-width="0" stroke-linecap="butt"/></g></g></svg>