<svg version="1.1" xmlns="http://www.w3.org/2000/svg" xmlns:xlink="http://www.w3.org/1999/xlink" width="170" height="60.5" viewBox="0,0,170,60.5"><defs><linearGradient x1="240" y1="152.875" x2="240" y2="207.125" gradientUnits="userSpaceOnUse" id="color-1"><stop offset="0" stop-color="#bdbdbd"/><stop offset="1" stop-color="#dbdbdb"/></linearGradient></defs><g transform="translate(-155,-150.5)"><g data-paper-data="{&quot;isPaintingLayer&quot;:true}" fill-rule="nonzero" stroke-width="0" stroke-linecap="butt" stroke-linejoin="miter" stroke-miterlimit="10" stroke-dasharray="" stroke-dashoffset="0" style="mix-blend-mode: normal"><path d="M325,180.75c0,16.70661 -38.0558,30.25 -85,30.25c-46.9442,0 -85,-13.54339 -85,-30.25c0,-16.70661 38.0558,-30.25 85,-30.25c46.9442,0 85,13.54339 85,30.25z" fill="#cfc0b1" stroke="none"/><path d="M321.875,180c0,14.98073 -36.65668,27.125 -81.875,27.125c-45.21831,0 -81.875,-12.14427 -81.875,-27.125c0,-14.98073 36.65669,-27.125 81.875,-27.125c45.21832,0 81.875,12.14427 81.875,27.125z" fill="url(#color-1)" stroke="#cfc0b1"/></g></g></svg>