<svg version="1.1" xmlns="http://www.w3.org/2000/svg" xmlns:xlink="http://www.w3.org/1999/xlink" width="74.99653" height="73.14445" viewBox="0,0,74.99653,73.14445"><g transform="translate(-202.50173,-143.41707)"><g data-paper-data="{&quot;isPaintingLayer&quot;:true}" fill-rule="nonzero" stroke-width="0.5" stroke-linejoin="miter" stroke-miterlimit="10" stroke-dasharray="" stroke-dashoffset="0" style="mix-blend-mode: normal"><path d="M202.85903,193.05905c-0.65921,-10.22649 1.93457,-19.95378 1.93457,-19.95378l13.6948,0.08203c0,0 1.99487,10.07685 1.76461,18.74904c-0.24122,9.08469 -3.64359,11.01077 -7.81469,11.22698c-3.75133,0.19445 -9.07512,-2.28288 -9.57929,-10.10428z" fill="#4d6ceb" stroke="#000000" stroke-linecap="butt"/><path d="M202.9583,181.5359c-0.65165,-4.32077 1.91238,-8.43063 1.91238,-8.43063l13.53769,0.03465c0,0 1.97199,4.25755 1.74437,7.92163c-0.23845,3.83835 -3.6018,4.65214 -7.72504,4.74349c-3.70828,0.08216 -8.97101,-0.96453 -9.4694,-4.26914z" fill="#4d6ceb" stroke="#000000" stroke-linecap="butt"/><path d="M259.83578,193.05906c-0.65921,-10.22649 1.93457,-19.95378 1.93457,-19.95378l13.6948,0.08203c0,0 1.99487,10.07685 1.76461,18.74904c-0.24122,9.08469 -3.6436,11.01077 -7.81469,11.22698c-3.75133,0.19445 -9.07511,-2.28288 -9.57929,-10.10428z" fill="#4d6ceb" stroke="#000000" stroke-linecap="butt"/><path d="M259.93504,181.5359c-0.65164,-4.32077 1.91238,-8.43063 1.91238,-8.43063l13.53769,0.03466c0,0 1.97199,4.25755 1.74437,7.92163c-0.23845,3.83835 -3.60179,4.65214 -7.72503,4.74349c-3.70828,0.08216 -8.97101,-0.96453 -9.4694,-4.26914z" fill="#4d6ceb" stroke="#000000" stroke-linecap="butt"/><path d="M213.68987,188.6371c-2.12849,-24.71396 4.61856,-44.96567 4.61856,-44.96567l44.21864,0.19823c0,0 6.44116,24.35233 5.69768,45.31008c-0.77885,21.95459 -11.76467,26.60928 -25.23256,27.13179c-12.11251,0.46992 -27.67441,-8.77277 -29.30232,-27.67442z" fill="#4d6ceb" stroke="#000000" stroke-linecap="butt"/><path d="M212.06196,164.16122c-2.12849,-10.50332 6.24647,-20.49393 6.24647,-20.49393l44.21864,0.08425c0,0 6.44116,10.34964 5.69768,19.25659c-0.77885,9.3306 -11.76466,11.30883 -25.23256,11.53089c-12.11251,0.19971 -29.30233,-2.34468 -30.93023,-10.3778z" fill="#4d6ceb" stroke="#000000" stroke-linecap="butt"/><path d="M240,180.46513c-2.5,0 -2.5,-0.44922 -2.5,-0.44922c0,-3.16891 0,-6.63033 0,-9.79924c0,0 0,-0.44922 2.5,-0.44922c2.5,0 2.5,0.44922 2.5,0.44922c0,3.16891 0,6.33781 0,9.50672v0.29251c0,0 0,0.44922 -2.5,0.44922z" fill="#373b49" stroke="none" stroke-linecap="butt"/><path d="M204.9601,206.0823c-2.66956,-10.22649 7.83432,-19.95377 7.83432,-19.95377l55.45903,0.08203c0,0 8.07851,10.07685 7.14603,18.74905c-0.97683,9.08469 -14.75525,11.01077 -31.64668,11.22698c-15.19151,0.19445 -36.75098,-2.28289 -38.7927,-10.10428z" fill="#4d6ceb" stroke="#000000" stroke-linecap="butt"/><path d="M243.70975,173.46302c16.69765,0.09135 30.318,0.90514 31.28362,4.74349c0.92178,3.66408 -7.06405,7.92163 -7.06405,7.92163l-54.82279,0.03465c0,0 -10.38338,-4.10986 -7.74444,-8.43063c2.0183,-3.30461 23.33043,-4.3513 38.34766,-4.26914z" data-paper-data="{&quot;index&quot;:null}" fill="#4d6ceb" stroke="#000000" stroke-linecap="butt"/><path d="M242.5,167.04286v0.29251c0,3.16891 0,6.33783 0,9.50673c0,0 0,0.44922 -2.5,0.44922c-2.5,0 -2.5,-0.44922 -2.5,-0.44922c0,-3.1689 0,-6.63034 0,-9.79924c0,0 0,-0.44922 2.5,-0.44922c2.5,0 2.5,0.44922 2.5,0.44922z" data-paper-data="{&quot;index&quot;:null}" fill="#373b49" stroke="none" stroke-linecap="butt"/><path d="M240.14273,199.40769c-33.42198,-0.46205 -27.71717,-13.56429 -27.71717,-13.56429h55.77236c0,0 4.70396,13.45818 -28.05519,13.56429z" fill="#20358b" stroke="#000000" stroke-linecap="round"/></g></g></svg>