<svg version="1.1" xmlns="http://www.w3.org/2000/svg" xmlns:xlink="http://www.w3.org/1999/xlink" width="100.00037" height="100" viewBox="0,0,100.00037,100"><g transform="translate(-189.99982,-130)"><g data-paper-data="{&quot;isPaintingLayer&quot;:true}" fill-rule="nonzero" stroke-linejoin="miter" stroke-miterlimit="10" stroke-dasharray="" stroke-dashoffset="0" style="mix-blend-mode: normal"><g fill="#ff3333" stroke-width="0" stroke-linecap="butt"><path d="M275.20974,144.79046l-70.41909,70.41909v-70.41909z" stroke="#000000"/><path d="M240.0002,147.38305h-50.00038v-17.38304h50.00038z" stroke="#000000"/><path d="M207.38323,147.38305v65.23391h-17.38304v-65.23391z" stroke="#000000"/><path d="M195.09119,224.90865c-6.7885,-6.7885 -6.7885,-17.79483 0,-24.58333c6.7885,-6.7885 24.58333,0 24.58333,0l-24.58333,24.58332z" data-paper-data="{&quot;index&quot;:null}" stroke="none"/></g><g fill="#cb0000" stroke-width="0" stroke-linecap="butt"><path d="M260.32548,224.90863c-6.7885,-6.7885 -6.7885,-17.79483 0,-24.58333c6.7885,-6.7885 17.79482,-6.7885 24.58332,0c6.7885,6.7885 6.7885,17.79483 0,24.58333c-6.7885,6.7885 -17.79483,6.7885 -24.58333,0z" stroke="none"/><path d="M204.79065,215.20956l70.41909,-70.41909v70.41909z" stroke="#000000"/><path d="M263.99763,212.61697v-82.61696h26.00255v82.61696z" stroke="#000000"/><path d="M272.61714,230h-65.23391v-17.38304h65.23391z" stroke="#000000"/><path d="M195.09119,224.90863l24.58332,-24.58333c0,0 6.7885,17.79483 0,24.58333c-6.7885,6.7885 -17.79483,6.7885 -24.58333,0z" data-paper-data="{&quot;index&quot;:null}" stroke="none"/></g><g><g data-paper-data="{&quot;index&quot;:null}" fill="#e61818" stroke="none" stroke-width="0" stroke-linecap="butt"><path d="M216.00348,173.38633c0,-9.60039 7.78265,-17.38304 17.38304,-17.38304c9.60039,0 17.38303,7.78265 17.38303,17.38304c0,9.60039 -7.78264,17.38304 -17.38303,17.38304c-9.60039,0 -17.38304,-7.78265 -17.38304,-17.38304z"/><path d="M229.23156,173.38633c0,-9.60039 7.78265,-17.38304 17.38304,-17.38304c9.60039,0 17.38303,7.78265 17.38303,17.38304c0,9.60039 -7.78265,17.38304 -17.38303,17.38304c-9.60039,0 -17.38304,-7.78265 -17.38304,-17.38304z"/><path d="M229.23156,186.61368c0,-9.60039 7.78265,-17.38304 17.38304,-17.38304c9.60039,0 17.38303,7.78265 17.38303,17.38304c0,9.60039 -7.78265,17.38304 -17.38303,17.38304c-9.60039,0 -17.38304,-7.78265 -17.38304,-17.38304z"/><path d="M216.00348,186.61368c0,-9.60039 7.78265,-17.38304 17.38304,-17.38304c9.60039,0 17.38303,7.78265 17.38303,17.38304c0,9.60039 -7.78264,17.38304 -17.38303,17.38304c-9.60039,0 -17.38304,-7.78265 -17.38304,-17.38304z"/></g><path d="M232.92145,203.99672v-47.99343h14.15749v47.99343z" fill="#e61818" stroke="#ff0000" stroke-width="0" stroke-linecap="butt"/><path d="M263.99691,187.07875h-47.99343v-57.07875h47.99343z" fill="#e61818" stroke="#ff0000" stroke-width="0" stroke-linecap="butt"/><path d="M195.23916,224.7614l44.76139,-44.7614" data-paper-data="{&quot;index&quot;:null}" fill="none" stroke="#e61818" stroke-width="0.5" stroke-linecap="round"/></g></g></g></svg>