<svg version="1.1" xmlns="http://www.w3.org/2000/svg" xmlns:xlink="http://www.w3.org/1999/xlink" width="60" height="46.68223" viewBox="0,0,60,46.68223"><g transform="translate(-210,-160)"><g data-paper-data="{&quot;isPaintingLayer&quot;:true}" fill="#000000" fill-rule="nonzero" stroke-linecap="butt" stroke-linejoin="miter" stroke-miterlimit="10" stroke-dasharray="" stroke-dashoffset="0" style="mix-blend-mode: normal"><path d="M210,168c0,-4.41828 3.58172,-8 8,-8c4.41828,0 8,3.58172 8,8c0,4.41828 -3.58172,8 -8,8c-4.41828,0 -8,-3.58172 -8,-8z" data-paper-data="{&quot;index&quot;:null}" stroke="#000000" stroke-width="0"/><path d="M254,168c0,-4.41828 3.58172,-8 8,-8c4.41828,0 8,3.58172 8,8c0,4.41828 -3.58172,8 -8,8c-4.41828,0 -8,-3.58172 -8,-8z" data-paper-data="{&quot;index&quot;:null}" stroke="#000000" stroke-width="0"/><path d="M249.05185,205.28469c-1.11803,2.23607 -3.3541,1.11803 -3.3541,1.11803l-1.09311,-0.56191c-4.31869,-1.65265 -9.33292,-2.38532 -13.90274,-3.21448c0,0 -2.45967,-0.44721 -2.01246,-2.90689c0.44721,-2.45967 2.90689,-2.01246 2.90689,-2.01246c4.89021,0.89089 10.1176,1.7387 14.76393,3.45219l1.57356,0.77142c0,0 2.23607,1.11803 1.11803,3.3541z" stroke="none" stroke-width="0.5"/></g></g></svg>