<svg version="1.1" xmlns="http://www.w3.org/2000/svg" xmlns:xlink="http://www.w3.org/1999/xlink" width="100" height="100" viewBox="0,0,100,100"><g transform="translate(-190,-130)"><g data-paper-data="{&quot;isPaintingLayer&quot;:true}" fill-rule="nonzero" stroke-linejoin="miter" stroke-miterlimit="10" stroke-dasharray="" stroke-dashoffset="0" style="mix-blend-mode: normal"><path d="M190.00002,130h82.61659v26.00329h-82.61659z" data-paper-data="{&quot;index&quot;:null}" fill="#ffffff" stroke="#000000" stroke-width="0" stroke-linecap="butt"/><path d="M263.99671,230v-82.61659h26.00329v82.61659z" data-paper-data="{&quot;index&quot;:null}" fill="#999999" stroke="#000000" stroke-width="0" stroke-linecap="butt"/><g data-paper-data="{&quot;index&quot;:null}" fill="#ffffff" stroke-width="0" stroke-linecap="butt"><path d="M204.79045,144.79046h70.41909l-70.41909,70.41909z" stroke="#000000"/><path d="M284.90864,135.09247l-24.58332,24.58333c0,0 -6.7885,-17.79483 0,-24.58333c6.7885,-6.7885 17.79483,-6.7885 24.58333,0z" data-paper-data="{&quot;index&quot;:null}" stroke="none"/></g><g data-paper-data="{&quot;index&quot;:null}" fill="#999999" stroke-width="0" stroke-linecap="butt"><path d="M275.20955,215.20955h-70.41909l70.41909,-70.41909z" stroke="#000000"/><path d="M284.90861,135.09247c6.7885,6.7885 6.7885,17.79483 0,24.58333c-6.7885,6.7885 -24.58333,0 -24.58333,0l24.58333,-24.58332z" data-paper-data="{&quot;index&quot;:null}" stroke="none"/></g><g data-paper-data="{&quot;index&quot;:null}" fill="#cdcdcd" stroke-width="0" stroke-linecap="butt"><g stroke="none"><path d="M250.76936,173.38633c0,9.60039 -7.78265,17.38303 -17.38304,17.38303c-9.60039,0 -17.38304,-7.78264 -17.38304,-17.38303c0,-9.60039 7.78265,-17.38304 17.38304,-17.38304c9.60039,0 17.38304,7.78265 17.38304,17.38304z"/><path d="M250.76937,186.61442c0,9.60038 -7.78265,17.38303 -17.38304,17.38303c-9.60039,0 -17.38304,-7.78264 -17.38304,-17.38303c0,-9.60039 7.78265,-17.38304 17.38304,-17.38304c9.60039,0 17.38304,7.78265 17.38304,17.38304z"/><path d="M263.99671,186.61442c0,9.60038 -7.78265,17.38303 -17.38304,17.38303c-9.60039,0 -17.38304,-7.78264 -17.38304,-17.38303c0,-9.60039 7.78265,-17.38304 17.38304,-17.38304c9.60039,0 17.38304,7.78265 17.38304,17.38304z"/><path d="M263.99671,173.38633c0,9.60039 -7.78265,17.38303 -17.38304,17.38303c-9.60039,0 -17.38304,-7.78264 -17.38304,-17.38303c0,-9.60039 7.78265,-17.38304 17.38304,-17.38304c9.60039,0 17.38304,7.78265 17.38304,17.38304z"/></g><g stroke="#ff0000"><path d="M263.99671,187.07875h-47.99343v-14.15749h47.99343z"/><path d="M232.92125,203.99672v-47.99343h14.15749v47.99343z"/></g><path d="M263.99671,230h-73.99671v-50h73.99671z" stroke="#000000"/><path d="M190.00001,230v-73.99671h49.99926v73.99671z" stroke="#000000"/></g><path d="M284.76177,135.23861l-44.76139,44.76139" data-paper-data="{&quot;index&quot;:null}" fill="#cdcdcd" stroke="#cdcdcd" stroke-width="0.5" stroke-linecap="round"/></g></g></svg>