<svg version="1.1" xmlns="http://www.w3.org/2000/svg" xmlns:xlink="http://www.w3.org/1999/xlink" width="99.99983" height="100" viewBox="0,0,99.99983,100"><g transform="translate(-190.00008,-130)"><g data-paper-data="{&quot;isPaintingLayer&quot;:true}" fill-rule="nonzero" stroke-linejoin="miter" stroke-miterlimit="10" stroke-dasharray="" stroke-dashoffset="0" style="mix-blend-mode: normal"><path d="M190.00027,130.00001h73.99708v99.99999h-73.99708z" fill="#cdcdcd" stroke="#000000" stroke-width="0" stroke-linecap="butt"/><path d="M289.99992,130v100h-26.00255v-100z" fill="#999999" stroke="#e61818" stroke-width="0" stroke-linecap="butt"/><g><g fill="#ffffff" stroke-width="0" stroke-linecap="butt"><path d="M210.91273,209.08966c5.6531,5.6531 6.5986,14.23113 2.8365,20.86264c-0.68412,1.2059 -2.8365,-20.86263 -2.8365,-20.86263z" data-paper-data="{&quot;index&quot;:null}" stroke="none"/><path d="M210.91273,209.08969v20.91031h-20.91031z" stroke="#e61818"/><path d="M213.64361,230h-2.73087v-20.91031z" stroke="#e61818"/><path d="M210.91042,229.99998v-8.44817h5.09137v8.44817z" stroke="#e61818"/></g><g data-paper-data="{&quot;index&quot;:null}" fill="#999999" stroke-width="0" stroke-linecap="butt"><path d="M210.91041,209.08967c0,0 -22.06853,-2.15238 -20.86263,-2.8365c6.63151,-3.7621 15.20954,-2.8166 20.86264,2.8365z" data-paper-data="{&quot;index&quot;:null}" stroke="none"/><path d="M190.00008,229.99998v-20.91031h20.91031z" stroke="#e61818"/><path d="M210.91039,209.08967h-20.91031v-2.73087z" stroke="#e61818"/><path d="M190.0001,204.00061h8.44817v5.09137h-8.44817z" stroke="#e61818"/></g><path d="M210.74159,209.26082l-20.48918,20.48918" fill="none" stroke="#cdcdcd" stroke-width="0.5" stroke-linecap="round"/></g></g></g></svg>