<svg version="1.1" xmlns="http://www.w3.org/2000/svg" xmlns:xlink="http://www.w3.org/1999/xlink" width="100.00001" height="100.00037" viewBox="0,0,100.00001,100.00037"><g transform="translate(-190,-129.99981)"><g data-paper-data="{&quot;isPaintingLayer&quot;:true}" fill-rule="nonzero" stroke-linejoin="miter" stroke-miterlimit="10" stroke-dasharray="" stroke-dashoffset="0" style="mix-blend-mode: normal"><g data-paper-data="{&quot;index&quot;:null}" fill="#ff3333" stroke-width="0" stroke-linecap="butt"><path d="M204.79046,144.79065l70.41909,0l-70.41909,70.41909z" stroke="#000000"/><path d="M190.00001,180.0002v-50.00038l17.38304,0v50.00038z" stroke="#000000"/><path d="M207.38305,130.00019l65.23391,0v17.38305h-65.23391z" stroke="#000000"/><path d="M284.90864,135.09119l-24.58332,24.58333c0,0 -6.7885,-17.79483 0,-24.58333c6.7885,-6.7885 17.79483,-6.7885 24.58333,0z" data-paper-data="{&quot;index&quot;:null}" stroke="none"/></g><g data-paper-data="{&quot;index&quot;:null}" fill="#cb0000" stroke-width="0" stroke-linecap="butt"><path d="M284.90863,200.32547c6.7885,6.7885 6.7885,17.79483 0,24.58333c-6.7885,6.7885 -17.79483,6.7885 -24.58333,0c-6.7885,-6.7885 -6.7885,-17.79481 0,-24.58331c6.7885,-6.7885 17.79483,-6.7885 24.58333,0z" stroke="none"/><path d="M275.20956,215.20975l-70.41909,0l70.41909,-70.41909z" stroke="#000000"/><path d="M272.61697,230.00019l-82.61696,0v-26.00255l82.61696,0z" stroke="#000000"/><path d="M272.61696,212.61715v-65.23391h17.38304v65.23391z" stroke="#000000"/><path d="M284.90863,135.09119c6.7885,6.7885 6.7885,17.79483 0,24.58333c-6.7885,6.7885 -24.58333,0 -24.58333,0l24.58333,-24.58333z" data-paper-data="{&quot;index&quot;:null}" stroke="none"/></g><g data-paper-data="{&quot;index&quot;:null}"><g data-paper-data="{&quot;index&quot;:null}" fill="#e61818" stroke="none" stroke-width="0" stroke-linecap="butt"><path d="M250.76937,173.38652c0,9.60039 -7.78265,17.38303 -17.38304,17.38303c-9.60039,0 -17.38304,-7.78264 -17.38304,-17.38303c0,-9.60039 7.78265,-17.38304 17.38304,-17.38304c9.60039,0 17.38304,7.78265 17.38304,17.38304z"/><path d="M250.76937,186.6146c0,9.60038 -7.78265,17.38303 -17.38304,17.38303c-9.60039,0 -17.38304,-7.78264 -17.38304,-17.38303c0,-9.60039 7.78265,-17.38304 17.38304,-17.38304c9.60039,0 17.38304,7.78265 17.38304,17.38304z"/><path d="M263.99672,186.6146c0,9.60038 -7.78265,17.38303 -17.38304,17.38303c-9.60039,0 -17.38304,-7.78264 -17.38304,-17.38303c0,-9.60039 7.78265,-17.38304 17.38304,-17.38304c9.60039,0 17.38304,7.78265 17.38304,17.38304z"/><path d="M263.99672,173.38652c0,9.60039 -7.78265,17.38303 -17.38304,17.38303c-9.60039,0 -17.38304,-7.78263 -17.38304,-17.38303c0,-9.60039 7.78265,-17.38304 17.38304,-17.38304c9.60039,0 17.38304,7.78265 17.38304,17.38304z"/></g><path d="M263.99672,187.07894h-47.99343v-14.15749l47.99343,0z" fill="#e61818" stroke="#ff0000" stroke-width="0" stroke-linecap="butt"/><path d="M190,203.99691v-47.99343l57.07875,0v47.99343z" fill="#e61818" stroke="#ff0000" stroke-width="0" stroke-linecap="butt"/><path d="M284.7614,135.23916l-44.7614,44.7614" data-paper-data="{&quot;index&quot;:null}" fill="none" stroke="#e61818" stroke-width="0.5" stroke-linecap="round"/></g></g></g></svg>