<svg version="1.1" xmlns="http://www.w3.org/2000/svg" xmlns:xlink="http://www.w3.org/1999/xlink" width="60" height="44.10096" viewBox="0,0,60,44.10096"><g transform="translate(-210,-160)"><g data-paper-data="{&quot;isPaintingLayer&quot;:true}" fill="#000000" fill-rule="nonzero" stroke-linecap="butt" stroke-linejoin="miter" stroke-miterlimit="10" stroke-dasharray="" stroke-dashoffset="0" style="mix-blend-mode: normal"><path d="M262,176c-4.41828,0 -8,-3.58172 -8,-8c0,-4.41828 3.58172,-8 8,-8c4.41828,0 8,3.58172 8,8c0,4.41828 -3.58172,8 -8,8z" data-paper-data="{&quot;index&quot;:null}" stroke="#000000" stroke-width="0"/><path d="M218,176c-4.41828,0 -8,-3.58172 -8,-8c0,-4.41828 3.58172,-8 8,-8c4.41828,0 8,3.58172 8,8c0,4.41828 -3.58172,8 -8,8z" data-paper-data="{&quot;index&quot;:null}" stroke="#000000" stroke-width="0"/><path d="M231.55076,203.95235c-0.23935,0.10537 -0.47974,0.21995 -0.67467,0.0921c-1.38071,0 -2.5,-1.11929 -2.5,-2.5c0,-0.08119 0.00387,-0.16147 0.01144,-0.24068c-0.52014,-1.15586 3.31453,-4.58945 3.87334,-5.16502c4.24423,-4.37153 11.8422,-8.76622 16.50069,-1.89652c0.95762,1.41217 1.33406,3.73562 -0.95455,4.49849c-3.38242,1.12747 -4.12329,-5.48678 -8.59097,-2.28807c-1.1161,0.79909 -4.68934,5.10139 -6.46711,6.74787c-0.16493,0.18638 -0.35725,0.34795 -0.57065,0.47842c-0.12638,0.08906 -0.22964,0.14408 -0.30555,0.15894c-0.10418,0.0204 -0.21297,0.06648 -0.32197,0.11446z" data-paper-data="{&quot;index&quot;:null}" stroke="none" stroke-width="0.5"/></g></g></svg>