<svg version="1.1" xmlns="http://www.w3.org/2000/svg" xmlns:xlink="http://www.w3.org/1999/xlink" width="99.99926" height="99.99999" viewBox="0,0,99.99926,99.99999"><g transform="translate(-190.00037,-130.00001)"><g data-paper-data="{&quot;isPaintingLayer&quot;:true}" fill-rule="nonzero" stroke-width="0" stroke-linecap="butt" stroke-linejoin="miter" stroke-miterlimit="10" stroke-dasharray="" stroke-dashoffset="0" style="mix-blend-mode: normal"><g fill="#cb0000"><path d="M260.32493,224.90863c-6.7885,-6.7885 -6.7885,-17.79483 0,-24.58333c6.7885,-6.7885 17.79482,-6.7885 24.58332,0c6.7885,6.7885 6.7885,17.79483 0,24.58333c-6.7885,6.7885 -17.79483,6.7885 -24.58333,0z" stroke="none"/><path d="M204.78973,215.20955l70.41909,-70.41909v70.41909z" stroke="#000000"/><path d="M263.99708,212.61697v-82.61696h26.00255v82.61696z" stroke="#000000"/><path d="M272.61659,230h-82.61622v-26.00329h82.61622z" stroke="#000000"/></g><g fill="#e61818"><g stroke="none"><path d="M216.00256,173.38633c0,-9.60039 7.78265,-17.38304 17.38304,-17.38304c9.60039,0 17.38303,7.78265 17.38303,17.38304c0,9.60039 -7.78264,17.38304 -17.38303,17.38304c-9.60039,0 -17.38304,-7.78265 -17.38304,-17.38304z"/><path d="M229.23065,173.38633c0,-9.60039 7.78265,-17.38304 17.38304,-17.38304c9.60039,0 17.38303,7.78265 17.38303,17.38304c0,9.60039 -7.78265,17.38304 -17.38303,17.38304c-9.60039,0 -17.38304,-7.78265 -17.38304,-17.38304z"/><path d="M229.23065,186.61368c0,-9.60039 7.78265,-17.38304 17.38304,-17.38304c9.60039,0 17.38303,7.78265 17.38303,17.38304c0,9.60039 -7.78265,17.38304 -17.38303,17.38304c-9.60039,0 -17.38304,-7.78265 -17.38304,-17.38304z"/><path d="M216.00256,186.61368c0,-9.60039 7.78265,-17.38304 17.38304,-17.38304c9.60039,0 17.38303,7.78265 17.38303,17.38304c0,9.60039 -7.78264,17.38304 -17.38303,17.38304c-9.60039,0 -17.38304,-7.78265 -17.38304,-17.38304z"/></g><g stroke="#ff0000"><path d="M232.92053,203.99672v-47.99343h14.15749v47.99343z"/><path d="M263.99599,187.07875h-47.99343v-14.15749h47.99343z"/></g><path d="M263.99708,180.00001h-73.99671v-50h73.99671z" stroke="#000000"/><path d="M239.99964,130.00001v73.99671h-49.99926v-73.99671z" stroke="#000000"/></g></g></g></svg>