<svg version="1.1" xmlns="http://www.w3.org/2000/svg" xmlns:xlink="http://www.w3.org/1999/xlink" width="100.00036" height="100.00001" viewBox="0,0,100.00036,100.00001"><g transform="translate(-189.99966,-130)"><g data-paper-data="{&quot;isPaintingLayer&quot;:true}" fill-rule="nonzero" stroke-linejoin="miter" stroke-miterlimit="10" stroke-dasharray="" stroke-dashoffset="0" style="mix-blend-mode: normal"><g data-paper-data="{&quot;index&quot;:null}" fill="#ff3333" stroke-width="0" stroke-linecap="butt"><path d="M275.20957,144.79046l-70.41909,70.41909v-70.41909z" stroke="#000000"/><path d="M272.61699,147.38305h-65.23391v-17.38304h65.23391z" stroke="#000000"/><path d="M207.38307,147.38305v65.23391h-17.38304v-65.23391z" stroke="#000000"/><path d="M195.0914,159.6747c-6.7885,-6.7885 -6.7885,-17.79483 0,-24.58333c6.7885,-6.7885 17.79483,-6.7885 24.58333,0c6.7885,6.7885 6.7885,17.79483 0,24.58333c-6.7885,6.7885 -17.79483,6.7885 -24.58333,0z" stroke="none"/></g><g data-paper-data="{&quot;index&quot;:null}" fill="#cb0000" stroke-width="0" stroke-linecap="butt"><path d="M260.32532,224.90863c-6.7885,-6.7885 -6.7885,-17.79483 0,-24.58333c6.7885,-6.7885 17.79482,-6.7885 24.58332,0c6.7885,6.7885 6.7885,17.79483 0,24.58333c-6.7885,6.7885 -17.79483,6.7885 -24.58333,0z" stroke="none"/><path d="M204.79048,215.20956l70.41909,-70.41909v70.41909z" stroke="#000000"/><path d="M272.61699,212.61697v-65.23391h17.38304v65.23391z" stroke="#000000"/><path d="M272.61699,230h-65.23391v-17.38304h65.23391z" stroke="#000000"/></g><g data-paper-data="{&quot;index&quot;:null}" fill="#e61818" stroke="none" stroke-width="0" stroke-linecap="butt"><path d="M216.00258,173.38633c0,-9.60039 7.78265,-17.38304 17.38304,-17.38304c9.60039,0 17.38303,7.78265 17.38303,17.38304c0,9.60039 -7.78264,17.38304 -17.38303,17.38304c-9.60039,0 -17.38304,-7.78265 -17.38304,-17.38304z"/><path d="M229.23067,173.38633c0,-9.60039 7.78265,-17.38304 17.38304,-17.38304c9.60039,0 17.38303,7.78265 17.38303,17.38304c0,9.60039 -7.78265,17.38304 -17.38303,17.38304c-9.60039,0 -17.38304,-7.78265 -17.38304,-17.38304z"/><path d="M229.23067,186.61368c0,-9.60039 7.78265,-17.38304 17.38304,-17.38304c9.60039,0 17.38303,7.78265 17.38303,17.38304c0,9.60039 -7.78265,17.38304 -17.38303,17.38304c-9.60039,0 -17.38304,-7.78265 -17.38304,-17.38304z"/><path d="M216.00258,186.61368c0,-9.60039 7.78265,-17.38304 17.38304,-17.38304c9.60039,0 17.38303,7.78265 17.38303,17.38304c0,9.60039 -7.78264,17.38304 -17.38303,17.38304c-9.60039,0 -17.38304,-7.78265 -17.38304,-17.38304z"/></g><g data-paper-data="{&quot;index&quot;:null}" fill="#e61818" stroke="#ff0000" stroke-width="0" stroke-linecap="butt"><path d="M232.92128,203.99672v-47.99343h14.15749v47.99343z"/><path d="M263.99674,187.07875h-47.99343v-14.15749h47.99343z"/></g><path d="M284.90864,135.09137l-24.58332,24.58333c0,0 -6.7885,-17.79483 0,-24.58333c6.7885,-6.7885 17.79483,-6.7885 24.58333,0z" data-paper-data="{&quot;index&quot;:null}" fill="#ff3333" stroke="none" stroke-width="0" stroke-linecap="butt"/><path d="M284.90864,135.09136c6.7885,6.7885 6.7885,17.79483 0,24.58333c-6.7885,6.7885 -24.58333,0 -24.58333,0l24.58333,-24.58331z" data-paper-data="{&quot;index&quot;:null}" fill="#cb0000" stroke="none" stroke-width="0" stroke-linecap="butt"/><path d="M195.09103,224.90863l24.58332,-24.58333c0,0 6.7885,17.79483 0,24.58333c-6.7885,6.7885 -17.79483,6.7885 -24.58333,0z" data-paper-data="{&quot;index&quot;:null}" fill="#cb0000" stroke="none" stroke-width="0" stroke-linecap="butt"/><path d="M195.09103,224.90865c-6.7885,-6.7885 -6.7885,-17.79483 0,-24.58333c6.7885,-6.7885 24.58333,0 24.58333,0l-24.58333,24.58332z" data-paper-data="{&quot;index&quot;:null}" fill="#ff3333" stroke="none" stroke-width="0" stroke-linecap="butt"/><path d="M195.23863,224.7614l89.52279,-89.52279" data-paper-data="{&quot;index&quot;:null}" fill="none" stroke="#e61818" stroke-width="0.5" stroke-linecap="round"/></g></g></svg>