<svg version="1.1" xmlns="http://www.w3.org/2000/svg" xmlns:xlink="http://www.w3.org/1999/xlink" width="100" height="100.00001" viewBox="0,0,100,100.00001"><g transform="translate(-190,-130)"><g data-paper-data="{&quot;isPaintingLayer&quot;:true}" fill-rule="nonzero" stroke-width="0" stroke-linecap="butt" stroke-linejoin="miter" stroke-miterlimit="10" stroke-dasharray="" stroke-dashoffset="0" style="mix-blend-mode: normal"><path d="M290,230h-100v-100h100z" fill="#cdcdcd" stroke="#000000"/><g data-paper-data="{&quot;index&quot;:null}" fill="#999999"><path d="M263.99598,221.37975c0,-9.60039 7.78264,-17.38303 17.38303,-17.38303c9.60039,0 -17.38303,26.98342 -17.38303,17.38303z" data-paper-data="{&quot;index&quot;:null}" stroke="none"/><path d="M290,221.37975v8.62025h-26.00255v-8.62025z" stroke="#e61818"/><path d="M281.37975,203.99745h8.62025v26.00256h-8.62025z" stroke="#e61818"/><path d="M285.9525,203.99672v21.95652h-21.95652z" stroke="#e61818"/></g><g fill="#ffffff"><path d="M216.00402,138.62025c0,9.60039 -7.78264,17.38303 -17.38303,17.38303c-9.60039,0 17.38303,-26.98342 17.38303,-17.38303z" data-paper-data="{&quot;index&quot;:null}" stroke="none"/><path d="M190,138.62025v-8.62025h26.00255v8.62025z" stroke="#e61818"/><path d="M198.62025,156.00255h-8.62025v-26.00255h8.62025z" stroke="#e61818"/><path d="M194.0475,156.00328v-21.95652h21.95652z" stroke="#e61818"/></g></g></g></svg>