<svg version="1.1" xmlns="http://www.w3.org/2000/svg" xmlns:xlink="http://www.w3.org/1999/xlink" width="68.68001" height="110.65051" viewBox="0,0,68.68001,110.65051"><g transform="translate(-200.82488,-84.87197)"><g data-paper-data="{&quot;isPaintingLayer&quot;:true}" fill-rule="nonzero" stroke-linecap="butt" stroke-linejoin="miter" stroke-miterlimit="10" stroke-dasharray="" stroke-dashoffset="0" style="mix-blend-mode: normal"><g stroke="none" stroke-width="0.95"><path d="M222.59771,191.4868v0v0v0v0v0v0v0c0,-0.0019 -0.0019,-0.0019 -0.0009,-0.0029c0.0342,-2.8557 0.6023,-5.6667 0.8189,-8.5053c0.0988,-0.5159 0.151,-1.0118 0.1833,-1.6312c-0.0294,-0.3173 0.0314,0.1245 0.3021,-0.1909c0.2157,-0.2499 0.342,0.3011 0.7125,0.4161c0.5377,0.1729 1.5143,0.4455 2.0587,0.5738c1.2084,0.2935 2.9117,0.6716 4.1667,0.6716c2.9117,0 5.5831,-0.0313 8.4759,-0.3819c3.3658,-0.4056 5.6686,-1.3471 8.8597,-2.4396c2.5317,-0.8683 5.0834,-2.7559 7.6199,-3.6185c0.2917,0.7923 0.2746,1.7309 0.343,2.5621c0.0874,1.0792 0.2764,2.1537 0.4227,3.2262c0.3173,2.3304 0.6631,4.6484 1.2179,6.9322c-0.0342,0.0332 -0.0446,0.0798 0.0304,0.1387c0.001,0 0.001,0 0.001,0.0019c0.0066,0.0237 0.0114,0.0484 0.0171,0.0722c0.0114,0.0456 0.0608,0.0779 0.1178,0.1016c0.0332,0.0684 0.0446,0.1425 0.037,0.2223c-0.0019,0.0257 -0.0085,0.0542 -0.0114,0.0817c-0.2954,1.1894 -4.4488,3.2215 -4.7652,3.3402c-2.9649,1.1343 -6.0847,1.6274 -9.2283,1.958c-0.683,-0.6194 -0.3401,-2.6961 -0.3163,-3.4751c0.0617,-1.957 -0.2926,-3.895 -0.6194,-5.815c-0.0219,-0.1206 -0.3363,-0.2147 -0.3601,-0.0627c-0.2375,1.5656 -0.6944,3.0894 -0.9224,4.6664c-0.1254,0.8664 -0.2727,1.7271 -0.3829,2.5935c-0.0997,0.7847 -0.3657,1.5276 -0.4588,2.3047c-0.0019,0.0086 0.0095,0.0162 0.0104,0.0238c-3.8285,0.1577 -7.6133,-0.3097 -11.3886,-0.894c-0.6811,-0.1054 -1.5266,-0.1776 -2.3949,-0.3021c-0.8151,-0.1406 -1.6606,-0.3211 -2.4187,-0.5823c-0.9852,-0.3876 -1.7908,-0.989 -2.1271,-1.9855z" fill="#c0e1e1"/><path d="M258.15911,189.2229v0v0v0v0v0v0v0c0.873,1.0317 -2.167,2.7778 -2.8339,3.1616c-3.3848,1.9779 -7.6,2.4995 -11.4266,2.8928c-0.1235,0.0152 -0.2736,-0.1169 -0.2308,-0.191c-0.59,-0.6289 -0.4133,-2.0149 -0.3981,-2.7569c0.038,-1.8629 -0.1387,-3.6556 -0.4113,-5.4739c-0.0029,-0.0199 -0.0057,-0.0399 -0.0095,-0.0589c-0.0038,0.0171 -0.0057,0.0352 -0.0095,0.0542c-0.2404,1.1875 -0.5444,2.3683 -0.7268,3.5758c-0.1292,0.8654 -0.2707,1.7261 -0.3819,2.5925c-0.0988,0.779 -0.3629,1.5181 -0.455,2.2914c0.0883,0.0675 0.1292,0.1672 -0.0295,0.1748c-4.4118,0.2081 -8.702,-0.4987 -13.0558,-1.0906c-2.072,-0.2821 -5.168,-0.6165 -5.9546,-2.9355c0,-0.0019 -0.0029,-0.0038 -0.0029,-0.0057c0.0048,-0.3819 0.0228,-0.7647 0.0447,-1.1466c0.0864,-1.5257 0.2888,-3.041 0.4797,-4.5591c0.209,-1.6606 0.3971,-3.325 0.3791,-5.0046c-0.0019,-0.1748 0.3619,-0.1111 0.3638,0.0333c0.0076,0.7362 -0.0304,1.4706 -0.0864,2.2021c-0.2166,2.8386 -0.7847,5.6496 -0.8189,8.5053c0.0009,0 0.0019,0 0.0019,0.0019c0.3353,0.9966 1.1419,1.5979 2.127,1.9855c0.7448,0.2907 1.5903,0.4636 2.4187,0.5824c0.8683,0.1235 1.7138,0.1966 2.395,0.3021c3.7753,0.5842 7.561,1.0516 11.3886,0.8939c-0.001,-0.0066 -0.0114,-0.0142 -0.0105,-0.0237c0.0922,-0.7781 0.3591,-1.52 0.4589,-2.3047c0.1102,-0.8664 0.2574,-1.7271 0.3828,-2.5935c0.229,-1.577 0.685,-3.1008 0.9225,-4.6664c0.0237,-0.153 0.3391,-0.058 0.36,0.0627c0.3259,1.9199 0.6802,3.857 0.6194,5.8149c-0.0237,0.779 -0.3667,2.8557 0.3164,3.4751c3.1435,-0.3306 6.2633,-0.8246 9.2283,-1.9579c0.3163,-0.1188 4.4697,-2.1508 4.7652,-3.3402c0.0066,-0.0276 0.0085,-0.0561 0.0114,-0.0817c0.0076,-0.0798 -0.0038,-0.1539 -0.0371,-0.2223c-0.057,-0.0238 -0.1064,-0.0551 -0.1178,-0.1017c-0.0057,-0.0237 -0.0104,-0.0484 -0.0171,-0.0722c0,-0.0019 0,-0.0019 -0.0009,-0.0019c-0.0751,-0.0589 -0.0646,-0.1054 -0.0304,-0.1387c-0.5548,-2.2838 -0.9006,-4.6018 -1.2179,-6.9321c-0.1463,-1.0716 -0.3344,-2.1461 -0.4228,-3.2262c-0.0684,-0.8313 -0.0503,-1.7699 -0.3429,-2.5622c-0.0067,-0.0171 -0.0095,-0.037 -0.0162,-0.0541c-0.0731,-0.1834 0.285,-0.1615 0.3373,-0.0276c0.5747,1.4697 0.4664,3.4419 0.6811,4.997c0.3639,2.661 0.722,5.32 1.3633,7.9306z" fill="#000000"/></g><g stroke="none" stroke-width="0.95"><path d="M240.04921,124.203v0v0v0v0v0v0v0c-4.2132,0.2109 -6.6148,-2.3702 -7.4024,-3.4048l0.209,-2.736l0.0694,-0.9224c0.0598,0.0323 0.1187,0.0655 0.1795,0.095c2.3123,1.1267 5.2497,2.375 7.8584,2.4263c0.0409,0.0009 0.0694,-0.0029 0.0893,-0.0076c0.001,0 0.0019,0 0.0019,0c0.647,-0.153 1.2673,-0.4437 1.8544,-0.8009c0.0209,2.1822 1.9057,1.8848 2.3437,1.786c-0.1891,1.0384 -1.0669,3.3573 -5.2032,3.5644z" fill="#a86c35"/><path d="M232.85581,118.0622l-0.2185,2.851l-0.1947,-0.2803l-0.1216,-0.1748l0.2375,-2.7521l0.1482,-0.8911l0.2375,0.0598l-0.02,0.2651l-0.0684,0.9224" fill="#000000"/><path d="M245.34361,120.6158v0v0v0v0v0v0v0c0,0 -2.4121,0.7059 -2.4358,-1.7641c-0.0019,-0.0969 -0.0057,-0.1881 0.0009,-0.2945h0.2375c0,0 -0.2574,2.2961 2.1774,1.8411l0.0171,0.1824z" fill="#000000"/></g><g stroke="none" stroke-width="0.95"><path d="M233.65951,182.6945v0v0v0v0v0v0v0c-1.2169,0.0304 -2.4301,0.0143 -3.6242,-0.0731c-2.5299,-0.191 -5.4806,-0.7106 -7.4927,-2.4121c-0.019,-0.0171 -0.0513,-0.0294 -0.0874,-0.0408c0.1615,-0.6033 -0.0465,-1.3585 -0.0902,-1.9523c-0.0798,-1.0706 -0.0912,-2.26 0.8312,-2.9877l0.1368,-2.9146l4.0565,2.2629c3.3288,1.9969 7.0082,3.9862 10.9507,4.313c3.8437,0.3192 7.3758,-0.9016 10.7103,-2.7408c0.1795,-0.1007 -0.2632,-0.2821 -0.3838,-0.2175c-3.1673,1.7518 -6.7127,3.1188 -10.3987,2.7255c-3.8485,-0.4123 -7.315,-2.2325 -10.5887,-4.1933l-4.332,-2.4424l0.1472,-3.1341c2.1043,-3.0077 1.8012,-6.7317 1.8012,-6.7317c-0.3496,-0.7115 -0.8322,-1.3157 -1.4212,-1.7841c0.0114,-2.3237 0.2375,-4.8041 -0.3847,-7.0708c-0.4931,-1.8079 -1.0631,-3.8409 -2.0017,-5.4749c0.0295,0.0029 0.0561,0.0038 0.076,-0.0019c2.0577,-0.6336 3.1474,-2.9412 4.0024,-4.7395c0.056,-0.1226 -0.4085,-0.2765 -0.4769,-0.1283c-0.7866,1.6502 -1.7794,3.7459 -3.5692,4.5059c0.1397,-0.3563 0.2765,-0.7059 0.4123,-1.0336c0.4855,-1.1695 0.9481,-2.3551 1.4991,-3.496c0.5368,-1.1058 1.2075,-2.7284 2.4577,-3.1844c0.1786,-0.0665 -0.2575,-0.2622 -0.381,-0.2176c-0.9338,0.3392 -1.5238,1.3234 -1.9798,2.1575c-0.6678,1.2198 -1.1884,2.4994 -1.7204,3.78c-0.9918,2.376 -1.9019,5.9565 -4.5059,7.0433c-0.1092,-0.1558 -0.2232,-0.2992 -0.3144,-0.4161c-0.3582,-0.4569 -0.7467,-0.8854 -1.1448,-1.3081c-0.0921,-0.1007 -0.5652,-0.1435 -0.4398,-0.0076c0.5975,0.6422 1.7499,1.614 1.8202,2.5422c0.0513,0.6811 -0.647,0.0294 -0.8978,-0.2223c0.0152,-0.0095 0.0171,-0.0124 -0.0057,-0.0057c-0.0152,-0.0152 -0.0361,-0.0352 -0.0475,-0.0475c-0.3059,-0.3154 -0.6232,-0.5938 -0.9889,-0.8427c-0.6489,-0.4455 -1.4108,-0.6973 -2.167,-0.9044c-0.284,-0.0779 -0.3391,0.1292 -0.056,0.2052c0.798,0.2185 1.615,0.5016 2.2543,1.0488c0.3781,0.3202 0.7049,0.7496 1.1001,1.0659c0.001,0.001 0.0029,0.0038 0.0038,0.0048c-0.0095,0.0161 0.0019,0.0313 0.0361,0.0446c0.8949,0.9975 1.2046,2.4244 1.9903,3.5226c0.5538,0.779 1.159,1.5124 1.9342,2.071c-0.5985,-0.0047 -1.1913,0.0941 -1.3946,0.4769c-0.058,0.1121 0.3999,0.2765 0.4788,0.1302c0.2698,-0.5102 1.6739,-0.3515 2.0909,-0.2784c1.4944,0.2613 2.6059,1.1457 3.2661,2.4976c0.0238,0.0475 0.0969,0.0798 0.1767,0.1026c-0.0237,0.057 -0.038,0.1073 -0.038,0.1073c-0.0399,2.7246 -0.7296,4.5097 -1.1913,5.4131c0.076,-0.3353 0.1349,-0.6745 0.1729,-1.0155c0.0599,-0.5786 0.1026,-1.1742 0.0247,-1.7547c-0.0418,-0.322 -0.0646,-0.6868 -0.1102,-1.0431c-0.0399,-0.3068 -0.095,-0.6051 -0.2023,-0.8578c-0.058,-0.1425 -0.5311,-0.1957 -0.4741,-0.0703c0.1796,0.4199 0.2214,1.1941 0.285,1.6796c0.0019,0.0142 0.001,0.0285 0.0029,0.0427v0c0.0798,0.6232 0.0826,1.255 -0.0038,1.8772c-0.0903,0.6622 -0.2347,1.3177 -0.4266,1.9589c-0.0798,0.2651 -0.1662,0.5282 -0.2622,0.7876c-0.0997,0.2679 -0.208,0.5339 -0.3268,0.7932c-0.9633,2.0891 -2.8519,5.0407 -5.5499,4.6674c-0.0275,-0.0038 -0.0323,0.0047 -0.0532,0.0047c-4.3016,-0.1558 -6.7326,-5.7047 -8.5528,-8.9005c-1.2531,-2.205 -2.5137,-4.428 -4.0176,-6.479c-1.2996,-1.7699 -2.3769,-3.6547 -2.9222,-5.7988c-0.0009,-0.001 0,-0.001 0,-0.001c-0.3344,-1.6767 1.2873,-3.6565 2.1157,-4.9799c1.2027,-1.9161 2.0748,-4.0451 3.2347,-5.9983c1.4982,-2.5241 2.9289,-5.0958 4.4688,-7.5971c1.4735,-2.3883 3.0172,-4.7339 4.351,-7.2067c0,-0.001 -0.0009,-0.0019 -0.0009,-0.0019c2.5146,-5.1652 7.9828,-4.5895 12.7024,-6.0164c0.115,0.0048 0.2603,-0.076 0.2603,-0.076l3.6005,-1.0288c0.1577,0.1586 2.414,4.1173 7.9164,3.8399c5.5014,-0.2774 5.6211,-4.0774 5.6211,-4.0774l3.3896,0.4541c0.5035,0.1149 1.0023,0.2527 1.4925,0.418c0.4949,0.17 0.9832,0.361 1.4649,0.5709c0.0114,0.0048 0.0228,0.0114 0.0342,0.0162c0.4731,0.2071 0.9386,0.4313 1.3955,0.6735c0,0.001 0.001,0.001 0.001,0.001c0.1311,1.4411 0.8407,9.2663 0.9832,11.0485c-0.0589,0.0076 -0.1045,0.0294 -0.1007,0.0807c0.2461,3.3611 -0.2023,6.612 -0.5728,9.9266c-0.0038,0.0076 -0.0219,0.0104 -0.0162,0.0218c0.0038,0.0067 0.0076,0.0143 0.0114,0.0209c-0.0294,0.2622 -0.0598,0.5244 -0.0874,0.7876c-0.3562,3.363 -0.0551,6.5683 0.9301,9.8163c1.1476,3.7829 2.9174,7.2894 4.294,10.9811c0.7011,1.8762 0.7514,3.6546 -0.5852,5.2506c-0.4161,0.4959 -0.8731,0.9557 -1.3291,1.4136c-0.0114,0.0019 -0.0076,0.0105 -0.0152,0.0143c-0.5244,0.5263 -1.0507,1.0497 -1.5238,1.6226c-0.1026,0.1273 0.3525,0.2935 0.4446,0.1786c0.3857,-0.4655 0.8142,-0.9111 1.2426,-1.3538c0.4209,0.9054 1.0555,2.5128 0.4598,3.1578c-2.6628,0.5292 -4.7984,2.3731 -7.2922,3.3735c-1.9408,0.779 -3.9159,1.6615 -5.9422,2.3208c-0.5947,0.152 -1.1961,0.3202 -1.8145,0.5121c-0.6859,0.1653 -1.3766,0.3049 -2.0758,0.3876c-1.4003,0.1634 -2.831,0.3135 -4.2674,0.417c-0.019,0 -0.0389,0 -0.0589,0c-0.8407,0 -1.6425,0.0589 -2.4244,0.1235z" fill="#302d63"/><path d="M254.75811,133.7895v0v0v0v0v0v0v0c0.2403,3.2575 -0.1302,6.4429 -0.5282,9.67c-0.076,0.1786 -0.1159,0.3591 -0.1387,0.5377c-0.0276,0.2195 -0.0276,0.4389 0.0152,0.6517c-0.0323,0.3354 -0.0523,0.6679 -0.0722,0.9994c-0.0152,0.0922 -0.02,0.1862 -0.02,0.2822c-0.1444,3.0134 0.2356,5.9004 1.1362,8.8758c1.1818,3.8988 3.1797,7.4851 4.4441,11.344c0.855,2.6087 -0.6232,4.2864 -2.2268,5.947c0.3895,0.7999 1.5343,3.1635 0.4665,3.7962c-0.0599,0.0351 -0.1748,0.0133 -0.2746,-0.0238c-1.5504,0.3696 -2.7854,1.1467 -4.1496,1.9836c-1.4497,0.8892 -3.1046,1.4231 -4.674,2.0577c-3.4342,1.3918 -6.6946,2.3845 -10.3939,2.6809c-2.6942,0.2157 -5.4122,0.4418 -8.1083,0.2613c-0.361,-0.0247 -0.721,-0.057 -1.0811,-0.0969c-0.4883,-0.0542 -0.9747,-0.1207 -1.4601,-0.2081c-1.7955,-0.323 -3.8086,-0.9604 -5.2906,-2.109c-0.0351,-0.0275 -0.075,-0.0522 -0.1102,-0.0807c0,0 -0.0009,0 -0.0019,0c-0.1539,0.0028 -0.3743,-0.0903 -0.3382,-0.1834c0.2765,-0.7343 -0.0712,-1.7508 -0.0959,-2.5137c-0.0238,-0.8892 0.0655,-1.7831 0.6925,-2.4253c0.0304,-0.0295 0.0618,-0.0599 0.0941,-0.0884c0.0351,-0.0323 0.0655,-0.0674 0.1045,-0.0988l0.437,-5.4777c-0.1967,0.4978 -0.4104,0.9871 -0.6527,1.4573c-1.0307,2.0026 -2.8633,4.1677 -5.3019,3.9995c-0.0171,0.0019 -0.0314,0.0057 -0.0551,0.0057c-0.1131,-0.0009 -0.2195,-0.0161 -0.3297,-0.0237c-0.0076,0 -0.0152,-0.001 -0.0228,-0.0019c-1.3765,-0.0931 -2.5517,-0.6441 -3.5691,-1.4621c-1.7271,-1.3898 -3.0125,-3.5254 -4.104,-5.4074c-0.1226,-0.2109 -0.2423,-0.4189 -0.3601,-0.6222c-0.4693,-0.8085 -0.9329,-1.6198 -1.3984,-2.4301c-0.7068,-1.2293 -1.4278,-2.4491 -2.1888,-3.6452c-0.2945,-0.4617 -0.588,-0.9234 -0.8977,-1.3756c-1.426,-2.0824 -2.7911,-4.0289 -3.4276,-6.5255c-0.001,-0.0029 -0.0057,-0.0038 -0.0057,-0.0057c-0.3002,-1.5143 0.9576,-3.1977 1.7138,-4.4052c1.1846,-1.8981 2.0862,-3.9463 3.1996,-5.8909c1.5342,-2.6724 3.0913,-5.3438 4.6882,-7.98c1.5238,-2.5223 3.1664,-4.9714 4.5714,-7.5649c0,-0.0009 -0.0009,-0.0019 -0.0009,-0.0019c1.1628,-2.3902 3.0685,-3.838 5.585,-4.5999c2.3389,-0.7077 4.8137,-0.8008 7.1564,-1.4915c0.1054,-0.0313 0.2118,-0.057 0.3163,-0.0902l4.0423,-1.1894l0.208,0.0589c0,0 0.0998,0.1643 0.2955,0.4208c0.7875,1.0336 3.1891,3.6157 7.4024,3.4048c4.1372,-0.2071 5.015,-2.526 5.2031,-3.5644c0.0504,-0.2812 0.0542,-0.474 0.0542,-0.4987c0,0 3.0865,0.2774 3.8389,0.475l-0.0399,0.0893c0.38,0.0693 0.76,0.1672 1.1381,0.2774c1.1704,0.3401 2.3133,0.8654 3.3944,1.4601l0.2166,0.0722c0.0152,0.1264 0.0408,0.2499 0.0769,0.3715v0c-0.0019,-0.001 -0.0038,-0.0019 -0.0047,-0.0029c0.2736,1.825 0.6574,8.7543 0.7685,10.831c0.0314,0.0228 0.0618,0.0465 0.0637,0.0741zM222.54261,180.2065v0v0v0v0v0v0v0c2.0121,1.7014 4.9628,2.2211 7.4927,2.4092c1.1932,0.0902 2.4063,0.1054 3.6242,0.075c0.8275,-0.0209 1.6559,-0.0646 2.4833,-0.1235c1.4374,-0.1035 2.8671,-0.2527 4.2674,-0.417c0.6992,-0.0827 1.3899,-0.2223 2.0758,-0.3876c0.6089,-0.1482 1.2141,-0.3164 1.8145,-0.5121c2.0254,-0.6593 4.0014,-1.5418 5.9422,-2.3208c2.4938,-1.0004 4.6294,-2.8443 7.2922,-3.3735c0.5957,-0.645 -0.0389,-2.2515 -0.4598,-3.1578c-0.4294,0.4427 -0.8578,0.8883 -1.2426,1.3538c-0.0921,0.1149 -0.5472,-0.0513 -0.4446,-0.1786c0.4731,-0.5729 0.9985,-1.0973 1.5238,-1.6226c0.0076,-0.0038 0.0038,-0.0124 0.0152,-0.0143c0.456,-0.4579 0.913,-0.9177 1.3291,-1.4136c1.3366,-1.595 1.2853,-3.3734 0.5852,-5.2506c-1.3775,-3.6917 -3.1474,-7.1991 -4.294,-10.9811c-0.9861,-3.248 -1.2863,-6.4533 -0.9301,-9.8163c0.0285,-0.2632 0.058,-0.5254 0.0874,-0.7876c-0.0038,-0.0066 -0.0076,-0.0142 -0.0114,-0.0209c-0.0047,-0.0104 0.0124,-0.0133 0.0162,-0.0218c0.3705,-3.3146 0.8198,-6.5645 0.5728,-9.9266c-0.0038,-0.0513 0.0418,-0.0722 0.1007,-0.0807c-0.1425,-1.7832 -0.8521,-9.6074 -0.9832,-11.0485v0l-0.001,-0.001c-0.4569,-0.2422 -0.9224,-0.4664 -1.3955,-0.6735c-0.0114,-0.0048 -0.0228,-0.0114 -0.0342,-0.0162c-0.4807,-0.2099 -0.97,-0.4009 -1.4649,-0.5709c-0.4893,-0.1644 -0.989,-0.3031 -1.4925,-0.418l-3.3896,-0.4541c0,0 -0.1197,3.8 -5.6211,4.0774c-5.5015,0.2764 -7.7577,-3.6813 -7.9164,-3.8399l-3.6005,1.0288c0,0 -0.1453,0.0808 -0.2603,0.076c-4.7196,1.4269 -10.1887,0.8512 -12.7024,6.0164c0,0.0009 0.0009,0.0019 0.0009,0.0019c-1.3338,2.4728 -2.8775,4.8184 -4.351,7.2067c-1.5399,2.5013 -2.9706,5.073 -4.4688,7.5971c-1.159,1.9523 -2.0311,4.0812 -3.2347,5.9983c-0.8294,1.3224 -2.451,3.3022 -2.1157,4.9799c0,0.001 0,0.001 0,0.001c0.5463,2.1451 1.6236,4.0299 2.9222,5.7988c1.5039,2.051 2.7655,4.274 4.0176,6.479c1.8202,3.1958 4.2512,8.7447 8.5528,8.9005c0.0209,0 0.0257,-0.0085 0.0532,-0.0047c2.698,0.3733 4.5866,-2.5783 5.5499,-4.6674c0.1188,-0.2593 0.2271,-0.5253 0.3268,-0.7932c0.0969,-0.2594 0.1834,-0.5225 0.2622,-0.7876c0.191,-0.6412 0.3363,-1.2967 0.4266,-1.9589c0.0864,-0.6222 0.0836,-1.254 0.0038,-1.8772c-0.0019,-0.0133 -0.001,-0.0275 -0.0029,-0.0418c-0.0646,-0.4854 -0.1064,-1.2606 -0.285,-1.6796c-0.057,-0.1254 0.4152,-0.0722 0.4741,0.0703c0.1073,0.2527 0.1624,0.551 0.2023,0.8579c0.0456,0.3553 0.0684,0.721 0.1102,1.0431c0.0779,0.5814 0.0352,1.177 -0.0247,1.7546c-0.038,0.342 -0.0969,0.6802 -0.1729,1.0156c0.4617,-0.9035 1.1514,-2.6885 1.1913,-5.4131c0,0 0.0143,-0.0504 0.038,-0.1074c-0.0798,-0.0228 -0.1539,-0.0551 -0.1767,-0.1026c-0.6602,-1.3518 -1.7717,-2.2363 -3.2661,-2.4975c-0.417,-0.0732 -1.8211,-0.2318 -2.0909,0.2783c-0.0789,0.1463 -0.5377,-0.018 -0.4788,-0.1301c0.2033,-0.3829 0.7961,-0.4817 1.3946,-0.4769c-0.7752,-0.5586 -1.3804,-1.293 -1.9342,-2.071c-0.7857,-1.0982 -1.0963,-2.5261 -1.9903,-3.5226c-0.0123,-0.0143 -0.0228,-0.0304 -0.0361,-0.0447c-0.0009,-0.0009 -0.0028,-0.0038 -0.0038,-0.0047c-0.3952,-0.3164 -0.7229,-0.7458 -1.1001,-1.0659c-0.6393,-0.5472 -1.4563,-0.8303 -2.2543,-1.0488c-0.2822,-0.076 -0.228,-0.2831 0.056,-0.2052c0.7562,0.2071 1.5172,0.4588 2.167,0.9044c0.3657,0.2489 0.683,0.5272 0.9889,0.8426c0.0114,0.0114 0.0314,0.0314 0.0475,0.0475c0.0019,0.0019 0.0038,0.0038 0.0057,0.0057c0.2508,0.2518 0.9491,0.9035 0.8978,0.2223c-0.0703,-0.9281 -1.2227,-1.9 -1.8202,-2.5422c-0.1254,-0.1349 0.3477,-0.0921 0.4398,0.0076c0.3981,0.4228 0.7866,0.8512 1.1448,1.3082c0.0912,0.1178 0.2052,0.2603 0.3144,0.4161c2.604,-1.0868 3.5141,-4.6674 4.5059,-7.0433c0.532,-1.2806 1.0535,-2.5612 1.7204,-3.7801c0.456,-0.8331 1.046,-1.8183 1.9798,-2.1574c0.1235,-0.0437 0.5596,0.152 0.381,0.2175c-1.2502,0.457 -1.9219,2.0796 -2.4577,3.1844c-0.551,1.141 -1.0136,2.3275 -1.4991,3.496c-0.1349,0.3278 -0.2726,0.6774 -0.4123,1.0336c1.7889,-0.76 2.7826,-2.8557 3.5692,-4.5058c0.0684,-0.1482 0.5329,0.0057 0.4769,0.1282c-0.856,1.7974 -1.9447,4.1059 -4.0024,4.7396c-0.0199,0.0057 -0.0465,0.0047 -0.076,0.0019c0.9386,1.6349 1.5086,3.6679 2.0017,5.4748c0.6222,2.2667 0.3971,4.7472 0.3847,7.0709c0.59,0.4683 1.0726,1.0725 1.4212,1.7841c0,0 0.3031,3.723 -1.8012,6.7317l-0.1472,3.134l4.332,2.4425c3.2737,1.9608 6.7393,3.781 10.5887,4.1933c3.686,0.3933 7.2314,-0.9738 10.3987,-2.7256c0.1206,-0.0646 0.5624,0.1178 0.3838,0.2176c-3.3336,1.8392 -6.8657,3.0599 -10.7103,2.7407c-3.9425,-0.3268 -7.6219,-2.3161 -10.9507,-4.313l-4.0565,-2.2629l-0.1368,2.9146c-0.9224,0.7277 -0.911,1.9171 -0.8312,2.9878c0.0446,0.5937 0.2517,1.349 0.0902,1.9522c0.0361,0.0114 0.0684,0.0238 0.0874,0.0409zM217.68051,153.6644v0v0v0v0v0v0v0c-0.0741,0.2575 -0.3296,0.305 -0.5842,0.2689c0.4645,0.626 0.7182,1.3452 1.0478,2.071c0.5425,1.196 1.5884,2.5469 2.7018,3.2784c0.3439,0.0295 0.6574,0.077 0.8503,0.1112c0.6232,0.1092 1.1941,0.3306 1.7033,0.6431c0.0181,-2.2743 0.1492,-4.5818 -0.3857,-6.8096c-0.2536,-1.0469 -0.6536,-2.0558 -1.0383,-3.0571c-0.2613,-0.6897 -0.4351,-1.3357 -0.7448,-1.9855c-0.7733,1.9019 -1.7642,3.8855 -3.6822,4.6028c-0.0171,0.0066 -0.039,0.0076 -0.0637,0.0066c0.1644,0.286 0.2736,0.5928 0.1957,0.8702z" fill="#010101"/></g><g stroke="none" stroke-width="0.95"><path d="M243.92521,119.5946v0v0v0v0v0v0v0c0.1425,-0.1862 -0.3097,-0.3677 -0.4398,-0.2071c-0.039,0.0484 -0.0722,0.1007 -0.1083,0.1501c0.0028,-0.0323 0.0019,-0.1283 0.0019,-0.096c0.0047,0.6783 -0.589,-0.7267 -0.0836,-0.93l0.0171,-0.0105c0.0285,0.0228 0.0522,0.0485 0.1016,0.0608c1.7195,0.4456 3.6946,1.0621 5.1072,2.2031c-1.3081,2.8737 -2.8661,5.7522 -3.8342,8.7666c-0.8037,-0.856 -1.596,-1.7243 -2.3959,-2.5859c-0.4104,-0.4408 -0.8198,-0.8816 -1.2397,-1.3129c-0.6061,-0.6251 -0.875,-0.9006 -0.1824,-1.6131c0.5348,-0.5482 0.9633,-1.1742 1.3661,-1.8202c0.0741,-0.1188 0.1482,-0.2366 0.2204,-0.3563c0.4655,-0.7666 0.9129,-1.5475 1.4696,-2.2486z" fill="#c0e1e1"/><path d="M233.74791,128.0068v0v0v0v0v0v0v0c-0.0779,-0.1111 -0.1625,-0.2118 -0.3164,-0.2869c-0.0085,-0.0047 -0.0152,-0.0104 -0.0237,-0.0142c-0.703,-0.6118 -1.3813,-1.2426 -1.9589,-1.9437c-0.3658,-0.4465 -3.4476,-4.1354 -2.8738,-4.5828c0.0143,-0.0095 0.0285,-0.0171 0.038,-0.0314c0.9301,-1.3471 2.509,-2.2068 3.9045,-3.0314c0.0067,0.0085 0.0133,0.0171 0.02,0.0256c0.2213,0.3059 0.456,0.6023 0.7011,0.8902c0.3505,0.4113 0.7172,0.8103 1.1067,1.1884c0.0903,0.0874 0.1843,0.1691 0.2755,0.2546c1.1638,1.0897 2.4567,2.0549 3.7468,2.9479c0.6859,0.4778 1.4839,0.7381 0.9367,1.6482c-0.3933,0.6498 -0.7866,1.3025 -1.159,1.9665c-0.5975,1.0678 -0.9709,2.2534 -1.6292,3.2842c-0.8854,-0.7857 -1.8459,-1.5333 -2.7683,-2.3152z" fill="#c0e1e1"/><path d="M249.02961,120.7992v0v0v0v0v0v0v0c-0.0019,0.0076 0.0076,0.0123 0.0019,0.0199c-1.3642,3.0049 -3.0172,6.0126 -3.9815,9.177c-0.0066,0.0257 -0.0294,0.0456 -0.0608,0.0599c-0.1016,0.0788 -0.3002,0.0437 -0.3828,-0.0589c-1.0213,-1.0688 -2.0102,-2.166 -3.0153,-3.2519c-0.457,-0.4921 -1.4108,-1.1115 -1.634,-1.824c-0.6061,0.988 -1.2208,1.976 -1.7395,3.0106c-0.4759,0.9452 -0.7742,1.9361 -1.3879,2.812c-0.096,0.1368 -0.3259,0.0456 -0.4161,-0.039c-2.0131,-1.842 -4.295,-3.4437 -5.9831,-5.6012c-0.4009,-0.5092 -2.9165,-3.3943 -2.2696,-4.1334c0.0048,-0.0095 0.0038,-0.019 0.0105,-0.0295c1.0022,-1.4506 2.7255,-2.3446 4.2047,-3.2262c0.1387,-0.0826 0.3287,-0.0161 0.4132,0.1083c0.0019,0.0029 0.0038,0.0057 0.0057,0.0086c1.8639,2.716 4.6693,4.4365 7.2523,6.3716c0.1663,-0.2337 0.4342,-0.4436 0.5871,-0.5975c0.3886,-0.4 0.6945,-0.8921 0.9994,-1.3557c0.494,-0.7619 0.9329,-1.5608 1.4488,-2.3094c0.095,-0.1368 0.1938,-0.2698 0.2926,-0.4028c0.0361,-0.0494 0.0693,-0.1017 0.1083,-0.1501c0.1301,-0.1615 0.5823,0.0209 0.4398,0.2071c-0.5567,0.702 -1.0041,1.482 -1.4696,2.2486c-0.0722,0.1188 -0.1463,0.2375 -0.2204,0.3563c-0.4019,0.646 -0.8313,1.272 -1.3661,1.8202c-0.6926,0.7125 -0.4247,0.988 0.1824,1.6131c0.4208,0.4313 0.8293,0.8721 1.2397,1.3129c0.799,0.8616 1.5913,1.7309 2.3959,2.5859c0.9671,-3.0153 2.5261,-5.8929 3.8342,-8.7666c-1.4126,-1.141 -3.3877,-1.7566 -5.1072,-2.2031c-0.0484,-0.0123 -0.0731,-0.038 -0.1016,-0.0608c-0.1444,-0.113 -0.0608,-0.3106 0.1871,-0.2479c0.3021,0.0779 0.6118,0.1643 0.9234,0.2546c0.0798,0.0228 0.1596,0.0465 0.2394,0.0703c1.5276,0.456 3.1113,1.0773 4.2902,2.0738c0.0057,0.0048 0.0067,0.0086 0.0114,0.0133c0.0266,0.0181 0.0409,0.0361 0.0532,0.0599c0.0152,0.0275 0.0181,0.0522 0.0143,0.0741zM231.44891,125.7601v0v0v0v0v0v0v0c0.5785,0.7011 1.2559,1.3328 1.9589,1.9427c0.1149,0.0998 0.2242,0.2033 0.3401,0.3021c0.9224,0.7819 1.8829,1.5295 2.7683,2.3152c0.6583,-1.0308 1.0317,-2.2164 1.6292,-3.2842c0.3724,-0.664 0.7657,-1.3157 1.159,-1.9665c0.5472,-0.9101 -0.2498,-1.1704 -0.9367,-1.6482c-1.2901,-0.894 -2.5821,-1.8592 -3.7468,-2.9479c-0.0912,-0.0855 -0.1852,-0.1672 -0.2755,-0.2546c-0.3895,-0.3781 -0.7562,-0.7771 -1.1067,-1.1884c-0.2461,-0.2879 -0.4798,-0.5843 -0.7011,-0.8902c-0.0067,-0.0085 -0.0133,-0.0171 -0.02,-0.0256c-1.3955,0.8246 -2.9744,1.6853 -3.9045,3.0314c-0.0095,0.0143 -0.0237,0.0219 -0.038,0.0314c-0.5747,0.4474 2.508,4.1372 2.8738,4.5828z" fill="#000000"/></g><g><g stroke="none" stroke-width="0.95"><path d="M249.78771,103.1216v0v0v0v0v0v0v0c0.7229,-0.3173 1.1096,-0.2176 1.1618,0.2973c0.0409,0.2423 0.0618,0.4864 0.0589,0.7325c-0.0247,0.4826 -0.0874,0.9538 -0.2517,1.4126c-0.1919,0.5339 -0.4218,1.0526 -0.6451,1.5723c-0.0247,-0.9282 -0.1396,-1.8592 -0.3391,-2.7778c0.0038,-0.0086 0.0218,-0.0095 0.0199,-0.0209c-0.056,-0.3734 -0.0532,-0.7866 -0.0247,-1.2075c0.0038,-0.0047 0.0171,-0.0028 0.02,-0.0085z" fill="#a86c35"/><path d="M245.89931,115.824v0v0v0v0v0v0v0c-0.4702,0.4845 -0.9557,0.9519 -1.4677,1.3756c-1.1001,0.9063 -2.3095,1.8962 -3.7212,2.243c-2.4747,-0.0637 -5.4283,-1.2958 -7.5848,-2.4244c-2.7008,-1.4079 -5.0103,-3.4172 -6.0258,-6.3631c-0.019,-0.0542 -0.1112,-0.0903 -0.2071,-0.1121c-0.0067,-0.0257 -0.0171,-0.0551 -0.0228,-0.0798c0.076,-0.095 0.151,-0.191 0.2204,-0.2936c0.0503,-0.0712 -0.3895,-0.2565 -0.475,-0.1282c-0.5824,0.8607 -1.3348,1.2929 -2.3836,0.4816c-0.3762,-0.2878 -0.7628,-0.5709 -1.0887,-0.9158c-0.5434,-0.5757 -1.0763,-1.2492 -1.2739,-2.0387c-0.2527,-1.0089 0.1121,-3.9206 1.4592,-4.18c0.018,-0.0038 0.0361,-0.0076 0.0551,-0.0104c0.3125,-0.0428 0.6754,0.0522 1.0953,0.3458c0.0979,0.0665 0.5776,0.1121 0.3743,-0.0285c-0.0883,-0.0608 -0.171,-0.0979 -0.2555,-0.1473c-0.8702,-9.5038 0.8227,-17.7289 14.9245,-16.7789c13.6505,0.9206 10.6609,12.8782 10.4234,13.7532c-0.0019,0.0028 -0.0105,0.0009 -0.0124,0.0047c-0.5035,0.95 -0.7286,2.2753 -0.6355,3.3896c-0.0418,0.0086 -0.0675,0.0266 -0.0599,0.0589c0.7173,3.0229 0.6517,6.5427 -1.1495,9.1865c-0.4389,0.6413 -0.9291,1.2626 -1.4487,1.8601c-0.2508,0.2622 -0.4969,0.5292 -0.7401,0.8018z" fill="#a86c35"/><g fill="#000000"><path d="M251.25451,103.0209v0v0v0v0v0v0v0c0.7885,1.8021 -0.5197,3.6366 -1.0916,5.2981c-0.0085,0.0257 -0.0437,0.0333 -0.0788,0.0399c-0.1264,1.8535 -0.6527,3.6556 -1.7414,5.2516c-0.9538,1.4032 -2.1935,2.6458 -3.4646,3.7582c-0.4608,0.4028 -0.9605,0.8104 -1.4906,1.1752c0.0067,0.0028 0.0124,0.0076 0.0209,0.0104c-0.171,0.0722 -0.323,0.1634 -0.4588,0.2736c-0.5995,0.3686 -1.2341,0.6688 -1.8972,0.8256c-0.0009,0 -0.0019,0 -0.0019,0c-0.0199,0.0057 -0.0494,0.0085 -0.0893,0.0076c-2.6087,-0.0513 -5.5451,-1.2996 -7.8584,-2.4263c-0.0997,-0.0485 -0.1938,-0.1045 -0.2926,-0.1549c0.001,0.0038 0.0019,0.0076 0.0029,0.0114c-0.1292,-0.0902 -0.2736,-0.1624 -0.4304,-0.2213c0.0076,-0.0019 0.0124,-0.0048 0.02,-0.0057c-2.5413,-1.3823 -4.7234,-3.3972 -5.7247,-6.1684c-0.4456,0.475 -1.0013,0.7619 -1.7148,0.4807c-1.2844,-0.5044 -2.4263,-1.595 -3.1521,-2.7455c-1.2302,-1.9437 -0.0997,-5.8567 2.2449,-5.1262c0.0845,0.0266 0.1662,0.0437 0.2536,0.0827c-0.1406,-1.0013 -1.4183,-11.0181 3.2899,-14.2111c2.716,-1.8411 5.3352,-2.7474 8.2555,-2.926c2.261,-0.1377 4.7053,0.1625 7.5126,0.8094c0.1871,0.0437 0.3705,0.0827 0.5605,0.1283c6.7393,1.633 7.676,9.6833 6.4951,13.4216c0,0 -0.0104,0.0095 -0.0266,0.0228c0.0019,0.0076 0.0181,0.0171 0.0143,0.0237c-0.286,0.5396 -0.4845,1.2132 -0.5881,1.8972c0.0219,-0.0095 0.0494,-0.0095 0.0722,-0.0171c0.5007,-0.172 1.1277,-0.0485 1.3595,0.4845zM248.08911,113.1621v0v0v0v0v0v0v0c1.8002,-2.6438 1.8667,-6.1645 1.1495,-9.1855c-0.0076,-0.0323 0.0171,-0.0504 0.0598,-0.0589c-0.0931,-1.1144 0.1321,-2.4396 0.6356,-3.3896c0.0019,-0.0038 0.0104,-0.0019 0.0123,-0.0048c0.2375,-0.8749 3.2281,-12.8335 -10.4234,-13.7531c-14.1008,-0.9491 -15.7947,7.276 -14.9245,16.7789c0.0855,0.0494 0.1682,0.0864 0.2556,0.1472c0.2023,0.1406 -0.2765,0.0941 -0.3743,0.0285c-0.4199,-0.2926 -0.7828,-0.3885 -1.0954,-0.3458c-0.019,0.0029 -0.037,0.0076 -0.0551,0.0105c-1.3471,0.2593 -1.7119,3.1711 -1.4592,4.18c0.1976,0.7894 0.7306,1.463 1.274,2.0387c0.3258,0.3448 0.7125,0.6279 1.0887,0.9158c1.0478,0.8103 1.8002,0.38 2.3816,-0.4798c0,-0.0009 -0.0009,-0.0009 -0.0009,-0.0019c0.3809,-1.0098 -1.3129,-0.6241 -1.8516,-0.6906c-0.8388,-0.0998 -1.5779,-0.4912 -1.9199,-1.293c-0.0428,-0.0997 0.4142,-0.0541 0.4731,0.0779c0.6118,1.426 1.918,0.8085 3.0685,0.8921c0.5747,0.0408 0.9424,0.5149 0.7068,1.1409c-0.0694,0.1026 -0.1444,0.1986 -0.2204,0.2936c-0.0162,0.0199 -0.0304,0.0418 -0.0466,0.0617c0.0238,0.0029 0.0456,0.0124 0.0694,0.0181c0.0959,0.0218 0.1881,0.0579 0.2071,0.1121c1.0165,2.945 3.325,4.9552 6.0258,6.3631c2.1565,1.1295 5.111,2.3607 7.5848,2.4244c1.4117,-0.3468 2.622,-1.3357 3.7212,-2.243c0.513,-0.4237 0.9984,-0.8911 1.4687,-1.3756c0.2536,-0.2612 0.5016,-0.5263 0.74,-0.8018c0.5187,-0.5966 1.0099,-1.2179 1.4488,-1.8601zM250.75571,105.565v0v0v0v0v0v0v0c0.1644,-0.4598 0.228,-0.9301 0.2508,-1.4136c0.0029,-0.2451 -0.0171,-0.4893 -0.0589,-0.7325c-0.0513,-0.5139 -0.4379,-0.6137 -1.1609,-0.2964c-0.0019,0.0057 -0.0152,0.0038 -0.0199,0.0086c-0.0295,0.4208 -0.0323,0.8341 0.0247,1.2074c0.0019,0.0114 -0.0152,0.0124 -0.02,0.0209c0.1995,0.9187 0.3145,1.8497 0.3392,2.7778c0.2242,-0.5196 0.4531,-1.0383 0.645,-1.5722z"/><path d="M222.21391,105.7369v0v0v0v0v0v0v0c0.0485,-0.9329 1.0887,-1.0972 1.8411,-0.9091c1.2493,0.3173 1.7566,1.5741 2.6344,2.3987c0.114,0.1083 -0.3449,0.0599 -0.4351,-0.0237c-0.5995,-0.5634 -1.026,-1.274 -1.6036,-1.8544c-0.628,-0.6289 -1.9114,-0.4712 -1.9599,0.5177c-0.0057,0.1026 -0.4835,0.0171 -0.4769,-0.1292z"/></g></g><path d="M243.12911,111.4284v0v0v0v0v0v0v0c0.3363,0.3686 0.5016,0.6745 0.5672,1.1751c0.0095,0.0703 -0.0428,0.1026 -0.1017,0.1245c-0.6108,0.2194 -1.2302,0.4142 -1.8515,0.6032c0.3429,0.2793 0.7077,0.5254 1.0146,0.8484c0.0589,0.0617 0.0646,0.133 -0.0095,0.1852c-0.2765,0.1967 -0.551,0.3962 -0.8275,0.5938c-0.2555,0.1833 -0.6051,0.2812 -0.455,0.6431c0.1016,0.2461 -0.4028,0.2024 -0.475,0.0285c-0.0599,-0.1396 -0.0808,-0.2793 -0.0988,-0.4313c-0.0048,-0.0465 0.0161,-0.0788 0.0551,-0.1035c0.437,-0.2879 0.8588,-0.6004 1.2844,-0.9073c-0.2774,-0.2669 -0.5881,-0.494 -0.8864,-0.7362c-1.0754,0.323 -2.1555,0.6308 -3.2214,0.9899c-0.0314,0.0104 -0.076,0.0114 -0.1254,0.0057c-0.0504,0.0133 -0.0998,0.0228 -0.1492,0.038c-0.1282,0.037 -0.4322,-0.038 -0.4028,-0.2176c0,-0.0019 0,-0.0028 0,-0.0047c0.0095,-0.0637 0.0732,-0.0846 0.1473,-0.0893c0.075,-0.0219 0.1491,-0.0437 0.2261,-0.058c0.0256,-0.0047 0.0608,-0.0057 0.0969,-0.0047c0.9424,-0.3145 1.8933,-0.5947 2.8471,-0.8693c0.4627,-0.133 0.9244,-0.2736 1.3832,-0.4189c0.7657,-0.2404 1.3861,-0.3952 0.571,-1.2863c-0.209,-0.2252 0.2821,-0.248 0.4113,-0.1083z" fill="#010101" stroke="none" stroke-width="0.95"/><g fill="#000000" stroke="none" stroke-width="0.95"><path d="M237.67801,110.9116v0v0v0v0v0v0v0c-0.1244,0.0769 -0.5367,-0.1159 -0.4512,-0.1729c0.4113,-0.2584 0.874,-0.2822 1.3271,-0.4313c0.0988,-0.0333 0.4218,0.094 0.419,0.1662c0.6811,0.1197 1.2777,0.4038 2.0045,0.3914c0.8407,-0.0152 1.6435,-0.6821 1.7907,-1.4991c0.0219,-0.1187 0.5007,-0.0076 0.4769,0.1264c-0.1444,0.8027 -0.8987,1.4601 -1.71,1.5542c-0.9234,0.1083 -1.6539,-0.2451 -2.5355,-0.3848c-0.0874,-0.0133 -0.1701,-0.0646 -0.2166,-0.1121c-0.3781,0.1017 -0.7667,0.1454 -1.1049,0.362z"/><path d="M238.84081,108.8662v0v0v0v0v0v0v0c-0.113,0.0447 -0.5472,-0.1349 -0.3876,-0.1976c1.3709,-0.5367 2.7826,-0.7296 4.1981,-0.266c0.323,0.1064 0.0199,0.1948 -0.172,0.1321c-1.2188,-0.4 -2.4785,-0.1235 -3.6385,0.3315z"/></g><g><path d="M236.35661,104.6416c-0.057,0.0047 -0.0998,0.0104 -0.1549,0.037c-0.1121,0.5662 -1.5532,1.0099 -2.0083,1.1334c-0.8816,0.2403 -1.9864,0.1235 -2.8851,-0.0789c-0.6679,-0.1472 -1.2635,-0.4218 -1.3728,-1.1837c-0.0684,-0.4702 0.1872,-0.8892 0.4484,-1.2502c0.8493,-1.1704 2.1442,-2.0339 3.5891,-1.3518c0.5748,0.2679 1.0944,0.5842 1.3908,1.1181c0.3249,0.5767 0.8845,0.9918 1.0298,1.6739" fill="#ffffff" stroke="none" stroke-width="0.95"/><path d="M236.08771,104.9855v0v0v0v0v0v0v0v0c-0.4712,-1.3348 -1.2844,-3.2918 -3.0124,-3.1322c-0.8094,0.0741 -1.5428,0.6147 -2.1176,1.1448c-0.9167,0.8379 -1.3119,2.0387 0.4009,2.5536c1.4117,0.4237 3.5008,0.0617 4.7757,-0.6365c0.1187,-0.0637 0.5614,0.1149 0.3828,0.2137c-1.5618,0.855 -3.7943,1.0517 -5.4948,0.5415c-0.6165,-0.1843 -1.0801,-0.5728 -1.3091,-1.1723c-0.2346,-0.608 0.1824,-1.0298 0.5653,-1.4449c0.7647,-0.8256 1.9693,-1.6122 3.1473,-1.4374c1.7651,0.2632 2.5945,1.9086 3.1369,3.44c0.0513,0.1349 -0.4218,0.0722 -0.475,-0.0703z" fill="#000000" stroke="none" stroke-width="0.95"/><path d="M234.03101,102.2067c0.2878,0 0.5481,0.1169 0.7372,0.3059c0.189,0.1891 0.3059,0.4494 0.3059,0.7372c0,0.2879 -0.1169,0.5482 -0.3059,0.7372c-0.1891,0.1891 -0.4494,0.3059 -0.7372,0.3059c-0.2879,0 -0.5482,-0.1168 -0.7372,-0.3059c-0.1891,-0.189 -0.3059,-0.4493 -0.3059,-0.7372c0,-0.2878 0.1168,-0.5481 0.3059,-0.7372c0.189,-0.189 0.4493,-0.3059 0.7372,-0.3059v0v0v0v0v0z" fill="#42210b" stroke="#010101" stroke-width="0.23693"/></g><path d="M230.46941,100.8957v0v0v0v0v0v0v0c-0.0532,0.1292 -0.5215,-0.0209 -0.4778,-0.1273c0.9139,-2.3094 3.6841,-2.4738 5.795,-2.0045c0.2859,0.0646 0.2337,0.2337 -0.0466,0.172c-1.9684,-0.4361 -4.4365,-0.1444 -5.2706,1.9598z" fill="#000000" stroke="none" stroke-width="0.95"/><g><path d="M248.12711,102.8385c0,0.0104 0,0.0199 0,0.0323c0,0.6194 -0.4076,1.0393 -0.9994,1.3252c-0.7638,0.3734 -1.1923,0.5225 -2.0416,0.5634c-0.8493,0.0427 -1.6359,0.0636 -2.4339,-0.1748c-0.3724,-0.1093 -0.3914,-0.1463 -0.3553,-0.5206c0.0314,-0.3183 0.1454,-0.4855 0.285,-0.7724c0.133,-0.2726 0.153,-0.6004 0.324,-0.8398c0.1501,-0.2166 0.0988,-0.5396 0.2802,-0.7324c0.4551,-0.4883 1.0754,-0.6356 1.7613,-0.6536c0.6061,-0.0152 1.3262,0.0646 1.8221,0.3857c0.3525,0.2261 1.4497,0.8702 1.425,1.4174" fill="#ffffff" stroke="none" stroke-width="0.95"/><path d="M242.04521,104.4677v0v0v0v0v0v0v0v0c0.2546,-1.5038 0.7818,-3.3212 2.5023,-3.6233c0.9994,-0.1776 2.0548,0.3259 2.8576,0.8598c0.3277,0.2185 0.6431,0.4835 0.8911,0.7885c0.4854,0.5975 -0.3563,1.5665 -0.8341,1.805c-1.5238,0.7628 -3.6556,0.8673 -5.2649,0.3163c-0.3173,-0.1092 -0.0219,-0.2308 0.1786,-0.1605c1.4516,0.493 3.5872,0.3306 4.8944,-0.4931c1.2454,-0.7828 0.3952,-1.8107 -0.4456,-2.3389c-0.7723,-0.4854 -1.6834,-0.7486 -2.5536,-0.3724c-1.2074,0.5263 -1.5542,2.1993 -1.748,3.345c-0.0228,0.1396 -0.5035,0.0266 -0.4778,-0.1264z" fill="#000000" stroke="none" stroke-width="0.95"/><path d="M246.12071,101.3251v0v0v0v0v0v0v0c0.5766,0.02 1.025,0.5054 1.0041,1.0821c-0.0209,0.5776 -0.5073,1.026 -1.083,1.006c-0.5766,-0.0228 -1.0269,-0.5092 -1.0022,-1.0849c0.0199,-0.5757 0.5044,-1.026 1.0811,-1.0032z" fill="#42210b" stroke="#010101" stroke-width="0.23693"/></g><path d="M243.02651,98.6632v0v0v0v0v0v0v0c-0.1159,0.0418 -0.55,-0.1377 -0.3904,-0.1985c2.0833,-0.7838 4.9324,-0.8702 6.1873,1.3148c0.0466,0.0807 -0.4009,0.0475 -0.4731,-0.0779c-1.1105,-1.9342 -3.5093,-1.7233 -5.3238,-1.0384z" fill="#000000" stroke="none" stroke-width="0.95"/><g stroke="none" stroke-width="0.95"><path d="M250.93431,99.0261v0v0v0v0v0v0v0c0.0019,0.8968 0.0561,1.9836 -0.5092,2.7294c-0.2213,0.2907 -0.4607,0.5567 -0.6688,0.8455l-0.0921,0.0959c0.0484,-0.1491 0.1976,-0.9566 0.3325,-1.9864c0.1301,0.1035 0.4075,0.0931 0.4265,-0.1036c0.2347,-3.381 0.0817,-7.9429 -3.2233,-9.9075c-0.8854,-0.5292 -1.8715,-0.8123 -2.888,-0.9462c-1.5799,-0.2071 -3.1749,-0.4323 -4.7633,-0.5102c-2.9298,-0.1434 -6.1266,-0.1358 -8.8635,1.0479c-1.7908,0.7752 -3.9672,2.1061 -4.8213,3.9425c-0.8455,1.8097 -1.3632,4.3871 -0.6004,6.3175c0.4617,1.1713 1.0298,2.3512 1.5637,3.4931c0.1872,0.4104 0.495,0.7904 0.6555,1.2075c0.1853,0.4892 -0.2926,0.835 -0.703,1.0963c-0.4883,-1.026 -0.9984,-1.9485 -1.7651,-2.8196c-0.0484,-0.0561 -0.1282,-0.0808 -0.2071,-0.0846c-0.0133,-0.0228 -0.0285,-0.0456 -0.0551,-0.0693c-0.6298,-0.5767 -1.1371,-1.2588 -1.5314,-2.0169c0.0048,-0.0142 0.0209,-0.018 0.0219,-0.0351c0.0047,-0.1359 -0.038,-0.229 -0.1387,-0.3202c-0.1473,-0.1292 -0.1957,-0.3771 -0.2451,-0.5576c-0.0855,-0.323 -0.1083,-0.627 -0.2974,-0.8968c-0.095,-0.4294 -0.1548,-0.8636 -0.1881,-1.3006c0.0133,-0.0275 0.0086,-0.0598 -0.0095,-0.0959c-0.0009,-0.0247 -0.0057,-0.0485 -0.0066,-0.0722c-0.0057,-0.0779 -0.0694,-0.1264 -0.1444,-0.1596c-0.1862,-0.4028 0.1548,-0.8142 0.2384,-1.2445c0.0124,-0.0589 -0.0085,-0.1112 -0.0465,-0.152c0.0579,-0.5159 0.151,-1.0241 0.2774,-1.5276c0.0304,-0.0095 0.0579,-0.0247 0.0798,-0.0475c0.2669,-0.2869 0.1681,-0.6489 0.2242,-1.0013c0.0636,-0.3952 0.4132,-0.6327 0.4949,-1.0222c0.0076,-0.0333 -0.0142,-0.058 -0.0247,-0.0855c0.2404,-0.5064 0.5064,-0.9966 0.8104,-1.4687c0.0114,-0.0171 0.0133,-0.0342 0.0171,-0.0513c0.0788,-0.0703 0.1463,-0.1511 0.1596,-0.2584c0.0209,-0.1368 -0.0086,-0.2841 0.019,-0.419c0.0788,-0.4028 0.6365,-0.6498 0.9699,-0.8198c0.0266,-0.0133 0.0428,-0.0295 0.0589,-0.0456c0,-0.001 0.001,-0.001 0.001,-0.001v0c0.0066,-0.0066 0.0133,-0.0123 0.018,-0.018c0.4484,-0.494 0.9424,-0.9386 1.4706,-1.3462c0.1406,0.0447 0.3126,0.0152 0.3116,-0.1434c-0.0057,-1.1058 1.5172,-1.0859 2.2876,-1.3063c0.0941,-0.0275 0.1178,-0.0788 0.1045,-0.1339c0.5738,-0.2508 1.1562,-0.4712 1.7528,-0.6555c0.1092,0.0465 0.2527,0.0503 0.3268,-0.0333c0.5605,-0.6251 1.2236,-0.7619 2.013,-0.5158c0.0095,0.0038 0.0143,-0.0019 0.0238,0c0.0076,-0.001 0.0133,0.0047 0.0209,0.0038c0.0133,-0.0019 0.0266,-0.0029 0.0399,-0.0048c0.0399,0 0.0788,0.0029 0.1064,-0.0133c0.7096,-0.1016 1.4202,-0.1757 2.1375,-0.2194c0.0247,-0.001 0.0256,-0.0152 0.0446,-0.02c0.0276,0.0124 0.0504,0.0333 0.0855,0.0352c0.5007,0.0313 0.9852,0.0199 1.4811,-0.0532c0.5776,-0.0855 1.2511,-0.2062 1.8012,0.0617c0.0114,0.0019 0.0171,0.0114 0.0294,0.0124c0.0038,0 0.0067,0.0009 0.0105,0.0009c0.0703,0.038 0.1377,0.0371 0.1966,0.019c0.4437,0.0352 0.8873,0.0741 1.3291,0.1254c0.0665,0.0076 0.1045,-0.0104 0.1387,-0.0313c0.094,0.0475 0.2118,0.0646 0.2916,0.0123c0.6365,-0.4113 1.5495,0.2195 2.1983,0.3629c0.0152,0.0029 0.0219,-0.0047 0.0361,-0.0038c0.0105,0.0029 0.0162,0.0124 0.0285,0.0133c0.78,0.0827 2.1375,0.1311 2.5137,0.9605c0.058,0.1292 0.2689,0.1719 0.3895,0.1225c0.78,0.1748 1.2797,0.8693 1.6692,1.5238c0.0057,0.0095 0.0161,0.0171 0.0247,0.0266c0.0019,0.0304 0.0123,0.0627 0.0456,0.1017c0.4522,0.5301 0.9737,1.0526 1.1134,1.7613c0.0133,0.0655 0.0655,0.1111 0.1282,0.1444c0.7021,0.7258 1.5181,1.7822 1.0783,2.8243c-0.0513,0.0342 -0.076,0.0884 -0.039,0.1682c0.4247,0.9224 0.5168,2.0558 0.2385,3.0324c-0.0057,0.019 0.0114,0.0313 0.0123,0.0494c-0.0541,0.0342 -0.0826,0.0893 -0.0465,0.1729c0.2688,0.6203 0.3296,1.4259 0.0123,2.0415c-0.0332,0.0646 -0.0171,0.1226 0.0171,0.1729z" fill="#301113"/><path d="M251.37041,96.7651v0v0v0v0v0v0v0c0.2869,0.6793 0.3277,1.4915 0.0323,2.1755c0.0038,0.0143 0.0199,0.0219 0.0199,0.0371c-0.0009,0.8597 0.0162,1.7746 -0.3182,2.5849c-0.2632,0.6375 -0.8807,1.0422 -1.1685,1.6682c-0.1007,0.2204 -0.5757,0.0855 -0.4769,-0.1301c0.0836,-0.1796 0.189,-0.3401 0.3011,-0.4969c0.2081,-0.2888 0.4475,-0.5548 0.6688,-0.8455c0.5653,-0.7486 0.5102,-1.8344 0.5083,-2.7312c-0.0352,-0.0504 -0.0504,-0.1083 -0.0171,-0.1729c0.3173,-0.6156 0.2555,-1.4212 -0.0124,-2.0416c-0.0361,-0.0836 -0.0076,-0.1387 0.0466,-0.1729c-0.001,-0.0171 -0.0181,-0.0304 -0.0124,-0.0494c0.2784,-0.9766 0.1862,-2.109 -0.2384,-3.0324c-0.0371,-0.0807 -0.0124,-0.1339 0.0389,-0.1681c0.4399,-1.0422 -0.3771,-2.0986 -1.0782,-2.8244c-0.0637,-0.0332 -0.115,-0.0798 -0.1283,-0.1444c-0.1406,-0.7096 -0.6612,-1.2312 -1.1134,-1.7613c-0.0332,-0.038 -0.0437,-0.0712 -0.0456,-0.1016c-0.0076,-0.0086 -0.018,-0.0162 -0.0247,-0.0266c-0.3895,-0.6555 -0.8892,-1.349 -1.6691,-1.5238c-0.1207,0.0494 -0.3306,0.0066 -0.3895,-0.1226c-0.3762,-0.8293 -1.7347,-0.8778 -2.5137,-0.9604c-0.0114,-0.0019 -0.0171,-0.0114 -0.0285,-0.0133c-0.0143,-0.001 -0.0209,0.0066 -0.0361,0.0038c-0.6479,-0.1444 -1.5609,-0.7752 -2.1983,-0.3629c-0.0798,0.0522 -0.1976,0.0342 -0.2917,-0.0124c-0.0332,0.0209 -0.0722,0.039 -0.1387,0.0314c-0.4417,-0.0513 -0.8854,-0.0903 -1.329,-0.1254c-0.0589,0.0171 -0.1264,0.019 -0.1967,-0.019c-0.0038,0 -0.0066,-0.001 -0.0104,-0.001c-0.0114,-0.0009 -0.0181,-0.0104 -0.0295,-0.0123c-0.551,-0.2679 -1.2236,-0.1473 -1.8012,-0.0618c-0.4968,0.0732 -0.9813,0.0846 -1.481,0.0532c-0.0352,-0.0019 -0.057,-0.0228 -0.0855,-0.0351c-0.0181,0.0047 -0.02,0.019 -0.0447,0.0199c-0.7172,0.0428 -1.4278,0.1169 -2.1375,0.2195c-0.0275,0.0161 -0.0665,0.0133 -0.1064,0.0133c-0.0133,0.0019 -0.0266,0.0028 -0.0399,0.0047c-0.0076,0.001 -0.0133,-0.0038 -0.0209,-0.0038c-0.0095,-0.0019 -0.0142,0.0029 -0.0237,0c-0.7895,-0.246 -1.4526,-0.1092 -2.0131,0.5159c-0.0741,0.0836 -0.2175,0.0798 -0.3268,0.0332c-0.5966,0.1834 -1.1789,0.4038 -1.7527,0.6555c0.0133,0.0551 -0.0105,0.1074 -0.1045,0.134c-0.7695,0.2204 -2.2933,0.2004 -2.2876,1.3062c0.0009,0.1587 -0.171,0.1872 -0.3116,0.1435c-0.5282,0.4075 -1.0222,0.8521 -1.4706,1.3461c-0.0048,0.0067 -0.0124,0.0124 -0.0181,0.0181v0c0,0.0009 -0.0009,0.0009 -0.0009,0.0009c-0.0162,0.0162 -0.0323,0.0323 -0.0589,0.0456c-0.3335,0.1691 -0.8911,0.4171 -0.97,0.8199c-0.0285,0.1339 0.001,0.2812 -0.019,0.4189c-0.0133,0.1074 -0.0807,0.1881 -0.1596,0.2584c-0.0038,0.0171 -0.0057,0.0333 -0.0171,0.0513c-0.304,0.4722 -0.5709,0.9624 -0.8103,1.4687c0.0104,0.0276 0.0323,0.0523 0.0247,0.0855c-0.0817,0.3895 -0.4323,0.627 -0.495,1.0222c-0.0551,0.3525 0.0428,0.7144 -0.2242,1.0013c-0.0218,0.0228 -0.0494,0.0371 -0.0798,0.0475c-0.1263,0.5035 -0.2194,1.0118 -0.2774,1.5276c0.038,0.0418 0.0589,0.0931 0.0466,0.152c-0.0836,0.4313 -0.4247,0.8427 -0.2385,1.2445c0.0741,0.0333 0.1387,0.0817 0.1444,0.1596c0.001,0.0247 0.0057,0.0485 0.0067,0.0722c0.018,0.0371 0.0228,0.0694 0.0095,0.096c0.0323,0.437 0.0931,0.8711 0.1881,1.3005c0.189,0.2689 0.2118,0.5738 0.2973,0.8968c0.0494,0.1815 0.0979,0.4285 0.2451,0.5577c0.1017,0.0912 0.1444,0.1843 0.1387,0.3201c-0.0009,0.0162 -0.0171,0.0209 -0.0218,0.0352c0.3942,0.7581 0.9015,1.4402 1.5314,2.0168c0.0266,0.0238 0.0418,0.0466 0.0551,0.0694c0.0788,0.0047 0.1577,0.0285 0.2071,0.0845c0.7666,0.8721 1.2768,1.7936 1.7651,2.8196c0.4104,-0.2612 0.8882,-0.6061 0.703,-1.0963c-0.1606,-0.418 -0.4684,-0.797 -0.6555,-1.2074c-0.5339,-1.1419 -1.102,-2.3228 -1.5637,-3.4932c-0.7629,-1.9304 -0.2451,-4.5077 0.6004,-6.3175c0.854,-1.8354 3.0305,-3.1673 4.8212,-3.9425c2.737,-1.1846 5.9337,-1.1913 8.8635,-1.0478c1.5884,0.0779 3.1835,0.303 4.7633,0.5101c1.0165,0.134 2.0026,0.4171 2.888,0.9462c3.306,1.9656 3.458,6.5265 3.2234,9.9076c-0.0181,0.1957 -0.2964,0.2061 -0.4266,0.1035c-0.0418,-0.0342 -0.0693,-0.0798 -0.0655,-0.1358c0.2356,-3.3535 0.1197,-7.8632 -3.2253,-9.7299c-0.8265,-0.4608 -1.7708,-0.6574 -2.7008,-0.7619c-1.7556,-0.1976 -3.5008,-0.4427 -5.2659,-0.5054c-3.0666,-0.1112 -6.2842,0.1111 -9.0079,1.6444c-2.242,1.2635 -3.6366,2.9593 -4.1391,5.4787c-0.2176,1.0896 -0.2242,2.2287 -0.0057,3.3174c0.2204,1.1029 0.9471,2.1726 1.3803,3.2081c0.2746,0.6479 0.9225,1.4592 1.0469,2.147c0.0475,0.2689 -0.0418,0.4959 -0.1957,0.6926c-0.0199,0.0256 -0.0437,0.0494 -0.0655,0.0741c-0.2451,0.2736 -0.6052,0.4873 -0.8778,0.6707c-0.134,0.0874 -0.3477,0.0342 -0.4161,-0.1112c-0.3582,-0.7733 -0.7306,-1.4886 -1.1961,-2.166c-0.0342,-0.0494 -0.0636,-0.1007 -0.0988,-0.1501c-0.1691,-0.2365 -0.3524,-0.4683 -0.5519,-0.6963c-0.0029,-0.0029 -0.0029,-0.0057 -0.0057,-0.0086c-0.0599,-0.0019 -0.1216,-0.0209 -0.1701,-0.0665c-0.7049,-0.6412 -1.273,-1.3927 -1.7043,-2.2429c-0.0332,-0.0646 -0.0247,-0.1121 0.0076,-0.1463c-0.0389,-0.0874 -0.1358,-0.1824 -0.1748,-0.2518c-0.0646,-0.1197 -0.1073,-0.2489 -0.1406,-0.3809c-0.0855,-0.3211 -0.0988,-0.7192 -0.3268,-0.9747c-0.0589,-0.0646 -0.0589,-0.1188 -0.0304,-0.1596c-0.0902,-0.4228 -0.1501,-0.8465 -0.1833,-1.2768c-0.1682,-0.2157 -0.248,-0.4389 -0.21,-0.7249c0.0399,-0.2679 0.1853,-0.512 0.2651,-0.7714c-0.0152,-0.0294 -0.039,-0.0541 -0.0361,-0.0893c0.0608,-0.646 0.1786,-1.2806 0.3467,-1.9076c0.02,-0.0788 0.0903,-0.1054 0.1682,-0.1121c0.0057,-0.0142 0.018,-0.0256 0.0228,-0.0399c0.0057,-0.0133 0.0123,-0.0256 0.0161,-0.0399c0.0703,-0.2403 0.0323,-0.5329 0.0703,-0.7742c0.0447,-0.2784 0.2622,-0.4722 0.3924,-0.7087c-0.0295,-0.038 -0.0418,-0.0836 -0.019,-0.134c0.2441,-0.5358 0.5225,-1.0488 0.8312,-1.5504c-0.0475,-0.0598 -0.0484,-0.1292 0.0409,-0.1814c0.0598,-0.0342 0.0893,-0.0836 0.1197,-0.133c0.0351,-0.058 0.0608,-0.1226 0.0731,-0.1929c0.0333,-0.1852 0.0238,-0.3971 0.1207,-0.5709c0.1852,-0.3335 0.6593,-0.5539 1.0022,-0.7249c0.5349,-0.5852 1.1153,-1.121 1.7585,-1.5884c0.0009,-0.0009 0.0038,-0.0009 0.0047,-0.0019c0.0333,-0.1482 0.0855,-0.2783 0.1615,-0.3885c0.039,-0.057 0.0827,-0.1093 0.1311,-0.1577c0.4161,-0.4095 1.1429,-0.532 1.767,-0.666c0.0143,-0.0114 0.0257,-0.0237 0.0466,-0.0342c0.6346,-0.3049 1.291,-0.551 1.9589,-0.7685c0.1786,-0.0589 0.3534,-0.1264 0.5348,-0.1786c0.0228,-0.0057 0.0475,-0.0067 0.0713,-0.0057c0.0304,-0.0276 0.0598,-0.058 0.0902,-0.0836c0.551,-0.4617 1.198,-0.6023 1.9086,-0.4636c0.0798,0.0152 0.1605,0.038 0.2413,0.0608c0.2232,-0.0333 0.4474,-0.0599 0.6716,-0.0865c0.5016,-0.0598 1.0051,-0.1102 1.5096,-0.1387c0.0494,-0.0028 0.0959,0.0171 0.1406,0.039c0.0332,-0.0143 0.0598,-0.0342 0.114,-0.0314c1.0896,0.0694 2.3807,-0.4151 3.4266,0.0352c0.4741,0.0332 0.9481,0.0769 1.4222,0.1311c0.0494,0.0057 0.0855,0.0323 0.1216,0.057c0.8407,-0.5206 1.7717,0.1121 2.6201,0.303c0.9338,0.0979 2.2904,0.2176 2.8452,1.084c0.0209,0 0.0333,-0.0114 0.0551,-0.0076c0.9985,0.171 1.6321,1.0127 2.1176,1.8316c0.0076,0.0133 0.0066,0.0237 0.0114,0.0351c0.0009,0.001 0.0019,0.001 0.0028,0.0019c0.4779,0.5596 0.9709,1.1058 1.1562,1.8278c0.0133,0.0086 0.0275,0.0152 0.0389,0.0266c0.779,0.7961 1.71,2.0245 1.1904,3.1901c-0.0038,0.0105 -0.0171,0.0105 -0.0228,0.019c0.4275,0.9662 0.5177,2.1375 0.2318,3.1521c-0.0076,0.0257 -0.0323,0.0304 -0.0475,0.0475z" fill="#000000"/></g></g><g stroke="none" stroke-width="0.95"><path d="M224.31341,163.3582c0.2727,-0.3914 0.5729,-0.854 0.7572,-1.2882c0.1653,-0.3847 0.1786,-1.1837 0.7438,-1.1039c0.4997,0.0694 1.0631,0.2831 1.2825,0.7429c0.1359,0.2765 0.1235,0.3525 0.4275,0.419c0.2812,0.0598 0.456,0.1197 0.723,0.2707c1.1124,0.6242 1.9665,1.5352 2.9089,2.3779c0.4398,0.3942 0.9519,0.8103 0.512,1.4259c-0.3021,0.4218 -0.93,0.514 -1.406,0.5529c0.02,0.3591 -0.4104,0.7591 -0.5538,1.0726c-0.0855,0.1824 0.2622,0.1776 0.2812,0.3382c0.0199,0.209 0.0912,0.246 -0.0086,0.5016c-0.1368,0.36 -0.2907,0.779 -0.5111,1.1048c-0.1102,0.1615 -0.2489,0.3097 -0.4066,0.4342c-0.1377,0.1092 -0.455,0.1928 -0.512,0.3477c0.3638,0.2565 1.0754,0.3363 0.987,0.9946c-0.0741,0.5729 -0.569,0.9747 -0.7885,1.4697c-0.247,0.5538 -0.5804,0.8122 -1.0317,1.2321c-0.2004,0.19 -0.5386,0.8446 -0.7999,0.9244c-0.2375,0.0722 -0.4674,-0.0561 -0.6849,-0.1055c-0.7277,-0.1776 -1.3433,-0.6355 -0.818,-1.4155c-0.5396,0.4199 -1.2635,1.0184 -1.8392,1.3927c-0.6108,0.4 -0.8977,0.2679 -1.5143,0.0171c-0.5643,-0.2289 -1.348,-0.4037 -1.7071,-0.93c-0.2024,-0.2936 -0.115,-0.3648 0.1415,-0.5368c0.2812,-0.1871 0.4912,-0.4379 0.7505,-0.6545c0.5178,-0.4237 0.9044,-1.198 1.1733,-1.8012c0.2821,-0.627 0.4132,-1.0631 0.6868,-1.6825c0.2242,-0.5006 0.4589,-0.9329 0.5653,-1.4763c0.1225,-0.6355 0.1168,-1.3053 0.1168,-1.9589c0,-0.5358 -0.0513,-1.0431 -0.0513,-1.5846c0,-0.1121 -0.0351,-0.284 0,-0.3885c0.057,-0.1672 0.0808,-0.1235 0.2109,-0.2394c0.1558,-0.1425 0.2651,-0.2945 0.3914,-0.4532" fill="#a86c35"/><path d="M227.78951,162.2581v0v0v0v0v0v0v0v0c-1.3082,0.4646 -2.5147,1.1429 -3.781,1.6929c-0.1359,0.0599 -0.4161,-0.1349 -0.2119,-0.2242c1.2711,-0.55 2.4719,-1.2293 3.7801,-1.691c0.1377,-0.0513 0.4218,0.1492 0.2128,0.2223zM225.64061,164.7034v0v0v0v0v0v0v0v0c0.3961,-0.0589 0.9424,0.1843 1.3262,0.2765c1.0982,0.2612 2.1954,0.5377 3.2765,0.8569c0.057,0.0199 0.1368,0.0589 0.1492,0.1292c0.1311,0.7353 -0.0171,1.4639 -0.5738,1.9836c-0.1083,0.1007 -0.4475,-0.0418 -0.3306,-0.1511c0.4769,-0.4417 0.6194,-1.0108 0.5795,-1.6492c-0.019,-0.3192 -1.5447,-0.5443 -1.8012,-0.6089c-0.4551,-0.115 -0.9063,-0.229 -1.3614,-0.3392c-0.3068,-0.075 -0.8189,-0.3021 -1.1343,-0.2574c-0.1615,0.0228 -0.3714,-0.2052 -0.1301,-0.2404zM225.10481,166.6129v0v0v0v0v0v0v0v0c1.5779,0.6251 3.2328,1.0621 4.9124,1.2996c0.0618,0.0086 0.2014,0.0513 0.1995,0.1378c-0.0171,1.2198 -0.6108,2.5032 -1.956,2.5925c-0.1596,0.0114 -0.3762,-0.2213 -0.1321,-0.2394c0.8037,-0.0532 1.2464,-0.5899 1.5343,-1.2882c0.0921,-0.2185 0.1301,-0.4541 0.1672,-0.684c0.0788,-0.4712 -0.456,-0.379 -0.7486,-0.437c-1.4108,-0.2774 -2.7921,-0.665 -4.1306,-1.1932c-0.2261,-0.0912 -0.02,-0.2555 0.1539,-0.1881zM225.25111,169.6396v0v0v0v0v0v0v0v0c1.4953,0.1843 2.869,0.8018 4.2826,1.2844c0.0741,0.0247 0.1596,0.0684 0.1501,0.1587c-0.0979,0.9395 -0.685,1.691 -1.2322,2.4234c-0.4503,0.5976 -0.7752,1.4184 -1.5076,1.7062c-0.4883,0.1929 -1.1609,-0.0627 -1.5723,-0.3249c-0.6564,-0.4142 -0.3135,-1.0374 0.0057,-1.5352c0.0684,-0.1073 0.3914,-0.0142 0.3411,0.1245c-0.0295,0.0912 -0.0447,0.1045 -0.1169,0.1643c-0.1111,0.0903 -0.4303,-0.0712 -0.2802,-0.1938c0.0152,-0.0209 0.0237,-0.0446 0.0389,-0.0665c0.115,0.0418 0.228,0.0827 0.342,0.1254c-0.5538,0.8626 0.628,2.0606 1.4982,1.1514c0.2508,-0.2593 0.4322,-0.6089 0.6289,-0.9091c0.4341,-0.6527 0.9367,-1.2227 1.2863,-1.9333c0.4256,-0.8635 -0.2717,-0.8882 -0.9538,-1.139c-0.9348,-0.3496 -1.8763,-0.6726 -2.8738,-0.7971c-0.19,-0.0228 -0.284,-0.2679 -0.037,-0.2394zM225.83631,173.4149v0v0v0v0v0v0v0v0c-1.084,0.6688 -1.5352,1.6578 -2.8766,1.8943c-1.0488,0.1815 -2.0406,-0.7106 -2.8244,-1.2435c-0.2033,-0.1368 0.0969,-0.2337 0.2299,-0.1416c1.084,0.7306 1.9646,1.4725 3.3573,0.8598c0.7163,-0.3164 1.1581,-1.1476 1.8326,-1.5637c0.1225,-0.0741 0.4474,0.094 0.2812,0.1947zM227.75621,162.0529v0v0v0v0v0v0v0v0c1.3975,0.6546 2.6021,1.8991 3.7221,2.9374c0.4551,0.418 0.5349,0.646 0.209,1.1714c-0.2764,0.4474 -0.8702,0.6536 -1.3613,0.7201c-0.1615,0.0209 -0.3724,-0.2052 -0.1302,-0.2385c0.3971,-0.0579 1.8117,-0.6279 1.1894,-1.3604c-0.3676,-0.4246 -0.8417,-0.7571 -1.2711,-1.1115c-0.8274,-0.684 -1.5219,-1.4658 -2.5108,-1.9304c-0.2214,-0.1054 -0.019,-0.2698 0.1529,-0.1881zM226.56111,164.3329v0v0v0v0v0v0v0v0c0.3838,0.247 0.8132,0.4769 1.121,0.8246c0.1444,0.1672 -0.1995,0.1986 -0.2964,0.0893c-0.2869,-0.3239 -0.6954,-0.5405 -1.0573,-0.7714c-0.058,-0.038 -0.0969,-0.1235 -0.0228,-0.1681c0.0769,-0.0466 0.1824,-0.0181 0.2555,0.0256zM223.76151,163.6024v0v0v0v0v0v0v0v0c0.7666,-0.5767 1.4259,-1.7138 1.5219,-2.6619c0.0076,-0.0475 0.0779,-0.0713 0.114,-0.0722c1.0583,-0.0285 2.0757,0.3097 1.9959,1.5371c-0.0123,0.1453 -0.3714,0.0636 -0.3581,-0.0979c0.0484,-0.7239 -0.3382,-1.102 -1.0393,-1.1941c-0.3297,-0.0418 -0.3582,0.0532 -0.4266,0.3296c-0.0579,0.2147 -0.1501,0.4199 -0.2441,0.6223c-0.2936,0.6393 -0.7154,1.3043 -1.2844,1.7299c-0.114,0.0874 -0.437,-0.075 -0.2793,-0.1928z" fill="#000000"/></g><g stroke="none" stroke-width="0.95"><g><path d="M247.55141,132.3445v0v0v0v0v0v0v0c-0.8094,-1.1647 -1.691,-2.7027 -1.14,-4.16c0.2983,-0.7895 0.684,-1.5276 0.9576,-2.3209c0.0874,0.285 0.152,0.6346 0.2603,0.7648c0.3505,0.4189 0.645,0.9927 0.9614,1.4373c0.4066,0.5643 1.0022,0.9348 1.6368,1.2759c1.1742,0.6346 2.4548,0.7733 3.7972,0.5956c1.4715,-0.1928 2.6343,-0.2631 3.476,-1.6397c0.5463,-0.8939 1.1125,-1.8278 1.2892,-2.9022c0.2004,-1.2151 -0.0019,-2.6572 -0.7809,-3.6784c-0.6698,-0.8778 -2.6676,-1.1153 -2.946,-1.6815c8.0579,-0.0912 7.9173,9.575 10.8433,14.7858c0.0029,0.0038 0.0133,0.0066 0.0162,0.0104c1.1685,2.1062 2.0928,5.0531 2.6134,7.9183c0.019,0.1026 0.0371,0.2042 0.0589,0.3021c0.3012,1.7442 0.4484,3.4456 0.4019,4.8934c-0.0694,2.1451 -0.4655,4.6113 -1.14,6.6586c-0.2195,0.6612 -0.6736,1.0839 -1.2835,1.3281l-0.0541,-0.0998c0,0 -6.8875,0.4475 -11.9985,-3.6062c-0.5757,-1.824 -1.0279,-3.685 -1.2702,-5.6449c0.0019,-0.0019 0.0114,-0.0009 0.0114,-0.0038c-0.0427,-0.5662 -0.1083,-1.1314 -0.1757,-1.6967c0.3068,0.5643 0.6583,1.1134 1.0925,1.6416c1.2815,1.5571 3.0827,2.5365 4.939,3.2367c0.1159,0.0437 0.5966,0.0465 0.286,-0.0684c-2.3503,-0.8864 -4.7586,-2.413 -5.9309,-4.7443c-1.0611,-2.1147 -1.4193,-4.4033 -1.8601,-6.708c-0.0009,-0.0066 -0.0133,-0.0095 -0.0152,-0.0152c-0.0009,-0.0038 0.0105,-0.0047 0.0095,-0.0085c-0.7049,-2.4928 -2.6381,-3.8323 -4.0555,-5.8701z" fill="#302d63"/><path d="M257.25091,128.1721v0v0v0v0v0v0v0c-2.6914,3.1474 -9.3651,1.5865 -9.7413,-2.7246c0.0826,-0.1852 2.4538,-5.4378 7.3302,-5.0084c3.9387,0.5681 4.8431,4.8887 2.4111,7.733z" fill="#c0e1e1"/><path d="M269.20661,145.3434v0v0v0v0v0v0v0c0.5643,2.8851 0.457,8.1899 -1.462,10.6105c-0.2632,0.3297 -0.8389,0.4513 -1.5419,0.4579c-2.4852,0.4437 -5.5993,-0.5434 -8.0094,-1.5941c-0.6071,-0.2375 -1.198,-0.5158 -1.7718,-0.8331c-1.2141,-0.6175 -1.9988,-1.1039 -1.9988,-1.1039c-0.0532,-0.0846 -0.0855,-0.1606 -0.1045,-0.2299c-0.0332,-0.0703 -0.0646,-0.1416 -0.0959,-0.2128c-0.0437,-0.019 -0.0855,-0.0409 -0.1349,-0.0523c-0.1055,-0.3372 -0.1986,-0.6773 -0.2955,-1.0165c-0.6821,-1.9418 -0.9899,-4.027 -1.1286,-5.5803c-0.0076,-0.0627 -0.0171,-0.1244 -0.0247,-0.1871c0,-0.0019 0.0086,-0.0019 0.0086,-0.0038c-0.0409,-0.4921 -0.0665,-0.9291 -0.0808,-1.2768c-0.0503,-0.2252 -0.0912,-0.4247 -0.1035,-0.532c-0.0029,-0.0171 0.0332,-0.0257 0.0845,-0.0276c-0.7296,-1.7594 -1.0621,-3.6527 -1.4402,-5.624c-0.7429,-2.622 -2.9193,-4.2351 -4.4241,-6.3973c-1.615,-2.3256 -0.4095,-3.9444 0.2669,-6.2519c0.0143,-0.0475 0.0295,-0.095 0.0437,-0.1444c2.0805,-4.5515 5.5699,-5.2526 7.1355,-5.3267l0.4066,-0.151c0,-0.0124 0.0142,-0.0228 0.0636,-0.0238c1.3994,-0.0342 2.566,0.1824 3.5568,0.5909c1.3091,0.5387 2.3066,1.4127 3.1122,2.5014c2.0948,2.8329 2.8861,7.1012 4.4536,10.5887c0.1672,0.3705 0.343,0.7324 0.5301,1.083c0.0475,0.0912 0.095,0.1843 0.1454,0.2745c0.0038,0.0057 0.0171,0.0086 0.0199,0.0133c1.7404,3.1284 2.1062,6.9626 2.7892,10.4491zM254.83981,120.4391v0v0v0v0v0v0v0c-4.8764,-0.4294 -7.2476,4.8232 -7.3302,5.0094c0.3762,4.3111 7.0499,5.871 9.7413,2.7236c2.432,-2.8443 1.5276,-7.1658 -2.4111,-7.733zM268.99671,147.9454v0v0v0v0v0v0v0c0.0456,-1.4468 -0.1017,-3.1492 -0.4019,-4.8934c-0.018,-0.1007 -0.0399,-0.2014 -0.0589,-0.3021c-0.5206,-2.8643 -1.4449,-5.8121 -2.6134,-7.9183c-0.0029,-0.0038 -0.0133,-0.0066 -0.0162,-0.0104c-2.926,-5.2108 -2.7854,-14.877 -10.8433,-14.7858c-0.0446,0 -0.0845,-0.0029 -0.1292,-0.0019c-0.0465,0.0009 -0.1643,-0.0361 -0.2622,-0.077l0.038,0.0589c0.1444,0.0076 0.2242,0.0181 0.2242,0.0181l-0.0114,0.0484c0.001,0 0.001,0 0.0019,0c4.5154,0.6489 5.3932,5.6335 2.4111,8.7239c-2.7977,2.8946 -8.9794,1.2521 -10.1526,-2.4833c-0.2489,0.6222 -0.532,1.2274 -0.7714,1.8601c-0.552,1.4592 0.3306,2.9972 1.14,4.1619c1.4174,2.0378 3.3506,3.3763 4.0555,5.8701c0.001,0.0047 -0.0095,0.0047 -0.0095,0.0085c0.0019,0.0067 0.0143,0.0086 0.0152,0.0152c0.4408,2.3057 0.798,4.5942 1.8601,6.708c1.1723,2.3313 3.5796,3.8579 5.9309,4.7443c0.3106,0.1149 -0.1691,0.1121 -0.286,0.0684c-1.8563,-0.7011 -3.6565,-1.6796 -4.939,-3.2367c-0.4342,-0.5282 -0.7857,-1.0782 -1.0925,-1.6416c0.0684,0.5653 0.133,1.1305 0.1757,1.6967c0,0.0029 -0.0095,0.0019 -0.0114,0.0038c0.2423,1.9599 0.6954,3.8209 1.2702,5.6449c5.111,4.0537 11.9985,3.6062 11.9985,3.6062l0.0541,0.0998c0.6099,-0.2432 1.065,-0.666 1.2835,-1.3281c0.6754,-2.0473 1.0716,-4.5144 1.14,-6.6586z" fill="#010101"/></g><g><path d="M255.84011,124.4671v0v0v0v0v0v0v0c0.019,0.0836 0.152,0.1425 0.2765,0.1606c0.0019,0.1035 0.0057,0.208 -0.0114,0.2888c-0.1197,0.5434 -0.5558,0.6327 -0.9272,1.1067c-0.4769,0.6128 -1.1837,0.7363 -1.8924,0.9272c-1.3604,0.3648 -2.4605,0.5596 -3.5644,-0.3895c-0.4104,-0.3543 -0.5615,-1.0526 -1.1324,-1.1856c-0.6375,-0.1491 -1.4136,0.171 -2.0197,0.2983c-1.0887,0.2328 -0.8712,-0.8778 -1.7091,-1.1694c0.4693,-0.0285 0.9443,-0.1321 1.3908,-0.2071c0.7429,-0.1264 1.4545,-0.3135 2.1622,-0.5738c0.2081,-0.077 -0.2546,-0.2917 -0.4075,-0.2356c-0.6004,0.2223 -1.2075,0.3942 -1.8392,0.5006c-0.6023,0.1026 -1.3785,0.3449 -1.9789,0.2252c-0.1339,-0.0266 -0.2099,0.0114 -0.2403,0.0636c-0.1539,-0.0551 -0.2974,-0.1254 -0.3971,-0.246c-0.2508,-0.3031 -0.2508,-0.7515 -0.4009,-1.1258c0.0399,0.0114 0.0674,0.0304 0.1092,0.0409c1.3766,0.3258 2.9754,-0.3819 4.2731,-0.7448c0.2841,-0.0798 -0.1558,-0.3116 -0.3173,-0.267c-1.0336,0.2898 -2.1061,0.7173 -3.191,0.7648c-1.6445,0.0741 -1.4298,-1.1476 -1.8202,-2.2154c0.6612,0.1919 1.3281,0.3505 2.0073,0.4284c1.0697,0.1216 2.6477,-0.8246 3.5787,-1.2625c0.208,-0.0979 -0.2594,-0.304 -0.4066,-0.2347c-0.7021,0.3306 -1.3937,0.6612 -2.1299,0.9168c-1.5077,0.5206 -3.0077,-0.2223 -4.4289,-0.6964c-0.9472,-0.3144 -4.5363,-0.949 -2.4301,-2.1669c1.6292,-0.1739 2.9497,0.3154 4.4821,0.7011c0.3106,0.0788 0.6735,0.2166 0.9899,0.133c1.4649,-0.3876 2.7578,-1.0583 4.0023,-1.919c1.0716,-0.741 1.0868,-0.9035 0.6432,-2.1736c-0.1862,-0.476 -0.3392,-0.9662 -0.457,-1.4649c-0.4199,-1.3775 0.1463,-2.0501 1.6986,-2.0188c0.1245,0.7239 0.2831,1.4383 0.4294,2.1584v0v0c0.2252,0.8246 0.4703,1.5067 0.9424,2.2211c0.3506,0.532 0.7857,0.9833 1.2341,1.4231c0.9718,1.0982 1.7128,2.1052 2.2353,3.6081c0.494,1.4184 0.9149,2.8633 1.2464,4.3301z" fill="#a86c35"/><path d="M256.34551,124.5118v0v0v0v0v0v0v0c0.0029,0.0085 -0.0095,0.0085 -0.0114,0.0161c0.0019,0.0067 0.0114,0.0124 0.0114,0.02c-0.2175,2.3161 -3.9729,3.3858 -5.8672,2.7521c-0.5985,-0.1995 -1.1324,-0.7619 -1.557,-1.1875c-1.5561,-1.5589 -1.2882,-0.0655 -2.5042,-0.2365c-1.0536,-0.1454 -1.1638,-0.3715 -1.5362,-1.3785c-0.0066,0 -0.0142,0.0019 -0.0218,0.0019c-0.247,0.0152 -0.4931,0.0162 -0.7315,-0.0313c-0.0029,0 -0.0019,-0.0019 -0.0048,-0.0019c-0.1178,0.0323 -0.3572,-0.0029 -0.4284,-0.0846c-0.3981,-0.4607 -0.6574,-0.9718 -0.7572,-1.5732c-0.9908,-0.4427 -0.8749,-1.5276 -1.2872,-2.4956c-1.501,-0.4817 -2.9821,-1.103 -4.5144,-1.4155c-0.0789,-0.0152 -0.2442,-0.0827 -0.2233,-0.1891c0.1302,-0.6802 0.4161,-1.0602 0.9405,-1.3917c-0.0199,-0.0513 0.0105,-0.0979 0.1359,-0.1159c0.019,-0.0019 0.0351,-0.001 0.0551,-0.0029c0.0209,-0.0123 0.037,-0.0256 0.0608,-0.038c0.0598,-0.0304 0.1691,-0.0171 0.2669,0.0181c1.3148,-0.1102 2.4577,0.1567 3.7715,0.5329c0.6983,0.1995 2.6211,-0.0598 4.1306,-0.7163c0.5292,-0.2299 1.0032,-0.5101 1.3595,-0.835c0.4379,-0.3981 0.6982,-0.8636 0.6441,-1.3946c-0.1729,-1.6711 -1.2027,-2.4491 -0.4275,-4.1848c0.3866,-0.8607 1.2777,-0.8692 2.0349,-0.8122c0.0807,0.0066 0.2802,0.057 0.2916,0.1643c0.0998,1.0184 0.3069,1.9931 0.5121,2.9954l0.0009,0.0009c0.2157,0.7923 0.456,1.4583 0.9044,2.1489c0.1796,0.2755 0.3876,0.5235 0.6042,0.7638c0.0323,0.0133 0.0627,0.0285 0.0798,0.0485c0.1957,0.2118 0.3753,0.4113 0.552,0.607c0.2717,0.266 0.5472,0.5292 0.8122,0.8056c0.0751,0.0789 0.0551,0.1302 -0.0038,0.1568c0.5178,0.6697 0.9443,1.3689 1.3129,2.3208c0.5928,1.5295 1.0346,3.1341 1.3946,4.732zM252.85521,126.9951v0v0v0v0v0v0v0c1.2084,-0.342 2.8367,-1.1619 2.9773,-2.5536c-0.3296,-1.4583 -0.7495,-2.8956 -1.2397,-4.3073c-0.5225,-1.502 -1.2635,-2.5099 -2.2354,-3.6081c-0.4474,-0.4399 -0.8835,-0.8902 -1.234,-1.4231c-0.4722,-0.7144 -0.7182,-1.3956 -0.9424,-2.2211v0v0c-0.1473,-0.7201 -0.305,-1.4345 -0.4294,-2.1584c-1.5523,-0.0314 -2.1185,0.6403 -1.6986,2.0187c0.1178,0.4988 0.2707,0.988 0.4569,1.4649c0.4437,1.2711 0.4275,1.4326 -0.6431,2.1736c-1.2436,0.8607 -2.5375,1.5314 -4.0024,1.919c-0.3173,0.0836 -0.6792,-0.0541 -0.9899,-0.133c-1.5333,-0.3857 -2.8528,-0.8749 -4.4821,-0.7011c-2.1061,1.2179 1.483,1.8516 2.4301,2.167c1.4212,0.474 2.9213,1.2169 4.4289,0.6963c0.7363,-0.2546 1.4279,-0.5852 2.1299,-0.9167c0.1473,-0.0694 0.6147,0.1368 0.4066,0.2346c-0.931,0.438 -2.5089,1.3842 -3.5786,1.2626c-0.6793,-0.0779 -1.3462,-0.2356 -2.0074,-0.4285c0.3914,1.0678 0.1758,2.2905 1.8202,2.2154c1.084,-0.0484 2.1565,-0.475 3.1911,-0.7647c0.1615,-0.0447 0.6013,0.1881 0.3173,0.2669c-1.2312,0.3439 -2.7341,0.9899 -4.0613,0.7752c0.096,0.4636 0.2955,0.8683 0.5871,1.2388c0.0361,-0.0066 0.076,-0.0123 0.1311,-0.0019c0.6014,0.1197 1.3766,-0.1235 1.9789,-0.2251c0.6317,-0.1064 1.2388,-0.2784 1.8392,-0.5007c0.1529,-0.0551 0.6165,0.1596 0.4075,0.2356c-0.7077,0.2603 -1.4193,0.4475 -2.1622,0.5738c-0.3059,0.0513 -0.627,0.1083 -0.9481,0.153c0.0314,0.0209 0.0656,0.0399 0.076,0.0674c0.7695,2.0967 2.2249,-0.2204 3.3203,0.8123c1.254,1.1799 2.3085,2.1897 4.1562,1.6682z" fill="#010101"/></g></g></g></g></svg>