<svg version="1.1" xmlns="http://www.w3.org/2000/svg" xmlns:xlink="http://www.w3.org/1999/xlink" width="28.5" height="28.5" viewBox="0,0,28.5,28.5"><g transform="translate(-225.75,-165.75)"><g data-paper-data="{&quot;isPaintingLayer&quot;:true}" fill-rule="nonzero" stroke-linecap="butt" stroke-linejoin="miter" stroke-miterlimit="10" stroke-dasharray="" stroke-dashoffset="0" style="mix-blend-mode: normal"><path d="M226.25,192v-24c0,-1.04038 0.69833,-1.75 1.75,-1.75h24c1.04511,0 1.75,0.69647 1.75,1.75v24c0,1.04844 -0.66666,1.75 -1.71857,1.75h-24.03143c-1.05482,0 -1.75,-0.69757 -1.75,-1.75z" fill="#8ae6a0" stroke="#000000" stroke-width="1"/><g stroke-width="0"><path d="M238.82326,193.24051v-21.16633h2.8633v21.16633z" fill="#8a6855" stroke="#555061"/><path d="M238.74104,182.65735l-6.28001,-11.19091l1.51386,-0.84953l6.28001,11.19091z" fill="#8a6855" stroke="#555061"/><path d="M240.25491,179.6605l6.28001,-11.19091l1.51386,0.84953l-6.28001,11.19091z" data-paper-data="{&quot;index&quot;:null}" fill="#8a6855" stroke="#555061"/><g stroke="#000000"><path d="M248.92485,171.98052c-0.19177,0.39962 -0.92512,0.44627 -1.63796,0.10417c-0.36083,-0.17316 -1.13525,-0.94336 -0.94347,-1.34299c0.19177,-0.39962 1.27714,-0.27735 1.63796,-0.10418c0.71285,0.34209 1.13525,0.94337 0.94347,1.343z" fill="#35a435"/><path d="M246.29023,170.85252l0.05318,-0.11081l2.58144,1.23881l-0.05318,0.11081z" fill="#216921"/><path d="M247.67234,171.44761l-0.0285,-0.10674l0.95906,-0.25599l0.0285,0.10674z" fill="#216921"/><path d="M247.0686,171.18317l-0.05628,-0.09507l0.85421,-0.50562l0.05628,0.09507z" fill="#216921"/><path d="M248.27297,172.25211l-0.07871,0.03473l-0.31202,-0.70724l0.07871,-0.03473z" fill="#216921"/><path d="M247.39457,171.35598l0.08758,-0.00594l0.05334,0.78695l-0.08759,0.00594z" fill="#216921"/><path d="M246.9463,171.76302l-0.07707,0.0125l-0.11235,-0.69247l0.07707,-0.0125z" fill="#216921"/></g><g stroke="#000000"><path d="M246.78647,175.99557c-0.19177,0.39962 -0.92512,0.44627 -1.63796,0.10417c-0.36083,-0.17316 -1.13525,-0.94336 -0.94347,-1.34299c0.19177,-0.39962 1.27714,-0.27735 1.63796,-0.10418c0.71285,0.34209 1.13525,0.94337 0.94347,1.343z" fill="#35a435"/><path d="M244.15185,174.86757l0.05318,-0.11081l2.58144,1.23881l-0.05318,0.11081z" fill="#216921"/><path d="M245.53396,175.46266l-0.0285,-0.10674l0.95906,-0.25599l0.0285,0.10674z" fill="#216921"/><path d="M244.93022,175.19822l-0.05628,-0.09507l0.85421,-0.50562l0.05628,0.09507z" fill="#216921"/><path d="M246.13459,176.26716l-0.07871,0.03473l-0.31202,-0.70724l0.07871,-0.03473z" fill="#216921"/><path d="M245.25619,175.37103l0.08758,-0.00594l0.05334,0.78695l-0.08759,0.00594z" fill="#216921"/><path d="M244.80792,175.77808l-0.07707,0.0125l-0.11235,-0.69247l0.07707,-0.0125z" fill="#216921"/></g><g stroke="#000000"><path d="M236.9413,172.02138c0.40066,0.1896 0.45129,0.92268 0.11308,1.63737c-0.1712,0.36176 -0.93718,1.14036 -1.33784,0.95076c-0.40066,-0.1896 -0.28428,-1.27561 -0.11308,-1.63737c0.33821,-0.71469 0.93718,-1.14036 1.33784,-0.95076z" fill="#35a435"/><path d="M235.82764,174.66209l-0.1111,-0.05257l1.22476,-2.58814l0.1111,0.05258z" fill="#216921"/><path d="M236.41521,173.27677l-0.10658,0.02908l-0.26121,-0.95765l0.10659,-0.02908z" fill="#216921"/><path d="M236.15406,173.88194l-0.09477,0.05679l-0.51025,-0.85145l0.09476,-0.05679z" fill="#216921"/><path d="M237.21644,172.67178l0.03516,0.07852l-0.70553,0.31586l-0.03516,-0.07853z" fill="#216921"/><path d="M236.3251,173.55504l-0.00642,-0.08755l0.78664,-0.05762l0.00642,0.08756z" fill="#216921"/><path d="M236.73457,174.00109l0.01292,0.077l-0.69184,0.11611l-0.01292,-0.077z" fill="#216921"/></g><g data-paper-data="{&quot;index&quot;:null}" stroke="#000000"><path d="M232.79804,176.67095c-0.40066,-0.1896 -0.45129,-0.92268 -0.11308,-1.63737c0.1712,-0.36176 0.93718,-1.14036 1.33784,-0.95076c0.40066,0.1896 0.28428,1.27561 0.11308,1.63737c-0.33821,0.71469 -0.93718,1.14036 -1.33784,0.95076z" fill="#35a435"/><path d="M233.9117,174.03024l0.1111,0.05257l-1.22476,2.58814l-0.1111,-0.05258z" fill="#216921"/><path d="M233.32413,175.41555l0.10658,-0.02908l0.26121,0.95765l-0.10659,0.02908z" fill="#216921"/><path d="M233.58528,174.81038l0.09477,-0.05679l0.51025,0.85145l-0.09476,0.05679z" fill="#216921"/><path d="M232.52291,176.02055l-0.03516,-0.07852l0.70553,-0.31586l0.03516,0.07853z" fill="#216921"/><path d="M233.41425,175.13729l0.00642,0.08755l-0.78664,0.05762l-0.00642,-0.08756z" fill="#216921"/><path d="M233.00477,174.69124l-0.01292,-0.077l0.69184,-0.11611l0.01292,0.077z" fill="#216921"/></g><g data-paper-data="{&quot;index&quot;:null}" stroke="#000000"><path d="M234.86222,180.9989c-0.40066,-0.1896 -0.45129,-0.92268 -0.11308,-1.63737c0.1712,-0.36176 0.93718,-1.14036 1.33784,-0.95076c0.40066,0.1896 0.28428,1.27561 0.11308,1.63737c-0.33821,0.71469 -0.93718,1.14036 -1.33784,0.95076z" fill="#35a435"/><path d="M235.97588,178.35819l0.1111,0.05257l-1.22476,2.58814l-0.1111,-0.05258z" fill="#216921"/><path d="M235.38831,179.74351l0.10658,-0.02908l0.26121,0.95765l-0.10659,0.02908z" fill="#216921"/><path d="M235.64946,179.13834l0.09477,-0.05679l0.51025,0.85145l-0.09476,0.05679z" fill="#216921"/><path d="M234.58708,180.34851l-0.03516,-0.07852l0.70553,-0.31586l0.03516,0.07853z" fill="#216921"/><path d="M235.47842,179.46525l0.00642,0.08755l-0.78664,0.05762l-0.00642,-0.08756z" fill="#216921"/><path d="M235.06895,179.01919l-0.01292,-0.077l0.69184,-0.11611l0.01292,0.077z" fill="#216921"/></g><g stroke="#000000"><path d="M231.02894,172.45894c0.00356,-0.44325 0.6474,-0.79742 1.43805,-0.79106c0.40021,0.00322 1.42871,0.37082 1.42515,0.81407c-0.00356,0.44325 -1.03784,0.79429 -1.43805,0.79106c-0.79065,-0.00636 -1.42871,-0.37083 -1.42515,-0.81408z" fill="#35a435"/><path d="M233.89313,172.35905l-0.00099,0.1229l-2.86321,-0.02301l0.001,-0.12291z" fill="#216921"/><path d="M232.38917,172.40843l0.07119,0.08447l-0.75905,0.63966l-0.0712,-0.08448z" fill="#216921"/><path d="M233.04805,172.39091l0.09137,0.0621l-0.55798,0.82096l-0.09137,-0.0621z" fill="#216921"/><path d="M231.50336,171.93584l0.05646,-0.06491l0.58324,0.50732l-0.05647,0.06492z" fill="#216921"/><path d="M232.67953,172.37318l-0.07673,0.04263l-0.38304,-0.6895l0.07674,-0.04264z" fill="#216921"/><path d="M232.91207,171.81411l0.06443,-0.04409l0.39625,0.57889l-0.06443,0.0441z" fill="#216921"/></g><g stroke="#000000"><path d="M243.46314,169.43516c0.39239,-0.20617 1.00862,0.19413 1.37637,0.89409c0.18615,0.3543 0.34776,1.4345 -0.04463,1.64066c-0.39239,0.20617 -1.19022,-0.53978 -1.37637,-0.89409c-0.36775,-0.69995 -0.34776,-1.4345 0.04463,-1.64066z" fill="#35a435"/><path d="M244.90369,171.91274l-0.10881,0.05717l-1.33174,-2.53475l0.10881,-0.05716z" fill="#216921"/><path d="M244.14998,170.61033l-0.04084,0.10265l-0.92228,-0.36705l0.04085,-0.10265z" fill="#216921"/><path d="M244.47655,171.18286l-0.0116,0.10987l-0.98715,-0.10419l0.01159,-0.10986z" fill="#216921"/><path d="M244.14828,169.60635l0.08388,0.01911l-0.17179,0.75368l-0.08389,-0.01912z" fill="#216921"/><path d="M244.31816,170.84964l-0.07382,-0.04751l0.42692,-0.66323l0.07382,0.04751z" fill="#216921"/><path d="M244.92078,170.79062l0.0693,0.03598l-0.32318,0.62264l-0.0693,-0.03597z" fill="#216921"/></g></g></g></g></svg>