<svg version="1.1" xmlns="http://www.w3.org/2000/svg" xmlns:xlink="http://www.w3.org/1999/xlink" width="102.75" height="135.48407" viewBox="0,0,102.75,135.48407"><g transform="translate(-188.625,-111.95344)"><g data-paper-data="{&quot;isPaintingLayer&quot;:true}" fill-rule="nonzero" stroke-linecap="butt" stroke-linejoin="miter" stroke-miterlimit="10" stroke-dasharray="" stroke-dashoffset="0" style="mix-blend-mode: normal"><path d="M205.36574,193.2542v-62h69.25v62z" fill="#838383" stroke="#000000" stroke-width="0.5"/><path d="M188.87501,239.99899c0,-24.85975 0,-106.41629 0,-120.10869c0,-3.81821 3.36827,-7.07779 7.07398,-7.07779c11.1643,0 68.19615,0 88.21739,0c4.3548,0 6.95862,3.25958 6.95862,7.07779c0,13.65276 0,94.77717 0,119.89131c0,4.67224 -3.47339,7.4059 -7.17602,7.4059c-11.10181,0 -67.52679,0 -87.80435,0c-4.54136,0 -7.26963,-2.64899 -7.26963,-7.18851zM274.51668,193.28751v-62h-69.25v61.99669z" fill="#614537" stroke="#000000" stroke-width="0.5"/><path d="M205.22943,193.31755v-62.06339h69.3245v62.0667z" data-paper-data="{&quot;noHover&quot;:false,&quot;origItem&quot;:[&quot;Path&quot;,{&quot;applyMatrix&quot;:true,&quot;segments&quot;:[[274.51668,193.28751],[274.51668,131.28751],[205.26668,131.28751],[205.26668,193.2842]],&quot;closed&quot;:true,&quot;fillColor&quot;:[0,0,0,1]}]}" fill="#afb1d2" stroke="none" stroke-width="0.5"/><path d="M205.13426,225.36583c0,-24.85975 0.07398,-32.11163 0.07398,-32.11163l69.4075,0.13627c0,0 0,6.64383 0,31.75797c0,4.67224 -3.47339,7.40591 -7.17602,7.40591c-11.10181,0 -34.75827,0 -55.03583,0c-4.54136,0 -7.26963,-2.64899 -7.26963,-7.18852z" fill="#614537" stroke="#000000" stroke-width="0.5"/><text transform="translate(207.36574,203.29745) scale(0.23275,0.23275)" font-size="40" xml:space="preserve" fill="#ffffff" fill-rule="nonzero" stroke="none" stroke-width="1" stroke-linecap="butt" stroke-linejoin="miter" stroke-miterlimit="10" stroke-dasharray="" stroke-dashoffset="0" font-family="&quot;Microsoft YaHei&quot;, &quot;微软雅黑&quot;, STXihei, &quot;华文细黑&quot;" font-weight="normal" text-anchor="start" style="mix-blend-mode: normal"><tspan x="0" dy="0">散落的些许魔力</tspan><tspan x="0" dy="48px">能使你回复三分</tspan><tspan x="0" dy="48px">之一血量。</tspan></text><text transform="translate(207.335,125.96673) scale(0.32665,0.32665)" font-size="40" xml:space="preserve" fill="#ffffff" fill-rule="nonzero" stroke="none" stroke-width="1" stroke-linecap="butt" stroke-linejoin="miter" stroke-miterlimit="10" stroke-dasharray="" stroke-dashoffset="0" font-family="&quot;Microsoft YaHei&quot;, &quot;微软雅黑&quot;, STXihei, &quot;华文细黑&quot;" font-weight="normal" text-anchor="start" style="mix-blend-mode: normal"><tspan x="0" dy="0">散落的魔力</tspan></text><path d="M231.79515,151.26194c0.37139,0.92847 -0.55709,1.29987 -0.55709,1.29987l-1.57251,0.62321c-1.57959,1.02916 -2.93943,1.10986 -4.79888,1.11498c0,0 -1,0 -1,-1c0,-1 1,-1 1,-1c1.57801,0.0049 2.55665,0.01249 3.86778,-0.88503l1.76083,-0.71012c0,0 0.92847,-0.37139 1.29986,0.55709z" fill="#3a61b7" stroke="none" stroke-width="0.5"/><path d="M263.2,159.96667c0,0.05643 -0.00467,0.11177 -0.01365,0.16566c-0.0378,0.29435 -0.19752,0.68093 -0.7534,0.80706c-0.02218,0.00529 -0.04465,0.00985 -0.06739,0.01363c-0.56624,0.10083 -0.86407,-0.19636 -1.01264,-0.45464c-0.06721,-0.10686 -0.11477,-0.22733 -0.13759,-0.35635l-0.30721,-1.55709c-1.28589,-3.28424 -1.37479,-6.36859 -1.37479,-9.95162c0,0 0,-1 1,-1c1,0 1,1 1,1c0,3.40115 0.01572,6.26535 1.29188,9.38172l0.35076,1.73272c0.01573,0.07045 0.02403,0.1437 0.02403,0.21889z" fill="#3a61b7" stroke="none" stroke-width="0.5"/><path d="M234.86667,182.63333c0,-0.5954 0.3545,-0.83631 0.64137,-0.93377c0.11132,-0.04279 0.23224,-0.06623 0.35863,-0.06623h1c4.54604,0 8.70498,0.24564 12.93941,-1.58581c0,0 0.91914,-0.39392 1.31306,0.52523c0.39392,0.91914 -0.52523,1.31306 -0.52523,1.31306c-4.51654,1.91978 -8.89172,1.74752 -13.72725,1.74752h-1c-0.12639,0 -0.24731,-0.02344 -0.35863,-0.06623c-0.28687,-0.09746 -0.64137,-0.33837 -0.64137,-0.93377z" fill="#3a61b7" stroke="none" stroke-width="0.5"/><path d="M216.53334,161.96667c0.5954,0 0.83631,0.35451 0.93377,0.64137c0.04279,0.11132 0.06623,0.23224 0.06623,0.35863v1c0,3.28495 -0.37527,5.64911 1.49872,8.4453c0,0 0.5547,0.83205 -0.27735,1.38675c-0.83205,0.5547 -1.38675,-0.27735 -1.38675,-0.27735c-2.1165,-3.19003 -1.83462,-5.86122 -1.83462,-9.5547v-1c0,-0.12639 0.02345,-0.2473 0.06623,-0.35863c0.09746,-0.28687 0.33836,-0.64137 0.93377,-0.64137z" fill="#3a61b7" stroke="none" stroke-width="0.5"/></g></g></svg>