<svg version="1.1" xmlns="http://www.w3.org/2000/svg" xmlns:xlink="http://www.w3.org/1999/xlink" width="480" height="360" viewBox="0,0,480,360"><g data-paper-data="{&quot;isPaintingLayer&quot;:true}" fill-rule="nonzero" stroke-linecap="butt" stroke-linejoin="miter" stroke-miterlimit="10" stroke-dasharray="" stroke-dashoffset="0" style="mix-blend-mode: normal"><path d="M0,88.37908v-88.37908h480v88.37908z" data-paper-data="{&quot;index&quot;:null}" fill="#000000" stroke="#000000" stroke-width="0"/><text transform="translate(11.5,41.11599) scale(0.8193,0.8193)" font-size="40" xml:space="preserve" data-paper-data="{&quot;index&quot;:null}" fill="#ffffff" fill-rule="nonzero" stroke="none" stroke-width="1" stroke-linecap="butt" stroke-linejoin="miter" stroke-miterlimit="10" stroke-dasharray="" stroke-dashoffset="0" font-family="Curly" font-weight="normal" text-anchor="start" style="mix-blend-mode: normal"><tspan x="0" dy="0">Legend of</tspan><tspan x="0" dy="46.150000000000006px">  Dwarf Cards</tspan></text><text transform="translate(223.69898,83.65276) scale(0.40965,0.40965)" font-size="40" xml:space="preserve" data-paper-data="{&quot;index&quot;:null}" fill="#ffffff" fill-rule="nonzero" stroke="none" stroke-width="1" stroke-linecap="butt" stroke-linejoin="miter" stroke-miterlimit="10" stroke-dasharray="" stroke-dashoffset="0" font-family="&quot;Microsoft YaHei&quot;, &quot;微软雅黑&quot;, STXihei, &quot;华文细黑&quot;" font-weight="normal" text-anchor="start" style="mix-blend-mode: normal"><tspan x="0" dy="0">时间</tspan></text><text transform="translate(213.92178,45.84206) scale(0.40965,0.40965)" font-size="40" xml:space="preserve" data-paper-data="{&quot;index&quot;:null}" fill="#ffffff" fill-rule="nonzero" stroke="none" stroke-width="1" stroke-linecap="butt" stroke-linejoin="miter" stroke-miterlimit="10" stroke-dasharray="" stroke-dashoffset="0" font-family="&quot;Microsoft YaHei&quot;, &quot;微软雅黑&quot;, STXihei, &quot;华文细黑&quot;" font-weight="normal" text-anchor="start" style="mix-blend-mode: normal"><tspan x="0" dy="0">BOSS</tspan></text><path d="M0,360v-8.49999h480v8.49999z" data-paper-data="{&quot;index&quot;:null}" fill="#000000" stroke="#000000" stroke-width="0"/><path d="M0,351.50029v-263.12093h34.81818c0,0 -5.04466,-0.18041 -8.82197,3.49762c-3.25003,3.16461 -2.99621,8.57302 -2.99621,8.57302v251.05029z" data-paper-data="{&quot;index&quot;:null}" fill="#000000" stroke="#000000" stroke-width="0"/><path d="M23,88.37792v251.0503c0,0 -0.25382,5.40841 2.99621,8.57301c3.77732,3.67802 8.82197,3.49762 8.82197,3.49762h-34.81818v-263.12093z" data-paper-data="{&quot;index&quot;:null}" fill="#000000" stroke="#000000" stroke-width="0"/><path d="M457,351.50001v-251.05029c0,0 0.25383,-5.40841 -2.99621,-8.57301c-3.77732,-3.67803 -8.82197,-3.49762 -8.82197,-3.49762h34.81818v263.12093z" data-paper-data="{&quot;index&quot;:null}" fill="#000000" stroke="#000000" stroke-width="0"/><path d="M480,88.37764v263.12093h-34.81818c0,0 5.04465,0.18041 8.82197,-3.49762c3.25003,-3.1646 2.99621,-8.57301 2.99621,-8.57301v-251.0503z" data-paper-data="{&quot;index&quot;:null}" fill="#000000" stroke="#000000" stroke-width="0"/></g></svg>