<svg version="1.1" xmlns="http://www.w3.org/2000/svg" xmlns:xlink="http://www.w3.org/1999/xlink" width="102.75" height="135.48407" viewBox="0,0,102.75,135.48407"><g transform="translate(-188.625,-111.95344)"><g data-paper-data="{&quot;isPaintingLayer&quot;:true}" fill-rule="nonzero" stroke-linecap="butt" stroke-linejoin="miter" stroke-miterlimit="10" stroke-dasharray="" stroke-dashoffset="0" style="mix-blend-mode: normal"><path d="M205.36574,193.2542v-62h69.25v62z" fill="#838383" stroke="#000000" stroke-width="0.5"/><path d="M188.87501,239.99899c0,-24.85975 0,-106.41629 0,-120.10869c0,-3.81821 3.36827,-7.07779 7.07398,-7.07779c11.1643,0 68.19615,0 88.21739,0c4.3548,0 6.95862,3.25958 6.95862,7.07779c0,13.65276 0,94.77717 0,119.89131c0,4.67224 -3.47339,7.4059 -7.17602,7.4059c-11.10181,0 -67.52679,0 -87.80435,0c-4.54136,0 -7.26963,-2.64899 -7.26963,-7.18851zM274.51668,193.28751v-62h-69.25v61.99669z" fill="#614537" stroke="#000000" stroke-width="0.5"/><path d="M205.22943,193.31755v-62.06339h69.3245v62.0667z" data-paper-data="{&quot;noHover&quot;:false,&quot;origItem&quot;:[&quot;Path&quot;,{&quot;applyMatrix&quot;:true,&quot;segments&quot;:[[274.51668,193.2875],[274.51668,131.2875],[205.26668,131.2875],[205.26668,193.28419]],&quot;closed&quot;:true,&quot;fillColor&quot;:[0,0,0,1]}]}" fill="#5a61c0" stroke="none" stroke-width="0.5"/><path d="M205.13426,225.36583c0,-24.85975 0.07398,-32.11163 0.07398,-32.11163l69.4075,0.13627c0,0 0,6.64383 0,31.75797c0,4.67224 -3.47339,7.40591 -7.17602,7.40591c-11.10181,0 -34.75827,0 -55.03583,0c-4.54136,0 -7.26963,-2.64899 -7.26963,-7.18852z" fill="#614537" stroke="#000000" stroke-width="0.5"/><text transform="translate(207.36574,203.29745) scale(0.23275,0.23275)" font-size="40" xml:space="preserve" fill="#ffffff" fill-rule="nonzero" stroke="none" stroke-width="1" stroke-linecap="butt" stroke-linejoin="miter" stroke-miterlimit="10" stroke-dasharray="" stroke-dashoffset="0" font-family="&quot;Microsoft YaHei&quot;, &quot;微软雅黑&quot;, STXihei, &quot;华文细黑&quot;" font-weight="normal" text-anchor="start" style="mix-blend-mode: normal"><tspan x="0" dy="0">这股浓厚的魔力</tspan><tspan x="0" dy="48px">能使你回复一半</tspan><tspan x="0" dy="48px">血量。</tspan></text><text transform="translate(207.335,125.96673) scale(0.32665,0.32665)" font-size="40" xml:space="preserve" fill="#ffffff" fill-rule="nonzero" stroke="none" stroke-width="1" stroke-linecap="butt" stroke-linejoin="miter" stroke-miterlimit="10" stroke-dasharray="" stroke-dashoffset="0" font-family="&quot;Microsoft YaHei&quot;, &quot;微软雅黑&quot;, STXihei, &quot;华文细黑&quot;" font-weight="normal" text-anchor="start" style="mix-blend-mode: normal"><tspan x="0" dy="0">浓厚的魔力</tspan></text><path d="M249.24044,149.00711c-0.42126,0.42126 -0.84252,0.34059 -1.11427,0.20652c-0.2628,-0.1173 -0.46571,-0.34466 -0.55011,-0.6235c-1.74632,-0.49209 -2.68129,-1.53622 -4.20633,-2.11803c-1.15357,-0.44009 -2.44958,-0.31609 -3.66746,-0.51904c0,0 -0.98639,-0.1644 -0.82199,-1.15079c0.1644,-0.98639 1.15079,-0.822 1.15079,-0.822c1.41252,0.23547 2.89283,0.21354 4.23775,0.70531c1.33067,0.48656 2.28056,1.64151 3.84038,1.97761l0.98003,0.80544c0.15575,0.10435 0.28056,0.25131 0.35773,0.42421c0.13406,0.27175 0.21473,0.69301 -0.20652,1.11427z" fill="#67acc2" stroke="none" stroke-width="0.5"/><path d="M262.53334,169.63333c0,-0.11746 0.02026,-0.23019 0.05746,-0.33489c-0.05746,-0.18288 -0.05746,-0.33177 -0.05746,-0.33177l0.00007,-0.98759c-0.05989,-2.79868 -1.71379,-5.24263 -3.44761,-7.38771c0,0 -0.62469,-0.78087 0.15618,-1.40556c0.78087,-0.6247 1.40556,0.15617 1.40556,0.15617c2.02106,2.54916 3.79386,5.29547 3.88572,8.61229l0.00008,1.01241c0,0 0,0.14889 -0.05746,0.33177c0.0372,0.1047 0.05746,0.21743 0.05746,0.33489c0,0.55229 -0.44772,1 -1,1c-0.55228,0 -1,-0.44771 -1,-1z" fill="#67acc2" stroke="none" stroke-width="0.5"/><path d="M239.53334,184.3c-0.11586,0 -0.22711,-0.01971 -0.3306,-0.05594c-0.28812,-0.08839 -0.64735,-0.31664 -0.66864,-0.90481c-0.00019,-0.00505 -0.00035,-0.01012 -0.00047,-0.0152c-0.01537,-0.59108 0.33061,-0.84116 0.61353,-0.94676c0.11148,-0.04672 0.23322,-0.07381 0.36089,-0.07698l1.62625,-0.04711c2.79285,-0.39764 5.58012,-0.28653 8.39903,-0.28653c0,0 1,0 1,1c0,1 -1,1 -1,1c-2.76198,0 -5.4919,-0.11297 -8.22742,0.27916l-1.73675,0.05355c-0.01189,0.00042 -0.02383,0.00063 -0.03583,0.00063z" fill="#67acc2" stroke="none" stroke-width="0.5"/><path d="M213.53334,157.96667c0.5954,0 0.83631,0.35451 0.93377,0.64137c0.04279,0.11132 0.06623,0.23224 0.06623,0.35863c0,0.00584 -0.00005,0.01167 -0.00015,0.01749l-0.01276,1.48899c1.57767,4.57726 3.62923,7.82567 7.90095,10.66146c0,0 0.83205,0.5547 0.27735,1.38675c-0.5547,0.83205 -1.38675,0.27735 -1.38675,0.27735c-4.68717,-3.13691 -7.10898,-6.88701 -8.76572,-12.0052l-0.01281,-1.81242c-0.00007,-0.0048 -0.0001,-0.00961 -0.0001,-0.01443c0,-0.12639 0.02345,-0.2473 0.06623,-0.35863c0.09746,-0.28687 0.33836,-0.64137 0.93377,-0.64137z" fill="#67acc2" stroke="none" stroke-width="0.5"/><path d="M233.51713,138.58172c-0.91491,0.27373 -1.61167,1.05666 -2.26821,1.75016c-2.31647,2.44688 -6.14757,4.77543 -6.04891,8.63479c0,0 0,1 -1,1c-1,0 -1,-1 -1,-1c0.0765,-4.49895 5.59919,-10.81593 9.68288,-12.28172l0.49967,-0.26016c0.11539,-0.06396 0.24475,-0.10577 0.38236,-0.11968c0.29462,-0.04159 0.71196,0.01013 0.98049,0.51717c0.01168,0.02143 0.0226,0.04335 0.03272,0.0657c0.24183,0.51784 0.03198,0.88175 -0.17793,1.0917c-0.08937,0.09641 -0.19753,0.17517 -0.31864,0.23047z" fill="#67acc2" stroke="none" stroke-width="0.5"/><path d="M268.57378,153.67377c-0.42126,0.42126 -0.84253,0.34059 -1.11427,0.20652c-0.16721,-0.07463 -0.31016,-0.19381 -0.41378,-0.34246l-0.80764,-0.96448c-0.71039,-2.52748 -2.16492,-3.39653 -3.3093,-5.59307c-0.11502,-0.22077 0.35374,-0.58925 0.14957,-0.73166c-0.41485,-0.28936 -1.08137,0.06812 -1.5025,-0.21202c-0.64396,-0.42835 -0.99337,-1.18571 -1.49005,-1.77857c0,0 -0.62469,-0.78087 0.15618,-1.40556c0.78087,-0.6247 1.40556,0.15617 1.40556,0.15617c0.72341,0.96451 2.11115,1.20301 3.00743,2.00941c0.31647,0.28474 -0.04458,0.88948 0.14958,1.26834c1.07587,2.09928 2.62999,3.2251 3.35241,5.72306c0.27877,0.08443 0.50606,0.2873 0.62333,0.55005c0.13407,0.27175 0.21474,0.69301 -0.20652,1.11427z" fill="#67acc2" stroke="none" stroke-width="0.5"/><path d="M210.4121,174.48941c0.82501,1.40609 1.15114,3.31119 1.92168,4.59052c0.84679,1.40592 2.24759,1.3326 3.46623,2.10183c2.33532,1.4741 5.4536,1.71981 8.32433,2.48534c0,0 0.96624,0.25767 0.70858,1.2239c-0.25767,0.96624 -1.2239,0.70857 -1.2239,0.70857c-4.24492,-1.13198 -10.41048,-1.47164 -13.03787,-5.57459c-0.79642,-1.24371 -1.1045,-3.20222 -1.91656,-4.58105l-0.67316,-1.34507c-0.05829,-0.11062 -0.09647,-0.2335 -0.10963,-0.36377c-0.04159,-0.29462 0.01013,-0.71196 0.51718,-0.98049c0.02143,-0.01168 0.04335,-0.0226 0.0657,-0.03272c0.51784,-0.24183 0.88174,-0.03198 1.09169,0.17793c0.09305,0.08627 0.16967,0.19003 0.22461,0.30605z" fill="#67acc2" stroke="none" stroke-width="0.5"/><path d="M252.82623,186.34044c-0.70711,-0.70711 0,-1.41421 0,-1.41421l1,-1c1.2934,-1.2934 3.43641,-2.5869 4.10772,-4.32016c0.68246,-1.76205 0.26606,-4.109 0.26606,-5.97274c0,0 0,-1 1,-1c1,0 1,1 1,1c0,2.12508 0.41917,4.6889 -0.40061,6.69393c-0.85777,2.09793 -2.99185,3.44608 -4.55895,5.01318l-1,1c0,0 -0.70711,0.70711 -1.41421,0z" fill="#67acc2" stroke="none" stroke-width="0.5"/><path d="M238.3686,157.49824c-3.10262,1.5419 -5.54147,2.49971 -5.50193,6.46842c0,0 0,1 -1,1c-1,0 -1,-1 -1,-1c0.03926,-4.76302 2.70152,-6.28542 6.49807,-8.19824l0.93446,-0.62526c0.10316,-0.07122 0.22037,-0.12356 0.34661,-0.15202c0.28901,-0.07737 0.71111,-0.07537 1.04008,0.4019c0.00984,0.01403 0.01933,0.02832 0.02845,0.04286c0.31116,0.48697 0.14853,0.87677 -0.03436,1.11273c-0.07369,0.1028 -0.16639,0.19106 -0.27295,0.25962z" fill="#67acc2" stroke="none" stroke-width="0.5"/><path d="M242.53334,172.3c0.00058,0 0.00116,0 0.00174,0l0.63207,0.00054c2.52329,-0.08296 4.10233,-0.78884 6.50688,-1.43907c0.77698,-0.21011 2.12621,0.0834 2.31097,-0.7c0.27221,-1.15419 -0.11833,-2.96273 -0.11833,-4.19481c0,0 0,-1 1,-1c1,0 1,1 1,1c0,1.37127 0.40221,3.9644 -0.11833,5.13852c-0.48819,1.10117 -2.7057,1.45418 -3.54808,1.68581c-2.52682,0.69479 -4.28669,1.42033 -6.9674,1.50846l-0.69795,0.00054c-0.00053,0 -0.00105,0 -0.00158,0c-0.12639,0 -0.2473,-0.02345 -0.35863,-0.06623c-0.28686,-0.09747 -0.64137,-0.33836 -0.64137,-0.93377c0,-0.59541 0.35451,-0.8363 0.64137,-0.93377c0.11132,-0.04278 0.23224,-0.06623 0.35863,-0.06623z" fill="#67acc2" stroke="none" stroke-width="0.5"/></g></g></svg>