<svg version="1.1" xmlns="http://www.w3.org/2000/svg" xmlns:xlink="http://www.w3.org/1999/xlink" width="123.49319" height="188.49999" viewBox="0,0,123.49319,188.49999"><g transform="translate(-178.28672,-85.75002)"><g data-paper-data="{&quot;isPaintingLayer&quot;:true}" fill-rule="nonzero" stroke-linecap="butt" stroke-linejoin="miter" stroke-miterlimit="10" stroke-dasharray="" stroke-dashoffset="0" style="mix-blend-mode: normal"><path d="M179.52991,265.28209c1.01465,-9.67169 0.58823,-104.05592 0.58823,-170.2805c0,-4.29918 -0.026,-8.00156 7.29873,-8.00156c7.85657,0 64.9764,0 106.18811,0c3.39124,0 6.92493,2.95801 6.92493,7.36899c0,66.70103 0,161.77655 0,171.50131c0,3.24158 -4.12193,7.12969 -7.51317,7.12969c-10.17372,0 -66.36891,0 -107.3424,0c-2.85708,0 -6.73267,-2.11082 -6.14444,-7.71793z" fill="#3e4979" stroke="#29356a" stroke-width="2.5"/><path d="M197.22767,188.21031c0,-26.91863 0,-58.97048 0,-68.97563c0,-3.33505 5.95497,-8.54565 9.76646,-8.54565c11.43446,0 40.56826,0 66.53402,0c4.04971,0 10.37687,5.58279 10.37687,9.15606c0,25.96576 0,53.67025 0,66.53402c0,4.28793 -6.32716,10.98727 -10.37687,10.98727c0,0 -55.09956,0 -66.53402,0c-3.81149,0 -9.76646,-5.58279 -9.76646,-9.15606z" fill="#29356a" stroke="#29356a" stroke-width="2.5"/><path d="M195.93293,247.28819c0,-17.21919 0,-53.72196 0,-60.12201c0,-2.13335 5.03882,10.20022 9.57377,10.20022c13.60483,0 38.20236,0 69.09665,0c4.81838,0 10.54435,-13.55383 10.54435,-11.26809c0,16.60966 -0.09302,51.45654 -0.09302,59.68517c0,2.74289 -1.85369,6.98177 -6.67207,6.98177c0,0 -60.99982,0.04651 -74.60464,0.04651c-4.53494,0 -7.85279,-3.19907 -7.85279,-5.4848z" fill="#29356a" stroke="#000000" stroke-width="0"/></g></g></svg>