<svg version="1.1" xmlns="http://www.w3.org/2000/svg" xmlns:xlink="http://www.w3.org/1999/xlink" width="201" height="259.55127" viewBox="0,0,201,259.55127"><g transform="translate(-139.5,-48.25)"><g data-paper-data="{&quot;isPaintingLayer&quot;:true}" fill-rule="nonzero" stroke-linejoin="miter" stroke-miterlimit="10" stroke-dasharray="" stroke-dashoffset="0" style="mix-blend-mode: normal"><path d="M144.5,148.75c0,-52.74319 42.7568,-95.5 95.5,-95.5c52.7432,0 95.5,42.75681 95.5,95.5c0,52.7432 -42.7568,95.5 -95.5,95.5c-52.7432,0 -95.5,-42.7568 -95.5,-95.5z" fill="#00133c" stroke="#ffffff" stroke-width="10" stroke-linecap="butt"/><g fill="none" stroke="#ffffff" stroke-width="10" stroke-linecap="round"><path d="M218.375,192.25v-87"/><path d="M261.625,189.25l-41.25,-41.25l39.75,-39.75"/></g><path d="M201.52526,105.11364c0,0 -42.72727,-0.48059 -42.72727,44.14935c0,43.09532 42.72727,43.12338 42.72727,43.12338" fill="none" stroke="#ffffff" stroke-width="10" stroke-linecap="round"/><text transform="translate(174.46641,294.14844) scale(1.09223,1.09223)" font-size="40" xml:space="preserve" fill="#ffffff" fill-rule="nonzero" stroke="none" stroke-width="1" stroke-linecap="butt" stroke-linejoin="miter" stroke-miterlimit="10" stroke-dasharray="" stroke-dashoffset="0" font-family="Sans Serif" font-weight="normal" text-anchor="start" style="mix-blend-mode: normal"><tspan x="0" dy="0">创空星</tspan></text><g fill="none" stroke="#ffffff" stroke-width="10" stroke-linecap="round"><path d="M272.88889,107.38626l40.45455,82.72727"/><path d="M313.34344,107.38626l-40.45454,82.72727" data-paper-data="{&quot;index&quot;:null}"/></g></g></g></svg>