<svg version="1.1" xmlns="http://www.w3.org/2000/svg" xmlns:xlink="http://www.w3.org/1999/xlink" width="122.50002" height="187.5" viewBox="0,0,122.50002,187.5"><defs><radialGradient cx="240.00049" cy="153.99999" r="43.33867" gradientUnits="userSpaceOnUse" id="color-1"><stop offset="0" stop-color="#f8b870"/><stop offset="1" stop-color="#67503a"/></radialGradient></defs><g transform="translate(-178.74949,-86.25)"><g data-paper-data="{&quot;isPaintingLayer&quot;:true}" fill-rule="nonzero" stroke-linejoin="miter" stroke-miterlimit="10" stroke-dasharray="" stroke-dashoffset="0" style="mix-blend-mode: normal"><path d="M179.49951,95.75c0,-5.00052 3.75336,-8.75 8.75,-8.75h103.5c5.00061,0 8.74997,3.74753 8.75,8.75l0.001,168.25c0.00003,4.99939 -3.74669,8.99999 -8.75102,8.99999l-103.5,0.00001c-5.00277,0 -8.75,-4.00317 -8.75,-9z" fill="#823b3c" stroke="#000000" stroke-width="1.5" stroke-linecap="butt"/><path d="M196.11386,187.35775c0,-1.90221 6.28685,10.00867 9.8392,10.00867h68.10253c3.54693,0 9.83913,-11.95542 9.83913,-10.00867c0,10.02674 -0.09151,50.27884 -0.09151,58.42575c0,2.98806 -1.9043,6.98177 -6.56483,6.98177c0,0 -61.17368,0.0465 -74.55983,0.0465c-4.62287,0 -6.57229,-4.08852 -6.57229,-7.02802z" fill="#191919" stroke="#000000" stroke-width="0" stroke-linecap="butt"/><path d="M196.66181,186.96175v-65.923c0,-5.01085 5.38104,-10.3774 10.37714,-10.3774h65.92334c4.98781,0 10.37687,5.3757 10.37687,10.3774v65.923c0,5.01026 -5.36172,10.37695 -10.37687,10.37695h-65.92334c-5.0104,0 -10.37714,-5.37792 -10.37714,-10.37695z" fill="url(#color-1)" stroke="#191919" stroke-width="1" stroke-linecap="butt"/><text transform="translate(225.90258,103.52393) scale(0.36591,0.36591)" font-size="40" xml:space="preserve" fill="#ffffff" fill-rule="nonzero" stroke="#000000" stroke-width="1" stroke-linecap="butt" stroke-linejoin="miter" stroke-miterlimit="10" stroke-dasharray="" stroke-dashoffset="0" font-family="&quot;Microsoft YaHei&quot;, &quot;微软雅黑&quot;, STXihei, &quot;华文细黑&quot;" font-weight="normal" text-anchor="start" style="mix-blend-mode: normal"><tspan x="0" dy="0">迅捷打击</tspan></text><text transform="translate(252.2948,267.85839) scale(0.32654,0.32654)" font-size="40" xml:space="preserve" fill="#ffffff" fill-rule="nonzero" stroke="#000000" stroke-width="1" stroke-linecap="butt" stroke-linejoin="miter" stroke-miterlimit="10" stroke-dasharray="" stroke-dashoffset="0" font-family="&quot;Microsoft YaHei&quot;, &quot;微软雅黑&quot;, STXihei, &quot;华文细黑&quot;" font-weight="normal" text-anchor="start" style="mix-blend-mode: normal"><tspan x="0" dy="0">攻击牌</tspan></text><text transform="translate(189.66398,268.21234) scale(0.2977,0.2977)" font-size="40" xml:space="preserve" fill="#ffffff" fill-rule="nonzero" stroke="#000000" stroke-width="1" stroke-linecap="butt" stroke-linejoin="miter" stroke-miterlimit="10" stroke-dasharray="" stroke-dashoffset="0" font-family="Pixel" font-weight="normal" text-anchor="start" style="mix-blend-mode: normal"><tspan x="0" dy="0">ATTACK</tspan></text><text transform="translate(199.01638,209.68442) scale(0.2134,0.2134)" font-size="40" xml:space="preserve" fill="#ffffff" fill-rule="nonzero" stroke="none" stroke-width="1" stroke-linecap="butt" stroke-linejoin="miter" stroke-miterlimit="10" stroke-dasharray="" stroke-dashoffset="0" font-family="&quot;Microsoft YaHei&quot;, &quot;微软雅黑&quot;, STXihei, &quot;华文细黑&quot;" font-weight="normal" text-anchor="start" style="mix-blend-mode: normal"><tspan x="0" dy="0">　 • 造成    点伤害</tspan><tspan x="0" dy="48px">　 • 抽一张牌</tspan></text><g><path d="M257.86314,164.96382l-17.97988,-19.46068l-0.23737,-6.31375l6.27527,0.73529l17.97988,19.46068z" data-paper-data="{&quot;origRot&quot;:0}" fill-opacity="0.6" fill="#b8dce3" stroke-opacity="0.6" stroke="#000000" stroke-width="1.5" stroke-linecap="butt"/><path d="M240.78693,140.42439l20.09516,21.75017" data-paper-data="{&quot;origRot&quot;:0}" fill="none" stroke-opacity="0.6" stroke="#000000" stroke-width="1.5" stroke-linecap="round"/><path d="M259.57626,163.5587l2.70908,-2.50294l4.85231,5.25194c0,0 -0.16956,1.51933 -0.7967,2.09876c-0.4301,0.39738 -1.91238,0.40419 -1.91238,0.40419z" data-paper-data="{&quot;origRot&quot;:0}" fill-opacity="0.6" fill="#bd752d" stroke-opacity="0.6" stroke="#000000" stroke-width="1.5" stroke-linecap="butt"/><path d="M255.91492,168.69105c0,0 -1.02912,0.17887 -1.33891,-0.15642c-0.19361,-0.20955 0.04903,-1.23969 0.04903,-1.23969l11.58342,-10.70202c0,0 1.29264,-0.35483 1.51917,-0.10965c0.27686,0.29967 -0.22929,1.50577 -0.22929,1.50577z" data-paper-data="{&quot;origRot&quot;:0}" fill-opacity="0.6" fill="#000000" stroke="none" stroke-width="0" stroke-linecap="butt"/></g><g><path d="M244.13546,164.96382l-17.97988,-19.46068l-0.23737,-6.31375l6.27527,0.73529l17.97988,19.46068z" data-paper-data="{&quot;origRot&quot;:0}" fill-opacity="0.6" fill="#b8dce3" stroke-opacity="0.6" stroke="#000000" stroke-width="1.5" stroke-linecap="butt"/><path d="M247.15441,162.17456l-20.09516,-21.75017" data-paper-data="{&quot;origRot&quot;:0}" fill="none" stroke-opacity="0.6" stroke="#000000" stroke-width="1.5" stroke-linecap="round"/><path d="M245.84858,163.5587l2.70908,-2.50294l4.85231,5.25194c0,0 -0.16956,1.51933 -0.7967,2.09876c-0.4301,0.39738 -1.91238,0.40419 -1.91238,0.40419z" data-paper-data="{&quot;origRot&quot;:0}" fill-opacity="0.6" fill="#bd752d" stroke-opacity="0.6" stroke="#000000" stroke-width="1.5" stroke-linecap="butt"/><path d="M242.18724,168.69105c0,0 -1.02912,0.17887 -1.33891,-0.15642c-0.19361,-0.20955 0.04903,-1.23969 0.04903,-1.23969l11.58342,-10.70202c0,0 1.29264,-0.35483 1.51917,-0.10965c0.27686,0.29967 -0.22929,1.50577 -0.22929,1.50577z" data-paper-data="{&quot;origRot&quot;:0}" fill-opacity="0.6" fill="#000000" stroke="none" stroke-width="0" stroke-linecap="butt"/></g><g><path d="M230.40778,164.96382l-17.97988,-19.46068l-0.23737,-6.31375l6.27527,0.73529l17.97988,19.46068z" data-paper-data="{&quot;origRot&quot;:0}" fill="#b7dce3" stroke="#000000" stroke-width="1.5" stroke-linecap="butt"/><path d="M213.33157,140.42439l20.09516,21.75017" data-paper-data="{&quot;origRot&quot;:0}" fill="none" stroke="#000000" stroke-width="1.5" stroke-linecap="round"/><path d="M232.1209,163.5587l2.70908,-2.50294l4.85231,5.25194c0,0 -0.16956,1.51933 -0.7967,2.09876c-0.4301,0.39738 -1.91238,0.40419 -1.91238,0.40419z" data-paper-data="{&quot;origRot&quot;:0}" fill="#bc752d" stroke="#000000" stroke-width="1.5" stroke-linecap="butt"/><path d="M228.45956,168.69105c0,0 -1.02912,0.17887 -1.33891,-0.15642c-0.19361,-0.20955 0.04903,-1.23969 0.04903,-1.23969l11.58342,-10.70202c0,0 1.29264,-0.35483 1.51917,-0.10965c0.27686,0.29967 -0.22929,1.50577 -0.22929,1.50577z" data-paper-data="{&quot;origRot&quot;:0}" fill="#000000" stroke="none" stroke-width="0" stroke-linecap="butt"/></g></g></g></svg>