<svg version="1.1" xmlns="http://www.w3.org/2000/svg" xmlns:xlink="http://www.w3.org/1999/xlink" width="31.98145" height="31.98347" viewBox="0,0,31.98145,31.98347"><g transform="translate(-224.00928,-164.00829)"><g data-paper-data="{&quot;isPaintingLayer&quot;:true}" fill-rule="nonzero" stroke="#000000" stroke-width="1" stroke-linejoin="miter" stroke-miterlimit="10" stroke-dasharray="" stroke-dashoffset="0" style="mix-blend-mode: normal"><path d="M254.20834,194.20836l-28.41667,-28.41667" data-paper-data="{&quot;index&quot;:null}" fill="none" stroke-linecap="round"/><path d="M254.40834,165.79169l-28.41667,28.41667" data-paper-data="{&quot;index&quot;:null}" fill="none" stroke-linecap="round"/><path d="M236.29931,166.10145c2.12796,-2.12796 5.27952,-2.12048 7.39999,0l10.2,10.20001c2.12075,2.12075 2.12306,5.27693 0,7.39999l-10.2,10.2c-2.11784,2.11784 -5.27702,2.12297 -7.39999,0l-10.2,-10.2c-2.1222,-2.1222 -2.11789,-5.28211 0,-7.39999z" data-paper-data="{&quot;index&quot;:null}" fill="#2f7896" stroke-linecap="butt"/><g fill="none"><path d="M243.64184,181.55463c0,0 -3.56525,-4.23588 -5.26232,-7.31662c-1.69706,-3.08074 -1.73333,-5.38283 -1.73333,-5.38283l2.99097,2.62489l6.45722,7.87219z" data-paper-data="{&quot;origPos&quot;:null,&quot;origRot&quot;:0}" stroke-linecap="butt"/><path d="M242.27571,182.88599l3.91122,-3.46676l4.58815,5.04458c0,0 0.27085,1.058 -0.14662,1.09511c-1.14362,0.10165 -2.93039,0.26047 -2.93039,0.26047l-3.91121,-4.26678" data-paper-data="{&quot;origPos&quot;:null}" stroke-linecap="round"/><path d="M248.43827,181.89622l-3.91635,0.32651" data-paper-data="{&quot;origPos&quot;:null}" stroke-linecap="round"/><path d="M249.96138,183.75098l-3.86848,0.29061" data-paper-data="{&quot;origPos&quot;:null}" stroke-linecap="round"/></g><g data-paper-data="{&quot;index&quot;:null}" fill="none"><path d="M234.30564,179.35226l6.45722,-7.87219l2.99097,-2.62489c0,0 -0.03628,2.3021 -1.73333,5.38283c-1.69707,3.08074 -5.26232,7.31662 -5.26232,7.31662z" data-paper-data="{&quot;origPos&quot;:null,&quot;origRot&quot;:0}" stroke-linecap="butt"/><path d="M236.61315,181.55262l-3.91121,4.26678c0,0 -1.78677,-0.15883 -2.93039,-0.26048c-0.41747,-0.03711 -0.14662,-1.09511 -0.14662,-1.09511l4.58815,-5.04458l3.91121,3.46676" data-paper-data="{&quot;origPos&quot;:null}" stroke-linecap="round"/><path d="M231.96174,181.89622l3.91635,0.32651" data-paper-data="{&quot;origPos&quot;:null}" stroke-linecap="round"/><path d="M230.43863,183.75098l3.86848,0.29061" data-paper-data="{&quot;origPos&quot;:null}" stroke-linecap="round"/></g></g></g></svg>