<svg version="1.1" xmlns="http://www.w3.org/2000/svg" xmlns:xlink="http://www.w3.org/1999/xlink" width="102.75" height="135.48413" viewBox="0,0,102.75,135.48413"><g transform="translate(-188.62499,-111.9534)"><g data-paper-data="{&quot;isPaintingLayer&quot;:true}" fill-rule="nonzero" stroke-linejoin="miter" stroke-miterlimit="10" stroke-dasharray="" stroke-dashoffset="0" style="mix-blend-mode: normal"><path d="M205.36574,193.25419v-62h69.25v62z" fill="#dab64c" stroke="#000000" stroke-width="0.5" stroke-linecap="butt"/><path d="M188.875,239.99901c0,-24.85975 0,-106.41629 0,-120.10869c0,-3.81821 3.36827,-7.07779 7.07398,-7.07779c11.1643,0 68.19615,0 88.21739,0c4.3548,0 6.95862,3.25958 6.95862,7.07779c0,13.65276 0,94.77717 0,119.89131c0,4.67224 -3.47339,7.4059 -7.17602,7.4059c-11.10181,0 -67.52679,0 -87.80435,0c-4.54136,0 -7.26963,-2.64899 -7.26963,-7.18851zM274.51667,193.28753v-62h-69.25v61.99669z" fill="#614537" stroke="#000000" stroke-width="0.5" stroke-linecap="butt"/><path d="M205.13426,225.36582c0,-24.85975 0.07398,-32.11163 0.07398,-32.11163l69.4075,0.13627c0,0 0,6.64383 0,31.75797c0,4.67224 -3.47339,7.40591 -7.17602,7.40591c-11.10181,0 -34.75827,0 -55.03583,0c-4.54136,0 -7.26963,-2.64899 -7.26963,-7.18852z" fill="#614537" stroke="#000000" stroke-width="0.5" stroke-linecap="butt"/><text transform="translate(213.868,125.96669) scale(0.32665,0.32665)" font-size="40" xml:space="preserve" fill="#ffffff" fill-rule="nonzero" stroke="none" stroke-width="1" stroke-linecap="butt" stroke-linejoin="miter" stroke-miterlimit="10" stroke-dasharray="" stroke-dashoffset="0" font-family="&quot;Microsoft YaHei&quot;, &quot;微软雅黑&quot;, STXihei, &quot;华文细黑&quot;" font-weight="normal" text-anchor="start" style="mix-blend-mode: normal"><tspan x="0" dy="0">卡牌商店</tspan></text><text transform="translate(207.36574,203.29744) scale(0.23275,0.23275)" font-size="40" xml:space="preserve" fill="#ffffff" fill-rule="nonzero" stroke="none" stroke-width="1" stroke-linecap="butt" stroke-linejoin="miter" stroke-miterlimit="10" stroke-dasharray="" stroke-dashoffset="0" font-family="&quot;Microsoft YaHei&quot;, &quot;微软雅黑&quot;, STXihei, &quot;华文细黑&quot;" font-weight="normal" text-anchor="start" style="mix-blend-mode: normal"><tspan x="0" dy="0">购买更多卡牌！</tspan></text><path d="M223.99999,164.00003c0,-8.83656 7.16344,-16 16,-16c8.83656,0 16,7.16344 16,16c0,8.83656 -7.16344,16 -16,16c-8.83656,0 -16,-7.16344 -16,-16z" fill="#dab64c" stroke="#e8d950" stroke-width="2" stroke-linecap="butt"/><path d="M239.65489,162.24033c3.92157,2.36857 8.52768,5.67688 5.93333,10.26424c-1.93738,3.4257 -9.17963,4.32914 -11.83333,0.33333c-2.65371,-3.99581 5.91666,-10.58333 5.91666,-10.58333c0,0 -7.17727,-4.53829 -6.08333,-6.41667c4.89786,-7.45045 13.16667,0 13.16667,0" fill="none" stroke="#e8d950" stroke-width="2" stroke-linecap="round"/></g></g></svg>