<svg version="1.1" xmlns="http://www.w3.org/2000/svg" xmlns:xlink="http://www.w3.org/1999/xlink" width="57.09185" height="42.63637" viewBox="0,0,57.09185,42.63637"><g transform="translate(-202.57103,-158.68182)"><g data-paper-data="{&quot;isPaintingLayer&quot;:true}" fill-rule="nonzero" stroke-linecap="butt" stroke-linejoin="miter" stroke-miterlimit="10" stroke-dasharray="" stroke-dashoffset="0" style="mix-blend-mode: normal"><path d="M259.16288,159.18183v41.63637h-55.90909l13.18182,-41.63637z" data-paper-data="{&quot;index&quot;:null}" fill="#9cb7b0" stroke="#000000" stroke-width="1"/><g fill="#8b8b8b"><path d="M231.19912,173.1971c0,-5.08278 4.32957,-9.20318 9.41235,-9.20318c5.08278,0 8.01812,4.35308 8.15737,9.20318c0.28656,2.41114 -1.41599,5.48161 -2.37857,7.79375c-0.18085,0.43439 -3.0127,5.06458 -4.73867,6.20724c-0.51885,0.34349 -1.01194,0.54028 -1.46027,0.54915c-0.4455,0.00883 -0.84679,-0.37337 -1.18524,-0.76769c-0.17565,-0.20464 4.76656,-8.02729 4.85109,-8.20104c2.13926,-4.39703 1.60119,-10.50908 -3.25359,-10.55782c-4.95489,-0.04531 -5.06519,4.11482 -6.91914,5.44313c-1.25812,0.90141 -2.48533,0.52896 -2.48533,-0.46672z" stroke="#000000" stroke-width="0"/><path d="M238.52992,191.72444c0.73394,-0.48929 4.28323,0.28722 3.45785,1.93796c0.0021,0.03844 0.00317,0.07716 0.00317,0.11613c0,1.15518 -0.93646,2.09163 -2.09163,2.09163c-0.6733,0.42224 -1.42346,-0.19385 -1.83883,-1.09398c-0.10255,-0.1886 -0.17691,-0.39476 -0.21747,-0.61279c-0.23092,-0.90378 -0.10716,-1.90957 0.68691,-2.43895z" stroke="none" stroke-width="0.5"/></g></g></g></svg>