<svg version="1.1" xmlns="http://www.w3.org/2000/svg" xmlns:xlink="http://www.w3.org/1999/xlink" width="129.03952" height="194.39228" viewBox="0,0,129.03952,194.39228"><g transform="translate(-172.74044,-79.85775)"><g data-paper-data="{&quot;isPaintingLayer&quot;:true}" fill-rule="nonzero" stroke-linejoin="miter" stroke-miterlimit="10" stroke-dasharray="" stroke-dashoffset="0" style="mix-blend-mode: normal"><path d="M179.54273,265.19924l0.57547,-152.32264l21.79873,-25.87656c0,0 50.4764,0 91.68811,0c3.39124,0 6.92493,2.95801 6.92493,7.36899c0,66.70103 0,161.77655 0,171.50131c0,3.24158 -4.12193,7.12969 -7.51317,7.12969c-10.17372,0 -66.36891,0 -107.3424,0c-2.85708,0 -6.07723,-1.1605 -6.14444,-7.71793z" fill="#ffca42" stroke="#000000" stroke-width="2.5" stroke-linecap="butt"/><path d="M291.09466,252.81174h-103.1295" fill="none" stroke="#000000" stroke-width="2.5" stroke-linecap="round"/><text transform="translate(252.6504,267.23858) scale(0.32654,0.32654)" font-size="40" xml:space="preserve" fill="#000000" fill-rule="nonzero" stroke="none" stroke-width="1" stroke-linecap="butt" stroke-linejoin="miter" stroke-miterlimit="10" stroke-dasharray="" stroke-dashoffset="0" font-family="&quot;Microsoft YaHei&quot;, &quot;微软雅黑&quot;, STXihei, &quot;华文细黑&quot;" font-weight="normal" text-anchor="start" style="mix-blend-mode: normal"><tspan x="0" dy="0">行动牌</tspan></text><path d="M197.22774,188.21031c0,-26.91863 0,-58.97048 0,-68.97563c0,-3.33505 5.95497,-8.54565 9.76646,-8.54565c11.43446,0 40.56826,0 66.53402,0c4.04971,0 10.37687,5.58279 10.37687,9.15606c0,25.96576 0,53.67025 0,66.53402c0,4.28793 -6.32716,10.98727 -10.37687,10.98727c0,0 -55.09956,0 -66.53402,0c-3.81149,0 -9.76646,-5.58279 -9.76646,-9.15606z" fill="none" stroke="#000000" stroke-width="2.5" stroke-linecap="butt"/><text transform="translate(186.65586,268.41226) scale(0.2977,0.2977)" font-size="40" xml:space="preserve" fill="#000000" fill-rule="nonzero" stroke="none" stroke-width="1" stroke-linecap="butt" stroke-linejoin="miter" stroke-miterlimit="10" stroke-dasharray="" stroke-dashoffset="0" font-family="Pixel" font-weight="normal" text-anchor="start" style="mix-blend-mode: normal"><tspan x="0" dy="0">ACTION</tspan></text><path d="M173.99045,120.23528l32.7902,-39.12753" fill="none" stroke="#000000" stroke-width="2.5" stroke-linecap="round"/><text transform="translate(225.93254,103.52383) scale(0.36591,0.36591)" font-size="40" xml:space="preserve" fill="#000000" fill-rule="nonzero" stroke="#000000" stroke-width="0" stroke-linecap="butt" stroke-linejoin="miter" stroke-miterlimit="10" stroke-dasharray="" stroke-dashoffset="0" font-family="&quot;Microsoft YaHei&quot;, &quot;微软雅黑&quot;, STXihei, &quot;华文细黑&quot;" font-weight="normal" text-anchor="start" style="mix-blend-mode: normal"><tspan x="0" dy="0">仓促治疗</tspan></text><text transform="translate(199.01644,209.6843) scale(0.2134,0.2134)" font-size="40" xml:space="preserve" fill="#000000" fill-rule="nonzero" stroke="none" stroke-width="1" stroke-linecap="butt" stroke-linejoin="miter" stroke-miterlimit="10" stroke-dasharray="" stroke-dashoffset="0" font-family="&quot;Microsoft YaHei&quot;, &quot;微软雅黑&quot;, STXihei, &quot;华文细黑&quot;" font-weight="normal" text-anchor="start" style="mix-blend-mode: normal"><tspan x="0" dy="0">　 • 恢复    点血量</tspan><tspan x="0" dy="48px">　 • 抽一张牌</tspan></text></g></g></svg>