<svg version="1.1" xmlns="http://www.w3.org/2000/svg" xmlns:xlink="http://www.w3.org/1999/xlink" width="29.39096" height="29.39096" viewBox="0,0,29.39096,29.39096"><g transform="translate(-225.30452,-165.30452)"><g data-paper-data="{&quot;isPaintingLayer&quot;:true}" fill-rule="nonzero" stroke-width="1" stroke-linejoin="miter" stroke-miterlimit="10" stroke-dasharray="" stroke-dashoffset="0" style="mix-blend-mode: normal"><path d="M225.80452,180c0,-7.83995 6.35553,-14.19548 14.19548,-14.19548c7.83995,0 14.19548,6.35553 14.19548,14.19548c0,7.83995 -6.35553,14.19548 -14.19548,14.19548c-7.83995,0 -14.19548,-6.35553 -14.19548,-14.19548z" fill="#969787" stroke="#000000" stroke-linecap="butt"/><g><path d="M242.09638,185.55852l-9.11559,-9.86634l-0.12035,-3.201l3.18149,0.37278l9.11559,9.86634z" data-paper-data="{&quot;origRot&quot;:0}" fill="#b7dce3" stroke="#000000" stroke-linecap="butt"/><path d="M243.62695,184.1444l-10.18801,-11.02709" data-paper-data="{&quot;origRot&quot;:0}" fill="none" stroke="#000000" stroke-linecap="round"/><path d="M242.96492,184.84614l1.37347,-1.26897l2.46006,2.66267c0,0 -0.08596,0.77028 -0.40392,1.06405c-0.21805,0.20147 -0.96955,0.20492 -0.96955,0.20492z" data-paper-data="{&quot;origRot&quot;:0}" fill="#bc752d" stroke="#000000" stroke-linecap="butt"/><path d="M241.10866,187.44818c0,0 -0.52176,0.09069 -0.67881,-0.0793c-0.09816,-0.10625 0.02486,-0.6285 0.02486,-0.6285l5.87266,-5.4258c0,0 0.65535,-0.1799 0.7702,-0.05559c0.14037,0.15193 -0.11624,0.76341 -0.11624,0.76341z" data-paper-data="{&quot;origRot&quot;:0}" fill="#000000" stroke="none" stroke-linecap="butt"/></g></g></g></svg>