<svg version="1.1" xmlns="http://www.w3.org/2000/svg" xmlns:xlink="http://www.w3.org/1999/xlink" width="130.97272" height="195.99999" viewBox="0,0,130.97272,195.99999"><g transform="translate(-174.55719,-82.00002)"><g data-paper-data="{&quot;isPaintingLayer&quot;:true}" fill="none" fill-rule="nonzero" stroke-linejoin="miter" stroke-miterlimit="10" stroke-dasharray="" stroke-dashoffset="0" style="mix-blend-mode: normal"><path d="M179.52992,265.28208c1.01465,-9.67169 0.58823,-104.05592 0.58823,-170.2805c0,-4.29918 -0.026,-8.00156 7.29873,-8.00156c7.85657,0 64.9764,0 106.18811,0c3.39124,0 6.92493,2.95801 6.92493,7.36899c0,66.70103 0,161.77655 0,171.50131c0,3.24158 -4.12193,7.12969 -7.51317,7.12969c-10.17372,0 -66.36891,0 -107.3424,0c-2.85708,0 -6.73267,-2.11082 -6.14444,-7.71793z" stroke-opacity="0.14902" stroke="#fff59e" stroke-width="10" stroke-linecap="butt"/><path d="M291.09466,252.81175h-103.1295" stroke-opacity="0.14902" stroke="#fff59e" stroke-width="10" stroke-linecap="round"/><path d="M197.22768,188.2103c0,-26.91863 0,-58.97048 0,-68.97563c0,-3.33505 5.95497,-8.54565 9.76646,-8.54565c11.43446,0 40.56826,0 66.53402,0c4.04971,0 10.37687,5.58279 10.37687,9.15606c0,25.96576 0,53.67025 0,66.53402c0,4.28793 -6.32716,10.98727 -10.37687,10.98727c0,0 -55.09956,0 -66.53402,0c-3.81149,0 -9.76646,-5.58279 -9.76646,-9.15606z" stroke-opacity="0.14902" stroke="#fff59e" stroke-width="10" stroke-linecap="butt"/><path d="M179.52991,265.28208c1.01465,-9.67169 0.58823,-104.05592 0.58823,-170.2805c0,-4.29918 -0.026,-8.00156 7.29873,-8.00156c7.85657,0 64.9764,0 106.18811,0c3.39124,0 6.92493,2.95801 6.92493,7.36899c0,66.70103 0,161.77655 0,171.50131c0,3.24158 -4.12193,7.12969 -7.51317,7.12969c-10.17372,0 -66.36891,0 -107.3424,0c-2.85708,0 -6.73267,-2.11082 -6.14444,-7.71793z" stroke-opacity="0.30196" stroke="#fff59e" stroke-width="7.5" stroke-linecap="butt"/><path d="M291.09465,252.81174h-103.1295" stroke-opacity="0.30196" stroke="#fff59e" stroke-width="7.5" stroke-linecap="round"/><path d="M197.22767,188.21029c0,-26.91863 0,-58.97048 0,-68.97563c0,-3.33505 5.95497,-8.54565 9.76646,-8.54565c11.43446,0 40.56826,0 66.53402,0c4.04971,0 10.37687,5.58279 10.37687,9.15606c0,25.96576 0,53.67025 0,66.53402c0,4.28793 -6.32716,10.98727 -10.37687,10.98727c0,0 -55.09956,0 -66.53402,0c-3.81149,0 -9.76646,-5.58279 -9.76646,-9.15606z" stroke-opacity="0.30196" stroke="#fff59e" stroke-width="7.5" stroke-linecap="butt"/><path d="M179.52991,265.28209c1.01465,-9.67169 0.58823,-104.05592 0.58823,-170.2805c0,-4.29918 -0.026,-8.00156 7.29873,-8.00156c7.85657,0 64.9764,0 106.18811,0c3.39124,0 6.92493,2.95801 6.92493,7.36899c0,66.70103 0,161.77655 0,171.50131c0,3.24158 -4.12193,7.12969 -7.51317,7.12969c-10.17372,0 -66.36891,0 -107.3424,0c-2.85708,0 -6.73267,-2.11082 -6.14444,-7.71793z" stroke-opacity="0.50196" stroke="#fff59e" stroke-width="5" stroke-linecap="butt"/><path d="M291.09465,252.81176h-103.1295" stroke-opacity="0.50196" stroke="#fff59e" stroke-width="5" stroke-linecap="round"/><path d="M197.22767,188.21031c0,-26.91863 0,-58.97048 0,-68.97563c0,-3.33505 5.95497,-8.54565 9.76646,-8.54565c11.43446,0 40.56826,0 66.53402,0c4.04971,0 10.37687,5.58279 10.37687,9.15606c0,25.96576 0,53.67025 0,66.53402c0,4.28793 -6.32716,10.98727 -10.37687,10.98727c0,0 -55.09956,0 -66.53402,0c-3.81149,0 -9.76646,-5.58279 -9.76646,-9.15606z" stroke-opacity="0.50196" stroke="#fff59e" stroke-width="5" stroke-linecap="butt"/><path d="M179.52991,265.28209c1.01465,-9.67169 0.58823,-104.05592 0.58823,-170.2805c0,-4.29918 -0.026,-8.00156 7.29873,-8.00156c7.85657,0 64.9764,0 106.18811,0c3.39124,0 6.92493,2.95801 6.92493,7.36899c0,66.70103 0,161.77655 0,171.50131c0,3.24158 -4.12193,7.12969 -7.51317,7.12969c-10.17372,0 -66.36891,0 -107.3424,0c-2.85708,0 -6.73267,-2.11082 -6.14444,-7.71793z" stroke="#fff69e" stroke-width="2.5" stroke-linecap="butt"/><path d="M291.09465,252.81174h-103.1295" stroke="#fff69e" stroke-width="2.5" stroke-linecap="round"/><path d="M197.22767,188.21031c0,-26.91863 0,-58.97048 0,-68.97563c0,-3.33505 5.95497,-8.54565 9.76646,-8.54565c11.43446,0 40.56826,0 66.53402,0c4.04971,0 10.37687,5.58279 10.37687,9.15606c0,25.96576 0,53.67025 0,66.53402c0,4.28793 -6.32716,10.98727 -10.37687,10.98727c0,0 -55.09956,0 -66.53402,0c-3.81149,0 -9.76646,-5.58279 -9.76646,-9.15606z" stroke="#fff69e" stroke-width="2.5" stroke-linecap="butt"/></g></g></svg>