<svg version="1.1" xmlns="http://www.w3.org/2000/svg" xmlns:xlink="http://www.w3.org/1999/xlink" width="122.50002" height="187.5" viewBox="0,0,122.50002,187.5"><defs><radialGradient cx="240.00049" cy="153.99999" r="43.33867" gradientUnits="userSpaceOnUse" id="color-1"><stop offset="0" stop-color="#f8b870"/><stop offset="1" stop-color="#67503a"/></radialGradient></defs><g transform="translate(-178.74949,-86.25)"><g data-paper-data="{&quot;isPaintingLayer&quot;:true}" fill-rule="nonzero" stroke-linejoin="miter" stroke-miterlimit="10" stroke-dasharray="" stroke-dashoffset="0" style="mix-blend-mode: normal"><path d="M179.49951,95.75c0,-5.00052 3.75336,-8.75 8.75,-8.75h103.5c5.00061,0 8.74997,3.74753 8.75,8.75l0.001,168.25c0.00003,4.99939 -3.74669,8.99999 -8.75102,8.99999l-103.5,0.00001c-5.00277,0 -8.75,-4.00317 -8.75,-9z" fill="#823b3c" stroke="#000000" stroke-width="1.5" stroke-linecap="butt"/><path d="M196.11386,187.35775c0,-1.90221 6.28685,10.00867 9.8392,10.00867h68.10253c3.54693,0 9.83913,-11.95542 9.83913,-10.00867c0,10.02674 -0.09151,50.27884 -0.09151,58.42575c0,2.98806 -1.9043,6.98177 -6.56483,6.98177c0,0 -61.17368,0.0465 -74.55983,0.0465c-4.62287,0 -6.57229,-4.08852 -6.57229,-7.02802z" fill="#191919" stroke="#000000" stroke-width="0" stroke-linecap="butt"/><path d="M196.66181,186.96175v-65.923c0,-5.01085 5.38104,-10.3774 10.37714,-10.3774h65.92334c4.98781,0 10.37687,5.3757 10.37687,10.3774v65.923c0,5.01026 -5.36172,10.37695 -10.37687,10.37695h-65.92334c-5.0104,0 -10.37714,-5.37792 -10.37714,-10.37695z" fill="url(#color-1)" stroke="#191919" stroke-width="1" stroke-linecap="butt"/><text transform="translate(225.90258,103.52393) scale(0.36591,0.36591)" font-size="40" xml:space="preserve" fill="#ffffff" fill-rule="nonzero" stroke="#000000" stroke-width="1" stroke-linecap="butt" stroke-linejoin="miter" stroke-miterlimit="10" stroke-dasharray="" stroke-dashoffset="0" font-family="&quot;Microsoft YaHei&quot;, &quot;微软雅黑&quot;, STXihei, &quot;华文细黑&quot;" font-weight="normal" text-anchor="start" style="mix-blend-mode: normal"><tspan x="0" dy="0">普通弓击</tspan></text><text transform="translate(252.2948,267.85839) scale(0.32654,0.32654)" font-size="40" xml:space="preserve" fill="#ffffff" fill-rule="nonzero" stroke="#000000" stroke-width="1" stroke-linecap="butt" stroke-linejoin="miter" stroke-miterlimit="10" stroke-dasharray="" stroke-dashoffset="0" font-family="&quot;Microsoft YaHei&quot;, &quot;微软雅黑&quot;, STXihei, &quot;华文细黑&quot;" font-weight="normal" text-anchor="start" style="mix-blend-mode: normal"><tspan x="0" dy="0">攻击牌</tspan></text><text transform="translate(189.66398,268.21234) scale(0.2977,0.2977)" font-size="40" xml:space="preserve" fill="#ffffff" fill-rule="nonzero" stroke="#000000" stroke-width="1" stroke-linecap="butt" stroke-linejoin="miter" stroke-miterlimit="10" stroke-dasharray="" stroke-dashoffset="0" font-family="Pixel" font-weight="normal" text-anchor="start" style="mix-blend-mode: normal"><tspan x="0" dy="0">ATTACK</tspan></text><text transform="translate(199.01638,209.68442) scale(0.2134,0.2134)" font-size="40" xml:space="preserve" fill="#ffffff" fill-rule="nonzero" stroke="none" stroke-width="1" stroke-linecap="butt" stroke-linejoin="miter" stroke-miterlimit="10" stroke-dasharray="" stroke-dashoffset="0" font-family="&quot;Microsoft YaHei&quot;, &quot;微软雅黑&quot;, STXihei, &quot;华文细黑&quot;" font-weight="normal" text-anchor="start" style="mix-blend-mode: normal"><tspan x="0" dy="0">　 • 造成    点伤害</tspan></text><path d="M232.47804,177.53502c-0.35356,-0.35356 0,-0.7071 0,-0.7071l0.42794,-0.39512c3.20479,-1.66248 5.89946,-4.44794 8.4614,-6.94454c4.28704,-4.16497 6.52225,-9.18548 6.52225,-15.18626c0,0 0,-0.5 0.5,-0.5c0.5,0 0.5,0.5 0.5,0.5c0,0 0,0.5 -0.5,0.5c-0.5,0 -0.5,-0.5 -0.5,-0.5v-0.13541c0,-2.22288 -0.10321,-4.24896 -0.5204,-6.43913c-1.12298,-5.92835 -4.41477,-11.02437 -5.87092,-16.79377c0,0 -0.12127,-0.48507 0.3638,-0.60634c0.48507,-0.12127 0.60634,0.3638 0.60634,0.3638c1.43249,5.79092 4.74479,10.90246 5.88312,16.84921c0.42838,2.24959 0.53805,4.34351 0.53805,6.62623v0.13541c0,6.28418 -2.35328,11.53116 -6.82434,15.90244c-2.63514,2.56786 -5.40576,5.39987 -8.69797,7.11558l-0.18218,0.215c0,0 -0.35355,0.35356 -0.7071,0z" fill="#000000" stroke="none" stroke-width="0.5" stroke-linecap="butt"/><path d="M234.66194,175.65616l-8.23661,-21.65922l15.8631,-21.96428" fill="none" stroke="#191919" stroke-width="0.5" stroke-linecap="round"/><path d="M252.66046,156.74249l-25.625,-2.74554" fill="none" stroke="#191919" stroke-width="0.5" stroke-linecap="round"/><path d="M252.05034,153.69189l1.22024,3.35565l-2.13542,2.13542" fill="none" stroke="#191919" stroke-width="0.5" stroke-linecap="round"/></g></g></svg>