<svg version="1.1" xmlns="http://www.w3.org/2000/svg" xmlns:xlink="http://www.w3.org/1999/xlink" width="186.00001" height="230" viewBox="0,0,186.00001,230"><g transform="translate(-242.5,-53.75)"><g data-paper-data="{&quot;isPaintingLayer&quot;:true}" fill-rule="nonzero" stroke-linecap="butt" stroke-linejoin="miter" stroke-miterlimit="10" stroke-dasharray="" stroke-dashoffset="0" style="mix-blend-mode: normal"><path d="M245,281.25v-225h181.00001v225z" data-paper-data="{&quot;index&quot;:null}" fill="none" stroke="#ffffff" stroke-width="5"/><path d="M245,281.25v-225h181.00001v225z" data-paper-data="{&quot;index&quot;:null}" fill="none" stroke="#cccccc" stroke-width="4"/><path d="M245,281.25v-225h181.00001v225z" data-paper-data="{&quot;index&quot;:null}" fill="none" stroke="#7f7f7f" stroke-width="3"/><path d="M245,281.25v-225h181.00001v225z" data-paper-data="{&quot;index&quot;:null}" fill="none" stroke="#4d4d4d" stroke-width="2"/><path d="M245,281.25v-225h181.00001v225z" data-paper-data="{&quot;index&quot;:null}" fill="#8d9e9b" stroke="#000000" stroke-width="1"/><path d="" data-paper-data="{&quot;index&quot;:null}" fill="#000000" stroke="none" stroke-width="0.5"/><path d="M350.86755,152.82558c-0.14068,-0.6062 -0.15723,-1.64069 1.07754,-2.25808c0.33538,-0.16769 0.63999,-0.24307 0.91383,-0.25436c0,-2.2532 0,-4.60175 0,-6.50018c0,-2.81235 0.56908,-6.5599 -0.94814,-9.18809c-0.70868,-1.22761 -2.18172,-1.82795 -3.39554,-2.56001c-1.60796,-0.96978 -2.50241,-2.0004 -3.7928,-3.30569l-1.074,-0.48772c-2.29626,0.34342 -2.12636,1.12716 -2.71975,3.43392c0,0 -0.2839,0.99364 -1.15454,1.36578l-0.03255,1.33433c-0.66222,3.22249 0.619,9.9458 -3.67621,11.2447c0.00198,0.00776 0.00407,0.01547 0.00626,0.02314c-0.26733,0.12851 -0.54733,0.20233 -0.8489,0.18302c-0.05835,-0.00374 -0.11595,-0.00823 -0.17279,-0.01347c-0.05684,0.00524 -0.11444,0.00973 -0.17279,0.01347c-0.30157,0.01931 -0.58157,-0.05451 -0.8489,-0.18302c0.0022,-0.00767 0.00429,-0.01538 0.00626,-0.02314c-4.29521,-1.29889 -3.014,-8.0222 -3.67621,-11.2447l-0.03255,-1.33433c-0.87064,-0.37214 -1.15454,-1.36578 -1.15454,-1.36578c-0.59338,-2.30676 -0.42348,-3.0905 -2.71975,-3.43392l-1.074,0.48772c-1.29039,1.30529 -2.18483,2.33592 -3.7928,3.30569c-1.21381,0.73206 -2.68685,1.3324 -3.39554,2.56001c-1.51722,2.62819 -0.94814,6.37574 -0.94814,9.18809c0,2.41097 0,5.54791 0,8.29355c0.56944,0.26096 0.90851,0.73565 0.90851,0.73565c1.48733,2.08324 3.74919,6.51605 6.42269,7.4524c0.8435,0.29542 1.79143,0.12923 2.65913,0.34341c2.44943,0.60462 5.68441,1.99603 8.32641,1.23086c0.70014,-0.20277 1.17584,-0.89043 1.85199,-1.1627c1.50332,-0.60535 3.04606,-1.10776 4.56912,-1.66157c2.03404,-0.73961 3.72136,-1.14466 5.53577,-2.53856c1.27069,-0.97619 2.28252,-2.40472 3.35291,-3.68043zM350.02967,159.72721c-2.12457,1.66793 -4.30945,2.30466 -6.72451,3.18291c-1.4739,0.53599 -2.96432,1.02854 -4.42175,1.60783c-0.7992,0.31766 -1.40255,1.07249 -2.23477,1.28936c-3.46324,0.9025 -7.22992,-0.40106 -10.47267,-1.22119c-1.0014,-0.25326 -2.10636,-0.0827 -3.06233,-0.47394c-2.84725,-1.16525 -4.89499,-3.94261 -6.69337,-6.5726c-0.53503,2.4771 -1.57429,5.92566 -3.8463,5.87603c-1.73496,-0.0379 -2.89486,-1.91463 -4.34229,-2.87195l-1.06141,-2.48549c0,0 -0.07627,-0.19068 -0.12,-0.47531c-1.25217,-0.44408 -1.25217,-1.91828 -1.25217,-1.91828c0,-2.1796 0,-4.76789 0,-6.94749c0,0 0,-0.64069 0.35876,-1.20456c-0.76743,-0.59249 -0.76743,-1.65617 -0.76743,-1.65617c0,-2.86073 0,-6.94749 0,-9.80822c0,0 0,-1.07014 0.77444,-1.66154c-1.44305,-1.05949 -0.48324,-2.65917 -0.48324,-2.65917c1.30891,-2.1783 2.32562,-4.50998 3.73457,-6.62769c1.18406,-1.77969 2.28511,-2.92159 3.06787,-4.93149l0.35283,-1.06919c-0.59517,-1.63442 1.03925,-2.45163 1.03925,-2.45163c2.81618,-1.40183 5.81469,-2.9425 8.86499,-3.70602c0.11228,-0.10267 0.22576,-0.1867 0.32734,-0.25318c0.16352,-0.10863 0.38147,-0.22777 0.63626,-0.30475c2.65304,-1.03301 5.47428,-1.88333 8.25755,-2.45091l2.03544,-0.03968c0,0 0.5321,0 1.05324,0.27153c0.52114,-0.27153 1.05324,-0.27153 1.05324,-0.27153l2.03544,0.03968c2.78327,0.56757 5.60451,1.41789 8.25755,2.45091c0.2548,0.07698 0.47274,0.19612 0.63626,0.30475c0.10158,0.06649 0.21506,0.15052 0.32734,0.25318c3.0503,0.76352 6.04881,2.30419 8.86499,3.70602c0,0 1.63442,0.81721 1.03925,2.45163l0.35283,1.06919c0.78276,2.0099 1.88381,3.1518 3.06787,4.93149c1.40895,2.1177 2.42565,4.44939 3.73457,6.62769c0,0 0.95981,1.59968 -0.48324,2.65917c0.77444,0.59141 0.77444,1.66154 0.77444,1.66154c0,2.86073 0,6.94749 0,9.80822c0,0 0,1.06368 -0.76743,1.65617c0.35876,0.56387 0.35876,1.20456 0.35876,1.20456c0,2.1796 0,4.76789 0,6.94749c0,0 0,1.47421 -1.25217,1.91828c-0.04373,0.28464 -0.12,0.47531 -0.12,0.47531l-1.06141,2.48549c-1.44743,0.95732 -2.60734,2.83405 -4.34229,2.87195c-2.76322,0.06037 -3.70303,-5.05364 -4.12998,-7.30131c-1.06343,1.26636 -2.0717,2.59657 -3.3663,3.61292zM333.99673,113.97962l-1.23396,-0.03968c-2.61649,0.51103 -5.32576,1.3387 -7.79819,2.33863l-0.784,0.5221c-2.45023,0.44617 -5.01846,1.74116 -7.352,2.93052c-0.01526,0.35857 -0.10108,0.61606 -0.10108,0.61606l-0.44996,1.33875c-1.7006,4.16495 -4.75943,8.25011 -7.09254,12.14401c0,0 -0.16995,0.28325 -0.48706,0.55364c0.77826,0.5908 0.77826,1.66445 0.77826,1.66445c0,2.86073 0,6.94749 0,9.80822c0,0 0,0.6407 -0.35876,1.20457c0.76743,0.59249 0.76743,1.65616 0.76743,1.65616c0,2.08463 0,4.57795 0,6.66258c0.7553,0.34927 1.07988,1.16072 1.07988,1.16072l0.57329,1.60126c0.07493,0.16202 0.15776,0.32094 0.23901,0.48048c0.18954,-1.28308 0.75598,-2.49238 1.00822,-3.76697c0,0 0.08432,-0.4216 0.36899,-0.83934v-0.8033c0,-4.49542 -0.00706,-8.99089 0,-13.4863c0.00387,-2.46274 0.16542,-4.97804 1.50391,-7.15894c1.87611,-3.05688 5.35064,-4.31307 7.91216,-6.7844c0.16274,-0.18453 0.34353,-0.32517 0.49713,-0.42571c0.17953,-0.11926 0.42466,-0.2512 0.71214,-0.3261l2.23267,-0.8227c1.20222,0.20777 2.51578,0.07699 3.60667,0.62332c2.71883,1.36162 2.70294,3.20637 3.4818,5.75098c0,0 0.03052,0.10682 0.05242,0.27776c1.25223,0.44405 1.25223,1.9183 1.25223,1.9183l-0.03968,0.82529c0.31441,1.60845 0.45859,3.25732 0.44835,4.89617c-0.00345,0.55245 -0.11303,1.10978 -0.03687,1.65696c0.0375,0.26937 0.16028,0.51657 0.27275,0.76722c0.11248,-0.25065 0.23526,-0.49784 0.27275,-0.76722c0.07616,-0.54718 -0.03342,-1.10452 -0.03687,-1.65696c-0.01024,-1.63886 0.13394,-3.28773 0.44835,-4.89617l-0.03968,-0.82529c0,0 0,-1.47425 1.25223,-1.9183c0.0219,-0.17094 0.05242,-0.27776 0.05242,-0.27776c0.77886,-2.54461 0.76297,-4.38936 3.4818,-5.75098c1.09089,-0.54633 2.40445,-0.41555 3.60667,-0.62332l2.23267,0.8227c0.28748,0.0749 0.53261,0.20683 0.71214,0.3261c0.1536,0.10053 0.33439,0.24118 0.49713,0.42571c2.56152,2.47134 6.03605,3.72752 7.91216,6.7844c1.33849,2.1809 1.50005,4.6962 1.50391,7.15894c0.00706,4.49541 0,8.99088 0,13.4863v0.8033c0.28468,0.41774 0.36899,0.83934 0.36899,0.83934c0.25224,1.27459 0.81869,2.48389 1.00822,3.76697c0.08125,-0.15954 0.16408,-0.31846 0.23901,-0.48048l0.57329,-1.60126c0,0 0.32458,-0.81145 1.07988,-1.16072c0,-2.08463 0,-4.16927 0,-6.25391v-0.40868c0,0 0,-1.06367 0.76743,-1.65616c-0.35876,-0.56387 -0.35876,-1.20457 -0.35876,-1.20457c0,-2.86073 0,-5.72146 0,-8.58219v-1.22603c0,0 0,-1.07366 0.77826,-1.66445c-0.31712,-0.2704 -0.48706,-0.55364 -0.48706,-0.55364c-2.33311,-3.8939 -5.39193,-7.97906 -7.09254,-12.14401l-0.44996,-1.33875c0,0 -0.08583,-0.25749 -0.10108,-0.61606c-2.33355,-1.18937 -4.90178,-2.48436 -7.352,-2.93052l-0.784,-0.5221c-2.47243,-0.99994 -5.1817,-1.8276 -7.79819,-2.33863l-1.23396,0.03968c0,0 -0.5321,0 -1.05324,-0.27153c-0.52114,0.27153 -1.05324,0.27153 -1.05324,0.27153z" data-paper-data="{&quot;index&quot;:null}" fill="#000000" stroke="none" stroke-width="0.5"/><path d="M375.74476,180.79812c1.31615,1.75487 2.17392,3.66408 3.3406,5.41395c1.27303,1.90938 2.9453,1.50598 3.18069,4.5359c0.32395,4.16981 -2.85744,6.18696 -5.7965,8.09737c-2.27787,1.48063 -3.53613,2.9778 -6.54272,1.76216c-0.82676,-0.33428 -1.11257,-1.40113 -1.75709,-2.01747c-1.98478,-1.898 -3.06486,-3.39451 -3.86777,-5.35983c0.03388,0.61854 -0.15237,1.47686 -1.28461,1.92975c-1.89723,0.75889 -2.65612,-1.13834 -2.65612,-1.13834l-0.61184,-1.63943c-0.02045,-0.02707 -0.03997,-0.05411 -0.0586,-0.0811c-1.40575,-1.37251 -2.4603,-3.16589 -4.00263,-4.37525c-1.77196,-1.38941 -3.88063,-1.69547 -6.0259,-2.04708c0,0 -0.08509,-0.01418 -0.21738,-0.05419c-0.17217,0.12558 -0.32327,0.26823 -0.41959,0.45529c-0.4503,0.87456 0.33162,1.93947 0.52454,2.90405c0.43592,2.17961 0.76728,3.21933 0.42197,5.63217c-0.12504,0.8737 -0.65435,1.64959 -0.82855,2.51483c-1.26295,6.27312 0.33398,13.27198 -3.37704,18.84561c-0.20677,0.53078 -0.60288,0.82641 -0.97998,0.99107c-0.13915,0.07886 -0.29584,0.14814 -0.46764,0.19439c0.45456,0.66393 0.35104,1.4921 0.35104,1.4921c-0.2119,1.6782 -0.39638,3.36782 -0.3929,5.05933v1.08488c0.47327,3.36686 1.22603,6.05824 1.22603,9.54069v0.40868c0,0 0,0.00284 -0.00011,0.00829c0.07752,0.09966 0.11758,0.16643 0.11758,0.16643c1.34136,2.26948 1.62281,4.7613 2.88989,6.99769c0.69138,1.22028 1.52249,2.37587 2.04338,3.67808l1.07939,1.40978c0,0 0.51576,0.68767 0.43222,1.5055c1.37666,1.24683 2.80259,2.51863 3.21589,4.48023c0.19408,0.92112 -0.24875,1.86693 -0.41838,2.79287c-0.15235,0.83161 -0.1976,1.70679 -0.54696,2.47669c-3.26291,7.19052 -10.56354,4.51898 -16.41873,3.64608c-1.164,-0.17353 -2.48174,0.34442 -3.52489,-0.20041c-2.70542,-1.41304 -2.27268,-3.14632 -2.35332,-5.44471c-0.00071,-0.0203 -0.00146,-0.04064 -0.00226,-0.06103c0,0 0,-0.51084 0.25542,-1.02169l0.15325,-0.61301c1.08913,-1.42584 2.255,-2.35007 3.24747,-3.64805c-0.56376,-0.22166 -1.20409,-0.7252 -1.20409,-1.86907c0,-0.23336 0.02665,-0.44007 0.07386,-0.62317l-0.37768,-0.77404c-0.78219,-2.56568 -2.45223,-3.08294 -3.56972,-5.45883c-0.81161,-1.72557 -1.4365,-3.55673 -1.81105,-5.4265c-0.73892,-3.68861 -0.39192,-7.64992 -0.73476,-11.43146l-0.45539,-0.017c-0.01266,-0.01377 -0.02574,-0.02732 -0.03917,-0.0407c0.09627,1.0597 -0.07347,2.13794 -0.19021,3.19786c-0.14751,1.3393 -0.52648,2.64669 -0.66769,3.98667c-0.52648,4.9962 0.00696,10.33018 0.00696,15.36114c0,0.56062 -0.15381,0.96743 -0.37703,1.26262c0.23719,0.419 0.47437,0.838 0.71156,1.257c0.09518,3.32353 1.11,7.77504 -2.10579,10.039c-0.48586,0.34205 -4.79617,1.06867 -5.41637,1.12506c-4.50453,0.40949 -9.61302,-0.08894 -13.42992,-2.29845c-0.80715,-0.46724 -1.96301,-0.4556 -2.52898,-1.19688c-0.83903,-1.09891 -1.34698,-2.53155 -1.37315,-3.9139c-0.07332,-3.87368 4.43944,-5.41028 6.94661,-7.29615v-1.83904c0,-0.86335 -0.00296,-5.4147 0.01531,-5.56245c0.23608,-1.90888 1.07366,-3.72231 1.21768,-5.64033c0.07536,-1.0037 -0.13575,-2.02502 0.01942,-3.01951c0.80961,-5.18882 4.10567,-9.89588 4.06037,-15.20237c0,0 0,-1.3282 1.07083,-1.84294c-0.02147,-0.04315 -0.04111,-0.08629 -0.0591,-0.12912c-0.18557,-0.34092 -0.31584,-0.78642 -0.19438,-1.2944v-2.04633c0.00871,-3.21844 -0.69056,-6.35879 -0.39873,-9.60089c0.18167,-2.01827 0.4432,-4.03565 0.86872,-6.0169c0.27782,-1.29354 1.05288,-2.47389 1.17466,-3.79132c0.19012,-2.05658 0.08864,-4.20748 0.02664,-6.31528c-1.92863,0.23541 -4.12718,1.7184 -5.74045,2.92504c-0.0166,0.17327 -0.05576,0.35959 -0.12246,0.55968c-0.64617,1.93852 -2.58469,1.29235 -2.58469,1.29235l-0.41252,-0.2645c-1.44862,0.84463 -3.61381,2.0603 -4.28221,3.06237c-1.46093,2.19025 -1.93733,6.06015 -5.42542,6.48456c-3.05988,0.3723 -4.69593,-2.52932 -6.70557,-3.99792c-0.84143,-0.61489 -2.28322,-0.60157 -2.71522,-1.54998c-0.52029,-1.14222 -0.05368,-2.54906 0.29948,-3.75349c0.73841,-2.51834 2.79644,-3.60519 4.60429,-5.25787c1.76116,-1.60999 3.5704,-3.15906 5.25627,-4.84973c0,0 0.47267,-0.47267 1.14767,-0.60697c-0.52014,-0.60117 -0.52013,-1.42189 -0.52013,-1.42189v-2.45205c0,-1.03364 0.76748,-1.88803 1.76368,-2.02439c5.08949,-3.74138 9.4683,-8.58866 15.84362,-9.3236c-0.04149,-0.21263 -0.05228,-0.45441 -0.02174,-0.72925c0.22565,-2.03088 2.25653,-1.80523 2.25653,-1.80523c5.91,0.65787 11.38534,1.6222 17.34741,1.6222c3.40125,0 5.45177,0.44918 8.17352,-1.6347l1.35317,-1.01488c0.36886,-0.4334 0.82873,-0.58589 1.23765,-0.61714c0.40899,-0.07726 0.90111,-0.04759 1.37647,0.28877c2.88049,1.23093 5.38792,2.96018 8.46656,3.88002c3.70995,1.10846 8.02474,2.51754 10.92785,5.21001c1.51581,-0.03167 1.91519,1.56585 1.91519,1.56585l0.03546,0.52567c0.01664,0.11768 0.02555,0.24369 0.02555,0.3786v0c0.6781,1.00694 2.09485,1.27035 2.95957,2.1224c2.35318,2.31872 1.87375,3.18934 1.94454,6.05111c0,0 0,0.01758 -0.00163,0.04947c0.0037,0.32855 -0.05636,0.72694 -0.28758,1.08778zM367.10155,188.47604c0.47639,1.91736 0.77064,4.5116 2.32325,5.99819c0.49198,0.47106 1.16815,0.72978 1.6347,1.22603c0.32694,0.34775 0.3423,0.93032 0.69497,1.25194c0.70808,0.64574 1.65898,-0.96358 2.44815,-1.50724c1.14283,-0.78731 4.20826,-2.17552 4.01172,-4.16291c-0.12453,-1.25918 -1.83893,-1.76742 -2.54077,-2.82026c-1.15263,-1.72907 -1.90678,-3.48971 -3.19821,-5.21162l-0.49559,0.34766c0,0 -0.53087,-0.13272 -0.97448,-0.5355c-0.59971,0.8088 -1.17921,1.64543 -1.81868,2.46094c-0.68323,0.87132 -1.53849,1.58885 -2.3483,2.34845c0.19311,0.32369 0.26326,0.60432 0.26326,0.60432zM301.9933,182.243c-1.72686,1.72241 -3.56176,3.3253 -5.3693,4.9585c-0.87035,0.7864 -1.87732,1.42336 -2.68795,2.27118c-0.3932,0.41124 -0.5315,1.01305 -0.88128,1.46181c-0.1262,0.16191 -0.70224,0.24299 -0.51788,0.33327c0.41138,0.20144 0.97605,-0.14636 1.37154,0.08473c0.53909,0.31501 2.91479,3.41716 3.92,3.35824c0.76606,-0.0449 0.99976,-1.17999 1.35965,-1.85774c0.5311,-1.00017 0.72411,-2.18353 1.38845,-3.10063c0.91301,-1.26038 2.97729,-2.53534 4.66305,-3.56585c-0.81294,-1.60827 -1.81936,-3.15815 -2.75062,-4.721c-0.18953,0.47135 -0.49566,0.77749 -0.49566,0.77749zM336.19968,258.25357c0.73118,0.07709 1.46615,-0.28441 2.19657,-0.20041c1.18258,0.13599 2.30843,0.58295 3.46804,0.85182c1.593,0.36937 5.23341,1.07412 6.76104,0.192c1.34743,-0.77807 2.89716,-3.6701 2.62887,-5.20582c-0.06173,-0.35336 -1.58488,-1.98854 -1.78235,-2.20993l-1.85297,-0.21001c0,0 -0.24157,-0.04026 -0.54351,-0.17654c-2.29609,0 -4.59219,0 -6.88828,0c-0.07366,0.48921 -0.28832,0.84697 -0.28832,0.84697c-1.18918,1.92167 -2.52955,2.95522 -3.82855,4.58705c-0.01823,0.10778 -0.04652,0.23526 -0.09045,0.37131c-0.11232,0.54758 -0.20038,1.10923 0.21991,1.15354zM311.58266,250.273c-1.17464,0.87867 -5.19069,2.46284 -5.31367,4.14678c-0.07965,1.09053 2.4339,2.16022 3.28698,2.57c0.85255,0.40952 3.27054,0.18682 3.86273,0.24066c2.89443,0.26313 6.49087,1.03351 9.33475,-0.10395c0.86421,-0.34565 0.30314,-4.61947 0.34626,-5.49068c-0.33632,-0.5125 -0.67265,-1.02501 -1.00898,-1.53752l-0.01385,-0.01255c-1.91935,0.06167 -4.06942,0.25431 -5.87355,-0.03682c-1.29994,-0.20977 -2.58818,-0.58336 -3.89296,-0.73316c-0.24377,0.59428 -0.72773,0.95725 -0.72773,0.95725zM344.94743,244.12228c-1.23853,-2.2667 -1.47398,-4.67653 -2.83157,-6.89728c0,0 -0.26731,-0.44551 -0.3077,-1.02204c-0.39217,-0.57542 -0.39217,-1.2553 -0.39217,-1.2553v-0.40868c0,-3.37724 -0.71367,-5.77828 -1.20549,-9.11056c0,0 -0.00765,-0.05352 -0.01175,-0.14439c-0.00879,-0.09053 -0.00879,-0.14459 -0.00879,-0.14459v-1.22603c0.00338,-1.86079 0.19578,-3.71954 0.42445,-5.56623c0,0 0.0166,-0.1328 0.07529,-0.32618c-2.28921,0.32352 -4.59021,0.17095 -7.03856,0.17095c-5.26189,0 -10.51578,0.21202 -15.1266,-2.13084c-0.15478,5.50402 -3.2952,10.16683 -4.10755,15.53579c-0.67322,4.44941 -1.19964,9.04552 -1.19964,13.56766v0.17623c1.18856,0.17853 2.36922,0.45656 3.55282,0.66087c1.45632,0.25138 3.22209,0.10642 4.83191,0.02454c0.35406,-0.22584 0.69931,-0.3011 1.01384,-0.2915c-0.00164,-5.86775 0.02884,-11.64017 0.68396,-17.48326c0.10241,-0.91337 0.02198,-6.09132 0.85695,-6.71451c1.09766,-0.81926 2.73918,-0.03184 4.10877,-0.04776l0.07275,-0.0278c0,0 1.10394,0 1.68899,0.81141c1.74603,-0.02245 1.97332,1.79587 1.97332,1.79587c0.49186,3.97213 0.01891,8.23243 0.79626,12.12731c0.84132,4.2154 3.87498,6.48904 5.24479,10.36582l0.33394,0.64617c2.60943,0 5.64764,0 8.3524,0c-0.51621,-1.06518 -1.21189,-2.04477 -1.78063,-3.08565zM370.74181,176.42799c-0.57313,-0.40212 -1.40867,-0.32153 -1.96148,-0.75116c-0.68331,-0.53105 -1.07851,-1.35369 -1.61777,-2.03054l-0.32969,-1.03096l-0.48766,-0.19507c-1.29412,-1.92169 -3.72538,-2.43197 -5.81794,-3.48513c-3.16414,-1.59247 -6.66702,-2.1137 -9.87608,-3.71362c-0.85121,-0.42439 -1.63033,-0.9943 -2.45939,-1.45903l-0.64568,0.48426c-3.5529,2.62254 -6.33967,2.45205 -10.62557,2.45205c-5.34071,0 -10.32232,-0.74609 -15.5338,-1.38212c0.00272,0.05066 0.00412,0.10268 0.00412,0.15609c0,2.04338 -2.04338,2.04338 -2.04338,2.04338h-0.40868c-5.95126,-0.03213 -10.33641,5.05347 -14.85358,8.49096l0.08169,0.40843c1.73922,2.50885 3.39438,5.16828 4.69829,7.86263c2.66404,-1.91069 5.62359,-3.5587 8.84758,-3.6844c0,0 0.24413,0 0.56364,0.08439c0.19267,-0.05376 0.41221,-0.08439 0.66239,-0.08439c2.04338,0 2.04338,2.04338 2.04338,2.04338c0,2.86831 0.29179,5.92811 -0.00995,8.78354c-0.35059,3.31764 -1.73185,6.41983 -2.04338,9.80822c-0.28405,3.08953 0.41139,6.12134 0.41862,9.19819v1.43503c4.56449,3.12372 11.0264,2.24305 16.34703,2.24305c2.46253,0 4.34291,0.28412 6.59727,-0.6712l0.44272,-0.04105c0.96314,-1.59245 0.68382,-2.88646 1.18818,-5.07001c0.89574,-3.87795 0.44515,-7.84225 1.20894,-11.77222c0.30442,-1.56634 0.94012,-3.13281 0.78972,-4.72135c-0.21235,-2.24287 -1.62327,-4.83472 -0.67175,-7.11345c0.39787,-0.95283 1.3851,-1.53175 2.07765,-2.29762l1.67072,-0.37437c0.34643,-0.1685 0.70828,-0.21227 0.96791,-0.21689l0.03229,-0.00723c0,0 0.06353,0 0.16819,0.0112c0.10507,0.00615 0.16774,0.0166 0.16774,0.0166c2.85814,0.48331 5.50698,1.03008 7.86908,2.85703c1.23485,0.95509 2.2586,2.23491 3.283,3.48364c3.23527,-3.68761 5.8896,-8.1905 9.66756,-11.28237c-0.09369,-0.1845 -0.22656,-0.34785 -0.41194,-0.47792z" data-paper-data="{&quot;index&quot;:null}" fill="#000000" stroke="none" stroke-width="0.5"/></g></g></svg>