<svg version="1.1" xmlns="http://www.w3.org/2000/svg" xmlns:xlink="http://www.w3.org/1999/xlink" width="102.75" height="134.875" viewBox="0,0,102.75,134.875"><g transform="translate(-188.62499,-112.56252)"><g data-paper-data="{&quot;isPaintingLayer&quot;:true}" fill-rule="nonzero" stroke="#000000" stroke-width="0.5" stroke-linecap="butt" stroke-linejoin="miter" stroke-miterlimit="10" stroke-dasharray="" stroke-dashoffset="0" style="mix-blend-mode: normal"><path d="M205.36574,193.25418v-62h69.25v62z" fill="#838383"/><path d="M188.875,239.999c0,-24.85975 0,-106.41629 0,-120.10869c0,-3.81821 3.36827,-7.07779 7.07398,-7.07779c11.1643,0 68.19615,0 88.21739,0c4.3548,0 6.95862,3.25958 6.95862,7.07779c0,13.65276 0,94.77717 0,119.89131c0,4.67224 -3.47339,7.4059 -7.17602,7.4059c-11.10181,0 -67.52679,0 -87.80435,0c-4.54136,0 -7.26963,-2.64899 -7.26963,-7.18851zM274.51667,193.28752v-62h-69.25v61.99669z" fill="#614537"/><path d="M205.13426,225.36581c0,-24.85975 0.07398,-32.11163 0.07398,-32.11163l69.4075,0.13627c0,0 0,6.64383 0,31.75797c0,4.67224 -3.47339,7.40591 -7.17602,7.40591c-11.10181,0 -34.75827,0 -55.03583,0c-4.54136,0 -7.26963,-2.64899 -7.26963,-7.18852z" fill="#614537"/></g></g></svg>