<svg version="1.1" xmlns="http://www.w3.org/2000/svg" xmlns:xlink="http://www.w3.org/1999/xlink" width="28.5" height="28.5" viewBox="0,0,28.5,28.5"><g transform="translate(-225.80495,-165.75)"><g data-paper-data="{&quot;isPaintingLayer&quot;:true}" fill-rule="nonzero" stroke="#000000" stroke-linecap="butt" stroke-linejoin="miter" stroke-miterlimit="10" stroke-dasharray="" stroke-dashoffset="0" style="mix-blend-mode: normal"><path d="M226.30496,192v-24c0,-1.04038 0.69833,-1.75 1.75,-1.75h24c1.04511,0 1.75,0.69647 1.75,1.75v24c0,1.04844 -0.66666,1.75 -1.71857,1.75h-24.03143c-1.05482,0 -1.75,-0.69757 -1.75,-1.75z" fill="#88908a" stroke-width="1"/><path d="M237.4888,193.06044c0,0 -1.26351,-1.76255 -2.84141,-2.52471c-0.10241,-0.04946 -3.36635,-0.39637 -3.50888,-0.45126c-1.61303,-0.62118 -2.09543,-1.21289 1.7949,-1.21464c3.96856,-0.00179 7.23372,0.76093 7.50026,1.28193c0.09912,0.19374 -1.53762,0.27135 -1.20602,0.43152c1.59009,0.76806 8.22853,2.61286 8.22853,2.61286z" fill="#2a2828" stroke-width="0"/><path d="M237.66754,193.19615c0,0 2.41064,-8.23132 2.41064,-11.88771c0,-0.2373 -2.29791,-1.23589 -2.60183,-2.70606c-0.33045,-2.13389 0.41996,-5.5169 4.35501,-5.78705c4.01418,-0.27558 5.7181,3.27012 4.89745,5.82413c-0.30516,0.9497 -2.12156,1.71762 -2.12156,2.48605c0,3.68465 2.84893,12.07065 2.84893,12.07065z" fill="#46924a" stroke-width="0"/><path d="M245.79177,177.9288c0,1.69446 -1.4881,3.06807 -3.32376,3.06807c-1.83566,0 -3.32376,-1.37362 -3.32376,-3.06807c0,-1.69446 1.4881,-3.06808 3.32376,-3.06808c1.83566,0 3.32376,1.37363 3.32376,3.06808z" fill="#756452" stroke-width="0"/><path d="M237.4888,193.06044c0,0 -1.26351,-1.76255 -2.84141,-2.52471c-0.10241,-0.04946 -3.36635,-0.39637 -3.50888,-0.45126c-1.61303,-0.62118 -2.09543,-1.21289 1.7949,-1.21464c3.96856,-0.00179 7.23372,0.76093 7.50026,1.28193c0.09912,0.19374 -1.53762,0.27135 -1.20602,0.43152c1.59009,0.76806 8.22853,2.61286 8.22853,2.61286z" fill-opacity="0.4" fill="#292727" stroke-width="0"/></g></g></svg>