<svg version="1.1" xmlns="http://www.w3.org/2000/svg" xmlns:xlink="http://www.w3.org/1999/xlink" width="128.47954" height="193.49999" viewBox="0,0,128.47954,193.49999"><g transform="translate(-175.80037,-83.25002)"><g data-paper-data="{&quot;isPaintingLayer&quot;:true}" fill="none" fill-rule="nonzero" stroke-linecap="butt" stroke-linejoin="miter" stroke-miterlimit="10" stroke-dasharray="" stroke-dashoffset="0" style="mix-blend-mode: normal"><path d="M179.52991,265.28209c1.01465,-9.67169 0.58823,-104.05592 0.58823,-170.2805c0,-4.29918 -0.026,-8.00156 7.29873,-8.00156c7.85657,0 64.9764,0 106.18811,0c3.39124,0 6.92493,2.95801 6.92493,7.36899c0,66.70103 0,161.77655 0,171.50131c0,3.24158 -4.12193,7.12969 -7.51317,7.12969c-10.17372,0 -66.36891,0 -107.3424,0c-2.85708,0 -6.73267,-2.11082 -6.14444,-7.71793z" stroke-opacity="0.30196" stroke="#6bfafa" stroke-width="7.5"/><path d="M179.52992,265.28209c1.01465,-9.67169 0.58823,-104.05592 0.58823,-170.2805c0,-4.29918 -0.026,-8.00156 7.29873,-8.00156c7.85657,0 64.9764,0 106.18811,0c3.39124,0 6.92493,2.95801 6.92493,7.36899c0,66.70103 0,161.77655 0,171.50131c0,3.24158 -4.12193,7.12969 -7.51317,7.12969c-10.17372,0 -66.36891,0 -107.3424,0c-2.85708,0 -6.73267,-2.11082 -6.14444,-7.71793z" stroke-opacity="0.50196" stroke="#6bfafa" stroke-width="5"/><path d="M179.52992,265.28209c1.01465,-9.67169 0.58823,-104.05592 0.58823,-170.2805c0,-4.29918 -0.026,-8.00156 7.29873,-8.00156c7.85657,0 64.9764,0 106.18811,0c3.39124,0 6.92493,2.95801 6.92493,7.36899c0,66.70103 0,161.77655 0,171.50131c0,3.24158 -4.12193,7.12969 -7.51317,7.12969c-10.17372,0 -66.36891,0 -107.3424,0c-2.85708,0 -6.73267,-2.11082 -6.14444,-7.71793z" stroke="#6dfbfb" stroke-width="2.5"/></g></g></svg>