<svg version="1.1" xmlns="http://www.w3.org/2000/svg" xmlns:xlink="http://www.w3.org/1999/xlink" width="122.50002" height="187.5" viewBox="0,0,122.50002,187.5"><defs><radialGradient cx="239.66716" cy="154.33333" r="43.33867" gradientUnits="userSpaceOnUse" id="color-1"><stop offset="0" stop-color="#f8b870"/><stop offset="1" stop-color="#67503a"/></radialGradient></defs><g transform="translate(-178.74949,-86.25)"><g data-paper-data="{&quot;isPaintingLayer&quot;:true}" fill-rule="nonzero" stroke-linejoin="miter" stroke-miterlimit="10" stroke-dasharray="" stroke-dashoffset="0" style="mix-blend-mode: normal"><path d="M179.49951,95.75c0,-5.00052 3.75336,-8.75 8.75,-8.75h103.5c5.00061,0 8.74997,3.74753 8.75,8.75l0.001,168.25c0.00003,4.99939 -3.74669,8.99999 -8.75102,8.99999l-103.5,0.00001c-5.00277,0 -8.75,-4.00317 -8.75,-9z" fill="#235870" stroke="#000000" stroke-width="1.5" stroke-linecap="butt"/><path d="M195.78053,187.69109c0,-1.90221 6.28685,10.00867 9.8392,10.00867h68.10253c3.54693,0 9.83913,-11.95542 9.83913,-10.00867c0,10.02674 -0.09151,50.27884 -0.09151,58.42575c0,2.98806 -1.9043,6.98177 -6.56483,6.98177c0,0 -61.17368,0.0465 -74.55983,0.0465c-4.62287,0 -6.57229,-4.08852 -6.57229,-7.02802z" fill="#191919" stroke="#000000" stroke-width="0" stroke-linecap="butt"/><path d="M196.32848,187.29509v-65.923c0,-5.01085 5.38104,-10.3774 10.37714,-10.3774h65.92334c4.98781,0 10.37687,5.3757 10.37687,10.3774v65.923c0,5.01026 -5.36172,10.37695 -10.37687,10.37695h-65.92334c-5.0104,0 -10.37714,-5.37792 -10.37714,-10.37695z" fill="url(#color-1)" stroke="#191919" stroke-width="1" stroke-linecap="butt"/><text transform="translate(225.90258,103.52393) scale(0.36591,0.36591)" font-size="40" xml:space="preserve" fill="#ffffff" fill-rule="nonzero" stroke="#000000" stroke-width="1" stroke-linecap="butt" stroke-linejoin="miter" stroke-miterlimit="10" stroke-dasharray="" stroke-dashoffset="0" font-family="&quot;Microsoft YaHei&quot;, &quot;微软雅黑&quot;, STXihei, &quot;华文细黑&quot;" font-weight="normal" text-anchor="start" style="mix-blend-mode: normal"><tspan x="0" dy="0">强攻策略</tspan></text><text transform="translate(252.2948,267.85839) scale(0.32654,0.32654)" font-size="40" xml:space="preserve" fill="#ffffff" fill-rule="nonzero" stroke="#000000" stroke-width="1" stroke-linecap="butt" stroke-linejoin="miter" stroke-miterlimit="10" stroke-dasharray="" stroke-dashoffset="0" font-family="&quot;Microsoft YaHei&quot;, &quot;微软雅黑&quot;, STXihei, &quot;华文细黑&quot;" font-weight="normal" text-anchor="start" style="mix-blend-mode: normal"><tspan x="0" dy="0">策略牌</tspan></text><text transform="translate(199.01638,209.68442) scale(0.2134,0.2134)" font-size="40" xml:space="preserve" fill="#ffffff" fill-rule="nonzero" stroke="none" stroke-width="1" stroke-linecap="butt" stroke-linejoin="miter" stroke-miterlimit="10" stroke-dasharray="" stroke-dashoffset="0" font-family="&quot;Microsoft YaHei&quot;, &quot;微软雅黑&quot;, STXihei, &quot;华文细黑&quot;" font-weight="normal" text-anchor="start" style="mix-blend-mode: normal"><tspan x="0" dy="0">　 • 自己回合受到伤</tspan><tspan x="0" dy="48px">害后，下 1 次攻击造</tspan><tspan x="0" dy="48px">成的伤害增加½倍</tspan></text><text transform="translate(189.66399,268.21235) scale(0.2977,0.2977)" font-size="40" xml:space="preserve" fill="#ffffff" fill-rule="nonzero" stroke="#000000" stroke-width="1" stroke-linecap="butt" stroke-linejoin="miter" stroke-miterlimit="10" stroke-dasharray="" stroke-dashoffset="0" font-family="Pixel" font-weight="normal" text-anchor="start" style="mix-blend-mode: normal"><tspan x="0" dy="0">TACTICS</tspan></text><path d="M254.14948,140.18683v0v0v0z" fill="#687966" stroke="none" stroke-width="0" stroke-linecap="butt"/><path d="M252.63974,152.32114l-14.90241,-16.28513l8.72416,-7.98345l14.90244,16.28513z" fill="#4d443e" stroke="#000000" stroke-width="0" stroke-linecap="butt"/><path d="M264.91446,173.49867l-20.89635,7.11551l-3.81188,-11.19446l20.89635,-7.1155z" fill="#4d443e" stroke="#000000" stroke-width="0" stroke-linecap="butt"/><path d="M266.46016,154.32097l-3.09139,10.97334" fill="none" stroke="#555061" stroke-width="1.5" stroke-linecap="round"/><path d="M231.66384,143.38618l10.24893,4.99305" fill="none" stroke="#555061" stroke-width="1.5" stroke-linecap="round"/><path d="M212.87416,171.31502l32.8491,-21.54901" fill="none" stroke="#b08180" stroke-width="2" stroke-linecap="round"/><path d="M231.66384,155.89644l8.21263,-7.5172l14.4168,6.77417l-17.71896,13.60648z" fill="#b08180" stroke="#555061" stroke-width="0" stroke-linecap="butt"/></g></g></svg>