<svg version="1.1" xmlns="http://www.w3.org/2000/svg" xmlns:xlink="http://www.w3.org/1999/xlink" width="14.65518" height="14.2" viewBox="0,0,14.65518,14.2"><g transform="translate(-232.6724,-172.9)"><g data-paper-data="{&quot;isPaintingLayer&quot;:true}" fill-rule="nonzero" stroke="#000000" stroke-width="1" stroke-linejoin="miter" stroke-miterlimit="10" stroke-dasharray="" stroke-dashoffset="0" style="mix-blend-mode: normal"><path d="M233.17241,185.37153c0,-2.75724 0,-9.31371 0,-10.80702c0,-0.59214 0.84617,-1.16451 1.18565,-1.16451c1.48533,0 7.88529,0 10.89448,0c0.96426,0 1.57504,0.50809 1.57504,1.4402c0,2.76514 0,9.16477 0,10.6416c0,0.57158 -0.47152,1.1182 -1.23281,1.1182c-2.8034,0 -9.53617,0 -11.12264,0c-0.65427,0 -1.29973,-0.8901 -1.29973,-1.22847z" fill="#f0554e" stroke-linecap="butt"/><path d="M244.39202,175.80953l-8.78403,8.38095" data-paper-data="{&quot;index&quot;:null}" fill="none" stroke-linecap="round"/><path d="M244.39202,184.19048l-8.78403,-8.38095" fill="none" stroke-linecap="round"/></g></g></svg>