<svg version="1.1" xmlns="http://www.w3.org/2000/svg" xmlns:xlink="http://www.w3.org/1999/xlink" width="28.5" height="28.5" viewBox="0,0,28.5,28.5"><g transform="translate(-225.75,-165.75)"><g data-paper-data="{&quot;isPaintingLayer&quot;:true}" fill-rule="nonzero" stroke-linecap="butt" stroke-linejoin="miter" stroke-miterlimit="10" stroke-dasharray="" stroke-dashoffset="0" style="mix-blend-mode: normal"><path d="M226.25,192v-24c0,-1.04038 0.69833,-1.75 1.75,-1.75h24c1.04511,0 1.75,0.69647 1.75,1.75v24c0,1.04844 -0.66666,1.75 -1.71857,1.75h-24.03143c-1.05482,0 -1.75,-0.69757 -1.75,-1.75z" fill="#a71fd6" stroke="#000000" stroke-width="1"/><path d="M231.20833,180.29167c0,-1.38071 1.11929,-2.5 2.5,-2.5c1.38071,0 2.5,1.11929 2.5,2.5c0,1.38071 -1.11929,2.5 -2.5,2.5c-1.38071,0 -2.5,-1.11929 -2.5,-2.5z" fill-opacity="0.63529" fill="#d4d4d4" stroke="none" stroke-width="0.5"/><path d="M241.625,187.20833c0,-1.38071 1.11929,-2.5 2.5,-2.5c1.38071,0 2.5,1.11929 2.5,2.5c0,1.38071 -1.11929,2.5 -2.5,2.5c-1.38071,0 -2.5,-1.11929 -2.5,-2.5z" fill-opacity="0.63529" fill="#d4d4d4" stroke="none" stroke-width="0.5"/><path d="M245.29167,174.375c0,-1.38071 1.11929,-2.5 2.5,-2.5c1.38071,0 2.5,1.11929 2.5,2.5c0,1.38071 -1.11929,2.5 -2.5,2.5c-1.38071,0 -2.5,-1.11929 -2.5,-2.5z" fill-opacity="0.63529" fill="#d4d4d4" stroke="none" stroke-width="0.5"/></g></g></svg>