<svg version="1.1" xmlns="http://www.w3.org/2000/svg" xmlns:xlink="http://www.w3.org/1999/xlink" width="122.50002" height="187.5" viewBox="0,0,122.50002,187.5"><defs><radialGradient cx="240.00049" cy="153.99999" r="43.33867" gradientUnits="userSpaceOnUse" id="color-1"><stop offset="0" stop-color="#f8b870"/><stop offset="1" stop-color="#67503a"/></radialGradient></defs><g transform="translate(-178.74949,-86.25)"><g data-paper-data="{&quot;isPaintingLayer&quot;:true}" fill-rule="nonzero" stroke-linejoin="miter" stroke-miterlimit="10" stroke-dasharray="" stroke-dashoffset="0" style="mix-blend-mode: normal"><path d="M179.49951,95.75c0,-5.00052 3.75336,-8.75 8.75,-8.75h103.5c5.00061,0 8.74997,3.74753 8.75,8.75l0.001,168.25c0.00003,4.99939 -3.74669,8.99999 -8.75102,8.99999l-103.5,0.00001c-5.00277,0 -8.75,-4.00317 -8.75,-9z" fill="#823b3c" stroke="#000000" stroke-width="1.5" stroke-linecap="butt"/><path d="M196.11386,187.35775c0,-1.90221 6.28685,10.00867 9.8392,10.00867h68.10253c3.54693,0 9.83913,-11.95542 9.83913,-10.00867c0,10.02674 -0.09151,50.27884 -0.09151,58.42575c0,2.98806 -1.9043,6.98177 -6.56483,6.98177c0,0 -61.17368,0.0465 -74.55983,0.0465c-4.62287,0 -6.57229,-4.08852 -6.57229,-7.02802z" fill="#191919" stroke="#000000" stroke-width="0" stroke-linecap="butt"/><path d="M196.66181,186.96175v-65.923c0,-5.01085 5.38104,-10.3774 10.37714,-10.3774h65.92334c4.98781,0 10.37687,5.3757 10.37687,10.3774v65.923c0,5.01026 -5.36172,10.37695 -10.37687,10.37695h-65.92334c-5.0104,0 -10.37714,-5.37792 -10.37714,-10.37695z" fill="url(#color-1)" stroke="#191919" stroke-width="1" stroke-linecap="butt"/><text transform="translate(225.90258,103.52393) scale(0.36591,0.36591)" font-size="40" xml:space="preserve" fill="#ffffff" fill-rule="nonzero" stroke="#000000" stroke-width="1" stroke-linecap="butt" stroke-linejoin="miter" stroke-miterlimit="10" stroke-dasharray="" stroke-dashoffset="0" font-family="&quot;Microsoft YaHei&quot;, &quot;微软雅黑&quot;, STXihei, &quot;华文细黑&quot;" font-weight="normal" text-anchor="start" style="mix-blend-mode: normal"><tspan x="0" dy="0">一拳</tspan></text><text transform="translate(252.2948,267.85839) scale(0.32654,0.32654)" font-size="40" xml:space="preserve" fill="#ffffff" fill-rule="nonzero" stroke="#000000" stroke-width="1" stroke-linecap="butt" stroke-linejoin="miter" stroke-miterlimit="10" stroke-dasharray="" stroke-dashoffset="0" font-family="&quot;Microsoft YaHei&quot;, &quot;微软雅黑&quot;, STXihei, &quot;华文细黑&quot;" font-weight="normal" text-anchor="start" style="mix-blend-mode: normal"><tspan x="0" dy="0">攻击牌</tspan></text><text transform="translate(189.66398,268.21234) scale(0.2977,0.2977)" font-size="40" xml:space="preserve" fill="#ffffff" fill-rule="nonzero" stroke="#000000" stroke-width="1" stroke-linecap="butt" stroke-linejoin="miter" stroke-miterlimit="10" stroke-dasharray="" stroke-dashoffset="0" font-family="Pixel" font-weight="normal" text-anchor="start" style="mix-blend-mode: normal"><tspan x="0" dy="0">ATTACK</tspan></text><text transform="translate(199.01638,209.68442) scale(0.2134,0.2134)" font-size="40" xml:space="preserve" fill="#ffffff" fill-rule="nonzero" stroke="none" stroke-width="1" stroke-linecap="butt" stroke-linejoin="miter" stroke-miterlimit="10" stroke-dasharray="" stroke-dashoffset="0" font-family="&quot;Microsoft YaHei&quot;, &quot;微软雅黑&quot;, STXihei, &quot;华文细黑&quot;" font-weight="normal" text-anchor="start" style="mix-blend-mode: normal"><tspan x="0" dy="0">　 • 移除该牌</tspan><tspan x="0" dy="48px">　 • 造成    点伤害</tspan></text><g data-paper-data="{&quot;index&quot;:null}" fill-opacity="0.8" fill="#000000" stroke-linecap="butt"><path d="M249.17757,172.19642c-3.08819,2.85261 -7.11971,2.48867 -11.60088,1.8173c-3.96394,-0.59387 -8.62446,-2.32538 -10.808,-5.3306c-2.13633,-2.94022 -1.8452,-7.11805 -1.26417,-10.99629c0.40758,-2.72045 2.42222,-8.15465 4.07246,-10.11556c3.10686,-3.69176 7.13271,-2.72394 12.25443,-1.9566c3.98031,0.59633 8.21225,2.48652 10.3952,5.51113c2.11799,2.9346 2.25554,6.95388 1.67695,10.81577c-0.50354,3.36101 -2.40976,8.11533 -4.726,10.25485zM244.92503,160.60221c1.15044,-5.80862 -3.30846,-7.77396 -4.41559,-7.93983c-1.10714,-0.16587 -5.53651,0.70655 -6.23139,6.97216c-0.8077,7.28292 2.83804,8.12177 3.94517,8.28764c1.10714,0.16587 5.03634,1.08917 6.70181,-7.31997z" stroke="#000000" stroke-width="0"/><path d="M249.99634,144.62703c1.91946,0.95059 3.09541,3.06055 2.76099,5.2927c-0.00661,0.04413 -0.01376,0.08803 -0.02147,0.13171c0.16742,2.38945 -1.15482,3.52902 -2.97419,3.76747c-0.84148,0.36576 -1.79249,0.50753 -2.76677,0.36157c-1.46417,-0.21936 -2.68763,-1.04463 -3.45392,-2.18312c-1.84578,-1.32238 -3.10013,-3.22672 -2.63788,-5.31766c1.36833,-6.18964 6.03302,-5.12716 9.09323,-2.05268z" stroke="none" stroke-width="0.5"/><path d="M225.34679,167.32536c-1.29415,-0.83814 -2.05034,-2.38142 -1.80701,-4.00555c0.11783,-0.7865 0.45422,-1.48618 0.93825,-2.04662c-0.72807,-1.4714 -0.88551,-3.08569 -0.0495,-3.88547c0.12959,-0.86496 0.5235,-1.62492 1.08744,-2.21014c-0.59876,-1.91741 0.34845,-3.99693 1.95963,-5.24316c-0.33171,-3.19869 3.39996,-5.40284 6.82758,-4.24691c0.32385,-0.03124 0.65673,-0.0237 0.99306,0.02668c2.21427,0.33174 3.74035,2.39568 3.40861,4.60995c-0.22046,1.4715 -1.20591,2.63908 -2.4921,3.15946c-0.34131,0.43271 -0.94492,0.60957 -1.67698,0.61272c-0.12143,0.38937 -0.29866,0.75052 -0.52121,1.07575c-0.0922,1.15214 -0.63328,1.96999 -1.40299,2.48158c-0.10825,1.34095 -0.56272,2.84622 -1.14254,4.06285c1.86016,0.59505 3.06793,2.4671 2.7692,4.46102c-0.282,1.88227 -1.8157,3.26727 -3.62941,3.43649c-0.5714,0.18142 -1.19202,0.23837 -1.82491,0.14356c-0.018,-0.0027 -0.03594,-0.00549 -0.05383,-0.00842c-0.01797,-0.00245 -0.03596,-0.00504 -0.05396,-0.00773c-0.03604,-0.0054 -0.07188,-0.01126 -0.10756,-0.01756c-0.03596,-0.00443 -0.07193,-0.00933 -0.10797,-0.01473c-1.4299,-0.21423 -2.57283,-1.15082 -3.11379,-2.38377z" stroke="none" stroke-width="0.5"/></g><path d="M227.17945,138.34659l16.47321,-8.23661" fill="none" stroke="#000000" stroke-width="0.5" stroke-linecap="round"/><path d="M219.55296,147.80344l16.47321,-9.15179" fill="none" stroke="#000000" stroke-width="0.5" stroke-linecap="round"/><path d="M216.80742,160.31088l10.98214,11.2872" fill="none" stroke="#000000" stroke-width="0.5" stroke-linecap="round"/><path d="M223.82379,175.25879l13.11756,6.10119" fill="none" stroke="#000000" stroke-width="0.5" stroke-linecap="round"/><path d="M207.35058,149.63379l13.42262,-14.64286" fill="none" stroke="#000000" stroke-width="0.5" stroke-linecap="round"/><path d="M204.9101,163.05641l12.8125,10.06696" fill="none" stroke="#000000" stroke-width="0.5" stroke-linecap="round"/><g data-paper-data="{&quot;index&quot;:null}" fill-opacity="0.30196" fill="#000000" stroke-linecap="butt"><path d="M269.95441,181.95845c-3.08819,2.85261 -7.11971,2.48867 -11.60088,1.8173c-3.96394,-0.59387 -8.62446,-2.32538 -10.808,-5.3306c-2.13633,-2.94022 -1.8452,-7.11805 -1.26417,-10.99629c0.40758,-2.72045 2.42222,-8.15465 4.07246,-10.11556c3.10686,-3.69176 7.13271,-2.72394 12.25443,-1.9566c3.98031,0.59633 8.21225,2.48652 10.3952,5.51113c2.11799,2.9346 2.25554,6.95388 1.67695,10.81577c-0.50354,3.36101 -2.40976,8.11533 -4.726,10.25485zM265.70187,170.36424c1.15044,-5.80862 -3.30846,-7.77396 -4.41559,-7.93983c-1.10714,-0.16587 -5.53651,0.70655 -6.23139,6.97216c-0.8077,7.28292 2.83804,8.12177 3.94517,8.28764c1.10714,0.16587 5.03634,1.08917 6.70181,-7.31997z" stroke="#000000" stroke-width="0"/><path d="M270.77318,154.38906c1.91946,0.95059 3.09541,3.06055 2.76099,5.2927c-0.00661,0.04413 -0.01376,0.08803 -0.02147,0.13171c0.16742,2.38945 -1.15482,3.52902 -2.97419,3.76747c-0.84148,0.36576 -1.79249,0.50753 -2.76677,0.36157c-1.46417,-0.21936 -2.68763,-1.04463 -3.45392,-2.18312c-1.84578,-1.32238 -3.10013,-3.22672 -2.63788,-5.31766c1.36833,-6.18964 6.03302,-5.12716 9.09323,-2.05268z" stroke="none" stroke-width="0.5"/><path d="M246.12363,177.08739c-1.29415,-0.83814 -2.05034,-2.38142 -1.80701,-4.00555c0.11783,-0.7865 0.45422,-1.48618 0.93825,-2.04662c-0.72807,-1.4714 -0.88551,-3.08569 -0.0495,-3.88547c0.12959,-0.86496 0.5235,-1.62492 1.08744,-2.21014c-0.59876,-1.91741 0.34845,-3.99693 1.95963,-5.24316c-0.33171,-3.19869 3.39996,-5.40284 6.82758,-4.24691c0.32385,-0.03124 0.65673,-0.0237 0.99306,0.02668c2.21427,0.33174 3.74035,2.39568 3.40861,4.60995c-0.22046,1.4715 -1.20591,2.63908 -2.4921,3.15946c-0.34131,0.43271 -0.94492,0.60957 -1.67698,0.61272c-0.12143,0.38937 -0.29866,0.75052 -0.52121,1.07575c-0.0922,1.15214 -0.63328,1.96999 -1.40299,2.48158c-0.10825,1.34095 -0.56272,2.84622 -1.14254,4.06285c1.86016,0.59505 3.06793,2.4671 2.7692,4.46102c-0.282,1.88227 -1.8157,3.26727 -3.62941,3.43649c-0.5714,0.18142 -1.19202,0.23837 -1.82491,0.14356c-0.018,-0.0027 -0.03594,-0.00549 -0.05383,-0.00842c-0.01797,-0.00245 -0.03596,-0.00504 -0.05396,-0.00773c-0.03604,-0.0054 -0.07188,-0.01126 -0.10756,-0.01756c-0.03596,-0.00443 -0.07193,-0.00933 -0.10797,-0.01473c-1.4299,-0.21423 -2.57283,-1.15082 -3.11379,-2.38377z" stroke="none" stroke-width="0.5"/></g><g data-paper-data="{&quot;index&quot;:null}" fill-opacity="0.50196" fill="#000000" stroke-linecap="butt"><path d="M259.11626,176.93455c-3.08819,2.85261 -7.11971,2.48867 -11.60088,1.8173c-3.96394,-0.59387 -8.62446,-2.32538 -10.808,-5.3306c-2.13633,-2.94022 -1.8452,-7.11805 -1.26417,-10.99629c0.40758,-2.72045 2.42222,-8.15465 4.07246,-10.11556c3.10686,-3.69176 7.13271,-2.72394 12.25443,-1.9566c3.98031,0.59633 8.21225,2.48652 10.3952,5.51113c2.11799,2.9346 2.25554,6.95388 1.67695,10.81577c-0.50354,3.36101 -2.40976,8.11533 -4.726,10.25485zM254.86372,165.34034c1.15044,-5.80862 -3.30846,-7.77396 -4.41559,-7.93983c-1.10714,-0.16587 -5.53651,0.70655 -6.23139,6.97216c-0.8077,7.28292 2.83804,8.12177 3.94517,8.28764c1.10714,0.16587 5.03634,1.08917 6.70181,-7.31997z" stroke="#000000" stroke-width="0"/><path d="M259.93503,149.36516c1.91946,0.95059 3.09541,3.06055 2.76099,5.2927c-0.00661,0.04413 -0.01376,0.08803 -0.02147,0.13171c0.16742,2.38945 -1.15482,3.52902 -2.97419,3.76747c-0.84148,0.36576 -1.79249,0.50753 -2.76677,0.36157c-1.46417,-0.21936 -2.68763,-1.04463 -3.45392,-2.18312c-1.84578,-1.32238 -3.10013,-3.22672 -2.63788,-5.31766c1.36833,-6.18964 6.03302,-5.12716 9.09323,-2.05268z" stroke="none" stroke-width="0.5"/><path d="M235.28548,172.06349c-1.29415,-0.83814 -2.05034,-2.38142 -1.80701,-4.00555c0.11783,-0.7865 0.45422,-1.48618 0.93825,-2.04662c-0.72807,-1.4714 -0.88551,-3.08569 -0.0495,-3.88547c0.12959,-0.86496 0.5235,-1.62492 1.08744,-2.21014c-0.59876,-1.91741 0.34845,-3.99693 1.95963,-5.24316c-0.33171,-3.19869 3.39996,-5.40284 6.82758,-4.24691c0.32385,-0.03124 0.65673,-0.0237 0.99306,0.02668c2.21427,0.33174 3.74035,2.39568 3.40861,4.60995c-0.22046,1.4715 -1.20591,2.63908 -2.4921,3.15946c-0.34131,0.43271 -0.94492,0.60957 -1.67698,0.61272c-0.12143,0.38937 -0.29866,0.75052 -0.52121,1.07575c-0.0922,1.15214 -0.63328,1.96999 -1.40299,2.48158c-0.10825,1.34095 -0.56272,2.84622 -1.14254,4.06285c1.86016,0.59505 3.06793,2.4671 2.7692,4.46102c-0.282,1.88227 -1.8157,3.26727 -3.62941,3.43649c-0.5714,0.18142 -1.19202,0.23837 -1.82491,0.14356c-0.018,-0.0027 -0.03594,-0.00549 -0.05383,-0.00842c-0.01797,-0.00245 -0.03596,-0.00504 -0.05396,-0.00773c-0.03604,-0.0054 -0.07188,-0.01126 -0.10756,-0.01756c-0.03596,-0.00443 -0.07193,-0.00933 -0.10797,-0.01473c-1.4299,-0.21423 -2.57283,-1.15082 -3.11379,-2.38377z" stroke="none" stroke-width="0.5"/></g></g></g></svg>