<svg version="1.1" xmlns="http://www.w3.org/2000/svg" xmlns:xlink="http://www.w3.org/1999/xlink" width="32.81593" height="25.82431" viewBox="0,0,32.81593,25.82431"><g transform="translate(-186.72503,-89.07974)"><g data-paper-data="{&quot;isPaintingLayer&quot;:true}" fill-rule="nonzero" stroke="none" stroke-width="1" stroke-linecap="butt" stroke-linejoin="miter" stroke-miterlimit="10" stroke-dasharray="" stroke-dashoffset="0" style="mix-blend-mode: normal"><g><path d="M201.18132,97.15478l-2.6219,0.09128l-1.54656,-3.77362z" fill="#c8cecd"/><path d="M201.18159,97.15502l-4.85563,3.50621l2.23348,-3.41466z" fill="#efefef"/><path d="M201.48828,105.21816l-8.34608,-7.37277l7.74341,-8.76565l8.34608,7.37277z" fill="none"/><path d="M201.18182,97.15475l-4.16845,-3.68234l3.93653,1.06812z" fill="#efefef"/><path d="M201.18132,97.15478l-0.23169,-2.61449l3.11185,-2.63633z" fill="#ffffff"/><path d="M201.18108,97.15506l2.8804,-5.25109l0.20012,4.07529z" fill="#b5bab9"/><path d="M204.26137,95.97953l3.46977,2.14447l-6.54955,-0.96898z" fill="#ffffff"/><path d="M201.18108,97.15506l-0.7863,3.2015l-4.06885,0.30416z" fill="#b5bab9"/><path d="M201.48828,105.21816l-8.34608,-7.37277l7.74341,-8.76565l8.34608,7.37277z" fill="none"/><path d="M201.18159,97.15502l1.76934,6.38025l-2.55615,-3.17871z" fill="#efefef"/><path d="M201.18159,97.15502l2.73648,2.41736l-0.96715,3.96289z" fill="#c8cecd"/><path d="M207.73165,98.12397l-3.8133,1.44865l-2.73675,-2.4176z" fill="#efefef"/></g><g><path d="M211.4906,97.25032l-2.6219,0.09128l-1.54656,-3.77362z" fill="#c8cecd"/><path d="M211.49087,97.25056l-4.85563,3.50621l2.23348,-3.41466z" fill="#efefef"/><path d="M211.79756,105.3137l-8.34608,-7.37277l7.74341,-8.76565l8.34608,7.37277z" fill="none"/><path d="M211.4911,97.25029l-4.16845,-3.68234l3.93653,1.06812z" fill="#efefef"/><path d="M211.4906,97.25032l-0.23169,-2.61449l3.11185,-2.63633z" fill="#ffffff"/><path d="M211.49036,97.2506l2.8804,-5.25109l0.20012,4.07529z" fill="#b5bab9"/><path d="M214.57065,96.07507l3.46977,2.14447l-6.54955,-0.96898z" fill="#ffffff"/><path d="M211.49036,97.2506l-0.7863,3.2015l-4.06885,0.30416z" fill="#b5bab9"/><path d="M211.79756,105.3137l-8.34608,-7.37277l7.74341,-8.76565l8.34608,7.37277z" fill="none"/><path d="M211.49087,97.25056l1.76934,6.38025l-2.55615,-3.17871z" fill="#efefef"/><path d="M211.49087,97.25056l2.73648,2.41736l-0.96715,3.96289z" fill="#c8cecd"/><path d="M218.04093,98.21951l-3.8133,1.44865l-2.73675,-2.4176z" fill="#efefef"/></g><g><path d="M194.76416,106.84067l-2.6219,0.09128l-1.54656,-3.77362z" fill="#c8cecd"/><path d="M194.76443,106.84091l-4.85563,3.50621l2.23348,-3.41466z" fill="#efefef"/><path d="M195.07112,114.90405l-8.34608,-7.37277l7.74341,-8.76565l8.34608,7.37277z" fill="none"/><path d="M194.76465,106.84064l-4.16845,-3.68234l3.93653,1.06812z" fill="#efefef"/><path d="M194.76416,106.84067l-0.23169,-2.61449l3.11185,-2.63633z" fill="#ffffff"/><path d="M194.76392,106.84095l2.8804,-5.25109l0.20012,4.07529z" fill="#b5bab9"/><path d="M197.84421,105.66542l3.46977,2.14447l-6.54955,-0.96898z" fill="#ffffff"/><path d="M194.76392,106.84095l-0.7863,3.2015l-4.06885,0.30416z" fill="#b5bab9"/><path d="M195.07112,114.90405l-8.34608,-7.37277l7.74341,-8.76565l8.34608,7.37277z" fill="none"/><path d="M194.76443,106.84091l1.76934,6.38025l-2.55615,-3.17871z" fill="#efefef"/><path d="M194.76443,106.84091l2.73648,2.41736l-0.96715,3.96289z" fill="#c8cecd"/><path d="M201.31449,107.80986l-3.8133,1.44865l-2.73675,-2.4176z" fill="#efefef"/></g></g></g></svg>