<svg version="1.1" xmlns="http://www.w3.org/2000/svg" xmlns:xlink="http://www.w3.org/1999/xlink" width="102.75" height="135.48407" viewBox="0,0,102.75,135.48407"><g transform="translate(-188.625,-111.95344)"><g data-paper-data="{&quot;isPaintingLayer&quot;:true}" fill-rule="nonzero" stroke-linecap="butt" stroke-linejoin="miter" stroke-miterlimit="10" stroke-dasharray="" stroke-dashoffset="0" style="mix-blend-mode: normal"><path d="M205.36574,193.2542v-62h69.25v62z" fill="#79a0d9" stroke="#000000" stroke-width="0.5"/><path d="M188.87501,239.99899c0,-24.85975 0,-106.41629 0,-120.10869c0,-3.81821 3.36827,-7.07779 7.07398,-7.07779c11.1643,0 68.19615,0 88.21739,0c4.3548,0 6.95862,3.25958 6.95862,7.07779c0,13.65276 0,94.77717 0,119.89131c0,4.67224 -3.47339,7.4059 -7.17602,7.4059c-11.10181,0 -67.52679,0 -87.80435,0c-4.54136,0 -7.26963,-2.64899 -7.26963,-7.18851zM274.51668,193.28751v-62h-69.25v61.99669z" fill="#614537" stroke="#000000" stroke-width="0.5"/><path d="M205.13426,225.36583c0,-24.85975 0.07398,-32.11163 0.07398,-32.11163l69.4075,0.13627c0,0 0,6.64383 0,31.75797c0,4.67224 -3.47339,7.40591 -7.17602,7.40591c-11.10181,0 -34.75827,0 -55.03583,0c-4.54136,0 -7.26963,-2.64899 -7.26963,-7.18852z" fill="#614537" stroke="#000000" stroke-width="0.5"/><text transform="translate(207.36574,203.29745) scale(0.23275,0.23275)" font-size="40" xml:space="preserve" fill="#ffffff" fill-rule="nonzero" stroke="none" stroke-width="1" stroke-linecap="butt" stroke-linejoin="miter" stroke-miterlimit="10" stroke-dasharray="" stroke-dashoffset="0" font-family="&quot;Microsoft YaHei&quot;, &quot;微软雅黑&quot;, STXihei, &quot;华文细黑&quot;" font-weight="normal" text-anchor="start" style="mix-blend-mode: normal"><tspan x="0" dy="0">这股纯净的魔力</tspan><tspan x="0" dy="48px">能使你回复全部</tspan><tspan x="0" dy="48px">血量。</tspan></text><text transform="translate(207.335,125.96673) scale(0.32665,0.32665)" font-size="40" xml:space="preserve" fill="#ffffff" fill-rule="nonzero" stroke="none" stroke-width="1" stroke-linecap="butt" stroke-linejoin="miter" stroke-miterlimit="10" stroke-dasharray="" stroke-dashoffset="0" font-family="&quot;Microsoft YaHei&quot;, &quot;微软雅黑&quot;, STXihei, &quot;华文细黑&quot;" font-weight="normal" text-anchor="start" style="mix-blend-mode: normal"><tspan x="0" dy="0">纯净的魔力</tspan></text><path d="M263.53334,161.96667c-1,0 -1,-1 -1,-1l0.05131,-0.01711c-0.74279,-2.22896 -1.44897,-4.27826 -2.08912,-6.49884c-1.05932,-2.23004 -3.27193,-3.04005 -5.34554,-4.33606c-2.45788,-1.53617 -5.48669,-4.30877 -8.22566,-5.18673c-1.07645,-0.34505 -2.26058,0.03875 -3.39099,0.03875c-4.14511,0 -8.23743,0.65681 -12.33334,0.66666c0,0 -1,0 -1,-1c0,-1 1,-1 1,-1c4.08355,0.01112 8.19616,-0.66666 12.33334,-0.66666c0.13389,0 3.77518,-0.0133 3.94235,0.03875c2.9364,0.91427 6.1178,3.77793 8.7343,5.41324c2.60131,1.62582 4.71333,2.53258 6.15001,5.30834c0.64311,2.28772 1.36099,4.30761 2.12202,6.59011l0.05132,0.64956c0,0 0,1 -1,1z" fill="#8eede4" stroke="none" stroke-width="0.5"/><path d="M260.2,175.96666c-1,0 -1,-1 -1,-1c0,-0.66667 0,-2.33333 0,-3c0,-2.93448 -0.12075,-7.03182 -1.21501,-9.52814c-0.55673,-1.27006 -4.13272,-2.88164 -5.37578,-3.4478c-4.21505,-1.91976 -6.74234,-4.55239 -11.50871,-5.02902c0,0 -0.99504,-0.0995 -0.89553,-1.09454c0.0995,-0.99504 1.09454,-0.89553 1.09454,-0.89553c4.47943,0.44794 6.60706,2.27981 10.38544,4.45145c2.3618,1.35746 6.65214,2.44392 8.0634,5.07173c0.23929,0.44557 -0.06769,1.03032 0.07542,1.51541c0.8328,2.82291 1.37624,5.85527 1.37624,8.95645c0,0.66667 0,1.33333 0,2v1c0,0 0,1 -1,1z" fill="#8eede4" stroke="none" stroke-width="0.5"/><path d="M221.53334,182.96666c1,0 1,1 1,1v0.33333c-0.05369,1.61564 0.1186,1.52566 1.59,2.36683c6.53213,-0.12552 13.82667,-0.34246 19.44192,-4.02286c1.25183,-0.82048 3.1235,-1.92585 3.71845,-3.4278c0.45899,-1.15873 0.24964,-2.6928 0.24964,-3.91618c0,0 0,-1 1,-1c1,0 1,1 1,1c0,1.52734 0.17678,3.24419 -0.40796,4.69606c-0.76689,1.90413 -2.84818,3.2555 -4.46143,4.3191c-6.01708,3.967 -14.02158,4.38906 -21.05394,4.28467c-2.31126,-1.32037 -3.01788,-1.65663 -3.07667,-4.29983v-0.33333c0,0 0,-1 1,-1z" fill="#8eede4" stroke="none" stroke-width="0.5"/><path d="M236.7611,162.08054c-0.44721,0.89443 -1.34164,0.44721 -1.34164,0.44721l-1.1896,-0.98522c-1.06055,-4.92205 -8.51727,-4.57587 -12.36319,-4.57587c0,0 -1,0 -1,-1c0,-1 1,-1 1,-1c5.09947,0 12.64594,0.03298 14.30348,6.0908l0.14374,-0.31856c0,0 0.89443,0.44721 0.44721,1.34164z" fill="#8eede4" stroke="none" stroke-width="0.5"/><path d="M238.36795,159.7453c0.5547,-0.83205 1.38675,-0.27735 1.38675,-0.27735l0.3359,0.22393c5.19938,3.57886 6.64335,12.13516 4.72475,17.92435c0,0 -0.31623,0.94868 -1.26491,0.63246c-0.94868,-0.31623 -0.63246,-1.26491 -0.63246,-1.26491c1.60529,-4.78477 0.55675,-12.75525 -3.93678,-15.62779l-0.3359,-0.22393c0,0 -0.83205,-0.5547 -0.27735,-1.38675z" fill="#8eede4" stroke="none" stroke-width="0.5"/><path d="M228.53334,178.96666c0,1 -1,1 -1,1h-0.66667c-0.60173,-0.03944 -1.2568,0.13247 -1.80519,-0.11833c-0.39157,-0.17907 -0.38132,-0.83046 -0.75125,-1.05079c-2.16333,-1.28849 -5.78707,-1.2262 -7.58231,-3.57151c-1.81333,-2.36895 0.31716,-5.7298 1.21027,-7.9641c0,0 0.37139,-0.92848 1.29987,-0.55709c0.92848,0.37139 0.55709,1.29987 0.55709,1.29987c-0.50434,1.25997 -2.6288,4.66061 -1.4564,6.0359c1.71631,2.01331 5.01149,1.95099 7.08436,3.09516c0.48607,0.2683 0.89352,0.90644 1.44356,0.83089h0.66667c0,0 1,0 1,1z" fill="#8eede4" stroke="none" stroke-width="0.5"/><path d="M215.57378,141.59289c0.70711,0.70711 0,1.41421 0,1.41421l-0.77377,0.75956c-0.85295,0.53137 -0.93333,1.86174 -0.93333,2.86667c0,3.36153 -0.71504,8.23347 0.99486,11.31054c3.49402,6.28769 9.9605,7.06493 15.98803,9.07411c0,0 0.94868,0.31623 0.63246,1.26491c-0.31623,0.94868 -1.26491,0.63246 -1.26491,0.63246c-1.82308,-0.60769 -4.40327,-0.60418 -6.05198,-1.35227c-4.03161,-1.82933 -8.76564,-4.43645 -11.05708,-8.65728c-1.88614,-3.47427 -1.24138,-8.48488 -1.24138,-12.27246c0,-2.48654 -0.28318,-2.7908 1.73333,-4.46667l0.55956,-0.57377c0,0 0.70711,-0.70711 1.41421,0z" fill="#8eede4" stroke="none" stroke-width="0.5"/><path d="M250.2,186.96666c0,-1 1,-1 1,-1l0.95065,0.07612c1.00106,-1.11186 4.02481,-2.0033 4.4588,-3.4588c0.32248,-1.08151 -0.58429,-2.18543 -1,-3.23463c-0.40111,-1.01237 0.34313,-2.22356 0.03053,-3.26666c-0.3791,-1.26498 -3.06768,-4.00203 -4.14709,-5.07558c0,0 -0.70711,-0.70711 0,-1.41421c0.70711,-0.70711 1.41421,0 1.41421,0c1.47534,1.48259 2.24138,3.14327 3.51685,4.73651c0.27446,0.34283 0.86294,0.43826 1.00273,0.85458c0.36077,1.07443 -0.45461,2.3757 0.03053,3.4c0.78695,1.66155 1.84057,2.39493 1,4.76537c-0.73035,2.05961 -4.03808,3.14915 -5.5412,4.5412l-1.71602,0.07612c0,0 -1,0 -1,-1z" fill="#8eede4" stroke="none" stroke-width="0.5"/><path d="M237.06667,179.23333c-0.6,-0.8 0.2,-1.4 0.2,-1.4l1.06667,-0.8c2.62799,-1.70536 0.84518,-4.96395 -0.63205,-7.17863c0,0 -0.5547,-0.83205 0.27735,-1.38675c0.83205,-0.5547 1.38675,0.27735 1.38675,0.27735c2.24384,3.36744 3.56695,7.102 0.16795,9.88803l-1.06667,0.8c0,0 -0.8,0.6 -1.4,-0.2z" fill="#8eede4" stroke="none" stroke-width="0.5"/><path d="M228.14424,136.63739c0.32928,0.94423 -0.61496,1.27351 -0.61496,1.27351l-0.60587,0.09152c-0.61669,2.99128 -3.36013,7.33388 -0.97372,10.30245c0.9437,1.17392 2.40969,2.10042 3.38366,3.39514c0,0 0.6,0.8 -0.2,1.4c-0.8,0.6 -1.4,-0.2 -1.4,-0.2c-0.92765,-1.24093 -2.41933,-2.12035 -3.28301,-3.27153c-3.02139,-4.02716 -0.32731,-8.95737 1.01665,-12.99675l1.40375,-0.60929c0,0 0.94423,-0.32928 1.27351,0.61496z" fill="#8eede4" stroke="none" stroke-width="0.5"/></g></g></svg>