<svg version="1.1" xmlns="http://www.w3.org/2000/svg" xmlns:xlink="http://www.w3.org/1999/xlink" width="326.30752" height="35.04375" viewBox="0,0,326.30752,35.04375"><g transform="translate(-76.84626,-159.47816)"><g data-paper-data="{&quot;isPaintingLayer&quot;:true}" fill-rule="nonzero" stroke-linecap="butt" stroke-linejoin="miter" stroke-miterlimit="10" stroke-dasharray="" stroke-dashoffset="0" style="mix-blend-mode: normal"><path d="M77.34627,190.58003c0,-5.84823 0,-23.42014 0,-26.8c0,-1.81558 1.39858,-3.80187 2.97375,-3.80187c16.55156,0 285.86548,0 319,0c2.17633,0 3.33376,0.83358 3.33376,2.20188c0,5.49589 0,25.6183 0,29c0,1.90937 -1.4244,2.84187 -3.33376,2.84187c-33.15861,0 -302.84771,0 -319.4,0c-1.57518,0 -2.57376,-1.35734 -2.57376,-3.44187z" fill="#474541" stroke="#423f3b" stroke-width="1"/><path d="M80.84626,177.00004c0,-7.73199 6.26802,-14 14,-14c7.73198,0 14,6.26801 14,14c0,7.73199 -6.26802,14 -14,14c-7.73198,0 -14,-6.26801 -14,-14z" fill="#2ea324" stroke="#423f3b" stroke-width="0"/><text transform="translate(111.34626,173.50004) scale(0.30336,0.30336)" font-size="40" xml:space="preserve" fill="#ffffff" fill-rule="nonzero" stroke="none" stroke-width="1" stroke-linecap="butt" stroke-linejoin="miter" stroke-miterlimit="10" stroke-dasharray="" stroke-dashoffset="0" font-family="Sans Serif" font-weight="normal" text-anchor="start" style="mix-blend-mode: normal"><tspan x="0" dy="0">疗愈</tspan></text><text transform="translate(111.34626,182.25007) scale(0.15168,0.15168)" font-size="40" xml:space="preserve" fill="#ffffff" fill-rule="nonzero" stroke="none" stroke-width="1" stroke-linecap="butt" stroke-linejoin="miter" stroke-miterlimit="10" stroke-dasharray="" stroke-dashoffset="0" font-family="Sans Serif" font-weight="normal" text-anchor="start" style="mix-blend-mode: normal"><tspan x="0" dy="0">每个回合结束时，回复 2 点血量</tspan></text><path d="M85.32426,173.09095v-4.90909h10.27273v4.90909z" fill="#83db12" stroke="#000000" stroke-width="0"/><path d="M92.91517,175.77277h-4.9091v-10.27273h4.9091z" fill="#83db12" stroke="#000000" stroke-width="0"/><path d="M94.09553,185.81822v-4.9091h10.27273v4.9091z" fill="#83db12" stroke="#000000" stroke-width="0"/><path d="M101.68644,188.50004h-4.90909v-10.27273h4.90909z" fill="#83db12" stroke="#000000" stroke-width="0"/></g></g></svg>