<svg version="1.1" xmlns="http://www.w3.org/2000/svg" xmlns:xlink="http://www.w3.org/1999/xlink" width="457" height="96.54966" viewBox="0,0,457,96.54966"><defs><radialGradient cx="49.49848" cy="166.65374" r="21.66934" gradientUnits="userSpaceOnUse" id="color-1"><stop offset="0" stop-color="#f8b870"/><stop offset="1" stop-color="#67503a"/></radialGradient><radialGradient cx="112.99899" cy="166.65374" r="21.66934" gradientUnits="userSpaceOnUse" id="color-2"><stop offset="0" stop-color="#f8b870"/><stop offset="1" stop-color="#67503a"/></radialGradient><radialGradient cx="176.4995" cy="166.65374" r="21.66933" gradientUnits="userSpaceOnUse" id="color-3"><stop offset="0" stop-color="#f8b870"/><stop offset="1" stop-color="#67503a"/></radialGradient><radialGradient cx="240.00001" cy="167" r="21.66934" gradientUnits="userSpaceOnUse" id="color-4"><stop offset="0" stop-color="#f8b870"/><stop offset="1" stop-color="#67503a"/></radialGradient><radialGradient cx="303.50052" cy="166.65374" r="21.66933" gradientUnits="userSpaceOnUse" id="color-5"><stop offset="0" stop-color="#f8b870"/><stop offset="1" stop-color="#67503a"/></radialGradient><radialGradient cx="367.00103" cy="166.65374" r="21.66933" gradientUnits="userSpaceOnUse" id="color-6"><stop offset="0" stop-color="#f8b870"/><stop offset="1" stop-color="#67503a"/></radialGradient><radialGradient cx="430.50154" cy="166.65374" r="21.66934" gradientUnits="userSpaceOnUse" id="color-7"><stop offset="0" stop-color="#f8b870"/><stop offset="1" stop-color="#67503a"/></radialGradient></defs><g transform="translate(-11.5,-131.72517)"><g data-paper-data="{&quot;isPaintingLayer&quot;:true}" fill-rule="nonzero" stroke-linecap="butt" stroke-linejoin="miter" stroke-miterlimit="10" stroke-dasharray="" stroke-dashoffset="0" style="mix-blend-mode: normal"><path d="M19.24823,137.52874c0,-2.50026 1.87668,-4.375 4.375,-4.375h51.75c2.5003,0 4.37498,1.87377 4.375,4.375l0.0005,84.125c0.00002,2.4997 -1.87334,4.5 -4.37551,4.5h-51.75c-2.50138,0 -4.375,-2.00159 -4.375,-4.5z" fill="#2f7035" stroke="#000000" stroke-width="2.5"/><path d="M27.82914,183.74511c0,-13.45932 0,-29.48524 0,-34.48781c0,-1.66752 2.97749,-4.27282 4.88323,-4.27282c5.71723,0 20.28413,0 33.26701,0c2.02486,0 5.18843,2.79139 5.18843,4.57803c0,12.98288 0,26.83513 0,33.26701c0,2.14397 -3.16358,5.49363 -5.18843,5.49363c0,0 -27.54978,0 -33.26701,0c-1.90574,0 -4.88323,-2.79139 -4.88323,-4.57803z" fill="url(#color-1)" stroke="#191919" stroke-width="2.5"/><path d="M82.74874,137.52874c0,-2.50026 1.87668,-4.375 4.375,-4.375h51.75c2.5003,0 4.37499,1.87377 4.375,4.375l0.0005,84.125c0.00001,2.4997 -1.87335,4.5 -4.37551,4.5h-51.75c-2.50138,0 -4.375,-2.00159 -4.375,-4.5z" fill="#2f7035" stroke="#000000" stroke-width="2.5"/><path d="M91.32965,183.74511c0,-13.45932 0,-29.48524 0,-34.48781c0,-1.66752 2.97749,-4.27282 4.88323,-4.27282c5.71723,0 20.28413,0 33.26701,0c2.02486,0 5.18843,2.79139 5.18843,4.57803c0,12.98288 0,26.83513 0,33.26701c0,2.14397 -3.16358,5.49363 -5.18843,5.49363c0,0 -27.54978,0 -33.26701,0c-1.90574,0 -4.88323,-2.79139 -4.88323,-4.57803z" fill="url(#color-2)" stroke="#191919" stroke-width="2.5"/><path d="M146.24925,137.52874c0,-2.50026 1.87668,-4.375 4.375,-4.375h51.75c2.5003,0 4.37499,1.87377 4.375,4.375l0.0005,84.125c0.00001,2.4997 -1.87335,4.5 -4.37551,4.5h-51.75c-2.50138,0 -4.375,-2.00159 -4.375,-4.5z" fill="#2f7035" stroke="#000000" stroke-width="2.5"/><path d="M154.83016,183.74511c0,-13.45932 0,-29.48524 0,-34.48781c0,-1.66752 2.97749,-4.27282 4.88323,-4.27282c5.71723,0 20.28413,0 33.26701,0c2.02486,0 5.18843,2.79139 5.18843,4.57803c0,12.98288 0,26.83513 0,33.26701c0,2.14397 -3.16358,5.49363 -5.18843,5.49363c0,0 -27.54978,0 -33.26701,0c-1.90574,0 -4.88323,-2.79139 -4.88323,-4.57803z" fill="url(#color-3)" stroke="#191919" stroke-width="2.5"/><path d="M209.74976,137.875c0,-2.50026 1.87668,-4.375 4.375,-4.375h51.75c2.50031,0 4.37498,1.87377 4.375,4.375l0.0005,84.125c0.00002,2.4997 -1.87334,4.5 -4.37551,4.5h-51.75c-2.50138,0 -4.375,-2.00159 -4.375,-4.5z" fill="#2f7035" stroke="#000000" stroke-width="2.5"/><path d="M218.33067,184.09137c0,-13.45932 0,-29.48524 0,-34.48781c0,-1.66752 2.97749,-4.27282 4.88323,-4.27282c5.71723,0 20.28413,0 33.26701,0c2.02486,0 5.18844,2.79139 5.18844,4.57803c0,12.98288 0,26.83513 0,33.26701c0,2.14397 -3.16358,5.49363 -5.18844,5.49363c0,0 -27.54978,0 -33.26701,0c-1.90574,0 -4.88323,-2.79139 -4.88323,-4.57803z" fill="url(#color-4)" stroke="#191919" stroke-width="2.5"/><path d="M273.25027,137.52874c0,-2.50026 1.87668,-4.375 4.375,-4.375h51.75c2.50031,0 4.37498,1.87377 4.375,4.375l0.0005,84.125c0.00002,2.4997 -1.87335,4.5 -4.37551,4.5h-51.75c-2.50139,0 -4.375,-2.00159 -4.375,-4.5z" fill="#2f7035" stroke="#000000" stroke-width="2.5"/><path d="M281.83118,183.74511c0,-13.45932 0,-29.48524 0,-34.48781c0,-1.66752 2.97748,-4.27282 4.88323,-4.27282c5.71723,0 20.28413,0 33.26701,0c2.02486,0 5.18843,2.79139 5.18843,4.57803c0,12.98288 0,26.83513 0,33.26701c0,2.14397 -3.16358,5.49363 -5.18843,5.49363c0,0 -27.54978,0 -33.26701,0c-1.90575,0 -4.88323,-2.79139 -4.88323,-4.57803z" fill="url(#color-5)" stroke="#191919" stroke-width="2.5"/><path d="M336.75078,137.52874c0,-2.50026 1.87668,-4.375 4.375,-4.375h51.75c2.50031,0 4.37498,1.87377 4.375,4.375l0.0005,84.125c0.00002,2.4997 -1.87335,4.5 -4.37551,4.5h-51.75c-2.50139,0 -4.375,-2.00159 -4.375,-4.5z" fill="#2f7035" stroke="#000000" stroke-width="2.5"/><path d="M345.33169,183.74511c0,-13.45932 0,-29.48524 0,-34.48781c0,-1.66752 2.97749,-4.27282 4.88323,-4.27282c5.71723,0 20.28413,0 33.26701,0c2.02486,0 5.18844,2.79139 5.18844,4.57803c0,12.98288 0,26.83513 0,33.26701c0,2.14397 -3.16358,5.49363 -5.18844,5.49363c0,0 -27.54978,0 -33.26701,0c-1.90575,0 -4.88323,-2.79139 -4.88323,-4.57803z" fill="url(#color-6)" stroke="#191919" stroke-width="2.5"/><path d="M400.25129,137.52874c0,-2.50026 1.87668,-4.375 4.375,-4.375h51.75c2.50031,0 4.37498,1.87377 4.375,4.375l0.0005,84.125c0.00002,2.4997 -1.87334,4.5 -4.37551,4.5h-51.75c-2.50139,0 -4.375,-2.00159 -4.375,-4.5z" fill="#2f7035" stroke="#000000" stroke-width="2.5"/><path d="M408.8322,183.74511c0,-13.45932 0,-29.48524 0,-34.48781c0,-1.66752 2.97749,-4.27282 4.88323,-4.27282c5.71723,0 20.28413,0 33.26701,0c2.02486,0 5.18844,2.79139 5.18844,4.57803c0,12.98288 0,26.83513 0,33.26701c0,2.14397 -3.16358,5.49363 -5.18844,5.49363c0,0 -27.54978,0 -33.26701,0c-1.90575,0 -4.88323,-2.79139 -4.88323,-4.57803z" fill="url(#color-7)" stroke="#191919" stroke-width="2.5"/><path d="M468.5,131.72517v96.54966h-457v-96.54966zM28.729,146.0061v41.538h41.539v-41.538zM92.2295,146.0061v41.538h41.539v-41.538zM155.7305,146.0061v41.53801h41.539v-41.53801zM219.2315,146.00609v41.53802h41.539v-41.53802zM282.7325,146.00609v41.53802h41.539v-41.53802zM346.2335,146.00609v41.53802h41.539v-41.53802zM409.7345,146.00609v41.53803h41.539v-41.53803z" fill="#3e4e54" stroke="none" stroke-width="1"/></g></g></svg>