<svg version="1.1" xmlns="http://www.w3.org/2000/svg" xmlns:xlink="http://www.w3.org/1999/xlink" width="99.74801" height="99.7879" viewBox="0,0,99.74801,99.7879"><g transform="translate(-189.75099,-130.98105)"><g data-paper-data="{&quot;isPaintingLayer&quot;:true}" fill-rule="nonzero" stroke-linecap="butt" stroke-linejoin="miter" stroke-miterlimit="10" stroke-dasharray="" stroke-dashoffset="0" style="mix-blend-mode: normal"><path d="M276.66967,130.98105l12.82934,12.82934l-27.0619,27.06193l-12.82934,-12.82936z" fill="#8a4e35" stroke="#999ea4" stroke-width="0"/><path d="M276.0401,162.37146l-8.50085,8.50085l-17.93148,-17.93147l8.50085,-8.50085z" fill="#999ea4" stroke="#999ea4" stroke-width="0"/><path d="M190.501,187.24941c0,-23.62096 19.14857,-42.76955 42.76955,-42.76955c23.62096,0 42.76955,19.14857 42.76955,42.76955c0,23.62096 -19.14857,42.76954 -42.76955,42.76954c-23.62096,0 -42.76955,-19.14856 -42.76955,-42.76954z" fill="#38b9ff" stroke="#999ea4" stroke-width="1.5"/><path d="M206.33341,172.92318c0,-2.92218 2.3689,-5.29108 5.29108,-5.29108c2.92218,0 5.29108,2.3689 5.29108,5.29108c0,2.92218 -2.3689,5.29108 -5.29108,5.29108c-2.92218,0 -5.29108,-2.3689 -5.29108,-5.29108z" fill-opacity="0.4549" fill="#ffffff" stroke="none" stroke-width="0.5"/><path d="M211.62448,209.77312c0,-6.57491 5.33002,-11.90492 11.90492,-11.90492c6.57491,0 11.90492,5.33002 11.90492,11.90492c0,6.57491 -5.33002,11.90492 -11.90492,11.90492c-6.57491,0 -11.90492,-5.33002 -11.90492,-11.90492z" fill-opacity="0.73725" fill="#ffffff" stroke="none" stroke-width="0.5"/><path d="M240.27844,159.86509c0,-4.38329 3.55333,-7.93662 7.93662,-7.93662c4.38329,0 7.93662,3.55333 7.93662,7.93662c0,4.38329 -3.55333,7.93661 -7.93662,7.93661c-4.38329,0 -7.93662,-3.55333 -7.93662,-7.93661z" fill-opacity="0.39216" fill="#ffffff" stroke="none" stroke-width="0.5"/><path d="M259.42471,201.05417c0,-3.28745 2.66501,-5.95246 5.95246,-5.95246c3.28745,0 5.95247,2.66501 5.95247,5.95246c0,3.28745 -2.66502,5.95246 -5.95247,5.95246c-3.28745,0 -5.95246,-2.66501 -5.95246,-5.95246z" fill-opacity="0.51373" fill="#ffffff" stroke="none" stroke-width="0.5"/><path d="M249.60776,143.81041l12.82934,-12.82934l27.0619,27.06189l-12.82934,12.82934z" fill="#999ea4" stroke="#999ea4" stroke-width="0"/></g></g></svg>