<svg version="1.1" xmlns="http://www.w3.org/2000/svg" xmlns:xlink="http://www.w3.org/1999/xlink" width="102.75" height="135.48412" viewBox="0,0,102.75,135.48412"><g transform="translate(-188.62499,-111.95341)"><g data-paper-data="{&quot;isPaintingLayer&quot;:true}" fill-rule="nonzero" stroke-linecap="butt" stroke-linejoin="miter" stroke-miterlimit="10" stroke-dasharray="" stroke-dashoffset="0" style="mix-blend-mode: normal"><path d="M205.36574,193.25419v-62h69.25v62z" fill="#838383" stroke="#000000" stroke-width="0.5"/><path d="M188.875,239.99901c0,-24.85975 0,-106.41629 0,-120.10869c0,-3.81821 3.36827,-7.07779 7.07398,-7.07779c11.1643,0 68.19615,0 88.21739,0c4.3548,0 6.95862,3.25958 6.95862,7.07779c0,13.65276 0,94.77717 0,119.89131c0,4.67224 -3.47339,7.4059 -7.17602,7.4059c-11.10181,0 -67.52679,0 -87.80435,0c-4.54136,0 -7.26963,-2.64899 -7.26963,-7.18851zM274.51667,193.28753v-62h-69.25v61.99669z" fill="#614537" stroke="#000000" stroke-width="0.5"/><path d="M205.13426,225.36582c0,-24.85975 0.07398,-32.11163 0.07398,-32.11163l69.4075,0.13627c0,0 0,6.64383 0,31.75797c0,4.67224 -3.47339,7.40591 -7.17602,7.40591c-11.10181,0 -34.75827,0 -55.03583,0c-4.54136,0 -7.26963,-2.64899 -7.26963,-7.18852z" fill="#614537" stroke="#000000" stroke-width="0.5"/><text transform="translate(207.36574,203.29744) scale(0.23275,0.23275)" font-size="40" xml:space="preserve" fill="#ffffff" fill-rule="nonzero" stroke="none" stroke-width="1" stroke-linecap="butt" stroke-linejoin="miter" stroke-miterlimit="10" stroke-dasharray="" stroke-dashoffset="0" font-family="&quot;Microsoft YaHei&quot;, &quot;微软雅黑&quot;, STXihei, &quot;华文细黑&quot;" font-weight="normal" text-anchor="start" style="mix-blend-mode: normal"><tspan x="0" dy="0">鸭子吃哥布林，</tspan><tspan x="0" dy="48px">简称哥布林鸟。</tspan></text><text transform="translate(213.868,125.9667) scale(0.32665,0.32665)" font-size="40" xml:space="preserve" fill="#ffffff" fill-rule="nonzero" stroke="none" stroke-width="1" stroke-linecap="butt" stroke-linejoin="miter" stroke-miterlimit="10" stroke-dasharray="" stroke-dashoffset="0" font-family="&quot;Microsoft YaHei&quot;, &quot;微软雅黑&quot;, STXihei, &quot;华文细黑&quot;" font-weight="normal" text-anchor="start" style="mix-blend-mode: normal"><tspan x="0" dy="0">哥布林鸟</tspan></text><path d="M252.51362,150.35545c-0.00282,0.12331 -0.00291,0.24828 0,0.37505c0,0 0,0.0896 -0.01696,0.23486c0.00565,0.00002 0.01131,0.00004 0.01696,0.00006zM247.51362,150.7305c0.05081,-3.21406 1.09967,-5.53177 1.36363,-8.63636c0.12448,-1.46401 -0.57746,-3.50185 0.61136,-4.36528c6.75456,-4.90577 7.93388,0.66859 8.07116,5.75048c1.97063,-2.35879 4.34133,-3.77747 7.12258,-5.37399l3.1437,-1.7964c0.37408,-0.22304 0.81131,-0.35117 1.27847,-0.35117c1.38071,0 2.5,1.11929 2.5,2.5c0,0.21236 -0.02648,0.41854 -0.07631,0.61541l-1.11201,4.81869l-0.02539,-0.00586c-0.01685,0.09283 -0.0348,0.18551 -0.05393,0.27807c-0.71985,3.48295 -3.10701,5.66053 -5.27756,8.17675l-0.70059,0.06139l0.08181,0.24543l-2.67191,0.89064c-0.1775,0.06382 -0.3643,0.10812 -0.55782,0.13032c0.56374,0.43853 1.19052,1.01196 1.88738,1.73922c0.91609,0.95604 0.21634,2.63934 0.3245,3.95902l-1.18678,2.22231c0,0 -0.40945,0.40945 -1.03129,0.63719c-0.22097,2.16108 -0.77093,4.41608 -1.72568,5.30111c-0.03428,0.03178 -0.06902,0.06294 -0.10421,0.09349c-0.1483,2.09483 -0.73338,4.43751 -1.99026,5.13764c-2.83785,1.58078 -9.07718,0.1234 -12.00495,-0.66285c-2.5235,-0.67768 -6.38779,-2.16089 -8.92195,-3.09753c-0.76632,-0.26667 -1.53264,-0.53333 -2.29896,-0.8l-0.86124,-0.65678c-1.08625,0.34007 -2.34747,0.42673 -3.43285,0.67033c-3.47933,0.78092 -8.44371,-0.28405 -11.51864,-1.54283c-1.24702,-0.51049 -2.7251,-0.96291 -3.45795,-2.09365c-1.81268,-2.79685 -2.27285,-6.01262 -1.34814,-8.76432c-0.26322,-1.24248 -0.37514,-2.53305 -0.851,-3.70658c-0.40577,-1.00068 -3.20722,-4.19935 -3.68664,-4.77343c0,0 -1.60046,-1.92055 0.32009,-3.52101c0.03779,-0.03149 0.07546,-0.06162 0.11299,-0.09043l-0.46931,-1.87216c-0.05781,-0.21094 -0.08867,-0.43302 -0.08867,-0.66231c0,-1.38071 1.11929,-2.5 2.5,-2.5c0.41989,0 0.81561,0.10352 1.16302,0.28642l0.67478,0.3374c2.92669,-1.08593 9.6909,1.79353 11.09392,3.64934c0.31574,0.41764 0.6034,1.28755 0.83881,2.37232c0.84047,-0.2343 1.72858,-0.32944 2.59311,-0.28184c1.30543,0.07188 2.40544,0.37501 3.33085,0.85886c1.35597,-1.47957 2.99667,-2.69597 4.92232,-3.68379l2.60437,-1.73624c0.40239,-0.2768 0.88987,-0.43883 1.41519,-0.43883c1.38071,0 2.5,1.11929 2.5,2.5c0,0.3809 -0.08519,0.74188 -0.23754,1.06498l-1.58065,3.55647v0.37856h-0.06119c0.01054,0.19012 0.00932,0.38151 -0.00569,0.57438c-0.20903,2.68611 -0.99388,3.72538 -1.94748,4.65819c0.49129,-0.08268 0.98057,-0.17284 1.44351,-0.32902c2.72636,-0.91977 4.95117,-1.32169 7.40922,-1.46023c-0.02019,-0.16088 -0.02018,-0.2615 -0.02018,-0.2615zM264.84097,144.21579c0.13779,-0.22674 0.27675,-0.45264 0.41837,-0.67733c-0.33168,0.19753 -0.65537,0.39741 -0.97054,0.60426c0.17464,0.00522 0.36189,0.02638 0.55217,0.07307zM253.19545,164.10175c-0.22634,0.1002 -0.45781,0.1956 -0.69358,0.28637c0.27254,0.0097 0.54377,0.01555 0.80841,0.01596c-0.04021,-0.10037 -0.07872,-0.2011 -0.11484,-0.30233z" fill="#50bd36" stroke="none" stroke-width="0.5"/><path d="M225.55859,183.22438l-0.95597,-3.59623c2.9658,-0.48557 6.48649,0.29248 9.26138,-0.6631c1.91793,-0.66047 0.92371,-6.15178 0.92235,-7.78001c0,0 0,-2.5 2.5,-2.5c2.5,0 2.5,2.5 2.5,2.5c-0.00086,1.09837 0.07897,2.19977 -0.00257,3.29511c-0.14747,1.98122 0.06339,4.0798 -0.68344,5.92079c-1.90781,4.7029 -7.92444,3.74964 -12.21144,4.00301c-0.51733,0.19019 -0.96619,0.19019 -0.96619,0.19019l-0.02728,-0.10261c-0.16066,0.01984 -0.31773,0.04255 -0.47082,0.06859z" fill="#b4ab68" stroke="none" stroke-width="0.5"/><path d="M241.62965,186.5386c-0.35355,-2.47487 2.12132,-2.82843 2.12132,-2.82843l2.64311,-0.31503c0.78823,-0.54837 1.52594,-1.17766 2.36471,-1.6451c0.65672,-0.36598 1.6313,-0.24638 2.09346,-0.83937c1.52171,-1.95248 0.75227,-6.10583 0.75227,-8.36199c0,0 0,-2.5 2.5,-2.5c2.5,0 2.5,2.5 2.5,2.5c0,3.96887 0.60423,8.12869 -1.975,11.638c-1.48597,2.02181 -4.34182,2.51995 -6.45093,3.87917l-3.72052,0.59407c0,0 -2.47487,0.35356 -2.82843,-2.12132z" fill="#b4ab68" stroke="none" stroke-width="0.5"/><path d="M215.24089,158.45777c0,-0.15523 0.01415,-0.30715 0.04122,-0.45455c-0.02707,-0.1474 -0.04122,-0.29932 -0.04122,-0.45455c0,-1.38071 1.11929,-2.5 2.5,-2.5c1.38071,0 2.5,1.11929 2.5,2.5c0,0.15523 -0.01415,0.30715 -0.04122,0.45455c0.02707,0.1474 0.04122,0.29932 0.04122,0.45455c0,1.38071 -1.11929,2.5 -2.5,2.5c-1.38071,0 -2.5,-1.11929 -2.5,-2.5z" fill="#626156" stroke="none" stroke-width="0.5"/><path d="M229.10453,152.77595c1.38071,0 2.5,1.11929 2.5,2.5c0,1.38071 -1.11929,2.5 -2.5,2.5c-0.23637,0 -0.46508,-0.0328 -0.68182,-0.09411c-0.21674,0.0613 -0.44545,0.09411 -0.68182,0.09411c-1.38071,0 -2.5,-1.11929 -2.5,-2.5c0,-1.38071 1.11929,-2.5 2.5,-2.5c0.23637,0 0.46508,0.0328 0.68182,0.09411c0.21674,-0.0613 0.44545,-0.09411 0.68182,-0.09411z" fill="#626156" stroke="none" stroke-width="0.5"/></g></g></svg>