<svg version="1.1" xmlns="http://www.w3.org/2000/svg" xmlns:xlink="http://www.w3.org/1999/xlink" width="28.5" height="28.5" viewBox="0,0,28.5,28.5"><g transform="translate(-225.75,-165.75)"><g data-paper-data="{&quot;isPaintingLayer&quot;:true}" fill-rule="nonzero" stroke-linecap="butt" stroke-linejoin="miter" stroke-miterlimit="10" stroke-dasharray="" stroke-dashoffset="0" style="mix-blend-mode: normal"><path d="M226.25,192v-24c0,-1.04038 0.69833,-1.75 1.75,-1.75h24c1.04511,0 1.75,0.69647 1.75,1.75v24c0,1.04844 -0.66666,1.75 -1.71857,1.75h-24.03143c-1.05482,0 -1.75,-0.69757 -1.75,-1.75z" fill="#5d7596" stroke="#000000" stroke-width="1"/><path d="M238.43665,173.30685l0.03983,-0.01958c0.19584,-0.879 0.85448,-1.58355 1.70695,-1.84468c0.23449,-0.08562 0.47705,-0.11997 0.72225,-0.10923c0.00366,-0.00002 0.00732,-0.00002 0.01098,-0.00002c0.85719,0 1.61362,0.43141 2.06401,1.08895c0.9346,0.96345 1.6194,2.44248 1.60562,3.92828c0.22324,0.3598 0.4139,0.7888 0.56799,1.26003c0.29063,-1.59774 1.62139,-3.43149 2.76238,-3.11059c6.08854,1.7124 2.13811,8.85821 -0.43579,11.59631c-5.78034,6.14908 -20.16534,-0.35747 -18.41312,-9.40273c0.06945,-0.35852 0.23259,-0.69518 0.46098,-0.99217c-0.02245,-0.18616 -0.01125,-0.357 0.03902,-0.50783c1.19409,-3.58226 5.22652,-1.75279 6.65489,0.77252c0.31548,0.10738 0.60261,0.27606 0.84721,0.49184c0.3501,-1.63186 0.91074,-2.96107 1.3668,-3.15109z" fill-opacity="0.96078" fill="#eb5f3b" stroke="none" stroke-width="0.5"/></g></g></svg>