<svg version="1.1" xmlns="http://www.w3.org/2000/svg" xmlns:xlink="http://www.w3.org/1999/xlink" width="326.30752" height="35.04375" viewBox="0,0,326.30752,35.04375"><defs><linearGradient x1="90.93951" y1="170.81721" x2="94.83951" y2="170.81721" gradientUnits="userSpaceOnUse" id="color-1"><stop offset="0" stop-color="#000000"/><stop offset="1" stop-color="#000000"/></linearGradient><linearGradient x1="98.73951" y1="170.81721" x2="94.83951" y2="170.81721" gradientUnits="userSpaceOnUse" id="color-2"><stop offset="0" stop-color="#000000"/><stop offset="1" stop-color="#000000"/></linearGradient><linearGradient x1="88.13197" y1="178.91858" x2="101.56054" y2="178.91858" gradientUnits="userSpaceOnUse" id="color-3"><stop offset="0" stop-color="#000000"/><stop offset="1" stop-color="#000000"/></linearGradient><linearGradient x1="94.18717" y1="178.91858" x2="95.50535" y2="178.91858" gradientUnits="userSpaceOnUse" id="color-4"><stop offset="0" stop-color="#000000"/><stop offset="1" stop-color="#000000"/></linearGradient><linearGradient x1="88.13196" y1="178.91858" x2="101.56054" y2="178.91858" gradientUnits="userSpaceOnUse" id="color-5"><stop offset="0" stop-color="#000000"/><stop offset="1" stop-color="#000000"/></linearGradient></defs><g transform="translate(-76.84625,-159.47816)"><g data-paper-data="{&quot;isPaintingLayer&quot;:true}" fill-rule="nonzero" stroke-linejoin="miter" stroke-miterlimit="10" stroke-dasharray="" stroke-dashoffset="0" style="mix-blend-mode: normal"><path d="M77.34627,190.58004c0,-5.84823 0,-23.42014 0,-26.8c0,-1.81558 1.39858,-3.80187 2.97375,-3.80187c16.55156,0 285.86548,0 319,0c2.17633,0 3.33376,0.83358 3.33376,2.20188c0,5.49589 0,25.6183 0,29c0,1.90937 -1.4244,2.84187 -3.33376,2.84187c-33.15861,0 -302.84771,0 -319.4,0c-1.57518,0 -2.57376,-1.35734 -2.57376,-3.44187z" fill="#474541" stroke="#423f3b" stroke-width="1" stroke-linecap="butt"/><path d="M80.84626,177.00005c0,-7.73199 6.26802,-14 14,-14c7.73198,0 14,6.26801 14,14c0,7.73199 -6.26802,14 -14,14c-7.73198,0 -14,-6.26801 -14,-14z" fill="#76aac6" stroke="#423f3b" stroke-width="0" stroke-linecap="butt"/><text transform="translate(111.34626,173.50005) scale(0.30336,0.30336)" font-size="40" xml:space="preserve" fill="#ffffff" fill-rule="nonzero" stroke="none" stroke-width="1" stroke-linecap="butt" stroke-linejoin="miter" stroke-miterlimit="10" stroke-dasharray="" stroke-dashoffset="0" font-family="Sans Serif" font-weight="normal" text-anchor="start" style="mix-blend-mode: normal"><tspan x="0" dy="0">惊喜</tspan></text><text transform="translate(111.34626,182.25008) scale(0.15168,0.15168)" font-size="40" xml:space="preserve" fill="#ffffff" fill-rule="nonzero" stroke="none" stroke-width="1" stroke-linecap="butt" stroke-linejoin="miter" stroke-miterlimit="10" stroke-dasharray="" stroke-dashoffset="0" font-family="Sans Serif" font-weight="normal" text-anchor="start" style="mix-blend-mode: normal"><tspan x="0" dy="0">随机！！！</tspan></text><g stroke-width="1"><path d="M94.83951,172.76722l-3.9,-3.9" fill="none" stroke="url(#color-1)" stroke-linecap="round"/><path d="M94.83951,172.76722l3.9,-3.9" data-paper-data="{&quot;index&quot;:null}" fill="none" stroke="url(#color-2)" stroke-linecap="round"/><path d="M88.13197,185.13288v-12.42857h13.42857v12.42857z" fill="#2a58ad" stroke="url(#color-3)" stroke-linecap="butt"/><path d="M94.84626,172.7043v12.42857" fill="none" stroke="url(#color-4)" stroke-linecap="round"/><path d="M88.13197,178.91858h13.42857" fill="none" stroke="url(#color-5)" stroke-linecap="round"/></g></g></g></svg>