<svg version="1.1" xmlns="http://www.w3.org/2000/svg" xmlns:xlink="http://www.w3.org/1999/xlink" width="102.75" height="135.48412" viewBox="0,0,102.75,135.48412"><g transform="translate(-188.62499,-111.95342)"><g data-paper-data="{&quot;isPaintingLayer&quot;:true}" fill-rule="nonzero" stroke-linecap="butt" stroke-linejoin="miter" stroke-miterlimit="10" stroke-dasharray="" stroke-dashoffset="0" style="mix-blend-mode: normal"><path d="M205.36574,193.25419v-62h69.25v62z" fill="#838383" stroke="#000000" stroke-width="0.5"/><g stroke="none" stroke-width="0.5"><path d="M245.5701,175.91397c-0.4755,0.2138 -0.95168,0.42663 -1.4074,0.66916c-0.61476,0.86483 -1.3066,1.57509 -2.23054,1.45031c-1.03152,-0.13931 -1.90407,-0.52188 -2.62218,-1.06894c-0.66023,-0.28367 -1.17374,-0.84355 -1.3951,-1.5342c-0.71177,-1.11685 -1.09323,-2.45991 -1.15906,-3.77415c-0.0692,-0.07918 -0.13289,-0.16605 -0.19057,-0.26122c-0.68414,-1.12886 -0.28346,-2.45266 0.25551,-3.80131c-0.34382,-0.25896 -0.65031,-0.65911 -0.85294,-1.267c-0.79057,-2.37171 1.58114,-3.16227 1.58114,-3.16227c0.46115,-0.15367 2.14532,-0.76551 4.0323,-1.3595c1.28262,-0.88167 2.66571,-1.61591 4.4783,-2.1293c1.50989,-0.42765 3.36012,-1.10907 4.6989,-0.29033c2.02882,1.24074 2.83707,2.95711 2.87868,4.81271c0.52552,-0.00368 1.01735,0.12061 1.45292,0.45038c1.60399,1.21437 1.11463,4.08177 0.54389,6.01095c-0.9767,3.30137 -3.97152,4.10112 -6.55028,5.22796l-0.71307,0.36316c0,0 -1.62817,0.81408 -2.80051,-0.33642z" fill="#bf8463"/><path d="M242.78956,177.56316c-0.14242,-2.14743 2.07814,-2.53361 2.07814,-2.53361c1.51362,-0.25253 3.0663,-0.33276 4.54086,-0.7576c2.01796,-0.5814 4.39415,-3.71458 6.79066,-2.49243c1.46312,0.74615 1.12717,3.08563 1.72475,4.61545c0.57352,1.46823 1.61737,3.7665 2.36044,5.06019c0.93187,1.6224 2.39699,2.88513 3.41174,4.45701c1.14706,1.77684 1.60797,3.92692 2.67193,5.75473c0.6957,1.19515 1.87764,2.11841 2.3524,3.41726c0.51997,1.42255 0.24323,3.02681 0.54553,4.51093c1.01138,4.96539 3.77046,11.41402 0.69263,16.33343c-0.85502,1.36661 -2.14954,2.40298 -3.2243,3.60446c-5.38452,-3.69751 -7.90388,-6.68033 -11.18874,-12.05524c-1.88896,-3.09083 -4.51981,-5.37799 -6.3442,-8.54689c-1.5953,-2.77098 -3.47898,-5.95318 -4.36079,-9.04158c-0.21713,-0.76046 -0.04217,-1.61746 -0.34763,-2.34692c-0.75812,-1.81047 -2.04716,-3.36628 -2.80895,-5.1752l-0.38458,-2.12973c0,0 -0.2896,-2.0272 1.49012,-2.67427z" fill="#9e9794"/><path d="M244.05061,178.86032c0.37139,0.92847 -0.55709,1.29987 -0.55709,1.29987l-0.99936,0.39475c-0.67081,0.43609 -1.2944,0.85162 -1.90487,1.22955c-0.18059,-0.65485 -0.42611,-1.28278 -0.7292,-1.87641c0.55018,-0.3572 1.11165,-0.74217 1.71609,-1.13002l1.17456,-0.47482c0,0 0.92848,-0.37139 1.29987,0.55709z" fill="#9e9794"/><path d="M244.05061,182.12119c0.37139,0.92847 -0.55709,1.29987 -0.55709,1.29987l-0.99936,0.39475c-0.53627,0.34864 -1.04237,0.68412 -1.53571,0.99776c-0.0051,-0.01365 -0.01022,-0.02729 -0.01537,-0.04093c0.00341,-0.10743 0.00513,-0.21527 0.00513,-0.32353c0,-0.64353 -0.06079,-1.27285 -0.17694,-1.88255c0.26134,-0.17369 0.52863,-0.35036 0.8049,-0.52763l1.17456,-0.47482c0,0 0.92848,-0.37139 1.29987,0.55709z" fill="#9e9794"/><path d="M244.05061,185.38206c0.37139,0.92847 -0.55709,1.29986 -0.55709,1.29986l-0.99936,0.39475c-0.31725,0.20625 -0.62395,0.4079 -0.92369,0.60315c-0.03447,-0.71283 -0.16136,-1.42866 -0.36894,-2.13679c0.12319,-0.0808 0.24798,-0.16196 0.37465,-0.24323l1.17456,-0.47482c0,0 0.92848,-0.37138 1.29987,0.55709z" fill="#9e9794"/><path d="M244.92018,188.64293c0.37139,0.92847 -0.55709,1.29987 -0.55709,1.29987l-0.99936,0.39475c-0.19397,0.1261 -0.38399,0.25048 -0.57089,0.37274c-0.4124,-0.5938 -0.78939,-1.1762 -1.01011,-1.71616c0.21608,-0.14321 0.43653,-0.28813 0.66302,-0.43346l1.17456,-0.47482c0,0 0.92848,-0.37139 1.29987,0.55709z" fill="#9e9794"/><path d="M245.90149,191.07603c0.55857,0.82945 -0.27088,1.38802 -0.27088,1.38802l-0.89382,0.59633c-0.09029,0.09087 -0.17951,0.18097 -0.26781,0.27026c-0.25107,-0.55981 -0.64661,-1.15436 -1.06538,-1.75257c0.02048,-0.02046 0.04102,-0.04093 0.06163,-0.06143l1.04825,-0.7115c0,0 0.82945,-0.55857 1.38802,0.27089z" fill="#9e9794"/><path d="M253.07433,205.17382c0,0 0.94839,-0.31712 1.26551,0.63127c0.31712,0.94839 -0.63127,1.2655 -0.63127,1.2655c-0.8148,0.26317 -1.48888,0.6167 -2.07935,1.04021c-0.24071,-0.32859 -0.501,-0.64193 -0.77916,-0.93831c-0.0712,-0.28034 -0.1394,-0.5441 -0.2009,-0.78728c0.69101,-0.47866 1.47728,-0.88559 2.42516,-1.21139z" data-paper-data="{&quot;index&quot;:null}" fill="#9e9794"/><path d="M252.04024,202.08126c0,0 0.94839,-0.31712 1.2655,0.63126c0.31712,0.94839 -0.63127,1.2655 -0.63127,1.2655c-0.98277,0.31742 -1.76082,0.7663 -2.43437,1.31088c-0.23514,-0.49982 -0.55887,-1.1058 -0.93848,-1.7695c0.76557,-0.57784 1.64442,-1.06206 2.73862,-1.43814z" data-paper-data="{&quot;index&quot;:null}" fill="#9e9794"/><path d="M251.00616,198.98869c0,0 0.94839,-0.31712 1.2655,0.63127c0.31712,0.94839 -0.63126,1.2655 -0.63126,1.2655c-1.20947,0.39065 -2.10888,0.98038 -2.88503,1.70257c-0.33142,-0.55256 -0.688,-1.12706 -1.05405,-1.70028c0.89684,-0.78431 1.93112,-1.42691 3.30484,-1.89907z" data-paper-data="{&quot;index&quot;:null}" fill="#9e9794"/><path d="M249.14739,196.17189c0,0 0.94839,-0.31712 1.26551,0.63127c0.31712,0.94839 -0.63127,1.2655 -0.63127,1.2655c-1.18418,0.38247 -2.07113,0.95579 -2.83617,1.65743c-0.37989,-0.57309 -0.7585,-1.12833 -1.11911,-1.64093c0.90059,-0.79076 1.93904,-1.43827 3.32105,-1.91327z" data-paper-data="{&quot;index&quot;:null}" fill="#9e9794"/><path d="M247.40406,193.41216c0,0 0.94839,-0.31712 1.2655,0.63127c0.31712,0.94839 -0.63127,1.2655 -0.63127,1.2655c-1.22486,0.39561 -2.13172,0.99541 -2.9146,1.7302c-0.03161,-0.42226 -0.14377,-0.91959 -0.32445,-1.46896c-0.04939,-0.20437 -0.10504,-0.4063 -0.16677,-0.60556c0.0177,-0.04092 0.03313,-0.08239 0.04639,-0.12441c0.76242,-0.57337 1.63738,-1.05414 2.72519,-1.42803z" data-paper-data="{&quot;index&quot;:null}" fill="#9e9794"/><path d="M262.58325,216.10568c0,0 0.60798,-0.79394 1.40193,-0.18596c0.79395,0.60799 0.18597,1.40194 0.18597,1.40194c-0.46431,0.59358 -0.79911,1.18408 -1.04444,1.78181c-0.31887,-0.15479 -0.59889,-0.30315 -0.82945,-0.43709c-0.31052,-0.18039 -0.60661,-0.37074 -0.89105,-0.56966c0.28918,-0.65884 0.66954,-1.31668 1.17705,-1.99105z" data-paper-data="{&quot;index&quot;:null}" fill="#9e9794"/><path d="M260.40491,214.8349c0,0 0.64196,-0.76674 1.4087,-0.12479c0.76674,0.64195 0.12479,1.4087 0.12479,1.4087c-0.4505,0.52696 -0.79139,1.05609 -1.05416,1.59405c-0.54329,-0.41923 -1.04692,-0.8693 -1.53355,-1.33887c0.28314,-0.51143 0.62842,-1.02181 1.05422,-1.5391z" data-paper-data="{&quot;index&quot;:null}" fill="#9e9794"/><path d="M257.68727,212.08939c0,0 0.64196,-0.76673 1.4087,-0.12478c0.76674,0.64195 0.12478,1.40869 0.12478,1.40869c-0.48951,0.5726 -0.8496,1.14775 -1.12068,1.734c-0.47428,-0.49499 -0.95137,-0.99956 -1.45395,-1.50237c0.28067,-0.50355 0.62188,-1.0062 1.04114,-1.51555z" data-paper-data="{&quot;index&quot;:null}" fill="#9e9794"/><path d="M257.60488,208.39836c0,0 0.88661,-0.46251 1.34912,0.4241c0.46251,0.88662 -0.4241,1.34912 -0.4241,1.34912c-1.29556,0.65899 -2.14967,1.51125 -2.85391,2.50238c-0.08817,-0.08059 -0.17737,-0.16094 -0.26772,-0.24101c-0.40062,-0.35505 -0.81602,-0.69626 -1.24309,-1.02692c0.85557,-1.17672 1.87969,-2.1772 3.4397,-3.00768z" data-paper-data="{&quot;index&quot;:null}" fill="#9e9794"/><path d="M256.52714,206.08391c0,0 0.94839,-0.31712 1.26551,0.63126c0.31712,0.94839 -0.63127,1.26551 -0.63127,1.26551c-1.75915,0.56818 -2.86237,1.55755 -3.88442,2.76308c-0.11913,-0.08577 -0.23897,-0.17092 -0.35943,-0.25554c-0.19708,-0.52291 -0.43671,-1.02495 -0.71468,-1.50191c1.14588,-1.24845 2.40315,-2.24209 4.3243,-2.9024z" data-paper-data="{&quot;index&quot;:null}" fill="#9e9794"/><path d="M269.60655,213.62296c0.40934,-0.91238 1.32172,-0.50303 1.32172,-0.50303l0.97844,0.44406c0.73401,0.16861 1.42585,0.31982 2.08505,0.48392c0.00149,0.45129 0.03286,0.89554 0.09225,1.33087c-0.02832,0.2405 -0.07833,0.47059 -0.15824,0.6869c-0.83503,-0.21499 -1.71779,-0.38465 -2.65841,-0.60663l-1.15779,-0.51437c0,0 -0.91237,-0.40934 -0.50303,-1.32172z" data-paper-data="{&quot;index&quot;:null}" fill="#9e9794"/><path d="M270.56953,211.82541c0.04804,-0.99884 1.04688,-0.95081 1.04688,-0.95081l1.07301,0.05625c0.64882,-0.09666 1.26304,-0.19394 1.85583,-0.27548c-0.00104,0.02633 -0.00208,0.05257 -0.00313,0.07869c-0.22151,0.63819 -0.38019,1.30577 -0.46864,1.99532c-0.41649,0.06652 -0.84416,0.13579 -1.28749,0.19914l-1.26566,-0.05622c0,0 -0.99884,-0.04805 -0.95081,-1.04689z" data-paper-data="{&quot;index&quot;:null}" fill="#9e9794"/><path d="M270.7995,210.0025c-0.2257,-0.9742 0.74849,-1.19989 0.74849,-1.19989l1.0478,-0.23799c0.6248,-0.28173 1.21308,-0.55382 1.78436,-0.80242c0.07274,0.14988 0.14276,0.27827 0.20936,0.38256c0.00838,0.01312 0.01712,0.02616 0.02622,0.03911c-0.00835,0.57844 -0.02323,1.13565 -0.0408,1.66152c-0.43242,0.19991 -0.8766,0.40846 -1.3424,0.61516l-1.23316,0.29046c0,0 -0.97419,0.2257 -1.19989,-0.7485z" data-paper-data="{&quot;index&quot;:null}" fill="#9e9794"/><path d="M270.43654,206.64725c-0.2257,-0.9742 0.74849,-1.1999 0.74849,-1.1999l1.04781,-0.23799c0.36989,-0.16679 0.72697,-0.33019 1.07531,-0.48734c0.20464,0.70695 0.41073,1.35455 0.60852,1.90496c-0.33913,0.15731 -0.68663,0.31837 -1.04708,0.47832l-1.23316,0.29046c0,0 -0.9742,0.2257 -1.1999,-0.7485z" data-paper-data="{&quot;index&quot;:null}" fill="#9e9794"/><path d="M269.83711,204.09311c-0.42577,-0.90483 0.47906,-1.3306 0.47906,-1.3306l0.97419,-0.45329c0.40809,-0.30116 0.79773,-0.59295 1.17786,-0.87155c0.16066,0.71141 0.33353,1.41865 0.51173,2.09503c-0.21735,0.16351 -0.43931,0.32927 -0.66789,0.49587l-1.14435,0.5436c0,0 -0.90483,0.42577 -1.3306,-0.47906z" data-paper-data="{&quot;index&quot;:null}" fill="#9e9794"/><path d="M266.19865,188.63282c0,0 -0.98561,0.16903 -1.15465,-0.81659c-0.16903,-0.98561 0.81658,-1.15464 0.81658,-1.15464c0.05062,-0.00815 0.1008,-0.01669 0.15053,-0.02562c0.35509,0.60472 0.71799,1.20332 1.08694,1.7959c-0.28625,0.07719 -0.58536,0.14438 -0.89941,0.20095z" data-paper-data="{&quot;index&quot;:null}" fill="#9e9794"/><path d="M266.74983,191.84677c0,0 -0.98561,0.16903 -1.15464,-0.81658c-0.16903,-0.98561 0.81658,-1.15464 0.81658,-1.15464c0.49919,-0.08033 0.95468,-0.19929 1.37746,-0.35091c0.36557,0.56935 0.73583,1.13306 1.10912,1.69123c-0.64172,0.27264 -1.3464,0.48642 -2.14852,0.6309z" data-paper-data="{&quot;index&quot;:null}" fill="#9e9794"/><path d="M267.30102,195.06072c0,0 -0.98561,0.16903 -1.15464,-0.81658c-0.16903,-0.98561 0.81658,-1.15464 0.81658,-1.15464c1.01006,-0.16255 1.84122,-0.48317 2.58446,-0.9127c0.37304,0.5471 0.74815,1.0888 1.12372,1.62519c-0.95823,0.58103 -2.02771,1.01693 -3.37011,1.25873z" data-paper-data="{&quot;index&quot;:null}" fill="#9e9794"/><path d="M268.70925,198.12769c0,0 -0.98561,0.16903 -1.15464,-0.81658c-0.16903,-0.98561 0.81658,-1.15464 0.81658,-1.15464c1.24606,-0.20053 2.21984,-0.64164 3.09218,-1.23099c0.02044,0.02881 0.04089,0.0576 0.06133,0.08638c-0.00821,0.56126 0.04751,1.27874 0.15087,2.08939c-0.85503,0.46544 -1.8093,0.81803 -2.96632,1.02643z" data-paper-data="{&quot;index&quot;:null}" fill="#9e9794"/><path d="M270.01209,201.12066c0,0 -0.98561,0.16903 -1.15465,-0.81658c-0.16903,-0.98561 0.81659,-1.15464 0.81659,-1.15464c0.83998,-0.13518 1.55623,-0.37969 2.20108,-0.70523c0.10774,0.64494 0.23597,1.32138 0.37852,2.00542c-0.66656,0.29184 -1.40048,0.51953 -2.24154,0.67103z" data-paper-data="{&quot;index&quot;:null}" fill="#9e9794"/><path d="M258.59397,182.59966c-0.66069,-0.75065 0.08997,-1.41134 0.08997,-1.41134l0.80963,-0.70643c0.78385,-1.02447 1.46998,-1.95752 2.21678,-2.7796c0.25534,0.69971 0.5286,1.39212 0.81773,2.07732c-0.51357,0.64387 -1.0118,1.34268 -1.57482,2.06952l-0.94794,0.8405c0,0 -0.75067,0.66069 -1.41135,-0.08997z" data-paper-data="{&quot;index&quot;:null}" fill="#9e9794"/><path d="M257.53617,179.04185c-0.66069,-0.75065 0.08997,-1.41135 0.08997,-1.41135l0.80963,-0.70642c0.73912,-0.966 1.39134,-1.85072 2.08948,-2.63777c0.17538,0.4068 0.33127,0.82032 0.45924,1.24297c0.09472,0.31284 0.19328,0.62425 0.29551,0.93425c-0.4477,0.57568 -0.89125,1.19097 -1.38453,1.82778l-0.94794,0.84051c0,0 -0.75067,0.66069 -1.41136,-0.08997z" data-paper-data="{&quot;index&quot;:null}" fill="#9e9794"/><path d="M256.58875,175.29675c-0.66068,-0.75065 0.08997,-1.41134 0.08997,-1.41134l0.80964,-0.70641c0.51536,-0.67356 0.98849,-1.30761 1.46438,-1.89659c0.35293,0.62267 0.71062,1.24681 1.03836,1.8824c-0.33492,0.4435 -0.67516,0.90647 -1.04306,1.38141l-0.94794,0.84051c0,0 -0.75066,0.66067 -1.41135,-0.08998z" data-paper-data="{&quot;index&quot;:null}" fill="#9e9794"/><path d="M262.21185,184.75609c0,0 -0.94669,0.32214 -1.26882,-0.62456c-0.32213,-0.9467 0.62456,-1.26883 0.62456,-1.26883c0.74474,-0.2449 1.37111,-0.56492 1.92305,-0.94466c0.28653,0.59976 0.584,1.19385 0.89094,1.78237c-0.62766,0.41013 -1.33575,0.76409 -2.16972,1.05568z" data-paper-data="{&quot;index&quot;:null}" fill="#9e9794"/><path d="M262.92465,187.20765c0,0 -0.98561,0.16903 -1.15464,-0.81658c-0.16903,-0.98561 0.81658,-1.15464 0.81658,-1.15464c0.85204,-0.13712 1.57676,-0.38672 2.22879,-0.71929c0.31353,0.57987 0.63571,1.15427 0.9651,1.72328c-0.82671,0.43618 -1.7484,0.76775 -2.85584,0.96723z" data-paper-data="{&quot;index&quot;:null}" fill="#9e9794"/><path d="M265.07088,215.17014c0.99892,-0.04636 1.04528,0.95256 1.04528,0.95256l0.04519,1.07354c0.29379,1.18857 0.57833,2.25693 0.75592,3.30036c-0.74727,-0.19173 -1.47929,-0.43257 -2.14982,-0.68781c-0.17417,-0.74215 -0.38785,-1.50634 -0.58577,-2.32806l-0.06336,-1.26533c0,0 -0.04636,-0.99892 0.95256,-1.04528z" data-paper-data="{&quot;index&quot;:null}" fill="#9e9794"/><path d="M265.97291,215.48272c0.8841,-0.4673 1.35139,0.4168 1.35139,0.4168l0.498,0.95211c0.57992,0.71394 1.12623,1.36874 1.61865,2.01855c-0.55424,0.35817 -1.0708,0.76966 -1.54241,1.22723c-0.53192,-0.69397 -1.1322,-1.38009 -1.74631,-2.1454l-0.59613,-1.11789c0,0 -0.46728,-0.8841 0.41682,-1.3514z" data-paper-data="{&quot;index&quot;:null}" fill="#9e9794"/><path d="M267.65887,214.75236c0.72349,-0.69033 1.41382,0.03315 1.41382,0.03315l0.7384,0.78059c0.99507,0.69978 1.90539,1.31599 2.71995,1.98203c-0.76973,0.18372 -1.50492,0.45643 -2.19409,0.80667c-0.57911,-0.41236 -1.19509,-0.8207 -1.83331,-1.27523l-0.87793,-0.91338c0,0 -0.69033,-0.72349 0.03316,-1.41382z" data-paper-data="{&quot;index&quot;:null}" fill="#9e9794"/></g><path d="M207.9917,194.4491c0,-1 1,-1 1,-1l1.16576,0.14196c0.18339,0.11266 0.36563,0.21746 0.54673,0.31463c1.01974,-10.91619 3.06221,-21.85737 4.90962,-32.66332c0.71024,-4.43923 0.85615,-8.60144 0.85615,-13.09762c0,-2.06474 0.4468,-4.76676 0.01805,-6.76741c-0.47231,-2.20388 -1.25163,-4.41629 -1.7187,-6.65351c-0.15607,-0.74758 -0.70966,-1.58521 -0.35776,-2.263c0.34441,-0.66337 1.30042,-0.78699 2.02867,-0.95533c2.40698,-0.55637 5.83924,-0.05726 8.26653,0.23655c8.69457,1.0631 17.84679,6.03281 19.60836,15.53088c0.64112,3.45678 0.67793,7.1914 0.67557,10.69976c-0.80753,8.70023 -6.64643,14.78624 -11.58627,21.51131c-2.52205,3.43351 -4.30218,7.17782 -7.19136,10.39261c-4.80837,5.02941 -10.21034,9.46089 -17.08275,5.43053l-0.13858,0.14196c0,0 -1,0 -1,-1z" fill-opacity="0.41569" fill="#4f4f4f" stroke="none" stroke-width="0.5"/><path d="M188.875,239.99901c0,-24.85975 0,-106.41629 0,-120.10869c0,-3.81821 3.36827,-7.07779 7.07398,-7.07779c11.1643,0 68.19615,0 88.21739,0c4.3548,0 6.95862,3.25958 6.95862,7.07779c0,13.65276 0,94.77717 0,119.89131c0,4.67224 -3.47339,7.4059 -7.17602,7.4059c-11.10181,0 -67.52679,0 -87.80435,0c-4.54136,0 -7.26963,-2.64899 -7.26963,-7.18851zM274.51667,193.28753v-62h-69.25v61.99669z" fill="#614537" stroke="#000000" stroke-width="0.5"/><path d="M205.13426,225.36582c0,-24.85975 0.07398,-32.11163 0.07398,-32.11163l69.4075,0.13627c0,0 0,6.64383 0,31.75797c0,4.67224 -3.47339,7.40591 -7.17602,7.40591c-11.10181,0 -34.75827,0 -55.03583,0c-4.54136,0 -7.26963,-2.64899 -7.26963,-7.18852z" fill="#614537" stroke="#000000" stroke-width="0.5"/><text transform="translate(207.36574,203.29744) scale(0.23275,0.23275)" font-size="40" xml:space="preserve" fill="#ffffff" fill-rule="nonzero" stroke="none" stroke-width="1" stroke-linecap="butt" stroke-linejoin="miter" stroke-miterlimit="10" stroke-dasharray="" stroke-dashoffset="0" font-family="&quot;Microsoft YaHei&quot;, &quot;微软雅黑&quot;, STXihei, &quot;华文细黑&quot;" font-weight="normal" text-anchor="start" style="mix-blend-mode: normal"><tspan x="0" dy="0">...</tspan></text><text transform="translate(226.934,125.9667) scale(0.32665,0.32665)" font-size="40" xml:space="preserve" fill="#ffffff" fill-rule="nonzero" stroke="none" stroke-width="1" stroke-linecap="butt" stroke-linejoin="miter" stroke-miterlimit="10" stroke-dasharray="" stroke-dashoffset="0" font-family="&quot;Microsoft YaHei&quot;, &quot;微软雅黑&quot;, STXihei, &quot;华文细黑&quot;" font-weight="normal" text-anchor="start" style="mix-blend-mode: normal"><tspan x="0" dy="0">锯灵</tspan></text></g></g></svg>