<svg version="1.1" xmlns="http://www.w3.org/2000/svg" xmlns:xlink="http://www.w3.org/1999/xlink" width="31.98145" height="31.98347" viewBox="0,0,31.98145,31.98347"><g transform="translate(-224.00927,-164.00828)"><g data-paper-data="{&quot;isPaintingLayer&quot;:true}" fill-rule="nonzero" stroke="#000000" stroke-width="1" stroke-linejoin="miter" stroke-miterlimit="10" stroke-dasharray="" stroke-dashoffset="0" style="mix-blend-mode: normal"><path d="M225.79167,165.79168l28.41667,28.41667" fill="none" stroke-linecap="round"/><path d="M225.79167,194.20835l28.41667,-28.41667" fill="none" stroke-linecap="round"/><path d="M236.29931,166.10145c2.12796,-2.12796 5.27952,-2.12048 7.39999,0l10.2,10.20001c2.12075,2.12075 2.12306,5.27693 0,7.39999l-10.2,10.2c-2.11784,2.11784 -5.27702,2.12297 -7.39999,0l-10.2,-10.2c-2.1222,-2.1222 -2.11789,-5.28211 0,-7.39999z" fill="#2f7896" stroke-linecap="butt"/><path d="M238.92583,169.81819l5.63636,5.18182l-9.27273,5l10.09091,4.90909l-8.63636,5.27273" fill="none" stroke-linecap="round"/><path d="M234.5622,182.27274c0,0 -0.72446,-1.79103 -0.59748,-2.6164c0.11405,-0.74136 1.32475,-2.11088 1.32475,-2.11088" fill="none" stroke-linecap="round"/><path d="M245.4378,182.41985c0,0 0.72446,1.79103 0.59748,2.6164c-0.11405,0.74136 -1.32475,2.11088 -1.32475,2.11088" fill="none" stroke-linecap="round"/><path d="M244.49936,172.64512c0,0 0.92303,1.69725 0.89053,2.53169c-0.02919,0.74951 -1.07665,2.24758 -1.07665,2.24758" fill="none" stroke-linecap="round"/></g></g></svg>