<svg version="1.1" xmlns="http://www.w3.org/2000/svg" xmlns:xlink="http://www.w3.org/1999/xlink" width="102.75" height="135.48412" viewBox="0,0,102.75,135.48412"><g transform="translate(-188.62499,-111.95341)"><g data-paper-data="{&quot;isPaintingLayer&quot;:true}" fill-rule="nonzero" stroke-linecap="butt" stroke-linejoin="miter" stroke-miterlimit="10" stroke-dasharray="" stroke-dashoffset="0" style="mix-blend-mode: normal"><path d="M205.36574,193.25419v-62h69.25v62z" fill="#838383" stroke="#000000" stroke-width="0.5"/><path d="M217.42939,180.58049c0,-0.04036 0.00097,-0.07976 0.00285,-0.11822c-3.60321,-1.92463 -7.03455,-4.0866 -10.19852,-6.72536c-2.631,-2.19425 -4.93301,-4.22467 -6.18359,-7.52307c-0.95092,-2.50802 -0.30793,-6.00676 -0.30563,-8.63148c0.00161,-1.83718 -0.08669,-3.95016 0.60514,-5.66588c0.72921,-1.80841 2.50782,-3.02424 3.41054,-4.7526c0.54191,-1.03754 0.79006,-2.22302 1.409,-3.21653c1.20762,-1.93846 2.96347,-3.47588 4.4401,-5.21815c5.08471,-4.75876 11.44214,-7.02714 18.16284,-8.63907c1.82493,-0.4377 3.62104,-1.08291 5.49072,-1.24474c0.16222,-0.01404 6.67711,-0.01067 6.95384,-0.01067c3.34395,0 7.15198,-0.43056 10.45034,0.19724c2.04294,0.38885 3.89535,1.4956 5.71496,2.50248c2.57936,1.42728 5.54584,2.44233 7.98271,4.11401c2.93809,2.0155 5.2828,4.73688 7.76234,7.25938c2.04451,2.87896 4.65628,5.82894 5.53329,9.34866c0.86156,3.45773 0.07408,7.28691 0.31464,10.79604c0.06888,1.00475 0.79141,2.09152 0.35704,3.00014c-0.60829,1.27241 -2.08962,1.89471 -3.14454,2.83077c-1.72465,1.53035 -3.66601,2.80424 -5.59462,4.0679c-2.97817,1.95136 -6.06913,5.18256 -9.55996,6.10914c-0.82107,0.21794 -1.70874,0.05161 -2.53727,0.23926c-1.4909,0.33767 -2.86499,1.14136 -4.37634,1.37077c-2.84752,0.43223 -5.37114,0.07373 -8.14761,0.90667c-8.92504,0.07806 -17.69891,0.69434 -26.62575,0.69434h-0.22547c0,0 -1.69104,0 -1.69104,-1.69103z" fill="#2d7947" stroke="none" stroke-width="0.5"/><path d="M220.96873,207.097c0,-0.30316 0.07977,-0.58768 0.21947,-0.83373l0.26798,-0.57516c0.31636,-4.3988 0.38653,-9.04583 -0.02321,-13.44317c-0.51623,-5.5402 -1.93719,-10.72611 -1.58831,-16.33631c0,0 0.10549,-1.68775 1.79323,-1.58227c1.68775,0.10548 1.58226,1.79323 1.58226,1.79323c-0.34058,5.42094 1.08199,10.45191 1.58033,15.81191c0.42606,4.58249 0.3545,9.41303 0.02917,13.99757l-0.54322,1.6316c-0.06927,0.24349 -0.19173,0.46458 -0.35403,0.64991c-0.31562,0.38964 -0.88943,0.80616 -1.80105,0.49327c-0.04369,-0.01435 -0.08658,-0.03044 -0.12861,-0.04818c-0.89419,-0.36367 -1.05259,-1.05567 -1.03402,-1.55707c0,-0.00053 0,-0.00105 0,-0.00158z" fill="#9d7645" stroke="none" stroke-width="0.5"/><path d="M256.06576,205.23277c-1.19575,1.19574 -2.39149,0 -2.39149,0l-0.89167,-1.14415c-1.08933,-3.272 -2.42976,-6.24363 -2.81838,-9.73031c-0.27444,-2.46225 -0.39052,-5.872 0.20222,-8.27359c0.4758,-1.92779 1.62333,-3.62776 2.30793,-5.49165c0.80547,-2.19296 0.91913,-4.1897 1.801,-6.35672c0,0 0.6504,-1.56096 2.21136,-0.91056c1.56095,0.6504 0.91056,2.21136 0.91056,2.21136c-0.88939,2.07227 -0.96146,4.0392 -1.74213,6.20528c-0.63172,1.75281 -1.74275,3.33191 -2.2015,5.13773c-0.53023,2.08718 -0.35163,5.05015 -0.11989,7.18733c0.3456,3.18706 1.65689,5.95373 2.65736,8.95163l0.07464,-0.17784c0,0 1.19574,1.19574 0,2.39149z" fill="#9d7645" stroke="none" stroke-width="0.5"/><path d="M225.71974,182.69774c-1.69104,0 -1.69103,-1.69104 -1.69103,-1.69104l0.0433,0.05814c-0.62252,-2.72713 -0.11334,-6.53824 -1.82161,-8.89885c-0.44408,-0.61365 -1.13307,-1.00562 -1.69961,-1.50843c0,0 -1.24656,-1.14268 -0.10388,-2.38923c1.14267,-1.24656 2.38923,-0.10388 2.38923,-0.10388c0.72188,0.67824 1.60315,1.21939 2.16562,2.0347c2.08791,3.02641 1.57358,6.71434 2.36571,10.1052l0.04331,0.70234c0,0 0,1.69104 -1.69104,1.69104z" fill="#9d7645" stroke="none" stroke-width="0.5"/><path d="M234.65808,158.78163c0,0.25796 -0.05776,0.50243 -0.16105,0.72118c0,2.17538 0,4.35075 0,6.52613c0,0 0,1.69103 -1.69104,1.69103c-1.69104,0 -1.69104,-1.69103 -1.69104,-1.69103c0,-2.20103 0,-4.40207 0,-6.6031l0.17938,-0.89404c0.03893,-0.26287 0.13834,-0.50601 0.28364,-0.71484c0.27071,-0.42362 0.79576,-0.90171 1.74059,-0.68977c0.04208,0.0089 0.0836,0.01936 0.12447,0.03132c0.92692,0.2591 1.16412,0.92554 1.2036,1.42532c0.00756,0.06489 0.01145,0.13089 0.01145,0.19781z" fill="#9d7645" stroke="none" stroke-width="0.5"/><path d="M246.88098,163.53021c-0.23915,1.67405 -1.91319,1.43489 -1.91319,1.43489l-2.9659,-0.59739c-0.93442,-1.47299 -2.06509,-2.87994 -3.4628,-3.92362c0,0 -1.34035,-1.03105 -0.30931,-2.3714c1.03105,-1.34035 2.3714,-0.30931 2.3714,-0.30931c1.31988,1.03882 2.56216,2.29859 3.30136,3.80684l1.54354,0.04681c0,0 1.67404,0.23914 1.43489,1.91319z" fill="#9d7645" stroke="none" stroke-width="0.5"/><path d="M249.7969,170.86047c0,-0.09217 0.00737,-0.18262 0.02156,-0.27079l0.04013,-0.50391c0.68082,-2.44527 1.8421,-5.39864 1.55576,-7.93002c0,0 -0.1531,-1.68409 1.531,-1.83719c1.6841,-0.1531 1.83719,1.53099 1.83719,1.53099c0.22838,3.01889 -0.78693,6.00811 -1.60559,8.92743c0.00135,0.02766 0.00203,0.0555 0.00203,0.08349c0,0.21373 -0.03966,0.41819 -0.112,0.60645c-0.16482,0.4851 -0.57218,1.08459 -1.57904,1.08459c-1.00685,0 -1.41422,-0.59949 -1.57904,-1.08459c-0.07234,-0.18825 -0.11199,-0.39272 -0.11199,-0.60645z" fill="#9d7645" stroke="none" stroke-width="0.5"/><path d="M226.9687,173.11165c-1.33316,-2.49158 -2.8577,-4.74469 -4.96329,-6.63671c0,0 -1.25127,-1.13752 -0.11375,-2.38878c1.13752,-1.25126 2.38878,-0.11375 2.38878,-0.11375c2.38594,2.19036 4.12689,4.69325 5.66609,7.5358l0.6522,1.3027c0.09864,0.18713 0.16322,0.395 0.18549,0.61536c0.07033,0.49822 -0.01713,1.20396 -0.87456,1.65805c-0.03625,0.01975 -0.0733,0.03821 -0.11109,0.05532c-0.8757,0.40894 -1.49107,0.05408 -1.8461,-0.30089c-0.15743,-0.14595 -0.28704,-0.3215 -0.37995,-0.51781z" fill="#9d7645" stroke="none" stroke-width="0.5"/><path d="M237.95963,180.76512c-0.21373,0 -0.4182,-0.03965 -0.60646,-0.112c-0.4851,-0.16482 -1.08459,-0.57219 -1.08459,-1.57904c0,-0.90685 0.48631,-1.32738 0.93735,-1.52239c0.24785,-0.74955 0.47619,-1.51193 0.9989,-2.08055c0.62079,-0.6753 1.65765,-0.78603 2.48647,-1.17904c0,0 1.56096,-0.6504 2.21136,0.91056c0.6504,1.56096 -0.91056,2.21135 -0.91056,2.21135c-0.45959,0.14382 -1.06372,0.06726 -1.37876,0.43147c-0.42552,0.49194 -0.40032,1.23776 -0.60048,1.85663l-0.67212,0.34797c-0.30628,0.43262 -0.81072,0.71503 -1.38111,0.71503z" fill="#9d7645" stroke="none" stroke-width="0.5"/><path d="M226.28342,203.23177c0,-0.18028 0.02821,-0.35398 0.08046,-0.51691l0.23217,-0.82705c0.97832,-2.12335 1.29681,-4.12351 1.82309,-6.43917c0,0 0.37477,-1.64899 2.02375,-1.27421c1.64899,0.37477 1.27421,2.02375 1.27421,2.02375c-0.57703,2.53894 -0.98437,4.73539 -2.04214,7.08914l-0.01611,0.09526c-0.02659,0.30084 -0.13196,0.57904 -0.29533,0.81386c-0.27071,0.42362 -0.79577,0.90171 -1.7406,0.68977c-0.04208,-0.0089 -0.0836,-0.01936 -0.12447,-0.03133c-0.92692,-0.2591 -1.16412,-0.92554 -1.2036,-1.42531c-0.00756,-0.06489 -0.01144,-0.1309 -0.01144,-0.19781z" fill="#9d7645" stroke="none" stroke-width="0.5"/><path d="M239.00646,198.56128c0,-0.05402 0.00253,-0.10746 0.00749,-0.16019l0.1583,-1.89889c0.08364,-0.94898 -0.07007,-1.94999 0.25091,-2.84695c0.84069,-2.34924 3.29913,-3.16059 3.12643,-5.72335c0,0 0,-1.69104 1.69103,-1.69104c1.69104,0 1.69104,1.69104 1.69104,1.69104c-0.02798,0.7659 0.20284,1.58695 -0.08392,2.29769c-0.69515,1.72288 -2.60847,2.79078 -3.2317,4.54096c-0.22206,0.62359 -0.04746,1.32306 -0.07119,1.98458l-0.16082,1.9306c-0.01579,0.21709 -0.07256,0.42282 -0.16262,0.60947c-0.20244,0.46599 -0.652,1.02525 -1.63847,0.95331c-0.02123,-0.00142 -0.04237,-0.00323 -0.06338,-0.00543c-0.97505,-0.09607 -1.3238,-0.71805 -1.44611,-1.20898c-0.04361,-0.15005 -0.06698,-0.3087 -0.06698,-0.47281z" fill="#9d7645" stroke="none" stroke-width="0.5"/><path d="M222.05156,214.28851c0.08936,0 0.17712,0.00693 0.26273,0.02028c0.49824,0.05874 1.1547,0.32185 1.37784,1.25906c0.0096,0.03839 0.0179,0.07729 0.02482,0.11667c0.17927,0.95488 -0.31814,1.46311 -0.75217,1.71852c-0.17862,0.11482 -0.38026,0.19695 -0.59645,0.23792l-0.94282,0.19849c-1.23586,0.24409 -2.46816,0.95766 -3.70757,0.73229c-0.13106,-0.02383 -0.25986,-0.05421 -0.3867,-0.0903l-0.00858,0.03144l-2.44475,-0.66675c-0.73607,-0.18307 -1.28154,-0.8484 -1.28154,-1.64112c0,-0.64028 0.35584,-1.19744 0.88055,-1.48451l1.4389,-0.82223c0.54671,-0.48202 1.09341,-0.96406 1.64011,-1.44608c0,0 1.27264,-1.11356 2.38619,0.15908c0.75215,0.8596 0.41565,1.64662 0.118,2.06694c0.22528,-0.05016 0.44917,-0.09844 0.66864,-0.14828l0.9395,-0.19779c0.12316,-0.02854 0.25147,-0.04362 0.38331,-0.04362z" fill="#9d7645" stroke="none" stroke-width="0.5"/><path d="M228.8397,210.78342c0,0 -0.66613,-1.55431 0.88818,-2.22045c1.55431,-0.66613 2.22044,0.88818 2.22044,0.88818l0.66169,1.54394c0.0874,0.1918 0.14003,0.4028 0.14979,0.62493c0.04151,0.50055 -0.0855,1.19964 -0.96432,1.60371c-0.04018,0.0191 -0.08123,0.03666 -0.12307,0.0526c-0.89658,0.35476 -1.48912,-0.03528 -1.8223,-0.41009c-0.14858,-0.15484 -0.26798,-0.33791 -0.34934,-0.54035z" fill="#9d7645" stroke="none" stroke-width="0.5"/><path d="M234.60959,221.9102c-0.71237,-0.71237 -0.57594,-1.42473 -0.34923,-1.88427c0.11788,-0.26412 0.3015,-0.49245 0.53006,-0.6642c0.46447,-1.30849 0.52354,-2.75206 1.03746,-4.0449c0.4021,-1.01153 1.25995,-1.84085 1.49352,-2.90402c0,0 0.41014,-1.64055 2.05068,-1.23041c1.64054,0.41014 1.23041,2.05069 1.23041,2.05069c-0.19457,0.71975 -0.25681,1.48916 -0.58371,2.15927c-0.24135,0.49475 -0.87358,0.73934 -1.07938,1.24991c-0.22222,0.55131 0.00968,1.20265 -0.14094,1.77766c-0.22433,0.85641 -0.64807,1.64775 -0.9721,2.47162l-0.60205,0.74311c-0.17717,0.27264 -0.43078,0.49103 -0.73046,0.62478c-0.45954,0.22671 -1.17191,0.36313 -1.88428,-0.34924z" fill="#9d7645" stroke="none" stroke-width="0.5"/><path d="M247.52986,213.38662c-1.00685,0 -1.41422,-0.59949 -1.57904,-1.08459c-0.11199,-0.32963 -0.11199,-0.60645 -0.11199,-0.60645v-1.35283c0.10576,-2.23026 0.5973,-2.55261 -1.44984,-2.60599c0,0 -1.67798,-0.20975 -1.46823,-1.88773c0.20974,-1.67798 1.88772,-1.46823 1.88772,-1.46823c0.80169,0.13986 1.71395,-0.0101 2.40506,0.41959c2.56549,1.59509 1.92737,2.94357 2.00736,5.54235v1.35283c0,0 0,0.27681 -0.112,0.60645c-0.16482,0.4851 -0.57219,1.08459 -1.57904,1.08459z" fill="#9d7645" stroke="none" stroke-width="0.5"/><path d="M269.28789,214.62672c0,1.00686 -0.59949,1.41422 -1.08459,1.57904c-0.18826,0.07235 -0.39272,0.112 -0.60645,0.112c-0.00585,0 -0.01171,-0.00003 -0.01754,-0.00009l-1.97076,-0.01001c-4.14586,-0.94762 -6.1345,-3.5274 -9.39803,-5.9649c0,0 -1.35284,-1.01462 -0.33821,-2.36746c1.01463,-1.35283 2.36746,-0.33821 2.36746,-0.33821c2.61449,1.96819 4.41843,4.60457 7.73783,5.30868l1.59772,-0.00997c0.00716,-0.00009 0.01435,-0.00013 0.02153,-0.00013c0.21373,0 0.41819,0.03965 0.60645,0.112c0.4851,0.16482 1.08459,0.57218 1.08459,1.57904z" fill="#9d7645" stroke="none" stroke-width="0.5"/><path d="M262.32999,206.9839c-0.5261,-0.37579 -1.0522,-0.75157 -1.5783,-1.12736c0,0 -1.37606,-0.98289 -0.39316,-2.35895c0.98289,-1.37606 2.35895,-0.39316 2.35895,-0.39316c0.5261,0.37579 1.05221,0.75157 1.57831,1.12735l1.28527,0.85581c0.17955,0.1158 0.33576,0.26468 0.46001,0.43802c0.30928,0.399 0.58428,1.05818 0.0581,1.88167c-0.01543,0.02459 -0.03148,0.04875 -0.04811,0.07247c-0.55629,0.80709 -1.27008,0.81047 -1.7588,0.67963c-0.21281,-0.04798 -0.41043,-0.13608 -0.58448,-0.25594z" fill="#9d7645" stroke="none" stroke-width="0.5"/><path d="M209.73472,208.24104c2.45785,-0.53469 4.62127,-0.56012 7.11526,-0.25268c0,0 1.67798,0.20974 1.46823,1.88772c-0.20974,1.67798 -1.88773,1.46823 -1.88773,1.46823c-2.06113,-0.26164 -3.80512,-0.27445 -5.82249,0.16708c-0.22771,0.15668 -0.49572,0.259 -0.7853,0.28827c-0.49822,0.07033 -1.20396,-0.01712 -1.65806,-0.87456c-0.01975,-0.03625 -0.03821,-0.07331 -0.05532,-0.1111c-0.40894,-0.8757 -0.05407,-1.49106 0.30089,-1.8461c0.18098,-0.19522 0.40749,-0.34764 0.66263,-0.44039z" fill="#9d7645" stroke="none" stroke-width="0.5"/><path d="M229.43959,216.56624c1.66803,-0.27801 1.94603,1.39003 1.94603,1.39003l0.10273,0.94404c0.63497,1.43905 1.34416,2.70906 1.48591,4.3132c0.09322,1.05503 0.27276,2.1713 -0.05989,3.17684c-1.51197,4.57035 -7.53491,4.80618 -11.53923,4.80855c-2.04329,0.0012 -6.80207,0.57758 -8.37842,-0.91467c-2.3108,-2.18753 -0.54439,-4.85481 0.77324,-6.60234c1.08924,-1.44462 2.46666,-2.69403 3.96861,-3.70275c2.18833,-1.46971 4.41228,-1.03308 6.36908,-2.80331c0,0 1.28393,-1.10052 2.38444,0.18341c1.10052,1.28393 -0.18341,2.38444 -0.18341,2.38444c-0.63424,0.52378 -1.16234,1.21297 -1.90273,1.57133c-0.85722,0.41491 -3.77374,0.76416 -4.80557,1.48762c-1.21789,0.85392 -2.24296,1.9635 -3.24648,3.0614c-0.39014,0.42684 -0.70708,0.92236 -0.97559,1.43452c-0.08264,0.15761 -0.22434,0.47649 -0.05494,0.53106c1.1332,0.36501 2.38106,-0.01121 3.57159,-0.01278c2.70863,-0.00357 5.24661,0.06737 7.89105,-0.61506c1.31513,-0.33939 2.52672,-0.25198 2.8914,-1.79149c0.40804,-1.72253 -0.61795,-3.65977 -1.27964,-5.13638l-0.34821,-1.76161c0,0 -0.278,-1.66803 1.39003,-1.94604z" fill="#8f7d47" stroke="none" stroke-width="0.5"/><path d="M252.86134,214.91798c1.51251,-0.75626 2.26877,0.75625 2.26877,0.75625l0.08056,0.21258c1.67159,2.31395 5.57188,4.88771 5.72129,7.99675c0.07775,1.61788 -0.17204,3.5134 -1.29087,4.68464c-0.82042,0.85885 -2.35771,0.30465 -3.54331,0.37598c-1.80052,0.10833 -3.60754,0 -5.41132,0c-3.27138,0 -8.91528,1.17659 -11.04385,-2.42576c-0.53026,-0.8974 0.38297,-2.0532 0.68119,-3.052c0.83913,-2.81046 2.59143,-4.27364 4.78239,-6.09c0,0 1.30879,-1.07082 2.37962,0.23797c1.07083,1.30879 -0.23796,2.37962 -0.23796,2.37962c-2.32911,1.87599 -2.34334,2.49665 -3.78554,4.73265c-0.15749,0.24416 -0.87323,0.34632 -0.67164,0.55555c0.35953,0.37316 1.00297,0.29306 1.52015,0.32513c2.12119,0.13154 4.25037,-0.04523 6.37563,-0.04523c1.80378,0 3.615,-0.16382 5.41132,0c0.48668,0.04439 1.04414,0.69181 1.41707,0.37597c0.41455,-0.35109 0.20461,-1.10439 0.06196,-1.62857c-0.60532,-2.2243 -1.65912,-2.11715 -3.18626,-3.81591c-0.72276,-0.80399 -1.27672,-1.74502 -1.91509,-2.61753l-0.37038,-0.68931c0,0 -0.75626,-1.51251 0.75625,-2.26877z" fill="#8f7d47" stroke="none" stroke-width="0.5"/><path d="M188.875,239.99901c0,-24.85975 0,-106.41629 0,-120.10869c0,-3.81821 3.36827,-7.07779 7.07398,-7.07779c11.1643,0 68.19615,0 88.21739,0c4.3548,0 6.95862,3.25958 6.95862,7.07779c0,13.65276 0,94.77717 0,119.89131c0,4.67224 -3.47339,7.4059 -7.17602,7.4059c-11.10181,0 -67.52679,0 -87.80435,0c-4.54136,0 -7.26963,-2.64899 -7.26963,-7.18851zM274.51667,193.28753v-62h-69.25v61.99669z" fill="#614537" stroke="#000000" stroke-width="0.5"/><path d="M205.13426,225.36582c0,-24.85975 0.07398,-32.11163 0.07398,-32.11163l69.4075,0.13627c0,0 0,6.64383 0,31.75797c0,4.67224 -3.47339,7.40591 -7.17602,7.40591c-11.10181,0 -34.75827,0 -55.03583,0c-4.54136,0 -7.26963,-2.64899 -7.26963,-7.18852z" fill="#614537" stroke="#000000" stroke-width="0.5"/><text transform="translate(207.36574,203.29744) scale(0.23275,0.23275)" font-size="40" xml:space="preserve" fill="#ffffff" fill-rule="nonzero" stroke="none" stroke-width="1" stroke-linecap="butt" stroke-linejoin="miter" stroke-miterlimit="10" stroke-dasharray="" stroke-dashoffset="0" font-family="&quot;Microsoft YaHei&quot;, &quot;微软雅黑&quot;, STXihei, &quot;华文细黑&quot;" font-weight="normal" text-anchor="start" style="mix-blend-mode: normal"><tspan x="0" dy="0">其实不是树。</tspan><tspan x="0" dy="48px">绿的是壳?</tspan></text><text transform="translate(226.934,125.9667) scale(0.32665,0.32665)" font-size="40" xml:space="preserve" fill="#ffffff" fill-rule="nonzero" stroke="none" stroke-width="1" stroke-linecap="butt" stroke-linejoin="miter" stroke-miterlimit="10" stroke-dasharray="" stroke-dashoffset="0" font-family="&quot;Microsoft YaHei&quot;, &quot;微软雅黑&quot;, STXihei, &quot;华文细黑&quot;" font-weight="normal" text-anchor="start" style="mix-blend-mode: normal"><tspan x="0" dy="0">异树</tspan></text></g></g></svg>