<svg version="1.1" xmlns="http://www.w3.org/2000/svg" xmlns:xlink="http://www.w3.org/1999/xlink" width="128.00855" height="193.39224" viewBox="0,0,128.00855,193.39224"><defs><radialGradient cx="240.00049" cy="153.99999" r="43.33867" gradientUnits="userSpaceOnUse" id="color-1"><stop offset="0" stop-color="#f8b870"/><stop offset="1" stop-color="#67503a"/></radialGradient></defs><g transform="translate(-173.24096,-80.35776)"><g data-paper-data="{&quot;isPaintingLayer&quot;:true}" fill-rule="nonzero" stroke-linejoin="miter" stroke-miterlimit="10" stroke-dasharray="" stroke-dashoffset="0" style="mix-blend-mode: normal"><path d="M201.82399,87h89.92552c5.00061,0 8.74997,3.74753 8.75,8.75l0.001,168.25c0.00003,4.99939 -3.74669,8.99999 -8.75102,8.99999l-103.5,0.00001c-5.00277,0 -8.75,-4.00317 -8.75,-9l0.00002,-150.35728z" fill="#7f633f" stroke="#000000" stroke-width="1.5" stroke-linecap="butt"/><path d="M196.11386,187.35775c0,-1.90221 6.28685,10.00867 9.8392,10.00867h68.10253c3.54693,0 9.83913,-11.95542 9.83913,-10.00867c0,10.02674 -0.09151,50.27884 -0.09151,58.42575c0,2.98806 -1.9043,6.98177 -6.56483,6.98177c0,0 -61.17368,0.0465 -74.55983,0.0465c-4.62287,0 -6.57229,-4.08852 -6.57229,-7.02802z" fill="#191919" stroke="#000000" stroke-width="0" stroke-linecap="butt"/><path d="M196.66181,186.96175v-65.923c0,-5.01085 5.38104,-10.3774 10.37714,-10.3774h65.92334c4.98781,0 10.37687,5.3757 10.37687,10.3774v65.923c0,5.01026 -5.36172,10.37695 -10.37687,10.37695h-65.92334c-5.0104,0 -10.37714,-5.37792 -10.37714,-10.37695z" fill="url(#color-1)" stroke="#191919" stroke-width="1" stroke-linecap="butt"/><path d="M173.99096,120.23529l32.7902,-39.12753" fill="none" stroke="#000000" stroke-width="1.5" stroke-linecap="round"/><text transform="translate(252.29487,267.85839) scale(0.32654,0.32654)" font-size="40" xml:space="preserve" fill="#ffffff" fill-rule="nonzero" stroke="#000000" stroke-width="1" stroke-linecap="butt" stroke-linejoin="miter" stroke-miterlimit="10" stroke-dasharray="" stroke-dashoffset="0" font-family="&quot;Microsoft YaHei&quot;, &quot;微软雅黑&quot;, STXihei, &quot;华文细黑&quot;" font-weight="normal" text-anchor="start" style="mix-blend-mode: normal"><tspan x="0" dy="0">行动牌</tspan></text><text transform="translate(225.93261,103.52383) scale(0.36591,0.36591)" font-size="40" xml:space="preserve" fill="#ffffff" fill-rule="nonzero" stroke="#000000" stroke-width="1" stroke-linecap="butt" stroke-linejoin="miter" stroke-miterlimit="10" stroke-dasharray="" stroke-dashoffset="0" font-family="&quot;Microsoft YaHei&quot;, &quot;微软雅黑&quot;, STXihei, &quot;华文细黑&quot;" font-weight="normal" text-anchor="start" style="mix-blend-mode: normal"><tspan x="0" dy="0">千剑万花</tspan></text><text transform="translate(199.01649,209.6843) scale(0.2134,0.2134)" font-size="40" xml:space="preserve" fill="#ffffff" fill-rule="nonzero" stroke="none" stroke-width="1" stroke-linecap="butt" stroke-linejoin="miter" stroke-miterlimit="10" stroke-dasharray="" stroke-dashoffset="0" font-family="&quot;Microsoft YaHei&quot;, &quot;微软雅黑&quot;, STXihei, &quot;华文细黑&quot;" font-weight="normal" text-anchor="start" style="mix-blend-mode: normal"><tspan x="0" dy="0">　 • 受到 3 点真实伤</tspan><tspan x="0" dy="48px">害</tspan><tspan x="0" dy="48px">　 • 造成    次 1 点伤</tspan><tspan x="0" dy="48px">害</tspan></text><text transform="translate(189.66407,268.21233) scale(0.2977,0.2977)" font-size="40" xml:space="preserve" fill="#ffffff" fill-rule="nonzero" stroke="#000000" stroke-width="1" stroke-linecap="butt" stroke-linejoin="miter" stroke-miterlimit="10" stroke-dasharray="" stroke-dashoffset="0" font-family="Pixel" font-weight="normal" text-anchor="start" style="mix-blend-mode: normal"><tspan x="0" dy="0">ACTION</tspan></text><g stroke-width="1.5"><path d="M249.70828,144.54253l-15.61767,-16.90393l-0.20619,-5.48425l5.45083,0.63868l15.61767,16.90393z" data-paper-data="{&quot;origRot&quot;:0}" fill="#b7dce3" stroke="#000000" stroke-linecap="butt"/><path d="M252.3306,142.11972l-17.45504,-18.89263" data-paper-data="{&quot;origRot&quot;:0}" fill="none" stroke="#000000" stroke-linecap="round"/><path d="M251.19634,143.32202l2.35316,-2.17411l4.21481,4.56194c0,0 -0.14727,1.31972 -0.69203,1.82303c-0.37359,0.34517 -1.66113,0.35108 -1.66113,0.35108z" data-paper-data="{&quot;origRot&quot;:0}" fill="#bc752d" stroke="#000000" stroke-linecap="butt"/><path d="M248.01602,147.78007c0,0 -0.89392,0.15537 -1.163,-0.13587c-0.16818,-0.18203 0.04259,-1.07681 0.04259,-1.07681l10.06159,-9.29598c0,0 1.12281,-0.30822 1.31958,-0.09525c0.24049,0.2603 -0.19916,1.30794 -0.19916,1.30794z" data-paper-data="{&quot;origRot&quot;:0}" fill="#000000" stroke="none" stroke-linecap="butt"/></g><g stroke-width="1.5"><path d="M249.45799,163.70782l16.90393,-15.61767l5.48425,-0.20619l-0.63868,5.45083l-16.90393,15.61767z" data-paper-data="{&quot;origRot&quot;:0}" fill="#b7dce3" stroke="#000000" stroke-linecap="butt"/><path d="M251.8808,166.33014l18.89263,-17.45504" data-paper-data="{&quot;origRot&quot;:0}" fill="none" stroke="#000000" stroke-linecap="round"/><path d="M250.6785,165.19588l2.17411,2.35316l-4.56194,4.21481c0,0 -1.31972,-0.14727 -1.82303,-0.69203c-0.34517,-0.37359 -0.35108,-1.66113 -0.35108,-1.66113z" data-paper-data="{&quot;origRot&quot;:0}" fill="#bc752d" stroke="#000000" stroke-linecap="butt"/><path d="M246.22045,162.01556c0,0 -0.15537,-0.89392 0.13587,-1.163c0.18203,-0.16818 1.07681,0.04259 1.07681,0.04259l9.29598,10.06159c0,0 0.30822,1.12281 0.09525,1.31958c-0.2603,0.24049 -1.30794,-0.19916 -1.30794,-0.19916z" data-paper-data="{&quot;origRot&quot;:0}" fill="#000000" stroke="none" stroke-linecap="butt"/></g><g stroke-width="1.5"><path d="M230.54299,144.29224l-16.90393,15.61767l-5.48425,0.20619l0.63868,-5.45083l16.90393,-15.61767z" data-paper-data="{&quot;origRot&quot;:0}" fill="#b7dce3" stroke="#000000" stroke-linecap="butt"/><path d="M228.12018,141.66992l-18.89263,17.45504" data-paper-data="{&quot;origRot&quot;:0}" fill="none" stroke="#000000" stroke-linecap="round"/><path d="M229.32248,142.80417l-2.17411,-2.35316l4.56194,-4.21481c0,0 1.31972,0.14727 1.82303,0.69203c0.34517,0.37359 0.35108,1.66113 0.35108,1.66113z" data-paper-data="{&quot;origRot&quot;:0}" fill="#bc752d" stroke="#000000" stroke-linecap="butt"/><path d="M233.78053,145.9845c0,0 0.15537,0.89392 -0.13587,1.163c-0.18203,0.16818 -1.07681,-0.04259 -1.07681,-0.04259l-9.29598,-10.06159c0,0 -0.30822,-1.12281 -0.09525,-1.31958c0.2603,-0.24049 1.30794,0.19916 1.30794,0.19916z" data-paper-data="{&quot;origRot&quot;:0}" fill="#000000" stroke="none" stroke-linecap="butt"/></g><g stroke-width="1.5"><path d="M230.2927,163.45753l15.61767,16.90393l0.20619,5.48425l-5.45083,-0.63868l-15.61767,-16.90393z" data-paper-data="{&quot;origRot&quot;:0}" fill="#b7dce3" stroke="#000000" stroke-linecap="butt"/><path d="M227.67038,165.88034l17.45504,18.89263" data-paper-data="{&quot;origRot&quot;:0}" fill="none" stroke="#000000" stroke-linecap="round"/><path d="M228.80464,164.67804l-2.35316,2.17411l-4.21481,-4.56194c0,0 0.14727,-1.31972 0.69203,-1.82303c0.37359,-0.34517 1.66113,-0.35108 1.66113,-0.35108z" data-paper-data="{&quot;origRot&quot;:0}" fill="#bc752d" stroke="#000000" stroke-linecap="butt"/><path d="M231.98496,160.21999c0,0 0.89392,-0.15537 1.163,0.13587c0.16818,0.18203 -0.04259,1.07681 -0.04259,1.07681l-10.06159,9.29598c0,0 -1.12281,0.30822 -1.31958,0.09525c-0.24049,-0.2603 0.19916,-1.30794 0.19916,-1.30794z" data-paper-data="{&quot;origRot&quot;:0}" fill="#000000" stroke="none" stroke-linecap="butt"/></g><g stroke-width="1.5"><path d="M240.17747,140.44812l-22.99624,-0.90952l-4.02375,-3.73215l4.30593,-3.4027l22.99624,0.90952z" data-paper-data="{&quot;origRot&quot;:0}" fill="#b7dce3" stroke="#000000" stroke-linecap="butt"/><path d="M240.31854,136.88067l-25.70168,-1.01653" data-paper-data="{&quot;origRot&quot;:0}" fill="none" stroke="#000000" stroke-linecap="round"/><path d="M240.36665,138.53287l0.12661,-3.20126l6.2061,0.24546c0,0 0.82905,1.03732 0.79974,1.77842c-0.0201,0.50824 -0.92635,1.42285 -0.92635,1.42285z" data-paper-data="{&quot;origRot&quot;:0}" fill="#bc752d" stroke="#000000" stroke-linecap="butt"/><path d="M241.27014,143.93401c0,0 -0.52223,0.74196 -0.91844,0.72629c-0.24764,-0.00979 -0.7313,-0.79154 -0.7313,-0.79154l0.54137,-13.68787c0,0 0.576,-1.01189 0.86573,-1.00044c0.35411,0.01401 0.78403,1.06568 0.78403,1.06568z" data-paper-data="{&quot;origRot&quot;:0}" fill="#000000" stroke="none" stroke-linecap="butt"/></g><g stroke-width="1.5"><path d="M253.55239,154.17701l0.90952,-22.99624l3.73215,-4.02375l3.4027,4.30593l-0.90952,22.99624z" data-paper-data="{&quot;origRot&quot;:0}" fill="#b7dce3" stroke="#000000" stroke-linecap="butt"/><path d="M257.11984,154.31808l1.01653,-25.70168" data-paper-data="{&quot;origRot&quot;:0}" fill="none" stroke="#000000" stroke-linecap="round"/><path d="M255.46764,154.36619l3.20126,0.12661l-0.24546,6.2061c0,0 -1.03732,0.82905 -1.77842,0.79974c-0.50824,-0.0201 -1.42285,-0.92635 -1.42285,-0.92635z" data-paper-data="{&quot;origRot&quot;:0}" fill="#bc752d" stroke="#000000" stroke-linecap="butt"/><path d="M250.0665,155.26968c0,0 -0.74196,-0.52223 -0.72629,-0.91844c0.00979,-0.24764 0.79154,-0.7313 0.79154,-0.7313l13.68787,0.54137c0,0 1.01189,0.576 1.00044,0.86573c-0.01401,0.35411 -1.06568,0.78403 -1.06568,0.78403z" data-paper-data="{&quot;origRot&quot;:0}" fill="#000000" stroke="none" stroke-linecap="butt"/></g><g stroke-width="1.5"><path d="M226.44858,153.82304l-0.90952,22.99624l-3.73215,4.02375l-3.4027,-4.30593l0.90952,-22.99624z" data-paper-data="{&quot;origRot&quot;:0}" fill="#b7dce3" stroke="#000000" stroke-linecap="butt"/><path d="M222.88113,153.68197l-1.01653,25.70168" data-paper-data="{&quot;origRot&quot;:0}" fill="none" stroke="#000000" stroke-linecap="round"/><path d="M224.53333,153.63386l-3.20126,-0.12661l0.24546,-6.2061c0,0 1.03732,-0.82905 1.77842,-0.79974c0.50824,0.0201 1.42285,0.92635 1.42285,0.92635z" data-paper-data="{&quot;origRot&quot;:0}" fill="#bc752d" stroke="#000000" stroke-linecap="butt"/><path d="M229.93447,152.73037c0,0 0.74196,0.52223 0.72629,0.91844c-0.00979,0.24764 -0.79154,0.7313 -0.79154,0.7313l-13.68787,-0.54137c0,0 -1.01189,-0.576 -1.00044,-0.86573c0.01401,-0.35411 1.06568,-0.78403 1.06568,-0.78403z" data-paper-data="{&quot;origRot&quot;:0}" fill="#000000" stroke="none" stroke-linecap="butt"/></g><g stroke-width="1.5"><path d="M239.8235,167.55193l22.99624,0.90952l4.02375,3.73215l-4.30593,3.4027l-22.99624,-0.90952z" data-paper-data="{&quot;origRot&quot;:0}" fill="#b7dce3" stroke="#000000" stroke-linecap="butt"/><path d="M239.68243,171.11938l25.70168,1.01653" data-paper-data="{&quot;origRot&quot;:0}" fill="none" stroke="#000000" stroke-linecap="round"/><path d="M239.63432,169.46718l-0.12661,3.20126l-6.2061,-0.24546c0,0 -0.82905,-1.03732 -0.79974,-1.77842c0.0201,-0.50824 0.92635,-1.42285 0.92635,-1.42285z" data-paper-data="{&quot;origRot&quot;:0}" fill="#bc752d" stroke="#000000" stroke-linecap="butt"/><path d="M238.73083,164.06604c0,0 0.52223,-0.74196 0.91844,-0.72629c0.24764,0.00979 0.7313,0.79154 0.7313,0.79154l-0.54137,13.68787c0,0 -0.576,1.01189 -0.86573,1.00044c-0.35411,-0.01401 -0.78403,-1.06568 -0.78403,-1.06568z" data-paper-data="{&quot;origRot&quot;:0}" fill="#000000" stroke="none" stroke-linecap="butt"/></g></g></g></svg>