<svg version="1.1" xmlns="http://www.w3.org/2000/svg" xmlns:xlink="http://www.w3.org/1999/xlink" width="122.50002" height="187.5" viewBox="0,0,122.50002,187.5"><defs><radialGradient cx="239.66716" cy="154.33333" r="43.33867" gradientUnits="userSpaceOnUse" id="color-1"><stop offset="0" stop-color="#f8b870"/><stop offset="1" stop-color="#67503a"/></radialGradient></defs><g transform="translate(-178.74949,-86.25)"><g data-paper-data="{&quot;isPaintingLayer&quot;:true}" fill-rule="nonzero" stroke-linejoin="miter" stroke-miterlimit="10" stroke-dasharray="" stroke-dashoffset="0" style="mix-blend-mode: normal"><path d="M179.49951,95.75c0,-5.00052 3.75336,-8.75 8.75,-8.75h103.5c5.00061,0 8.74997,3.74753 8.75,8.75l0.001,168.25c0.00003,4.99939 -3.74669,8.99999 -8.75102,8.99999l-103.5,0.00001c-5.00277,0 -8.75,-4.00317 -8.75,-9z" fill="#235870" stroke="#000000" stroke-width="1.5" stroke-linecap="butt"/><path d="M195.78053,187.69109c0,-1.90221 6.28685,10.00867 9.8392,10.00867h68.10253c3.54693,0 9.83913,-11.95542 9.83913,-10.00867c0,10.02674 -0.09151,50.27884 -0.09151,58.42575c0,2.98806 -1.9043,6.98177 -6.56483,6.98177c0,0 -61.17368,0.0465 -74.55983,0.0465c-4.62287,0 -6.57229,-4.08852 -6.57229,-7.02802z" fill="#191919" stroke="#000000" stroke-width="0" stroke-linecap="butt"/><path d="M196.32848,187.29509v-65.923c0,-5.01085 5.38104,-10.3774 10.37714,-10.3774h65.92334c4.98781,0 10.37687,5.3757 10.37687,10.3774v65.923c0,5.01026 -5.36172,10.37695 -10.37687,10.37695h-65.92334c-5.0104,0 -10.37714,-5.37792 -10.37714,-10.37695z" fill="url(#color-1)" stroke="#191919" stroke-width="1" stroke-linecap="butt"/><text transform="translate(225.90258,103.52393) scale(0.36591,0.36591)" font-size="40" xml:space="preserve" fill="#ffffff" fill-rule="nonzero" stroke="#000000" stroke-width="1" stroke-linecap="butt" stroke-linejoin="miter" stroke-miterlimit="10" stroke-dasharray="" stroke-dashoffset="0" font-family="&quot;Microsoft YaHei&quot;, &quot;微软雅黑&quot;, STXihei, &quot;华文细黑&quot;" font-weight="normal" text-anchor="start" style="mix-blend-mode: normal"><tspan x="0" dy="0">短剑策略</tspan></text><text transform="translate(252.2948,267.85839) scale(0.32654,0.32654)" font-size="40" xml:space="preserve" fill="#ffffff" fill-rule="nonzero" stroke="#000000" stroke-width="1" stroke-linecap="butt" stroke-linejoin="miter" stroke-miterlimit="10" stroke-dasharray="" stroke-dashoffset="0" font-family="&quot;Microsoft YaHei&quot;, &quot;微软雅黑&quot;, STXihei, &quot;华文细黑&quot;" font-weight="normal" text-anchor="start" style="mix-blend-mode: normal"><tspan x="0" dy="0">策略牌</tspan></text><text transform="translate(199.01638,209.68442) scale(0.2134,0.2134)" font-size="40" xml:space="preserve" fill="#ffffff" fill-rule="nonzero" stroke="none" stroke-width="1" stroke-linecap="butt" stroke-linejoin="miter" stroke-miterlimit="10" stroke-dasharray="" stroke-dashoffset="0" font-family="&quot;Microsoft YaHei&quot;, &quot;微软雅黑&quot;, STXihei, &quot;华文细黑&quot;" font-weight="normal" text-anchor="start" style="mix-blend-mode: normal"><tspan x="0" dy="0">　 • 回合开始时，获</tspan><tspan x="0" dy="48px">得    张    级的「普通</tspan><tspan x="0" dy="48px">攻击」*</tspan></text><text transform="translate(189.66399,268.21235) scale(0.2977,0.2977)" font-size="40" xml:space="preserve" fill="#ffffff" fill-rule="nonzero" stroke="#000000" stroke-width="1" stroke-linecap="butt" stroke-linejoin="miter" stroke-miterlimit="10" stroke-dasharray="" stroke-dashoffset="0" font-family="Pixel" font-weight="normal" text-anchor="start" style="mix-blend-mode: normal"><tspan x="0" dy="0">TACTICS</tspan></text><g fill="none" stroke="#000000" stroke-width="2.5"><path d="M246.6068,162.83663c0,0 -7.18849,-8.54066 -10.61023,-14.75224c-3.42171,-6.21158 -3.49485,-10.85321 -3.49485,-10.85321l6.03059,5.29248l13.01946,15.87241z" data-paper-data="{&quot;origPos&quot;:null,&quot;origRot&quot;:0}" stroke-linecap="butt"/><path d="M243.85232,165.52101l7.88604,-6.9899l9.25093,10.1712c0,0 0.54611,2.13322 -0.29562,2.20804c-2.30584,0.20495 -5.90843,0.52519 -5.90843,0.52519l-7.88604,-8.60295" data-paper-data="{&quot;origPos&quot;:null}" stroke-linecap="round"/><path d="M248.38128,164.18371l7.8964,-0.65833" data-paper-data="{&quot;origPos&quot;:null}" stroke-linecap="round"/><path d="M251.5488,167.851l7.79988,-0.58594" data-paper-data="{&quot;origPos&quot;:null}" stroke-linecap="round"/></g><g data-paper-data="{&quot;index&quot;:null}" fill="none" stroke="#000000" stroke-width="2.5"><path d="M227.78255,158.39608l13.01946,-15.87241l6.03059,-5.29248c0,0 -0.07314,4.64163 -3.49486,10.85321c-3.42173,6.21158 -10.61023,14.75224 -10.61023,14.75224z" data-paper-data="{&quot;origPos&quot;:null,&quot;origRot&quot;:0}" stroke-linecap="butt"/><path d="M232.43512,162.83259l-7.88604,8.60295c0,0 -3.6026,-0.32024 -5.90844,-0.52519c-0.84173,-0.07482 -0.29562,-2.20804 -0.29562,-2.20804l9.25093,-10.1712l7.88604,6.9899" data-paper-data="{&quot;origPos&quot;:null}" stroke-linecap="round"/><path d="M223.05663,163.52538l7.8964,0.65833" data-paper-data="{&quot;origPos&quot;:null}" stroke-linecap="round"/><path d="M219.98564,167.26506l7.79989,0.58594" data-paper-data="{&quot;origPos&quot;:null}" stroke-linecap="round"/></g></g></g></svg>