<svg version="1.1" xmlns="http://www.w3.org/2000/svg" xmlns:xlink="http://www.w3.org/1999/xlink" width="28.5" height="28.5" viewBox="0,0,28.5,28.5"><defs><linearGradient x1="240.02386" y1="172.325" x2="240.02386" y2="189.12499" gradientUnits="userSpaceOnUse" id="color-1"><stop offset="0" stop-color="#000000"/><stop offset="1" stop-color="#000000"/></linearGradient><linearGradient x1="240.12675" y1="180.01894" x2="240.12675" y2="181.01894" gradientUnits="userSpaceOnUse" id="color-2"><stop offset="0" stop-color="#000000"/><stop offset="1" stop-color="#000000"/></linearGradient><linearGradient x1="240.02513" y1="173.91546" x2="240.02513" y2="187.34404" gradientUnits="userSpaceOnUse" id="color-3"><stop offset="0" stop-color="#000000"/><stop offset="1" stop-color="#000000"/></linearGradient></defs><g transform="translate(-225.75,-165.75)"><g data-paper-data="{&quot;isPaintingLayer&quot;:true}" fill-rule="nonzero" stroke-linejoin="miter" stroke-miterlimit="10" stroke-dasharray="" stroke-dashoffset="0" style="mix-blend-mode: normal"><path d="M226.25,192v-24c0,-1.04038 0.69833,-1.75 1.75,-1.75h24c1.04511,0 1.75,0.69647 1.75,1.75v24c0,1.04844 -0.66666,1.75 -1.71857,1.75h-24.03143c-1.05482,0 -1.75,-0.69757 -1.75,-1.75z" fill="#008fdb" stroke="#000000" stroke-width="1" stroke-linecap="butt"/><path d="M233.27513,172.325h13.5c0,0 -0.003,9.10585 -1.3,11.9119c-1.25869,2.72363 -5.45,4.8881 -5.45,4.8881c0,0 -4.19191,-2.17031 -5.45,-4.8881c-1.35162,-2.91985 -1.3,-11.9119 -1.3,-11.9119z" fill="none" stroke="url(#color-1)" stroke-width="1.5" stroke-linecap="round"/><path d="M244.84103,180.51894h-9.42857" fill="none" stroke="url(#color-2)" stroke-width="1" stroke-linecap="round"/><path d="M240.02513,187.34404v-13.42857" fill="none" stroke="url(#color-3)" stroke-width="1" stroke-linecap="round"/></g></g></svg>