<svg version="1.1" xmlns="http://www.w3.org/2000/svg" xmlns:xlink="http://www.w3.org/1999/xlink" width="31.98146" height="31.98347" viewBox="0,0,31.98146,31.98347"><g transform="translate(-224.00926,-164.00827)"><g data-paper-data="{&quot;isPaintingLayer&quot;:true}" fill-rule="nonzero" stroke-linecap="butt" stroke-linejoin="miter" stroke-miterlimit="10" stroke-dasharray="" stroke-dashoffset="0" style="mix-blend-mode: normal"><path d="M236.2993,166.10143c2.12796,-2.12796 5.27952,-2.12048 7.4,0l10.2,10.20001c2.12075,2.12075 2.12306,5.27693 0,7.39999l-10.2,10.2c-2.11784,2.11784 -5.27703,2.12297 -7.4,0l-10.2,-10.2c-2.1222,-2.1222 -2.11789,-5.28211 0,-7.39999z" fill="#47a67a" stroke="#000000" stroke-width="1"/><g fill="#000000"><path d="M231.54498,176.95588c-0.24124,-1.31223 -0.23971,-2.6863 0.45036,-3.71237c0.71124,-1.05754 2.13501,-1.75086 3.48747,-1.9995c1.74031,-0.31994 3.10412,-0.69595 4.20681,0.52959c0.5857,0.65096 1.33512,2.48387 1.50506,3.40825c0.24226,1.31778 0.38892,2.74115 -0.30736,3.76934c-0.71166,1.05092 -2.28358,1.6949 -3.63048,1.94252c-1.52266,0.27993 -2.89524,0.44979 -3.98206,-0.48941c-0.81515,-0.70442 -1.51984,-2.30639 -1.7298,-3.44842zM236.96718,178.82086c0.37619,-0.06916 1.61167,-0.39684 1.25351,-2.87471c-0.30813,-2.13174 -1.83056,-2.37957 -2.20675,-2.31041c-0.37619,0.06916 -1.87661,0.79071 -1.41807,2.76125c0.66381,2.85275 1.99513,2.49303 2.37132,2.42387z" stroke="#000000" stroke-width="0"/><path d="M235.81186,171.59721c0.18149,0.7088 -0.22531,1.37327 -0.84066,1.84571c-0.2488,0.39744 -0.65726,0.69309 -1.15477,0.78456c-0.33105,0.06086 -0.65741,0.0232 -0.94889,-0.09219c-0.62398,-0.06086 -1.08839,-0.43505 -1.05823,-1.2529c-0.00313,-0.01483 -0.00607,-0.02974 -0.00883,-0.04474c-0.13944,-0.75846 0.23828,-1.49228 0.88299,-1.83859c1.01025,-1.08448 2.59115,-1.50004 3.1284,0.59815z" stroke="none" stroke-width="0.5"/><path d="M240.32117,179.32069c-0.01225,0.00225 -0.02448,0.00433 -0.03671,0.00625c-0.01211,0.00256 -0.02428,0.00497 -0.03653,0.00722c-0.00611,0.00112 -0.01223,0.00221 -0.01834,0.00325c-0.00608,0.0012 -0.01218,0.00236 -0.01829,0.00349c-0.21505,0.03953 -0.42763,0.0271 -0.6248,-0.02839c-0.62127,-0.03728 -1.16066,-0.49289 -1.27824,-1.13246c-0.12456,-0.67752 0.26671,-1.33044 0.8952,-1.55468c-0.21176,-0.4089 -0.38397,-0.91779 -0.4361,-1.37448c-0.26863,-0.166 -0.46264,-0.43916 -0.50716,-0.83155c-0.07968,-0.10854 -0.14428,-0.22987 -0.19014,-0.36146c-0.25002,0.0072 -0.45814,-0.04637 -0.57959,-0.19028c-0.4451,-0.16316 -0.79482,-0.55072 -0.88674,-1.05072c-0.13832,-0.75239 0.35947,-1.47444 1.11186,-1.61276c0.11428,-0.02101 0.22787,-0.02735 0.33881,-0.02034c1.15741,-0.43348 2.45664,0.277 2.37953,1.37305c0.56428,0.40735 0.91125,1.10677 0.72846,1.7683c0.19919,0.19347 0.3423,0.44853 0.39633,0.74243c0.29453,0.26366 0.25902,0.81669 0.02703,1.32738c0.17163,0.18591 0.29441,0.42104 0.34354,0.68828c0.10146,0.55186 -0.13932,1.08742 -0.57178,1.38826c-0.17079,0.42715 -0.55048,0.7599 -1.03635,0.84922z" stroke="none" stroke-width="0.5"/></g><g data-paper-data="{&quot;index&quot;:null}" fill="#000000"><path d="M246.8853,189.11392c-1.05514,0.97465 -2.4326,0.8503 -3.96368,0.62092c-1.35436,-0.20291 -2.94672,-0.79451 -3.69278,-1.82131c-0.72992,-1.00459 -0.63045,-2.43203 -0.43193,-3.75711c0.13926,-0.9295 0.8276,-2.7862 1.39144,-3.45619c1.06152,-1.26137 2.43704,-0.93069 4.18698,-0.66851c1.35995,0.20375 2.80589,0.84957 3.55173,1.88299c0.72365,1.00267 0.77065,2.37594 0.57297,3.69543c-0.17205,1.14836 -0.82335,2.77277 -1.61474,3.50378zM245.43233,185.15252c0.39307,-1.98464 -1.1304,-2.65613 -1.50868,-2.71281c-0.37828,-0.05667 -1.89166,0.24141 -2.12908,2.38218c-0.27597,2.48836 0.96967,2.77497 1.34795,2.83164c0.37828,0.05667 1.72077,0.37214 2.28981,-2.50102z" stroke="#000000" stroke-width="0"/><path d="M247.16505,179.69427c0.65582,0.32479 1.05761,1.0457 0.94335,1.80836c-0.00226,0.01508 -0.0047,0.03008 -0.00733,0.045c0.0572,0.8164 -0.39457,1.20576 -1.01619,1.28724c-0.28751,0.12497 -0.61244,0.17341 -0.94532,0.12354c-0.50027,-0.07495 -0.91828,-0.35692 -1.1801,-0.74591c-0.63065,-0.45182 -1.05922,-1.10248 -0.90129,-1.81689c0.46752,-2.11482 2.06131,-1.7518 3.10689,-0.70134z" stroke="none" stroke-width="0.5"/><path d="M238.74303,187.44962c-0.44217,-0.28637 -0.70054,-0.81366 -0.6174,-1.36858c0.04026,-0.26872 0.15519,-0.50778 0.32057,-0.69927c-0.24876,-0.50274 -0.30255,-1.05429 -0.01691,-1.32755c0.04428,-0.29553 0.17886,-0.55519 0.37155,-0.75514c-0.20458,-0.65512 0.11906,-1.36563 0.66955,-1.79143c-0.11334,-1.0929 1.16166,-1.84599 2.33278,-1.45104c0.11065,-0.01067 0.22439,-0.0081 0.3393,0.00912c0.75655,0.11335 1.27797,0.81853 1.16462,1.57508c-0.07532,0.50277 -0.41203,0.90169 -0.85148,1.07949c-0.11662,0.14784 -0.32285,0.20827 -0.57297,0.20935c-0.04149,0.13304 -0.10204,0.25643 -0.17808,0.36755c-0.0315,0.39365 -0.21637,0.67309 -0.47936,0.84788c-0.03699,0.45816 -0.19226,0.97247 -0.39037,1.38815c0.63556,0.20331 1.04822,0.84294 0.94615,1.5242c-0.09635,0.64312 -0.62037,1.11633 -1.24006,1.17415c-0.19523,0.06199 -0.40728,0.08145 -0.62352,0.04905c-0.00615,-0.00092 -0.01228,-0.00188 -0.01839,-0.00288c-0.00614,-0.00084 -0.01229,-0.00172 -0.01844,-0.00264c-0.01232,-0.00185 -0.02456,-0.00385 -0.03675,-0.006c-0.01229,-0.00151 -0.02458,-0.00319 -0.03689,-0.00503c-0.48856,-0.07319 -0.87906,-0.3932 -1.06389,-0.81446z" stroke="none" stroke-width="0.5"/></g></g></g></svg>