<svg version="1.1" xmlns="http://www.w3.org/2000/svg" xmlns:xlink="http://www.w3.org/1999/xlink" width="31.98145" height="31.98347" viewBox="0,0,31.98145,31.98347"><g transform="translate(-224.00928,-164.00828)"><g data-paper-data="{&quot;isPaintingLayer&quot;:true}" fill-rule="nonzero" stroke-linejoin="miter" stroke-miterlimit="10" stroke-dasharray="" stroke-dashoffset="0" style="mix-blend-mode: normal"><path d="M225.79167,165.79168l28.41667,28.41667" fill="none" stroke="#000000" stroke-width="1" stroke-linecap="round"/><path d="M254.20834,165.79168l-28.41667,28.41667" fill="none" stroke="#000000" stroke-width="1" stroke-linecap="round"/><path d="M236.29931,166.10145c2.12796,-2.12796 5.27952,-2.12048 7.39999,0l10.2,10.20001c2.12075,2.12075 2.12306,5.27693 0,7.39999l-10.2,10.2c-2.11784,2.11784 -5.27702,2.12297 -7.39999,0l-10.2,-10.2c-2.1222,-2.1222 -2.11789,-5.28211 0,-7.39999z" fill="#2f7896" stroke="#000000" stroke-width="1" stroke-linecap="butt"/><ellipse cx="489.81098" cy="348.50541" transform="scale(0.5,0.5)" rx="0" ry="0" fill="#687966" stroke="none" stroke-width="0" stroke-linecap="butt"/><path d="M244.38322,178.45038l-5.15526,-5.63359l3.01799,-2.76175l5.15527,5.63359z" fill="#4d443e" stroke="#000000" stroke-width="0" stroke-linecap="butt"/><path d="M248.62947,185.77642l-7.22877,2.4615l-1.31866,-3.87255l7.22877,-2.4615z" fill="#4d443e" stroke="#000000" stroke-width="0" stroke-linecap="butt"/><path d="M249.16418,179.14219l-1.06942,3.79606" fill="none" stroke="#555061" stroke-width="0.5" stroke-linecap="round"/><path d="M237.12693,175.35947l3.54546,1.72727" fill="none" stroke="#555061" stroke-width="0.5" stroke-linecap="round"/><path d="M230.62693,185.02102l11.36364,-7.45455" fill="none" stroke="#b08180" stroke-width="1" stroke-linecap="round"/><path d="M237.12693,179.6872l2.84103,-2.60046l4.98727,2.34342l-6.1296,4.70695z" fill="#b08180" stroke="#555061" stroke-width="0" stroke-linecap="butt"/></g></g></svg>