<svg version="1.1" xmlns="http://www.w3.org/2000/svg" xmlns:xlink="http://www.w3.org/1999/xlink" width="28.5" height="28.5" viewBox="0,0,28.5,28.5"><g transform="translate(-225.75,-165.75)"><g data-paper-data="{&quot;isPaintingLayer&quot;:true}" fill-rule="nonzero" stroke-linecap="butt" stroke-linejoin="miter" stroke-miterlimit="10" stroke-dasharray="" stroke-dashoffset="0" style="mix-blend-mode: normal"><path d="M226.25,192v-24c0,-1.04038 0.69833,-1.75 1.75,-1.75h24c1.04511,0 1.75,0.69647 1.75,1.75v24c0,1.04844 -0.66666,1.75 -1.71857,1.75h-24.03143c-1.05482,0 -1.75,-0.69757 -1.75,-1.75z" fill="#c5d384" stroke="#000000" stroke-width="1"/><path d="M230.34375,180c0,-3.55534 2.88216,-6.4375 6.4375,-6.4375c3.55534,0 6.4375,2.88216 6.4375,6.4375c0,3.55534 -2.88216,6.4375 -6.4375,6.4375c-3.55534,0 -6.4375,-2.88216 -6.4375,-6.4375z" fill-opacity="0.2" fill="#818f43" stroke="#000000" stroke-width="0"/><path d="M236.78125,180c0,-3.55534 2.88216,-6.4375 6.4375,-6.4375c3.55534,0 6.4375,2.88216 6.4375,6.4375c0,3.55534 -2.88216,6.4375 -6.4375,6.4375c-3.55534,0 -6.4375,-2.88216 -6.4375,-6.4375z" fill="#818f43" stroke="#000000" stroke-width="0"/><path d="M232.7,190.90938c0,-0.55229 0.44771,-1 1,-1c0.55229,0 1,0.44771 1,1c0,0.55229 -0.44771,1 -1,1c-0.55229,0 -1,-0.44771 -1,-1z" fill-opacity="0.2" fill="#43472f" stroke="none" stroke-width="0.5"/><path d="M232.7,187.15938c0,-0.55229 0.44771,-1 1,-1c0.55229,0 1,0.44771 1,1c0,0.55229 -0.44771,1 -1,1c-0.55229,0 -1,-0.44771 -1,-1z" fill-opacity="0.25098" fill="#43472f" stroke="none" stroke-width="0.5"/><path d="M232.7,183.40938c0,-0.55229 0.44771,-1 1,-1c0.55229,0 1,0.44771 1,1c0,0.55229 -0.44771,1 -1,1c-0.55229,0 -1,-0.44771 -1,-1z" fill-opacity="0.30196" fill="#43472f" stroke="none" stroke-width="0.5"/><path d="M232.7,179.65938c0,-0.55229 0.44771,-1 1,-1c0.55229,0 1,0.44771 1,1c0,0.55229 -0.44771,1 -1,1c-0.55229,0 -1,-0.44771 -1,-1z" fill-opacity="0.34902" fill="#43472f" stroke="none" stroke-width="0.5"/><path d="M232.7,175.90938c0,-0.55229 0.44771,-1 1,-1c0.55229,0 1,0.44771 1,1c0,0.55229 -0.44771,1 -1,1c-0.55229,0 -1,-0.44771 -1,-1z" fill-opacity="0.4" fill="#43472f" stroke="none" stroke-width="0.5"/><path d="M232.7,172.15938c0,-0.55229 0.44771,-1 1,-1c0.55229,0 1,0.44771 1,1c0,0.55229 -0.44771,1 -1,1c-0.55229,0 -1,-0.44771 -1,-1z" fill-opacity="0.50196" fill="#43472f" stroke="none" stroke-width="0.5"/><path d="M233.5625,180c0,-3.55534 2.88216,-6.4375 6.4375,-6.4375c3.55534,0 6.4375,2.88216 6.4375,6.4375c0,3.55534 -2.88216,6.4375 -6.4375,6.4375c-3.55534,0 -6.4375,-2.88216 -6.4375,-6.4375z" fill-opacity="0.6" fill="#818f43" stroke="#000000" stroke-width="0"/></g></g></svg>