<svg version="1.1" xmlns="http://www.w3.org/2000/svg" xmlns:xlink="http://www.w3.org/1999/xlink" width="40.51037" height="52.3023" viewBox="0,0,40.51037,52.3023"><g transform="translate(-219.74482,-153.82454)"><g data-paper-data="{&quot;isPaintingLayer&quot;:true}" fill-rule="nonzero" stroke="#000000" stroke-width="0.5" stroke-linecap="butt" stroke-linejoin="miter" stroke-miterlimit="10" stroke-dasharray="" stroke-dashoffset="0" style="mix-blend-mode: normal"><path d="M230.63855,204.39067c-0.35647,-2.40491 -6.33588,-25.23104 -10.45889,-41.26558c-0.26766,-1.04093 -0.50446,-1.93575 1.26903,-2.39177c1.90226,-0.48913 15.73233,-4.0453 25.71067,-6.61106c0.8211,-0.21113 1.86085,0.28507 2.13547,1.35308c4.15267,16.14991 10.07188,39.16996 10.67733,41.52455c0.20181,0.78486 -0.55414,1.98289 -1.37524,2.19402c-2.4633,0.6334 -16.0695,4.13199 -25.99015,6.68292c-0.69177,0.17788 -1.76156,-0.09191 -1.96822,-1.48615z" fill="#373957"/><path d="M229.97421,201.92342c-0.05604,-2.43054 -3.16398,-25.82127 -5.27047,-42.24286c-0.13675,-1.06606 -0.26096,-1.98331 1.55533,-2.21629c1.94818,-0.2499 16.11208,-2.06679 26.33128,-3.37766c0.84092,-0.10787 1.81125,0.51322 1.95156,1.60701c2.12165,16.53974 5.14584,40.11544 5.45516,42.52688c0.10311,0.8038 -0.79532,1.89905 -1.63624,2.00691c-2.52276,0.32361 -16.45738,2.11108 -26.6175,3.41438c-0.70847,0.09088 -1.73663,-0.30926 -1.76912,-1.71835z" fill="#497f73"/><path d="M229.75518,198.64505c0.25366,-2.41792 0.14706,-26.01398 0.14706,-42.57012c0,-1.07479 -0.0065,-2.00039 1.82468,-2.00039c1.96414,0 16.2441,0 26.54703,0c0.84781,0 1.73123,0.7395 1.73123,1.84225c0,16.67526 0,40.44414 0,42.87533c0,0.81039 -1.03048,1.78242 -1.87829,1.78242c-2.54343,0 -16.59223,0 -26.8356,0c-0.71427,0 -1.68317,-0.5277 -1.53611,-1.92948z" fill="#47693f"/></g></g></svg>