<svg version="1.1" xmlns="http://www.w3.org/2000/svg" xmlns:xlink="http://www.w3.org/1999/xlink" width="480" height="353.48347" viewBox="0,0,480,353.48347"><g transform="translate(0,0.88552)"><g data-paper-data="{&quot;isPaintingLayer&quot;:true}" fill-rule="nonzero" stroke="#000000" stroke-linecap="butt" stroke-linejoin="miter" stroke-miterlimit="10" stroke-dasharray="" stroke-dashoffset="0" style="mix-blend-mode: normal"><path d="M11.5,351.50001v-43h457v43z" fill="#2d384c" stroke-width="1"/><path d="M0,310.73684v-8.49999h480v8.49999z" data-paper-data="{&quot;index&quot;:null}" fill="#000000" stroke-width="0"/><path d="M23,-0.88552v291.0503c0,0 -0.25382,5.40841 2.99621,8.57301c3.77732,3.67802 8.82197,3.49762 8.82197,3.49762h-34.81818v-303.12093z" data-paper-data="{&quot;index&quot;:null}" fill="#000000" stroke-width="0"/><path d="M480,-0.88552v303.12093h-34.81818c0,0 5.04465,0.18041 8.82197,-3.49762c3.25004,-3.1646 2.99621,-8.57301 2.99621,-8.57301v-291.0503z" data-paper-data="{&quot;index&quot;:null}" fill="#000000" stroke-width="0"/><path d="M0,352.59795v-41.85967h34.81818c0,0 -5.04466,-0.1804 -8.82197,3.49762c-3.25003,3.16461 -2.99621,8.57302 -2.99621,8.57302v29.78903z" data-paper-data="{&quot;index&quot;:null}" fill="#000000" stroke-width="0"/><path d="M457,352.59795v-29.78904c0,0 0.25383,-5.40841 -2.99621,-8.57301c-3.77731,-3.67802 -8.82197,-3.49762 -8.82197,-3.49762h34.81818v41.85967z" data-paper-data="{&quot;index&quot;:null}" fill="#000000" stroke-width="0"/></g></g></svg>