<svg version="1.1" xmlns="http://www.w3.org/2000/svg" xmlns:xlink="http://www.w3.org/1999/xlink" width="102.75" height="135.48407" viewBox="0,0,102.75,135.48407"><g transform="translate(-188.625,-111.95343)"><g data-paper-data="{&quot;isPaintingLayer&quot;:true}" fill-rule="nonzero" stroke-linecap="butt" stroke-linejoin="miter" stroke-miterlimit="10" stroke-dasharray="" stroke-dashoffset="0" style="mix-blend-mode: normal"><path d="M205.36574,193.25419v-62h69.25v62z" fill="#838383" stroke="#000000" stroke-width="0.5"/><path d="M188.87501,239.99898c0,-24.85975 0,-106.41629 0,-120.10869c0,-3.81821 3.36827,-7.07779 7.07398,-7.07779c11.1643,0 68.19615,0 88.21739,0c4.3548,0 6.95862,3.25958 6.95862,7.07779c0,13.65276 0,94.77717 0,119.89131c0,4.67224 -3.47339,7.4059 -7.17602,7.4059c-11.10181,0 -67.52679,0 -87.80435,0c-4.54136,0 -7.26963,-2.64899 -7.26963,-7.18851zM274.51668,193.2875v-62h-69.25v61.99669z" fill="#614537" stroke="#000000" stroke-width="0.5"/><path d="M205.13426,225.36582c0,-24.85975 0.07398,-32.11163 0.07398,-32.11163l69.4075,0.13627c0,0 0,6.64383 0,31.75797c0,4.67224 -3.47339,7.40591 -7.17602,7.40591c-11.10181,0 -34.75827,0 -55.03583,0c-4.54136,0 -7.26963,-2.64899 -7.26963,-7.18852z" fill="#614537" stroke="#000000" stroke-width="0.5"/><text transform="translate(213.868,125.96672) scale(0.32665,0.32665)" font-size="40" xml:space="preserve" fill="#ffffff" fill-rule="nonzero" stroke="none" stroke-width="1" stroke-linecap="butt" stroke-linejoin="miter" stroke-miterlimit="10" stroke-dasharray="" stroke-dashoffset="0" font-family="&quot;Microsoft YaHei&quot;, &quot;微软雅黑&quot;, STXihei, &quot;华文细黑&quot;" font-weight="normal" text-anchor="start" style="mix-blend-mode: normal"><tspan x="0" dy="0">“绷带”</tspan></text><text transform="translate(207.36574,203.29744) scale(0.23275,0.23275)" font-size="40" xml:space="preserve" fill="#ffffff" fill-rule="nonzero" stroke="none" stroke-width="1" stroke-linecap="butt" stroke-linejoin="miter" stroke-miterlimit="10" stroke-dasharray="" stroke-dashoffset="0" font-family="&quot;Microsoft YaHei&quot;, &quot;微软雅黑&quot;, STXihei, &quot;华文细黑&quot;" font-weight="normal" text-anchor="start" style="mix-blend-mode: normal"><tspan x="0" dy="0">死去的蕨，能用</tspan><tspan x="0" dy="48px">作绷带，回复9</tspan><tspan x="0" dy="48px">点血量</tspan></text><path d="M234.32318,159.39419c2.57248,-1.54349 4.11596,1.02899 4.11596,1.02899l0.3799,0.93239c1.77544,1.52903 3.42547,3.20873 4.97202,4.96893c0,0 0.58815,0.67217 0.75585,1.6039c0.05733,-0.0223 0.11457,-0.04453 0.1717,-0.06669c1.07492,-0.4169 2.00461,-1.21138 3.12546,-1.48145c0.42127,-0.10151 5.27415,-0.08025 6.02259,-0.08025l-0.67497,-0.01662c0,0 2.68328,-1.34164 4.02492,1.34164c1.34164,2.68328 -1.34164,4.02492 -1.34164,4.02492l-2.00831,0.65006c-1.54826,0 -3.14711,-0.47548 -4.64407,-0.08026c-0.85416,0.22551 -1.7108,0.49533 -2.56501,0.80322c0.29026,0.16177 0.46297,0.3057 0.46297,0.3057c1.80021,1.50922 3.42419,3.22555 4.98834,4.97824l1.5356,1.52833c0.0034,0.00336 0.00678,0.00673 0.01016,0.01011c0.25782,0.25782 0.46895,0.56236 0.61957,0.89983c0.4022,0.81524 0.64422,2.07903 -0.61957,3.34281c-1.26379,1.26379 -2.52757,1.02176 -3.34281,0.61956c-0.33747,-0.15062 -0.64201,-0.36174 -0.89983,-0.61956c-0.00291,-0.00291 -0.00581,-0.00583 -0.0087,-0.00875l-1.77887,-1.78615c-1.35898,-1.53566 -2.76504,-3.04786 -4.34499,-4.3551c0,0 -1.52178,-1.26815 -1.06168,-2.98006c-2.67947,1.36198 -5.2441,3.00675 -7.52902,4.72535c-2.45181,1.84412 -4.8533,3.12598 -6.1388,5.95836c0,0 -1.34164,2.68328 -4.02492,1.34164c-2.68328,-1.34164 -1.34164,-4.02492 -1.34164,-4.02492c1.75257,-3.3114 4.5297,-6.00319 7.74338,-8.23564c-0.55259,-0.50091 -1.11271,-0.9935 -1.67913,-1.47828l0.61904,0.72223c0,0 -3,0 -3,-3c0,-3 3,-3 3,-3l3.28571,0.72223c1.07611,0.92367 2.13157,1.87271 3.16008,2.84967c0.94997,-0.48454 1.90911,-0.94168 2.86575,-1.37457c-1.32278,-1.51032 -2.73633,-2.95066 -4.26391,-4.25289l-1.62011,-2.40095c0,0 -1.54349,-2.57248 1.02899,-4.11597z" fill="#53745b" stroke="none" stroke-width="0.5"/><path d="M246.21662,184.64164c-1.34164,2.68328 -4.02492,1.34164 -4.02492,1.34164l-2.61074,-1.40551c-0.77778,-0.66666 -1.55555,-1.33334 -2.33333,-2c0,0 -2.27777,-1.95237 -0.3254,-4.23014c1.95237,-2.27777 4.23014,-0.32539 4.23014,-0.32539c0.77778,0.66666 1.55555,1.33334 2.33334,2l1.38926,0.59448c0,0 2.68328,1.34164 1.34164,4.02492z" fill="#53745b" stroke="none" stroke-width="0.5"/><path d="M222.86667,174.63333c0.28307,0 0.55699,0.03921 0.81662,0.11249l0.57008,0.07852c0.88889,0.33334 1.77778,0.66666 2.66667,1c0,0 2.80899,1.05337 1.75562,3.86236c-1.05337,2.80899 -3.86236,1.75562 -3.86236,1.75562c-0.72715,-0.27268 -1.4543,-0.54536 -2.18144,-0.81804c-0.2943,-0.02278 -0.5767,-0.08804 -0.84107,-0.18964c-0.86059,-0.29239 -1.92412,-1.01509 -1.92412,-2.80131c0,-1.78622 1.06353,-2.50892 1.92412,-2.80131c0.33397,-0.12835 0.69671,-0.19869 1.07588,-0.19869z" fill="#53745b" stroke="none" stroke-width="0.5"/><path d="M268.65466,178.84535c2.12132,2.12132 0,4.24264 0,4.24264l-2.12388,2.04149c-2.04856,1.35745 -4.20306,2.57369 -6.44569,3.57862c0,0 -2.74144,1.21841 -3.95985,-1.52302c-1.21841,-2.74143 1.52302,-3.95985 1.52302,-3.95985c1.93883,-0.85343 3.79554,-1.90733 5.55431,-3.08805l1.20945,-1.29183c0,0 2.12132,-2.12132 4.24264,0z" fill="#53745b" stroke="none" stroke-width="0.5"/></g></g></svg>