<svg version="1.1" xmlns="http://www.w3.org/2000/svg" xmlns:xlink="http://www.w3.org/1999/xlink" width="82.95588" height="79.71861" viewBox="0,0,82.95588,79.71861"><g transform="translate(-196.39403,-129.8865)"><g data-paper-data="{&quot;isPaintingLayer&quot;:true}" fill-rule="nonzero" stroke="none" stroke-width="0.5" stroke-linecap="butt" stroke-linejoin="miter" stroke-miterlimit="10" stroke-dasharray="" stroke-dashoffset="0" style="mix-blend-mode: normal"><path d="M217.32315,183.59547c-1.50806,-0.94727 -5.54833,-1.41837 -7.24677,-0.75638c0.19832,0.17663 0.40466,0.35829 0.61977,0.54631c0,0 0.75258,0.65851 0.09408,1.41108c-0.6585,0.75258 -1.41108,0.09407 -1.41108,0.09407c-3.08285,-2.70043 -4.72495,-4.33881 -6.24443,-8.1228c-0.53447,-1.33098 -3.06015,-2.81738 -2.44474,-4.54902c0.33727,-0.949 2.86561,-1.71815 3.53761,-1.92137c2.56759,-0.77646 5.52776,-1.11601 8.20222,-1.15935c3.46649,-0.0001 10.21459,-1.37913 12.28626,2.32208c2.12724,3.80049 -1.3693,14.42324 -6.47454,13.65847l-0.80389,-1.18058c0,0 0,-0.11687 0.03995,-0.2707c-0.09581,-0.03663 -0.15445,-0.07181 -0.15445,-0.07181z" fill="#e6e984"/><path d="M212.88588,190.15358c-0.62844,0.06006 -0.94266,-0.56839 -0.94266,-0.56839c-1.24647,-2.50407 -3.93329,-8.26872 1.00462,-8.64317c0.63394,-0.04807 1.2948,0.04656 1.88687,0.27817c3.08737,1.20772 3.85454,4.51727 3.39327,7.45649c-0.15326,0.97656 -0.70813,2.8682 -1.88635,3.21398c-1.64945,0.48407 -2.76528,-0.48301 -3.45576,-1.73708z" fill="#ccd04d"/><path d="M213.12315,144.59547c-1.50806,-0.94727 -5.54833,-1.41837 -7.24677,-0.75638c0.19832,0.17663 0.40466,0.35829 0.61977,0.54631c0,0 0.75258,0.65851 0.09408,1.41108c-0.6585,0.75258 -1.41109,0.09407 -1.41109,0.09407c-3.08285,-2.70043 -4.72495,-4.33881 -6.24443,-8.1228c-0.53447,-1.33098 -3.06015,-2.81738 -2.44474,-4.54902c0.33727,-0.949 2.86562,-1.71815 3.53762,-1.92137c2.56759,-0.77646 5.52776,-1.11601 8.20222,-1.15935c3.46649,-0.0001 10.21459,-1.37913 12.28626,2.32208c2.12724,3.80049 -1.36931,14.42324 -6.47454,13.65847l-0.80389,-1.18058c0,0 0,-0.11687 0.03995,-0.2707c-0.09581,-0.03663 -0.15444,-0.07181 -0.15444,-0.07181z" fill="#e6e984"/><path d="M208.68588,151.15358c-0.62844,0.06006 -0.94266,-0.56839 -0.94266,-0.56839c-1.24647,-2.50407 -3.93329,-8.26872 1.00462,-8.64317c0.63394,-0.04807 1.2948,0.04656 1.88688,0.27817c3.08737,1.20772 3.85454,4.51727 3.39327,7.45649c-0.15326,0.97656 -0.70813,2.8682 -1.88635,3.21398c-1.64945,0.48407 -2.76528,-0.48301 -3.45576,-1.73708z" fill="#ccd04d"/><path d="M265.12315,201.18279c-1.50806,-0.94727 -5.54833,-1.41837 -7.24676,-0.75639c0.19831,0.17663 0.40466,0.3583 0.61976,0.54632c0,0 0.75258,0.65851 0.09407,1.41108c-0.6585,0.75258 -1.41108,0.09407 -1.41108,0.09407c-3.08285,-2.70043 -4.72495,-4.33881 -6.24443,-8.1228c-0.53447,-1.33098 -3.06015,-2.81738 -2.44474,-4.54902c0.33727,-0.949 2.86562,-1.71815 3.53762,-1.92137c2.56759,-0.77646 5.52776,-1.11601 8.20222,-1.15935c3.46649,-0.0001 10.21459,-1.37913 12.28626,2.32208c2.12724,3.80049 -1.3693,14.42324 -6.47454,13.65847l-0.80389,-1.18058c0,0 0,-0.11686 0.03995,-0.27069c-0.09581,-0.03663 -0.15445,-0.07181 -0.15445,-0.07181z" fill="#e6e984"/><path d="M260.68588,207.7409c-0.62844,0.06006 -0.94266,-0.56839 -0.94266,-0.56839c-1.24647,-2.50407 -3.93329,-8.26872 1.00462,-8.64317c0.63394,-0.04807 1.29481,0.04657 1.88688,0.27817c3.08737,1.20772 3.85453,4.51727 3.39326,7.45649c-0.15326,0.97656 -0.70813,2.86819 -1.88635,3.21397c-1.64945,0.48407 -2.76528,-0.48301 -3.45576,-1.73707z" fill="#ccd04d"/><path d="M271.32315,150.61715c-1.50806,-0.94727 -5.54833,-1.41837 -7.24676,-0.75638c0.19831,0.17663 0.40466,0.35829 0.61976,0.54631c0,0 0.75258,0.65851 0.09408,1.41109c-0.6585,0.75258 -1.41109,0.09407 -1.41109,0.09407c-3.08285,-2.70043 -4.72495,-4.33881 -6.24443,-8.1228c-0.53447,-1.33098 -3.06015,-2.81738 -2.44473,-4.54902c0.33727,-0.949 2.86561,-1.71815 3.53762,-1.92137c2.56759,-0.77646 5.52776,-1.11602 8.20222,-1.15935c3.46649,-0.0001 10.21459,-1.37912 12.28625,2.32209c2.12724,3.80049 -1.3693,14.42324 -6.47454,13.65846l-0.80389,-1.18058c0,0 0,-0.11686 0.03995,-0.27069c-0.09581,-0.03663 -0.15445,-0.07182 -0.15445,-0.07182z" fill="#e6e984"/><path d="M266.88588,157.17526c-0.62844,0.06006 -0.94266,-0.56839 -0.94266,-0.56839c-1.24647,-2.50407 -3.93329,-8.26872 1.00462,-8.64317c0.63394,-0.04807 1.29481,0.04656 1.88688,0.27817c3.08737,1.20772 3.85453,4.51727 3.39326,7.45649c-0.15326,0.97656 -0.70813,2.8682 -1.88635,3.21398c-1.64945,0.48407 -2.76528,-0.48301 -3.45576,-1.73708z" fill="#ccd04d"/><path d="M246.57722,180.03619c-3.28954,-2.06628 -12.10258,-3.09389 -15.80737,-1.6499c0.43258,0.38527 0.8827,0.78154 1.3519,1.19168c0,0 1.6416,1.43641 0.20521,3.078c-1.4364,1.64159 -3.078,0.2052 -3.078,0.2052c-6.72462,-5.89046 -10.30653,-9.46425 -13.62097,-17.71827c-1.16583,-2.90328 -6.67511,-6.14555 -5.3327,-9.92278c0.73568,-2.07005 6.25077,-3.7478 7.7166,-4.19108c5.60067,-1.69369 12.0577,-2.43437 17.89151,-2.52889c7.56145,-0.00023 22.28107,-3.00829 26.8,5.06517c4.64015,8.29 -2.98687,31.46141 -14.12291,29.79321l-1.75351,-2.5752c0,0 0,-0.25492 0.08714,-0.59047c-0.20899,-0.0799 -0.33689,-0.15665 -0.33689,-0.15665z" fill="#e6e984"/><path d="M236.89821,194.3414c-1.37081,0.131 -2.05622,-1.23983 -2.05622,-1.23983c-2.71892,-5.46213 -8.57969,-18.03655 2.19137,-18.85334c1.3828,-0.10485 2.82436,0.10157 4.11584,0.60677c6.73448,2.6344 8.4079,9.85351 7.40173,16.26484c-0.33429,2.13017 -1.54465,6.25639 -4.11469,7.01064c-3.59794,1.05591 -6.0319,-1.05359 -7.53804,-3.78908z" fill="#ccd04d"/></g></g></svg>