<svg version="1.1" xmlns="http://www.w3.org/2000/svg" xmlns:xlink="http://www.w3.org/1999/xlink" width="31.98146" height="31.98347" viewBox="0,0,31.98146,31.98347"><g transform="translate(-223.98948,-163.98896)"><g data-paper-data="{&quot;isPaintingLayer&quot;:true}" fill-rule="nonzero" stroke="#000000" stroke-width="1" stroke-linejoin="miter" stroke-miterlimit="10" stroke-dasharray="" stroke-dashoffset="0" style="mix-blend-mode: normal"><path d="M236.27951,166.08213c2.12796,-2.12796 5.27952,-2.12048 7.4,0l10.2,10.20001c2.12075,2.12075 2.12306,5.27693 0,7.39999l-10.2,10.2c-2.11784,2.11784 -5.27703,2.12297 -7.4,0l-10.2,-10.2c-2.1222,-2.1222 -2.11789,-5.28211 0,-7.39999z" fill="#47a67a" stroke-linecap="butt"/><g fill="none"><path d="M240.34784,183.30444c0,0 -3.0753,-3.65377 -4.53915,-6.31114c-1.46384,-2.65737 -1.49513,-4.6431 -1.49513,-4.6431l2.57994,2.26417l5.56984,6.79036z" data-paper-data="{&quot;origPos&quot;:null,&quot;origRot&quot;:0}" stroke-linecap="butt"/><path d="M239.16945,184.45284l3.37372,-2.99034l3.95763,4.35133c0,0 0.23363,0.91261 -0.12647,0.94462c-0.98646,0.08768 -2.52768,0.22468 -2.52768,0.22468l-3.37372,-3.68042" data-paper-data="{&quot;origPos&quot;:null}" stroke-linecap="round"/><path d="M244.48513,183.59909l-3.37815,0.28164" data-paper-data="{&quot;origPos&quot;:null}" stroke-linecap="round"/><path d="M242.46207,185.44963l3.33686,-0.25067" data-paper-data="{&quot;origPos&quot;:null}" stroke-linecap="round"/></g></g></g></svg>