<svg version="1.1" xmlns="http://www.w3.org/2000/svg" xmlns:xlink="http://www.w3.org/1999/xlink" width="50" height="44.63637" viewBox="0,0,50,44.63637"><g transform="translate(-215,-157.68183)"><g data-paper-data="{&quot;isPaintingLayer&quot;:true}" fill-rule="nonzero" stroke-linecap="butt" stroke-linejoin="miter" stroke-miterlimit="10" stroke-dasharray="" stroke-dashoffset="0" style="mix-blend-mode: normal"><path d="M216.5,200.81821v-41.63637h47v41.63637z" fill="#2f8276" stroke="#5aa893" stroke-width="3"/><path d="M216.50001,200.8182v-41.63637h47v41.63637z" fill="#2f8276" stroke="#000000" stroke-width="1"/><g fill="#a9d1ce"><path d="M243.12263,180.03582c0,-1.75629 -1.30585,-3.25079 -3.21086,-3.26408c-1.905,-0.01329 -3.12562,1.32202 -3.12561,3.21736c0.00001,1.89533 1.33562,3.03458 3.19708,3.04757c1.86146,0.01299 3.13939,-1.24455 3.13939,-3.00085zM239.96539,191.78543c-6.56598,0.0427 -11.70484,-5.05852 -11.70484,-11.86595c0,-6.80743 4.93147,-11.6608 11.70484,-11.70484c6.77337,-0.04404 11.77409,4.80523 11.77409,11.55217c0,6.74695 -5.20811,11.97592 -11.77409,12.01861z" data-paper-data="{&quot;index&quot;:null}" stroke="none" stroke-width="0.5"/><path d="M242.81312,190.26453v4.77683h-5.69545v-4.77683z" data-paper-data="{&quot;index&quot;:null}" stroke="#000000" stroke-width="0"/><path d="M237.18912,169.73551v-4.77683h5.69545v4.77683z" data-paper-data="{&quot;index&quot;:null}" stroke="#000000" stroke-width="0"/><path d="M250.26452,177.18693h4.77683v5.69545h-4.77683z" data-paper-data="{&quot;index&quot;:null}" stroke="#000000" stroke-width="0"/><path d="M229.73551,182.81092h-4.77683v-5.69545h4.77682z" data-paper-data="{&quot;index&quot;:null}" stroke="#000000" stroke-width="0"/><path d="M249.24728,185.26897l3.37772,3.37772l-4.02729,4.02729l-3.37772,-3.37773z" data-paper-data="{&quot;index&quot;:null}" stroke="#000000" stroke-width="0"/><path d="M230.75431,174.72953l-3.37772,-3.37772l4.02729,-4.02729l3.37772,3.37772z" data-paper-data="{&quot;index&quot;:null}" stroke="#000000" stroke-width="0"/><path d="M245.26896,170.75276l3.37773,-3.37773l4.02729,4.02729l-3.37772,3.37773z" data-paper-data="{&quot;index&quot;:null}" stroke="#000000" stroke-width="0"/><path d="M234.72952,189.24573l-3.37773,3.37772l-4.02729,-4.02729l3.37772,-3.37772z" data-paper-data="{&quot;index&quot;:null}" stroke="#000000" stroke-width="0"/></g></g></g></svg>