<svg version="1.1" xmlns="http://www.w3.org/2000/svg" xmlns:xlink="http://www.w3.org/1999/xlink" width="122.50002" height="187.5" viewBox="0,0,122.50002,187.5"><defs><radialGradient cx="240.00049" cy="153.99999" r="43.33867" gradientUnits="userSpaceOnUse" id="color-1"><stop offset="0" stop-color="#f8b870"/><stop offset="1" stop-color="#67503a"/></radialGradient></defs><g transform="translate(-178.74949,-86.25)"><g data-paper-data="{&quot;isPaintingLayer&quot;:true}" fill-rule="nonzero" stroke-linejoin="miter" stroke-miterlimit="10" stroke-dasharray="" stroke-dashoffset="0" style="mix-blend-mode: normal"><path d="M179.49951,95.75c0,-5.00052 3.75336,-8.75 8.75,-8.75h103.5c5.00061,0 8.74997,3.74753 8.75,8.75l0.001,168.25c0.00003,4.99939 -3.74669,8.99999 -8.75102,8.99999l-103.5,0.00001c-5.00277,0 -8.75,-4.00317 -8.75,-9z" fill="#a0a482" stroke="#000000" stroke-width="1.5" stroke-linecap="butt"/><path d="M196.11386,187.35775c0,-1.90221 6.28685,10.00867 9.8392,10.00867h68.10253c3.54693,0 9.83913,-11.95542 9.83913,-10.00867c0,10.02674 -0.09151,50.27884 -0.09151,58.42575c0,2.98806 -1.9043,6.98177 -6.56483,6.98177c0,0 -61.17368,0.0465 -74.55983,0.0465c-4.62287,0 -6.57229,-4.08852 -6.57229,-7.02802z" fill="#191919" stroke="#000000" stroke-width="0" stroke-linecap="butt"/><path d="M196.66181,186.96175v-65.923c0,-5.01085 5.38104,-10.3774 10.37714,-10.3774h65.92334c4.98781,0 10.37687,5.3757 10.37687,10.3774v65.923c0,5.01026 -5.36172,10.37695 -10.37687,10.37695h-65.92334c-5.0104,0 -10.37714,-5.37792 -10.37714,-10.37695z" fill="url(#color-1)" stroke="#191919" stroke-width="1" stroke-linecap="butt"/><text transform="translate(225.90259,103.52396) scale(0.36591,0.36591)" font-size="40" xml:space="preserve" fill="#ffffff" fill-rule="nonzero" stroke="#000000" stroke-width="1" stroke-linecap="butt" stroke-linejoin="miter" stroke-miterlimit="10" stroke-dasharray="" stroke-dashoffset="0" font-family="&quot;Microsoft YaHei&quot;, &quot;微软雅黑&quot;, STXihei, &quot;华文细黑&quot;" font-weight="normal" text-anchor="start" style="mix-blend-mode: normal"><tspan x="0" dy="0">攻击祈祷</tspan></text><text transform="translate(252.29481,267.85839) scale(0.32654,0.32654)" font-size="40" xml:space="preserve" fill="#ffffff" fill-rule="nonzero" stroke="#000000" stroke-width="1" stroke-linecap="butt" stroke-linejoin="miter" stroke-miterlimit="10" stroke-dasharray="" stroke-dashoffset="0" font-family="&quot;Microsoft YaHei&quot;, &quot;微软雅黑&quot;, STXihei, &quot;华文细黑&quot;" font-weight="normal" text-anchor="start" style="mix-blend-mode: normal"><tspan x="0" dy="0">祈祷牌</tspan></text><text transform="translate(189.66399,268.21236) scale(0.2977,0.2977)" font-size="40" xml:space="preserve" fill="#ffffff" fill-rule="nonzero" stroke="#000000" stroke-width="1" stroke-linecap="butt" stroke-linejoin="miter" stroke-miterlimit="10" stroke-dasharray="" stroke-dashoffset="0" font-family="Pixel" font-weight="normal" text-anchor="start" style="mix-blend-mode: normal"><tspan x="0" dy="0">PRAYING</tspan></text><text transform="translate(198.98923,209.68447) scale(0.2134,0.2134)" font-size="40" xml:space="preserve" fill="#ffffff" fill-rule="nonzero" stroke="none" stroke-width="1" stroke-linecap="butt" stroke-linejoin="miter" stroke-miterlimit="10" stroke-dasharray="" stroke-dashoffset="0" font-family="&quot;Microsoft YaHei&quot;, &quot;微软雅黑&quot;, STXihei, &quot;华文细黑&quot;" font-weight="normal" text-anchor="start" style="mix-blend-mode: normal"><tspan x="0" dy="0">　 • 在1/2/3/4/5回合</tspan><tspan x="0" dy="48px">后造成4/9/14/19/24</tspan><tspan x="0" dy="48px">点伤害</tspan></text><path d="M213.93884,166.31678c-0.2421,-0.28879 -0.12268,-0.76325 -0.32001,-1.08431c-0.1216,-0.19787 -0.46704,-0.18133 -0.58191,-0.38318c-0.27886,-0.49003 -0.58762,-2.29512 -0.30747,-2.89277c0.21018,-0.44839 0.47028,-0.71173 0.75138,-0.82704c-0.08721,-0.06949 -0.17593,-0.1368 -0.26722,-0.20035c-1.20692,-0.84011 -2.56011,-0.58803 -3.26195,-2.18702c-0.28334,-0.64555 -0.22467,-1.45543 0.02471,-2.11485c0.07756,-0.20509 0.47422,-0.1486 0.55556,-0.35223c0.12754,-0.31929 -0.16484,-0.72818 -0.00284,-1.03144c0.17581,-0.3291 0.64562,-0.39035 0.90544,-0.65814c0.48755,-0.50252 0.72527,-1.48638 1.29378,-1.95535c-1.83077,-1.69518 -2.26055,-3.31365 -2.26055,-5.7531c0,-0.38697 -0.02204,-2.0393 0.09784,-2.24753c0.14608,-0.25376 0.60717,-0.09182 0.83334,-0.27778c0.38381,-0.31556 -0.19821,-1.0051 -0.08261,-1.48835c0.0257,-0.10743 0.97656,-1.86945 1.01967,-1.95001c0.21143,-0.12473 0.55921,-0.14047 0.6343,-0.37419c0.10795,-0.33604 -0.70596,-0.05062 -1.05205,-0.11989c-0.42723,-0.08551 -0.91024,-0.09573 -1.25649,-0.3602c-0.67478,-0.5154 -0.57535,-1.36773 -0.0283,-1.89534c0.22046,-0.21262 0.66893,-0.08322 0.8605,-0.32218c0.3641,-0.45415 0.28434,-1.26877 0.7898,-1.55745c2.37959,-1.35906 5.40824,-1.11012 8.10876,-1.04794l-0.36096,-0.25062c-0.25285,-0.54896 -0.49137,-1.10448 -0.72625,-1.66136c-0.0363,-0.49937 -0.39898,-1.09001 -0.1089,-1.4981c0.1701,-0.23929 2.02857,-0.18972 2.34531,-0.18972c1.46186,0 3.07894,-0.19044 4.52421,0.00617c0.36632,0.04983 1.40127,0.50266 1.74113,0.55556c0.48614,0.07568 2.16673,0.22771 2.6289,0.07125c0.41047,-0.13897 0.26099,-0.93899 0.6527,-1.12437c0.33608,-0.15905 0.75581,0.06148 1.11491,-0.03495c0.53501,-0.14367 0.81788,-0.75481 1.28111,-1.05862c0.8312,-0.54513 1.65498,-0.90224 2.63996,-0.89625c1.74966,0.98872 3.11821,0.81453 5.13945,0.81453c0.32484,0 2.03341,-0.01447 2.18904,0.06133c0.38157,0.18586 0.58925,0.91658 0.99553,0.79382c0.43551,-0.1316 0.29249,-0.8864 0.58962,-1.23092c0.31824,-0.36898 1.72137,-0.68405 2.15195,-0.73231c1.28996,-0.14456 3.81911,-0.34338 5.05748,0.01919c0.16368,0.04792 1.47473,0.97048 1.68741,1.11787c1.07709,0.08617 2.70541,0.68467 3.50545,1.48965c0.28278,0.28453 0.52257,0.62445 0.67815,0.9942c0.07384,0.17548 -0.20271,0.5186 -0.01963,0.57079c0.18937,0.05398 0.19758,-0.35045 0.34838,-0.47708c0.29509,-0.2478 0.61432,-0.48018 0.9695,-0.62962c0.56803,-0.23899 1.14645,-0.48571 1.75547,-0.57984c0.83572,-0.12918 2.6916,0.57867 3.30981,1.14348c0.57272,0.52325 0.79113,1.7328 1.31968,2.33804c0.17314,0.19827 0.54065,0.2201 0.63872,0.46439c0.15996,0.39845 0.04278,0.85765 0.06417,1.28648c0,0 0,0.13513 -0.06899,0.26739c0.35951,0.30954 0.88124,0.40887 1.25417,0.70959c0.49354,0.39796 1.6799,1.80917 2.05754,2.34134c0.81221,1.14457 0.36841,3.39319 0.36841,4.73729c0,0.30104 0.00601,1.4549 -0.03296,1.5708c-0.03961,0.11777 -1.16927,1.38881 -1.18597,1.4079c-0.58063,0.90413 -1.10919,1.38807 -2.03269,1.93244c-0.42475,0.25036 -1.23877,0.38003 -1.19537,0.87116c0.02134,0.24152 1.18898,1.06188 1.33382,1.2299c0.06199,0.07191 1.12962,1.93553 1.15135,2.02149c0.17325,0.68516 -0.32264,1.40916 -0.71819,1.99482c-0.29228,0.43278 -0.189,1.063 -0.49435,1.48666c-0.55474,0.76967 -1.4506,1.5644 -2.2345,2.2978l0.12435,0.38189c0.0079,0.92999 0.1786,2.08932 -0.01057,2.99349c-0.09981,0.47704 -0.71836,1.01268 -0.83334,1.46335c-0.08669,0.33976 0.09912,0.71688 -0.00429,1.05194c-0.38663,1.25272 -1.45639,1.73078 -2.4823,2.25765c-0.27587,0.14167 -1.6089,1.08227 -1.8326,1.14757c-0.08785,0.02564 -1.75495,0.02076 -2.01525,0.02076c-1.53856,0 -3.14662,0.14616 -4.66235,-0.12509c0.02265,0.45948 -0.4837,0.78391 -0.69214,1.19401c-0.28865,0.5679 0.32276,1.63309 -0.0117,2.24841c-1.53248,2.81937 -5.62838,1.96048 -8.24501,1.96048c-1.13594,0 -2.27187,0 -3.4078,0c-0.43162,0 -1.04955,-0.45388 -1.2913,-0.09631c-0.12736,0.18838 -0.08845,0.44609 -0.13267,0.66914c-0.36821,0.57776 -0.81939,1.109 -1.11253,1.72824c-0.18205,0.38458 -0.08427,0.95067 -0.42689,1.20297c-0.18251,0.13439 -2.05729,0.1071 -2.38888,0.1071c-0.8118,0 -2.50464,0.27837 -3.22726,-0.15563c-0.60411,-0.36282 -0.81678,-1.17417 -1.3714,-1.60889c-0.80677,-0.63236 -1.55355,-0.98114 -2.30408,-1.74002c-0.82354,-0.83271 -0.92065,-1.53397 -2.06913,-2.10577c0,0 -0.10906,-0.05453 -0.19494,-0.16359c-0.12708,0.01549 -0.25012,0.042 -0.36004,0.1043c-0.13775,0.07807 -0.19984,0.22198 -0.2437,0.3837c-0.29575,-0.00646 -0.51786,0.06017 -0.51786,0.06017c-0.73158,0.27497 -1.62894,0.28574 -2.19473,0.8249c-0.03572,0.03404 -0.06928,0.06957 -0.10086,0.10643c-0.5944,0.13462 -1.05485,0.6222 -1.14941,1.2308c-0.42652,-0.0102 -0.95021,0.14684 -1.29582,0.83807c-0.04073,0.08145 -0.07403,0.16042 -0.10067,0.23692c-1.44629,0.69876 -2.36424,1.63748 -3.54182,2.89768c-0.22502,-0.01061 -0.43344,0.03917 -0.60613,0.10558c-0.3512,0.11947 -0.64387,0.36553 -0.82364,0.68381l-0.0816,0.09784c-0.54752,0.16477 -1.0916,0.34182 -1.63167,0.53039c-0.4265,-0.0516 -0.82581,-0.18404 -1.15989,-0.4205c0.33473,-1.90266 0.44575,-3.82589 0.78548,-5.71229c0.33677,-0.44669 0.61433,-0.90479 0.85447,-1.3936l0.2926,-0.18963c0.15455,-0.48131 0.2762,-0.97533 0.36582,-1.47561c0.01557,-0.04823 0.03104,-0.09682 0.04642,-0.14577c0.16693,-0.1701 0.33433,-0.33861 0.50213,-0.50535c0,0 0.30468,-0.30468 0.42415,-0.75074c0.2721,-0.25825 0.92412,-1.03434 0.19397,-2.00787c-0.12123,-0.16164 -0.24791,-0.28519 -0.37636,-0.37796c0.0658,-0.07073 0.13341,-0.14115 0.20291,-0.2113c-0.56979,-0.06545 -1.44291,-0.23372 -1.65993,-0.49259z" fill="#ffffff" stroke="none" stroke-width="0.5" stroke-linecap="butt"/><g stroke-width="1.5"><path d="M243.59221,163.5234l-15.61768,-16.90393l-0.20619,-5.48424l5.45083,0.63868l15.61767,16.90393z" data-paper-data="{&quot;origRot&quot;:0}" fill="#b7dce3" stroke="#000000" stroke-linecap="butt"/><path d="M246.21453,161.10058l-17.45504,-18.89263" data-paper-data="{&quot;origRot&quot;:0}" fill="none" stroke="#000000" stroke-linecap="round"/><path d="M245.08026,162.30289l2.35316,-2.17411l4.21481,4.56194c0,0 -0.14728,1.31972 -0.69203,1.82303c-0.37359,0.34517 -1.66113,0.35108 -1.66113,0.35108z" data-paper-data="{&quot;origRot&quot;:0}" fill="#bc752d" stroke="#000000" stroke-linecap="butt"/><path d="M241.89995,166.76094c0,0 -0.89392,0.15537 -1.163,-0.13587c-0.16818,-0.18202 0.04259,-1.07682 0.04259,-1.07682l10.06159,-9.29598c0,0 1.12281,-0.30821 1.31958,-0.09525c0.24049,0.2603 -0.19917,1.30794 -0.19917,1.30794z" data-paper-data="{&quot;origRot&quot;:0}" fill="#000000" stroke="none" stroke-linecap="butt"/></g></g></g></svg>