<svg version="1.1" xmlns="http://www.w3.org/2000/svg" xmlns:xlink="http://www.w3.org/1999/xlink" width="128.00855" height="193.39224" viewBox="0,0,128.00855,193.39224"><defs><radialGradient cx="240.00049" cy="153.99999" r="43.33867" gradientUnits="userSpaceOnUse" id="color-1"><stop offset="0" stop-color="#f8b870"/><stop offset="1" stop-color="#67503a"/></radialGradient></defs><g transform="translate(-173.24096,-80.35776)"><g data-paper-data="{&quot;isPaintingLayer&quot;:true}" fill-rule="nonzero" stroke-linejoin="miter" stroke-miterlimit="10" stroke-dasharray="" stroke-dashoffset="0" style="mix-blend-mode: normal"><path d="M201.82399,87h89.92552c5.00061,0 8.74997,3.74753 8.75,8.75l0.001,168.25c0.00003,4.99939 -3.74669,8.99999 -8.75102,8.99999l-103.5,0.00001c-5.00277,0 -8.75,-4.00317 -8.75,-9l0.00002,-150.35728z" fill="#7f633f" stroke="#000000" stroke-width="1.5" stroke-linecap="butt"/><path d="M196.11386,187.35775c0,-1.90221 6.28685,10.00867 9.8392,10.00867h68.10253c3.54693,0 9.83913,-11.95542 9.83913,-10.00867c0,10.02674 -0.09151,50.27884 -0.09151,58.42575c0,2.98806 -1.9043,6.98177 -6.56483,6.98177c0,0 -61.17368,0.0465 -74.55983,0.0465c-4.62287,0 -6.57229,-4.08852 -6.57229,-7.02802z" fill="#191919" stroke="#000000" stroke-width="0" stroke-linecap="butt"/><path d="M196.66181,186.96175v-65.923c0,-5.01085 5.38104,-10.3774 10.37714,-10.3774h65.92334c4.98781,0 10.37687,5.3757 10.37687,10.3774v65.923c0,5.01026 -5.36172,10.37695 -10.37687,10.37695h-65.92334c-5.0104,0 -10.37714,-5.37792 -10.37714,-10.37695z" fill="url(#color-1)" stroke="#191919" stroke-width="1" stroke-linecap="butt"/><path d="M173.99096,120.23529l32.7902,-39.12753" fill="none" stroke="#000000" stroke-width="1.5" stroke-linecap="round"/><text transform="translate(252.29485,267.85839) scale(0.32654,0.32654)" font-size="40" xml:space="preserve" fill="#ffffff" fill-rule="nonzero" stroke="#000000" stroke-width="1" stroke-linecap="butt" stroke-linejoin="miter" stroke-miterlimit="10" stroke-dasharray="" stroke-dashoffset="0" font-family="&quot;Microsoft YaHei&quot;, &quot;微软雅黑&quot;, STXihei, &quot;华文细黑&quot;" font-weight="normal" text-anchor="start" style="mix-blend-mode: normal"><tspan x="0" dy="0">行动牌</tspan></text><text transform="translate(225.93259,103.52383) scale(0.36591,0.36591)" font-size="40" xml:space="preserve" fill="#ffffff" fill-rule="nonzero" stroke="#000000" stroke-width="1" stroke-linecap="butt" stroke-linejoin="miter" stroke-miterlimit="10" stroke-dasharray="" stroke-dashoffset="0" font-family="&quot;Microsoft YaHei&quot;, &quot;微软雅黑&quot;, STXihei, &quot;华文细黑&quot;" font-weight="normal" text-anchor="start" style="mix-blend-mode: normal"><tspan x="0" dy="0">重击</tspan></text><text transform="translate(199.01647,209.6843) scale(0.2134,0.2134)" font-size="40" xml:space="preserve" fill="#ffffff" fill-rule="nonzero" stroke="none" stroke-width="1" stroke-linecap="butt" stroke-linejoin="miter" stroke-miterlimit="10" stroke-dasharray="" stroke-dashoffset="0" font-family="&quot;Microsoft YaHei&quot;, &quot;微软雅黑&quot;, STXihei, &quot;华文细黑&quot;" font-weight="normal" text-anchor="start" style="mix-blend-mode: normal"><tspan x="0" dy="0">　 • 造成    点伤害</tspan><tspan x="0" dy="48px">　 • 丢弃最左侧手牌</tspan></text><text transform="translate(189.66405,268.21233) scale(0.2977,0.2977)" font-size="40" xml:space="preserve" fill="#ffffff" fill-rule="nonzero" stroke="#000000" stroke-width="1" stroke-linecap="butt" stroke-linejoin="miter" stroke-miterlimit="10" stroke-dasharray="" stroke-dashoffset="0" font-family="Pixel" font-weight="normal" text-anchor="start" style="mix-blend-mode: normal"><tspan x="0" dy="0">ACTION</tspan></text><path d="M244.74806,139.59587l0.20782,-0.20782c-1.63932,-3.52814 -4.35907,-5.60622 -8.57949,-5.85861c0,0 -0.05845,-0.0039 -0.15245,-0.0213c-1.67112,2.06465 -3.9068,3.33558 -5.91587,5.16241c-3.7753,3.43286 -7.18998,7.19234 -10.7889,10.79127l-0.41609,0.32825c-0.74594,3.6624 4.54441,7.03124 7.71018,7.45537c5.93271,-5.92702 11.95142,-11.66618 17.9348,-17.64956zM215.79631,150.3086c-1.00059,-1.28647 0.28589,-2.28707 0.28589,-2.28707l1.13211,-0.86459c3.63287,-3.63287 7.08404,-7.4289 10.89571,-10.89334c1.99832,-1.81628 4.5909,-3.07142 6.00117,-5.37799c0,0 0.81409,-1.27927 2.10572,-0.58469c0.21949,-0.03429 0.37631,-0.02383 0.37631,-0.02383c6.20041,0.44845 10.17983,3.96366 12.13738,9.81317l-1.24969,2.52378c0,0 -0.72273,0.72273 -1.59585,0.45116c-5.56564,5.53401 -11.15978,10.88602 -16.6738,16.39208c-0.33829,1.37425 -1.80197,1.16515 -1.80197,1.16515l-0.99863,-0.14266c-4.90134,-0.76925 -10.46127,-4.87582 -10.57374,-10.1204c-0.01358,-0.01651 -0.02711,-0.03343 -0.04059,-0.05075z" fill="#b16868" stroke="none" stroke-width="0.5" stroke-linecap="butt"/><path d="M236.17478,153.73831l4.253,-4.24809l24.15791,24.16742c0,0 -0.1797,2.48506 -1.16425,3.46849c-0.67521,0.67445 -3.08874,0.77962 -3.08874,0.77962z" data-paper-data="{&quot;origRot&quot;:0}" fill="#bc752d" stroke="#000000" stroke-width="2.5" stroke-linecap="butt"/><path d="M228.62736,160.93701c0,0 -1.67535,0.30222 -2.18372,-0.24099c-0.31772,-0.3395 0.06701,-2.02089 0.06701,-2.02089l18.76675,-17.56208c0,0 2.10298,-0.59173 2.47472,-0.1945c0.45433,0.4855 -0.35802,2.4564 -0.35802,2.4564z" data-paper-data="{&quot;origRot&quot;:0}" fill="#000000" stroke="none" stroke-width="0" stroke-linecap="butt"/><path d="M218.08057,150.39022c0,0 -1.67535,0.30222 -2.18372,-0.241c-0.31772,-0.3395 0.06701,-2.02088 0.06701,-2.02088l18.76675,-17.56208c0,0 2.10299,-0.59172 2.47473,-0.1945c0.45433,0.4855 -0.35803,2.4564 -0.35803,2.4564z" data-paper-data="{&quot;origRot&quot;:0}" fill="#000000" stroke="none" stroke-width="0" stroke-linecap="butt"/><path d="M244.74806,139.59587l0.20782,-0.20782c-1.63932,-3.52814 -4.35907,-5.60622 -8.57949,-5.85861c0,0 -0.05845,-0.0039 -0.15245,-0.0213c-1.67112,2.06465 -3.9068,3.33558 -5.91587,5.16241c-3.7753,3.43286 -7.18998,7.19234 -10.7889,10.79127l-0.41609,0.32825c-0.74594,3.6624 4.54441,7.03124 7.71018,7.45537c5.93271,-5.92702 11.95142,-11.66618 17.9348,-17.64956zM215.79631,150.3086c-1.00059,-1.28647 0.28589,-2.28707 0.28589,-2.28707l1.13211,-0.86459c3.63287,-3.63287 7.08404,-7.4289 10.89571,-10.89334c1.99832,-1.81628 4.5909,-3.07142 6.00117,-5.37799c0,0 0.81409,-1.27927 2.10572,-0.58469c0.21949,-0.03429 0.37631,-0.02383 0.37631,-0.02383c6.20041,0.44845 10.17983,3.96366 12.13738,9.81317l-1.24969,2.52378c0,0 -0.72273,0.72273 -1.59585,0.45116c-5.56564,5.53401 -11.15978,10.88602 -16.6738,16.39208c-0.33829,1.37425 -1.80197,1.16515 -1.80197,1.16515l-0.99863,-0.14266c-4.90134,-0.76925 -10.46127,-4.87582 -10.57374,-10.1204c-0.01358,-0.01651 -0.02711,-0.03343 -0.04059,-0.05075z" fill="#000000" stroke="none" stroke-width="0.5" stroke-linecap="butt"/><path d="M226.78357,157.32133c-3.16577,-0.42413 -8.50248,-3.83957 -7.75654,-7.50197l0.41574,-0.32918c3.59893,-3.59893 7.07346,-7.46656 10.84876,-10.89942c2.00906,-1.82683 4.29169,-3.09357 5.96281,-5.15822c0.09401,0.0174 0.15337,0.02167 0.15337,0.02167c4.22042,0.25239 6.98403,2.37425 8.62335,5.90239l-0.20758,0.20842c-5.98338,5.98338 -12.10719,11.8293 -18.0399,17.75632z" data-paper-data="{&quot;noHover&quot;:false,&quot;origItem&quot;:[&quot;Path&quot;,{&quot;applyMatrix&quot;:true,&quot;segments&quot;:[[[508.49658,297.66709],[-11.96676,11.96676],[0,0]],[[508.91222,297.25144],[0,0],[-3.27863,-7.05629]],[[491.75325,285.53422],[8.44084,0.50478],[0,0]],[[491.44834,285.49162],[0.18801,0.0348],[-3.34224,4.12931]],[[479.61661,295.81644],[4.01813,-3.65366],[-7.5506,6.86572]],[[458.0388,317.39897],[7.19785,-7.19785],[0,0]],[[457.20661,318.05548],[0,0],[-1.49188,7.32479]],[[472.62697,332.96622],[-6.33154,-0.84826],[11.86542,-11.85403]]],&quot;closed&quot;:true}]}" fill="#96b8b2" stroke="none" stroke-width="0.5" stroke-linecap="butt"/></g></g></svg>