<svg version="1.1" xmlns="http://www.w3.org/2000/svg" xmlns:xlink="http://www.w3.org/1999/xlink" width="28.5" height="28.5" viewBox="0,0,28.5,28.5"><defs><linearGradient x1="236.22" y1="174.23" x2="240.12" y2="174.23" gradientUnits="userSpaceOnUse" id="color-1"><stop offset="0" stop-color="#000000"/><stop offset="1" stop-color="#000000"/></linearGradient><linearGradient x1="244.02" y1="174.23" x2="240.12" y2="174.23" gradientUnits="userSpaceOnUse" id="color-2"><stop offset="0" stop-color="#000000"/><stop offset="1" stop-color="#000000"/></linearGradient><linearGradient x1="233.41246" y1="182.33137" x2="246.84103" y2="182.33137" gradientUnits="userSpaceOnUse" id="color-3"><stop offset="0" stop-color="#000000"/><stop offset="1" stop-color="#000000"/></linearGradient><linearGradient x1="239.46766" y1="182.33137" x2="240.78584" y2="182.33137" gradientUnits="userSpaceOnUse" id="color-4"><stop offset="0" stop-color="#000000"/><stop offset="1" stop-color="#000000"/></linearGradient><linearGradient x1="233.41245" y1="182.33137" x2="246.84103" y2="182.33137" gradientUnits="userSpaceOnUse" id="color-5"><stop offset="0" stop-color="#000000"/><stop offset="1" stop-color="#000000"/></linearGradient></defs><g transform="translate(-225.75,-165.75)"><g data-paper-data="{&quot;isPaintingLayer&quot;:true}" fill-rule="nonzero" stroke-width="1" stroke-linejoin="miter" stroke-miterlimit="10" stroke-dasharray="" stroke-dashoffset="0" style="mix-blend-mode: normal"><path d="M226.25,192v-24c0,-1.04038 0.69833,-1.75 1.75,-1.75h24c1.04511,0 1.75,0.69647 1.75,1.75v24c0,1.04844 -0.66666,1.75 -1.71857,1.75h-24.03143c-1.05482,0 -1.75,-0.69757 -1.75,-1.75z" fill="#76aac6" stroke="#000000" stroke-linecap="butt"/><g><path d="M240.12,176.18l-3.9,-3.9" fill="none" stroke="url(#color-1)" stroke-linecap="round"/><path d="M240.12,176.18l3.9,-3.9" data-paper-data="{&quot;index&quot;:null}" fill="none" stroke="url(#color-2)" stroke-linecap="round"/><path d="M233.41246,188.54566v-12.42857h13.42857v12.42857z" fill="#2a58ad" stroke="url(#color-3)" stroke-linecap="butt"/><path d="M240.12675,176.11709v12.42857" fill="none" stroke="url(#color-4)" stroke-linecap="round"/><path d="M246.84103,182.33137h-13.42857" fill="none" stroke="url(#color-5)" stroke-linecap="round"/></g></g></g></svg>