<svg version="1.1" xmlns="http://www.w3.org/2000/svg" xmlns:xlink="http://www.w3.org/1999/xlink" width="34" height="34" viewBox="0,0,34,34"><g transform="translate(-223,-163)"><g data-paper-data="{&quot;isPaintingLayer&quot;:true}" fill-rule="nonzero" stroke="#e8d950" stroke-width="2" stroke-linejoin="miter" stroke-miterlimit="10" stroke-dasharray="" stroke-dashoffset="0" style="mix-blend-mode: normal"><path d="M224,180c0,-8.83656 7.16344,-16 16,-16c8.83656,0 16,7.16344 16,16c0,8.83656 -7.16344,16 -16,16c-8.83656,0 -16,-7.16344 -16,-16z" fill="#dab64c" stroke-linecap="butt"/><path d="M239.6549,178.2403c3.92157,2.36857 8.52768,5.67688 5.93333,10.26424c-1.93738,3.4257 -9.17963,4.32914 -11.83333,0.33333c-2.65371,-3.99581 5.91666,-10.58333 5.91666,-10.58333c0,0 -7.17727,-4.53829 -6.08333,-6.41667c4.89786,-7.45045 13.16667,0 13.16667,0" fill="none" stroke-linecap="round"/></g></g></svg>