<svg version="1.1" xmlns="http://www.w3.org/2000/svg" xmlns:xlink="http://www.w3.org/1999/xlink" width="29.39096" height="29.39096" viewBox="0,0,29.39096,29.39096"><g transform="translate(-225.30452,-165.30452)"><g data-paper-data="{&quot;isPaintingLayer&quot;:true}" fill-rule="nonzero" stroke="#000000" stroke-linejoin="miter" stroke-miterlimit="10" stroke-dasharray="" stroke-dashoffset="0" style="mix-blend-mode: normal"><path d="M225.80452,180c0,-7.83995 6.35553,-14.19548 14.19548,-14.19548c7.83995,0 14.19548,6.35553 14.19548,14.19548c0,7.83995 -6.35553,14.19548 -14.19548,14.19548c-7.83995,0 -14.19548,-6.35553 -14.19548,-14.19548z" fill="#969787" stroke-width="1" stroke-linecap="butt"/><g stroke-width="0.75"><path d="M234.32185,190.12141l5.77124,-11.3563l5.58506,11.3563z" fill="#fcdf0d" stroke-linecap="butt"/><g><path d="M240,182.04211v4.56121" fill="none" stroke-linecap="round"/><path d="M239.70488,188.43808c0,-0.16299 0.13213,-0.29512 0.29512,-0.29512c0.16299,0 0.29512,0.13213 0.29512,0.29512c0,0.16299 -0.13213,0.29512 -0.29512,0.29512c-0.16299,0 -0.29512,-0.13213 -0.29512,-0.29512z" fill="#fcdf0d" stroke-linecap="butt"/></g></g><g fill="#83db12" stroke-width="0" stroke-linecap="butt"><path d="M241.23489,180.88844v-4.24666h8.88652v4.24666z"/><path d="M247.80147,183.20837h-4.24665v-8.88652h4.24665z"/></g><g fill="#83db12" stroke-width="0" stroke-linecap="butt"><path d="M229.87859,176.44518v-4.24666h8.88652v4.24666z"/><path d="M236.44518,178.76511h-4.24665v-8.88652h4.24665z"/></g></g></g></svg>