<svg version="1.1" xmlns="http://www.w3.org/2000/svg" xmlns:xlink="http://www.w3.org/1999/xlink" width="50" height="44.63637" viewBox="0,0,50,44.63637"><g transform="translate(-215,-157.68183)"><g data-paper-data="{&quot;isPaintingLayer&quot;:true}" fill-rule="nonzero" stroke-linecap="butt" stroke-linejoin="miter" stroke-miterlimit="10" stroke-dasharray="" stroke-dashoffset="0" style="mix-blend-mode: normal"><path d="M216.5,200.81821v-41.63637h47v41.63637z" fill="#2f8276" stroke="#5aa893" stroke-width="3"/><path d="M216.5,200.81823v-41.63637h47v41.63637z" fill="#2f8276" stroke="#000000" stroke-width="1"/><g fill="#a9d1ce" stroke="none" stroke-width="0.5"><path d="M235.13322,192.73502c0,-1.8066 1.46455,-3.27114 3.27114,-3.27114c1.8066,0 3.27114,1.46455 3.27114,3.27114c0,1.8066 -1.46455,3.27114 -3.27114,3.27114c-1.8066,0 -3.27114,-1.46455 -3.27114,-3.27114z"/><path d="M238.98835,186.41733c-2.04191,0.76572 -2.80763,-1.2762 -2.80763,-1.2762l-0.45381,-3.19482c1.91328,-3.69805 6.18735,-5.34399 8.02942,-8.78699c3.43881,-6.42741 -6.6655,-5.21722 -9.7508,-4.16116c0,0 -2.06886,0.68962 -2.75848,-1.37923c-0.68962,-2.06886 1.37923,-2.75847 1.37923,-2.75847c7.00992,-2.28713 20.50598,-0.44708 14.96451,10.37727c-1.82806,3.5708 -7.32626,8.37197 -7.32626,8.37197c0,0 0.76572,2.04191 -1.27619,2.80763z"/></g></g></g></svg>