<svg version="1.1" xmlns="http://www.w3.org/2000/svg" xmlns:xlink="http://www.w3.org/1999/xlink" width="122.50002" height="187.5" viewBox="0,0,122.50002,187.5"><defs><radialGradient cx="240.00049" cy="153.99999" r="43.33867" gradientUnits="userSpaceOnUse" id="color-1"><stop offset="0" stop-color="#f8b870"/><stop offset="1" stop-color="#67503a"/></radialGradient></defs><g transform="translate(-178.74949,-86.25)"><g data-paper-data="{&quot;isPaintingLayer&quot;:true}" fill-rule="nonzero" stroke-linejoin="miter" stroke-miterlimit="10" stroke-dasharray="" stroke-dashoffset="0" style="mix-blend-mode: normal"><path d="M179.49951,95.75c0,-5.00052 3.75336,-8.75 8.75,-8.75h103.5c5.00061,0 8.74997,3.74753 8.75,8.75l0.001,168.25c0.00003,4.99939 -3.74669,8.99999 -8.75102,8.99999l-103.5,0.00001c-5.00277,0 -8.75,-4.00317 -8.75,-9z" fill="#2f7035" stroke="#000000" stroke-width="1.5" stroke-linecap="butt"/><path d="M196.11386,187.35775c0,-1.90221 6.28685,10.00867 9.8392,10.00867h68.10253c3.54693,0 9.83913,-11.95542 9.83913,-10.00867c0,10.02674 -0.09151,50.27884 -0.09151,58.42575c0,2.98806 -1.9043,6.98177 -6.56483,6.98177c0,0 -61.17368,0.0465 -74.55983,0.0465c-4.62287,0 -6.57229,-4.08852 -6.57229,-7.02802z" fill="#191919" stroke="#000000" stroke-width="0" stroke-linecap="butt"/><path d="M196.66181,186.96175v-65.923c0,-5.01085 5.38104,-10.3774 10.37714,-10.3774h65.92334c4.98781,0 10.37687,5.3757 10.37687,10.3774v65.923c0,5.01026 -5.36172,10.37695 -10.37687,10.37695h-65.92334c-5.0104,0 -10.37714,-5.37792 -10.37714,-10.37695z" fill="url(#color-1)" stroke="#191919" stroke-width="1" stroke-linecap="butt"/><text transform="translate(225.90259,103.52399) scale(0.36591,0.36591)" font-size="40" xml:space="preserve" fill="#ffffff" fill-rule="nonzero" stroke="#000000" stroke-width="1" stroke-linecap="butt" stroke-linejoin="miter" stroke-miterlimit="10" stroke-dasharray="" stroke-dashoffset="0" font-family="&quot;Microsoft YaHei&quot;, &quot;微软雅黑&quot;, STXihei, &quot;华文细黑&quot;" font-weight="normal" text-anchor="start" style="mix-blend-mode: normal"><tspan x="0" dy="0">连弩</tspan></text><text transform="translate(252.29481,267.85839) scale(0.32654,0.32654)" font-size="40" xml:space="preserve" fill="#ffffff" fill-rule="nonzero" stroke="#000000" stroke-width="1" stroke-linecap="butt" stroke-linejoin="miter" stroke-miterlimit="10" stroke-dasharray="" stroke-dashoffset="0" font-family="&quot;Microsoft YaHei&quot;, &quot;微软雅黑&quot;, STXihei, &quot;华文细黑&quot;" font-weight="normal" text-anchor="start" style="mix-blend-mode: normal"><tspan x="0" dy="0">装备牌</tspan></text><text transform="translate(189.66399,268.21236) scale(0.2977,0.2977)" font-size="40" xml:space="preserve" fill="#ffffff" fill-rule="nonzero" stroke="#000000" stroke-width="1" stroke-linecap="butt" stroke-linejoin="miter" stroke-miterlimit="10" stroke-dasharray="" stroke-dashoffset="0" font-family="Pixel" font-weight="normal" text-anchor="start" style="mix-blend-mode: normal"><tspan x="0" dy="0">ARMOUR</tspan></text><text transform="translate(199.01639,209.68442) scale(0.2134,0.2134)" font-size="40" xml:space="preserve" fill="#ffffff" fill-rule="nonzero" stroke="none" stroke-width="1" stroke-linecap="butt" stroke-linejoin="miter" stroke-miterlimit="10" stroke-dasharray="" stroke-dashoffset="0" font-family="&quot;Microsoft YaHei&quot;, &quot;微软雅黑&quot;, STXihei, &quot;华文细黑&quot;" font-weight="normal" text-anchor="start" style="mix-blend-mode: normal"><tspan x="0" dy="0">　 • 每使用一张行动</tspan><tspan x="0" dy="48px">牌，造成 1 点伤害</tspan></text><path d="M219.18965,161.29043c-1.49355,0 -1.49355,-1.49354 -1.49355,-1.49354c0,-1.75358 0,-4.55933 0,-6.31292c0,0 0,-1.49355 1.49355,-1.49355c0.50776,0 0.84291,0.17263 1.06411,0.4005c0.34163,-0.29036 0.74729,-0.37149 0.74729,-0.37149c1.50022,-0.30004 3.02897,-0.59201 4.58009,-0.87115c1.66628,-4.80393 5.44936,-10.92866 7.52076,-13.32298c4.04857,-6.33453 7.62428,-12.37191 11.13697,-19.28459c-0.02713,-0.05396 -0.05421,-0.10799 -0.08125,-0.16205c0,0 -0.66792,-1.33587 0.66795,-2.0038c1.33587,-0.66793 2.0038,0.66795 2.0038,0.66795c5.52596,11.05189 12.92753,19.79637 16.91549,31.76025l0.02357,0.4688c2.68574,0.05947 5.12727,0.11577 7.79575,0.64326l0.75925,-0.029c0,0 1.49354,0 1.49354,1.49355c0,1.49355 -1.49354,1.49354 -1.49354,1.49354l-1.34506,-0.029c-2.70311,-0.5476 -5.16065,-0.53859 -7.92102,-0.60582c-11.67606,-1.67259 -24.83098,-0.32125 -36.71811,1.80797c-0.03954,0.24601 -0.06659,0.48064 -0.08004,0.70228c-0.4632,-0.06988 -0.97002,-0.07022 -1.49268,-0.045c0.00709,-0.12232 0.01765,-0.24762 0.03154,-0.37569c-1.08285,0.20169 -2.15396,0.40913 -3.2112,0.62057c0,0 -0.45177,0.09036 -0.90367,-0.08022c0,1.29216 0,2.5843 0,3.87645v0.09212c0.15022,-0.00935 0.24961,0.00169 0.24961,0.00169c0.7724,0.08582 1.54764,0.15988 2.32523,0.22286c0.17998,-0.04107 0.32619,-0.01858 0.44327,0.03469c8.91649,0.67338 18.12689,-0.09223 26.87048,-1.30766c3.41125,-0.47419 6.44897,0.69717 9.60639,-0.94966c3.7638,-1.22234 8.71684,-1.16584 12.67131,-1.16584h0.52609c0,0 1.49354,0 1.49354,1.49355c0,1.49355 -1.49354,1.49354 -1.49354,1.49354h-0.52609c-3.52654,0 -8.21012,-0.21115 -11.52821,0.93847c-3.60806,1.74144 -6.62775,0.60201 -10.38453,1.15466c-8.35493,1.22908 -17.22568,1.92853 -25.80616,1.43341c3.22727,7.0104 9.66589,12.51265 13.71415,18.96837c-0.02545,1.59969 0.99233,2.74376 1.61045,4.16694c7.19317,-7.93894 10.61114,-21.8409 20.34831,-25.36368c0,0 1.41691,-0.47229 1.88921,0.9446c0.47231,1.4169 -0.9446,1.8892 -0.9446,1.8892c-3.14837,0.90793 -5.24908,5.40601 -7.17222,7.90122c-4.2632,5.53139 -7.55304,12.52244 -12.73174,17.5448c0.10527,0.12608 0.41631,0.57361 -0.03122,1.02113c-0.52804,0.52804 -1.0561,0 -1.0561,0l-0.01125,-0.01192c-0.73172,0.63537 -1.501,1.23105 -2.31477,1.77873l-1.2127,0.61924c0,0 -1.33587,0.66794 -2.0038,-0.66793c-0.66793,-1.33587 0.66795,-2.0038 0.66795,-2.0038l0.89162,-0.43292c0.87963,-0.57982 1.70349,-1.24835 2.48236,-1.9882c-0.58915,-1.77284 -1.81654,-3.0814 -1.84414,-4.97524c-4.41017,-6.52454 -10.69531,-12.22146 -13.917,-19.49982c-0.96884,-0.07373 -1.93328,-0.16339 -2.89214,-0.26993c0,0 -0.65038,-0.07228 -1.0423,-0.55165c-0.11209,0.02239 -0.23539,0.03469 -0.37099,0.03469zM234.2948,138.72401c-1.91135,2.09791 -5.33222,7.67989 -7.03088,12.12816c10.83367,-1.86236 22.63269,-3.02835 33.36888,-1.91808c-3.7731,-10.75849 -10.3373,-18.90683 -15.55194,-28.76199c-3.40223,6.59433 -6.89209,12.40031 -10.78606,18.55191z" fill="#000000" stroke="none" stroke-width="0.5" stroke-linecap="butt"/><path d="M276.34407,153.25913l-72.68718,4.09203" fill="none" stroke="#000000" stroke-width="0.75" stroke-linecap="round"/><path d="M269.34407,149.4258l8,3l-4.33333,6.66667" fill="none" stroke="#000000" stroke-width="0.75" stroke-linecap="round"/></g></g></svg>