<svg version="1.1" xmlns="http://www.w3.org/2000/svg" xmlns:xlink="http://www.w3.org/1999/xlink" width="1146.27179" height="524.02402" viewBox="0,0,1146.27179,524.02402"><defs><linearGradient x1="227.53003" y1="194.45348" x2="313.53003" y2="194.45348" gradientUnits="userSpaceOnUse" id="color-1"><stop offset="0" stop-color="#2e804c"/><stop offset="1" stop-color="#72802e"/></linearGradient><linearGradient x1="235.03003" y1="175.20348" x2="306.03003" y2="175.20348" gradientUnits="userSpaceOnUse" id="color-2"><stop offset="0" stop-color="#2e804c"/><stop offset="1" stop-color="#72802e"/></linearGradient><linearGradient x1="246.03003" y1="159.31104" x2="295.03003" y2="159.31104" gradientUnits="userSpaceOnUse" id="color-3"><stop offset="0" stop-color="#2e804c"/><stop offset="1" stop-color="#72802e"/></linearGradient><linearGradient x1="254.78003" y1="145.34302" x2="286.28003" y2="145.34302" gradientUnits="userSpaceOnUse" id="color-4"><stop offset="0" stop-color="#2e804c"/><stop offset="1" stop-color="#72802e"/></linearGradient><linearGradient x1="184.03003" y1="204.18696" x2="270.03003" y2="204.18696" gradientUnits="userSpaceOnUse" id="color-5"><stop offset="0" stop-color="#2e804c"/><stop offset="1" stop-color="#72802e"/></linearGradient><linearGradient x1="191.53003" y1="184.93696" x2="262.53003" y2="184.93696" gradientUnits="userSpaceOnUse" id="color-6"><stop offset="0" stop-color="#2e804c"/><stop offset="1" stop-color="#72802e"/></linearGradient><linearGradient x1="202.53003" y1="169.04452" x2="251.53003" y2="169.04452" gradientUnits="userSpaceOnUse" id="color-7"><stop offset="0" stop-color="#2e804c"/><stop offset="1" stop-color="#72802e"/></linearGradient><linearGradient x1="211.28003" y1="155.07648" x2="242.78003" y2="155.07648" gradientUnits="userSpaceOnUse" id="color-8"><stop offset="0" stop-color="#2e804c"/><stop offset="1" stop-color="#72802e"/></linearGradient><linearGradient x1="323.66967" y1="213.30034" x2="409.66967" y2="213.30034" gradientUnits="userSpaceOnUse" id="color-9"><stop offset="0" stop-color="#2e804c"/><stop offset="1" stop-color="#72802e"/></linearGradient><linearGradient x1="331.16967" y1="194.05034" x2="402.16967" y2="194.05034" gradientUnits="userSpaceOnUse" id="color-10"><stop offset="0" stop-color="#2e804c"/><stop offset="1" stop-color="#72802e"/></linearGradient><linearGradient x1="342.16967" y1="178.1579" x2="391.16967" y2="178.1579" gradientUnits="userSpaceOnUse" id="color-11"><stop offset="0" stop-color="#2e804c"/><stop offset="1" stop-color="#72802e"/></linearGradient><linearGradient x1="350.91967" y1="164.18987" x2="382.41967" y2="164.18987" gradientUnits="userSpaceOnUse" id="color-12"><stop offset="0" stop-color="#2e804c"/><stop offset="1" stop-color="#72802e"/></linearGradient><linearGradient x1="377.66967" y1="217.78725" x2="463.66967" y2="217.78725" gradientUnits="userSpaceOnUse" id="color-13"><stop offset="0" stop-color="#2e804c"/><stop offset="1" stop-color="#72802e"/></linearGradient><linearGradient x1="385.16967" y1="198.53725" x2="456.16967" y2="198.53725" gradientUnits="userSpaceOnUse" id="color-14"><stop offset="0" stop-color="#2e804c"/><stop offset="1" stop-color="#72802e"/></linearGradient><linearGradient x1="396.16967" y1="182.64481" x2="445.16967" y2="182.64481" gradientUnits="userSpaceOnUse" id="color-15"><stop offset="0" stop-color="#2e804c"/><stop offset="1" stop-color="#72802e"/></linearGradient><linearGradient x1="404.91967" y1="168.67679" x2="436.41967" y2="168.67679" gradientUnits="userSpaceOnUse" id="color-16"><stop offset="0" stop-color="#2e804c"/><stop offset="1" stop-color="#72802e"/></linearGradient><linearGradient x1="107.03153" y1="203.56783" x2="193.03153" y2="203.56783" gradientUnits="userSpaceOnUse" id="color-17"><stop offset="0" stop-color="#2e804c"/><stop offset="1" stop-color="#72802e"/></linearGradient><linearGradient x1="114.53153" y1="184.31783" x2="185.53153" y2="184.31783" gradientUnits="userSpaceOnUse" id="color-18"><stop offset="0" stop-color="#2e804c"/><stop offset="1" stop-color="#72802e"/></linearGradient><linearGradient x1="125.53153" y1="168.42539" x2="174.53153" y2="168.42539" gradientUnits="userSpaceOnUse" id="color-19"><stop offset="0" stop-color="#2e804c"/><stop offset="1" stop-color="#72802e"/></linearGradient><linearGradient x1="134.28153" y1="154.45736" x2="165.78153" y2="154.45736" gradientUnits="userSpaceOnUse" id="color-20"><stop offset="0" stop-color="#2e804c"/><stop offset="1" stop-color="#72802e"/></linearGradient><linearGradient x1="164.46696" y1="228.98802" x2="250.46697" y2="228.98802" gradientUnits="userSpaceOnUse" id="color-21"><stop offset="0" stop-color="#2e804c"/><stop offset="1" stop-color="#72802e"/></linearGradient><linearGradient x1="171.96697" y1="209.73802" x2="242.96697" y2="209.73802" gradientUnits="userSpaceOnUse" id="color-22"><stop offset="0" stop-color="#2e804c"/><stop offset="1" stop-color="#72802e"/></linearGradient><linearGradient x1="182.96697" y1="193.84558" x2="231.96697" y2="193.84558" gradientUnits="userSpaceOnUse" id="color-23"><stop offset="0" stop-color="#2e804c"/><stop offset="1" stop-color="#72802e"/></linearGradient><linearGradient x1="191.71697" y1="179.87755" x2="223.21697" y2="179.87755" gradientUnits="userSpaceOnUse" id="color-24"><stop offset="0" stop-color="#2e804c"/><stop offset="1" stop-color="#72802e"/></linearGradient><linearGradient x1="120.96697" y1="238.7215" x2="206.96697" y2="238.7215" gradientUnits="userSpaceOnUse" id="color-25"><stop offset="0" stop-color="#2e804c"/><stop offset="1" stop-color="#72802e"/></linearGradient><linearGradient x1="128.46696" y1="219.4715" x2="199.46697" y2="219.4715" gradientUnits="userSpaceOnUse" id="color-26"><stop offset="0" stop-color="#2e804c"/><stop offset="1" stop-color="#72802e"/></linearGradient><linearGradient x1="139.46696" y1="203.57906" x2="188.46697" y2="203.57906" gradientUnits="userSpaceOnUse" id="color-27"><stop offset="0" stop-color="#2e804c"/><stop offset="1" stop-color="#72802e"/></linearGradient><linearGradient x1="148.21696" y1="189.61103" x2="179.71697" y2="189.61103" gradientUnits="userSpaceOnUse" id="color-28"><stop offset="0" stop-color="#2e804c"/><stop offset="1" stop-color="#72802e"/></linearGradient><linearGradient x1="260.60661" y1="247.83486" x2="346.60661" y2="247.83486" gradientUnits="userSpaceOnUse" id="color-29"><stop offset="0" stop-color="#2e804c"/><stop offset="1" stop-color="#72802e"/></linearGradient><linearGradient x1="268.10661" y1="228.58486" x2="339.10661" y2="228.58486" gradientUnits="userSpaceOnUse" id="color-30"><stop offset="0" stop-color="#2e804c"/><stop offset="1" stop-color="#72802e"/></linearGradient><linearGradient x1="279.10661" y1="212.69243" x2="328.10661" y2="212.69243" gradientUnits="userSpaceOnUse" id="color-31"><stop offset="0" stop-color="#2e804c"/><stop offset="1" stop-color="#72802e"/></linearGradient><linearGradient x1="287.85661" y1="198.72441" x2="319.35661" y2="198.72441" gradientUnits="userSpaceOnUse" id="color-32"><stop offset="0" stop-color="#2e804c"/><stop offset="1" stop-color="#72802e"/></linearGradient><linearGradient x1="317.63514" y1="226.00003" x2="403.63514" y2="226.00003" gradientUnits="userSpaceOnUse" id="color-33"><stop offset="0" stop-color="#2e804c"/><stop offset="1" stop-color="#72802e"/></linearGradient><linearGradient x1="325.13514" y1="206.75003" x2="396.13514" y2="206.75003" gradientUnits="userSpaceOnUse" id="color-34"><stop offset="0" stop-color="#2e804c"/><stop offset="1" stop-color="#72802e"/></linearGradient><linearGradient x1="336.13514" y1="190.85759" x2="385.13514" y2="190.85759" gradientUnits="userSpaceOnUse" id="color-35"><stop offset="0" stop-color="#2e804c"/><stop offset="1" stop-color="#72802e"/></linearGradient><linearGradient x1="344.88514" y1="176.88956" x2="376.38514" y2="176.88956" gradientUnits="userSpaceOnUse" id="color-36"><stop offset="0" stop-color="#2e804c"/><stop offset="1" stop-color="#72802e"/></linearGradient><linearGradient x1="274.13514" y1="235.7335" x2="360.13514" y2="235.7335" gradientUnits="userSpaceOnUse" id="color-37"><stop offset="0" stop-color="#2e804c"/><stop offset="1" stop-color="#72802e"/></linearGradient><linearGradient x1="281.63514" y1="216.4835" x2="352.63514" y2="216.4835" gradientUnits="userSpaceOnUse" id="color-38"><stop offset="0" stop-color="#2e804c"/><stop offset="1" stop-color="#72802e"/></linearGradient><linearGradient x1="292.63514" y1="200.59107" x2="341.63514" y2="200.59107" gradientUnits="userSpaceOnUse" id="color-39"><stop offset="0" stop-color="#2e804c"/><stop offset="1" stop-color="#72802e"/></linearGradient><linearGradient x1="301.38514" y1="186.62304" x2="332.88514" y2="186.62304" gradientUnits="userSpaceOnUse" id="color-40"><stop offset="0" stop-color="#2e804c"/><stop offset="1" stop-color="#72802e"/></linearGradient><linearGradient x1="413.77478" y1="244.84688" x2="499.77478" y2="244.84688" gradientUnits="userSpaceOnUse" id="color-41"><stop offset="0" stop-color="#2e804c"/><stop offset="1" stop-color="#72802e"/></linearGradient><linearGradient x1="421.27478" y1="225.59688" x2="492.27478" y2="225.59688" gradientUnits="userSpaceOnUse" id="color-42"><stop offset="0" stop-color="#2e804c"/><stop offset="1" stop-color="#72802e"/></linearGradient><linearGradient x1="432.27478" y1="209.70444" x2="481.27478" y2="209.70444" gradientUnits="userSpaceOnUse" id="color-43"><stop offset="0" stop-color="#2e804c"/><stop offset="1" stop-color="#72802e"/></linearGradient><linearGradient x1="441.02478" y1="195.73642" x2="472.52478" y2="195.73642" gradientUnits="userSpaceOnUse" id="color-44"><stop offset="0" stop-color="#2e804c"/><stop offset="1" stop-color="#72802e"/></linearGradient><linearGradient x1="197.13664" y1="235.11437" x2="283.13664" y2="235.11437" gradientUnits="userSpaceOnUse" id="color-45"><stop offset="0" stop-color="#2e804c"/><stop offset="1" stop-color="#72802e"/></linearGradient><linearGradient x1="204.63664" y1="215.86437" x2="275.63664" y2="215.86437" gradientUnits="userSpaceOnUse" id="color-46"><stop offset="0" stop-color="#2e804c"/><stop offset="1" stop-color="#72802e"/></linearGradient><linearGradient x1="215.63664" y1="199.97193" x2="264.63664" y2="199.97193" gradientUnits="userSpaceOnUse" id="color-47"><stop offset="0" stop-color="#2e804c"/><stop offset="1" stop-color="#72802e"/></linearGradient><linearGradient x1="224.38664" y1="186.0039" x2="255.88664" y2="186.0039" gradientUnits="userSpaceOnUse" id="color-48"><stop offset="0" stop-color="#2e804c"/><stop offset="1" stop-color="#72802e"/></linearGradient><linearGradient x1="314.60661" y1="252.32179" x2="400.60661" y2="252.32179" gradientUnits="userSpaceOnUse" id="color-49"><stop offset="0" stop-color="#2e804c"/><stop offset="1" stop-color="#72802e"/></linearGradient><linearGradient x1="322.10661" y1="233.07179" x2="393.10661" y2="233.07179" gradientUnits="userSpaceOnUse" id="color-50"><stop offset="0" stop-color="#2e804c"/><stop offset="1" stop-color="#72802e"/></linearGradient><linearGradient x1="333.10661" y1="217.17935" x2="382.10661" y2="217.17935" gradientUnits="userSpaceOnUse" id="color-51"><stop offset="0" stop-color="#2e804c"/><stop offset="1" stop-color="#72802e"/></linearGradient><linearGradient x1="341.85661" y1="203.21132" x2="373.35661" y2="203.21132" gradientUnits="userSpaceOnUse" id="color-52"><stop offset="0" stop-color="#2e804c"/><stop offset="1" stop-color="#72802e"/></linearGradient><linearGradient x1="43.96847" y1="238.10236" x2="129.96847" y2="238.10236" gradientUnits="userSpaceOnUse" id="color-53"><stop offset="0" stop-color="#2e804c"/><stop offset="1" stop-color="#72802e"/></linearGradient><linearGradient x1="51.46847" y1="218.85236" x2="122.46847" y2="218.85236" gradientUnits="userSpaceOnUse" id="color-54"><stop offset="0" stop-color="#2e804c"/><stop offset="1" stop-color="#72802e"/></linearGradient><linearGradient x1="62.46847" y1="202.95992" x2="111.46847" y2="202.95992" gradientUnits="userSpaceOnUse" id="color-55"><stop offset="0" stop-color="#2e804c"/><stop offset="1" stop-color="#72802e"/></linearGradient><linearGradient x1="71.21846" y1="188.9919" x2="102.71847" y2="188.9919" gradientUnits="userSpaceOnUse" id="color-56"><stop offset="0" stop-color="#2e804c"/><stop offset="1" stop-color="#72802e"/></linearGradient><linearGradient x1="197.5" y1="263.52254" x2="283.5" y2="263.52254" gradientUnits="userSpaceOnUse" id="color-57"><stop offset="0" stop-color="#2e804c"/><stop offset="1" stop-color="#72802e"/></linearGradient><linearGradient x1="205" y1="244.27254" x2="276" y2="244.27254" gradientUnits="userSpaceOnUse" id="color-58"><stop offset="0" stop-color="#2e804c"/><stop offset="1" stop-color="#72802e"/></linearGradient><linearGradient x1="216" y1="228.38011" x2="265" y2="228.38011" gradientUnits="userSpaceOnUse" id="color-59"><stop offset="0" stop-color="#2e804c"/><stop offset="1" stop-color="#72802e"/></linearGradient><linearGradient x1="224.75" y1="214.41209" x2="256.25" y2="214.41209" gradientUnits="userSpaceOnUse" id="color-60"><stop offset="0" stop-color="#2e804c"/><stop offset="1" stop-color="#72802e"/></linearGradient><linearGradient x1="154" y1="273.25602" x2="240" y2="273.25602" gradientUnits="userSpaceOnUse" id="color-61"><stop offset="0" stop-color="#2e804c"/><stop offset="1" stop-color="#72802e"/></linearGradient><linearGradient x1="161.5" y1="254.00603" x2="232.5" y2="254.00603" gradientUnits="userSpaceOnUse" id="color-62"><stop offset="0" stop-color="#2e804c"/><stop offset="1" stop-color="#72802e"/></linearGradient><linearGradient x1="172.5" y1="238.11359" x2="221.5" y2="238.11359" gradientUnits="userSpaceOnUse" id="color-63"><stop offset="0" stop-color="#2e804c"/><stop offset="1" stop-color="#72802e"/></linearGradient><linearGradient x1="181.25" y1="224.14556" x2="212.75" y2="224.14556" gradientUnits="userSpaceOnUse" id="color-64"><stop offset="0" stop-color="#2e804c"/><stop offset="1" stop-color="#72802e"/></linearGradient><linearGradient x1="293.63964" y1="282.3694" x2="379.63964" y2="282.3694" gradientUnits="userSpaceOnUse" id="color-65"><stop offset="0" stop-color="#2e804c"/><stop offset="1" stop-color="#72802e"/></linearGradient><linearGradient x1="301.13964" y1="263.1194" x2="372.13964" y2="263.1194" gradientUnits="userSpaceOnUse" id="color-66"><stop offset="0" stop-color="#2e804c"/><stop offset="1" stop-color="#72802e"/></linearGradient><linearGradient x1="312.13964" y1="247.22697" x2="361.13964" y2="247.22697" gradientUnits="userSpaceOnUse" id="color-67"><stop offset="0" stop-color="#2e804c"/><stop offset="1" stop-color="#72802e"/></linearGradient><linearGradient x1="320.88964" y1="233.25894" x2="352.38964" y2="233.25894" gradientUnits="userSpaceOnUse" id="color-68"><stop offset="0" stop-color="#2e804c"/><stop offset="1" stop-color="#72802e"/></linearGradient><linearGradient x1="347.63964" y1="286.85632" x2="433.63964" y2="286.85632" gradientUnits="userSpaceOnUse" id="color-69"><stop offset="0" stop-color="#2e804c"/><stop offset="1" stop-color="#72802e"/></linearGradient><linearGradient x1="355.13964" y1="267.60632" x2="426.13964" y2="267.60632" gradientUnits="userSpaceOnUse" id="color-70"><stop offset="0" stop-color="#2e804c"/><stop offset="1" stop-color="#72802e"/></linearGradient><linearGradient x1="366.13964" y1="251.71387" x2="415.13964" y2="251.71387" gradientUnits="userSpaceOnUse" id="color-71"><stop offset="0" stop-color="#2e804c"/><stop offset="1" stop-color="#72802e"/></linearGradient><linearGradient x1="374.88964" y1="237.74586" x2="406.38964" y2="237.74586" gradientUnits="userSpaceOnUse" id="color-72"><stop offset="0" stop-color="#2e804c"/><stop offset="1" stop-color="#72802e"/></linearGradient><linearGradient x1="77.0015" y1="272.63687" x2="163.0015" y2="272.63687" gradientUnits="userSpaceOnUse" id="color-73"><stop offset="0" stop-color="#2e804c"/><stop offset="1" stop-color="#72802e"/></linearGradient><linearGradient x1="84.5015" y1="253.3869" x2="155.5015" y2="253.3869" gradientUnits="userSpaceOnUse" id="color-74"><stop offset="0" stop-color="#2e804c"/><stop offset="1" stop-color="#72802e"/></linearGradient><linearGradient x1="95.5015" y1="237.49446" x2="144.5015" y2="237.49446" gradientUnits="userSpaceOnUse" id="color-75"><stop offset="0" stop-color="#2e804c"/><stop offset="1" stop-color="#72802e"/></linearGradient><linearGradient x1="104.2515" y1="223.52643" x2="135.7515" y2="223.52643" gradientUnits="userSpaceOnUse" id="color-76"><stop offset="0" stop-color="#2e804c"/><stop offset="1" stop-color="#72802e"/></linearGradient><linearGradient x1="332.63514" y1="263.52254" x2="418.63514" y2="263.52254" gradientUnits="userSpaceOnUse" id="color-77"><stop offset="0" stop-color="#2e804c"/><stop offset="1" stop-color="#72802e"/></linearGradient><linearGradient x1="340.13514" y1="244.27254" x2="411.13514" y2="244.27254" gradientUnits="userSpaceOnUse" id="color-78"><stop offset="0" stop-color="#2e804c"/><stop offset="1" stop-color="#72802e"/></linearGradient><linearGradient x1="351.13514" y1="228.38011" x2="400.13514" y2="228.38011" gradientUnits="userSpaceOnUse" id="color-79"><stop offset="0" stop-color="#2e804c"/><stop offset="1" stop-color="#72802e"/></linearGradient><linearGradient x1="359.88514" y1="214.41209" x2="391.38514" y2="214.41209" gradientUnits="userSpaceOnUse" id="color-80"><stop offset="0" stop-color="#2e804c"/><stop offset="1" stop-color="#72802e"/></linearGradient><linearGradient x1="289.13514" y1="273.25602" x2="375.13514" y2="273.25602" gradientUnits="userSpaceOnUse" id="color-81"><stop offset="0" stop-color="#2e804c"/><stop offset="1" stop-color="#72802e"/></linearGradient><linearGradient x1="296.63514" y1="254.00603" x2="367.63514" y2="254.00603" gradientUnits="userSpaceOnUse" id="color-82"><stop offset="0" stop-color="#2e804c"/><stop offset="1" stop-color="#72802e"/></linearGradient><linearGradient x1="307.63514" y1="238.11359" x2="356.63514" y2="238.11359" gradientUnits="userSpaceOnUse" id="color-83"><stop offset="0" stop-color="#2e804c"/><stop offset="1" stop-color="#72802e"/></linearGradient><linearGradient x1="316.38514" y1="224.14556" x2="347.88514" y2="224.14556" gradientUnits="userSpaceOnUse" id="color-84"><stop offset="0" stop-color="#2e804c"/><stop offset="1" stop-color="#72802e"/></linearGradient><linearGradient x1="428.77478" y1="282.3694" x2="514.77478" y2="282.3694" gradientUnits="userSpaceOnUse" id="color-85"><stop offset="0" stop-color="#2e804c"/><stop offset="1" stop-color="#72802e"/></linearGradient><linearGradient x1="436.27478" y1="263.1194" x2="507.27478" y2="263.1194" gradientUnits="userSpaceOnUse" id="color-86"><stop offset="0" stop-color="#2e804c"/><stop offset="1" stop-color="#72802e"/></linearGradient><linearGradient x1="447.27478" y1="247.22697" x2="496.27478" y2="247.22697" gradientUnits="userSpaceOnUse" id="color-87"><stop offset="0" stop-color="#2e804c"/><stop offset="1" stop-color="#72802e"/></linearGradient><linearGradient x1="456.02478" y1="233.25894" x2="487.52478" y2="233.25894" gradientUnits="userSpaceOnUse" id="color-88"><stop offset="0" stop-color="#2e804c"/><stop offset="1" stop-color="#72802e"/></linearGradient><linearGradient x1="490.27478" y1="267.60632" x2="561.27478" y2="267.60632" gradientUnits="userSpaceOnUse" id="color-89"><stop offset="0" stop-color="#2e804c"/><stop offset="1" stop-color="#72802e"/></linearGradient><linearGradient x1="212.13664" y1="272.63687" x2="298.13664" y2="272.63687" gradientUnits="userSpaceOnUse" id="color-90"><stop offset="0" stop-color="#2e804c"/><stop offset="1" stop-color="#72802e"/></linearGradient><linearGradient x1="219.63664" y1="253.3869" x2="290.63664" y2="253.3869" gradientUnits="userSpaceOnUse" id="color-91"><stop offset="0" stop-color="#2e804c"/><stop offset="1" stop-color="#72802e"/></linearGradient><linearGradient x1="230.63664" y1="237.49446" x2="279.63664" y2="237.49446" gradientUnits="userSpaceOnUse" id="color-92"><stop offset="0" stop-color="#2e804c"/><stop offset="1" stop-color="#72802e"/></linearGradient><linearGradient x1="239.38664" y1="223.52643" x2="270.88664" y2="223.52643" gradientUnits="userSpaceOnUse" id="color-93"><stop offset="0" stop-color="#2e804c"/><stop offset="1" stop-color="#72802e"/></linearGradient></defs><g transform="translate(631.49701,82.13348)"><g data-paper-data="{&quot;isPaintingLayer&quot;:true}" fill-rule="nonzero" stroke-width="0" stroke-linecap="butt" stroke-linejoin="miter" stroke-miterlimit="10" stroke-dasharray="" stroke-dashoffset="0" style="mix-blend-mode: normal"><path d="M-41.01576,288.28835v-304.11741h520.59159v304.11742z" fill="#438793" stroke="#000000"/><path d="M260.53003,250.20348v-52.5h21v52.5z" data-paper-data="{&quot;index&quot;:null}" fill="#6b503b" stroke="#000000"/><path d="M227.53003,213.70348l31.5,-38.5l26,3l28.5,33.5z" data-paper-data="{&quot;index&quot;:null}" fill="url(#color-1)" stroke="#000000"/><path d="M235.03003,191.09593l26.00581,-31.78488l21.46512,2.47674l23.52907,27.65697z" data-paper-data="{&quot;index&quot;:null}" fill="url(#color-2)" stroke="#000000"/><path d="M246.03003,170.27907l17.94768,-21.93604l14.81395,1.70929l16.23837,19.08721z" data-paper-data="{&quot;index&quot;:null}" fill="url(#color-3)" stroke="#000000"/><path d="M254.78003,154.45639l15.76163,-18.22674l15.73837,17.58721z" data-paper-data="{&quot;index&quot;:null}" fill="url(#color-4)" stroke="#000000"/><path d="M-8.34834,351.02103v-88.58859c0,0 197.1972,-18.01801 295.7958,-18.01801c43.73165,0 191.63076,10.68263 191.63076,10.68263l0.8097,95.92397z" fill="#4eb04c" stroke="#000000"/><path d="M217.03003,259.93694v-52.5h21v52.5z" data-paper-data="{&quot;index&quot;:null}" fill="#6b503b" stroke="#000000"/><path d="M184.03003,223.43696l31.5,-38.5l26,3l28.5,33.5z" data-paper-data="{&quot;index&quot;:null}" fill="url(#color-5)" stroke="#000000"/><path d="M191.53003,200.82941l26.00581,-31.78489l21.46511,2.47674l23.52907,27.65698z" data-paper-data="{&quot;index&quot;:null}" fill="url(#color-6)" stroke="#000000"/><path d="M202.53003,180.01255l17.94767,-21.93604l14.81396,1.70929l16.23837,19.08721z" data-paper-data="{&quot;index&quot;:null}" fill="url(#color-7)" stroke="#000000"/><path d="M211.28003,164.18987l15.76163,-18.22674l15.73837,17.58721z" data-paper-data="{&quot;index&quot;:null}" fill="url(#color-8)" stroke="#000000"/><path d="M356.66967,269.05033v-52.5h21v52.5z" data-paper-data="{&quot;index&quot;:null}" fill="#6b503b" stroke="#000000"/><path d="M323.66967,232.55034l31.5,-38.5l26,3l28.5,33.5z" data-paper-data="{&quot;index&quot;:null}" fill="url(#color-9)" stroke="#000000"/><path d="M331.16967,209.94278l26.00581,-31.78489l21.46512,2.47675l23.52907,27.65697z" data-paper-data="{&quot;index&quot;:null}" fill="url(#color-10)" stroke="#000000"/><path d="M342.16967,189.12592l17.94768,-21.93604l14.81396,1.70929l16.23837,19.08721z" data-paper-data="{&quot;index&quot;:null}" fill="url(#color-11)" stroke="#000000"/><path d="M350.91967,173.30325l15.76163,-18.22674l15.73837,17.58721z" data-paper-data="{&quot;index&quot;:null}" fill="url(#color-12)" stroke="#000000"/><path d="M410.66967,273.53725v-52.5h21v52.5z" data-paper-data="{&quot;index&quot;:null}" fill="#6b503b" stroke="#000000"/><path d="M377.66967,237.03725l31.5,-38.5l26,3l28.5,33.5z" data-paper-data="{&quot;index&quot;:null}" fill="url(#color-13)" stroke="#000000"/><path d="M385.16967,214.42969l26.00581,-31.78489l21.46512,2.47674l23.52907,27.65698z" data-paper-data="{&quot;index&quot;:null}" fill="url(#color-14)" stroke="#000000"/><path d="M396.16967,193.61284l17.94768,-21.93604l14.81396,1.70929l16.23837,19.08721z" data-paper-data="{&quot;index&quot;:null}" fill="url(#color-15)" stroke="#000000"/><path d="M404.91967,177.79016l15.76163,-18.22674l15.73837,17.58721z" data-paper-data="{&quot;index&quot;:null}" fill="url(#color-16)" stroke="#000000"/><path d="M140.03153,259.31783v-52.5h21v52.5z" data-paper-data="{&quot;index&quot;:null}" fill="#6b503b" stroke="#000000"/><path d="M107.03153,222.81783l31.5,-38.5l26,3l28.5,33.5z" data-paper-data="{&quot;index&quot;:null}" fill="url(#color-17)" stroke="#000000"/><path d="M114.53153,200.21027l26.00581,-31.78489l21.46512,2.47674l23.52907,27.65698z" data-paper-data="{&quot;index&quot;:null}" fill="url(#color-18)" stroke="#000000"/><path d="M125.53153,179.39341l17.94768,-21.93604l14.81395,1.70929l16.23837,19.08721z" data-paper-data="{&quot;index&quot;:null}" fill="url(#color-19)" stroke="#000000"/><path d="M134.28153,163.57074l15.76163,-18.22674l15.73837,17.58721z" data-paper-data="{&quot;index&quot;:null}" fill="url(#color-20)" stroke="#000000"/><path d="M197.46697,284.73801v-52.5h21v52.5z" data-paper-data="{&quot;index&quot;:null}" fill="#6b503b" stroke="#000000"/><path d="M164.46696,248.23802l31.5,-38.5l26,3l28.5,33.5z" data-paper-data="{&quot;index&quot;:null}" fill="url(#color-21)" stroke="#000000"/><path d="M171.96697,225.63046l26.00582,-31.78489l21.46511,2.47675l23.52907,27.65697z" data-paper-data="{&quot;index&quot;:null}" fill="url(#color-22)" stroke="#000000"/><path d="M182.96697,204.8136l17.94768,-21.93604l14.81396,1.70929l16.23837,19.08721z" data-paper-data="{&quot;index&quot;:null}" fill="url(#color-23)" stroke="#000000"/><path d="M191.71697,188.99093l15.76163,-18.22674l15.73837,17.58721z" data-paper-data="{&quot;index&quot;:null}" fill="url(#color-24)" stroke="#000000"/><path d="M-71.4114,385.55557v-88.58859c0,0 197.1972,-18.01801 295.7958,-18.01801c98.5986,0 256.7958,18.01801 256.7958,18.01801v88.58859z" fill="#3e8a3d" stroke="#000000"/><path d="M153.96696,294.47148v-52.5h21v52.5z" data-paper-data="{&quot;index&quot;:null}" fill="#6b503b" stroke="#000000"/><path d="M120.96697,257.97148l31.5,-38.5l26,3l28.5,33.5z" data-paper-data="{&quot;index&quot;:null}" fill="url(#color-25)" stroke="#000000"/><path d="M128.46696,235.36394l26.00582,-31.78489l21.46511,2.47674l23.52907,27.65697z" data-paper-data="{&quot;index&quot;:null}" fill="url(#color-26)" stroke="#000000"/><path d="M139.46696,214.54708l17.94768,-21.93604l14.81396,1.70929l16.23837,19.08721z" data-paper-data="{&quot;index&quot;:null}" fill="url(#color-27)" stroke="#000000"/><path d="M148.21696,198.72441l15.76163,-18.22675l15.73837,17.58721z" data-paper-data="{&quot;index&quot;:null}" fill="url(#color-28)" stroke="#000000"/><path d="M293.60661,303.58486v-52.5h21v52.5z" data-paper-data="{&quot;index&quot;:null}" fill="#6b503b" stroke="#000000"/><path d="M260.60661,267.08486l31.5,-38.5l26,3l28.5,33.5z" data-paper-data="{&quot;index&quot;:null}" fill="url(#color-29)" stroke="#000000"/><path d="M268.10661,244.47732l26.00581,-31.78489l21.46512,2.47674l23.52907,27.65698z" data-paper-data="{&quot;index&quot;:null}" fill="url(#color-30)" stroke="#000000"/><path d="M279.10661,223.66046l17.94768,-21.93604l14.81396,1.7093l16.23837,19.08721z" data-paper-data="{&quot;index&quot;:null}" fill="url(#color-31)" stroke="#000000"/><path d="M287.85661,207.83778l15.76163,-18.22674l15.73837,17.58721z" data-paper-data="{&quot;index&quot;:null}" fill="url(#color-32)" stroke="#000000"/><path d="M350.63514,281.75003v-52.5h21v52.5z" data-paper-data="{&quot;index&quot;:null}" fill="#6b503b" stroke="#000000"/><path d="M317.63514,245.25003l31.5,-38.5l26,3l28.5,33.5z" data-paper-data="{&quot;index&quot;:null}" fill="url(#color-33)" stroke="#000000"/><path d="M325.13514,222.64247l26.00581,-31.78489l21.46512,2.47674l23.52907,27.65698z" data-paper-data="{&quot;index&quot;:null}" fill="url(#color-34)" stroke="#000000"/><path d="M336.13514,201.82561l17.94768,-21.93604l14.81396,1.70929l16.23837,19.08721z" data-paper-data="{&quot;index&quot;:null}" fill="url(#color-35)" stroke="#000000"/><path d="M344.88514,186.00294l15.76163,-18.22674l15.73837,17.58721z" data-paper-data="{&quot;index&quot;:null}" fill="url(#color-36)" stroke="#000000"/><path d="M307.13514,291.48349v-52.5h21v52.5z" data-paper-data="{&quot;index&quot;:null}" fill="#6b503b" stroke="#000000"/><path d="M274.13514,254.9835l31.5,-38.5l26,3l28.5,33.5z" data-paper-data="{&quot;index&quot;:null}" fill="url(#color-37)" stroke="#000000"/><path d="M281.63514,232.37595l26.00581,-31.78489l21.46512,2.47674l23.52907,27.65697z" data-paper-data="{&quot;index&quot;:null}" fill="url(#color-38)" stroke="#000000"/><path d="M292.63514,211.55909l17.94768,-21.93604l14.81396,1.70929l16.23837,19.08721z" data-paper-data="{&quot;index&quot;:null}" fill="url(#color-39)" stroke="#000000"/><path d="M301.38514,195.73642l15.76163,-18.22674l15.73837,17.58721z" data-paper-data="{&quot;index&quot;:null}" fill="url(#color-40)" stroke="#000000"/><path d="M446.77478,300.59687v-52.5h21v52.5z" data-paper-data="{&quot;index&quot;:null}" fill="#6b503b" stroke="#000000"/><path d="M413.77478,264.09687l31.5,-38.5l26,3l28.5,33.5z" data-paper-data="{&quot;index&quot;:null}" fill="url(#color-41)" stroke="#000000"/><path d="M421.27478,241.48933l26.00582,-31.78489l21.46511,2.47674l23.52907,27.65698z" data-paper-data="{&quot;index&quot;:null}" fill="url(#color-42)" stroke="#000000"/><path d="M432.27478,220.67247l17.94768,-21.93604l14.81396,1.70929l16.23837,19.08721z" data-paper-data="{&quot;index&quot;:null}" fill="url(#color-43)" stroke="#000000"/><path d="M441.02478,204.84979l15.76163,-18.22674l15.73837,17.58721z" data-paper-data="{&quot;index&quot;:null}" fill="url(#color-44)" stroke="#000000"/><path d="M230.13664,290.86436v-52.5h21v52.5z" data-paper-data="{&quot;index&quot;:null}" fill="#6b503b" stroke="#000000"/><path d="M197.13664,254.36437l31.5,-38.5l26,3l28.5,33.5z" data-paper-data="{&quot;index&quot;:null}" fill="url(#color-45)" stroke="#000000"/><path d="M204.63664,231.75682l26.00581,-31.78489l21.46512,2.47674l23.52907,27.65698z" data-paper-data="{&quot;index&quot;:null}" fill="url(#color-46)" stroke="#000000"/><path d="M215.63664,210.93996l17.94767,-21.93604l14.81395,1.70929l16.23837,19.08721z" data-paper-data="{&quot;index&quot;:null}" fill="url(#color-47)" stroke="#000000"/><path d="M224.38664,195.11728l15.76163,-18.22674l15.73837,17.58721z" data-paper-data="{&quot;index&quot;:null}" fill="url(#color-48)" stroke="#000000"/><path d="M347.60661,308.07179v-52.5h21v52.5z" data-paper-data="{&quot;index&quot;:null}" fill="#6b503b" stroke="#000000"/><path d="M314.60661,271.57179l31.5,-38.5l26,3l28.5,33.5z" data-paper-data="{&quot;index&quot;:null}" fill="url(#color-49)" stroke="#000000"/><path d="M322.10661,248.96423l26.00581,-31.78489l21.46512,2.47674l23.52907,27.65697z" data-paper-data="{&quot;index&quot;:null}" fill="url(#color-50)" stroke="#000000"/><path d="M333.10661,228.14736l17.94768,-21.93604l14.81396,1.70929l16.23837,19.08721z" data-paper-data="{&quot;index&quot;:null}" fill="url(#color-51)" stroke="#000000"/><path d="M341.85661,212.3247l15.76163,-18.22675l15.73837,17.58721z" data-paper-data="{&quot;index&quot;:null}" fill="url(#color-52)" stroke="#000000"/><path d="M76.96846,293.85236v-52.5h21v52.5z" data-paper-data="{&quot;index&quot;:null}" fill="#6b503b" stroke="#000000"/><path d="M43.96847,257.35236l31.5,-38.5l26,3l28.5,33.5z" data-paper-data="{&quot;index&quot;:null}" fill="url(#color-53)" stroke="#000000"/><path d="M51.46847,234.74481l26.00581,-31.78489l21.46512,2.47674l23.52907,27.65697z" data-paper-data="{&quot;index&quot;:null}" fill="url(#color-54)" stroke="#000000"/><path d="M62.46847,213.92795l17.94767,-21.93604l14.81396,1.70929l16.23837,19.08721z" data-paper-data="{&quot;index&quot;:null}" fill="url(#color-55)" stroke="#000000"/><path d="M71.21846,198.10526l15.76163,-18.22675l15.73837,17.58721z" data-paper-data="{&quot;index&quot;:null}" fill="url(#color-56)" stroke="#000000"/><path d="M230.5,319.27254v-52.5h21v52.5z" data-paper-data="{&quot;index&quot;:null}" fill="#6b503b" stroke="#000000"/><path d="M197.5,282.77254l31.5,-38.5l26,3l28.5,33.5z" data-paper-data="{&quot;index&quot;:null}" fill="url(#color-57)" stroke="#000000"/><path d="M205,260.165l26.00582,-31.78489l21.46511,2.47674l23.52907,27.65697z" data-paper-data="{&quot;index&quot;:null}" fill="url(#color-58)" stroke="#000000"/><path d="M216,239.34814l17.94768,-21.93604l14.81395,1.7093l16.23837,19.08721z" data-paper-data="{&quot;index&quot;:null}" fill="url(#color-59)" stroke="#000000"/><path d="M224.75,223.52546l15.76163,-18.22674l15.73837,17.58721z" data-paper-data="{&quot;index&quot;:null}" fill="url(#color-60)" stroke="#000000"/><path d="M-38.37837,420.09009v-88.58859c0,0 197.19719,-18.01801 295.7958,-18.01801c98.5986,0 223.8819,18.01801 223.8819,18.01801v88.58859z" fill="#366935" stroke="#000000"/><path d="M187,329.00602v-52.5h21v52.5z" data-paper-data="{&quot;index&quot;:null}" fill="#6b503b" stroke="#000000"/><path d="M154,292.50602l31.5,-38.5l26,3l28.5,33.5z" data-paper-data="{&quot;index&quot;:null}" fill="url(#color-61)" stroke="#000000"/><path d="M161.5,269.89848l26.00582,-31.78489l21.46511,2.47674l23.52907,27.65698z" data-paper-data="{&quot;index&quot;:null}" fill="url(#color-62)" stroke="#000000"/><path d="M172.5,249.08162l17.94768,-21.93604l14.81395,1.70929l16.23837,19.08721z" data-paper-data="{&quot;index&quot;:null}" fill="url(#color-63)" stroke="#000000"/><path d="M181.25,233.25894l15.76163,-18.22674l15.73837,17.58721z" data-paper-data="{&quot;index&quot;:null}" fill="url(#color-64)" stroke="#000000"/><path d="M326.63964,338.11941v-52.5h21v52.5z" data-paper-data="{&quot;index&quot;:null}" fill="#6b503b" stroke="#000000"/><path d="M293.63964,301.6194l31.5,-38.5l26,3l28.5,33.5z" data-paper-data="{&quot;index&quot;:null}" fill="url(#color-65)" stroke="#000000"/><path d="M301.13964,279.01185l26.00582,-31.78488l21.46511,2.47674l23.52907,27.65697z" data-paper-data="{&quot;index&quot;:null}" fill="url(#color-66)" stroke="#000000"/><path d="M312.13964,258.19499l17.94768,-21.93604l14.81396,1.70929l16.23837,19.08721z" data-paper-data="{&quot;index&quot;:null}" fill="url(#color-67)" stroke="#000000"/><path d="M320.88964,242.37232l15.76163,-18.22675l15.73837,17.58721z" data-paper-data="{&quot;index&quot;:null}" fill="url(#color-68)" stroke="#000000"/><path d="M380.63964,342.60632v-52.5h21v52.5z" data-paper-data="{&quot;index&quot;:null}" fill="#6b503b" stroke="#000000"/><path d="M347.63964,306.10632l31.5,-38.5l26,3l28.5,33.5z" data-paper-data="{&quot;index&quot;:null}" fill="url(#color-69)" stroke="#000000"/><path d="M355.13964,283.49877l26.00582,-31.78488l21.46511,2.47674l23.52907,27.65697z" data-paper-data="{&quot;index&quot;:null}" fill="url(#color-70)" stroke="#000000"/><path d="M366.13964,262.6819l17.94768,-21.93604l14.81396,1.70929l16.23837,19.08721z" data-paper-data="{&quot;index&quot;:null}" fill="url(#color-71)" stroke="#000000"/><path d="M374.88964,246.85922l15.76163,-18.22674l15.73837,17.58721z" data-paper-data="{&quot;index&quot;:null}" fill="url(#color-72)" stroke="#000000"/><path d="M110.0015,328.38687v-52.5h21v52.5z" data-paper-data="{&quot;index&quot;:null}" fill="#6b503b" stroke="#000000"/><path d="M77.0015,291.88687l31.5,-38.5l26,3l28.5,33.5z" data-paper-data="{&quot;index&quot;:null}" fill="url(#color-73)" stroke="#000000"/><path d="M84.5015,269.27933l26.00582,-31.78488l21.46511,2.47674l23.52907,27.65697z" data-paper-data="{&quot;index&quot;:null}" fill="url(#color-74)" stroke="#000000"/><path d="M95.5015,248.46248l17.94768,-21.93604l14.81395,1.70929l16.23837,19.08721z" data-paper-data="{&quot;index&quot;:null}" fill="url(#color-75)" stroke="#000000"/><path d="M104.2515,232.63981l15.76163,-18.22674l15.73837,17.58721z" data-paper-data="{&quot;index&quot;:null}" fill="url(#color-76)" stroke="#000000"/><path d="M-631.49701,441.89054v-524.02402h702.71548v524.02402z" fill="#000000" stroke="none"/><path d="M365.63514,319.27254v-52.5h21v52.5z" data-paper-data="{&quot;index&quot;:null}" fill="#6b503b" stroke="#000000"/><path d="M332.63514,282.77254l31.5,-38.5l26,3l28.5,33.5z" data-paper-data="{&quot;index&quot;:null}" fill="url(#color-77)" stroke="#000000"/><path d="M340.13514,260.165l26.00581,-31.78489l21.46512,2.47674l23.52907,27.65697z" data-paper-data="{&quot;index&quot;:null}" fill="url(#color-78)" stroke="#000000"/><path d="M351.13514,239.34814l17.94768,-21.93604l14.81396,1.7093l16.23837,19.08721z" data-paper-data="{&quot;index&quot;:null}" fill="url(#color-79)" stroke="#000000"/><path d="M359.88514,223.52546l15.76163,-18.22674l15.73837,17.58721z" data-paper-data="{&quot;index&quot;:null}" fill="url(#color-80)" stroke="#000000"/><path d="M96.75677,420.09009v-88.58859c0,0 197.1972,-18.01801 295.7958,-18.01801c19.3917,0 87.29499,2.10821 87.29499,2.10821l0.04036,104.49839z" fill="#366935" stroke="#000000"/><path d="M322.13514,329.00602v-52.5h21v52.5z" data-paper-data="{&quot;index&quot;:null}" fill="#6b503b" stroke="#000000"/><path d="M289.13514,292.50602l31.5,-38.5l26,3l28.5,33.5z" data-paper-data="{&quot;index&quot;:null}" fill="url(#color-81)" stroke="#000000"/><path d="M296.63514,269.89848l26.00581,-31.78489l21.46512,2.47674l23.52907,27.65698z" data-paper-data="{&quot;index&quot;:null}" fill="url(#color-82)" stroke="#000000"/><path d="M307.63514,249.08162l17.94768,-21.93604l14.81396,1.70929l16.23837,19.08721z" data-paper-data="{&quot;index&quot;:null}" fill="url(#color-83)" stroke="#000000"/><path d="M316.38514,233.25894l15.76163,-18.22674l15.73837,17.58721z" data-paper-data="{&quot;index&quot;:null}" fill="url(#color-84)" stroke="#000000"/><path d="M461.77478,338.11941v-52.5h21v52.5z" data-paper-data="{&quot;index&quot;:null}" fill="#6b503b" stroke="#000000"/><path d="M428.77478,301.6194l31.5,-38.5l26,3l28.5,33.5z" data-paper-data="{&quot;index&quot;:null}" fill="url(#color-85)" stroke="#000000"/><path d="M436.27478,279.01185l26.00582,-31.78488l21.46511,2.47674l23.52907,27.65697z" data-paper-data="{&quot;index&quot;:null}" fill="url(#color-86)" stroke="#000000"/><path d="M447.27478,258.19499l17.94768,-21.93604l14.81396,1.70929l16.23837,19.08721z" data-paper-data="{&quot;index&quot;:null}" fill="url(#color-87)" stroke="#000000"/><path d="M456.02478,242.37232l15.76163,-18.22675l15.73837,17.58721z" data-paper-data="{&quot;index&quot;:null}" fill="url(#color-88)" stroke="#000000"/><path d="" data-paper-data="{&quot;index&quot;:null}" fill="url(#color-89)" stroke="#000000"/><path d="M245.13664,328.38687v-52.5h21v52.5z" data-paper-data="{&quot;index&quot;:null}" fill="#6b503b" stroke="#000000"/><path d="M212.13664,291.88687l31.5,-38.5l26,3l28.5,33.5z" data-paper-data="{&quot;index&quot;:null}" fill="url(#color-90)" stroke="#000000"/><path d="M219.63664,269.27933l26.00581,-31.78488l21.46512,2.47674l23.52907,27.65697z" data-paper-data="{&quot;index&quot;:null}" fill="url(#color-91)" stroke="#000000"/><path d="M230.63664,248.46248l17.94767,-21.93604l14.81395,1.70929l16.23837,19.08721z" data-paper-data="{&quot;index&quot;:null}" fill="url(#color-92)" stroke="#000000"/><path d="M239.38664,232.63981l15.76163,-18.22674l15.73837,17.58721z" data-paper-data="{&quot;index&quot;:null}" fill="url(#color-93)" stroke="#000000"/></g></g></svg>