<svg version="1.1" xmlns="http://www.w3.org/2000/svg" xmlns:xlink="http://www.w3.org/1999/xlink" width="28.13189" height="21.26927" viewBox="0,0,28.13189,21.26927"><g transform="translate(-189.96983,-92.93445)"><g data-paper-data="{&quot;isPaintingLayer&quot;:true}" fill="#000000" fill-rule="nonzero" stroke="none" stroke-width="1" stroke-linecap="butt" stroke-linejoin="miter" stroke-miterlimit="10" stroke-dasharray="" stroke-dashoffset="0" style="mix-blend-mode: normal"><path d="M204.34547,97.01002l3.47001,2.14421l-3.81354,1.44891l-0.96714,3.96289l-2.55591,-3.17898l-4.06886,0.30416l2.23325,-3.41439l-1.54655,-3.77362l3.93677,1.06785l3.11208,-2.6366z"/><path d="M214.63171,97.05736l3.47001,2.14421l-3.81354,1.44891l-0.96714,3.96289l-2.55591,-3.17898l-4.06886,0.30416l2.23325,-3.41439l-1.54655,-3.77362l3.93677,1.06785l3.11208,-2.6366z"/><path d="M197.90527,106.64771l3.47001,2.14421l-3.81354,1.44891l-0.96714,3.96289l-2.55591,-3.17898l-4.06886,0.30416l2.23325,-3.41439l-1.54655,-3.77362l3.93677,1.06785l3.11208,-2.6366z"/></g></g></svg>