<svg version="1.1" xmlns="http://www.w3.org/2000/svg" xmlns:xlink="http://www.w3.org/1999/xlink" width="506.5" height="381.15" viewBox="0,0,506.5,381.15"><g transform="translate(3.64997,0)"><g data-paper-data="{&quot;isPaintingLayer&quot;:true}" fill-rule="nonzero" stroke-linecap="butt" stroke-linejoin="miter" stroke-miterlimit="10" stroke-dasharray="" stroke-dashoffset="0" style="mix-blend-mode: normal"><path d="M0.00003,360v-360h480v360z" fill="#62605b" stroke="#000000" stroke-width="0"/><text transform="translate(194.00005,80) scale(0.5,0.5)" font-size="40" xml:space="preserve" fill="#ffffff" fill-rule="nonzero" stroke="none" stroke-width="1" stroke-linecap="butt" stroke-linejoin="miter" stroke-miterlimit="10" stroke-dasharray="" stroke-dashoffset="0" font-family="Sans Serif" font-weight="normal" text-anchor="start" style="mix-blend-mode: normal"><tspan x="0" dy="0">你想找回过去的朋友</tspan></text><path d="M-3.39996,380.9v-70h506v70z" fill-opacity="0.96078" fill="#6e8366" stroke="#9ac38c" stroke-width="0.5"/><text transform="translate(234.00004,104) scale(0.5,0.5)" font-size="40" xml:space="preserve" fill="#ffffff" fill-rule="nonzero" stroke="none" stroke-width="1" stroke-linecap="butt" stroke-linejoin="miter" stroke-miterlimit="10" stroke-dasharray="" stroke-dashoffset="0" font-family="Sans Serif" font-weight="normal" text-anchor="start" style="mix-blend-mode: normal"><tspan x="0" dy="0">于是你进行了一场冒险</tspan></text><path d="M119.20006,315.34999v-35h15v35z" fill="#b98565" stroke="none" stroke-width="0"/><path d="M102.20006,286.84999l24,-35l25,35z" fill="#428b5a" stroke="none" stroke-width="0"/><path d="M105.27698,269.34999l20.98587,-30.6044l21.86028,30.6044z" fill="#529568" stroke="none" stroke-width="0"/><path d="M109.31545,254.0478l17.02983,-24.83516l17.73941,24.83516z" fill="#5aa171" stroke="none" stroke-width="0"/><path d="M151.20006,323.41866v-35h15v35z" fill="#b98565" stroke="none" stroke-width="0"/><path d="M134.20006,294.91866l24,-35l25,35z" fill="#428b5a" stroke="none" stroke-width="0"/><path d="M137.27698,277.41866l20.98587,-30.6044l21.86028,30.6044z" fill="#529568" stroke="none" stroke-width="0"/><path d="M141.31545,262.11647l17.02983,-24.83516l17.73941,24.83516z" fill="#5aa171" stroke="none" stroke-width="0"/><path d="M94.70006,329.91866v-35h15v35z" fill="#b98565" stroke="none" stroke-width="0"/><path d="M77.70006,301.41866l24,-35l25,35z" fill="#428b5a" stroke="none" stroke-width="0"/><path d="M80.77697,283.91866l20.98587,-30.6044l21.86028,30.6044z" fill="#529568" stroke="none" stroke-width="0"/><path d="M84.81545,268.61647l17.02983,-24.83516l17.73941,24.83516z" fill="#5aa171" stroke="none" stroke-width="0"/><path d="M208.00003,321.34999v-35h15v35z" fill="#b98565" stroke="none" stroke-width="0"/><path d="M191.00003,292.84999l24,-35l25,35z" fill="#428b5a" stroke="none" stroke-width="0"/><path d="M194.07695,275.34999l20.98587,-30.6044l21.86028,30.6044z" fill="#529568" stroke="none" stroke-width="0"/><path d="M198.11542,260.0478l17.02983,-24.83516l17.73941,24.83516z" fill="#5aa171" stroke="none" stroke-width="0"/><path d="M168.20006,337.98734v-35h15v35z" fill="#b98565" stroke="none" stroke-width="0"/><path d="M151.20006,309.48734l24,-35l25,35z" fill="#428b5a" stroke="none" stroke-width="0"/><path d="M154.27698,291.98734l20.98587,-30.6044l21.86028,30.6044z" fill="#529568" stroke="none" stroke-width="0"/><path d="M158.31545,276.68515l17.02983,-24.83516l17.73941,24.83516z" fill="#5aa171" stroke="none" stroke-width="0"/><path d="M232.50002,346.18514v-35h15v35z" fill="#b98565" stroke="none" stroke-width="0"/><path d="M215.50002,317.68514l24,-35l25,35z" fill="#428b5a" stroke="none" stroke-width="0"/><path d="M218.57694,300.18514l20.98587,-30.6044l21.86028,30.6044z" fill="#529568" stroke="none" stroke-width="0"/><path d="M222.61541,284.88295l17.02983,-24.83516l17.73941,24.83516z" fill="#5aa171" stroke="none" stroke-width="0"/><path d="M58.70006,338.91867v-35h15v35z" fill="#b98565" stroke="none" stroke-width="0"/><path d="M41.70006,310.41866l24,-35l25,35z" fill="#428b5a" stroke="none" stroke-width="0"/><path d="M44.77698,292.91866l20.98587,-30.6044l21.86028,30.6044z" fill="#529568" stroke="none" stroke-width="0"/><path d="M48.81545,277.61647l17.02983,-24.83516l17.73941,24.83516z" fill="#5aa171" stroke="none" stroke-width="0"/><path d="M112.08469,340.18515v-35h15v35z" fill="#b98565" stroke="none" stroke-width="0"/><path d="M95.08469,311.68515l24,-35l25,35z" fill="#428b5a" stroke="none" stroke-width="0"/><path d="M98.16161,294.18515l20.98587,-30.6044l21.86028,30.6044z" fill="#529568" stroke="none" stroke-width="0"/><path d="M102.20008,278.88296l17.02983,-24.83516l17.73941,24.83516z" fill="#5aa171" stroke="none" stroke-width="0"/><path d="M136.20006,358.41867v-35h15v35z" fill="#b98565" stroke="none" stroke-width="0"/><path d="M119.20006,329.91866l24,-35l25,35z" fill="#428b5a" stroke="none" stroke-width="0"/><path d="M122.27698,312.41866l20.98587,-30.6044l21.86028,30.6044z" fill="#529568" stroke="none" stroke-width="0"/><path d="M126.31545,297.11647l17.02983,-24.83516l17.73941,24.83516z" fill="#5aa171" stroke="none" stroke-width="0"/><path d="M26.70006,346.98734v-35h15v35z" fill="#b98565" stroke="none" stroke-width="0"/><path d="M9.70006,318.48734l24,-35l25,35z" fill="#428b5a" stroke="none" stroke-width="0"/><path d="M12.77698,300.98734l20.98587,-30.6044l21.86028,30.6044z" fill="#529568" stroke="none" stroke-width="0"/><path d="M16.81545,285.68515l17.02983,-24.83516l17.73941,24.83516z" fill="#5aa171" stroke="none" stroke-width="0"/><path d="M281.50002,317.68514v-35h15v35z" fill="#b98565" stroke="none" stroke-width="0"/><path d="M264.50002,289.18514l24,-35l25,35z" fill="#428b5a" stroke="none" stroke-width="0"/><path d="M267.57694,271.68514l20.98587,-30.6044l21.86028,30.6044z" fill="#529568" stroke="none" stroke-width="0"/><path d="M271.61541,256.38295l17.02983,-24.83516l17.73941,24.83516z" fill="#5aa171" stroke="none" stroke-width="0"/><path d="M306.00003,330.10272v-35h15v35z" fill="#b98565" stroke="none" stroke-width="0"/><path d="M289.00003,301.60272l24,-35l25,35z" fill="#428b5a" stroke="none" stroke-width="0"/><path d="M292.07695,284.10272l20.98587,-30.6044l21.86028,30.6044z" fill="#529568" stroke="none" stroke-width="0"/><path d="M296.11542,268.80053l17.02983,-24.83516l17.73941,24.83516z" fill="#5aa171" stroke="none" stroke-width="0"/><path d="M257.00003,352.74007v-35h15v35z" fill="#b98565" stroke="none" stroke-width="0"/><path d="M240.00003,324.24007l24,-35l25,35z" fill="#428b5a" stroke="none" stroke-width="0"/><path d="M243.07695,306.74007l20.98587,-30.6044l21.86028,30.6044z" fill="#529568" stroke="none" stroke-width="0"/><path d="M247.11542,291.43788l17.02983,-24.83516l17.73941,24.83516z" fill="#5aa171" stroke="none" stroke-width="0"/><path d="M338.00003,338.1714v-35h15v35z" fill="#b98565" stroke="none" stroke-width="0"/><path d="M321.00003,309.6714l24,-35l25,35z" fill="#428b5a" stroke="none" stroke-width="0"/><path d="M324.07695,292.1714l20.98587,-30.6044l21.86028,30.6044z" fill="#529568" stroke="none" stroke-width="0"/><path d="M328.11542,276.86921l17.02983,-24.83516l17.73941,24.83516z" fill="#5aa171" stroke="none" stroke-width="0"/><path d="M448.00003,322.34999v-35h15v35z" fill="#b98565" stroke="none" stroke-width="0"/><path d="M431.00003,293.84999l24,-35l25,35z" fill="#428b5a" stroke="none" stroke-width="0"/><path d="M434.07695,276.34999l20.98587,-30.6044l21.86028,30.6044z" fill="#529568" stroke="none" stroke-width="0"/><path d="M438.11542,261.0478l17.02983,-24.83516l17.73941,24.83516z" fill="#5aa171" stroke="none" stroke-width="0"/><path d="M416.00003,330.41866v-35h15v35z" fill="#b98565" stroke="none" stroke-width="0"/><path d="M399.00003,301.91866l24,-35l25,35z" fill="#428b5a" stroke="none" stroke-width="0"/><path d="M402.07695,284.41866l20.98587,-30.6044l21.86028,30.6044z" fill="#529568" stroke="none" stroke-width="0"/><path d="M406.11542,269.11647l17.02983,-24.83516l17.73941,24.83516z" fill="#5aa171" stroke="none" stroke-width="0"/><path d="M391.50004,342.83625v-35h15v35z" fill="#b98565" stroke="none" stroke-width="0"/><path d="M374.50004,314.33625l24,-35l25,35z" fill="#428b5a" stroke="none" stroke-width="0"/><path d="M377.57696,296.83625l20.98587,-30.6044l21.86028,30.6044z" fill="#529568" stroke="none" stroke-width="0"/><path d="M381.61543,281.53406l17.02983,-24.83516l17.73941,24.83516z" fill="#5aa171" stroke="none" stroke-width="0"/><path d="M362.50004,350.58898v-35h15v35z" fill="#b98565" stroke="none" stroke-width="0"/><path d="M345.50004,322.08898l24,-35l25,35z" fill="#428b5a" stroke="none" stroke-width="0"/><path d="M348.57696,304.58898l20.98587,-30.6044l21.86028,30.6044z" fill="#529568" stroke="none" stroke-width="0"/><path d="M352.61543,289.28679l17.02983,-24.83516l17.73941,24.83516z" fill="#5aa171" stroke="none" stroke-width="0"/></g></g></svg>