<svg version="1.1" xmlns="http://www.w3.org/2000/svg" xmlns:xlink="http://www.w3.org/1999/xlink" width="47.84474" height="43.71676" viewBox="0,0,47.84474,43.71676"><g transform="translate(-216.07764,-143.78384)"><g data-paper-data="{&quot;isPaintingLayer&quot;:true}" fill-rule="nonzero" stroke-linecap="butt" stroke-linejoin="miter" stroke-miterlimit="10" stroke-dasharray="" stroke-dashoffset="0" style="mix-blend-mode: normal"><path d="M227.39132,186.75061v-18.26087h25.21739v18.26087z" fill="#e6e1a5" stroke="#000000" stroke-width="1.5"/><path d="M217.46756,164.985c-1.41636,-4.28804 -0.55559,-7.80121 3.32551,-12.62215c3.8141,-4.73772 11.26271,-7.89616 20.05164,-7.82792c7.2462,0.05401 12.78979,2.91536 16.74921,6.48898c6.42769,5.80139 6.1223,11.03804 4.82309,14.07219c-8.19538,7.97158 -41.20382,6.54462 -44.94944,0z" fill="#ffd354" stroke="#000000" stroke-width="1.5"/><path d="M232.87144,175.79526c0,-0.82843 0.67157,-1.5 1.5,-1.5c0.82843,0 1.5,0.67157 1.5,1.5c0,0.82843 -0.67157,1.5 -1.5,1.5c-0.82843,0 -1.5,-0.67157 -1.5,-1.5z" fill="#000000" stroke="none" stroke-width="0.5"/><path d="M244.0143,175.6524c0,-0.82843 0.67157,-1.5 1.5,-1.5c0.82843,0 1.5,0.67157 1.5,1.5c0,0.82843 -0.67157,1.5 -1.5,1.5c-0.82843,0 -1.5,-0.67157 -1.5,-1.5z" fill="#000000" stroke="none" stroke-width="0.5"/></g></g></svg>