<svg version="1.1" xmlns="http://www.w3.org/2000/svg" xmlns:xlink="http://www.w3.org/1999/xlink" width="123.49319" height="188.49999" viewBox="0,0,123.49319,188.49999"><g transform="translate(-177.34941,-92.90871)"><g data-paper-data="{&quot;isPaintingLayer&quot;:true}" fill-rule="nonzero" stroke-linejoin="miter" stroke-miterlimit="10" stroke-dasharray="" stroke-dashoffset="0" style="mix-blend-mode: normal"><path d="M178.5926,272.44077c1.01465,-9.67169 0.58823,-104.05592 0.58823,-170.2805c0,-4.29918 -0.026,-8.00156 7.29873,-8.00156c7.85657,0 64.9764,0 106.18811,0c3.39124,0 6.92493,2.95801 6.92493,7.36899c0,66.70103 0,161.77655 0,171.50131c0,3.24158 -4.12193,7.12969 -7.51317,7.12969c-10.17372,0 -66.36891,0 -107.3424,0c-2.85708,0 -6.73267,-2.11082 -6.14444,-7.71793z" data-paper-data="{&quot;origPos&quot;:null}" fill="#83ff79" stroke="#000000" stroke-width="2.5" stroke-linecap="butt"/><path d="M289.93513,259.97043h-103.1295" data-paper-data="{&quot;origPos&quot;:null}" fill="none" stroke="#000000" stroke-width="2.5" stroke-linecap="round"/><text transform="translate(251.49082,274.39728) scale(0.32654,0.32654)" font-size="40" xml:space="preserve" data-paper-data="{&quot;origPos&quot;:null}" fill="#000000" fill-rule="nonzero" stroke="none" stroke-width="1" stroke-linecap="butt" stroke-linejoin="miter" stroke-miterlimit="10" stroke-dasharray="" stroke-dashoffset="0" font-family="&quot;Microsoft YaHei&quot;, &quot;微软雅黑&quot;, STXihei, &quot;华文细黑&quot;" font-weight="normal" text-anchor="start" style="mix-blend-mode: normal"><tspan x="0" dy="0">装备牌</tspan></text><path d="M196.06815,195.36901c0,-26.91863 0,-58.97048 0,-68.97563c0,-3.33505 5.95497,-8.54565 9.76646,-8.54565c11.43446,0 40.56826,0 66.53402,0c4.04971,0 10.37687,5.58279 10.37687,9.15606c0,25.96576 0,53.67025 0,66.53402c0,4.28793 -6.32716,10.98727 -10.37687,10.98727c0,0 -55.09956,0 -66.53402,0c-3.81149,0 -9.76646,-5.58279 -9.76646,-9.15606z" data-paper-data="{&quot;origPos&quot;:null}" fill="none" stroke="#000000" stroke-width="2.5" stroke-linecap="butt"/><text transform="translate(185.49628,274.0512) scale(0.2977,0.2977)" font-size="40" xml:space="preserve" fill="#000000" fill-rule="nonzero" stroke="none" stroke-width="1" stroke-linecap="butt" stroke-linejoin="miter" stroke-miterlimit="10" stroke-dasharray="" stroke-dashoffset="0" font-family="Pixel" font-weight="normal" text-anchor="start" style="mix-blend-mode: normal"><tspan x="0" dy="0">ARMOR</tspan></text><text transform="translate(204.05873,217.22711) scale(0.2134,0.2134)" font-size="40" xml:space="preserve" data-paper-data="{&quot;origPos&quot;:null}" fill="#000000" fill-rule="nonzero" stroke="none" stroke-width="1" stroke-linecap="butt" stroke-linejoin="miter" stroke-miterlimit="10" stroke-dasharray="" stroke-dashoffset="0" font-family="&quot;Microsoft YaHei&quot;, &quot;微软雅黑&quot;, STXihei, &quot;华文细黑&quot;" font-weight="normal" text-anchor="start" style="mix-blend-mode: normal"><tspan x="0" dy="0">• 每使用两张攻击牌</tspan><tspan x="0" dy="48px">  造成1点伤害</tspan></text><text transform="translate(254.44093,110.68249) scale(0.36591,0.36591)" font-size="40" xml:space="preserve" data-paper-data="{&quot;origPos&quot;:null}" fill="#000000" fill-rule="nonzero" stroke="#000000" stroke-width="0" stroke-linecap="butt" stroke-linejoin="miter" stroke-miterlimit="10" stroke-dasharray="" stroke-dashoffset="0" font-family="&quot;Microsoft YaHei&quot;, &quot;微软雅黑&quot;, STXihei, &quot;华文细黑&quot;" font-weight="normal" text-anchor="start" style="mix-blend-mode: normal"><tspan x="0" dy="0">短剑</tspan></text><path d="M195.45774,108.73441l7.25451,-8.58841l-0.96726,11.73203l-5.56959,-10.99877l10.27331,5.07036z" data-paper-data="{&quot;origPos&quot;:null}" fill="#ffffff" stroke="none" stroke-width="0" stroke-linecap="round"/><path d="M241.32234,176.50679c0,0 -8.9129,-10.58942 -13.15544,-18.29105c-4.24254,-7.70164 -4.33321,-13.45672 -4.33321,-13.45672l7.47724,6.56205l16.14262,19.67994z" data-paper-data="{&quot;origPos&quot;:null,&quot;origRot&quot;:0}" fill="none" stroke="#000000" stroke-width="2.5" stroke-linecap="butt"/><path d="M237.90712,179.83509l9.77778,-8.66667l11.47008,12.61111c0,0 0.67712,2.64494 -0.36653,2.73771c-2.85898,0.25413 -7.32578,0.65118 -7.32578,0.65118l-9.77778,-10.66666" data-paper-data="{&quot;origPos&quot;:null}" fill="none" stroke="#000000" stroke-width="2.5" stroke-linecap="round"/><path d="M243.5225,178.17697l9.7906,-0.81624" data-paper-data="{&quot;origPos&quot;:null}" fill="none" stroke="#000000" stroke-width="2.5" stroke-linecap="round"/><path d="M247.44985,182.72398l9.67094,-0.72649" data-paper-data="{&quot;origPos&quot;:null}" fill="none" stroke="#000000" stroke-width="2.5" stroke-linecap="round"/></g></g></svg>