<svg version="1.1" xmlns="http://www.w3.org/2000/svg" xmlns:xlink="http://www.w3.org/1999/xlink" width="128.00855" height="193.39224" viewBox="0,0,128.00855,193.39224"><defs><radialGradient cx="240.00049" cy="153.99999" r="43.33867" gradientUnits="userSpaceOnUse" id="color-1"><stop offset="0" stop-color="#f8b870"/><stop offset="1" stop-color="#67503a"/></radialGradient><radialGradient cx="240.00049" cy="154.00003" r="30.10378" gradientUnits="userSpaceOnUse" id="color-2"><stop offset="0" stop-color="#525252"/><stop offset="1" stop-color="#876746"/></radialGradient></defs><g transform="translate(-173.24096,-80.35776)"><g data-paper-data="{&quot;isPaintingLayer&quot;:true}" fill-rule="nonzero" stroke-linejoin="miter" stroke-miterlimit="10" stroke-dasharray="" stroke-dashoffset="0" style="mix-blend-mode: normal"><path d="M201.82399,87h89.92552c5.00061,0 8.74997,3.74753 8.75,8.75l0.001,168.25c0.00003,4.99939 -3.74669,8.99999 -8.75102,8.99999l-103.5,0.00001c-5.00277,0 -8.75,-4.00317 -8.75,-9l0.00002,-150.35728z" fill="#7f633f" stroke="#000000" stroke-width="1.5" stroke-linecap="butt"/><path d="M196.11386,187.35775c0,-1.90221 6.28685,10.00867 9.8392,10.00867h68.10253c3.54693,0 9.83913,-11.95542 9.83913,-10.00867c0,10.02674 -0.09151,50.27884 -0.09151,58.42575c0,2.98806 -1.9043,6.98177 -6.56483,6.98177c0,0 -61.17368,0.0465 -74.55983,0.0465c-4.62287,0 -6.57229,-4.08852 -6.57229,-7.02802z" fill="#191919" stroke="#000000" stroke-width="0" stroke-linecap="butt"/><path d="M196.66181,186.96175v-65.923c0,-5.01085 5.38104,-10.3774 10.37714,-10.3774h65.92334c4.98781,0 10.37687,5.3757 10.37687,10.3774v65.923c0,5.01026 -5.36172,10.37695 -10.37687,10.37695h-65.92334c-5.0104,0 -10.37714,-5.37792 -10.37714,-10.37695z" fill="url(#color-1)" stroke="#191919" stroke-width="1" stroke-linecap="butt"/><path d="M173.99096,120.23529l32.7902,-39.12753" fill="none" stroke="#000000" stroke-width="1.5" stroke-linecap="round"/><text transform="translate(252.29487,267.85839) scale(0.32654,0.32654)" font-size="40" xml:space="preserve" fill="#ffffff" fill-rule="nonzero" stroke="#000000" stroke-width="1" stroke-linecap="butt" stroke-linejoin="miter" stroke-miterlimit="10" stroke-dasharray="" stroke-dashoffset="0" font-family="&quot;Microsoft YaHei&quot;, &quot;微软雅黑&quot;, STXihei, &quot;华文细黑&quot;" font-weight="normal" text-anchor="start" style="mix-blend-mode: normal"><tspan x="0" dy="0">行动牌</tspan></text><text transform="translate(225.93261,103.52383) scale(0.36591,0.36591)" font-size="40" xml:space="preserve" fill="#ffffff" fill-rule="nonzero" stroke="#000000" stroke-width="1" stroke-linecap="butt" stroke-linejoin="miter" stroke-miterlimit="10" stroke-dasharray="" stroke-dashoffset="0" font-family="&quot;Microsoft YaHei&quot;, &quot;微软雅黑&quot;, STXihei, &quot;华文细黑&quot;" font-weight="normal" text-anchor="start" style="mix-blend-mode: normal"><tspan x="0" dy="0">震慑</tspan></text><text transform="translate(199.01649,209.6843) scale(0.2134,0.2134)" font-size="40" xml:space="preserve" fill="#ffffff" fill-rule="nonzero" stroke="none" stroke-width="1" stroke-linecap="butt" stroke-linejoin="miter" stroke-miterlimit="10" stroke-dasharray="" stroke-dashoffset="0" font-family="&quot;Microsoft YaHei&quot;, &quot;微软雅黑&quot;, STXihei, &quot;华文细黑&quot;" font-weight="normal" text-anchor="start" style="mix-blend-mode: normal"><tspan x="0" dy="0">　 • 造成    点伤害</tspan><tspan x="0" dy="48px">　 • 获得 1 层无视</tspan></text><text transform="translate(189.66407,268.21233) scale(0.2977,0.2977)" font-size="40" xml:space="preserve" fill="#ffffff" fill-rule="nonzero" stroke="#000000" stroke-width="1" stroke-linecap="butt" stroke-linejoin="miter" stroke-miterlimit="10" stroke-dasharray="" stroke-dashoffset="0" font-family="Pixel" font-weight="normal" text-anchor="start" style="mix-blend-mode: normal"><tspan x="0" dy="0">ACTION</tspan></text><path d="M234.05595,126.85329c2.67505,-1.58767 5.71663,-1.16019 8.75607,-1.16019c5.29167,0 11.31345,-0.55582 13.60682,4.82622c0.64324,1.50954 1.59106,2.32453 1.61104,4.09053c0.25292,0.73153 0.07683,1.65984 0.57924,2.24864c0.92987,1.08977 3.53723,1.09378 4.28432,2.38581c0.86674,1.49893 -0.26418,4.07386 0.12939,5.71156c0.58468,2.43297 2.23808,6.76227 3.6972,8.78373c0.30143,0.4176 0.98407,0.49628 1.2122,0.95802c0.58655,1.1872 -0.26207,2.40218 -0.2741,3.54273c-0.02441,2.31518 0.65648,5.57806 1.19338,7.869c0.45524,1.9727 1.73492,5.06409 1.06023,7.06215c-0.2627,0.77794 -3.12657,4.89025 -3.75227,5.38261c-0.53616,0.42191 -1.39965,0.14635 -1.98595,0.49526c-0.40145,0.2389 -0.39892,0.90262 -0.79067,1.15712c-1.08799,0.70681 -2.37464,1.07029 -3.62412,1.4197c-5.18716,1.45058 -12.22347,0.30214 -17.5603,0.29487c-2.4528,-0.37022 -5.33776,0.17195 -7.69456,-0.40889c-1.70595,-0.42043 -3.25838,-1.95832 -4.98366,-2.30395c-5.7806,-1.15804 -10.63878,-3.69546 -14.51786,-8.42978c-1.19226,-1.45513 -2.22999,-2.57689 -3.59041,-3.85842c-0.52087,-0.49067 -1.38139,-0.83252 -1.49698,-1.53871c-0.13995,-0.85504 0.56178,-1.63925 0.84267,-2.45887c0.05855,-0.13662 1.54166,-3.61212 1.61093,-3.71303c0.72601,-1.05764 3.37718,-2.47864 3.75035,-3.66821c0.71042,-2.26469 0.15282,-5.89121 0.54373,-8.33824c0.44761,-2.8019 2.1751,-4.92093 2.46193,-7.91608c0.14461,-1.50999 -0.51243,-4.28592 0.07126,-5.66876c0.09251,-0.21919 2.03729,-2.14494 2.52446,-2.63211c1.22185,-1.21165 3.72326,-3.54584 5.39088,-4.08773c1.58134,-0.51386 4.48079,-0.05131 6.16238,-0.05131h0.69231c0,0 0.03426,0 0.09009,0.00634z" fill="url(#color-2)" stroke="none" stroke-width="0.5" stroke-linecap="butt"/><path d="M228.52244,150.495c-1,0 -1,-1 -1,-1l0.13175,-0.93092c0.54966,-0.95725 1.06133,-1.68411 1.63161,-2.33188c0.03864,-0.33616 0.11998,-0.67254 0.25975,-1.00906c0.06805,-0.16385 0.15675,-0.33064 0.26213,-0.4965c0.0431,-1.19573 0.40431,-2.2687 1.59294,-2.67725c1.84865,-0.6354 2.70684,0.69341 2.88909,2.19297c0.10183,-0.10464 0.24334,-0.19628 0.43823,-0.26125c0.94869,-0.31623 1.26491,0.63245 1.26491,0.63245c0.54073,1.66885 0.14412,5.46043 -1.6361,6.90377l0.02317,0.01391l-0.64274,1.07124c-0.17273,0.29958 -0.49628,0.50122 -0.86693,0.50122c-0.55229,0 -1,-0.44771 -1,-1v-0.15366c-0.68187,-0.22088 -1.3161,-0.74121 -1.64043,-1.36966c-0.11699,-0.2267 -0.1611,-0.47209 -0.16971,-0.72689l-0.24577,0.10117c-0.05034,-0.27156 -0.11101,-0.54345 -0.17352,-0.81565c-0.08485,0.13504 -0.16854,0.27376 -0.25015,0.41736l0.13176,-0.06135c0,0 0,1 -1,1z" fill="#e94b4b" stroke="none" stroke-width="0.5" stroke-linecap="butt"/><path d="M253.21809,144.27761c0,0.73971 -0.54718,0.93225 -0.83202,0.98236c0.10288,1.7827 0.32254,4.36543 -0.61843,5.40763c-0.07313,0.08099 -0.15155,0.15492 -0.23443,0.22293l0.02072,0.02486l-1.29931,1.08276c-0.17416,0.14722 -0.39933,0.23598 -0.64523,0.23598c-0.49979,0 -0.91394,-0.36665 -0.98816,-0.84565c-0.10773,0.10492 -0.21604,0.20745 -0.32417,0.30751l0.10763,-2.37313c-0.25134,0.35895 -0.52447,0.70551 -0.82723,1.0395l0.22324,0.16742l-0.64519,0.86026c-0.18196,0.24818 -0.47566,0.40931 -0.80698,0.40931c-0.55229,0 -1,-0.44771 -1,-1v-1.08696h0.06588l-0.05142,-0.16941c0.16781,-0.49242 0.3187,-0.98784 0.46288,-1.48229c-0.05552,0.08283 -0.11119,0.16612 -0.16702,0.24989c0,0 -0.5547,0.83205 -1.38675,0.27735c-0.83205,-0.5547 -0.27735,-1.38675 -0.27735,-1.38675c1.13291,-1.69937 2.15104,-3.29682 3.64603,-4.69976l0.16482,0.06953c0.33632,-0.58153 0.73408,-1.1326 1.21919,-1.64317l0.29784,1.9765l0.4306,-1.13378c0.13725,-0.38845 0.50769,-0.66678 0.94314,-0.66678c0.55229,0 1,0.44771 1,1c0,0.0699 -0.00716,0.13813 -0.02081,0.20398l-0.26262,1.40061l0.80517,-0.43067c0,0 1,0 1,1z" fill="#e94b4b" stroke="none" stroke-width="0.5" stroke-linecap="butt"/><path d="M250.91374,161.32109c1,0 1,1 1,1l-0.2,1.25217c-0.94847,1.18954 -0.92371,2.61852 -1.81144,3.99671c-2.65505,4.12198 -9.54487,12.32003 -15.21679,8.61201c-1.11986,-0.73211 -2.2162,-3.08246 -2.92307,-4.24218c-0.99015,-1.62448 -1.25826,-2.43702 -1.6119,-4.20521c0,0 -0.19612,-0.98058 0.78446,-1.1767c0.98058,-0.19612 1.1767,0.78446 1.1767,0.78446c0.31556,1.57779 0.44908,2.0945 1.35406,3.54925c0.61036,0.98116 1.45231,3.02191 2.37185,3.65554c1.80195,1.24167 4.62509,-0.00607 5.93178,-1.17606c2.31912,-2.07651 4.72645,-4.27769 6.45769,-6.89366c0.92945,-1.40443 0.91769,-2.7584 1.88666,-4.10417l-0.2,-0.05217c0,0 0,-1 1,-1z" fill="#e94b4b" stroke="none" stroke-width="0.5" stroke-linecap="butt"/></g></g></svg>