<svg version="1.1" xmlns="http://www.w3.org/2000/svg" xmlns:xlink="http://www.w3.org/1999/xlink" width="122.50002" height="187.5" viewBox="0,0,122.50002,187.5"><defs><radialGradient cx="240.00049" cy="153.99999" r="43.33867" gradientUnits="userSpaceOnUse" id="color-1"><stop offset="0" stop-color="#f8b870"/><stop offset="1" stop-color="#67503a"/></radialGradient></defs><g transform="translate(-178.74949,-86.25)"><g data-paper-data="{&quot;isPaintingLayer&quot;:true}" fill-rule="nonzero" stroke-linecap="butt" stroke-linejoin="miter" stroke-miterlimit="10" stroke-dasharray="" stroke-dashoffset="0" style="mix-blend-mode: normal"><path d="M179.49951,95.75c0,-5.00052 3.75336,-8.75 8.75,-8.75h103.5c5.00061,0 8.74997,3.74753 8.75,8.75l0.001,168.25c0.00003,4.99939 -3.74669,8.99999 -8.75102,8.99999l-103.5,0.00001c-5.00277,0 -8.75,-4.00317 -8.75,-9z" fill="#2f7035" stroke="#000000" stroke-width="1.5"/><path d="M196.11386,187.35775c0,-1.90221 6.28685,10.00867 9.8392,10.00867h68.10253c3.54693,0 9.83913,-11.95542 9.83913,-10.00867c0,10.02674 -0.09151,50.27884 -0.09151,58.42575c0,2.98806 -1.9043,6.98177 -6.56483,6.98177c0,0 -61.17368,0.0465 -74.55983,0.0465c-4.62287,0 -6.57229,-4.08852 -6.57229,-7.02802z" fill="#191919" stroke="#000000" stroke-width="0"/><path d="M196.66181,186.96175v-65.923c0,-5.01085 5.38104,-10.3774 10.37714,-10.3774h65.92334c4.98781,0 10.37687,5.3757 10.37687,10.3774v65.923c0,5.01026 -5.36172,10.37695 -10.37687,10.37695h-65.92334c-5.0104,0 -10.37714,-5.37792 -10.37714,-10.37695z" fill="url(#color-1)" stroke="#191919" stroke-width="1"/><text transform="translate(225.90259,103.52399) scale(0.36591,0.36591)" font-size="40" xml:space="preserve" fill="#ffffff" fill-rule="nonzero" stroke="#000000" stroke-width="1" stroke-linecap="butt" stroke-linejoin="miter" stroke-miterlimit="10" stroke-dasharray="" stroke-dashoffset="0" font-family="&quot;Microsoft YaHei&quot;, &quot;微软雅黑&quot;, STXihei, &quot;华文细黑&quot;" font-weight="normal" text-anchor="start" style="mix-blend-mode: normal"><tspan x="0" dy="0">强化手套</tspan></text><text transform="translate(252.29481,267.85839) scale(0.32654,0.32654)" font-size="40" xml:space="preserve" fill="#ffffff" fill-rule="nonzero" stroke="#000000" stroke-width="1" stroke-linecap="butt" stroke-linejoin="miter" stroke-miterlimit="10" stroke-dasharray="" stroke-dashoffset="0" font-family="&quot;Microsoft YaHei&quot;, &quot;微软雅黑&quot;, STXihei, &quot;华文细黑&quot;" font-weight="normal" text-anchor="start" style="mix-blend-mode: normal"><tspan x="0" dy="0">装备牌</tspan></text><text transform="translate(189.66399,268.21236) scale(0.2977,0.2977)" font-size="40" xml:space="preserve" fill="#ffffff" fill-rule="nonzero" stroke="#000000" stroke-width="1" stroke-linecap="butt" stroke-linejoin="miter" stroke-miterlimit="10" stroke-dasharray="" stroke-dashoffset="0" font-family="Pixel" font-weight="normal" text-anchor="start" style="mix-blend-mode: normal"><tspan x="0" dy="0">ARMOUR</tspan></text><text transform="translate(199.01639,209.68442) scale(0.2134,0.2134)" font-size="40" xml:space="preserve" fill="#ffffff" fill-rule="nonzero" stroke="none" stroke-width="1" stroke-linecap="butt" stroke-linejoin="miter" stroke-miterlimit="10" stroke-dasharray="" stroke-dashoffset="0" font-family="&quot;Microsoft YaHei&quot;, &quot;微软雅黑&quot;, STXihei, &quot;华文细黑&quot;" font-weight="normal" text-anchor="start" style="mix-blend-mode: normal"><tspan x="0" dy="0">　 • 你的普通攻击伤</tspan><tspan x="0" dy="48px">害+3</tspan></text><g fill="#000000"><path d="M215.26173,145.76013c-0.70607,-3.84062 -0.7016,-7.86225 1.31811,-10.86534c2.08166,-3.09519 6.24873,-5.12441 10.20712,-5.85213c5.09352,-0.93641 9.08515,-2.03691 12.31247,1.55001c1.71423,1.90523 3.90761,7.26978 4.40499,9.97525c0.70906,3.85688 1.13828,8.02278 -0.89958,11.03209c-2.08289,3.07583 -6.68356,4.96063 -10.62567,5.68536c-4.4565,0.81929 -8.47377,1.31643 -11.65467,-1.43241c-2.38577,-2.0617 -4.44828,-6.75032 -5.06277,-10.09283zM231.13141,151.21855c1.10104,-0.20242 4.71703,-1.16147 3.66876,-8.41368c-0.90184,-6.23918 -5.35767,-6.96453 -6.45871,-6.76211c-1.10104,0.20242 -5.49244,2.31424 -4.15041,8.08161c1.94284,8.34942 5.83932,7.2966 6.94036,7.09418z" stroke="#000000" stroke-width="0"/><path d="M227.75002,130.0764c0.53119,2.0745 -0.65945,4.01929 -2.46045,5.40203c-0.7282,1.16323 -1.92367,2.02854 -3.37978,2.29624c-0.96892,0.17813 -1.92409,0.0679 -2.77722,-0.26981c-1.82627,-0.17812 -3.18549,-1.27331 -3.09723,-3.66699c-0.00915,-0.04341 -0.01776,-0.08705 -0.02583,-0.13094c-0.4081,-2.21986 0.69738,-4.36758 2.58433,-5.38117c2.95679,-3.17407 7.58376,-4.39032 9.15618,1.75065z" stroke="none" stroke-width="0.5"/><path d="M240.94784,152.68145c-0.03585,0.00659 -0.07165,0.01267 -0.10744,0.01828c-0.03545,0.00748 -0.07107,0.01454 -0.10692,0.02113c-0.0179,0.00329 -0.03579,0.00646 -0.05366,0.0095c-0.01779,0.00352 -0.03564,0.00692 -0.05353,0.01021c-0.62941,0.11571 -1.25157,0.07932 -1.82866,-0.0831c-1.81832,-0.10911 -3.39701,-1.44258 -3.74115,-3.31449c-0.36455,-1.98295 0.78061,-3.89393 2.62006,-4.55022c-0.61977,-1.19678 -1.1238,-2.6862 -1.27637,-4.02283c-0.78622,-0.48584 -1.35406,-1.28532 -1.48434,-2.43378c-0.23319,-0.31768 -0.42227,-0.67277 -0.55651,-1.05791c-0.73176,0.02107 -1.34089,-0.13573 -1.69634,-0.55691c-1.3027,-0.47753 -2.32627,-1.61185 -2.5953,-3.07524c-0.40484,-2.20208 1.05211,-4.31539 3.25419,-4.72022c0.33448,-0.06149 0.66692,-0.08004 0.99163,-0.05953c3.38749,-1.26872 7.19007,0.81071 6.96439,4.01863c1.65154,1.19223 2.66704,3.23928 2.13206,5.17545c0.583,0.56624 1.00184,1.31275 1.15998,2.17294c0.86202,0.77167 0.75809,2.39029 0.0791,3.88498c0.50231,0.54412 0.86167,1.23229 1.00546,2.01445c0.29694,1.61519 -0.40776,3.18264 -1.67347,4.06316c-0.49986,1.25017 -1.61115,2.22408 -3.03318,2.48551z" stroke="none" stroke-width="0.5"/></g><g data-paper-data="{&quot;index&quot;:null}" fill="#000000"><path d="M260.15971,181.34423c-3.08819,2.85261 -7.11971,2.48867 -11.60088,1.8173c-3.96394,-0.59387 -8.62446,-2.32538 -10.808,-5.3306c-2.13633,-2.94022 -1.8452,-7.11805 -1.26417,-10.99629c0.40758,-2.72045 2.42222,-8.15465 4.07246,-10.11556c3.10686,-3.69176 7.13271,-2.72394 12.25443,-1.9566c3.98031,0.59633 8.21225,2.48652 10.3952,5.51113c2.11799,2.9346 2.25554,6.95388 1.67695,10.81577c-0.50354,3.36101 -2.40976,8.11533 -4.726,10.25485zM255.90717,169.75002c1.15044,-5.80862 -3.30846,-7.77396 -4.41559,-7.93983c-1.10714,-0.16587 -5.53651,0.70655 -6.23139,6.97216c-0.8077,7.28292 2.83804,8.12177 3.94517,8.28764c1.10714,0.16587 5.03634,1.08917 6.70181,-7.31997z" stroke="#000000" stroke-width="0"/><path d="M260.97848,153.77484c1.91946,0.95059 3.09541,3.06055 2.76099,5.2927c-0.00661,0.04413 -0.01376,0.08803 -0.02147,0.13171c0.16742,2.38945 -1.15482,3.52902 -2.97419,3.76747c-0.84148,0.36576 -1.79249,0.50753 -2.76677,0.36157c-1.46417,-0.21936 -2.68763,-1.04463 -3.45392,-2.18312c-1.84578,-1.32238 -3.10013,-3.22672 -2.63788,-5.31766c1.36833,-6.18964 6.03302,-5.12716 9.09323,-2.05268z" stroke="none" stroke-width="0.5"/><path d="M236.32893,176.47317c-1.29415,-0.83814 -2.05034,-2.38142 -1.80701,-4.00555c0.11783,-0.7865 0.45422,-1.48618 0.93825,-2.04662c-0.72807,-1.4714 -0.88551,-3.08569 -0.0495,-3.88547c0.12959,-0.86496 0.5235,-1.62492 1.08744,-2.21014c-0.59876,-1.91741 0.34845,-3.99693 1.95963,-5.24316c-0.33171,-3.19869 3.39996,-5.40284 6.82758,-4.24691c0.32385,-0.03124 0.65673,-0.0237 0.99306,0.02668c2.21427,0.33174 3.74035,2.39568 3.40861,4.60995c-0.22046,1.4715 -1.20591,2.63908 -2.4921,3.15946c-0.34131,0.43271 -0.94492,0.60957 -1.67698,0.61272c-0.12143,0.38937 -0.29866,0.75052 -0.52121,1.07575c-0.0922,1.15214 -0.63328,1.96999 -1.40299,2.48158c-0.10825,1.34095 -0.56272,2.84622 -1.14254,4.06285c1.86016,0.59505 3.06793,2.4671 2.7692,4.46102c-0.282,1.88227 -1.8157,3.26727 -3.62941,3.43649c-0.5714,0.18142 -1.19202,0.23837 -1.82491,0.14356c-0.018,-0.0027 -0.03594,-0.00549 -0.05383,-0.00842c-0.01797,-0.00245 -0.03596,-0.00504 -0.05396,-0.00773c-0.03604,-0.0054 -0.07188,-0.01126 -0.10756,-0.01756c-0.03596,-0.00443 -0.07193,-0.00933 -0.10797,-0.01473c-1.4299,-0.21423 -2.57283,-1.15082 -3.11379,-2.38377z" stroke="none" stroke-width="0.5"/></g></g></g></svg>