<svg version="1.1" xmlns="http://www.w3.org/2000/svg" xmlns:xlink="http://www.w3.org/1999/xlink" width="375.66982" height="250.50002" viewBox="0,0,375.66982,250.50002"><g transform="translate(-52.1651,-38.73675)"><g data-paper-data="{&quot;isPaintingLayer&quot;:true}" fill-rule="nonzero" stroke-linecap="butt" stroke-linejoin="miter" stroke-miterlimit="10" stroke-dasharray="" stroke-dashoffset="0" style="mix-blend-mode: normal"><path d="M138.07977,72.26326v-32.52651h203.84048v32.52651z" fill="#4f3e34" stroke="#8a7b67" stroke-width="2"/><path d="M60.80796,283.0404c-4.50953,-3.40897 -7.14286,-12.29563 -7.14286,-12.29563v-182.11566c0,0 1.69439,-7.76356 6.33334,-11.25198c4.63894,-3.48842 15.43013,-5.11385 15.43013,-5.11385h329.28572c0,0 11.05744,1.54959 15.62063,5.11385c4.56318,3.56426 6,11.7738 6,11.7738v181.07201c0,0 -0.37379,9.22965 -5.66667,13.13054c-5.29288,3.90089 -18.09681,4.3833 -18.09681,4.3833h-326.42858c0,0 -10.82537,-1.28742 -15.3349,-4.69639z" fill="#3e2b1c" stroke="#635542" stroke-width="3"/><path d="M160.35898,180.00003l79.64104,-79.64103l79.64102,79.64104l-79.64102,79.64103l-79.64104,-79.64103z" fill="none" stroke="#5b4535" stroke-width="10"/><text transform="translate(210.00001,62) scale(0.5,0.5)" font-size="40" xml:space="preserve" fill="#ffffff" fill-rule="nonzero" stroke="none" stroke-width="1" stroke-linecap="butt" stroke-linejoin="miter" stroke-miterlimit="10" stroke-dasharray="" stroke-dashoffset="0" font-family="Sans Serif" font-weight="normal" text-anchor="start" style="mix-blend-mode: normal"><tspan x="0" dy="0">许愿池</tspan></text></g></g></svg>