<svg version="1.1" xmlns="http://www.w3.org/2000/svg" xmlns:xlink="http://www.w3.org/1999/xlink" width="122.50002" height="187.5" viewBox="0,0,122.50002,187.5"><defs><radialGradient cx="240.00049" cy="153.99999" r="43.33867" gradientUnits="userSpaceOnUse" id="color-1"><stop offset="0" stop-color="#f8b870"/><stop offset="1" stop-color="#67503a"/></radialGradient></defs><g transform="translate(-178.74949,-86.25)"><g data-paper-data="{&quot;isPaintingLayer&quot;:true}" fill-rule="nonzero" stroke-linecap="butt" stroke-linejoin="miter" stroke-miterlimit="10" stroke-dasharray="" stroke-dashoffset="0" style="mix-blend-mode: normal"><path d="M179.49951,95.75c0,-5.00052 3.75336,-8.75 8.75,-8.75h103.5c5.00061,0 8.74997,3.74753 8.75,8.75l0.001,168.25c0.00003,4.99939 -3.74669,8.99999 -8.75102,8.99999l-103.5,0.00001c-5.00277,0 -8.75,-4.00317 -8.75,-9z" fill="#2f9bd4" stroke="#000000" stroke-width="1.5"/><path d="M196.11386,187.35775c0,-1.90221 6.28685,10.00867 9.8392,10.00867h68.10253c3.54693,0 9.83913,-11.95542 9.83913,-10.00867c0,10.02674 -0.09151,50.27884 -0.09151,58.42575c0,2.98806 -1.9043,6.98177 -6.56483,6.98177c0,0 -61.17368,0.0465 -74.55983,0.0465c-4.62287,0 -6.57229,-4.08852 -6.57229,-7.02802z" fill="#191919" stroke="#000000" stroke-width="0"/><path d="M196.66181,186.96175v-65.923c0,-5.01085 5.38104,-10.3774 10.37714,-10.3774h65.92334c4.98781,0 10.37687,5.3757 10.37687,10.3774v65.923c0,5.01026 -5.36172,10.37695 -10.37687,10.37695h-65.92334c-5.0104,0 -10.37714,-5.37792 -10.37714,-10.37695z" fill="url(#color-1)" stroke="#191919" stroke-width="1"/><text transform="translate(252.29488,267.85839) scale(0.32654,0.32654)" font-size="40" xml:space="preserve" fill="#ffffff" fill-rule="nonzero" stroke="#000000" stroke-width="1" stroke-linecap="butt" stroke-linejoin="miter" stroke-miterlimit="10" stroke-dasharray="" stroke-dashoffset="0" font-family="&quot;Microsoft YaHei&quot;, &quot;微软雅黑&quot;, STXihei, &quot;华文细黑&quot;" font-weight="normal" text-anchor="start" style="mix-blend-mode: normal"><tspan x="0" dy="0">魔力牌</tspan></text><text transform="translate(225.93262,103.52384) scale(0.36591,0.36591)" font-size="40" xml:space="preserve" fill="#ffffff" fill-rule="nonzero" stroke="#000000" stroke-width="1" stroke-linecap="butt" stroke-linejoin="miter" stroke-miterlimit="10" stroke-dasharray="" stroke-dashoffset="0" font-family="&quot;Microsoft YaHei&quot;, &quot;微软雅黑&quot;, STXihei, &quot;华文细黑&quot;" font-weight="normal" text-anchor="start" style="mix-blend-mode: normal"><tspan x="0" dy="0">智慧</tspan></text><text transform="translate(199.0165,209.68431) scale(0.2134,0.2134)" font-size="40" xml:space="preserve" fill="#ffffff" fill-rule="nonzero" stroke="none" stroke-width="1" stroke-linecap="butt" stroke-linejoin="miter" stroke-miterlimit="10" stroke-dasharray="" stroke-dashoffset="0" font-family="&quot;Microsoft YaHei&quot;, &quot;微软雅黑&quot;, STXihei, &quot;华文细黑&quot;" font-weight="normal" text-anchor="start" style="mix-blend-mode: normal"><tspan x="0" dy="0">　 • 获得    点法力</tspan><tspan x="0" dy="48px">　 • 抽一张牌</tspan></text><text transform="translate(189.66408,268.21234) scale(0.2977,0.2977)" font-size="40" xml:space="preserve" fill="#ffffff" fill-rule="nonzero" stroke="#000000" stroke-width="1" stroke-linecap="butt" stroke-linejoin="miter" stroke-miterlimit="10" stroke-dasharray="" stroke-dashoffset="0" font-family="Pixel" font-weight="normal" text-anchor="start" style="mix-blend-mode: normal"><tspan x="0" dy="0">MANA</tspan></text><path d="M253.12534,154.729c0,9.57294 -6.56649,17.33334 -14.66666,17.33334c-8.10018,0 -14.66666,-7.7604 -14.66666,-17.33334c0,-9.57294 6.56649,-17.33334 14.66666,-17.33334c8.10018,0 14.66666,7.7604 14.66666,17.33334z" fill-opacity="0.57647" fill="#c0d43d" stroke="#9f9f9f" stroke-width="1"/><path d="M234.15581,171.33483c3.45141,1.45803 8.30826,0.55038 11.25604,-1.66101c0,0 0.52293,-0.39219 1.0403,-0.11963c0.17684,-0.06786 0.39955,-0.08309 0.67593,0.00904c0.94869,0.31623 0.63245,1.26492 0.63245,1.26492c-0.8453,2.41888 -0.25303,5.63237 -0.62826,8.17729c-0.17083,1.15859 0.47696,2.77202 -0.19888,3.78856c-0.59813,0.89965 -2.94714,0.71626 -3.78821,0.71792c-4.01664,0.00795 -8.13984,-0.01955 -12.09635,-0.68696c0.133,-3.77023 0.09635,-7.54074 0.09635,-11.31304v-0.33334c0,0 0,-1 1,-1c0.72264,0 0.92308,0.5222 0.97867,0.81188z" fill="#9f9f9f" stroke="none" stroke-width="0.5"/><path d="M241.56655,171.90587c-0.83205,0.5547 -1.38675,-0.27735 -1.38675,-0.27735l-0.43619,-1.65084c0.93373,-1.59354 1.70479,-3.51267 2.15372,-5.30842c0.39174,-0.59553 1.0693,-1.11346 1.11495,-1.82482c0.03747,-0.58393 -1.01277,-1.28791 -1.46737,-1.40691c-1.20626,-0.31578 -5.38619,-0.40407 -6.48806,0.17104c-0.14982,0.0782 0.32603,0.19943 0.35012,0.36671c0.0997,0.69237 0.00377,1.39903 0.00487,2.09854c0.00415,2.64153 0.94066,3.96945 1.38639,6.4356c0,0 0.1644,0.98639 -0.822,1.15079c-0.98639,0.1644 -1.15079,-0.82199 -1.15079,-0.82199c-0.13855,-0.94052 -0.78771,-1.73098 -1.14884,-2.61038c-0.69946,-1.70327 -0.23694,-4.25267 -0.2599,-6.05549c-0.00693,-0.54464 -0.40957,-1.22426 -0.04988,-1.63329c0.91759,-1.04344 3.56403,-1.06294 4.84501,-1.06525c3.92686,-0.00708 8.79475,1.15554 5.51452,6.00455c-0.4707,1.88279 -1.29742,3.79691 -2.24627,5.49159l0.36381,-0.45084c0,0 0.5547,0.83205 -0.27735,1.38675z" fill-opacity="0.38039" fill="#aed1ca" stroke="none" stroke-width="0.5"/><path d="M234.41185,125.47382c0,-0.12639 0.02344,-0.2473 0.06623,-0.35862c0.09746,-0.28687 0.33837,-0.64138 0.93377,-0.64138c0.5954,0 0.8363,0.35451 0.93377,0.64138c0.04279,0.11132 0.06623,0.23223 0.06623,0.35862c0,0.01148 -0.00019,0.02292 -0.00057,0.03431l-0.01041,0.61791c0.34691,2.34259 0.81098,4.35318 0.81098,6.74777c0,0 0,1 -1,1c-1,0 -1,-1 -1,-1c0,-2.29173 -0.45016,-4.20278 -0.78902,-6.45223l-0.01071,-0.92414c-0.00018,-0.00786 -0.00027,-0.01573 -0.00027,-0.02363z" fill-opacity="0.57647" fill="#c0d43d" stroke="none" stroke-width="0.5"/><path d="M255.61185,128.67382c0,0.81856 -0.67004,0.96707 -0.91319,0.99402c-1.42156,1.72254 -3.17499,3.03216 -4.45476,4.96068c0,0 -0.5547,0.83205 -1.38675,0.27735c-0.83205,-0.5547 -0.27735,-1.38675 -0.27735,-1.38675c1.39749,-2.08745 3.39814,-3.48605 4.83205,-5.4453l1.2,-0.4c0,0 1,0 1,1z" fill-opacity="0.57647" fill="#c0d43d" stroke="none" stroke-width="0.5"/><path d="M268.61185,140.87382c0,0.26371 -0.10208,0.50359 -0.26889,0.68226l-0.48226,0.81134c-2.49595,1.25321 -4.89232,2.63021 -7.42597,3.81258c0,0 -0.90618,0.42289 -1.32907,-0.4833c-0.42289,-0.90618 0.48329,-1.32907 0.48329,-1.32907c2.39956,-1.1198 4.67446,-2.41553 7.02997,-3.61347c0.02294,-0.19241 0.10052,-0.36803 0.21677,-0.51094c0.17815,-0.23719 0.50832,-0.49567 1.05412,-0.33026c0.02612,0.00754 0.05181,0.01613 0.07701,0.0257c0.53544,0.19538 0.64421,0.60032 0.6443,0.89685c0.00048,0.01271 0.00072,0.02548 0.00072,0.03831z" fill-opacity="0.57647" fill="#c0d43d" stroke="none" stroke-width="0.5"/><path d="M274.21185,154.87382c0,1 -1,1 -1,1l-0.44887,-0.06367c-3.24347,1.20958 -7.31988,2.09458 -10.66735,1.01236c0,0 -0.94869,-0.31623 -0.63246,-1.26492c0.31623,-0.94869 1.26491,-0.63245 1.26491,-0.63245c2.83567,0.98219 6.57734,0.05188 9.33265,-0.98765l1.15112,-0.06367c0,0 1,0 1,1z" fill-opacity="0.57647" fill="#c0d43d" stroke="none" stroke-width="0.5"/><path d="M268.59243,167.66993c-0.19612,0.98058 -1.17669,0.78447 -1.17669,0.78447l-1.21206,-0.26768c-1.82601,-1.35566 -4.52253,-2.56663 -6.63905,-3.61848c0,0 -0.89443,-0.44721 -0.44721,-1.34164c0.44722,-0.89443 1.34164,-0.44721 1.34164,-0.44721c2.05736,1.03423 4.7997,2.24648 6.56096,3.58152l0.78794,0.13233c0,0 0.98058,0.19611 0.78447,1.17669z" fill-opacity="0.57647" fill="#c0d43d" stroke="none" stroke-width="0.5"/><path d="M214.43098,135.24912c0.6247,-0.78087 1.40556,-0.15618 1.40556,-0.15618l0.93742,0.75381c1.36588,0.78684 2.28666,1.85241 3.6851,2.53263c0,0 0.89443,0.44722 0.44721,1.34164c-0.44721,0.89443 -1.34164,0.44721 -1.34164,0.44721c-1.48617,-0.75913 -2.46285,-1.84481 -3.9149,-2.66737l-1.06258,-0.84618c0,0 -0.78087,-0.6247 -0.15617,-1.40556z" fill-opacity="0.57647" fill="#c0d43d" stroke="none" stroke-width="0.5"/><path d="M207.61185,151.67382c0,-1 1,-1 1,-1c1.93333,0 5.66667,0 7.6,0c0,0 1,0 1,1c0,1 -1,1 -1,1c-1.93333,0 -3.86667,0 -5.8,0h-1.8c0,0 -1,0 -1,-1z" fill-opacity="0.57647" fill="#c0d43d" stroke="none" stroke-width="0.5"/><path d="M206.89735,165.21633c3.15833,-1.78787 8.30385,-0.74251 11.9145,-0.74251c0,0 1,0 1,1c0,1 -1,1 -1,1c-3.00419,0 -8.41712,-1.16235 -10.8855,0.45749l-0.54704,0.36602c-0.10316,0.07122 -0.22036,0.12355 -0.3466,0.15201c-0.28901,0.07737 -0.71111,0.07537 -1.04008,-0.4019c-0.00984,-0.01403 -0.01933,-0.02832 -0.02845,-0.04286c-0.31116,-0.48697 -0.14853,-0.87677 0.03436,-1.11273c0.07368,-0.10278 0.16636,-0.19103 0.2729,-0.25959z" fill-opacity="0.57647" fill="#c0d43d" stroke="none" stroke-width="0.5"/></g></g></svg>