<svg version="1.1" xmlns="http://www.w3.org/2000/svg" xmlns:xlink="http://www.w3.org/1999/xlink" width="128.00855" height="193.39224" viewBox="0,0,128.00855,193.39224"><defs><radialGradient cx="240.00049" cy="153.99999" r="43.33867" gradientUnits="userSpaceOnUse" id="color-1"><stop offset="0" stop-color="#f8b870"/><stop offset="1" stop-color="#67503a"/></radialGradient></defs><g transform="translate(-173.24096,-80.35776)"><g data-paper-data="{&quot;isPaintingLayer&quot;:true}" fill-rule="nonzero" stroke-linejoin="miter" stroke-miterlimit="10" stroke-dasharray="" stroke-dashoffset="0" style="mix-blend-mode: normal"><path d="M201.82399,87h89.92552c5.00061,0 8.74997,3.74753 8.75,8.75l0.001,168.25c0.00003,4.99939 -3.74669,8.99999 -8.75102,8.99999l-103.5,0.00001c-5.00277,0 -8.75,-4.00317 -8.75,-9l0.00002,-150.35728z" fill="#7f633f" stroke="#000000" stroke-width="1.5" stroke-linecap="butt"/><path d="M196.11386,187.35775c0,-1.90221 6.28685,10.00867 9.8392,10.00867h68.10253c3.54693,0 9.83913,-11.95542 9.83913,-10.00867c0,10.02674 -0.09151,50.27884 -0.09151,58.42575c0,2.98806 -1.9043,6.98177 -6.56483,6.98177c0,0 -61.17368,0.0465 -74.55983,0.0465c-4.62287,0 -6.57229,-4.08852 -6.57229,-7.02802z" fill="#191919" stroke="#000000" stroke-width="0" stroke-linecap="butt"/><path d="M196.66181,186.96175v-65.923c0,-5.01085 5.38104,-10.3774 10.37714,-10.3774h65.92334c4.98781,0 10.37687,5.3757 10.37687,10.3774v65.923c0,5.01026 -5.36172,10.37695 -10.37687,10.37695h-65.92334c-5.0104,0 -10.37714,-5.37792 -10.37714,-10.37695z" fill="url(#color-1)" stroke="#191919" stroke-width="1" stroke-linecap="butt"/><path d="M173.99096,120.23529l32.7902,-39.12753" fill="none" stroke="#000000" stroke-width="1.5" stroke-linecap="round"/><text transform="translate(252.29487,267.85839) scale(0.32654,0.32654)" font-size="40" xml:space="preserve" fill="#ffffff" fill-rule="nonzero" stroke="#000000" stroke-width="1" stroke-linecap="butt" stroke-linejoin="miter" stroke-miterlimit="10" stroke-dasharray="" stroke-dashoffset="0" font-family="&quot;Microsoft YaHei&quot;, &quot;微软雅黑&quot;, STXihei, &quot;华文细黑&quot;" font-weight="normal" text-anchor="start" style="mix-blend-mode: normal"><tspan x="0" dy="0">行动牌</tspan></text><text transform="translate(225.93261,103.52383) scale(0.36591,0.36591)" font-size="40" xml:space="preserve" fill="#ffffff" fill-rule="nonzero" stroke="#000000" stroke-width="1" stroke-linecap="butt" stroke-linejoin="miter" stroke-miterlimit="10" stroke-dasharray="" stroke-dashoffset="0" font-family="&quot;Microsoft YaHei&quot;, &quot;微软雅黑&quot;, STXihei, &quot;华文细黑&quot;" font-weight="normal" text-anchor="start" style="mix-blend-mode: normal"><tspan x="0" dy="0">千剑万花</tspan></text><text transform="translate(199.01649,209.6843) scale(0.2134,0.2134)" font-size="40" xml:space="preserve" fill="#ffffff" fill-rule="nonzero" stroke="none" stroke-width="1" stroke-linecap="butt" stroke-linejoin="miter" stroke-miterlimit="10" stroke-dasharray="" stroke-dashoffset="0" font-family="&quot;Microsoft YaHei&quot;, &quot;微软雅黑&quot;, STXihei, &quot;华文细黑&quot;" font-weight="normal" text-anchor="start" style="mix-blend-mode: normal"><tspan x="0" dy="0">　 • 受到 3 点真实伤</tspan><tspan x="0" dy="48px">害</tspan><tspan x="0" dy="48px">　 • 造成    次 1 点伤</tspan><tspan x="0" dy="48px">害</tspan></text><text transform="translate(189.66407,268.21233) scale(0.2977,0.2977)" font-size="40" xml:space="preserve" fill="#ffffff" fill-rule="nonzero" stroke="#000000" stroke-width="1" stroke-linecap="butt" stroke-linejoin="miter" stroke-miterlimit="10" stroke-dasharray="" stroke-dashoffset="0" font-family="Pixel" font-weight="normal" text-anchor="start" style="mix-blend-mode: normal"><tspan x="0" dy="0">ACTION</tspan></text><g stroke-width="1.5"><path d="M249.70827,144.54252l-15.61767,-16.90393l-0.20619,-5.48425l5.45083,0.63868l15.61767,16.90393z" data-paper-data="{&quot;origRot&quot;:0}" fill="#b7dce3" stroke="#000000" stroke-linecap="butt"/><path d="M252.33059,142.11971l-17.45504,-18.89263" data-paper-data="{&quot;origRot&quot;:0}" fill="none" stroke="#000000" stroke-linecap="round"/><path d="M251.19633,143.32201l2.35316,-2.17411l4.21481,4.56194c0,0 -0.14727,1.31972 -0.69203,1.82303c-0.37359,0.34517 -1.66113,0.35108 -1.66113,0.35108z" data-paper-data="{&quot;origRot&quot;:0}" fill="#bc752d" stroke="#000000" stroke-linecap="butt"/><path d="M248.01601,147.78006c0,0 -0.89392,0.15537 -1.163,-0.13587c-0.16818,-0.18203 0.04259,-1.07681 0.04259,-1.07681l10.06159,-9.29598c0,0 1.12281,-0.30822 1.31958,-0.09525c0.24049,0.2603 -0.19916,1.30794 -0.19916,1.30794z" data-paper-data="{&quot;origRot&quot;:0}" fill="#000000" stroke="none" stroke-linecap="butt"/></g><g stroke-width="1.5"><path d="M249.45799,163.70781l16.90393,-15.61767l5.48425,-0.20619l-0.63868,5.45083l-16.90393,15.61767z" data-paper-data="{&quot;origRot&quot;:0}" fill="#b7dce3" stroke="#000000" stroke-linecap="butt"/><path d="M251.8808,166.33013l18.89263,-17.45504" data-paper-data="{&quot;origRot&quot;:0}" fill="none" stroke="#000000" stroke-linecap="round"/><path d="M250.6785,165.19587l2.17411,2.35316l-4.56194,4.21481c0,0 -1.31972,-0.14727 -1.82303,-0.69203c-0.34517,-0.37359 -0.35108,-1.66113 -0.35108,-1.66113z" data-paper-data="{&quot;origRot&quot;:0}" fill="#bc752d" stroke="#000000" stroke-linecap="butt"/><path d="M246.22045,162.01555c0,0 -0.15537,-0.89392 0.13587,-1.163c0.18203,-0.16818 1.07681,0.04259 1.07681,0.04259l9.29598,10.06159c0,0 0.30822,1.12281 0.09525,1.31958c-0.2603,0.24049 -1.30794,-0.19916 -1.30794,-0.19916z" data-paper-data="{&quot;origRot&quot;:0}" fill="#000000" stroke="none" stroke-linecap="butt"/></g><g stroke-width="1.5"><path d="M230.54298,144.29224l-16.90393,15.61767l-5.48425,0.20619l0.63868,-5.45083l16.90393,-15.61767z" data-paper-data="{&quot;origRot&quot;:0}" fill="#b7dce3" stroke="#000000" stroke-linecap="butt"/><path d="M228.12017,141.66992l-18.89263,17.45504" data-paper-data="{&quot;origRot&quot;:0}" fill="none" stroke="#000000" stroke-linecap="round"/><path d="M229.32247,142.80418l-2.17411,-2.35316l4.56194,-4.21481c0,0 1.31972,0.14727 1.82303,0.69203c0.34517,0.37359 0.35108,1.66113 0.35108,1.66113z" data-paper-data="{&quot;origRot&quot;:0}" fill="#bc752d" stroke="#000000" stroke-linecap="butt"/><path d="M233.78052,145.9845c0,0 0.15537,0.89392 -0.13587,1.163c-0.18203,0.16818 -1.07681,-0.04259 -1.07681,-0.04259l-9.29598,-10.06159c0,0 -0.30822,-1.12281 -0.09525,-1.31958c0.2603,-0.24049 1.30794,0.19916 1.30794,0.19916z" data-paper-data="{&quot;origRot&quot;:0}" fill="#000000" stroke="none" stroke-linecap="butt"/></g><g stroke-width="1.5"><path d="M230.2927,163.45753l15.61767,16.90393l0.20619,5.48425l-5.45083,-0.63868l-15.61767,-16.90393z" data-paper-data="{&quot;origRot&quot;:0}" fill="#b7dce3" stroke="#000000" stroke-linecap="butt"/><path d="M227.67038,165.88034l17.45504,18.89263" data-paper-data="{&quot;origRot&quot;:0}" fill="none" stroke="#000000" stroke-linecap="round"/><path d="M228.80464,164.67804l-2.35316,2.17411l-4.21481,-4.56194c0,0 0.14727,-1.31972 0.69203,-1.82303c0.37359,-0.34517 1.66113,-0.35108 1.66113,-0.35108z" data-paper-data="{&quot;origRot&quot;:0}" fill="#bc752d" stroke="#000000" stroke-linecap="butt"/><path d="M231.98496,160.21999c0,0 0.89392,-0.15537 1.163,0.13587c0.16818,0.18203 -0.04259,1.07681 -0.04259,1.07681l-10.06159,9.29598c0,0 -1.12281,0.30822 -1.31958,0.09525c-0.24049,-0.2603 0.19916,-1.30794 0.19916,-1.30794z" data-paper-data="{&quot;origRot&quot;:0}" fill="#000000" stroke="none" stroke-linecap="butt"/></g></g></g></svg>