<svg version="1.1" xmlns="http://www.w3.org/2000/svg" xmlns:xlink="http://www.w3.org/1999/xlink" width="506.5" height="381.15" viewBox="0,0,506.5,381.15"><g transform="translate(3.64996,0)"><g data-paper-data="{&quot;isPaintingLayer&quot;:true}" fill-rule="nonzero" stroke-linecap="butt" stroke-linejoin="miter" stroke-miterlimit="10" stroke-dasharray="" stroke-dashoffset="0" style="mix-blend-mode: normal"><path d="M0.00003,360v-360h480v360z" fill="#62605b" stroke="#000000" stroke-width="0"/><path d="M-3.39996,380.9v-70h506v70z" fill-opacity="0.96078" fill="#6e8366" stroke="#9ac38c" stroke-width="0.5"/><path d="M83.60004,312.9v-100h147v100z" fill="#bdae8d" stroke="#9ac38c" stroke-width="0"/><path d="M57.60004,221.9l98,-82l101,82z" fill="#786b4f" stroke="none" stroke-width="0"/><path d="M143.60002,313.9v-41h28v41z" fill="#796556" stroke="#9ac38c" stroke-width="0"/><path d="M147.10002,260.9v-20h20v20z" fill="#8e8a82" stroke="#9ac38c" stroke-width="0"/><path d="M285.13901,314.27013v-13.18182h9.54545v13.18182z" fill="#9bbd7e" stroke="#7d9e62" stroke-width="2"/><path d="M296.04812,292.67922c0,3.64006 -2.74734,6.59091 -6.13636,6.59091c-3.38902,0 -6.13636,-2.95085 -6.13636,-6.59091c0,-3.64006 2.74734,-6.59091 6.13636,-6.59091c3.38902,0 6.13636,2.95085 6.13636,6.59091z" fill="#9bbd7e" stroke="#7d9e62" stroke-width="2"/><path d="M305.59353,314.27013v-13.18182h9.54546v13.18182z" fill="#9bbd7e" stroke="#7d9e62" stroke-width="2"/><path d="M316.50264,292.67922c0,3.64006 -2.74734,6.59091 -6.13636,6.59091c-3.38902,0 -6.13637,-2.95085 -6.13637,-6.59091c0,-3.64006 2.74734,-6.59091 6.13637,-6.59091c3.38902,0 6.13636,2.95085 6.13636,6.59091z" fill="#9bbd7e" stroke="#7d9e62" stroke-width="2"/><path d="M326.04812,314.27013v-13.18182h9.54546v13.18182z" fill="#9bbd7e" stroke="#7d9e62" stroke-width="2"/><path d="M336.95723,292.67922c0,3.64006 -2.74734,6.59091 -6.13636,6.59091c-3.38902,0 -6.13637,-2.95085 -6.13637,-6.59091c0,-3.64006 2.74734,-6.59091 6.13637,-6.59091c3.38902,0 6.13636,2.95085 6.13636,6.59091z" fill="#9bbd7e" stroke="#7d9e62" stroke-width="2"/><path d="M346.50269,314.27013v-13.18182h9.54546v13.18182z" fill="#9bbd7e" stroke="#7d9e62" stroke-width="2"/><path d="M357.41179,292.67922c0,3.64006 -2.74734,6.59091 -6.13636,6.59091c-3.38902,0 -6.13637,-2.95085 -6.13637,-6.59091c0,-3.64006 2.74734,-6.59091 6.13637,-6.59091c3.38902,0 6.13636,2.95085 6.13636,6.59091z" fill="#9bbd7e" stroke="#7d9e62" stroke-width="2"/><path d="M366.95723,314.27013v-13.18182h9.54546v13.18182z" fill="#9bbd7e" stroke="#7d9e62" stroke-width="2"/><path d="M377.86632,292.67922c0,3.64006 -2.74734,6.59091 -6.13636,6.59091c-3.38902,0 -6.13637,-2.95085 -6.13637,-6.59091c0,-3.64006 2.74734,-6.59091 6.13637,-6.59091c3.38902,0 6.13636,2.95085 6.13636,6.59091z" fill="#9bbd7e" stroke="#7d9e62" stroke-width="2"/><path d="M264.68449,314.27013v-13.18182h9.54546v13.18182z" fill="#9bbd7e" stroke="#7d9e62" stroke-width="2"/><path d="M275.59353,292.67922c0,3.64006 -2.74734,6.59091 -6.13636,6.59091c-3.38902,0 -6.13637,-2.95085 -6.13637,-6.59091c0,-3.64006 2.74734,-6.59091 6.13637,-6.59091c3.38902,0 6.13636,2.95085 6.13636,6.59091z" fill="#9bbd7e" stroke="#7d9e62" stroke-width="2"/><path d="M387.41179,314.27013v-13.18182h9.54546v13.18182z" fill="#9bbd7e" stroke="#7d9e62" stroke-width="2"/><path d="M398.32088,292.67922c0,3.64006 -2.74734,6.59091 -6.13636,6.59091c-3.38902,0 -6.13637,-2.95085 -6.13637,-6.59091c0,-3.64006 2.74734,-6.59091 6.13637,-6.59091c3.38902,0 6.13636,2.95085 6.13636,6.59091z" fill="#9bbd7e" stroke="#7d9e62" stroke-width="2"/><text transform="translate(194.00003,80) scale(0.5,0.5)" font-size="40" xml:space="preserve" fill="#ffffff" fill-rule="nonzero" stroke="none" stroke-width="1" stroke-linecap="butt" stroke-linejoin="miter" stroke-miterlimit="10" stroke-dasharray="" stroke-dashoffset="0" font-family="Sans Serif" font-weight="normal" text-anchor="start" style="mix-blend-mode: normal"><tspan x="0" dy="0">有一天，公主被人抓走了</tspan></text><text transform="translate(234.00002,104) scale(0.5,0.5)" font-size="40" xml:space="preserve" fill="#ffffff" fill-rule="nonzero" stroke="none" stroke-width="1" stroke-linecap="butt" stroke-linejoin="miter" stroke-miterlimit="10" stroke-dasharray="" stroke-dashoffset="0" font-family="Sans Serif" font-weight="normal" text-anchor="start" style="mix-blend-mode: normal"><tspan x="0" dy="0">那人说：她再也不回来</tspan></text></g></g></svg>