<svg version="1.1" xmlns="http://www.w3.org/2000/svg" xmlns:xlink="http://www.w3.org/1999/xlink" width="102.75" height="135.48413" viewBox="0,0,102.75,135.48413"><g transform="translate(-188.62499,-111.9534)"><g data-paper-data="{&quot;isPaintingLayer&quot;:true}" fill-rule="nonzero" stroke-linecap="butt" stroke-linejoin="miter" stroke-miterlimit="10" stroke-dasharray="" stroke-dashoffset="0" style="mix-blend-mode: normal"><path d="M205.36574,193.25419v-62h69.25v62z" fill="#838383" stroke="#000000" stroke-width="0.5"/><path d="M227.39131,186.75061v-18.26087h25.21739v18.26087z" fill="#e6e1a5" stroke="#000000" stroke-width="1.5"/><path d="M217.46755,165.09611c-1.41636,-4.28804 -0.55559,-7.91232 3.32551,-12.73326c3.8141,-4.73772 11.26271,-7.89616 20.05164,-7.82792c7.2462,0.05401 12.78979,2.91536 16.74921,6.48898c6.42769,5.80139 6.1223,11.03804 4.82309,14.07219c-8.19538,7.97158 -41.20382,6.54462 -44.94944,0z" fill="#ffd354" stroke="#000000" stroke-width="1.5"/><path d="M232.87143,175.79526c0,-0.82843 0.67157,-1.5 1.5,-1.5c0.82843,0 1.5,0.67157 1.5,1.5c0,0.82843 -0.67157,1.5 -1.5,1.5c-0.82843,0 -1.5,-0.67157 -1.5,-1.5z" fill="#000000" stroke="none" stroke-width="0.5"/><path d="M244.01429,175.6524c0,-0.82843 0.67157,-1.5 1.5,-1.5c0.82843,0 1.5,0.67157 1.5,1.5c0,0.82843 -0.67157,1.5 -1.5,1.5c-0.82843,0 -1.5,-0.67157 -1.5,-1.5z" fill="#000000" stroke="none" stroke-width="0.5"/><path d="M188.875,239.99901c0,-24.85975 0,-106.41629 0,-120.10869c0,-3.81821 3.36827,-7.07779 7.07398,-7.07779c11.1643,0 68.19615,0 88.21739,0c4.3548,0 6.95862,3.25958 6.95862,7.07779c0,13.65276 0,94.77717 0,119.89131c0,4.67224 -3.47339,7.4059 -7.17602,7.4059c-11.10181,0 -67.52679,0 -87.80435,0c-4.54136,0 -7.26963,-2.64899 -7.26963,-7.18851zM274.51667,193.28753v-62h-69.25v61.99669z" fill="#614537" stroke="#000000" stroke-width="0.5"/><text transform="translate(220.401,125.96669) scale(0.32665,0.32665)" font-size="40" xml:space="preserve" fill="#ffffff" fill-rule="nonzero" stroke="none" stroke-width="1" stroke-linecap="butt" stroke-linejoin="miter" stroke-miterlimit="10" stroke-dasharray="" stroke-dashoffset="0" font-family="&quot;Microsoft YaHei&quot;, &quot;微软雅黑&quot;, STXihei, &quot;华文细黑&quot;" font-weight="normal" text-anchor="start" style="mix-blend-mode: normal"><tspan x="0" dy="0">蘑菇怪</tspan></text><path d="M205.13426,225.36582c0,-24.85975 0.07398,-32.11163 0.07398,-32.11163l69.4075,0.13627c0,0 0,6.64383 0,31.75797c0,4.67224 -3.47339,7.40591 -7.17602,7.40591c-11.10181,0 -34.75827,0 -55.03583,0c-4.54136,0 -7.26963,-2.64899 -7.26963,-7.18852z" fill="#614537" stroke="#000000" stroke-width="0.5"/><text transform="translate(207.36574,203.29744) scale(0.23275,0.23275)" font-size="40" xml:space="preserve" fill="#ffffff" fill-rule="nonzero" stroke="none" stroke-width="1" stroke-linecap="butt" stroke-linejoin="miter" stroke-miterlimit="10" stroke-dasharray="" stroke-dashoffset="0" font-family="&quot;Microsoft YaHei&quot;, &quot;微软雅黑&quot;, STXihei, &quot;华文细黑&quot;" font-weight="normal" text-anchor="start" style="mix-blend-mode: normal"><tspan x="0" dy="0">她不想战斗。</tspan></text></g></g></svg>