<svg version="1.1" xmlns="http://www.w3.org/2000/svg" xmlns:xlink="http://www.w3.org/1999/xlink" width="102.75" height="135.48408" viewBox="0,0,102.75,135.48408"><g transform="translate(-188.625,-111.95343)"><g data-paper-data="{&quot;isPaintingLayer&quot;:true}" fill-rule="nonzero" stroke-linecap="butt" stroke-linejoin="miter" stroke-miterlimit="10" stroke-dasharray="" stroke-dashoffset="0" style="mix-blend-mode: normal"><path d="M205.36574,193.25419v-62h69.25v62z" fill="#99877d" stroke="#000000" stroke-width="0.5"/><path d="M188.87501,239.99898c0,-24.85975 0,-106.41629 0,-120.10869c0,-3.81821 3.36827,-7.07779 7.07398,-7.07779c11.1643,0 68.19615,0 88.21739,0c4.3548,0 6.95862,3.25958 6.95862,7.07779c0,13.65276 0,94.77717 0,119.89131c0,4.67224 -3.47339,7.4059 -7.17602,7.4059c-11.10181,0 -67.52679,0 -87.80435,0c-4.54136,0 -7.26963,-2.64899 -7.26963,-7.18851zM274.51668,193.2875v-62h-69.25v61.99669z" fill="#614537" stroke="#000000" stroke-width="0.5"/><path d="M205.13426,225.36582c0,-24.85975 0.07398,-32.11163 0.07398,-32.11163l69.4075,0.13627c0,0 0,6.64383 0,31.75797c0,4.67224 -3.47339,7.40591 -7.17602,7.40591c-11.10181,0 -34.75827,0 -55.03583,0c-4.54136,0 -7.26963,-2.64899 -7.26963,-7.18852z" fill="#614537" stroke="#000000" stroke-width="0.5"/><text transform="translate(220.401,125.96671) scale(0.32665,0.32665)" font-size="40" xml:space="preserve" fill="#ffffff" fill-rule="nonzero" stroke="none" stroke-width="1" stroke-linecap="butt" stroke-linejoin="miter" stroke-miterlimit="10" stroke-dasharray="" stroke-dashoffset="0" font-family="&quot;Microsoft YaHei&quot;, &quot;微软雅黑&quot;, STXihei, &quot;华文细黑&quot;" font-weight="normal" text-anchor="start" style="mix-blend-mode: normal"><tspan x="0" dy="0">升级坊</tspan></text><text transform="translate(207.36574,203.29744) scale(0.23275,0.23275)" font-size="40" xml:space="preserve" fill="#ffffff" fill-rule="nonzero" stroke="none" stroke-width="1" stroke-linecap="butt" stroke-linejoin="miter" stroke-miterlimit="10" stroke-dasharray="" stroke-dashoffset="0" font-family="&quot;Microsoft YaHei&quot;, &quot;微软雅黑&quot;, STXihei, &quot;华文细黑&quot;" font-weight="normal" text-anchor="start" style="mix-blend-mode: normal"><tspan x="0" dy="0">升级你的卡牌！</tspan></text><path d="M220.90218,183.66146c-0.80024,-0.80024 -1.77011,-1.77011 -2.24635,-2.24635c-0.54799,-0.54799 -0.56455,-2.08985 0.26057,-2.91498c2.91712,-2.91712 19.84533,-19.84533 19.84533,-19.84533l4.84024,4.84023c0,0 -16.75834,16.75833 -19.73962,19.73962c-0.87322,0.87322 -2.26233,1.12465 -2.96017,0.42681z" fill="#4f3e34" stroke="#8a7b67" stroke-width="0"/><path d="M245.59425,176.33374c-4.22239,-4.22239 -16.90203,-16.90203 -19.42159,-19.42159c-0.83439,-0.83439 -0.94423,-2.65439 -0.10773,-3.4909c1.84365,-1.84365 9.07503,-9.07503 12.3408,-12.3408c0.99046,-0.99046 2.48873,-0.74357 3.41547,0.18316c2.57767,2.57767 14.85455,14.85454 19.21928,19.21928c1.00639,1.00639 0.8335,2.25533 -0.17289,3.26172c-1.85678,1.85678 -8.88155,8.88155 -12.18907,12.18907c-1.06309,1.06309 -2.24019,1.24414 -3.08427,0.40006z" fill="#4f3e34" stroke="#8a7b67" stroke-width="0"/></g></g></svg>