<svg version="1.1" xmlns="http://www.w3.org/2000/svg" xmlns:xlink="http://www.w3.org/1999/xlink" width="102.75" height="135.48407" viewBox="0,0,102.75,135.48407"><g transform="translate(-188.625,-111.95343)"><g data-paper-data="{&quot;isPaintingLayer&quot;:true}" fill-rule="nonzero" stroke-linecap="butt" stroke-linejoin="miter" stroke-miterlimit="10" stroke-dasharray="" stroke-dashoffset="0" style="mix-blend-mode: normal"><path d="M205.36574,193.25419v-62h69.25v62z" fill="#838383" stroke="#000000" stroke-width="0.5"/><path d="M188.87501,239.99898c0,-24.85975 0,-106.41629 0,-120.10869c0,-3.81821 3.36827,-7.07779 7.07398,-7.07779c11.1643,0 68.19615,0 88.21739,0c4.3548,0 6.95862,3.25958 6.95862,7.07779c0,13.65276 0,94.77717 0,119.89131c0,4.67224 -3.47339,7.4059 -7.17602,7.4059c-11.10181,0 -67.52679,0 -87.80435,0c-4.54136,0 -7.26963,-2.64899 -7.26963,-7.18851zM274.51668,193.2875v-62h-69.25v61.99669z" fill="#614537" stroke="#000000" stroke-width="0.5"/><path d="M205.13426,225.36582c0,-24.85975 0.07398,-32.11163 0.07398,-32.11163l69.4075,0.13627c0,0 0,6.64383 0,31.75797c0,4.67224 -3.47339,7.40591 -7.17602,7.40591c-11.10181,0 -34.75827,0 -55.03583,0c-4.54136,0 -7.26963,-2.64899 -7.26963,-7.18852z" fill="#614537" stroke="#000000" stroke-width="0.5"/><text transform="translate(213.868,125.96672) scale(0.32665,0.32665)" font-size="40" xml:space="preserve" fill="#ffffff" fill-rule="nonzero" stroke="none" stroke-width="1" stroke-linecap="butt" stroke-linejoin="miter" stroke-miterlimit="10" stroke-dasharray="" stroke-dashoffset="0" font-family="&quot;Microsoft YaHei&quot;, &quot;微软雅黑&quot;, STXihei, &quot;华文细黑&quot;" font-weight="normal" text-anchor="start" style="mix-blend-mode: normal"><tspan x="0" dy="0">“绷带”</tspan></text><text transform="translate(207.36574,203.29744) scale(0.23275,0.23275)" font-size="40" xml:space="preserve" fill="#ffffff" fill-rule="nonzero" stroke="none" stroke-width="1" stroke-linecap="butt" stroke-linejoin="miter" stroke-miterlimit="10" stroke-dasharray="" stroke-dashoffset="0" font-family="&quot;Microsoft YaHei&quot;, &quot;微软雅黑&quot;, STXihei, &quot;华文细黑&quot;" font-weight="normal" text-anchor="start" style="mix-blend-mode: normal"><tspan x="0" dy="0">死去的苔藓，能</tspan><tspan x="0" dy="48px">用作绷带，回复</tspan><tspan x="0" dy="48px">6点血量</tspan></text><path d="M231.86667,166.3c0,1.02624 -0.35105,1.70142 -0.81298,2.14564c1.80617,-0.34289 3.69101,-0.48391 5.48761,-0.70788c0.38314,-0.46945 0.90562,-0.82071 1.50436,-0.99069c0.85576,-0.28003 2.12466,-0.34206 3.19058,1.04616c0.02352,0.03024 0.04648,0.06095 0.06885,0.09211c0.34223,0.47044 0.52376,0.91732 0.59483,1.33151c1.98072,-0.41636 3.92163,-1.02396 6.05266,-1.23995c2.07187,-0.20999 4.16496,-0.01022 6.24744,-0.01022h2c0,0 3,0 3,3c0,3 -3,3 -3,3h-2c-0.84444,0 -1.67838,0.03766 -2.50458,0.10166l1.30566,0.26792c0.45694,0.07154 0.87967,0.24621 1.24365,0.49946c0.75152,0.48027 1.59968,1.41173 1.2237,3.08792c-0.01579,0.07467 -0.03435,0.14831 -0.05558,0.22081c-0.45966,1.64441 -1.64196,2.06521 -2.5286,2.13525c-0.11511,0.01341 -0.23221,0.02031 -0.35092,0.02031c-0.49642,0 -0.96467,-0.12057 -1.37708,-0.33403c-6.00541,-0.08472 -10.70088,4.31346 -16.65774,4.98581c0,0 -2.98511,0.29851 -3.28362,-2.6866c-0.29851,-2.98511 2.6866,-3.28362 2.6866,-3.28362c4.66372,-0.38338 8.43251,-2.98632 12.77853,-4.28382c-2.81196,0.43413 -5.59932,0.90607 -8.48001,0.93559c0,0 -2.17135,0 -2.81948,-1.84729c-2.50133,0.12525 -5.38389,0.34201 -6.52907,2.08491c-0.66176,1.00715 -1.12296,2.13262 -1.68443,3.19893c0,0 -1.43656,2.63369 -4.07024,1.19713c-2.63369,-1.43656 -1.19713,-4.07024 -1.19713,-4.07024c0.77186,-1.37813 1.32333,-2.90539 2.31557,-4.1344c1.06609,-1.32049 2.37289,-2.17937 3.81156,-2.76238h-1.16011c-4.77802,-0.18733 -9.2014,3.47166 -12.67358,6.57556c0,0 -2.24223,1.99309 -4.23532,-0.24914c-1.99309,-2.24223 0.24914,-4.23532 0.24914,-4.23532c4.84163,-4.28222 10.11257,-7.93075 16.65976,-8.09111h2c0,0 3,0 3,3z" fill="#53745b" stroke="none" stroke-width="0.5"/><path d="M269.65466,176.51201c1.26378,1.26378 1.02176,2.52757 0.61956,3.34281c-0.4167,0.93362 -1.29643,1.61522 -2.34731,1.75293l-0.72691,0.35892c-3.06359,-0.02994 -3.73635,0.13414 -6.2,2.06667c0,0 -2.4,1.8 -4.2,-0.6c-1.8,-2.4 0.6,-4.2 0.6,-4.2c3.16045,-2.29653 5.15719,-3.0934 8.70931,-3.24114c0.06606,-0.03569 0.13361,-0.06898 0.20254,-0.09974c0.81524,-0.4022 2.07902,-0.64422 3.34281,0.61956z" fill="#53745b" stroke="none" stroke-width="0.5"/></g></g></svg>