<svg version="1.1" xmlns="http://www.w3.org/2000/svg" xmlns:xlink="http://www.w3.org/1999/xlink" width="178.65496" height="179.36569" viewBox="0,0,178.65496,179.36569"><g transform="translate(-150.67252,-90.31715)"><g data-paper-data="{&quot;isPaintingLayer&quot;:true}" fill="#4f3e34" fill-rule="nonzero" stroke="#8a7b67" stroke-width="0" stroke-linecap="butt" stroke-linejoin="miter" stroke-miterlimit="10" stroke-dasharray="" stroke-dashoffset="0" style="mix-blend-mode: normal"><path d="M161.50794,268.02655c-3.29058,-3.29058 -7.27871,-7.27871 -9.237,-9.237c-2.25331,-2.25331 -2.32143,-8.59346 1.07149,-11.98637c11.99519,-11.99519 81.60392,-81.60391 81.60392,-81.60391l19.90302,19.90301c0,0 -68.9102,68.91019 -81.16923,81.16923c-3.59069,3.59069 -9.30268,4.62455 -12.17219,1.75504z"/><path d="M263.04161,237.89503c-17.36243,-17.36243 -69.50105,-69.50105 -79.86147,-79.86147c-3.431,-3.431 -3.88268,-10.91486 -0.44298,-14.35457c7.58106,-7.58106 37.31649,-37.31649 50.74531,-50.74531c4.07277,-4.07277 10.23366,-3.05757 14.04439,0.75316c10.59936,10.59936 61.08182,61.08182 79.02958,79.02958c4.13829,4.13829 3.42736,9.27391 -0.71093,13.41219c-7.63508,7.63508 -36.52091,36.52091 -50.12139,50.12139c-4.37144,4.37144 -9.21164,5.11589 -12.6825,1.64502z"/></g></g></svg>