<svg version="1.1" xmlns="http://www.w3.org/2000/svg" xmlns:xlink="http://www.w3.org/1999/xlink" width="28.5" height="28.5" viewBox="0,0,28.5,28.5"><g transform="translate(-225.75,-165.75)"><g data-paper-data="{&quot;isPaintingLayer&quot;:true}" fill-rule="nonzero" stroke-linecap="butt" stroke-linejoin="miter" stroke-miterlimit="10" stroke-dasharray="" stroke-dashoffset="0" style="mix-blend-mode: normal"><path d="M226.25,192v-24c0,-1.04038 0.69833,-1.75 1.75,-1.75h24c1.04511,0 1.75,0.69647 1.75,1.75v24c0,1.04844 -0.66666,1.75 -1.71857,1.75h-24.03143c-1.05482,0 -1.75,-0.69757 -1.75,-1.75z" fill="#d7d7d7" stroke="#000000" stroke-width="1"/><path d="M238.15934,181.45605c0,-1.01657 0.82409,-1.84066 1.84066,-1.84066c1.01657,0 1.84066,0.82409 1.84066,1.84066c0,1.01657 -0.82409,1.84065 -1.84066,1.84065c-1.01657,0 -1.84066,-0.82408 -1.84066,-1.84065z" fill="#3f2eaa" stroke="#000000" stroke-width="0"/><path d="M233.95617,178.30604c0,0.1231 -0.03031,0.2159 -0.076,0.28584c-0.19041,2.94194 1.02624,7.31704 4.33577,7.90355c0,0 0.49194,0.08944 0.4025,0.58137c-0.08945,0.49194 -0.58138,0.4025 -0.58138,0.4025c-3.94097,-0.73195 -5.45447,-5.72224 -5.1337,-9.21936l0.55281,-0.4539c0,0 0.5,0 0.5,0.5z" fill="#2e90ab" stroke="none" stroke-width="0.5"/><path d="M244.93969,176.26758c0.5,0 0.5,0.5 0.5,0.5l-0.00205,0.2844c0.28573,3.43331 -1.73834,4.85509 -2.89355,7.65516c0,0 -0.19231,0.46154 -0.65385,0.26923c-0.46154,-0.19231 -0.26923,-0.65384 -0.26923,-0.65384c1.1167,-2.65716 3.14804,-3.92883 2.82074,-7.18001l-0.00206,-0.37493c0,0 0,-0.5 0.5,-0.5z" fill="#2e90ab" stroke="none" stroke-width="0.5"/><path d="M249.2254,175.27857c0.5,0 0.5,0.5 0.5,0.5c0,0.23809 0,0.53114 0,0.76924c-0.00395,4.63248 -0.90367,9.96767 -5.6266,12.10526c0,0 -0.45691,0.20307 -0.65998,-0.25383c-0.20307,-0.45691 0.25383,-0.65998 0.25383,-0.65998c4.34337,-1.88579 5.03658,-7.03665 5.03274,-11.19145c0,-0.23809 0,-0.4762 0,-0.71429v-0.05495c0,0 0,-0.5 0.5,-0.5z" fill="#2e90ab" stroke="none" stroke-width="0.5"/><path d="M235.9287,169.23461c0.5,0 0.5,0.5 0.5,0.5l-0.00897,0.14923c-0.71449,3.69537 -0.89275,8.47338 1.08865,11.67664c0,0 0.26205,0.42583 -0.16378,0.68787c-0.42583,0.26205 -0.68788,-0.16378 -0.68788,-0.16378c-2.10548,-3.43737 -1.97472,-8.42817 -1.21904,-12.3893l-0.00897,0.03934c0,0 0,-0.5 0.5,-0.5z" fill="#2e90ab" stroke="none" stroke-width="0.5"/><path d="M241.54277,170.0059c0.49794,-0.04527 0.54322,0.45268 0.54322,0.45268l0.05649,0.627c0.00167,2.39771 -0.9749,4.472 -1.61051,6.80257c0,0 -0.13156,0.48238 -0.61394,0.35082c-0.48238,-0.13156 -0.35082,-0.61394 -0.35082,-0.61394c0.60639,-2.22342 1.57461,-4.22145 1.5763,-6.49413l-0.0534,-0.58178c0,0 -0.04527,-0.49795 0.45268,-0.54322z" fill="#2e90ab" stroke="none" stroke-width="0.5"/><path d="M229.11454,172.64558c0.01718,-0.13057 0.09965,-0.44393 0.49548,-0.44393c0.5,0 0.5,0.5 0.5,0.5l-0.1,0.40989c-0.08874,0.10907 -0.17748,0.21813 -0.26622,0.3272c-0.36476,3.49347 -1.10843,12.78636 3.28419,13.83278c0,0 0.48507,0.12126 0.3638,0.60634c-0.12127,0.48507 -0.60634,0.3638 -0.60634,0.3638c-5.12398,-1.33019 -4.56284,-10.99292 -3.96856,-15.17821c0.09921,-0.13929 0.19843,-0.27858 0.29764,-0.41787z" fill="#2e90ab" stroke="none" stroke-width="0.5"/><path d="M238.29435,188.80574c0.04975,0.49752 -0.44777,0.54727 -0.44777,0.54727l-0.42531,0.02621c-1.07552,0.6162 0.37659,1.52289 1.15821,1.45052c0,0 0.49827,-0.04153 0.53979,0.45675c0.04153,0.49828 -0.45675,0.53979 -0.45675,0.53979c-2.15009,0.16327 -3.47834,-1.97575 -1.58903,-3.38465l0.67359,-0.08367c0,0 0.49752,-0.04975 0.54727,0.44777z" fill="#897dd7" stroke="none" stroke-width="0.5"/><path d="M239.50395,190.23677c-0.44721,0.2236 -0.67082,-0.22361 -0.67082,-0.22361l-0.00773,-0.0335c-0.31877,-0.42719 -0.33101,-0.6808 -0.86374,-0.62418c0,0 -0.5,0 -0.5,-0.5c0,-0.5 0.5,-0.5 0.5,-0.5c0.91625,0.04708 1.12621,0.31066 1.66374,1.02417l0.10215,0.18628c0,0 0.22361,0.44722 -0.2236,0.67082z" fill="#897dd7" stroke="none" stroke-width="0.5"/><path d="M240.25759,190.15851c0.42551,0.46209 1.20194,1.16597 1.64862,0.69411c0.62805,-0.66345 -0.5921,-1.66063 -1.3076,-0.96149l-0.14053,0.1421c0,0 -0.07937,0.07936 -0.20049,0.12528zM239.5949,189.66282c0.01373,-0.19437 0.15607,-0.33671 0.15607,-0.33671l0.18913,-0.18757c3.25573,-2.66831 4.05065,4.39599 0.43605,2.52716c-0.43431,-0.22455 -0.85646,-0.81376 -1.15311,-1.17491c0,0 -0.31662,-0.38698 0.07036,-0.7036c0.10772,-0.08813 0.20999,-0.12175 0.3015,-0.12437z" fill="#897dd7" stroke="none" stroke-width="0.5"/><path d="M238.56343,191.57921c-0.41603,-0.27735 -0.13868,-0.69338 -0.13868,-0.69338l0.21181,-0.31732c0.09158,-0.14652 0.18315,-0.29304 0.27473,-0.43956c0,0 0.265,-0.424 0.689,-0.159c0.424,0.265 0.159,0.689 0.159,0.689c-0.09158,0.14652 -0.18315,0.29304 -0.27473,0.43956l-0.22775,0.34202c0,0 -0.27735,0.41603 -0.69338,0.13868z" fill="#897dd7" stroke="none" stroke-width="0.5"/></g></g></svg>