<svg version="1.1" xmlns="http://www.w3.org/2000/svg" xmlns:xlink="http://www.w3.org/1999/xlink" width="122.50002" height="187.5" viewBox="0,0,122.50002,187.5"><defs><radialGradient cx="240.00049" cy="154" r="43.33867" gradientUnits="userSpaceOnUse" id="color-1"><stop offset="0" stop-color="#f8b870"/><stop offset="1" stop-color="#67503a"/></radialGradient></defs><g transform="translate(-178.74949,-86.25)"><g data-paper-data="{&quot;isPaintingLayer&quot;:true}" fill-rule="nonzero" stroke-linecap="butt" stroke-linejoin="miter" stroke-miterlimit="10" stroke-dasharray="" stroke-dashoffset="0" style="mix-blend-mode: normal"><path d="M179.49951,95.75001c0,-5.00052 3.75336,-8.75 8.75,-8.75h103.5c5.00061,0 8.74997,3.74753 8.75,8.75l0.001,168.25c0.00003,4.99939 -3.74669,8.99999 -8.75102,8.99999l-103.5,0.00001c-5.00277,0 -8.75,-4.00317 -8.75,-9z" fill="#823b3c" stroke="#000000" stroke-width="1.5"/><path d="M196.11386,187.35776c0,-1.90221 6.28685,10.00867 9.8392,10.00867h68.10253c3.54693,0 9.83913,-11.95542 9.83913,-10.00867c0,10.02674 -0.09151,50.27884 -0.09151,58.42575c0,2.98806 -1.9043,6.98177 -6.56483,6.98177c0,0 -61.17368,0.0465 -74.55983,0.0465c-4.62287,0 -6.57229,-4.08852 -6.57229,-7.02802z" fill="#191919" stroke="#000000" stroke-width="0"/><path d="M196.66181,186.96176v-65.923c0,-5.01085 5.38104,-10.3774 10.37714,-10.3774h65.92334c4.98781,0 10.37687,5.3757 10.37687,10.3774v65.923c0,5.01026 -5.36172,10.37695 -10.37687,10.37695h-65.92334c-5.0104,0 -10.37714,-5.37792 -10.37714,-10.37695z" fill="url(#color-1)" stroke="#191919" stroke-width="1"/><path d="M234.87674,184.98197v-57.87781h33.76206v57.87782z" fill="#868686" stroke="#000000" stroke-width="0.5"/><text transform="translate(225.90258,103.52394) scale(0.36591,0.36591)" font-size="40" xml:space="preserve" fill="#ffffff" fill-rule="nonzero" stroke="#000000" stroke-width="1" stroke-linecap="butt" stroke-linejoin="miter" stroke-miterlimit="10" stroke-dasharray="" stroke-dashoffset="0" font-family="&quot;Microsoft YaHei&quot;, &quot;微软雅黑&quot;, STXihei, &quot;华文细黑&quot;" font-weight="normal" text-anchor="start" style="mix-blend-mode: normal"><tspan x="0" dy="0">近身战</tspan></text><text transform="translate(252.2948,267.85839) scale(0.32654,0.32654)" font-size="40" xml:space="preserve" fill="#ffffff" fill-rule="nonzero" stroke="#000000" stroke-width="1" stroke-linecap="butt" stroke-linejoin="miter" stroke-miterlimit="10" stroke-dasharray="" stroke-dashoffset="0" font-family="&quot;Microsoft YaHei&quot;, &quot;微软雅黑&quot;, STXihei, &quot;华文细黑&quot;" font-weight="normal" text-anchor="start" style="mix-blend-mode: normal"><tspan x="0" dy="0">攻击牌</tspan></text><text transform="translate(189.66398,268.21235) scale(0.2977,0.2977)" font-size="40" xml:space="preserve" fill="#ffffff" fill-rule="nonzero" stroke="#000000" stroke-width="1" stroke-linecap="butt" stroke-linejoin="miter" stroke-miterlimit="10" stroke-dasharray="" stroke-dashoffset="0" font-family="Pixel" font-weight="normal" text-anchor="start" style="mix-blend-mode: normal"><tspan x="0" dy="0">ATTACK</tspan></text><text transform="translate(199.01638,209.68443) scale(0.2134,0.2134)" font-size="40" xml:space="preserve" fill="#ffffff" fill-rule="nonzero" stroke="none" stroke-width="1" stroke-linecap="butt" stroke-linejoin="miter" stroke-miterlimit="10" stroke-dasharray="" stroke-dashoffset="0" font-family="&quot;Microsoft YaHei&quot;, &quot;微软雅黑&quot;, STXihei, &quot;华文细黑&quot;" font-weight="normal" text-anchor="start" style="mix-blend-mode: normal"><tspan x="0" dy="0">　 • 造成    点伤害</tspan><tspan x="0" dy="48px">　 • 受到    点真实伤</tspan><tspan x="0" dy="48px">害</tspan></text><path d="M218.26367,135.41069c0,-4.58758 3.71896,-8.30654 8.30653,-8.30654c4.58758,0 8.30654,3.71896 8.30654,8.30654c0,4.58758 -3.71896,8.30654 -8.30654,8.30654c-4.58758,0 -8.30653,-3.71897 -8.30653,-8.30654z" fill="none" stroke="#000000" stroke-width="1.5"/><path d="M230.11382,182.6515c0.461,0.8874 -0.4264,1.3484 -0.4264,1.3484l-0.54106,0.27857c-0.59128,0.25868 -1.18256,0.51737 -1.77384,0.77605l-0.31364,0.18796c-1.79534,1.0259 -3.30598,1.74818 -5.41428,1.88245c0,0 -0.99827,0.05872 -1.057,-0.93955c-0.00338,-0.05741 -0.00326,-0.11172 -0.00003,-0.16309c-0.19248,-0.51649 -0.15653,-2.97082 -0.14542,-3.22707c0.10807,-2.49326 0.94173,-4.34609 1.72386,-6.44321c-0.11694,-0.24439 -0.11694,-0.48354 -0.11694,-0.48354l0.10557,-0.0887c-0.95128,-1.97488 -0.98686,-4.10977 -1.10671,-6.25081c-1.12026,-0.023 -2.23212,-0.11216 -2.82201,-0.16317c-0.59872,-0.05178 -1.40509,0.17764 -1.77892,-0.29289c-0.87336,-1.09926 -0.26403,-4.41377 0.50772,-5.60355c0.14499,-0.85342 0.55538,-1.7894 1.03133,-2.09248c0.11739,-0.36217 0.27313,-0.71248 0.46102,-1.03949c0.59591,-1.03709 1.2416,-1.61115 1.63217,-2.43114c-0.04501,-2.55125 0.0592,-5.07743 0.37176,-7.36404c0.31733,-2.3215 1.2211,-4.64909 1.61166,-6.99247c0,0 0.1644,-0.98639 1.1508,-0.82199c0.9864,0.1644 0.82199,1.15079 0.82199,1.15079c-0.38742,2.32452 -1.29065,4.64158 -1.60378,6.94108c-0.12523,0.91967 -0.21497,1.87934 -0.27364,2.86411c1.2218,-1.1459 2.90341,-1.8359 4.42725,-2.65319c2.81798,-1.51139 6.04356,-3.59291 9.09488,-4.53811c1.20544,-0.37341 2.31013,-0.37746 3.53475,-0.99319l0.98312,-0.10558c0,0 1,0 1,1c0,1 -1,1 -1,1l-0.08869,-0.10557c-1.32717,0.6603 -2.66145,0.74998 -3.96793,1.15043c-2.86716,0.8788 -5.95994,2.93274 -8.61084,4.35452c-1.46553,0.78602 -3.99405,1.60965 -4.65891,3.15823c0,0 -0.14753,0.29507 -0.44259,0.46151c-0.03803,0.67512 -0.15952,1.23508 -0.34229,1.73814c0.06879,3.04183 0.35299,6.11168 0.73717,8.82231c0.02831,0.19976 0.05154,0.40186 0.07085,0.60585c0.05572,-0.01633 0.11056,-0.0374 0.16441,-0.06393c1.21233,-0.59736 1.10939,-2.18329 3.20526,-2.29297h1.07181c0,0 1,0 1,1c0,1 -1,1 -1,1h-1.07181c-1.70986,-0.18887 -0.85836,1.34231 -2.1538,1.99427c-0.25194,0.12679 -0.6449,0.20793 -1.11449,0.25651c0.04611,1.46918 0.07821,2.96051 0.4979,4.3156c7.6702,-1.9351 14.60181,-5.93209 22.40843,-7.47626l0.72638,-0.0183c0,0 1,0 1,1c0,1 -1,1 -1,1l-0.34544,-0.0183c-7.57619,1.43739 -14.32907,5.30343 -21.73093,7.30202c-0.01018,0.045 -0.01889,0.0711 -0.01889,0.0711c-0.59811,1.74525 -0.90497,2.371 -1.67473,3.90697c-0.24674,0.49233 -0.21465,1.08122 -0.28351,1.6276c-0.02448,0.19423 -0.36338,3.71182 -0.32282,3.7467c0.00649,0.00559 0.01303,0.01107 0.0196,0.01644c-0.03441,0.03856 -0.06684,0.07877 -0.09712,0.1207c1.45845,-0.20096 2.55563,-0.79784 3.89153,-1.56122l0.33213,-0.19954c0,0 0.02034,-0.0122 0.05664,-0.02972c0.03531,-0.01943 0.05704,-0.02894 0.05704,-0.02894c0.61077,-0.26721 1.22154,-0.53443 1.83231,-0.80164l0.4207,-0.22106c0,0 0.8874,-0.461 1.3484,0.4264zM220.14838,161.38886c-0.28048,0.44172 -0.31669,0.98207 -0.33114,1.53092c-0.07465,0.00783 -0.17058,0.04668 -0.20565,0.18697c-0.02089,0.08358 -0.00579,0.14556 0.02299,0.1909c-0.01066,-0.00138 -0.02153,-0.00211 -0.03257,-0.00211c-0.06903,0 -0.13154,0.02799 -0.17678,0.07323l-0.18908,0.18909l0.01284,0.01284l-0.03888,0.01775c-0.00156,0.00312 -0.00313,0.00623 -0.0047,0.00933c-0.17695,0.65856 -0.53312,1.23318 -0.97757,1.46917c-0.11819,0.59609 -0.37855,2.49083 -0.36662,2.59174c0.0183,0.15484 0.21048,-0.26999 0.36471,-0.29289c0.86833,-0.12894 1.75536,-0.00442 2.63352,-0.00011c-0.00527,-0.03863 -0.01069,-0.07726 -0.01625,-0.11586c-0.26867,-1.86551 -0.48708,-3.89635 -0.62253,-5.97398c-0.02404,0.03732 -0.04814,0.07498 -0.07229,0.11301z" fill="#000000" stroke="none" stroke-width="0.5"/><path d="" fill="#000000" stroke="none" stroke-width="0.5"/></g></g></svg>