<svg version="1.1" xmlns="http://www.w3.org/2000/svg" xmlns:xlink="http://www.w3.org/1999/xlink" width="47.4077" height="45.90513" viewBox="0,0,47.4077,45.90513"><g transform="translate(-214.08912,-152.04743)"><g data-paper-data="{&quot;isPaintingLayer&quot;:true}" fill-rule="nonzero" stroke-linejoin="miter" stroke-miterlimit="10" stroke-dasharray="" stroke-dashoffset="0" style="mix-blend-mode: normal"><path d="M231.07439,197.6471c0,0 -2.84378,-3.96696 -6.39515,-5.68236c-0.23049,-0.11132 -7.57663,-0.89211 -7.89742,-1.01565c-3.63044,-1.39809 -4.71618,-2.72985 4.03978,-2.73379c8.93202,-0.00403 16.28091,1.71262 16.88081,2.88524c0.22309,0.43605 -3.46072,0.61073 -2.71438,0.97122c3.57881,1.72867 18.51992,5.88075 18.51992,5.88075z" fill="#2a2828" stroke="#000000" stroke-width="0" stroke-linecap="butt"/><path d="M231.47668,197.95255c0,0 5.42562,-18.5262 5.42562,-26.75563c0,-0.53409 -5.1719,-2.78161 -5.85593,-6.09052c-0.74374,-4.80274 0.9452,-12.41687 9.80181,-13.02489c9.0347,-0.62025 12.86971,7.36005 11.02267,13.10835c-0.68682,2.13749 -4.77499,3.86584 -4.77499,5.59534c0,8.29303 6.41208,27.16737 6.41208,27.16737z" fill="#46924a" stroke="#000000" stroke-width="0" stroke-linecap="butt"/><path d="M249.76186,163.59037c0,3.81372 -3.34926,6.90529 -7.48077,6.90529c-4.13151,0 -7.48077,-3.0916 -7.48077,-6.90529c0,-3.81372 3.34926,-6.90532 7.48077,-6.90532c4.13151,0 7.48077,3.09162 7.48077,6.90532z" fill="#756452" stroke="#000000" stroke-width="0" stroke-linecap="butt"/><path d="M249.35982,194.50848c-0.199,-0.199 0,-0.39799 0,-0.39799l0.24086,-0.22239c1.8038,-0.93572 3.32047,-2.50349 4.76245,-3.90869c2.41294,-2.34423 3.67102,-5.17 3.67102,-8.54751c0,0 0,-0.28143 0.28142,-0.28143c0.28142,0 0.28142,0.28143 0.28142,0.28143c0,0 0,0.28142 -0.28142,0.28142c-0.28142,0 -0.28142,-0.28142 -0.28142,-0.28142v-0.07622c0,-1.25114 -0.05809,-2.3915 -0.29291,-3.62423c-0.63207,-3.33674 -2.48484,-6.20501 -3.30442,-9.45229c0,0 -0.06825,-0.27302 0.20477,-0.34127c0.27302,-0.06825 0.34127,0.20477 0.34127,0.20477c0.80627,3.25939 2.67058,6.13639 3.31128,9.48349c0.24111,1.26617 0.30284,2.44472 0.30284,3.72954v0.07622c0,3.53701 -1.32453,6.49025 -3.84104,8.9506c-1.48317,1.4453 -3.0426,3.03929 -4.89561,4.00496l-0.10254,0.12101c0,0 -0.19899,0.199 -0.39798,0z" fill="#000000" stroke="none" stroke-width="0.5" stroke-linecap="butt"/><path d="M250.58902,193.45097l-4.63593,-12.19078l8.92846,-12.36248" fill="none" stroke="#191919" stroke-width="0.5" stroke-linecap="round"/><path d="M260.71939,182.80551l-14.42289,-1.54531" fill="none" stroke="#191919" stroke-width="0.75" stroke-linecap="round"/><path d="M260.37598,181.0885l0.6868,1.88872l-1.2019,1.2019" fill="none" stroke="#191919" stroke-width="0.75" stroke-linecap="round"/></g></g></svg>