<svg version="1.1" xmlns="http://www.w3.org/2000/svg" xmlns:xlink="http://www.w3.org/1999/xlink" width="375.66982" height="226.60817" viewBox="0,0,375.66982,226.60817"><g transform="translate(-52.16509,-66.69592)"><g data-paper-data="{&quot;isPaintingLayer&quot;:true}" fill-rule="nonzero" stroke="#635542" stroke-width="3" stroke-linecap="butt" stroke-linejoin="miter" stroke-miterlimit="10" stroke-dasharray="" stroke-dashoffset="0" style="mix-blend-mode: normal"><path d="M60.80795,290.79938c-4.50953,-0.72929 -7.14286,-8.05354 -7.14286,-8.05354v-81.44133l21.76347,44.40306h329.28572l21.62063,-42.48372v79.41036c0,0 -0.37379,7.39763 -5.66667,8.23215c-5.29288,0.83452 -18.09681,0.93773 -18.09681,0.93773h-326.42858c0,0 -10.82537,-0.27542 -15.3349,-1.00471z" fill="#977051"/><path d="M60.80795,241.8386c-4.50953,-2.80838 -7.14286,-10.1294 -7.14286,-10.1294v-150.03076c0,0 1.69439,-6.39579 6.33334,-9.26962c4.63894,-2.87383 15.43013,-4.2129 15.43013,-4.2129h329.28572c0,0 11.05744,1.27659 15.62063,4.2129c4.56318,2.93631 6,9.69951 6,9.69951v149.17098c0,0 -0.37379,7.60359 -5.66667,10.81722c-5.29288,3.21364 -18.09681,3.61105 -18.09681,3.61105h-326.42858c0,0 -10.82537,-1.06061 -15.3349,-3.86899z" fill="#b1804f"/></g></g></svg>