<svg version="1.1" xmlns="http://www.w3.org/2000/svg" xmlns:xlink="http://www.w3.org/1999/xlink" width="102.75" height="135.48407" viewBox="0,0,102.75,135.48407"><g transform="translate(-188.625,-111.95344)"><g data-paper-data="{&quot;isPaintingLayer&quot;:true}" fill-rule="nonzero" stroke-linejoin="miter" stroke-miterlimit="10" stroke-dasharray="" stroke-dashoffset="0" style="mix-blend-mode: normal"><path d="M205.36574,193.2542v-62h69.25v62z" fill="#d2c4c4" stroke="#000000" stroke-width="0.5" stroke-linecap="butt"/><path d="M205.71057,193.2542v-11.33781c0,0 14.93187,-4.52185 32.89111,-4.33581c18.68253,0.19354 35.48127,4.76292 35.48127,4.76292v10.71655z" data-paper-data="{&quot;index&quot;:null}" fill="#a2a2a2" stroke="#747474" stroke-width="0" stroke-linecap="round"/><path d="M188.87501,239.99899c0,-24.85975 0,-106.41629 0,-120.10869c0,-3.81821 3.36827,-7.07779 7.07398,-7.07779c11.1643,0 68.19615,0 88.21739,0c4.3548,0 6.95862,3.25958 6.95862,7.07779c0,13.65276 0,94.77717 0,119.89131c0,4.67224 -3.47339,7.4059 -7.17602,7.4059c-11.10181,0 -67.52679,0 -87.80435,0c-4.54136,0 -7.26963,-2.64899 -7.26963,-7.18851zM274.51668,193.28751v-62h-69.25v61.99669z" fill="#614537" stroke="#000000" stroke-width="0.5" stroke-linecap="butt"/><path d="M205.13426,225.36583c0,-24.85975 0.07398,-32.11163 0.07398,-32.11163l69.4075,0.13627c0,0 0,6.64383 0,31.75797c0,4.67224 -3.47339,7.40591 -7.17602,7.40591c-11.10181,0 -34.75827,0 -55.03583,0c-4.54136,0 -7.26963,-2.64899 -7.26963,-7.18852z" fill="#614537" stroke="#000000" stroke-width="0.5" stroke-linecap="butt"/><text transform="translate(207.36574,203.29745) scale(0.23275,0.23275)" font-size="40" xml:space="preserve" fill="#ffffff" fill-rule="nonzero" stroke="none" stroke-width="1" stroke-linecap="butt" stroke-linejoin="miter" stroke-miterlimit="10" stroke-dasharray="" stroke-dashoffset="0" font-family="&quot;Microsoft YaHei&quot;, &quot;微软雅黑&quot;, STXihei, &quot;华文细黑&quot;" font-weight="normal" text-anchor="start" style="mix-blend-mode: normal"><tspan x="0" dy="0">获得祝福。</tspan></text><text transform="translate(220.401,125.96673) scale(0.32665,0.32665)" font-size="40" xml:space="preserve" fill="#ffffff" fill-rule="nonzero" stroke="none" stroke-width="1" stroke-linecap="butt" stroke-linejoin="miter" stroke-miterlimit="10" stroke-dasharray="" stroke-dashoffset="0" font-family="&quot;Microsoft YaHei&quot;, &quot;微软雅黑&quot;, STXihei, &quot;华文细黑&quot;" font-weight="normal" text-anchor="start" style="mix-blend-mode: normal"><tspan x="0" dy="0">许愿池</tspan></text><path d="M269.04446,177.90246c0,0 -4.89454,-5.65951 -30.22024,-5.87378c-23.56213,-0.19935 -28.44243,6.31784 -28.44243,6.31784l-0.90683,1.14447v-14.62025c0,0 10.27679,-6.64881 29.56162,-6.7777c22.71555,0.06682 31.30253,6.7777 31.30253,6.7777l0.18592,14.18079z" data-paper-data="{&quot;index&quot;:null}" fill="#737373" stroke="#747474" stroke-width="1" stroke-linecap="round"/><path d="M270.50813,172.24848c0,4.61602 -13.66274,8.35804 -30.51658,8.35804c-16.85385,0 -30.51658,-3.74202 -30.51658,-8.35804c0,-4.61602 13.66273,-8.35805 30.51658,-8.35805c16.85385,0 30.51658,3.74203 30.51658,8.35805z" fill="#73d7eb" stroke="#747474" stroke-width="0" stroke-linecap="butt"/><path d="M270.50813,167.7779v13.99487c0,0 -14.90832,5.96721 -31.48845,6.21994c-15.93822,0.24295 -29.18977,-5.66217 -29.18977,-5.66217v-14.80617l0.90682,1.3304c0,0 4.50846,6.14534 28.07059,5.94599c25.3257,-0.21427 30.22023,-5.87378 30.22023,-5.87378z" fill="#737373" stroke="#747474" stroke-width="2" stroke-linecap="round"/><path d="M270.50813,166.41729c0,4.61602 -13.66274,8.35804 -30.51658,8.35804c-16.85385,0 -30.51658,-3.74202 -30.51658,-8.35804c0,-4.61602 13.66273,-8.35805 30.51658,-8.35805c16.85385,0 30.51658,3.74203 30.51658,8.35805z" fill="none" stroke="#d9d9d9" stroke-width="2" stroke-linecap="butt"/></g></g></svg>