<svg version="1.1" xmlns="http://www.w3.org/2000/svg" xmlns:xlink="http://www.w3.org/1999/xlink" width="28.5" height="28.5" viewBox="0,0,28.5,28.5"><defs><linearGradient x1="233.11085" y1="180" x2="233.11085" y2="188.4" gradientUnits="userSpaceOnUse" id="color-1"><stop offset="0" stop-color="#000000"/><stop offset="1" stop-color="#000000"/></linearGradient><linearGradient x1="233.1623" y1="183.84697" x2="233.1623" y2="184.34697" gradientUnits="userSpaceOnUse" id="color-2"><stop offset="0" stop-color="#000000"/><stop offset="1" stop-color="#000000"/></linearGradient><linearGradient x1="233.11149" y1="180.79523" x2="233.11149" y2="187.50952" gradientUnits="userSpaceOnUse" id="color-3"><stop offset="0" stop-color="#000000"/><stop offset="1" stop-color="#000000"/></linearGradient><linearGradient x1="246.61774" y1="180" x2="246.61774" y2="188.4" gradientUnits="userSpaceOnUse" id="color-4"><stop offset="0" stop-color="#000000"/><stop offset="1" stop-color="#000000"/></linearGradient><linearGradient x1="246.66919" y1="183.84697" x2="246.66919" y2="184.34697" gradientUnits="userSpaceOnUse" id="color-5"><stop offset="0" stop-color="#000000"/><stop offset="1" stop-color="#000000"/></linearGradient><linearGradient x1="246.61838" y1="180.79523" x2="246.61838" y2="187.50952" gradientUnits="userSpaceOnUse" id="color-6"><stop offset="0" stop-color="#000000"/><stop offset="1" stop-color="#000000"/></linearGradient><linearGradient x1="239.99943" y1="171.6" x2="239.99943" y2="180" gradientUnits="userSpaceOnUse" id="color-7"><stop offset="0" stop-color="#000000"/><stop offset="1" stop-color="#000000"/></linearGradient><linearGradient x1="240.05087" y1="175.44697" x2="240.05087" y2="175.94697" gradientUnits="userSpaceOnUse" id="color-8"><stop offset="0" stop-color="#000000"/><stop offset="1" stop-color="#000000"/></linearGradient><linearGradient x1="240.00006" y1="172.39523" x2="240.00006" y2="179.10952" gradientUnits="userSpaceOnUse" id="color-9"><stop offset="0" stop-color="#000000"/><stop offset="1" stop-color="#000000"/></linearGradient></defs><g transform="translate(-225.75,-165.75)"><g data-paper-data="{&quot;isPaintingLayer&quot;:true}" fill-rule="nonzero" stroke-linejoin="miter" stroke-miterlimit="10" stroke-dasharray="" stroke-dashoffset="0" style="mix-blend-mode: normal"><path d="M226.25,192v-24c0,-1.04038 0.69833,-1.75 1.75,-1.75h24c1.04511,0 1.75,0.69647 1.75,1.75v24c0,1.04844 -0.66666,1.75 -1.71857,1.75h-24.03143c-1.05482,0 -1.75,-0.69757 -1.75,-1.75z" fill="#85d498" stroke="#000000" stroke-width="1" stroke-linecap="butt"/><g fill="none" stroke-linecap="round"><path d="M229.73649,180h6.75c0,0 -0.0015,4.55292 -0.65,5.95595c-0.62935,1.36182 -2.725,2.44405 -2.725,2.44405c0,0 -2.09596,-1.08516 -2.725,-2.44405c-0.67581,-1.45992 -0.65,-5.95595 -0.65,-5.95595z" stroke="url(#color-1)" stroke-width="0.75"/><path d="M235.51944,184.09697h-4.71428" stroke="url(#color-2)" stroke-width="0.5"/><path d="M233.11149,187.50952v-6.71429" stroke="url(#color-3)" stroke-width="0.5"/></g><g fill="none" stroke-linecap="round"><path d="M243.24338,180h6.75c0,0 -0.0015,4.55292 -0.65,5.95595c-0.62935,1.36182 -2.725,2.44405 -2.725,2.44405c0,0 -2.09596,-1.08516 -2.725,-2.44405c-0.67581,-1.45992 -0.65,-5.95595 -0.65,-5.95595z" stroke="url(#color-4)" stroke-width="0.75"/><path d="M249.02633,184.09697h-4.71429" stroke="url(#color-5)" stroke-width="0.5"/><path d="M246.61838,187.50952v-6.71429" stroke="url(#color-6)" stroke-width="0.5"/></g><g fill="none" stroke-linecap="round"><path d="M236.62506,171.6h6.75c0,0 -0.0015,4.55292 -0.65,5.95595c-0.62935,1.36182 -2.725,2.44405 -2.725,2.44405c0,0 -2.09596,-1.08516 -2.725,-2.44405c-0.67581,-1.45992 -0.65,-5.95595 -0.65,-5.95595z" stroke="url(#color-7)" stroke-width="0.75"/><path d="M242.40801,175.69697h-4.71428" stroke="url(#color-8)" stroke-width="0.5"/><path d="M240.00006,179.10952v-6.71428" stroke="url(#color-9)" stroke-width="0.5"/></g></g></g></svg>