<svg version="1.1" xmlns="http://www.w3.org/2000/svg" xmlns:xlink="http://www.w3.org/1999/xlink" width="102.75" height="135.48407" viewBox="0,0,102.75,135.48407"><g transform="translate(-188.625,-111.95343)"><g data-paper-data="{&quot;isPaintingLayer&quot;:true}" fill-rule="nonzero" stroke-linecap="butt" stroke-linejoin="miter" stroke-miterlimit="10" stroke-dasharray="" stroke-dashoffset="0" style="mix-blend-mode: normal"><path d="M205.36574,193.25419v-62h69.25v62z" fill="#838383" stroke="#000000" stroke-width="0.5"/><path d="M188.87501,239.99898c0,-24.85975 0,-106.41629 0,-120.10869c0,-3.81821 3.36827,-7.07779 7.07398,-7.07779c11.1643,0 68.19615,0 88.21739,0c4.3548,0 6.95862,3.25958 6.95862,7.07779c0,13.65276 0,94.77717 0,119.89131c0,4.67224 -3.47339,7.4059 -7.17602,7.4059c-11.10181,0 -67.52679,0 -87.80435,0c-4.54136,0 -7.26963,-2.64899 -7.26963,-7.18851zM274.51668,193.2875v-62h-69.25v61.99669z" fill="#614537" stroke="#000000" stroke-width="0.5"/><path d="M205.13426,225.36582c0,-24.85975 0.07398,-32.11163 0.07398,-32.11163l69.4075,0.13627c0,0 0,6.64383 0,31.75797c0,4.67224 -3.47339,7.40591 -7.17602,7.40591c-11.10181,0 -34.75827,0 -55.03583,0c-4.54136,0 -7.26963,-2.64899 -7.26963,-7.18852z" fill="#614537" stroke="#000000" stroke-width="0.5"/><text transform="translate(213.868,125.96672) scale(0.32665,0.32665)" font-size="40" xml:space="preserve" fill="#ffffff" fill-rule="nonzero" stroke="none" stroke-width="1" stroke-linecap="butt" stroke-linejoin="miter" stroke-miterlimit="10" stroke-dasharray="" stroke-dashoffset="0" font-family="&quot;Microsoft YaHei&quot;, &quot;微软雅黑&quot;, STXihei, &quot;华文细黑&quot;" font-weight="normal" text-anchor="start" style="mix-blend-mode: normal"><tspan x="0" dy="0">“绷带”</tspan></text><text transform="translate(207.36574,203.29744) scale(0.23275,0.23275)" font-size="40" xml:space="preserve" fill="#ffffff" fill-rule="nonzero" stroke="none" stroke-width="1" stroke-linecap="butt" stroke-linejoin="miter" stroke-miterlimit="10" stroke-dasharray="" stroke-dashoffset="0" font-family="&quot;Microsoft YaHei&quot;, &quot;微软雅黑&quot;, STXihei, &quot;华文细黑&quot;" font-weight="normal" text-anchor="start" style="mix-blend-mode: normal"><tspan x="0" dy="0">死去的藤蔓，能</tspan><tspan x="0" dy="48px">用作绷带，回复</tspan><tspan x="0" dy="48px">12点血量</tspan></text><path d="M240.49457,176.32317c1.90082,-0.23755 3.80359,-0.45989 5.70748,-0.67148c0,0 2.98165,-0.3313 3.31294,2.65035c0.2284,2.05555 -1.11777,2.85146 -1.97603,3.14758c2.83469,0.51884 5.76592,0.73434 8.26383,1.2449l0.06388,-0.06118c0,0 3,0 3,3c0,3 -3,3 -3,3l-1.26945,-0.06118c-6.10971,-1.25789 -13.49976,-1.36 -18.6116,-5.6018c-1.41732,-1.17609 -1.95453,-3.2043 -3.37942,-4.37119c-1.29357,-1.05935 -2.78165,-1.88783 -4.3099,-2.56607c-3.2874,-1.45896 -6.71933,-1.9879 -9.91804,-3.79502c0,0 -2.60473,-1.48842 -1.11631,-4.09314c1.48842,-2.60473 4.09314,-1.11631 4.09314,-1.11631c1.89329,1.09726 3.87812,1.65997 5.86953,2.2714c3.32513,0 6.65025,0 9.97538,0l2.00831,0.65005c0,0 2.68328,1.34164 1.34164,4.02492c-0.737,1.474 -1.87884,1.73343 -2.75836,1.6679c0.40277,0.64082 0.77416,1.31155 1.23493,1.89689z" fill="#53745b" stroke="none" stroke-width="0.5"/><path d="M250.86667,176.63333c0,-1.65686 1.34314,-3 3,-3c1.65686,0 3,1.34314 3,3c0,1.65686 -1.34314,3 -3,3c-1.65686,0 -3,-1.34314 -3,-3z" fill="#53745b" stroke="none" stroke-width="0.5"/><path d="M244.53334,174.3c-3,0 -3,-3 -3,-3l0.08957,-0.27239c-0.44444,-1.77778 -0.88889,-3.55556 -1.33333,-5.33333c0,0 -0.30313,-1.2125 0.26454,-2.26794c-0.2914,-0.18495 -0.59016,-0.36948 -0.8976,-0.55386c0,0 -2.57248,-1.54349 -1.02899,-4.11597c1.54349,-2.57248 4.11597,-1.02899 4.11597,-1.02899c2.73123,1.63954 4.94132,3.36585 7.26663,5.23589c1.14789,-1.9508 3.4719,-1.17613 3.4719,-1.17613c0.96249,0.32083 1.92498,0.64166 2.88748,0.96249c0.26374,-0.07582 0.54238,-0.11644 0.83051,-0.11644c0.37917,0 0.74191,0.07034 1.07588,0.19869c0.86059,0.2924 1.92412,1.01509 1.92412,2.80131c0,1.78622 -1.06353,2.50891 -1.92412,2.80131c-0.3027,0.11633 -0.62903,0.18501 -0.9698,0.19685c3.19157,2.5061 6.04053,5.19544 7.70291,9.2818l0.19101,1.72004c0,0 0,3 -3,3c-3,0 -3,-3 -3,-3l0.19101,0.3867c-1.58368,-4.92954 -7.15896,-7.59107 -11.01199,-10.66925c-0.42559,-0.34001 -0.83743,-0.67263 -1.24037,-0.99886c0.10171,0.40682 0.20341,0.81364 0.30512,1.22047l0.08957,1.72761c0,0 0,3 -3,3z" fill="#53745b" stroke="none" stroke-width="0.5"/><path d="M228.53334,183.63333c-1.78622,0 -2.50891,-1.06353 -2.80131,-1.92412c-0.12835,-0.33397 -0.19869,-0.69671 -0.19869,-1.07588c0,-1 0,-2.33333 0,-3.33333c0,0 0,-3 3,-3c3,0 3,3 3,3c0,1 0,2 0,3v0.33333c0,0.37917 -0.07034,0.74191 -0.19869,1.07588c-0.2924,0.86059 -1.01509,1.92412 -2.80131,1.92412z" fill="#53745b" stroke="none" stroke-width="0.5"/><path d="M240.4724,192.54376c-2.35507,-0.58877 -2.32804,-2.60679 -2.23197,-3.3555c-1.00375,-1.10431 -1.94465,-2.26786 -2.81496,-3.47788c0,0 -1.74371,-2.4412 0.69749,-4.18491c2.4412,-1.74371 4.18491,0.69749 4.18491,0.69749c0.99842,1.40938 2.12065,2.73926 3.34679,3.95573l0.45577,4.18226c0,0 -0.72761,2.91043 -3.63803,2.18282z" fill="#53745b" stroke="none" stroke-width="0.5"/><path d="M222.53334,185.63333c0,0.86951 -0.36992,1.65262 -0.96096,2.20054c-0.62985,0.62973 -1.72155,1.25928 -3.27508,0.5338c-0.06705,-0.03036 -0.13278,-0.06311 -0.19709,-0.09814c-1.36811,-0.72455 -1.63126,-1.81021 -1.57958,-2.66437c-0.83696,-1.05496 -1.64519,-2.13312 -2.42849,-3.22812c0,0 -1.74371,-2.4412 0.69749,-4.18491c2.4412,-1.74371 4.18491,0.69749 4.18491,0.69749c1.01486,1.42308 2.07671,2.81467 3.1968,4.15649l0.01363,1.18278c0.22239,0.41901 0.34837,0.89701 0.34837,1.40444z" fill="#53745b" stroke="none" stroke-width="0.5"/><path d="M219.53334,171.3c-0.22952,0 -0.45301,-0.02577 -0.66775,-0.07458l-1.37102,-0.28191c-0.88889,-0.11111 -1.77778,-0.22222 -2.66667,-0.33333c0,0 -2.97683,-0.3721 -2.60473,-3.34894c0.3721,-2.97683 3.34894,-2.60473 3.34894,-2.60473c0.88889,0.11111 1.77778,0.22222 2.66667,0.33333l1.81553,0.35524c0.0555,0.00972 0.11048,0.02096 0.16489,0.03369c0.19321,-0.04675 0.31618,-0.06041 0.31618,-0.06041c1.58366,-0.17365 3.17591,-0.29152 4.76909,-0.3341c0.60063,-0.47101 2.30874,-1.51368 4.01685,0.19443c2.12132,2.12132 0,4.24264 0,4.24264l-2.78799,1.54535c-1.78155,-0.00327 -3.56503,0.1154 -5.33537,0.31498c0,0 -0.42343,0.04705 -0.96889,-0.05388c-0.06747,0.01261 -0.13386,0.02292 -0.19876,0.03126c-0.16165,0.02695 -0.32768,0.04097 -0.49698,0.04097z" fill="#53745b" stroke="none" stroke-width="0.5"/></g></g></svg>