<svg version="1.1" xmlns="http://www.w3.org/2000/svg" xmlns:xlink="http://www.w3.org/1999/xlink" width="117.86749" height="142.5652" viewBox="0,0,117.86749,142.5652"><g transform="translate(-181.0663,-109.78884)"><g data-paper-data="{&quot;isPaintingLayer&quot;:true}" fill="#5b4535" fill-rule="nonzero" stroke="#000000" stroke-width="0" stroke-linecap="butt" stroke-linejoin="miter" stroke-miterlimit="10" stroke-dasharray="" stroke-dashoffset="0" style="mix-blend-mode: normal"><path d="M212.42193,248.19753c-1.05014,-6.51296 -18.66502,-68.33054 -30.81109,-111.75518c-0.7885,-2.81904 -1.4861,-5.24239 3.73846,-6.47738c5.60392,-1.32466 46.34625,-10.95545 75.74168,-17.90403c2.4189,-0.57178 5.48192,0.77202 6.29093,3.6644c12.23345,43.73709 29.671,106.07984 31.4546,112.45653c0.59452,2.12555 -1.63245,5.37005 -4.05135,5.94183c-7.2567,1.71537 -47.33953,11.19023 -76.56501,18.09864c-2.0379,0.48173 -5.18942,-0.24891 -5.79823,-4.02478z"/><path d="M209.81959,230.49442c0.74726,-6.5482 0.43322,-70.4509 0.43322,-115.28813c0,-2.91074 -0.01915,-5.41745 5.37537,-5.41745c5.7862,0 47.85388,0 78.20554,0c2.49758,0 5.10007,2.00272 5.10007,4.98917c0,45.15983 0,109.53057 0,116.1147c0,2.19469 -3.03571,4.82714 -5.5333,4.82714c-7.49275,0 -48.87945,0 -79.05564,0c-2.10419,0 -4.95849,-1.42911 -4.52526,-5.22541z"/></g></g></svg>