<svg version="1.1" xmlns="http://www.w3.org/2000/svg" xmlns:xlink="http://www.w3.org/1999/xlink" width="102.75" height="135.48411" viewBox="0,0,102.75,135.48411"><g transform="translate(-188.62499,-111.95343)"><g data-paper-data="{&quot;isPaintingLayer&quot;:true}" fill-rule="nonzero" stroke-linejoin="miter" stroke-miterlimit="10" stroke-dasharray="" stroke-dashoffset="0" style="mix-blend-mode: normal"><path d="M205.36574,193.2542v-62h69.25v62z" fill="#838383" stroke="#000000" stroke-width="0.5" stroke-linecap="butt"/><path d="M231.07439,197.6471c0,0 -2.84378,-3.96696 -6.39515,-5.68236c-0.23049,-0.11132 -7.57663,-0.89211 -7.89742,-1.01565c-3.63044,-1.39809 -4.71618,-2.72985 4.03978,-2.73379c8.93202,-0.00403 16.28091,1.71262 16.88081,2.88524c0.22309,0.43605 -3.46072,0.61073 -2.71438,0.97122c3.57881,1.72867 18.51992,5.88075 18.51992,5.88075z" fill="#2a2828" stroke="#000000" stroke-width="0" stroke-linecap="butt"/><path d="M231.47668,197.95254c0,0 5.42562,-18.5262 5.42562,-26.75563c0,-0.53409 -5.1719,-2.78161 -5.85593,-6.09052c-0.74374,-4.80274 0.9452,-12.41687 9.80181,-13.02489c9.0347,-0.62025 12.86971,7.36005 11.02267,13.10835c-0.68682,2.13749 -4.77499,3.86584 -4.77499,5.59534c0,8.29303 6.41208,27.16737 6.41208,27.16737z" fill="#46924a" stroke="#000000" stroke-width="0" stroke-linecap="butt"/><path d="M249.76186,163.59037c0,3.81372 -3.34926,6.90529 -7.48077,6.90529c-4.13151,0 -7.48077,-3.0916 -7.48077,-6.90529c0,-3.81372 3.34926,-6.90532 7.48077,-6.90532c4.13151,0 7.48077,3.09162 7.48077,6.90532z" fill="#756452" stroke="#000000" stroke-width="0" stroke-linecap="butt"/><path d="M249.35982,194.50848c-0.199,-0.199 0,-0.39799 0,-0.39799l0.24086,-0.22239c1.8038,-0.93572 3.32047,-2.50349 4.76245,-3.90869c2.41294,-2.34423 3.67102,-5.17 3.67102,-8.54751c0,0 0,-0.28143 0.28142,-0.28143c0.28142,0 0.28142,0.28143 0.28142,0.28143c0,0 0,0.28142 -0.28142,0.28142c-0.28142,0 -0.28142,-0.28142 -0.28142,-0.28142v-0.07622c0,-1.25114 -0.05809,-2.3915 -0.29291,-3.62423c-0.63207,-3.33674 -2.48484,-6.20501 -3.30442,-9.45229c0,0 -0.06825,-0.27302 0.20477,-0.34127c0.27302,-0.06825 0.34127,0.20477 0.34127,0.20477c0.80627,3.25939 2.67058,6.13639 3.31128,9.48349c0.24111,1.26617 0.30285,2.44472 0.30285,3.72954v0.07622c0,3.53701 -1.32454,6.49025 -3.84105,8.9506c-1.48318,1.4453 -3.0426,3.03929 -4.89561,4.00496l-0.10254,0.12101c0,0 -0.19899,0.199 -0.39799,0z" fill="#000000" stroke="none" stroke-width="0.5" stroke-linecap="butt"/><path d="M250.58902,193.45097l-4.63593,-12.19078l8.92846,-12.36248" fill="none" stroke="#191919" stroke-width="0.5" stroke-linecap="round"/><path d="M260.71939,182.80551l-14.4229,-1.54531" fill="none" stroke="#191919" stroke-width="0.75" stroke-linecap="round"/><path d="M260.37598,181.0885l0.6868,1.88872l-1.2019,1.2019" fill="none" stroke="#191919" stroke-width="0.75" stroke-linecap="round"/><path d="M188.875,239.99902c0,-24.85975 0,-106.41629 0,-120.10869c0,-3.81821 3.36827,-7.07779 7.07398,-7.07779c11.1643,0 68.19615,0 88.21739,0c4.3548,0 6.95862,3.25958 6.95862,7.07779c0,13.65276 0,94.77717 0,119.89131c0,4.67224 -3.47339,7.4059 -7.17602,7.4059c-11.10181,0 -67.52679,0 -87.80435,0c-4.54136,0 -7.26963,-2.64899 -7.26963,-7.18851zM274.51667,193.28754v-62h-69.25v61.99669z" fill="#614537" stroke="#000000" stroke-width="0.5" stroke-linecap="butt"/><path d="M205.13426,225.36583c0,-24.85975 0.07398,-32.11163 0.07398,-32.11163l69.4075,0.13627c0,0 0,6.64383 0,31.75797c0,4.67224 -3.47339,7.40591 -7.17602,7.40591c-11.10181,0 -34.75827,0 -55.03583,0c-4.54136,0 -7.26963,-2.64899 -7.26963,-7.18852z" fill="#614537" stroke="#000000" stroke-width="0.5" stroke-linecap="butt"/><text transform="translate(207.36574,203.29745) scale(0.23275,0.23275)" font-size="40" xml:space="preserve" fill="#ffffff" fill-rule="nonzero" stroke="none" stroke-width="1" stroke-linecap="butt" stroke-linejoin="miter" stroke-miterlimit="10" stroke-dasharray="" stroke-dashoffset="0" font-family="&quot;Microsoft YaHei&quot;, &quot;微软雅黑&quot;, STXihei, &quot;华文细黑&quot;" font-weight="normal" text-anchor="start" style="mix-blend-mode: normal"><tspan x="0" dy="0">真猎人猎鬼，</tspan><tspan x="0" dy="48px">假猎人猎人。</tspan><tspan x="0" dy="48px">黑的是尾巴。</tspan></text><text transform="translate(213.868,125.96672) scale(0.32665,0.32665)" font-size="40" xml:space="preserve" fill="#ffffff" fill-rule="nonzero" stroke="none" stroke-width="1" stroke-linecap="butt" stroke-linejoin="miter" stroke-miterlimit="10" stroke-dasharray="" stroke-dashoffset="0" font-family="&quot;Microsoft YaHei&quot;, &quot;微软雅黑&quot;, STXihei, &quot;华文细黑&quot;" font-weight="normal" text-anchor="start" style="mix-blend-mode: normal"><tspan x="0" dy="0">“猎人”</tspan></text></g></g></svg>