<svg version="1.1" xmlns="http://www.w3.org/2000/svg" xmlns:xlink="http://www.w3.org/1999/xlink" width="128.00855" height="193.39224" viewBox="0,0,128.00855,193.39224"><defs><radialGradient cx="240.00049" cy="153.99999" r="43.33867" gradientUnits="userSpaceOnUse" id="color-1"><stop offset="0" stop-color="#f8b870"/><stop offset="1" stop-color="#67503a"/></radialGradient></defs><g transform="translate(-173.24096,-80.35776)"><g data-paper-data="{&quot;isPaintingLayer&quot;:true}" fill-rule="nonzero" stroke-linejoin="miter" stroke-miterlimit="10" stroke-dasharray="" stroke-dashoffset="0" style="mix-blend-mode: normal"><path d="M201.82399,87h89.92552c5.00061,0 8.74997,3.74753 8.75,8.75l0.001,168.25c0.00003,4.99939 -3.74669,8.99999 -8.75102,8.99999l-103.5,0.00001c-5.00277,0 -8.75,-4.00317 -8.75,-9l0.00002,-150.35728z" fill="#7f633f" stroke="#000000" stroke-width="1.5" stroke-linecap="butt"/><path d="M196.11386,187.35775c0,-1.90221 6.28685,10.00867 9.8392,10.00867h68.10253c3.54693,0 9.83913,-11.95542 9.83913,-10.00867c0,10.02674 -0.09151,50.27884 -0.09151,58.42575c0,2.98806 -1.9043,6.98177 -6.56483,6.98177c0,0 -61.17368,0.0465 -74.55983,0.0465c-4.62287,0 -6.57229,-4.08852 -6.57229,-7.02802z" fill="#191919" stroke="#000000" stroke-width="0" stroke-linecap="butt"/><path d="M196.66181,186.96175v-65.923c0,-5.01085 5.38104,-10.3774 10.37714,-10.3774h65.92334c4.98781,0 10.37687,5.3757 10.37687,10.3774v65.923c0,5.01026 -5.36172,10.37695 -10.37687,10.37695h-65.92334c-5.0104,0 -10.37714,-5.37792 -10.37714,-10.37695z" fill="url(#color-1)" stroke="#191919" stroke-width="1" stroke-linecap="butt"/><path d="M249.00987,161.9335c1.83284,1.81105 4.145,3.79269 4.05608,6.19849c0,1.84058 -0.00329,3.69911 -0.0023,5.53969c0.0005,0.92677 0.46301,1.992 -0.01208,2.78774c-0.38928,0.65202 -2.2681,1.22707 -3.07019,1.3708c-1.45969,0.26157 -2.83621,1.25239 -4.22156,1.54871c-2.3555,0.50383 -5.38733,0.13404 -7.80426,0.17978c-0.83116,0.01573 -3.10882,0.42206 -3.85884,0.06522c-1.5272,-0.72662 -2.11575,-2.4193 -3.94245,-2.52451c-1.56268,-2.70338 -4.44829,-3.81298 -5.88898,-6.67017c-0.48155,-0.955 -1.3763,-2.3368 -0.86343,-3.5333c1.12659,-2.62827 4.7639,-7.54421 7.6508,-8.78415c0.1435,0.7639 0.98055,0.763 0.98055,0.763c5.83709,-0.04773 10.94688,3.05839 16.80713,3.05839z" data-paper-data="{&quot;noHover&quot;:false,&quot;origItem&quot;:[&quot;Path&quot;,{&quot;applyMatrix&quot;:true,&quot;segments&quot;:[[[663.43445,322.37509],[0,0],[-11.7205,0]],[[629.95619,316.28813],[11.67418,-0.09547],[0,0]],[[627.99789,314.76033],[0.287,1.52781],[-5.77381,2.47988]],[[612.73994,332.25901],[2.25317,-5.25654],[-1.02574,2.393]],[[614.46717,339.30139],[-0.96309,-1.91],[2.88139,5.71439]],[[626.21617,352.58138],[-3.12536,-5.40676],[3.65342,0.21041]],[[634.06691,357.60816],[-3.0544,-1.45323],[1.50004,0.71369]],[[641.75115,357.47095],[-1.66233,0.03146],[4.83386,-0.09148]],[[657.29848,357.13014],[-4.711,1.00765],[2.77072,-0.59264]],[[665.72028,354.0535],[-2.91937,0.52314],[1.60418,-0.28746]],[[671.85119,351.32701],[-0.77856,1.30404],[0.95017,-1.59148]],[[671.86924,345.7664],[0.001,1.85355],[-0.00198,-3.68116]],[[671.86924,334.72292],[0,3.68116],[0.17783,-4.81161]],[[663.77314,322.37509],[3.66568,3.6221],[0,0]]],&quot;closed&quot;:true}]}" fill="#a66161" stroke="#b99797" stroke-width="0" stroke-linecap="butt"/><path d="M173.99096,120.23529l32.7902,-39.12753" fill="none" stroke="#000000" stroke-width="1.5" stroke-linecap="round"/><text transform="translate(252.29487,267.85839) scale(0.32654,0.32654)" font-size="40" xml:space="preserve" fill="#ffffff" fill-rule="nonzero" stroke="#000000" stroke-width="1" stroke-linecap="butt" stroke-linejoin="miter" stroke-miterlimit="10" stroke-dasharray="" stroke-dashoffset="0" font-family="&quot;Microsoft YaHei&quot;, &quot;微软雅黑&quot;, STXihei, &quot;华文细黑&quot;" font-weight="normal" text-anchor="start" style="mix-blend-mode: normal"><tspan x="0" dy="0">行动牌</tspan></text><text transform="translate(225.93261,103.52383) scale(0.36591,0.36591)" font-size="40" xml:space="preserve" fill="#ffffff" fill-rule="nonzero" stroke="#000000" stroke-width="1" stroke-linecap="butt" stroke-linejoin="miter" stroke-miterlimit="10" stroke-dasharray="" stroke-dashoffset="0" font-family="&quot;Microsoft YaHei&quot;, &quot;微软雅黑&quot;, STXihei, &quot;华文细黑&quot;" font-weight="normal" text-anchor="start" style="mix-blend-mode: normal"><tspan x="0" dy="0">血药</tspan></text><text transform="translate(199.01649,209.6843) scale(0.2134,0.2134)" font-size="40" xml:space="preserve" fill="#ffffff" fill-rule="nonzero" stroke="none" stroke-width="1" stroke-linecap="butt" stroke-linejoin="miter" stroke-miterlimit="10" stroke-dasharray="" stroke-dashoffset="0" font-family="&quot;Microsoft YaHei&quot;, &quot;微软雅黑&quot;, STXihei, &quot;华文细黑&quot;" font-weight="normal" text-anchor="start" style="mix-blend-mode: normal"><tspan x="0" dy="0">　 • 受到    点真实伤</tspan><tspan x="0" dy="48px">害</tspan><tspan x="0" dy="48px">　 • 获得    点力量</tspan></text><text transform="translate(189.66407,268.21233) scale(0.2977,0.2977)" font-size="40" xml:space="preserve" fill="#ffffff" fill-rule="nonzero" stroke="#000000" stroke-width="1" stroke-linecap="butt" stroke-linejoin="miter" stroke-miterlimit="10" stroke-dasharray="" stroke-dashoffset="0" font-family="Pixel" font-weight="normal" text-anchor="start" style="mix-blend-mode: normal"><tspan x="0" dy="0">ACTION</tspan></text><path d="M242.50845,140.12634c1,0 1,1 1,1l-0.08266,0.83289c-0.47506,1.08998 -1.34356,2.00263 -1.69522,3.13844c-0.33181,1.07169 0.07007,2.68262 -0.19468,3.81579c-0.55304,2.36704 -2.03848,4.32583 -3.42483,6.25122c-0.90376,0.82746 -2.39326,2.33706 -3.56283,2.78496c-0.93795,0.3592 -2.05181,-0.3011 -3.01311,-0.01011c-2.94779,0.89229 -6.88486,6.1475 -8.06957,8.91137c-0.51287,1.1965 0.38207,2.56619 0.86362,3.52119c1.4407,2.85719 4.31182,3.93662 5.8745,6.64c1.82671,0.10521 2.39817,1.78677 3.92537,2.51339c0.75002,0.35684 3.01095,-0.05288 3.84212,-0.0686c2.41693,-0.04574 5.41817,0.33342 7.77367,-0.17041c1.38536,-0.29632 2.75121,-1.27675 4.2109,-1.53832c0.80209,-0.14373 2.67618,-0.71123 3.06546,-1.36325c0.47509,-0.79574 0.00952,-1.85353 0.00902,-2.7803c-0.00099,-1.84058 0,-3.68116 0,-5.52174c0.10977,-2.97009 -3.42772,-5.25624 -5.22299,-7.42807c-4.35232,-5.26525 -0.1447,-15.37995 5.47198,-17.43366c0,0 0.94868,-0.31623 1.26491,0.63246c0.31623,0.94869 -0.63245,1.26491 -0.63245,1.26491c-2.2308,0.64201 -3.00342,1.86533 -3.73019,3.97416c-0.87779,2.54709 -2.99326,4.60382 -2.13453,7.67349c1.28762,4.60285 6.85408,6.34843 6.98327,11.31671c0,2.48657 0.90455,7.31195 -0.42576,9.52405c-0.66449,1.10494 -3.16321,1.89864 -4.32585,2.11501c-1.40091,0.26073 -2.70944,1.22172 -4.04997,1.50516c-2.51934,0.53267 -5.64215,0.18077 -8.22134,0.22948c-1.13443,0.02142 -3.45025,0.42061 -4.5107,-0.0337c-1.833,-0.78528 -2.36249,-2.3907 -4.3355,-2.704c-1.56536,-2.13476 -4.34451,-3.31561 -5.7378,-5.50463c-1.1177,-1.75603 -2.71605,-4.75827 -1.87191,-6.94288c1.29701,-3.35664 5.80902,-9.12674 9.32174,-10.21906c0.97841,-0.30425 2.12257,0.37056 3.07385,-0.01011c0.59623,-0.23859 2.26303,-1.83666 2.66856,-2.20539c1.13931,-1.60308 2.50472,-3.30951 2.95247,-5.28017c0.27478,-1.20938 -0.11541,-2.85509 0.24009,-4.0103c0.37495,-1.2184 1.27752,-2.21302 1.78304,-3.3833l-0.08266,-0.03667c0,0 0,-1 1,-1z" fill="#000000" stroke="none" stroke-width="0.5" stroke-linecap="butt"/><path d="M246.42149,141.03938c-0.34294,0 -0.64555,-0.17263 -0.8257,-0.43573c-0.01454,0.00063 -0.02917,0.00095 -0.04387,0.00095c-0.15694,0 -0.30542,-0.03615 -0.43759,-0.10058c-0.33054,0.72817 -0.79772,1.28976 -0.95465,2.1007c-0.15739,0.81328 3.28988,0.97834 3.51406,1.076c0.61069,0.26603 1.26106,1.30434 1.78666,0.89513c0.51352,-0.39981 1.82078,-4.04038 0.70884,-4.26476c-0.80486,-0.16242 -1.80624,-0.10282 -2.77741,-0.02899c-0.10845,0.435 -0.50177,0.75728 -0.97035,0.75728zM245.55192,138.60459c0.00791,0 0.01579,0.00009 0.02366,0.00028l-0.02366,-0.21767c1.3149,0 4.20238,-0.49041 5.38269,0.07612c2.76601,1.32763 1.63653,6.64132 -0.59551,7.90915c-1.64232,0.93286 -2.23702,-0.27488 -3.43073,-0.844c-1.53777,-0.73316 -4.56522,0.05107 -4.74681,-2.83704c-0.05763,-0.91649 1.32383,-2.47648 1.3034,-3.73901c0,0 0,-1 1,-1c0.61031,0 0.84814,0.37248 0.94082,0.66278c0.0477,-0.00698 0.09649,-0.0106 0.14613,-0.0106z" fill="#000000" stroke="none" stroke-width="0.5" stroke-linecap="butt"/><path d="M247.39211,140.23209c0.97117,-0.07384 2.01202,-0.11375 2.81688,0.04866c1.11193,0.22438 -0.2002,3.9311 -0.71372,4.33092c-0.5256,0.40921 -1.19932,-0.61628 -1.81001,-0.8823c-0.22418,-0.09766 -3.73291,-0.30881 -3.57552,-1.12208c0.15694,-0.81094 0.63602,-1.40757 0.96657,-2.13574c0.13217,0.06442 0.28339,0.09763 0.44033,0.09763c0.01469,0 0.02976,-0.00075 0.04431,-0.00138c0.18015,0.2631 0.48936,0.43033 0.8323,0.43033c0.46858,0 0.89042,-0.33103 0.99887,-0.76603z" data-paper-data="{&quot;noHover&quot;:false,&quot;origItem&quot;:[&quot;Path&quot;,{&quot;applyMatrix&quot;:true,&quot;segments&quot;:[[[501.69532,263.69366],[0.93716,0],[-0.68588,0]],[[500.04392,262.82221],[0.36029,0.5262],[-0.02908,0.00126]],[[499.95619,262.8241],[0.02939,0],[-0.31387,0]],[[499.081,262.62294],[0.26435,0.12885],[-0.66108,1.45635]],[[497.1717,266.82434],[0.31387,-1.62187],[-0.31478,1.62656]],[[504.19982,268.97634],[-0.44835,-0.19531],[1.22138,0.53205]],[[507.77314,270.7666],[-1.0512,0.81843],[1.02705,-0.79963]],[[509.19083,262.23707],[2.22387,0.44876],[-1.60972,-0.32483]],[[503.63601,262.17909],[1.94235,-0.14767],[-0.21691,0.87]]],&quot;closed&quot;:true}]}" fill="#735d43" stroke="none" stroke-width="0.5" stroke-linecap="butt"/></g></g></svg>