<svg version="1.1" xmlns="http://www.w3.org/2000/svg" xmlns:xlink="http://www.w3.org/1999/xlink" width="506.5" height="381.15" viewBox="0,0,506.5,381.15"><g transform="translate(3.64997,0)"><g data-paper-data="{&quot;isPaintingLayer&quot;:true}" fill-rule="nonzero" stroke-linecap="butt" stroke-linejoin="miter" stroke-miterlimit="10" stroke-dasharray="" stroke-dashoffset="0" style="mix-blend-mode: normal"><path d="M0.00002,360v-360h480v360z" fill="#c7a05b" stroke="#000000" stroke-width="0"/><text transform="translate(194.00002,80) scale(0.5,0.5)" font-size="40" xml:space="preserve" fill="#000000" fill-rule="nonzero" stroke="none" stroke-width="1" stroke-linecap="butt" stroke-linejoin="miter" stroke-miterlimit="10" stroke-dasharray="" stroke-dashoffset="0" font-family="Sans Serif" font-weight="normal" text-anchor="start" style="mix-blend-mode: normal"><tspan x="0" dy="0">公主寄居在七个小矮人家里</tspan></text><path d="M-3.39997,380.9v-70h506v70z" fill-opacity="0.96078" fill="#9ac38b" stroke="#9ac38c" stroke-width="0.5"/><path d="M83.60003,312.9v-100h147v100z" fill="#dbbf84" stroke="#9ac38c" stroke-width="0"/><path d="M57.60003,221.9l98,-82l101,82z" fill="#ad8c45" stroke="none" stroke-width="0"/><path d="M143.60003,313.9v-41h28v41z" fill="#a8866c" stroke="#9ac38c" stroke-width="0"/><path d="M147.10003,260.9v-20h20v20z" fill="#ded6c7" stroke="#9ac38c" stroke-width="0"/><text transform="translate(274.00001,104) scale(0.5,0.5)" font-size="40" xml:space="preserve" fill="#000000" fill-rule="nonzero" stroke="none" stroke-width="1" stroke-linecap="butt" stroke-linejoin="miter" stroke-miterlimit="10" stroke-dasharray="" stroke-dashoffset="0" font-family="Sans Serif" font-weight="normal" text-anchor="start" style="mix-blend-mode: normal"><tspan x="0" dy="0">他们成为了好朋友</tspan></text><path d="M285.13899,314.27013v-13.18182h9.54545v13.18182z" fill="#7d9e62" stroke="#66824e" stroke-width="2"/><path d="M296.04808,292.67922c0,3.64006 -2.74734,6.59091 -6.13636,6.59091c-3.38902,0 -6.13636,-2.95085 -6.13636,-6.59091c0,-3.64006 2.74734,-6.59091 6.13636,-6.59091c3.38902,0 6.13636,2.95085 6.13636,6.59091z" fill="#7d9e62" stroke="#66824e" stroke-width="2"/><path d="M305.59353,314.27013v-13.18182h9.54546v13.18182z" fill="#7d9e62" stroke="#66824e" stroke-width="2"/><path d="M316.50262,292.67922c0,3.64006 -2.74734,6.59091 -6.13636,6.59091c-3.38902,0 -6.13637,-2.95085 -6.13637,-6.59091c0,-3.64006 2.74734,-6.59091 6.13637,-6.59091c3.38902,0 6.13636,2.95085 6.13636,6.59091z" fill="#7d9e62" stroke="#66824e" stroke-width="2"/><path d="M326.04808,314.27013v-13.18182h9.54546v13.18182z" fill="#7d9e62" stroke="#66824e" stroke-width="2"/><path d="M336.95717,292.67922c0,3.64006 -2.74734,6.59091 -6.13636,6.59091c-3.38902,0 -6.13637,-2.95085 -6.13637,-6.59091c0,-3.64006 2.74734,-6.59091 6.13637,-6.59091c3.38902,0 6.13636,2.95085 6.13636,6.59091z" fill="#7d9e62" stroke="#66824e" stroke-width="2"/><path d="M346.50263,314.27013v-13.18182h9.54546v13.18182z" fill="#7d9e62" stroke="#66824e" stroke-width="2"/><path d="M357.41172,292.67922c0,3.64006 -2.74734,6.59091 -6.13636,6.59091c-3.38902,0 -6.13637,-2.95085 -6.13637,-6.59091c0,-3.64006 2.74734,-6.59091 6.13637,-6.59091c3.38902,0 6.13636,2.95085 6.13636,6.59091z" fill="#7d9e62" stroke="#66824e" stroke-width="2"/><path d="M366.95717,314.27013v-13.18182h9.54546v13.18182z" fill="#7d9e62" stroke="#66824e" stroke-width="2"/><path d="M377.86626,292.67922c0,3.64006 -2.74734,6.59091 -6.13636,6.59091c-3.38902,0 -6.13637,-2.95085 -6.13637,-6.59091c0,-3.64006 2.74734,-6.59091 6.13637,-6.59091c3.38902,0 6.13636,2.95085 6.13636,6.59091z" fill="#7d9e62" stroke="#66824e" stroke-width="2"/><path d="M264.68444,314.27013v-13.18182h9.54546v13.18182z" fill="#7d9e62" stroke="#66824e" stroke-width="2"/><path d="M275.59353,292.67922c0,3.64006 -2.74734,6.59091 -6.13636,6.59091c-3.38902,0 -6.13637,-2.95085 -6.13637,-6.59091c0,-3.64006 2.74734,-6.59091 6.13637,-6.59091c3.38902,0 6.13636,2.95085 6.13636,6.59091z" fill="#7d9e62" stroke="#66824e" stroke-width="2"/><path d="M387.41172,314.27013v-13.18182h9.54546v13.18182z" fill="#7d9e62" stroke="#66824e" stroke-width="2"/><path d="M398.32081,292.67922c0,3.64006 -2.74734,6.59091 -6.13636,6.59091c-3.38902,0 -6.13637,-2.95085 -6.13637,-6.59091c0,-3.64006 2.74734,-6.59091 6.13637,-6.59091c3.38902,0 6.13636,2.95085 6.13636,6.59091z" fill="#7d9e62" stroke="#66824e" stroke-width="2"/><path d="M420.13899,316.27012v-28.18182h9.54546v28.18182z" fill="#61deed" stroke="#51becb" stroke-width="2"/><path d="M431.04808,280.64075c0,3.64006 -2.74734,6.59091 -6.13636,6.59091c-3.38902,0 -6.13637,-2.95085 -6.13637,-6.59091c0,-3.64006 2.74734,-6.59091 6.13637,-6.59091c3.38902,0 6.13636,2.95085 6.13636,6.59091z" fill="#61deed" stroke="#51becb" stroke-width="2"/></g></g></svg>