<svg version="1.1" xmlns="http://www.w3.org/2000/svg" xmlns:xlink="http://www.w3.org/1999/xlink" width="128.00855" height="193.39224" viewBox="0,0,128.00855,193.39224"><defs><radialGradient cx="240.00049" cy="153.99999" r="43.33867" gradientUnits="userSpaceOnUse" id="color-1"><stop offset="0" stop-color="#f8b870"/><stop offset="1" stop-color="#67503a"/></radialGradient></defs><g transform="translate(-173.24096,-80.35776)"><g data-paper-data="{&quot;isPaintingLayer&quot;:true}" fill-rule="nonzero" stroke-linejoin="miter" stroke-miterlimit="10" stroke-dasharray="" stroke-dashoffset="0" style="mix-blend-mode: normal"><path d="M201.82399,87h89.92552c5.00061,0 8.74997,3.74753 8.75,8.75l0.001,168.25c0.00003,4.99939 -3.74669,8.99999 -8.75102,8.99999l-103.5,0.00001c-5.00277,0 -8.75,-4.00317 -8.75,-9l0.00002,-150.35728z" fill="#7f633f" stroke="#000000" stroke-width="1.5" stroke-linecap="butt"/><path d="M196.11386,187.35775c0,-1.90221 6.28685,10.00867 9.8392,10.00867h68.10253c3.54693,0 9.83913,-11.95542 9.83913,-10.00867c0,10.02674 -0.09151,50.27884 -0.09151,58.42575c0,2.98806 -1.9043,6.98177 -6.56483,6.98177c0,0 -61.17368,0.0465 -74.55983,0.0465c-4.62287,0 -6.57229,-4.08852 -6.57229,-7.02802z" fill="#191919" stroke="#000000" stroke-width="0" stroke-linecap="butt"/><path d="M196.66181,186.96175v-65.923c0,-5.01085 5.38104,-10.3774 10.37714,-10.3774h65.92334c4.98781,0 10.37687,5.3757 10.37687,10.3774v65.923c0,5.01026 -5.36172,10.37695 -10.37687,10.37695h-65.92334c-5.0104,0 -10.37714,-5.37792 -10.37714,-10.37695z" fill="url(#color-1)" stroke="#191919" stroke-width="1" stroke-linecap="butt"/><path d="M173.99096,120.23529l32.7902,-39.12753" fill="none" stroke="#000000" stroke-width="1.5" stroke-linecap="round"/><text transform="translate(252.29487,267.85839) scale(0.32654,0.32654)" font-size="40" xml:space="preserve" fill="#ffffff" fill-rule="nonzero" stroke="#000000" stroke-width="1" stroke-linecap="butt" stroke-linejoin="miter" stroke-miterlimit="10" stroke-dasharray="" stroke-dashoffset="0" font-family="&quot;Microsoft YaHei&quot;, &quot;微软雅黑&quot;, STXihei, &quot;华文细黑&quot;" font-weight="normal" text-anchor="start" style="mix-blend-mode: normal"><tspan x="0" dy="0">行动牌</tspan></text><text transform="translate(225.93261,103.52383) scale(0.36591,0.36591)" font-size="40" xml:space="preserve" fill="#ffffff" fill-rule="nonzero" stroke="#000000" stroke-width="1" stroke-linecap="butt" stroke-linejoin="miter" stroke-miterlimit="10" stroke-dasharray="" stroke-dashoffset="0" font-family="&quot;Microsoft YaHei&quot;, &quot;微软雅黑&quot;, STXihei, &quot;华文细黑&quot;" font-weight="normal" text-anchor="start" style="mix-blend-mode: normal"><tspan x="0" dy="0">千剑万花</tspan></text><text transform="translate(199.01649,209.6843) scale(0.2134,0.2134)" font-size="40" xml:space="preserve" fill="#ffffff" fill-rule="nonzero" stroke="none" stroke-width="1" stroke-linecap="butt" stroke-linejoin="miter" stroke-miterlimit="10" stroke-dasharray="" stroke-dashoffset="0" font-family="&quot;Microsoft YaHei&quot;, &quot;微软雅黑&quot;, STXihei, &quot;华文细黑&quot;" font-weight="normal" text-anchor="start" style="mix-blend-mode: normal"><tspan x="0" dy="0">　 • 受到 3 点真实伤</tspan><tspan x="0" dy="48px">害</tspan><tspan x="0" dy="48px">　 • 造成    次 1 点伤</tspan><tspan x="0" dy="48px">害</tspan></text><text transform="translate(189.66407,268.21233) scale(0.2977,0.2977)" font-size="40" xml:space="preserve" fill="#ffffff" fill-rule="nonzero" stroke="#000000" stroke-width="1" stroke-linecap="butt" stroke-linejoin="miter" stroke-miterlimit="10" stroke-dasharray="" stroke-dashoffset="0" font-family="Pixel" font-weight="normal" text-anchor="start" style="mix-blend-mode: normal"><tspan x="0" dy="0">ACTION</tspan></text><g stroke-width="1.5"><path d="M249.70828,144.54253l-15.61767,-16.90393l-0.20619,-5.48425l5.45083,0.63868l15.61767,16.90393z" data-paper-data="{&quot;origRot&quot;:0}" fill="#b7dce3" stroke="#000000" stroke-linecap="butt"/><path d="M252.3306,142.11972l-17.45504,-18.89263" data-paper-data="{&quot;origRot&quot;:0}" fill="none" stroke="#000000" stroke-linecap="round"/><path d="M251.19634,143.32202l2.35316,-2.17411l4.21481,4.56194c0,0 -0.14727,1.31972 -0.69203,1.82303c-0.37359,0.34517 -1.66113,0.35108 -1.66113,0.35108z" data-paper-data="{&quot;origRot&quot;:0}" fill="#bc752d" stroke="#000000" stroke-linecap="butt"/><path d="M248.01602,147.78007c0,0 -0.89392,0.15537 -1.163,-0.13587c-0.16818,-0.18203 0.04259,-1.07681 0.04259,-1.07681l10.06159,-9.29598c0,0 1.12281,-0.30822 1.31958,-0.09525c0.24049,0.2603 -0.19916,1.30794 -0.19916,1.30794z" data-paper-data="{&quot;origRot&quot;:0}" fill="#000000" stroke="none" stroke-linecap="butt"/></g><g stroke-width="1.5"><path d="M249.45799,163.70782l16.90393,-15.61767l5.48425,-0.20619l-0.63868,5.45083l-16.90393,15.61767z" data-paper-data="{&quot;origRot&quot;:0}" fill="#b7dce3" stroke="#000000" stroke-linecap="butt"/><path d="M251.8808,166.33014l18.89263,-17.45504" data-paper-data="{&quot;origRot&quot;:0}" fill="none" stroke="#000000" stroke-linecap="round"/><path d="M250.6785,165.19588l2.17411,2.35316l-4.56194,4.21481c0,0 -1.31972,-0.14727 -1.82303,-0.69203c-0.34517,-0.37359 -0.35108,-1.66113 -0.35108,-1.66113z" data-paper-data="{&quot;origRot&quot;:0}" fill="#bc752d" stroke="#000000" stroke-linecap="butt"/><path d="M246.22045,162.01556c0,0 -0.15537,-0.89392 0.13587,-1.163c0.18203,-0.16818 1.07681,0.04259 1.07681,0.04259l9.29598,10.06159c0,0 0.30822,1.12281 0.09525,1.31958c-0.2603,0.24049 -1.30794,-0.19916 -1.30794,-0.19916z" data-paper-data="{&quot;origRot&quot;:0}" fill="#000000" stroke="none" stroke-linecap="butt"/></g><g stroke-width="1.5"><path d="M230.54299,144.29224l-16.90393,15.61767l-5.48425,0.20619l0.63868,-5.45083l16.90393,-15.61767z" data-paper-data="{&quot;origRot&quot;:0}" fill="#b7dce3" stroke="#000000" stroke-linecap="butt"/><path d="M228.12018,141.66992l-18.89263,17.45504" data-paper-data="{&quot;origRot&quot;:0}" fill="none" stroke="#000000" stroke-linecap="round"/><path d="M229.32248,142.80417l-2.17411,-2.35316l4.56194,-4.21481c0,0 1.31972,0.14727 1.82303,0.69203c0.34517,0.37359 0.35108,1.66113 0.35108,1.66113z" data-paper-data="{&quot;origRot&quot;:0}" fill="#bc752d" stroke="#000000" stroke-linecap="butt"/><path d="M233.78053,145.9845c0,0 0.15537,0.89392 -0.13587,1.163c-0.18203,0.16818 -1.07681,-0.04259 -1.07681,-0.04259l-9.29598,-10.06159c0,0 -0.30822,-1.12281 -0.09525,-1.31958c0.2603,-0.24049 1.30794,0.19916 1.30794,0.19916z" data-paper-data="{&quot;origRot&quot;:0}" fill="#000000" stroke="none" stroke-linecap="butt"/></g><g stroke-width="1.5"><path d="M230.2927,163.45753l15.61767,16.90393l0.20619,5.48425l-5.45083,-0.63868l-15.61767,-16.90393z" data-paper-data="{&quot;origRot&quot;:0}" fill="#b7dce3" stroke="#000000" stroke-linecap="butt"/><path d="M227.67038,165.88034l17.45504,18.89263" data-paper-data="{&quot;origRot&quot;:0}" fill="none" stroke="#000000" stroke-linecap="round"/><path d="M228.80464,164.67804l-2.35316,2.17411l-4.21481,-4.56194c0,0 0.14727,-1.31972 0.69203,-1.82303c0.37359,-0.34517 1.66113,-0.35108 1.66113,-0.35108z" data-paper-data="{&quot;origRot&quot;:0}" fill="#bc752d" stroke="#000000" stroke-linecap="butt"/><path d="M231.98496,160.21999c0,0 0.89392,-0.15537 1.163,0.13587c0.16818,0.18203 -0.04259,1.07681 -0.04259,1.07681l-10.06159,9.29598c0,0 -1.12281,0.30822 -1.31958,0.09525c-0.24049,-0.2603 0.19916,-1.30794 0.19916,-1.30794z" data-paper-data="{&quot;origRot&quot;:0}" fill="#000000" stroke="none" stroke-linecap="butt"/></g><g stroke-width="1.5"><path d="M244.85856,141.34757l-21.25904,-8.81519l-2.48271,-4.89445l5.21772,-1.70142l21.25904,8.81519z" data-paper-data="{&quot;origRot&quot;:0}" fill="#b7dce3" stroke="#000000" stroke-linecap="butt"/><path d="M246.22605,138.04961l-23.7601,-9.85228" data-paper-data="{&quot;origRot&quot;:0}" fill="none" stroke="#000000" stroke-linecap="round"/><path d="M245.69915,139.61628l1.22714,-2.95943l5.73727,2.379c0,0 0.41862,1.2602 0.13454,1.94531c-0.19482,0.46985 -1.36168,1.01412 -1.36168,1.01412z" data-paper-data="{&quot;origRot&quot;:0}" fill="#bc752d" stroke="#000000" stroke-linecap="butt"/><path d="M244.67674,144.99618c0,0 -0.74682,0.51526 -1.1131,0.36338c-0.22893,-0.09493 -0.41202,-0.99578 -0.41202,-0.99578l5.247,-12.65385c0,0 0.89072,-0.74988 1.15857,-0.63882c0.32736,0.13574 0.36657,1.27122 0.36657,1.27122z" data-paper-data="{&quot;origRot&quot;:0}" fill="#000000" stroke="none" stroke-linecap="butt"/></g><g stroke-width="1.5"><path d="M252.65294,158.8581l8.81519,-21.25904l4.89445,-2.48271l1.70142,5.21772l-8.81519,21.25904z" data-paper-data="{&quot;origRot&quot;:0}" fill="#b7dce3" stroke="#000000" stroke-linecap="butt"/><path d="M255.9509,160.22559l9.85228,-23.7601" data-paper-data="{&quot;origRot&quot;:0}" fill="none" stroke="#000000" stroke-linecap="round"/><path d="M254.38423,159.69869l2.95943,1.22714l-2.379,5.73727c0,0 -1.2602,0.41862 -1.94531,0.13454c-0.46985,-0.19482 -1.01412,-1.36168 -1.01412,-1.36168z" data-paper-data="{&quot;origRot&quot;:0}" fill="#bc752d" stroke="#000000" stroke-linecap="butt"/><path d="M249.00433,158.67628c0,0 -0.51526,-0.74682 -0.36338,-1.1131c0.09493,-0.22893 0.99578,-0.41202 0.99578,-0.41202l12.65385,5.247c0,0 0.74988,0.89072 0.63882,1.15857c-0.13574,0.32736 -1.27122,0.36657 -1.27122,0.36657z" data-paper-data="{&quot;origRot&quot;:0}" fill="#000000" stroke="none" stroke-linecap="butt"/></g><g stroke-width="1.5"><path d="M227.34803,149.14195l-8.81519,21.25904l-4.89445,2.48271l-1.70142,-5.21772l8.81519,-21.25904z" data-paper-data="{&quot;origRot&quot;:0}" fill="#b7dce3" stroke="#000000" stroke-linecap="butt"/><path d="M224.05007,147.77446l-9.85228,23.7601" data-paper-data="{&quot;origRot&quot;:0}" fill="none" stroke="#000000" stroke-linecap="round"/><path d="M225.61674,148.30136l-2.95943,-1.22714l2.379,-5.73727c0,0 1.2602,-0.41862 1.94531,-0.13454c0.46985,0.19482 1.01412,1.36168 1.01412,1.36168z" data-paper-data="{&quot;origRot&quot;:0}" fill="#bc752d" stroke="#000000" stroke-linecap="butt"/><path d="M230.99664,149.32377c0,0 0.51526,0.74682 0.36338,1.1131c-0.09493,0.22893 -0.99578,0.41202 -0.99578,0.41202l-12.65385,-5.247c0,0 -0.74988,-0.89072 -0.63882,-1.15857c0.13574,-0.32736 1.27122,-0.36657 1.27122,-0.36657z" data-paper-data="{&quot;origRot&quot;:0}" fill="#000000" stroke="none" stroke-linecap="butt"/></g><g stroke-width="1.5"><path d="M235.14241,166.65248l21.25904,8.81519l2.48271,4.89445l-5.21772,1.70142l-21.25904,-8.81519z" data-paper-data="{&quot;origRot&quot;:0}" fill="#b7dce3" stroke="#000000" stroke-linecap="butt"/><path d="M233.77492,169.95044l23.7601,9.85228" data-paper-data="{&quot;origRot&quot;:0}" fill="none" stroke="#000000" stroke-linecap="round"/><path d="M234.30182,168.38377l-1.22714,2.95943l-5.73727,-2.379c0,0 -0.41862,-1.2602 -0.13454,-1.94531c0.19482,-0.46985 1.36168,-1.01412 1.36168,-1.01412z" data-paper-data="{&quot;origRot&quot;:0}" fill="#bc752d" stroke="#000000" stroke-linecap="butt"/><path d="M235.32423,163.00387c0,0 0.74682,-0.51526 1.1131,-0.36338c0.22893,0.09493 0.41202,0.99578 0.41202,0.99578l-5.247,12.65385c0,0 -0.89072,0.74988 -1.15857,0.63882c-0.32736,-0.13574 -0.36657,-1.27122 -0.36657,-1.27122z" data-paper-data="{&quot;origRot&quot;:0}" fill="#000000" stroke="none" stroke-linecap="butt"/></g><g stroke-width="1.5"><path d="M238.46277,140.53448l-22.92672,2.00504l-4.46329,-3.19351l3.8412,-3.91977l22.92672,-2.00504z" data-paper-data="{&quot;origRot&quot;:0}" fill="#b7dce3" stroke="#000000" stroke-linecap="butt"/><path d="M238.1517,136.97782l-25.62398,2.24092" data-paper-data="{&quot;origRot&quot;:0}" fill="none" stroke="#000000" stroke-linecap="round"/><path d="M238.40831,138.61068l-0.27912,-3.19158l6.18734,-0.54111c0,0 0.95354,0.92418 1.01815,1.66304c0.04432,0.5067 -0.73903,1.52854 -0.73903,1.52854z" data-paper-data="{&quot;origRot&quot;:0}" fill="#bc752d" stroke="#000000" stroke-linecap="butt"/><path d="M239.98738,143.85426c0,0 -0.42424,0.80203 -0.81925,0.83658c-0.24689,0.02159 -0.8255,-0.69273 -0.8255,-0.69273l-1.19344,-13.64648c0,0 0.44345,-1.07659 0.73231,-1.10186c0.35304,-0.03087 0.91246,0.95801 0.91246,0.95801z" data-paper-data="{&quot;origRot&quot;:0}" fill="#000000" stroke="none" stroke-linecap="butt"/></g><g stroke-width="1.5"><path d="M253.46603,152.46231l-2.00504,-22.92672l3.19351,-4.46329l3.91977,3.8412l2.00504,22.92672z" data-paper-data="{&quot;origRot&quot;:0}" fill="#b7dce3" stroke="#000000" stroke-linecap="butt"/><path d="M257.02269,152.15124l-2.24092,-25.62398" data-paper-data="{&quot;origRot&quot;:0}" fill="none" stroke="#000000" stroke-linecap="round"/><path d="M255.38983,152.40785l3.19158,-0.27912l0.54111,6.18734c0,0 -0.92418,0.95354 -1.66304,1.01815c-0.5067,0.04432 -1.52854,-0.73903 -1.52854,-0.73903z" data-paper-data="{&quot;origRot&quot;:0}" fill="#bc752d" stroke="#000000" stroke-linecap="butt"/><path d="M250.14625,153.98692c0,0 -0.80203,-0.42424 -0.83658,-0.81925c-0.02159,-0.24689 0.69273,-0.8255 0.69273,-0.8255l13.64648,-1.19344c0,0 1.07659,0.44345 1.10186,0.73231c0.03087,0.35304 -0.95801,0.91246 -0.95801,0.91246z" data-paper-data="{&quot;origRot&quot;:0}" fill="#000000" stroke="none" stroke-linecap="butt"/></g><g stroke-width="1.5"><path d="M226.53494,155.53774l2.00504,22.92672l-3.19351,4.46329l-3.91977,-3.8412l-2.00504,-22.92672z" data-paper-data="{&quot;origRot&quot;:0}" fill="#b7dce3" stroke="#000000" stroke-linecap="butt"/><path d="M222.97828,155.84881l2.24092,25.62398" data-paper-data="{&quot;origRot&quot;:0}" fill="none" stroke="#000000" stroke-linecap="round"/><path d="M224.61114,155.5922l-3.19158,0.27912l-0.54111,-6.18734c0,0 0.92418,-0.95354 1.66304,-1.01815c0.5067,-0.04432 1.52854,0.73903 1.52854,0.73903z" data-paper-data="{&quot;origRot&quot;:0}" fill="#bc752d" stroke="#000000" stroke-linecap="butt"/><path d="M229.85472,154.01313c0,0 0.80203,0.42424 0.83658,0.81925c0.02159,0.24689 -0.69273,0.8255 -0.69273,0.8255l-13.64648,1.19344c0,0 -1.07659,-0.44345 -1.10186,-0.73231c-0.03087,-0.35304 0.95801,-0.91246 0.95801,-0.91246z" data-paper-data="{&quot;origRot&quot;:0}" fill="#000000" stroke="none" stroke-linecap="butt"/></g><g stroke-width="1.5"><path d="M241.5382,167.46557l22.92672,-2.00504l4.46329,3.19351l-3.8412,3.91977l-22.92672,2.00504z" data-paper-data="{&quot;origRot&quot;:0}" fill="#b7dce3" stroke="#000000" stroke-linecap="butt"/><path d="M241.84927,171.02223l25.62398,-2.24092" data-paper-data="{&quot;origRot&quot;:0}" fill="none" stroke="#000000" stroke-linecap="round"/><path d="M241.59266,169.38937l0.27912,3.19158l-6.18734,0.54111c0,0 -0.95354,-0.92418 -1.01815,-1.66304c-0.04432,-0.5067 0.73903,-1.52854 0.73903,-1.52854z" data-paper-data="{&quot;origRot&quot;:0}" fill="#bc752d" stroke="#000000" stroke-linecap="butt"/><path d="M240.01359,164.14579c0,0 0.42424,-0.80203 0.81925,-0.83658c0.24689,-0.02159 0.8255,0.69273 0.8255,0.69273l1.19344,13.64648c0,0 -0.44345,1.07659 -0.73231,1.10186c-0.35304,0.03087 -0.91246,-0.95801 -0.91246,-0.95801z" data-paper-data="{&quot;origRot&quot;:0}" fill="#000000" stroke="none" stroke-linecap="butt"/></g></g></g></svg>