<svg version="1.1" xmlns="http://www.w3.org/2000/svg" xmlns:xlink="http://www.w3.org/1999/xlink" width="91.1142" height="127.93101" viewBox="0,0,91.1142,127.93101"><g transform="translate(-194.46492,-116.03451)"><g data-paper-data="{&quot;isPaintingLayer&quot;:true}" fill-rule="nonzero" stroke-linecap="butt" stroke-linejoin="miter" stroke-miterlimit="10" stroke-dasharray="" stroke-dashoffset="0" style="mix-blend-mode: normal"><path d="M195.46492,237.7401c0.74726,-6.5482 0.43322,-70.4509 0.43322,-115.28813c0,-2.91074 -0.01915,-5.41745 5.37537,-5.41745c5.7862,0 47.85388,0 78.20554,0c2.49758,0 5.10007,2.00272 5.10007,4.98917c0,45.15983 0,109.53057 0,116.1147c0,2.19469 -3.03571,4.82714 -5.5333,4.82714c-7.49275,0 -48.87945,0 -79.05564,0c-2.10419,0 -4.95849,-1.42911 -4.52526,-5.22541z" fill="#c1916d" stroke="#9ac38c" stroke-width="2"/><path d="M195.46492,237.7401c0.74726,-6.5482 0.43322,-70.4509 0.43322,-115.28813c0,-2.91074 -0.01915,-5.41745 5.37537,-5.41745c5.7862,0 47.85388,0 78.20554,0c2.49758,0 5.10007,2.00272 5.10007,4.98917c0,45.15983 0,109.53057 0,116.1147c0,2.19469 -3.03571,4.82714 -5.5333,4.82714c-7.49275,0 -48.87945,0 -79.05564,0c-2.10419,0 -4.95849,-1.42911 -4.52526,-5.22541z" fill="#c1916d" stroke="#5b4535" stroke-width="0"/><text transform="translate(201.51379,142.73836) scale(0.2749,0.2749)" font-size="40" xml:space="preserve" fill="#000000" fill-rule="nonzero" stroke="none" stroke-width="1" stroke-linecap="butt" stroke-linejoin="miter" stroke-miterlimit="10" stroke-dasharray="" stroke-dashoffset="0" font-family="Sans Serif" font-weight="normal" text-anchor="start" style="mix-blend-mode: normal"><tspan x="0" dy="0">请选择教程方式</tspan></text><text transform="translate(224.13656,166.42755) scale(0.18934,0.18934)" font-size="40" xml:space="preserve" fill="#bed1a9" fill-rule="nonzero" stroke="none" stroke-width="1" stroke-linecap="butt" stroke-linejoin="miter" stroke-miterlimit="10" stroke-dasharray="" stroke-dashoffset="0" font-family="&quot;Microsoft YaHei&quot;, &quot;微软雅黑&quot;, STXihei, &quot;华文细黑&quot;" font-weight="normal" text-anchor="start" style="mix-blend-mode: normal"><tspan x="0" dy="0">（推荐）</tspan></text></g></g></svg>