<svg version="1.1" xmlns="http://www.w3.org/2000/svg" xmlns:xlink="http://www.w3.org/1999/xlink" width="326.30752" height="35.04375" viewBox="0,0,326.30752,35.04375"><g transform="translate(-76.84626,-159.47816)"><g data-paper-data="{&quot;isPaintingLayer&quot;:true}" fill-rule="nonzero" stroke-linecap="butt" stroke-linejoin="miter" stroke-miterlimit="10" stroke-dasharray="" stroke-dashoffset="0" style="mix-blend-mode: normal"><path d="M77.34627,190.58003c0,-5.84823 0,-23.42014 0,-26.8c0,-1.81558 1.39858,-3.80187 2.97375,-3.80187c16.55156,0 285.86548,0 319,0c2.17633,0 3.33376,0.83358 3.33376,2.20188c0,5.49589 0,25.6183 0,29c0,1.90937 -1.4244,2.84187 -3.33376,2.84187c-33.15861,0 -302.84771,0 -319.4,0c-1.57518,0 -2.57376,-1.35734 -2.57376,-3.44187z" fill="#474541" stroke="#423f3b" stroke-width="1"/><path d="M80.84626,177.00004c0,-7.73199 6.26802,-14 14,-14c7.73198,0 14,6.26801 14,14c0,7.73199 -6.26802,14 -14,14c-7.73198,0 -14,-6.26801 -14,-14z" fill="#8ae6a0" stroke="#423f3b" stroke-width="0"/><text transform="translate(111.34626,173.50004) scale(0.30336,0.30336)" font-size="40" xml:space="preserve" fill="#ffffff" fill-rule="nonzero" stroke="none" stroke-width="1" stroke-linecap="butt" stroke-linejoin="miter" stroke-miterlimit="10" stroke-dasharray="" stroke-dashoffset="0" font-family="Sans Serif" font-weight="normal" text-anchor="start" style="mix-blend-mode: normal"><tspan x="0" dy="0">生长</tspan></text><text transform="translate(111.34626,182.25007) scale(0.15168,0.15168)" font-size="40" xml:space="preserve" fill="#ffffff" fill-rule="nonzero" stroke="none" stroke-width="1" stroke-linecap="butt" stroke-linejoin="miter" stroke-miterlimit="10" stroke-dasharray="" stroke-dashoffset="0" font-family="Sans Serif" font-weight="normal" text-anchor="start" style="mix-blend-mode: normal"><tspan x="0" dy="0">每个回合开始时，回复 1 点血量及血量上限</tspan></text><g stroke-width="0"><path d="M93.66951,190.90724v-21.16633h2.8633v21.16633z" fill="#8a6855" stroke="#555061"/><path d="M93.58729,180.32408l-6.28001,-11.19091l1.51386,-0.84953l6.28001,11.19091z" fill="#8a6855" stroke="#555061"/><path d="M95.10116,177.32723l6.28001,-11.19091l1.51386,0.84953l-6.28001,11.19091z" data-paper-data="{&quot;index&quot;:null}" fill="#8a6855" stroke="#555061"/><g stroke="#000000"><path d="M103.7711,169.64725c-0.19177,0.39962 -0.92512,0.44627 -1.63796,0.10417c-0.36083,-0.17316 -1.13525,-0.94336 -0.94347,-1.34299c0.19177,-0.39962 1.27714,-0.27735 1.63796,-0.10418c0.71285,0.34209 1.13525,0.94337 0.94347,1.343z" fill="#35a435"/><path d="M101.13648,168.51925l0.05318,-0.11081l2.58144,1.23881l-0.05318,0.11081z" fill="#216921"/><path d="M102.51859,169.11434l-0.0285,-0.10674l0.95906,-0.25599l0.0285,0.10674z" fill="#216921"/><path d="M101.91485,168.8499l-0.05628,-0.09507l0.85421,-0.50562l0.05628,0.09507z" fill="#216921"/><path d="M103.11922,169.91884l-0.07871,0.03473l-0.31202,-0.70724l0.07871,-0.03473z" fill="#216921"/><path d="M102.24082,169.02271l0.08758,-0.00594l0.05334,0.78695l-0.08759,0.00594z" fill="#216921"/><path d="M101.79255,169.42975l-0.07707,0.0125l-0.11235,-0.69247l0.07707,-0.0125z" fill="#216921"/></g><g stroke="#000000"><path d="M101.63272,173.6623c-0.19177,0.39962 -0.92512,0.44627 -1.63796,0.10417c-0.36083,-0.17316 -1.13525,-0.94336 -0.94347,-1.34299c0.19177,-0.39962 1.27714,-0.27735 1.63796,-0.10418c0.71285,0.34209 1.13525,0.94337 0.94347,1.343z" fill="#35a435"/><path d="M98.9981,172.5343l0.05318,-0.11081l2.58144,1.23881l-0.05318,0.11081z" fill="#216921"/><path d="M100.38021,173.12939l-0.0285,-0.10674l0.95906,-0.25599l0.0285,0.10674z" fill="#216921"/><path d="M99.77647,172.86495l-0.05628,-0.09507l0.85421,-0.50562l0.05628,0.09507z" fill="#216921"/><path d="M100.98084,173.93389l-0.07871,0.03473l-0.31202,-0.70724l0.07871,-0.03473z" fill="#216921"/><path d="M100.10244,173.03776l0.08758,-0.00594l0.05334,0.78695l-0.08759,0.00594z" fill="#216921"/><path d="M99.65417,173.44481l-0.07707,0.0125l-0.11235,-0.69247l0.07707,-0.0125z" fill="#216921"/></g><g stroke="#000000"><path d="M91.78755,169.68811c0.40066,0.1896 0.45129,0.92268 0.11308,1.63737c-0.1712,0.36176 -0.93718,1.14036 -1.33784,0.95076c-0.40066,-0.1896 -0.28428,-1.27561 -0.11308,-1.63737c0.33821,-0.71469 0.93718,-1.14036 1.33784,-0.95076z" fill="#35a435"/><path d="M90.67389,172.32882l-0.1111,-0.05257l1.22476,-2.58814l0.1111,0.05258z" fill="#216921"/><path d="M91.26146,170.9435l-0.10658,0.02908l-0.26121,-0.95765l0.10659,-0.02908z" fill="#216921"/><path d="M91.00031,171.54867l-0.09477,0.05679l-0.51025,-0.85145l0.09476,-0.05679z" fill="#216921"/><path d="M92.06269,170.33851l0.03516,0.07852l-0.70553,0.31586l-0.03516,-0.07853z" fill="#216921"/><path d="M91.17135,171.22177l-0.00642,-0.08755l0.78664,-0.05762l0.00642,0.08756z" fill="#216921"/><path d="M91.58082,171.66782l0.01292,0.077l-0.69184,0.11611l-0.01292,-0.077z" fill="#216921"/></g><g data-paper-data="{&quot;index&quot;:null}" stroke="#000000"><path d="M87.64429,174.33768c-0.40066,-0.1896 -0.45129,-0.92268 -0.11308,-1.63737c0.1712,-0.36176 0.93718,-1.14036 1.33784,-0.95076c0.40066,0.1896 0.28428,1.27561 0.11308,1.63737c-0.33821,0.71469 -0.93718,1.14036 -1.33784,0.95076z" fill="#35a435"/><path d="M88.75795,171.69697l0.1111,0.05257l-1.22476,2.58814l-0.1111,-0.05258z" fill="#216921"/><path d="M88.17038,173.08228l0.10658,-0.02908l0.26121,0.95765l-0.10659,0.02908z" fill="#216921"/><path d="M88.43153,172.47711l0.09477,-0.05679l0.51025,0.85145l-0.09476,0.05679z" fill="#216921"/><path d="M87.36916,173.68728l-0.03516,-0.07852l0.70553,-0.31586l0.03516,0.07853z" fill="#216921"/><path d="M88.2605,172.80402l0.00642,0.08755l-0.78664,0.05762l-0.00642,-0.08756z" fill="#216921"/><path d="M87.85102,172.35797l-0.01292,-0.077l0.69184,-0.11611l0.01292,0.077z" fill="#216921"/></g><g data-paper-data="{&quot;index&quot;:null}" stroke="#000000"><path d="M89.70847,178.66563c-0.40066,-0.1896 -0.45129,-0.92268 -0.11308,-1.63737c0.1712,-0.36176 0.93718,-1.14036 1.33784,-0.95076c0.40066,0.1896 0.28428,1.27561 0.11308,1.63737c-0.33821,0.71469 -0.93718,1.14036 -1.33784,0.95076z" fill="#35a435"/><path d="M90.82213,176.02492l0.1111,0.05257l-1.22476,2.58814l-0.1111,-0.05258z" fill="#216921"/><path d="M90.23456,177.41024l0.10658,-0.02908l0.26121,0.95765l-0.10659,0.02908z" fill="#216921"/><path d="M90.49571,176.80507l0.09477,-0.05679l0.51025,0.85145l-0.09476,0.05679z" fill="#216921"/><path d="M89.43333,178.01524l-0.03516,-0.07852l0.70553,-0.31586l0.03516,0.07853z" fill="#216921"/><path d="M90.32467,177.13198l0.00642,0.08755l-0.78664,0.05762l-0.00642,-0.08756z" fill="#216921"/><path d="M89.9152,176.68592l-0.01292,-0.077l0.69184,-0.11611l0.01292,0.077z" fill="#216921"/></g><g stroke="#000000"><path d="M85.87519,170.12567c0.00356,-0.44325 0.6474,-0.79742 1.43805,-0.79106c0.40021,0.00322 1.42871,0.37082 1.42515,0.81407c-0.00356,0.44325 -1.03784,0.79429 -1.43805,0.79106c-0.79065,-0.00636 -1.42871,-0.37083 -1.42515,-0.81408z" fill="#35a435"/><path d="M88.73938,170.02578l-0.00099,0.1229l-2.86321,-0.02301l0.001,-0.12291z" fill="#216921"/><path d="M87.23542,170.07516l0.07119,0.08447l-0.75905,0.63966l-0.0712,-0.08448z" fill="#216921"/><path d="M87.8943,170.05764l0.09137,0.0621l-0.55798,0.82096l-0.09137,-0.0621z" fill="#216921"/><path d="M86.34961,169.60257l0.05646,-0.06491l0.58324,0.50732l-0.05647,0.06492z" fill="#216921"/><path d="M87.52578,170.03991l-0.07673,0.04263l-0.38304,-0.6895l0.07674,-0.04264z" fill="#216921"/><path d="M87.75832,169.48084l0.06443,-0.04409l0.39625,0.57889l-0.06443,0.0441z" fill="#216921"/></g><g stroke="#000000"><path d="M98.30939,167.10189c0.39239,-0.20617 1.00862,0.19413 1.37637,0.89409c0.18615,0.3543 0.34776,1.4345 -0.04463,1.64066c-0.39239,0.20617 -1.19022,-0.53978 -1.37637,-0.89409c-0.36775,-0.69995 -0.34776,-1.4345 0.04463,-1.64066z" fill="#35a435"/><path d="M99.74994,169.57947l-0.10881,0.05717l-1.33174,-2.53475l0.10881,-0.05716z" fill="#216921"/><path d="M98.99623,168.27706l-0.04084,0.10265l-0.92228,-0.36705l0.04085,-0.10265z" fill="#216921"/><path d="M99.3228,168.84959l-0.0116,0.10987l-0.98715,-0.10419l0.01159,-0.10986z" fill="#216921"/><path d="M98.99453,167.27308l0.08388,0.01911l-0.17179,0.75368l-0.08389,-0.01912z" fill="#216921"/><path d="M99.16441,168.51637l-0.07382,-0.04751l0.42692,-0.66323l0.07382,0.04751z" fill="#216921"/><path d="M99.76703,168.45735l0.0693,0.03598l-0.32318,0.62264l-0.0693,-0.03597z" fill="#216921"/></g></g></g></g></svg>