<svg version="1.1" xmlns="http://www.w3.org/2000/svg" xmlns:xlink="http://www.w3.org/1999/xlink" width="31.98146" height="31.98347" viewBox="0,0,31.98146,31.98347"><g transform="translate(-223.98948,-163.98896)"><g data-paper-data="{&quot;isPaintingLayer&quot;:true}" fill-rule="nonzero" stroke="#000000" stroke-linejoin="miter" stroke-miterlimit="10" stroke-dasharray="" stroke-dashoffset="0" style="mix-blend-mode: normal"><path d="M236.27951,166.08213c2.12796,-2.12796 5.27952,-2.12048 7.4,0l10.2,10.20001c2.12075,2.12075 2.12306,5.27693 0,7.39999l-10.2,10.2c-2.11784,2.11784 -5.27703,2.12297 -7.4,0l-10.2,-10.2c-2.1222,-2.1222 -2.11789,-5.28211 0,-7.39999z" fill="#47a67a" stroke-width="1" stroke-linecap="butt"/><g fill="none" stroke-width="0.5" stroke-linecap="round"><path d="M238.32795,178.54163l0.85278,-10.23335l2.34514,-2.23855l-1.06598,12.68509"/><path d="M236.0894,179.07462l7.67501,-0.31979l0.1066,2.13195l-7.67501,0.42639z"/><path d="M240.99288,181.09997l-0.95938,10.87293l-2.66493,1.91875l1.38577,-12.2587"/></g></g></g></svg>