<svg version="1.1" xmlns="http://www.w3.org/2000/svg" xmlns:xlink="http://www.w3.org/1999/xlink" width="31.98146" height="31.98347" viewBox="0,0,31.98146,31.98347"><g transform="translate(-223.98948,-163.98896)"><g data-paper-data="{&quot;isPaintingLayer&quot;:true}" fill-rule="nonzero" stroke-linejoin="miter" stroke-miterlimit="10" stroke-dasharray="" stroke-dashoffset="0" style="mix-blend-mode: normal"><path d="M236.27952,166.08212c2.12796,-2.12796 5.27952,-2.12048 7.4,0l10.2,10.20001c2.12075,2.12075 2.12306,5.27693 0,7.39999l-10.2,10.2c-2.11784,2.11784 -5.27703,2.12297 -7.4,0l-10.2,-10.2c-2.1222,-2.1222 -2.11789,-5.28211 0,-7.39999z" fill="#47a67a" stroke="#000000" stroke-width="1" stroke-linecap="butt"/><path d="" fill="#000000" stroke="none" stroke-width="0.5" stroke-linecap="butt"/><path d="M232.94272,182.38821c-0.49322,0 -0.49322,-0.49321 -0.49322,-0.49321c0,-0.57909 0,-1.50563 0,-2.08472c0,0 0,-0.49322 0.49322,-0.49322c0.16768,0 0.27835,0.05701 0.3514,0.13226c0.11282,-0.09589 0.24678,-0.12268 0.24678,-0.12268c0.49542,-0.09908 1.00026,-0.1955 1.51249,-0.28768c0.55026,-1.58641 1.79955,-3.60898 2.48359,-4.39966c1.33696,-2.09186 2.51777,-4.08558 3.67777,-6.36836c-0.00896,-0.01782 -0.0179,-0.03566 -0.02683,-0.05351c0,0 -0.22057,-0.44115 0.22058,-0.66172c0.44115,-0.22057 0.66172,0.22058 0.66172,0.22058c1.82484,3.64967 4.26907,6.53737 5.58601,10.48821l0.00778,0.15481c0.88691,0.01964 1.69318,0.03823 2.5744,0.21242l0.25073,-0.00958c0,0 0.49321,0 0.49321,0.49322c0,0.49322 -0.49321,0.49321 -0.49321,0.49321l-0.44418,-0.00958c-0.89265,-0.18083 -1.70421,-0.17786 -2.61576,-0.20006c-3.85579,-0.55234 -8.19995,-0.10609 -12.12545,0.59705c-0.01306,0.08124 -0.02199,0.15872 -0.02643,0.23191c-0.15296,-0.02308 -0.32033,-0.02319 -0.49293,-0.01486c0.00234,-0.04039 0.00583,-0.08177 0.01042,-0.12406c-0.35759,0.0666 -0.7113,0.13511 -1.06044,0.20493c0,0 -0.14919,0.02984 -0.29842,-0.02649c0,0.42671 0,0.85342 0,1.28012v0.03042c0.04961,-0.00309 0.08243,0.00056 0.08243,0.00056c0.25507,0.02834 0.51108,0.0528 0.76786,0.0736c0.05943,-0.01356 0.10772,-0.00614 0.14638,0.01146c2.9445,0.22237 5.98606,-0.03046 8.87346,-0.43183c1.1265,-0.15659 2.12965,0.23023 3.17233,-0.31361c1.24292,-0.40365 2.87857,-0.385 4.18446,-0.385h0.17373c0,0 0.49321,0 0.49321,0.49322c0,0.49322 -0.49321,0.49321 -0.49321,0.49321h-0.17373c-1.16457,0 -2.71123,-0.06973 -3.80697,0.30991c-1.19149,0.57508 -2.18869,0.1988 -3.42929,0.3813c-2.75905,0.40588 -5.68845,0.63686 -8.52199,0.47336c1.06574,2.31505 3.19197,4.13206 4.52883,6.26394c-0.0084,0.52827 0.3277,0.90607 0.53182,1.37605c2.37541,-2.62168 3.50412,-7.21254 6.71964,-8.37587c0,0 0.46791,-0.15596 0.62388,0.31194c0.15597,0.4679 -0.31194,0.62387 -0.31194,0.62387c-1.03969,0.29983 -1.73341,1.78523 -2.36849,2.60923c-1.40784,1.82663 -2.49425,4.13529 -4.20441,5.79383c0.03476,0.04164 0.13748,0.18942 -0.01031,0.33721c-0.17438,0.17438 -0.34876,0 -0.34876,0l-0.00372,-0.00394c-0.24164,0.20982 -0.49568,0.40653 -0.76441,0.58739l-0.40047,0.20449c0,0 -0.44115,0.22057 -0.66172,-0.22057c-0.22057,-0.44115 0.22058,-0.66172 0.22058,-0.66172l0.29444,-0.14296c0.29048,-0.19147 0.56254,-0.41224 0.81975,-0.65656c-0.19456,-0.58545 -0.59988,-1.01757 -0.60899,-1.64298c-1.45637,-2.1546 -3.53192,-4.0359 -4.59582,-6.43944c-0.31994,-0.02435 -0.63843,-0.05396 -0.95507,-0.08914c0,0 -0.21478,-0.02387 -0.3442,-0.18217c-0.03702,0.00739 -0.07773,0.01146 -0.12251,0.01146zM237.93091,174.93609c-0.63119,0.69279 -1.76086,2.53614 -2.32181,4.00509c3.57761,-0.61501 7.47401,-1.00005 11.01943,-0.63341c-1.24599,-3.55278 -3.41369,-6.24362 -5.13573,-9.49809c-1.12352,2.17765 -2.27598,4.09496 -3.56189,6.12641z" fill="#000000" stroke="none" stroke-width="0.5" stroke-linecap="butt"/><path d="M251.81687,179.73603l-24.00354,1.35131" fill="none" stroke="#000000" stroke-width="0.25" stroke-linecap="round"/><path d="M249.50525,178.47014l2.64185,0.99069l-1.431,2.20154" fill="none" stroke="#000000" stroke-width="0.25" stroke-linecap="round"/></g></g></svg>