<svg version="1.1" xmlns="http://www.w3.org/2000/svg" xmlns:xlink="http://www.w3.org/1999/xlink" width="177.96767" height="61.46592" viewBox="0,0,177.96767,61.46592"><g transform="translate(-144.11328,-147.4475)"><g data-paper-data="{&quot;isPaintingLayer&quot;:true}" fill="none" fill-rule="nonzero" stroke="#ff0000" stroke-width="5" stroke-linejoin="miter" stroke-miterlimit="10" stroke-dasharray="" stroke-dashoffset="0" style="mix-blend-mode: normal"><path d="M272.00952,179.76668h47.57143" data-paper-data="{&quot;index&quot;:null}" stroke-linecap="round"/><path d="M307.60475,156.02857c0,0 -23.87506,0.10281 -24.01431,11.99282c-0.13848,11.82536 12.04294,11.87868 12.04294,11.87868c0,0 11.91835,-0.10091 11.92725,12.1068c0.00873,11.97074 -23.95587,11.87885 -23.95587,11.87885" data-paper-data="{&quot;index&quot;:null}" stroke-linecap="round"/><path d="M227.93809,179.95715c0,-13.21538 5.40457,-23.92857 12.07143,-23.92857c6.66687,0 12.07143,10.71319 12.07143,23.92857c0,13.21538 -5.40457,23.92857 -12.07143,23.92857c-6.66686,0 -12.07143,-10.71319 -12.07143,-23.92857z" data-paper-data="{&quot;index&quot;:null}" stroke-linecap="butt"/><path d="M251.62222,182.14628c-11.95544,-0.25644 -11.99431,-24.23741 -11.99431,-24.23741c0,0 0.01909,24.08178 -11.84842,23.99261c-12.00608,-0.09021 -12.15158,-23.99261 -12.15158,-23.99261h48c0,0 -0.02151,24.49448 -12.00569,24.23741z" data-paper-data="{&quot;index&quot;:null}" stroke-linecap="round"/><path d="M220.78672,206.08008l-33.84011,-33.84011l16.86955,-16.86955" data-paper-data="{&quot;index&quot;:null}" stroke-linecap="round"/><path d="M163.58384,155.70377l16.86955,16.86955l-33.84011,33.84011" data-paper-data="{&quot;index&quot;:null}" stroke-linecap="round"/><g data-paper-data="{&quot;index&quot;:null}" stroke-linecap="round"><path d="M171.79523,205.75527l12,-48l12,48"/><path d="M191.65237,189.75527h-15.57143"/></g></g></g></svg>