<svg version="1.1" xmlns="http://www.w3.org/2000/svg" xmlns:xlink="http://www.w3.org/1999/xlink" width="184.85714" height="60.82303" viewBox="0,0,184.85714,60.82303"><g transform="translate(-153.77143,-145.72081)"><g data-paper-data="{&quot;isPaintingLayer&quot;:true}" fill="none" fill-rule="nonzero" stroke="#ff0000" stroke-width="5" stroke-linejoin="miter" stroke-miterlimit="10" stroke-dasharray="" stroke-dashoffset="0" style="mix-blend-mode: normal"><path d="M156.27143,203.74286v-47.57143" stroke-linecap="round"/><path d="M172.12858,204.02858c0,0 23.87506,-0.10281 24.01431,-11.99282c0.13848,-11.82536 -12.04294,-11.87868 -12.04294,-11.87868c0,0 -11.91835,0.10091 -11.92725,-12.1068c-0.00873,-11.97074 23.95587,-11.87885 23.95587,-11.87885" stroke-linecap="round"/><path d="M224.12857,180.1c0,13.21538 -5.40457,23.92857 -12.07143,23.92857c-6.66687,0 -12.07143,-10.71319 -12.07143,-23.92857c0,-13.21538 5.40457,-23.92857 12.07143,-23.92857c6.66686,0 12.07143,10.71319 12.07143,23.92857z" stroke-linecap="butt"/><path d="M252.22312,168.03426c-0.25644,11.95544 -24.23741,11.99431 -24.23741,11.99431c0,0 24.08178,-0.01909 23.99261,11.84842c-0.09021,12.00608 -23.99261,12.15158 -23.99261,12.15158v-48c0,0 24.49448,0.02151 24.23741,12.00569z" stroke-linecap="round"/><path d="M308.12857,204.02857h-23.85714v-47.85714" stroke-linecap="round"/><path d="M336.12857,204.02857h-23.85714v-47.85714" stroke-linecap="round"/><g stroke-linecap="round"><path d="M256.27143,204.02857l12,-48l12,48"/><path d="M275.98572,188.02857h-15.57143"/></g></g></g></svg>