<svg version="1.1" xmlns="http://www.w3.org/2000/svg" xmlns:xlink="http://www.w3.org/1999/xlink" width="59.71429" height="19.85714" viewBox="0,0,59.71429,19.85714"><g transform="translate(-210.14285,-170.07143)"><g data-paper-data="{&quot;isPaintingLayer&quot;:true}" fill-rule="nonzero" stroke-linejoin="miter" stroke-miterlimit="10" stroke-dasharray="" stroke-dashoffset="0" style="mix-blend-mode: normal"><path d="M210.14286,189.92857v-19.85714h59.71429v19.85714z" fill="#ff0000" stroke="none" stroke-width="0" stroke-linecap="butt"/><path d="M237.3051,184.7905c0.22641,0.34561 -1.53812,3.46301 -1.53812,3.46301h8.38273c0,0 -1.79739,-3.3313 -1.61502,-3.46301c2.46549,-1.78073 1.84574,-13.04401 1.84574,-13.04401h-8.84417c0,0 -0.65778,9.33976 1.76883,13.04401z" fill="#fc5656" stroke="#000000" stroke-width="0.5" stroke-linecap="round"/><path d="M235.53627,176.94101c0,0 -1.58116,-2.13437 -2.23027,-1.15434c-0.64911,0.98003 -0.52536,3.5967 -0.24595,4.89296c0.28448,1.31982 0.96141,2.40746 2.01479,2.95653c1.05338,0.54907 0.99978,-1.3852 0.99978,-1.3852" fill="none" stroke="#000000" stroke-width="0.5" stroke-linecap="round"/><path d="M244.46373,176.62052c0,0 1.58116,-2.13437 2.23027,-1.15434c0.64911,0.98003 0.52536,3.5967 0.24595,4.89296c-0.28448,1.31982 -0.96141,2.40746 -2.01479,2.95653c-1.05338,0.54907 -0.99978,-1.3852 -0.99978,-1.3852" data-paper-data="{&quot;index&quot;:null}" fill="none" stroke="#000000" stroke-width="0.5" stroke-linecap="round"/></g></g></svg>