<svg version="1.1" xmlns="http://www.w3.org/2000/svg" xmlns:xlink="http://www.w3.org/1999/xlink" width="188.85714" height="60.80996" viewBox="0,0,188.85714,60.80996"><g transform="translate(-149.77143,-153.52639)"><g data-paper-data="{&quot;isPaintingLayer&quot;:true}" fill="none" fill-rule="nonzero" stroke="#ff0000" stroke-width="5" stroke-linejoin="miter" stroke-miterlimit="10" stroke-dasharray="" stroke-dashoffset="0" style="mix-blend-mode: normal"><path d="M156.27143,156.17145v47.57143" stroke-linecap="round"/><path d="M172.14407,156.17145c0,0 23.9646,-0.09189 23.95587,11.87885c-0.0089,12.20771 -11.92725,12.1068 -11.92725,12.1068c0,0 -12.18142,0.05332 -12.04294,11.87868c0.13925,11.89001 24.01431,11.99282 24.01431,11.99282" data-paper-data="{&quot;index&quot;:null}" stroke-linecap="round"/><path d="M212.05714,204.02859c-6.66687,0 -12.07143,-10.71319 -12.07143,-23.92857c0,-13.21538 5.40457,-23.92857 12.07143,-23.92857c6.66686,0 6.66686,47.85714 0,47.85714z" stroke-linecap="butt"/><path d="M252.22312,168.03428c-0.25644,11.95544 -0.15563,11.97522 -0.2448,23.84273c-0.09021,12.00608 -23.99261,12.15158 -23.99261,12.15158v-48c0,0 24.49448,0.02151 24.23741,12.00569z" stroke-linecap="round"/><path d="M284.27143,204.02859v-47.85714h23.85714" data-paper-data="{&quot;index&quot;:null}" stroke-linecap="round"/><path d="M336.12857,156.17145v47.85714h-23.85714" data-paper-data="{&quot;index&quot;:null}" stroke-linecap="round"/><path d="M280.27143,156.02859l-12,48l-12,-48" data-paper-data="{&quot;index&quot;:null}" stroke-linecap="round"/><path d="M152.27143,156.02857h8" stroke-linecap="round"/><path d="M152.27143,203.88573h7.85714" stroke-linecap="round"/></g></g></svg>