<svg version="1.1" xmlns="http://www.w3.org/2000/svg" xmlns:xlink="http://www.w3.org/1999/xlink" width="50.81393" height="35.40376" viewBox="0,0,50.81393,35.40376"><g transform="translate(-209.60966,-145.20138)"><g data-paper-data="{&quot;isPaintingLayer&quot;:true}" fill="none" fill-rule="nonzero" stroke="#000000" stroke-width="1" stroke-linejoin="miter" stroke-miterlimit="10" stroke-dasharray="" stroke-dashoffset="0" style="mix-blend-mode: normal"><path d="M229.33523,149.92632c0,0 4.99552,-4.38356 9.50924,-4.2205c23.82049,3.43166 20.97313,15.21382 20.97313,15.21382l-19.3721,17.5721c0,0 2.99771,-10.4328 -18.50006,-14.87332c-6.67821,-1.37944 -11.29791,3.87999 -11.29791,3.87999z" stroke-linecap="butt"/><path d="M223.47807,163.54937c12.69044,3.4073 18.14616,8.6037 17.45166,14.18388c-1.46081,4.09914 -15.47573,1.90638 -19.01902,0.64112c-4.00365,-1.42964 -13.14407,-5.49685 -11.63444,-9.73543c1.60158,-4.49675 4.99659,-6.06508 13.2018,-5.08956z" stroke-linecap="butt"/><path d="M259.41924,158.21966l-18.67969,16.93837" stroke-linecap="round"/><path d="M239.58015,171.6033l18.67969,-16.93837" stroke-linecap="round"/><path d="M255.48407,152.23134l-18.6797,16.93837" stroke-linecap="round"/><path d="M252.44262,149.87427l-18.67969,16.93837" stroke-linecap="round"/><path d="M249.05898,148.20159l-18.6797,16.93837" stroke-linecap="round"/><path d="M226.48236,163.98054l18.6797,-16.93837" stroke-linecap="round"/><path d="M241.09405,146.05386l-18.67969,16.93837" stroke-linecap="round"/><path d="M235.99946,146.26321l-18.67969,16.93837" stroke-linecap="round"/></g></g></svg>