<svg version="1.1" xmlns="http://www.w3.org/2000/svg" xmlns:xlink="http://www.w3.org/1999/xlink" width="184.85714" height="60.82303" viewBox="0,0,184.85714,60.82303"><g transform="translate(-141.77143,-153.51331)"><g data-paper-data="{&quot;isPaintingLayer&quot;:true}" fill="none" fill-rule="nonzero" stroke="#ff0000" stroke-width="5" stroke-linejoin="miter" stroke-miterlimit="10" stroke-dasharray="" stroke-dashoffset="0" style="mix-blend-mode: normal"><path d="M324.12857,203.88572v-47.57143" data-paper-data="{&quot;index&quot;:null}" stroke-linecap="round"/><path d="M308.27142,156.02857c0,0 -23.87506,0.10281 -24.01431,11.99282c-0.13848,11.82536 12.04294,11.87868 12.04294,11.87868c0,0 11.91835,-0.10091 11.92725,12.1068c0.00873,11.97074 -23.95587,11.87885 -23.95587,11.87885" data-paper-data="{&quot;index&quot;:null}" stroke-linecap="round"/><path d="M256.27143,179.95715c0,-13.21538 5.40457,-23.92857 12.07143,-23.92857c6.66687,0 12.07143,10.71319 12.07143,23.92857c0,13.21538 -5.40457,23.92857 -12.07143,23.92857c-6.66686,0 -12.07143,-10.71319 -12.07143,-23.92857z" data-paper-data="{&quot;index&quot;:null}" stroke-linecap="butt"/><path d="M228.17688,192.02289c0.25644,-11.95544 24.23741,-11.99431 24.23741,-11.99431c0,0 -24.08178,0.01909 -23.99261,-11.84842c0.09021,-12.00608 23.99261,-12.15158 23.99261,-12.15158v48c0,0 -24.49448,-0.02151 -24.23741,-12.00569z" data-paper-data="{&quot;index&quot;:null}" stroke-linecap="round"/><path d="M172.27143,156.02858h23.85714v47.85714" data-paper-data="{&quot;index&quot;:null}" stroke-linecap="round"/><path d="M144.27143,156.02858h23.85714v47.85714" data-paper-data="{&quot;index&quot;:null}" stroke-linecap="round"/><g data-paper-data="{&quot;index&quot;:null}" stroke-linecap="round"><path d="M224.12857,156.02858l-12,48l-12,-48"/><path d="M204.41428,172.02858h15.57143"/></g></g></g></svg>