<svg version="1.1" xmlns="http://www.w3.org/2000/svg" xmlns:xlink="http://www.w3.org/1999/xlink" width="48.60921" height="33.36787" viewBox="0,0,48.60921,33.36787"><g transform="translate(-211.34976,-146.38989)"><g data-paper-data="{&quot;isPaintingLayer&quot;:true}" fill="none" fill-rule="nonzero" stroke="#000000" stroke-width="1" stroke-linejoin="miter" stroke-miterlimit="10" stroke-dasharray="" stroke-dashoffset="0" style="mix-blend-mode: normal"><path d="M259.45728,158.72245c0.05325,4.35357 -1.11689,7.8905 -8.62947,14.76371c-6.68704,6.11792 -11.36229,8.02646 -11.35464,2.50539c0.0072,-5.19513 2.92733,-10.77948 9.47155,-16.58821c7.03793,-6.24696 10.45534,-5.3584 10.51255,-0.68089z" stroke-linecap="butt"/><path d="M248.66441,159.38876c-12.89974,12.10059 -8.40264,19.47889 -8.40264,19.47889l-26.94655,-7.69446c0,0 -6.47409,-6.39929 7.79293,-19.7835c6.60634,-5.72699 8.62763,-4.35611 8.62763,-4.35611l27.92898,7.99975c0,0 -2.63396,-0.93914 -9.00035,4.35543z" stroke-linecap="round"/><path d="M252.8785,156.05626l-27.0869,-7.71906" stroke-linecap="round"/><path d="M222.6428,150.57081l27.08689,7.71907" stroke-linecap="round"/><path d="M246.99472,160.78824l-27.0869,-7.71907" stroke-linecap="round"/><path d="M217.29583,155.56752l27.0869,7.71907" stroke-linecap="round"/><path d="M242.47245,166.06565l-27.08689,-7.71907" stroke-linecap="round"/><path d="M213.69812,161.2081l27.0869,7.71907" stroke-linecap="round"/><path d="M239.41156,171.7641l-27.0869,-7.71907" stroke-linecap="round"/><path d="M239.06104,174.84846l-27.0869,-7.71907" stroke-linecap="round"/><path d="M212.44107,169.81004l27.0869,7.71907" stroke-linecap="round"/></g></g></svg>