<svg version="1.1" xmlns="http://www.w3.org/2000/svg" xmlns:xlink="http://www.w3.org/1999/xlink" width="47.60921" height="32.36787" viewBox="0,0,47.60921,32.36787"><g transform="translate(-211.84976,-147.1756)"><g data-paper-data="{&quot;isPaintingLayer&quot;:true}" fill-rule="nonzero" stroke="none" stroke-width="0" stroke-linejoin="miter" stroke-miterlimit="10" stroke-dasharray="" stroke-dashoffset="0" style="mix-blend-mode: normal"><path d="M259.45728,159.00816c0.05325,4.35357 -1.11689,7.8905 -8.62947,14.76371c-6.68704,6.11792 -11.64298,8.02646 -11.49499,2.50539c0.0072,-5.19513 3.06768,-10.91983 9.6119,-16.72856c6.89758,-5.96627 10.45534,-5.21805 10.51255,-0.54054z" fill="#ff2727" stroke-linecap="butt"/><path d="M257.66475,155.31904c0,0 -3.54115,-0.52678 -8.83539,4.35543c-12.89974,12.10059 -8.56759,19.64384 -8.56759,19.64384l-26.94655,-7.85941c0,0 -6.47409,-6.39929 7.79293,-19.7835c6.60634,-5.72699 8.62763,-4.35611 8.62763,-4.35611l27.92898,7.99975z" fill="#f30d0d" stroke-linecap="round"/><path d="" fill="#d90000" stroke-linecap="butt"/><path d="" data-paper-data="{&quot;index&quot;:null}" fill="#ff2727" stroke-linecap="butt"/><path d="" fill="#f30d0d" stroke-linecap="butt"/></g></g></svg>