<svg version="1.1" xmlns="http://www.w3.org/2000/svg" xmlns:xlink="http://www.w3.org/1999/xlink" width="59.71429" height="19.85714" viewBox="0,0,59.71429,19.85714"><g transform="translate(-210.14286,-170.07143)"><g data-paper-data="{&quot;isPaintingLayer&quot;:true}" fill-rule="nonzero" stroke-linecap="butt" stroke-linejoin="miter" stroke-miterlimit="10" stroke-dasharray="" stroke-dashoffset="0" style="mix-blend-mode: normal"><path d="M210.14286,189.92857v-19.85714h59.71429v19.85714z" fill="#ff0000" stroke="none" stroke-width="0"/><path d="M235.87509,186.68832c-8.21928,-1.17296 -2.89654,-13.69045 6.7634,-13.69178c6.79585,-0.00094 10.09522,8.67152 9.84816,9.9296c-0.19612,0.99858 0.3073,2.49284 -2.51388,3.7777c-2.23017,0.38242 -11.03514,0.42154 -14.09765,-0.01551z" fill="#ef7777" stroke="#d64b4b" stroke-width="1.5"/><path d="M243.67361,182.8012c6.3289,-0.00408 -0.37794,-0.08183 5.95038,0c1.25589,0.01624 2.18297,0.86109 2.18297,2.07701c0,1.21595 -0.92708,2.06073 -2.18297,2.07701c-6.311,0.08182 -12.62318,-0.01279 -18.93474,0c-0.1728,0.00035 -0.37865,0.00659 -0.59987,0.00737c-0.13153,0.02353 -0.26723,0.03584 -0.40596,0.03584c-0.27848,0 -0.54479,-0.04962 -0.78969,-0.14006c-0.8153,-0.30112 -1.39328,-1.05481 -1.39328,-1.93694c0,-0.36462 0.08181,-1.26422 0.15992,-1.56725c0.26481,-0.68232 2.76484,-7.72782 8.10812,-7.42716c6.15403,0.34629 7.66684,6.87433 7.90512,6.87418z" fill="#ef7777" stroke="#d64b4b" stroke-width="1.5"/></g></g></svg>